%TF.GenerationSoftware,KiCad,Pcbnew,(5.1.9-0-10_14)*%
%TF.CreationDate,2021-09-05T14:47:07-05:00*%
%TF.ProjectId,wren-universal,7772656e-2d75-46e6-9976-657273616c2e,rev?*%
%TF.SameCoordinates,Original*%
%TF.FileFunction,Soldermask,Bot*%
%TF.FilePolarity,Negative*%
%FSLAX46Y46*%
G04 Gerber Fmt 4.6, Leading zero omitted, Abs format (unit mm)*
G04 Created by KiCad (PCBNEW (5.1.9-0-10_14)) date 2021-09-05 14:47:07*
%MOMM*%
%LPD*%
G01*
G04 APERTURE LIST*
%ADD10C,2.100000*%
%ADD11C,1.701800*%
%ADD12C,2.286000*%
%ADD13C,3.987800*%
%ADD14C,1.752600*%
%ADD15R,1.752600X1.752600*%
%ADD16C,5.500000*%
%ADD17C,1.300000*%
%ADD18C,3.048000*%
%ADD19C,1.600000*%
%ADD20R,1.600000X1.600000*%
%ADD21R,1.200000X1.200000*%
%ADD22O,1.400000X1.400000*%
%ADD23C,1.400000*%
%ADD24C,0.100000*%
%ADD25C,2.000000*%
%ADD26R,2.000000X3.200000*%
%ADD27R,2.000000X2.000000*%
G04 APERTURE END LIST*
D10*
%TO.C,FID10*%
X57143750Y-113855500D03*
%TD*%
%TO.C,FID11*%
X57143750Y-107505500D03*
%TD*%
%TO.C,FID8*%
X57143750Y-110648750D03*
%TD*%
%TO.C,FID13*%
X57143750Y-75755500D03*
%TD*%
%TO.C,FID12*%
X57143750Y-72548750D03*
%TD*%
%TO.C,FID14*%
X57143750Y-69278500D03*
%TD*%
%TO.C,FID6*%
X116706750Y-75755500D03*
%TD*%
%TO.C,FID5*%
X116706750Y-72548750D03*
%TD*%
%TO.C,FID4*%
X116706750Y-69405500D03*
%TD*%
%TO.C,FID9*%
X116706750Y-113855500D03*
%TD*%
%TO.C,FID15*%
X116706750Y-110648750D03*
%TD*%
%TO.C,FID7*%
X116706750Y-107505500D03*
%TD*%
D11*
%TO.C,MX27*%
X100806250Y-101155500D03*
X110966250Y-101155500D03*
D12*
X102076250Y-98615500D03*
D13*
X105886250Y-101155500D03*
D12*
X108426250Y-96075500D03*
X103346250Y-96075500D03*
X109696250Y-98615500D03*
%TD*%
D14*
%TO.C,U2*%
X98244250Y-55435500D03*
X113484250Y-83375500D03*
X98244250Y-57975500D03*
X98244250Y-60515500D03*
X98244250Y-63055500D03*
X98244250Y-65595500D03*
X98244250Y-68135500D03*
X98244250Y-70675500D03*
X98244250Y-73215500D03*
X98244250Y-75755500D03*
X98244250Y-78295500D03*
X98244250Y-80835500D03*
X98244250Y-83375500D03*
X113484250Y-80835500D03*
X113484250Y-78295500D03*
X113484250Y-75755500D03*
X113484250Y-73215500D03*
X113484250Y-70675500D03*
X113484250Y-68135500D03*
X113484250Y-65595500D03*
X113484250Y-63055500D03*
X113484250Y-60515500D03*
X113484250Y-57975500D03*
D15*
X113484250Y-55435500D03*
%TD*%
D16*
%TO.C,H9*%
X58254250Y-91630500D03*
%TD*%
%TO.C,H8*%
X96342250Y-91630500D03*
%TD*%
%TO.C,J1*%
G36*
G01*
X260557204Y-117442649D02*
X260907204Y-116836431D01*
G75*
G02*
X262546434Y-116397201I1039230J-600000D01*
G01*
X262546434Y-116397201D01*
G75*
G02*
X262985664Y-118036431I-600000J-1039230D01*
G01*
X262635664Y-118642649D01*
G75*
G02*
X260996434Y-119081879I-1039230J600000D01*
G01*
X260996434Y-119081879D01*
G75*
G02*
X260557204Y-117442649I600000J1039230D01*
G01*
G37*
G36*
G01*
X262317011Y-114994573D02*
X262667011Y-114388355D01*
G75*
G02*
X263896434Y-114058932I779423J-450000D01*
G01*
X263896434Y-114058932D01*
G75*
G02*
X264225857Y-115288355I-450000J-779423D01*
G01*
X263875857Y-115894573D01*
G75*
G02*
X262646434Y-116223996I-779423J450000D01*
G01*
X262646434Y-116223996D01*
G75*
G02*
X262317011Y-114994573I450000J779423D01*
G01*
G37*
G36*
G01*
X258817011Y-121056751D02*
X259167011Y-120450533D01*
G75*
G02*
X260396434Y-120121110I779423J-450000D01*
G01*
X260396434Y-120121110D01*
G75*
G02*
X260725857Y-121350533I-450000J-779423D01*
G01*
X260375857Y-121956751D01*
G75*
G02*
X259146434Y-122286174I-779423J450000D01*
G01*
X259146434Y-122286174D01*
G75*
G02*
X258817011Y-121056751I450000J779423D01*
G01*
G37*
G36*
G01*
X254283294Y-119709379D02*
X254633294Y-119103161D01*
G75*
G02*
X255862717Y-118773738I779423J-450000D01*
G01*
X255862717Y-118773738D01*
G75*
G02*
X256192140Y-120003161I-450000J-779423D01*
G01*
X255842140Y-120609379D01*
G75*
G02*
X254612717Y-120938802I-779423J450000D01*
G01*
X254612717Y-120938802D01*
G75*
G02*
X254283294Y-119709379I450000J779423D01*
G01*
G37*
D17*
X258379576Y-119014411D03*
X261879576Y-112952233D03*
X260234127Y-112002233D03*
X256734127Y-118064411D03*
G36*
G01*
X256621563Y-121059379D02*
X256971563Y-120453161D01*
G75*
G02*
X258200986Y-120123738I779423J-450000D01*
G01*
X258200986Y-120123738D01*
G75*
G02*
X258530409Y-121353161I-450000J-779423D01*
G01*
X258180409Y-121959379D01*
G75*
G02*
X256950986Y-122288802I-779423J450000D01*
G01*
X256950986Y-122288802D01*
G75*
G02*
X256621563Y-121059379I450000J779423D01*
G01*
G37*
G36*
G01*
X253187846Y-117806751D02*
X253537846Y-117200533D01*
G75*
G02*
X254767269Y-116871110I779423J-450000D01*
G01*
X254767269Y-116871110D01*
G75*
G02*
X255096692Y-118100533I-450000J-779423D01*
G01*
X254746692Y-118706751D01*
G75*
G02*
X253517269Y-119036174I-779423J450000D01*
G01*
X253517269Y-119036174D01*
G75*
G02*
X253187846Y-117806751I450000J779423D01*
G01*
G37*
G36*
G01*
X256687846Y-111744573D02*
X257037846Y-111138355D01*
G75*
G02*
X258267269Y-110808932I779423J-450000D01*
G01*
X258267269Y-110808932D01*
G75*
G02*
X258596692Y-112038355I-450000J-779423D01*
G01*
X258246692Y-112644573D01*
G75*
G02*
X257017269Y-112973996I-779423J450000D01*
G01*
X257017269Y-112973996D01*
G75*
G02*
X256687846Y-111744573I450000J779423D01*
G01*
G37*
G36*
G01*
X255187846Y-114342649D02*
X255537846Y-113736431D01*
G75*
G02*
X256767269Y-113407008I779423J-450000D01*
G01*
X256767269Y-113407008D01*
G75*
G02*
X257096692Y-114636431I-450000J-779423D01*
G01*
X256746692Y-115242649D01*
G75*
G02*
X255517269Y-115572072I-779423J450000D01*
G01*
X255517269Y-115572072D01*
G75*
G02*
X255187846Y-114342649I450000J779423D01*
G01*
G37*
%TD*%
D11*
%TO.C,MX39*%
X62706250Y-120205500D03*
X72866250Y-120205500D03*
D12*
X63976250Y-117665500D03*
D13*
X67786250Y-120205500D03*
D12*
X70326250Y-115125500D03*
X65246250Y-115125500D03*
X71596250Y-117665500D03*
%TD*%
D11*
%TO.C,MX36*%
X122237500Y-120205500D03*
X132397500Y-120205500D03*
D12*
X123507500Y-117665500D03*
D13*
X127317500Y-120205500D03*
D12*
X129857500Y-115125500D03*
X124777500Y-115125500D03*
X131127500Y-117665500D03*
%TD*%
D18*
%TO.C,FID1*%
X253388187Y-129489548D03*
X241488187Y-150100952D03*
D13*
X240189960Y-121869548D03*
X228289960Y-142480952D03*
%TD*%
D11*
%TO.C,MX21*%
X217487500Y-97186750D03*
X227647500Y-97186750D03*
D12*
X218757500Y-94646750D03*
D13*
X222567500Y-97186750D03*
D12*
X225107500Y-92106750D03*
X220027500Y-92106750D03*
X226377500Y-94646750D03*
%TD*%
D11*
%TO.C,MX41*%
X238849000Y-140702159D03*
X243929000Y-131903341D03*
D12*
X237284295Y-138332307D03*
D13*
X241389000Y-136302750D03*
D12*
X238259591Y-131563045D03*
X235719591Y-135962455D03*
X241094295Y-131733193D03*
%TD*%
D11*
%TO.C,MX10*%
X43656250Y-63055500D03*
X53816250Y-63055500D03*
D12*
X44926250Y-60515500D03*
D13*
X48736250Y-63055500D03*
D12*
X51276250Y-57975500D03*
X46196250Y-57975500D03*
X52546250Y-60515500D03*
%TD*%
D11*
%TO.C,MX15*%
X141287500Y-82105500D03*
X151447500Y-82105500D03*
D12*
X142557500Y-79565500D03*
D13*
X146367500Y-82105500D03*
D12*
X148907500Y-77025500D03*
X143827500Y-77025500D03*
X150177500Y-79565500D03*
%TD*%
D11*
%TO.C,MX44*%
X170650000Y-135794750D03*
X180810000Y-135794750D03*
D12*
X171920000Y-133254750D03*
D13*
X175730000Y-135794750D03*
D12*
X178270000Y-130714750D03*
X173190000Y-130714750D03*
X179540000Y-133254750D03*
%TD*%
D11*
%TO.C,MX43*%
X189700000Y-135794750D03*
X199860000Y-135794750D03*
D12*
X190970000Y-133254750D03*
D13*
X194780000Y-135794750D03*
D12*
X197320000Y-130714750D03*
X192240000Y-130714750D03*
X198590000Y-133254750D03*
%TD*%
D11*
%TO.C,MX42*%
X208750000Y-138461750D03*
X218910000Y-138461750D03*
D12*
X210020000Y-135921750D03*
D13*
X213830000Y-138461750D03*
D12*
X216370000Y-133381750D03*
X211290000Y-133381750D03*
X217640000Y-135921750D03*
%TD*%
D11*
%TO.C,MX40*%
X43656250Y-120205500D03*
X53816250Y-120205500D03*
D12*
X44926250Y-117665500D03*
D13*
X48736250Y-120205500D03*
D12*
X51276250Y-115125500D03*
X46196250Y-115125500D03*
X52546250Y-117665500D03*
%TD*%
D11*
%TO.C,MX38*%
X81756250Y-120205500D03*
X91916250Y-120205500D03*
D12*
X83026250Y-117665500D03*
D13*
X86836250Y-120205500D03*
D12*
X89376250Y-115125500D03*
X84296250Y-115125500D03*
X90646250Y-117665500D03*
%TD*%
D11*
%TO.C,MX37*%
X100806250Y-120205500D03*
X110966250Y-120205500D03*
D12*
X102076250Y-117665500D03*
D13*
X105886250Y-120205500D03*
D12*
X108426250Y-115125500D03*
X103346250Y-115125500D03*
X109696250Y-117665500D03*
%TD*%
D11*
%TO.C,MX35*%
X141287500Y-120205500D03*
X151447500Y-120205500D03*
D12*
X142557500Y-117665500D03*
D13*
X146367500Y-120205500D03*
D12*
X148907500Y-115125500D03*
X143827500Y-115125500D03*
X150177500Y-117665500D03*
%TD*%
D11*
%TO.C,MX34*%
X160337500Y-113855500D03*
X170497500Y-113855500D03*
D12*
X161607500Y-111315500D03*
D13*
X165417500Y-113855500D03*
D12*
X167957500Y-108775500D03*
X162877500Y-108775500D03*
X169227500Y-111315500D03*
%TD*%
D11*
%TO.C,MX33*%
X179387500Y-111474250D03*
X189547500Y-111474250D03*
D12*
X180657500Y-108934250D03*
D13*
X184467500Y-111474250D03*
D12*
X187007500Y-106394250D03*
X181927500Y-106394250D03*
X188277500Y-108934250D03*
%TD*%
D11*
%TO.C,MX32*%
X198437500Y-113855500D03*
X208597500Y-113855500D03*
D12*
X199707500Y-111315500D03*
D13*
X203517500Y-113855500D03*
D12*
X206057500Y-108775500D03*
X200977500Y-108775500D03*
X207327500Y-111315500D03*
%TD*%
D11*
%TO.C,MX31*%
X217487500Y-116236750D03*
X227647500Y-116236750D03*
D12*
X218757500Y-113696750D03*
D13*
X222567500Y-116236750D03*
D12*
X225107500Y-111156750D03*
X220027500Y-111156750D03*
X226377500Y-113696750D03*
%TD*%
D11*
%TO.C,MX30*%
X43656250Y-101155500D03*
X53816250Y-101155500D03*
D12*
X44926250Y-98615500D03*
D13*
X48736250Y-101155500D03*
D12*
X51276250Y-96075500D03*
X46196250Y-96075500D03*
X52546250Y-98615500D03*
%TD*%
D11*
%TO.C,MX29*%
X62706250Y-101155500D03*
X72866250Y-101155500D03*
D12*
X63976250Y-98615500D03*
D13*
X67786250Y-101155500D03*
D12*
X70326250Y-96075500D03*
X65246250Y-96075500D03*
X71596250Y-98615500D03*
%TD*%
D11*
%TO.C,MX28*%
X81756250Y-101155500D03*
X91916250Y-101155500D03*
D12*
X83026250Y-98615500D03*
D13*
X86836250Y-101155500D03*
D12*
X89376250Y-96075500D03*
X84296250Y-96075500D03*
X90646250Y-98615500D03*
%TD*%
D11*
%TO.C,MX26*%
X122237500Y-101155500D03*
X132397500Y-101155500D03*
D12*
X123507500Y-98615500D03*
D13*
X127317500Y-101155500D03*
D12*
X129857500Y-96075500D03*
X124777500Y-96075500D03*
X131127500Y-98615500D03*
%TD*%
D11*
%TO.C,MX25*%
X141287500Y-101155500D03*
X151447500Y-101155500D03*
D12*
X142557500Y-98615500D03*
D13*
X146367500Y-101155500D03*
D12*
X148907500Y-96075500D03*
X143827500Y-96075500D03*
X150177500Y-98615500D03*
%TD*%
D11*
%TO.C,MX24*%
X160337500Y-94805500D03*
X170497500Y-94805500D03*
D12*
X161607500Y-92265500D03*
D13*
X165417500Y-94805500D03*
D12*
X167957500Y-89725500D03*
X162877500Y-89725500D03*
X169227500Y-92265500D03*
%TD*%
D11*
%TO.C,MX23*%
X179387500Y-92424250D03*
X189547500Y-92424250D03*
D12*
X180657500Y-89884250D03*
D13*
X184467500Y-92424250D03*
D12*
X187007500Y-87344250D03*
X181927500Y-87344250D03*
X188277500Y-89884250D03*
%TD*%
D11*
%TO.C,MX22*%
X198437500Y-94805500D03*
X208597500Y-94805500D03*
D12*
X199707500Y-92265500D03*
D13*
X203517500Y-94805500D03*
D12*
X206057500Y-89725500D03*
X200977500Y-89725500D03*
X207327500Y-92265500D03*
%TD*%
D11*
%TO.C,MX20*%
X43656250Y-82105500D03*
X53816250Y-82105500D03*
D12*
X44926250Y-79565500D03*
D13*
X48736250Y-82105500D03*
D12*
X51276250Y-77025500D03*
X46196250Y-77025500D03*
X52546250Y-79565500D03*
%TD*%
D11*
%TO.C,MX19*%
X62706250Y-82105500D03*
X72866250Y-82105500D03*
D12*
X63976250Y-79565500D03*
D13*
X67786250Y-82105500D03*
D12*
X70326250Y-77025500D03*
X65246250Y-77025500D03*
X71596250Y-79565500D03*
%TD*%
D11*
%TO.C,MX18*%
X81756250Y-82105500D03*
X91916250Y-82105500D03*
D12*
X83026250Y-79565500D03*
D13*
X86836250Y-82105500D03*
D12*
X89376250Y-77025500D03*
X84296250Y-77025500D03*
X90646250Y-79565500D03*
%TD*%
D11*
%TO.C,MX17*%
X100806250Y-82105500D03*
X110966250Y-82105500D03*
D12*
X102076250Y-79565500D03*
D13*
X105886250Y-82105500D03*
D12*
X108426250Y-77025500D03*
X103346250Y-77025500D03*
X109696250Y-79565500D03*
%TD*%
D11*
%TO.C,MX16*%
X122237500Y-82105500D03*
X132397500Y-82105500D03*
D12*
X123507500Y-79565500D03*
D13*
X127317500Y-82105500D03*
D12*
X129857500Y-77025500D03*
X124777500Y-77025500D03*
X131127500Y-79565500D03*
%TD*%
D11*
%TO.C,MX14*%
X160337500Y-75755500D03*
X170497500Y-75755500D03*
D12*
X161607500Y-73215500D03*
D13*
X165417500Y-75755500D03*
D12*
X167957500Y-70675500D03*
X162877500Y-70675500D03*
X169227500Y-73215500D03*
%TD*%
D11*
%TO.C,MX13*%
X179387500Y-73374250D03*
X189547500Y-73374250D03*
D12*
X180657500Y-70834250D03*
D13*
X184467500Y-73374250D03*
D12*
X187007500Y-68294250D03*
X181927500Y-68294250D03*
X188277500Y-70834250D03*
%TD*%
D11*
%TO.C,MX12*%
X198437500Y-75755500D03*
X208597500Y-75755500D03*
D12*
X199707500Y-73215500D03*
D13*
X203517500Y-75755500D03*
D12*
X206057500Y-70675500D03*
X200977500Y-70675500D03*
X207327500Y-73215500D03*
%TD*%
D11*
%TO.C,MX11*%
X217487500Y-78136750D03*
X227647500Y-78136750D03*
D12*
X218757500Y-75596750D03*
D13*
X222567500Y-78136750D03*
D12*
X225107500Y-73056750D03*
X220027500Y-73056750D03*
X226377500Y-75596750D03*
%TD*%
D11*
%TO.C,MX9*%
X62706250Y-63055500D03*
X72866250Y-63055500D03*
D12*
X63976250Y-60515500D03*
D13*
X67786250Y-63055500D03*
D12*
X70326250Y-57975500D03*
X65246250Y-57975500D03*
X71596250Y-60515500D03*
%TD*%
D11*
%TO.C,MX8*%
X81756250Y-63055500D03*
X91916250Y-63055500D03*
D12*
X83026250Y-60515500D03*
D13*
X86836250Y-63055500D03*
D12*
X89376250Y-57975500D03*
X84296250Y-57975500D03*
X90646250Y-60515500D03*
%TD*%
D11*
%TO.C,MX7*%
X100806250Y-63055500D03*
X110966250Y-63055500D03*
D12*
X102076250Y-60515500D03*
D13*
X105886250Y-63055500D03*
D12*
X108426250Y-57975500D03*
X103346250Y-57975500D03*
X109696250Y-60515500D03*
%TD*%
D11*
%TO.C,MX6*%
X122237500Y-63055500D03*
X132397500Y-63055500D03*
D12*
X123507500Y-60515500D03*
D13*
X127317500Y-63055500D03*
D12*
X129857500Y-57975500D03*
X124777500Y-57975500D03*
X131127500Y-60515500D03*
%TD*%
D11*
%TO.C,MX5*%
X141287500Y-63055500D03*
X151447500Y-63055500D03*
D12*
X142557500Y-60515500D03*
D13*
X146367500Y-63055500D03*
D12*
X148907500Y-57975500D03*
X143827500Y-57975500D03*
X150177500Y-60515500D03*
%TD*%
D11*
%TO.C,MX4*%
X160337500Y-56705500D03*
X170497500Y-56705500D03*
D12*
X161607500Y-54165500D03*
D13*
X165417500Y-56705500D03*
D12*
X167957500Y-51625500D03*
X162877500Y-51625500D03*
X169227500Y-54165500D03*
%TD*%
D11*
%TO.C,MX3*%
X179387500Y-54324250D03*
X189547500Y-54324250D03*
D12*
X180657500Y-51784250D03*
D13*
X184467500Y-54324250D03*
D12*
X187007500Y-49244250D03*
X181927500Y-49244250D03*
X188277500Y-51784250D03*
%TD*%
D11*
%TO.C,MX2*%
X198437500Y-56705500D03*
X208597500Y-56705500D03*
D12*
X199707500Y-54165500D03*
D13*
X203517500Y-56705500D03*
D12*
X206057500Y-51625500D03*
X200977500Y-51625500D03*
X207327500Y-54165500D03*
%TD*%
D11*
%TO.C,MX1*%
X217487500Y-59086750D03*
X227647500Y-59086750D03*
D12*
X218757500Y-56546750D03*
D13*
X222567500Y-59086750D03*
D12*
X225107500Y-54006750D03*
X220027500Y-54006750D03*
X226377500Y-56546750D03*
%TD*%
D14*
%TO.C,U1*%
X248285000Y-84963000D03*
X245745000Y-84963000D03*
X243205000Y-84963000D03*
X240665000Y-84963000D03*
X238125000Y-84963000D03*
X235585000Y-57023000D03*
X250596400Y-84963000D03*
X235585000Y-59563000D03*
X235585000Y-62103000D03*
X235585000Y-64643000D03*
X235585000Y-67183000D03*
X235585000Y-69723000D03*
X235585000Y-72263000D03*
X235585000Y-74803000D03*
X235585000Y-77343000D03*
X235585000Y-79883000D03*
X235585000Y-82423000D03*
X235585000Y-84963000D03*
X250825000Y-82423000D03*
X250825000Y-79883000D03*
X250825000Y-77343000D03*
X250825000Y-74803000D03*
X250825000Y-72263000D03*
X250825000Y-69723000D03*
X250825000Y-67183000D03*
X250825000Y-64643000D03*
X250825000Y-62103000D03*
X250825000Y-59563000D03*
D15*
X250825000Y-57023000D03*
%TD*%
D19*
%TO.C,D43*%
X198680000Y-140843000D03*
D20*
X190880000Y-140843000D03*
D21*
X193205000Y-140843000D03*
X196355000Y-140843000D03*
%TD*%
D16*
%TO.C,H7*%
X228155500Y-132556250D03*
%TD*%
%TO.C,H6*%
X213042500Y-106711750D03*
%TD*%
%TO.C,H5*%
X136842500Y-110680500D03*
%TD*%
%TO.C,H4*%
X77305000Y-110680500D03*
%TD*%
%TO.C,H3*%
X213042500Y-68611750D03*
%TD*%
%TO.C,H2*%
X136842500Y-72580500D03*
%TD*%
%TO.C,H1*%
X77305000Y-72580500D03*
%TD*%
D22*
%TO.C,R2*%
X240490000Y-70199250D03*
D23*
X245570000Y-70199250D03*
%TD*%
D22*
%TO.C,R1*%
X240490000Y-64643000D03*
D23*
X245570000Y-64643000D03*
%TD*%
D19*
%TO.C,D45*%
X163247000Y-132365750D03*
D20*
X155447000Y-132365750D03*
D21*
X157772000Y-132365750D03*
X160922000Y-132365750D03*
%TD*%
D19*
%TO.C,D44*%
X179630000Y-140843000D03*
D20*
X171830000Y-140843000D03*
D21*
X174155000Y-140843000D03*
X177305000Y-140843000D03*
%TD*%
D19*
%TO.C,D42*%
X217730000Y-143224250D03*
D20*
X209930000Y-143224250D03*
D21*
X212255000Y-143224250D03*
X215405000Y-143224250D03*
%TD*%
D19*
%TO.C,D41*%
X247523000Y-135084251D03*
D24*
G36*
X243915820Y-142932069D02*
G01*
X242530180Y-142132069D01*
X243330180Y-140746429D01*
X244715820Y-141546429D01*
X243915820Y-142932069D01*
G37*
G36*
X245005115Y-140645355D02*
G01*
X243965885Y-140045355D01*
X244565885Y-139006125D01*
X245605115Y-139606125D01*
X245005115Y-140645355D01*
G37*
G36*
X246580115Y-137917375D02*
G01*
X245540885Y-137317375D01*
X246140885Y-136278145D01*
X247180115Y-136878145D01*
X246580115Y-137917375D01*
G37*
%TD*%
D19*
%TO.C,D40*%
X52630000Y-124968000D03*
D20*
X44830000Y-124968000D03*
D21*
X47155000Y-124968000D03*
X50305000Y-124968000D03*
%TD*%
D19*
%TO.C,D39*%
X71680000Y-124968000D03*
D20*
X63880000Y-124968000D03*
D21*
X66205000Y-124968000D03*
X69355000Y-124968000D03*
%TD*%
D19*
%TO.C,D38*%
X90730000Y-124968000D03*
D20*
X82930000Y-124968000D03*
D21*
X85255000Y-124968000D03*
X88405000Y-124968000D03*
%TD*%
D19*
%TO.C,D37*%
X109780000Y-124968000D03*
D20*
X101980000Y-124968000D03*
D21*
X104305000Y-124968000D03*
X107455000Y-124968000D03*
%TD*%
D19*
%TO.C,D36*%
X131211250Y-124968000D03*
D20*
X123411250Y-124968000D03*
D21*
X125736250Y-124968000D03*
X128886250Y-124968000D03*
%TD*%
D19*
%TO.C,D35*%
X150261250Y-124968000D03*
D20*
X142461250Y-124968000D03*
D21*
X144786250Y-124968000D03*
X147936250Y-124968000D03*
%TD*%
D19*
%TO.C,D34*%
X169311250Y-118618000D03*
D20*
X161511250Y-118618000D03*
D21*
X163836250Y-118618000D03*
X166986250Y-118618000D03*
%TD*%
D19*
%TO.C,D33*%
X188361250Y-116236750D03*
D20*
X180561250Y-116236750D03*
D21*
X182886250Y-116236750D03*
X186036250Y-116236750D03*
%TD*%
D19*
%TO.C,D32*%
X207411250Y-118618000D03*
D20*
X199611250Y-118618000D03*
D21*
X201936250Y-118618000D03*
X205086250Y-118618000D03*
%TD*%
D19*
%TO.C,D31*%
X226461250Y-120999250D03*
D20*
X218661250Y-120999250D03*
D21*
X220986250Y-120999250D03*
X224136250Y-120999250D03*
%TD*%
D19*
%TO.C,D30*%
X52630000Y-105918000D03*
D20*
X44830000Y-105918000D03*
D21*
X47155000Y-105918000D03*
X50305000Y-105918000D03*
%TD*%
D19*
%TO.C,D29*%
X71680000Y-105918000D03*
D20*
X63880000Y-105918000D03*
D21*
X66205000Y-105918000D03*
X69355000Y-105918000D03*
%TD*%
D19*
%TO.C,D28*%
X90730000Y-105918000D03*
D20*
X82930000Y-105918000D03*
D21*
X85255000Y-105918000D03*
X88405000Y-105918000D03*
%TD*%
D19*
%TO.C,D27*%
X109780000Y-105918000D03*
D20*
X101980000Y-105918000D03*
D21*
X104305000Y-105918000D03*
X107455000Y-105918000D03*
%TD*%
D19*
%TO.C,D26*%
X131211250Y-105918000D03*
D20*
X123411250Y-105918000D03*
D21*
X125736250Y-105918000D03*
X128886250Y-105918000D03*
%TD*%
D19*
%TO.C,D25*%
X150261250Y-105918000D03*
D20*
X142461250Y-105918000D03*
D21*
X144786250Y-105918000D03*
X147936250Y-105918000D03*
%TD*%
D19*
%TO.C,D24*%
X169311250Y-99568000D03*
D20*
X161511250Y-99568000D03*
D21*
X163836250Y-99568000D03*
X166986250Y-99568000D03*
%TD*%
D19*
%TO.C,D23*%
X188361250Y-97186750D03*
D20*
X180561250Y-97186750D03*
D21*
X182886250Y-97186750D03*
X186036250Y-97186750D03*
%TD*%
D19*
%TO.C,D22*%
X207411250Y-99568000D03*
D20*
X199611250Y-99568000D03*
D21*
X201936250Y-99568000D03*
X205086250Y-99568000D03*
%TD*%
D19*
%TO.C,D21*%
X226461250Y-101949250D03*
D20*
X218661250Y-101949250D03*
D21*
X220986250Y-101949250D03*
X224136250Y-101949250D03*
%TD*%
D19*
%TO.C,D20*%
X52630000Y-86868000D03*
D20*
X44830000Y-86868000D03*
D21*
X47155000Y-86868000D03*
X50305000Y-86868000D03*
%TD*%
D19*
%TO.C,D19*%
X71680000Y-86868000D03*
D20*
X63880000Y-86868000D03*
D21*
X66205000Y-86868000D03*
X69355000Y-86868000D03*
%TD*%
D19*
%TO.C,D18*%
X90730000Y-86868000D03*
D20*
X82930000Y-86868000D03*
D21*
X85255000Y-86868000D03*
X88405000Y-86868000D03*
%TD*%
D19*
%TO.C,D17*%
X109653000Y-86868000D03*
D20*
X101853000Y-86868000D03*
D21*
X104178000Y-86868000D03*
X107328000Y-86868000D03*
%TD*%
D19*
%TO.C,D16*%
X131211250Y-86868000D03*
D20*
X123411250Y-86868000D03*
D21*
X125736250Y-86868000D03*
X128886250Y-86868000D03*
%TD*%
D19*
%TO.C,D15*%
X150261250Y-86868000D03*
D20*
X142461250Y-86868000D03*
D21*
X144786250Y-86868000D03*
X147936250Y-86868000D03*
%TD*%
D19*
%TO.C,D14*%
X169311250Y-80518000D03*
D20*
X161511250Y-80518000D03*
D21*
X163836250Y-80518000D03*
X166986250Y-80518000D03*
%TD*%
D19*
%TO.C,D13*%
X188361250Y-78136750D03*
D20*
X180561250Y-78136750D03*
D21*
X182886250Y-78136750D03*
X186036250Y-78136750D03*
%TD*%
D19*
%TO.C,D12*%
X207411250Y-80518000D03*
D20*
X199611250Y-80518000D03*
D21*
X201936250Y-80518000D03*
X205086250Y-80518000D03*
%TD*%
D19*
%TO.C,D11*%
X226461250Y-82899250D03*
D20*
X218661250Y-82899250D03*
D21*
X220986250Y-82899250D03*
X224136250Y-82899250D03*
%TD*%
D19*
%TO.C,D10*%
X52630000Y-67818000D03*
D20*
X44830000Y-67818000D03*
D21*
X47155000Y-67818000D03*
X50305000Y-67818000D03*
%TD*%
D19*
%TO.C,D9*%
X71680000Y-67818000D03*
D20*
X63880000Y-67818000D03*
D21*
X66205000Y-67818000D03*
X69355000Y-67818000D03*
%TD*%
D19*
%TO.C,D8*%
X90730000Y-67818000D03*
D20*
X82930000Y-67818000D03*
D21*
X85255000Y-67818000D03*
X88405000Y-67818000D03*
%TD*%
D19*
%TO.C,D7*%
X109780000Y-67818000D03*
D20*
X101980000Y-67818000D03*
D21*
X104305000Y-67818000D03*
X107455000Y-67818000D03*
%TD*%
D19*
%TO.C,D6*%
X131211250Y-67818000D03*
D20*
X123411250Y-67818000D03*
D21*
X125736250Y-67818000D03*
X128886250Y-67818000D03*
%TD*%
D19*
%TO.C,D5*%
X150261250Y-67818000D03*
D20*
X142461250Y-67818000D03*
D21*
X144786250Y-67818000D03*
X147936250Y-67818000D03*
%TD*%
D19*
%TO.C,D4*%
X169311250Y-61468000D03*
D20*
X161511250Y-61468000D03*
D21*
X163836250Y-61468000D03*
X166986250Y-61468000D03*
%TD*%
D19*
%TO.C,D3*%
X188361250Y-59086750D03*
D20*
X180561250Y-59086750D03*
D21*
X182886250Y-59086750D03*
X186036250Y-59086750D03*
%TD*%
D19*
%TO.C,D2*%
X207411250Y-61468000D03*
D20*
X199611250Y-61468000D03*
D21*
X201936250Y-61468000D03*
X205086250Y-61468000D03*
%TD*%
D19*
%TO.C,D1*%
X226461250Y-63849250D03*
D20*
X218661250Y-63849250D03*
D21*
X220986250Y-63849250D03*
X224136250Y-63849250D03*
%TD*%
D25*
%TO.C,ENC1*%
X161807000Y-128809750D03*
X156807000Y-128809750D03*
D26*
X164907000Y-135809750D03*
X153707000Y-135809750D03*
D25*
X161807000Y-143309750D03*
X159307000Y-143309750D03*
D27*
X156807000Y-143309750D03*
%TD*%
D25*
%TO.C,SW0*%
X246466500Y-89249250D03*
X246466500Y-93749250D03*
X239966500Y-89249250D03*
X239966500Y-93749250D03*
%TD*%
M02*
