%TF.GenerationSoftware,KiCad,Pcbnew,(5.1.9-0-10_14)*%
%TF.CreationDate,2021-04-25T18:41:16-05:00*%
%TF.ProjectId,wren-numpad,7772656e-2d6e-4756-9d70-61642e6b6963,rev?*%
%TF.SameCoordinates,Original*%
%TF.FileFunction,Legend,Bot*%
%TF.FilePolarity,Positive*%
%FSLAX46Y46*%
G04 Gerber Fmt 4.6, Leading zero omitted, Abs format (unit mm)*
G04 Created by KiCad (PCBNEW (5.1.9-0-10_14)) date 2021-04-25 18:41:16*
%MOMM*%
%LPD*%
G01*
G04 APERTURE LIST*
%ADD10C,0.150000*%
%ADD11C,0.010000*%
%ADD12C,0.381000*%
%ADD13C,0.200000*%
%ADD14C,0.120000*%
G04 APERTURE END LIST*
D10*
%TO.C,MX21*%
X213662500Y-64643750D02*
X213662500Y-63643750D01*
X213662500Y-77643750D02*
X213662500Y-76643750D01*
X214662500Y-77643750D02*
X213662500Y-77643750D01*
X227662500Y-76643750D02*
X227662500Y-77643750D01*
X227662500Y-77643750D02*
X226662500Y-77643750D01*
X227662500Y-63643750D02*
X227662500Y-64643750D01*
X226662500Y-63643750D02*
X227662500Y-63643750D01*
X213662500Y-63643750D02*
X214662500Y-63643750D01*
D11*
%TO.C,G\u002A\u002A\u002A*%
G36*
X233450055Y-82143662D02*
G01*
X233395563Y-82201470D01*
X233390973Y-82289813D01*
X233432007Y-82374168D01*
X233483250Y-82411413D01*
X233542387Y-82421827D01*
X233679313Y-82437766D01*
X233887371Y-82458704D01*
X234159900Y-82484117D01*
X234490241Y-82513479D01*
X234871733Y-82546266D01*
X235297719Y-82581951D01*
X235761537Y-82620009D01*
X236256528Y-82659916D01*
X236776033Y-82701145D01*
X237313392Y-82743172D01*
X237861945Y-82785472D01*
X238415033Y-82827519D01*
X238965996Y-82868787D01*
X239508174Y-82908752D01*
X240034909Y-82946889D01*
X240539539Y-82982671D01*
X241015406Y-83015575D01*
X241455850Y-83045073D01*
X241791167Y-83066685D01*
X242179850Y-83090053D01*
X242619835Y-83114504D01*
X243101204Y-83139627D01*
X243614040Y-83165009D01*
X244148426Y-83190238D01*
X244694446Y-83214899D01*
X245242182Y-83238582D01*
X245781718Y-83260874D01*
X246303137Y-83281361D01*
X246796521Y-83299631D01*
X247251953Y-83315271D01*
X247659518Y-83327870D01*
X248009297Y-83337013D01*
X248291374Y-83342289D01*
X248442900Y-83343460D01*
X248666951Y-83340697D01*
X248819538Y-83331074D01*
X248913698Y-83313079D01*
X248962466Y-83285201D01*
X248964421Y-83282956D01*
X248994545Y-83195699D01*
X248956631Y-83114400D01*
X248866089Y-83059333D01*
X248785261Y-83047208D01*
X248619868Y-83045037D01*
X248379110Y-83039156D01*
X248072188Y-83029945D01*
X247708305Y-83017785D01*
X247296664Y-83003055D01*
X246846466Y-82986135D01*
X246366914Y-82967406D01*
X245867210Y-82947246D01*
X245356556Y-82926036D01*
X244844155Y-82904156D01*
X244339210Y-82881986D01*
X243850921Y-82859906D01*
X243388492Y-82838294D01*
X242961125Y-82817533D01*
X242578022Y-82798001D01*
X242248386Y-82780078D01*
X242087500Y-82770700D01*
X241720528Y-82747634D01*
X241278832Y-82718184D01*
X240772056Y-82683071D01*
X240209845Y-82643011D01*
X239601843Y-82598722D01*
X238957694Y-82550923D01*
X238287043Y-82500331D01*
X237599534Y-82447665D01*
X236904812Y-82393642D01*
X236212520Y-82338980D01*
X235532304Y-82284398D01*
X235280972Y-82263988D01*
X234901028Y-82233698D01*
X234546128Y-82206692D01*
X234225406Y-82183570D01*
X233947995Y-82164934D01*
X233723027Y-82151382D01*
X233559636Y-82143516D01*
X233466955Y-82141935D01*
X233450055Y-82143662D01*
G37*
X233450055Y-82143662D02*
X233395563Y-82201470D01*
X233390973Y-82289813D01*
X233432007Y-82374168D01*
X233483250Y-82411413D01*
X233542387Y-82421827D01*
X233679313Y-82437766D01*
X233887371Y-82458704D01*
X234159900Y-82484117D01*
X234490241Y-82513479D01*
X234871733Y-82546266D01*
X235297719Y-82581951D01*
X235761537Y-82620009D01*
X236256528Y-82659916D01*
X236776033Y-82701145D01*
X237313392Y-82743172D01*
X237861945Y-82785472D01*
X238415033Y-82827519D01*
X238965996Y-82868787D01*
X239508174Y-82908752D01*
X240034909Y-82946889D01*
X240539539Y-82982671D01*
X241015406Y-83015575D01*
X241455850Y-83045073D01*
X241791167Y-83066685D01*
X242179850Y-83090053D01*
X242619835Y-83114504D01*
X243101204Y-83139627D01*
X243614040Y-83165009D01*
X244148426Y-83190238D01*
X244694446Y-83214899D01*
X245242182Y-83238582D01*
X245781718Y-83260874D01*
X246303137Y-83281361D01*
X246796521Y-83299631D01*
X247251953Y-83315271D01*
X247659518Y-83327870D01*
X248009297Y-83337013D01*
X248291374Y-83342289D01*
X248442900Y-83343460D01*
X248666951Y-83340697D01*
X248819538Y-83331074D01*
X248913698Y-83313079D01*
X248962466Y-83285201D01*
X248964421Y-83282956D01*
X248994545Y-83195699D01*
X248956631Y-83114400D01*
X248866089Y-83059333D01*
X248785261Y-83047208D01*
X248619868Y-83045037D01*
X248379110Y-83039156D01*
X248072188Y-83029945D01*
X247708305Y-83017785D01*
X247296664Y-83003055D01*
X246846466Y-82986135D01*
X246366914Y-82967406D01*
X245867210Y-82947246D01*
X245356556Y-82926036D01*
X244844155Y-82904156D01*
X244339210Y-82881986D01*
X243850921Y-82859906D01*
X243388492Y-82838294D01*
X242961125Y-82817533D01*
X242578022Y-82798001D01*
X242248386Y-82780078D01*
X242087500Y-82770700D01*
X241720528Y-82747634D01*
X241278832Y-82718184D01*
X240772056Y-82683071D01*
X240209845Y-82643011D01*
X239601843Y-82598722D01*
X238957694Y-82550923D01*
X238287043Y-82500331D01*
X237599534Y-82447665D01*
X236904812Y-82393642D01*
X236212520Y-82338980D01*
X235532304Y-82284398D01*
X235280972Y-82263988D01*
X234901028Y-82233698D01*
X234546128Y-82206692D01*
X234225406Y-82183570D01*
X233947995Y-82164934D01*
X233723027Y-82151382D01*
X233559636Y-82143516D01*
X233466955Y-82141935D01*
X233450055Y-82143662D01*
G36*
X243042689Y-69379606D02*
G01*
X242985826Y-69382175D01*
X242844145Y-69390166D01*
X242729686Y-69402675D01*
X242624718Y-69425624D01*
X242511514Y-69464939D01*
X242372344Y-69526542D01*
X242189478Y-69616357D01*
X242004825Y-69709951D01*
X241395732Y-70019946D01*
X240898871Y-69906646D01*
X240459153Y-69824023D01*
X240073717Y-69792887D01*
X239727879Y-69815616D01*
X239406953Y-69894586D01*
X239096254Y-70032176D01*
X238781096Y-70230762D01*
X238747683Y-70254859D01*
X238528706Y-70460457D01*
X238326692Y-70742895D01*
X238145319Y-71095394D01*
X237988270Y-71511175D01*
X237899967Y-71816049D01*
X237839620Y-72105211D01*
X237786990Y-72474770D01*
X237742448Y-72920779D01*
X237706366Y-73439286D01*
X237679114Y-74026344D01*
X237671886Y-74242183D01*
X237661245Y-74581306D01*
X237651622Y-74847400D01*
X237641803Y-75052077D01*
X237630571Y-75206945D01*
X237616712Y-75323614D01*
X237599010Y-75413694D01*
X237576250Y-75488794D01*
X237547218Y-75560525D01*
X237529869Y-75598974D01*
X237441574Y-75758656D01*
X237321785Y-75934726D01*
X237219348Y-76062212D01*
X237055090Y-76263557D01*
X236945123Y-76446970D01*
X236879996Y-76638692D01*
X236850255Y-76864965D01*
X236845691Y-77099583D01*
X236867355Y-77473817D01*
X236921689Y-77844976D01*
X237003969Y-78193612D01*
X237109473Y-78500281D01*
X237233479Y-78745535D01*
X237252489Y-78774513D01*
X237387996Y-78940875D01*
X237531747Y-79037445D01*
X237709462Y-79077273D01*
X237852669Y-79079020D01*
X238119687Y-79068791D01*
X238420215Y-79445144D01*
X238555210Y-79609430D01*
X238685434Y-79759614D01*
X238793909Y-79876549D01*
X238851620Y-79931624D01*
X238982497Y-80041750D01*
X238778165Y-80041677D01*
X238672591Y-80038720D01*
X238491794Y-80030285D01*
X238245000Y-80016958D01*
X237941436Y-79999325D01*
X237590326Y-79977970D01*
X237200898Y-79953480D01*
X236782378Y-79926440D01*
X236343992Y-79897435D01*
X235894966Y-79867050D01*
X235444525Y-79835872D01*
X235001897Y-79804486D01*
X234730013Y-79784782D01*
X234415276Y-79762704D01*
X234126438Y-79744239D01*
X233874730Y-79729963D01*
X233671382Y-79720450D01*
X233527626Y-79716276D01*
X233454692Y-79718017D01*
X233449429Y-79719186D01*
X233403419Y-79775162D01*
X233389245Y-79867476D01*
X233409357Y-79953068D01*
X233434553Y-79980857D01*
X233488143Y-79991156D01*
X233618486Y-80006055D01*
X233817828Y-80024971D01*
X234078414Y-80047321D01*
X234392490Y-80072522D01*
X234752301Y-80099991D01*
X235150092Y-80129145D01*
X235578110Y-80159401D01*
X236028600Y-80190176D01*
X236493807Y-80220887D01*
X236965976Y-80250952D01*
X237303834Y-80271745D01*
X237618028Y-80291088D01*
X237919898Y-80310227D01*
X238194276Y-80328157D01*
X238425996Y-80343875D01*
X238599889Y-80356376D01*
X238684034Y-80363108D01*
X238963567Y-80387760D01*
X238901720Y-80564005D01*
X238867998Y-80715754D01*
X238848322Y-80918183D01*
X238843409Y-81138363D01*
X238853976Y-81343365D01*
X238880737Y-81500257D01*
X238881316Y-81502250D01*
X238924440Y-81594443D01*
X238998631Y-81627167D01*
X239042546Y-81629250D01*
X239166500Y-81629250D01*
X239166716Y-81163583D01*
X239177371Y-80866224D01*
X239208265Y-80636944D01*
X239258247Y-80479768D01*
X239326165Y-80398717D01*
X239387952Y-80390256D01*
X239443698Y-80431488D01*
X239447768Y-80467597D01*
X239438042Y-80536909D01*
X239425834Y-80665671D01*
X239413457Y-80828805D01*
X239410913Y-80867250D01*
X239402344Y-81043040D01*
X239406464Y-81158095D01*
X239426716Y-81235838D01*
X239466542Y-81299694D01*
X239476243Y-81311750D01*
X239547213Y-81381306D01*
X239607011Y-81387180D01*
X239640098Y-81370673D01*
X239680496Y-81330520D01*
X239705291Y-81258148D01*
X239718604Y-81134770D01*
X239723698Y-80989673D01*
X239732956Y-80812236D01*
X239751039Y-80653007D01*
X239774262Y-80543190D01*
X239777457Y-80534195D01*
X239824352Y-80412807D01*
X240215093Y-80440006D01*
X240327549Y-80446763D01*
X240507897Y-80456301D01*
X240744156Y-80468082D01*
X241024349Y-80481569D01*
X241336495Y-80496223D01*
X241668615Y-80511505D01*
X242008729Y-80526879D01*
X242344858Y-80541806D01*
X242665024Y-80555747D01*
X242957245Y-80568165D01*
X243209544Y-80578522D01*
X243409940Y-80586280D01*
X243546454Y-80590901D01*
X243598757Y-80591983D01*
X243642159Y-80599471D01*
X243647183Y-80636461D01*
X243615098Y-80725007D01*
X243607477Y-80743350D01*
X243570017Y-80881777D01*
X243553590Y-81048856D01*
X243557012Y-81219594D01*
X243579097Y-81369002D01*
X243618660Y-81472087D01*
X243643250Y-81497614D01*
X243736629Y-81528941D01*
X243803112Y-81486280D01*
X243844388Y-81367046D01*
X243862149Y-81168651D01*
X243862316Y-81162285D01*
X243885769Y-80913164D01*
X243940819Y-80732327D01*
X244025504Y-80624024D01*
X244125117Y-80592083D01*
X244201304Y-80602895D01*
X244210436Y-80645501D01*
X244202745Y-80666166D01*
X244122310Y-80910287D01*
X244079855Y-81163580D01*
X244076189Y-81403761D01*
X244112120Y-81608547D01*
X244164325Y-81723659D01*
X244227625Y-81801583D01*
X244287765Y-81811523D01*
X244351323Y-81778937D01*
X244382875Y-81736873D01*
X244402578Y-81649466D01*
X244412520Y-81502472D01*
X244414823Y-81345668D01*
X244423064Y-81098858D01*
X244447908Y-80917675D01*
X244488870Y-80790502D01*
X244561906Y-80629089D01*
X245970537Y-80663502D01*
X246359748Y-80672304D01*
X246767790Y-80680274D01*
X247174872Y-80687113D01*
X247561203Y-80692522D01*
X247906992Y-80696203D01*
X248192449Y-80697855D01*
X248247000Y-80697916D01*
X249114834Y-80697916D01*
X249128252Y-80581259D01*
X249119591Y-80483618D01*
X249084766Y-80442765D01*
X249029824Y-80436488D01*
X248900844Y-80428961D01*
X248708438Y-80420583D01*
X248463220Y-80411752D01*
X248175802Y-80402864D01*
X247856795Y-80394319D01*
X247679587Y-80390089D01*
X246331313Y-80359250D01*
X246338924Y-79884775D01*
X246336698Y-79838861D01*
X246030361Y-79838861D01*
X246020756Y-80058633D01*
X245993475Y-80350684D01*
X245077655Y-80322671D01*
X244769593Y-80312910D01*
X244402086Y-80300719D01*
X244000291Y-80286967D01*
X243589364Y-80272521D01*
X243194463Y-80258250D01*
X242976500Y-80250163D01*
X242588048Y-80234990D01*
X242154678Y-80217067D01*
X241705255Y-80197653D01*
X241268638Y-80178006D01*
X240873691Y-80159387D01*
X240704759Y-80151051D01*
X240372695Y-80134077D01*
X240113774Y-80119601D01*
X239916569Y-80106122D01*
X239769648Y-80092139D01*
X239661586Y-80076153D01*
X239580951Y-80056661D01*
X239516316Y-80032164D01*
X239456251Y-80001161D01*
X239424734Y-79982969D01*
X239196584Y-79818504D01*
X238951814Y-79586933D01*
X238701696Y-79301087D01*
X238457501Y-78973800D01*
X238319986Y-78758998D01*
X237917667Y-78758998D01*
X237880490Y-78767426D01*
X237788553Y-78765640D01*
X237763123Y-78763722D01*
X237611477Y-78719413D01*
X237530436Y-78644750D01*
X237436443Y-78476434D01*
X237350621Y-78247132D01*
X237276161Y-77976125D01*
X237216253Y-77682693D01*
X237174087Y-77386118D01*
X237152853Y-77105679D01*
X237155743Y-76860658D01*
X237185945Y-76670334D01*
X237197803Y-76634435D01*
X237244301Y-76544844D01*
X237318282Y-76433172D01*
X237402522Y-76321912D01*
X237479796Y-76233555D01*
X237532880Y-76190593D01*
X237538606Y-76189416D01*
X237558787Y-76227974D01*
X237584605Y-76329903D01*
X237611009Y-76474585D01*
X237615152Y-76501683D01*
X237637827Y-76693275D01*
X237637754Y-76840675D01*
X237613738Y-76981567D01*
X237598030Y-77041433D01*
X237536820Y-77293458D01*
X237509759Y-77510328D01*
X237519438Y-77714462D01*
X237568446Y-77928278D01*
X237659371Y-78174197D01*
X237753313Y-78386026D01*
X237825126Y-78542995D01*
X237881024Y-78668614D01*
X237913067Y-78744868D01*
X237917667Y-78758998D01*
X238319986Y-78758998D01*
X238240172Y-78634327D01*
X238062728Y-78318028D01*
X237937270Y-78051592D01*
X237860474Y-77820779D01*
X237829011Y-77611353D01*
X237839557Y-77409073D01*
X237888784Y-77199703D01*
X237898149Y-77170313D01*
X237947913Y-76902129D01*
X237941762Y-76579225D01*
X237880036Y-76210150D01*
X237855848Y-76111235D01*
X237821513Y-75967932D01*
X237809685Y-75862595D01*
X237821825Y-75759916D01*
X237859392Y-75624588D01*
X237878478Y-75564045D01*
X237906084Y-75469060D01*
X237928355Y-75368647D01*
X237946278Y-75251089D01*
X237960843Y-75104668D01*
X237973039Y-74917667D01*
X237983855Y-74678367D01*
X237994280Y-74375053D01*
X238002567Y-74093916D01*
X238020115Y-73587549D01*
X238042851Y-73153147D01*
X238072203Y-72778089D01*
X238109604Y-72449758D01*
X238156481Y-72155533D01*
X238214266Y-71882796D01*
X238282173Y-71626556D01*
X238426200Y-71219197D01*
X238603876Y-70883950D01*
X238821396Y-70612835D01*
X239084952Y-70397872D01*
X239347128Y-70254552D01*
X239586411Y-70163404D01*
X239825623Y-70112054D01*
X240082630Y-70100006D01*
X240375297Y-70126766D01*
X240721491Y-70191838D01*
X240817500Y-70213800D01*
X241045743Y-70265660D01*
X241266277Y-70312556D01*
X241454708Y-70349498D01*
X241586641Y-70371497D01*
X241591721Y-70372167D01*
X241713432Y-70392541D01*
X241789352Y-70414320D01*
X241803145Y-70427171D01*
X241778253Y-70475803D01*
X241726015Y-70576124D01*
X241668408Y-70686083D01*
X241510949Y-71037501D01*
X241384179Y-71424794D01*
X241291251Y-71828658D01*
X241235321Y-72229790D01*
X241219543Y-72608888D01*
X241247072Y-72946648D01*
X241276108Y-73086549D01*
X241334808Y-73245778D01*
X241417722Y-73395981D01*
X241456024Y-73446841D01*
X241501851Y-73498449D01*
X241550849Y-73549221D01*
X241611639Y-73606443D01*
X241692847Y-73677404D01*
X241803095Y-73769389D01*
X241951007Y-73889687D01*
X242145206Y-74045585D01*
X242394316Y-74244370D01*
X242489667Y-74320324D01*
X242746813Y-74532274D01*
X243038940Y-74785020D01*
X243350122Y-75063792D01*
X243664432Y-75353820D01*
X243965940Y-75640333D01*
X244238721Y-75908562D01*
X244466846Y-76143735D01*
X244532375Y-76214605D01*
X244923891Y-76682595D01*
X245246754Y-77154708D01*
X245515087Y-77652870D01*
X245639660Y-77934081D01*
X245705674Y-78095737D01*
X245757214Y-78226103D01*
X245787082Y-78306758D01*
X245791667Y-78323156D01*
X245760782Y-78309747D01*
X245678471Y-78255033D01*
X245560254Y-78169545D01*
X245512568Y-78133773D01*
X245232050Y-77937812D01*
X244975692Y-77797579D01*
X244717578Y-77700535D01*
X244511526Y-77649424D01*
X244057540Y-77518443D01*
X243615789Y-77318932D01*
X243201991Y-77061275D01*
X242831867Y-76755856D01*
X242521134Y-76413062D01*
X242414536Y-76264100D01*
X242310365Y-76144730D01*
X242211714Y-76108343D01*
X242120367Y-76155477D01*
X242105972Y-76171496D01*
X242081561Y-76245679D01*
X242111224Y-76350175D01*
X242198182Y-76490005D01*
X242345652Y-76670190D01*
X242556855Y-76895751D01*
X242595500Y-76935094D01*
X242950356Y-77258096D01*
X243320825Y-77518702D01*
X243724273Y-77726289D01*
X244178063Y-77890235D01*
X244540388Y-77985297D01*
X244784369Y-78068582D01*
X245047335Y-78204081D01*
X245309491Y-78377161D01*
X245551045Y-78573188D01*
X245752202Y-78777527D01*
X245893168Y-78975543D01*
X245901892Y-78991908D01*
X245954204Y-79140366D01*
X245994926Y-79347820D01*
X246021248Y-79589057D01*
X246030361Y-79838861D01*
X246336698Y-79838861D01*
X246307407Y-79234752D01*
X246192709Y-78594308D01*
X245996073Y-77966601D01*
X245718741Y-77354789D01*
X245361956Y-76762031D01*
X244926960Y-76191486D01*
X244852182Y-76104750D01*
X244609586Y-75841082D01*
X244313989Y-75541149D01*
X243980580Y-75218875D01*
X243624546Y-74888184D01*
X243261075Y-74562999D01*
X242905354Y-74257244D01*
X242572570Y-73984843D01*
X242362667Y-73822413D01*
X242089933Y-73611170D01*
X241882907Y-73435524D01*
X241734118Y-73288496D01*
X241636092Y-73163105D01*
X241610901Y-73120250D01*
X241571277Y-72991662D01*
X241548178Y-72799694D01*
X241541266Y-72563940D01*
X241550205Y-72303990D01*
X241574658Y-72039436D01*
X241614290Y-71789870D01*
X241635394Y-71694177D01*
X241778431Y-71211541D01*
X241956589Y-70803010D01*
X242173624Y-70464047D01*
X242433290Y-70190114D01*
X242739339Y-69976676D01*
X243095527Y-69819194D01*
X243218903Y-69780396D01*
X243401760Y-69711055D01*
X243506346Y-69632303D01*
X243530620Y-69546988D01*
X243472541Y-69457959D01*
X243458503Y-69445992D01*
X243397401Y-69406174D01*
X243322029Y-69383768D01*
X243210941Y-69375877D01*
X243042689Y-69379606D01*
G37*
X243042689Y-69379606D02*
X242985826Y-69382175D01*
X242844145Y-69390166D01*
X242729686Y-69402675D01*
X242624718Y-69425624D01*
X242511514Y-69464939D01*
X242372344Y-69526542D01*
X242189478Y-69616357D01*
X242004825Y-69709951D01*
X241395732Y-70019946D01*
X240898871Y-69906646D01*
X240459153Y-69824023D01*
X240073717Y-69792887D01*
X239727879Y-69815616D01*
X239406953Y-69894586D01*
X239096254Y-70032176D01*
X238781096Y-70230762D01*
X238747683Y-70254859D01*
X238528706Y-70460457D01*
X238326692Y-70742895D01*
X238145319Y-71095394D01*
X237988270Y-71511175D01*
X237899967Y-71816049D01*
X237839620Y-72105211D01*
X237786990Y-72474770D01*
X237742448Y-72920779D01*
X237706366Y-73439286D01*
X237679114Y-74026344D01*
X237671886Y-74242183D01*
X237661245Y-74581306D01*
X237651622Y-74847400D01*
X237641803Y-75052077D01*
X237630571Y-75206945D01*
X237616712Y-75323614D01*
X237599010Y-75413694D01*
X237576250Y-75488794D01*
X237547218Y-75560525D01*
X237529869Y-75598974D01*
X237441574Y-75758656D01*
X237321785Y-75934726D01*
X237219348Y-76062212D01*
X237055090Y-76263557D01*
X236945123Y-76446970D01*
X236879996Y-76638692D01*
X236850255Y-76864965D01*
X236845691Y-77099583D01*
X236867355Y-77473817D01*
X236921689Y-77844976D01*
X237003969Y-78193612D01*
X237109473Y-78500281D01*
X237233479Y-78745535D01*
X237252489Y-78774513D01*
X237387996Y-78940875D01*
X237531747Y-79037445D01*
X237709462Y-79077273D01*
X237852669Y-79079020D01*
X238119687Y-79068791D01*
X238420215Y-79445144D01*
X238555210Y-79609430D01*
X238685434Y-79759614D01*
X238793909Y-79876549D01*
X238851620Y-79931624D01*
X238982497Y-80041750D01*
X238778165Y-80041677D01*
X238672591Y-80038720D01*
X238491794Y-80030285D01*
X238245000Y-80016958D01*
X237941436Y-79999325D01*
X237590326Y-79977970D01*
X237200898Y-79953480D01*
X236782378Y-79926440D01*
X236343992Y-79897435D01*
X235894966Y-79867050D01*
X235444525Y-79835872D01*
X235001897Y-79804486D01*
X234730013Y-79784782D01*
X234415276Y-79762704D01*
X234126438Y-79744239D01*
X233874730Y-79729963D01*
X233671382Y-79720450D01*
X233527626Y-79716276D01*
X233454692Y-79718017D01*
X233449429Y-79719186D01*
X233403419Y-79775162D01*
X233389245Y-79867476D01*
X233409357Y-79953068D01*
X233434553Y-79980857D01*
X233488143Y-79991156D01*
X233618486Y-80006055D01*
X233817828Y-80024971D01*
X234078414Y-80047321D01*
X234392490Y-80072522D01*
X234752301Y-80099991D01*
X235150092Y-80129145D01*
X235578110Y-80159401D01*
X236028600Y-80190176D01*
X236493807Y-80220887D01*
X236965976Y-80250952D01*
X237303834Y-80271745D01*
X237618028Y-80291088D01*
X237919898Y-80310227D01*
X238194276Y-80328157D01*
X238425996Y-80343875D01*
X238599889Y-80356376D01*
X238684034Y-80363108D01*
X238963567Y-80387760D01*
X238901720Y-80564005D01*
X238867998Y-80715754D01*
X238848322Y-80918183D01*
X238843409Y-81138363D01*
X238853976Y-81343365D01*
X238880737Y-81500257D01*
X238881316Y-81502250D01*
X238924440Y-81594443D01*
X238998631Y-81627167D01*
X239042546Y-81629250D01*
X239166500Y-81629250D01*
X239166716Y-81163583D01*
X239177371Y-80866224D01*
X239208265Y-80636944D01*
X239258247Y-80479768D01*
X239326165Y-80398717D01*
X239387952Y-80390256D01*
X239443698Y-80431488D01*
X239447768Y-80467597D01*
X239438042Y-80536909D01*
X239425834Y-80665671D01*
X239413457Y-80828805D01*
X239410913Y-80867250D01*
X239402344Y-81043040D01*
X239406464Y-81158095D01*
X239426716Y-81235838D01*
X239466542Y-81299694D01*
X239476243Y-81311750D01*
X239547213Y-81381306D01*
X239607011Y-81387180D01*
X239640098Y-81370673D01*
X239680496Y-81330520D01*
X239705291Y-81258148D01*
X239718604Y-81134770D01*
X239723698Y-80989673D01*
X239732956Y-80812236D01*
X239751039Y-80653007D01*
X239774262Y-80543190D01*
X239777457Y-80534195D01*
X239824352Y-80412807D01*
X240215093Y-80440006D01*
X240327549Y-80446763D01*
X240507897Y-80456301D01*
X240744156Y-80468082D01*
X241024349Y-80481569D01*
X241336495Y-80496223D01*
X241668615Y-80511505D01*
X242008729Y-80526879D01*
X242344858Y-80541806D01*
X242665024Y-80555747D01*
X242957245Y-80568165D01*
X243209544Y-80578522D01*
X243409940Y-80586280D01*
X243546454Y-80590901D01*
X243598757Y-80591983D01*
X243642159Y-80599471D01*
X243647183Y-80636461D01*
X243615098Y-80725007D01*
X243607477Y-80743350D01*
X243570017Y-80881777D01*
X243553590Y-81048856D01*
X243557012Y-81219594D01*
X243579097Y-81369002D01*
X243618660Y-81472087D01*
X243643250Y-81497614D01*
X243736629Y-81528941D01*
X243803112Y-81486280D01*
X243844388Y-81367046D01*
X243862149Y-81168651D01*
X243862316Y-81162285D01*
X243885769Y-80913164D01*
X243940819Y-80732327D01*
X244025504Y-80624024D01*
X244125117Y-80592083D01*
X244201304Y-80602895D01*
X244210436Y-80645501D01*
X244202745Y-80666166D01*
X244122310Y-80910287D01*
X244079855Y-81163580D01*
X244076189Y-81403761D01*
X244112120Y-81608547D01*
X244164325Y-81723659D01*
X244227625Y-81801583D01*
X244287765Y-81811523D01*
X244351323Y-81778937D01*
X244382875Y-81736873D01*
X244402578Y-81649466D01*
X244412520Y-81502472D01*
X244414823Y-81345668D01*
X244423064Y-81098858D01*
X244447908Y-80917675D01*
X244488870Y-80790502D01*
X244561906Y-80629089D01*
X245970537Y-80663502D01*
X246359748Y-80672304D01*
X246767790Y-80680274D01*
X247174872Y-80687113D01*
X247561203Y-80692522D01*
X247906992Y-80696203D01*
X248192449Y-80697855D01*
X248247000Y-80697916D01*
X249114834Y-80697916D01*
X249128252Y-80581259D01*
X249119591Y-80483618D01*
X249084766Y-80442765D01*
X249029824Y-80436488D01*
X248900844Y-80428961D01*
X248708438Y-80420583D01*
X248463220Y-80411752D01*
X248175802Y-80402864D01*
X247856795Y-80394319D01*
X247679587Y-80390089D01*
X246331313Y-80359250D01*
X246338924Y-79884775D01*
X246336698Y-79838861D01*
X246030361Y-79838861D01*
X246020756Y-80058633D01*
X245993475Y-80350684D01*
X245077655Y-80322671D01*
X244769593Y-80312910D01*
X244402086Y-80300719D01*
X244000291Y-80286967D01*
X243589364Y-80272521D01*
X243194463Y-80258250D01*
X242976500Y-80250163D01*
X242588048Y-80234990D01*
X242154678Y-80217067D01*
X241705255Y-80197653D01*
X241268638Y-80178006D01*
X240873691Y-80159387D01*
X240704759Y-80151051D01*
X240372695Y-80134077D01*
X240113774Y-80119601D01*
X239916569Y-80106122D01*
X239769648Y-80092139D01*
X239661586Y-80076153D01*
X239580951Y-80056661D01*
X239516316Y-80032164D01*
X239456251Y-80001161D01*
X239424734Y-79982969D01*
X239196584Y-79818504D01*
X238951814Y-79586933D01*
X238701696Y-79301087D01*
X238457501Y-78973800D01*
X238319986Y-78758998D01*
X237917667Y-78758998D01*
X237880490Y-78767426D01*
X237788553Y-78765640D01*
X237763123Y-78763722D01*
X237611477Y-78719413D01*
X237530436Y-78644750D01*
X237436443Y-78476434D01*
X237350621Y-78247132D01*
X237276161Y-77976125D01*
X237216253Y-77682693D01*
X237174087Y-77386118D01*
X237152853Y-77105679D01*
X237155743Y-76860658D01*
X237185945Y-76670334D01*
X237197803Y-76634435D01*
X237244301Y-76544844D01*
X237318282Y-76433172D01*
X237402522Y-76321912D01*
X237479796Y-76233555D01*
X237532880Y-76190593D01*
X237538606Y-76189416D01*
X237558787Y-76227974D01*
X237584605Y-76329903D01*
X237611009Y-76474585D01*
X237615152Y-76501683D01*
X237637827Y-76693275D01*
X237637754Y-76840675D01*
X237613738Y-76981567D01*
X237598030Y-77041433D01*
X237536820Y-77293458D01*
X237509759Y-77510328D01*
X237519438Y-77714462D01*
X237568446Y-77928278D01*
X237659371Y-78174197D01*
X237753313Y-78386026D01*
X237825126Y-78542995D01*
X237881024Y-78668614D01*
X237913067Y-78744868D01*
X237917667Y-78758998D01*
X238319986Y-78758998D01*
X238240172Y-78634327D01*
X238062728Y-78318028D01*
X237937270Y-78051592D01*
X237860474Y-77820779D01*
X237829011Y-77611353D01*
X237839557Y-77409073D01*
X237888784Y-77199703D01*
X237898149Y-77170313D01*
X237947913Y-76902129D01*
X237941762Y-76579225D01*
X237880036Y-76210150D01*
X237855848Y-76111235D01*
X237821513Y-75967932D01*
X237809685Y-75862595D01*
X237821825Y-75759916D01*
X237859392Y-75624588D01*
X237878478Y-75564045D01*
X237906084Y-75469060D01*
X237928355Y-75368647D01*
X237946278Y-75251089D01*
X237960843Y-75104668D01*
X237973039Y-74917667D01*
X237983855Y-74678367D01*
X237994280Y-74375053D01*
X238002567Y-74093916D01*
X238020115Y-73587549D01*
X238042851Y-73153147D01*
X238072203Y-72778089D01*
X238109604Y-72449758D01*
X238156481Y-72155533D01*
X238214266Y-71882796D01*
X238282173Y-71626556D01*
X238426200Y-71219197D01*
X238603876Y-70883950D01*
X238821396Y-70612835D01*
X239084952Y-70397872D01*
X239347128Y-70254552D01*
X239586411Y-70163404D01*
X239825623Y-70112054D01*
X240082630Y-70100006D01*
X240375297Y-70126766D01*
X240721491Y-70191838D01*
X240817500Y-70213800D01*
X241045743Y-70265660D01*
X241266277Y-70312556D01*
X241454708Y-70349498D01*
X241586641Y-70371497D01*
X241591721Y-70372167D01*
X241713432Y-70392541D01*
X241789352Y-70414320D01*
X241803145Y-70427171D01*
X241778253Y-70475803D01*
X241726015Y-70576124D01*
X241668408Y-70686083D01*
X241510949Y-71037501D01*
X241384179Y-71424794D01*
X241291251Y-71828658D01*
X241235321Y-72229790D01*
X241219543Y-72608888D01*
X241247072Y-72946648D01*
X241276108Y-73086549D01*
X241334808Y-73245778D01*
X241417722Y-73395981D01*
X241456024Y-73446841D01*
X241501851Y-73498449D01*
X241550849Y-73549221D01*
X241611639Y-73606443D01*
X241692847Y-73677404D01*
X241803095Y-73769389D01*
X241951007Y-73889687D01*
X242145206Y-74045585D01*
X242394316Y-74244370D01*
X242489667Y-74320324D01*
X242746813Y-74532274D01*
X243038940Y-74785020D01*
X243350122Y-75063792D01*
X243664432Y-75353820D01*
X243965940Y-75640333D01*
X244238721Y-75908562D01*
X244466846Y-76143735D01*
X244532375Y-76214605D01*
X244923891Y-76682595D01*
X245246754Y-77154708D01*
X245515087Y-77652870D01*
X245639660Y-77934081D01*
X245705674Y-78095737D01*
X245757214Y-78226103D01*
X245787082Y-78306758D01*
X245791667Y-78323156D01*
X245760782Y-78309747D01*
X245678471Y-78255033D01*
X245560254Y-78169545D01*
X245512568Y-78133773D01*
X245232050Y-77937812D01*
X244975692Y-77797579D01*
X244717578Y-77700535D01*
X244511526Y-77649424D01*
X244057540Y-77518443D01*
X243615789Y-77318932D01*
X243201991Y-77061275D01*
X242831867Y-76755856D01*
X242521134Y-76413062D01*
X242414536Y-76264100D01*
X242310365Y-76144730D01*
X242211714Y-76108343D01*
X242120367Y-76155477D01*
X242105972Y-76171496D01*
X242081561Y-76245679D01*
X242111224Y-76350175D01*
X242198182Y-76490005D01*
X242345652Y-76670190D01*
X242556855Y-76895751D01*
X242595500Y-76935094D01*
X242950356Y-77258096D01*
X243320825Y-77518702D01*
X243724273Y-77726289D01*
X244178063Y-77890235D01*
X244540388Y-77985297D01*
X244784369Y-78068582D01*
X245047335Y-78204081D01*
X245309491Y-78377161D01*
X245551045Y-78573188D01*
X245752202Y-78777527D01*
X245893168Y-78975543D01*
X245901892Y-78991908D01*
X245954204Y-79140366D01*
X245994926Y-79347820D01*
X246021248Y-79589057D01*
X246030361Y-79838861D01*
X246336698Y-79838861D01*
X246307407Y-79234752D01*
X246192709Y-78594308D01*
X245996073Y-77966601D01*
X245718741Y-77354789D01*
X245361956Y-76762031D01*
X244926960Y-76191486D01*
X244852182Y-76104750D01*
X244609586Y-75841082D01*
X244313989Y-75541149D01*
X243980580Y-75218875D01*
X243624546Y-74888184D01*
X243261075Y-74562999D01*
X242905354Y-74257244D01*
X242572570Y-73984843D01*
X242362667Y-73822413D01*
X242089933Y-73611170D01*
X241882907Y-73435524D01*
X241734118Y-73288496D01*
X241636092Y-73163105D01*
X241610901Y-73120250D01*
X241571277Y-72991662D01*
X241548178Y-72799694D01*
X241541266Y-72563940D01*
X241550205Y-72303990D01*
X241574658Y-72039436D01*
X241614290Y-71789870D01*
X241635394Y-71694177D01*
X241778431Y-71211541D01*
X241956589Y-70803010D01*
X242173624Y-70464047D01*
X242433290Y-70190114D01*
X242739339Y-69976676D01*
X243095527Y-69819194D01*
X243218903Y-69780396D01*
X243401760Y-69711055D01*
X243506346Y-69632303D01*
X243530620Y-69546988D01*
X243472541Y-69457959D01*
X243458503Y-69445992D01*
X243397401Y-69406174D01*
X243322029Y-69383768D01*
X243210941Y-69375877D01*
X243042689Y-69379606D01*
G36*
X239403297Y-70714347D02*
G01*
X239344127Y-70733749D01*
X239218594Y-70824822D01*
X239151241Y-70954498D01*
X239143114Y-71099163D01*
X239195256Y-71235208D01*
X239308713Y-71339022D01*
X239317155Y-71343536D01*
X239420848Y-71391649D01*
X239494069Y-71398916D01*
X239579857Y-71366487D01*
X239610166Y-71351374D01*
X239733205Y-71253094D01*
X239793068Y-71128654D01*
X239797141Y-70995206D01*
X239752813Y-70869900D01*
X239667471Y-70769888D01*
X239548503Y-70712320D01*
X239403297Y-70714347D01*
G37*
X239403297Y-70714347D02*
X239344127Y-70733749D01*
X239218594Y-70824822D01*
X239151241Y-70954498D01*
X239143114Y-71099163D01*
X239195256Y-71235208D01*
X239308713Y-71339022D01*
X239317155Y-71343536D01*
X239420848Y-71391649D01*
X239494069Y-71398916D01*
X239579857Y-71366487D01*
X239610166Y-71351374D01*
X239733205Y-71253094D01*
X239793068Y-71128654D01*
X239797141Y-70995206D01*
X239752813Y-70869900D01*
X239667471Y-70769888D01*
X239548503Y-70712320D01*
X239403297Y-70714347D01*
D10*
%TO.C,MX41*%
X230787848Y-112821928D02*
X229921822Y-112321928D01*
X242046178Y-119321928D02*
X241180152Y-118821928D01*
X242546178Y-118455902D02*
X242046178Y-119321928D01*
X248180152Y-106697572D02*
X249046178Y-107197572D01*
X249046178Y-107197572D02*
X248546178Y-108063598D01*
X236921822Y-100197572D02*
X237787848Y-100697572D01*
X236421822Y-101063598D02*
X236921822Y-100197572D01*
X229921822Y-112321928D02*
X230421822Y-111455902D01*
%TO.C,MX10*%
X39831250Y-30512500D02*
X39831250Y-29512500D01*
X39831250Y-43512500D02*
X39831250Y-42512500D01*
X40831250Y-43512500D02*
X39831250Y-43512500D01*
X53831250Y-42512500D02*
X53831250Y-43512500D01*
X53831250Y-43512500D02*
X52831250Y-43512500D01*
X53831250Y-29512500D02*
X53831250Y-30512500D01*
X52831250Y-29512500D02*
X53831250Y-29512500D01*
X39831250Y-29512500D02*
X40831250Y-29512500D01*
%TO.C,MX15*%
X137462500Y-49562500D02*
X137462500Y-48562500D01*
X137462500Y-62562500D02*
X137462500Y-61562500D01*
X138462500Y-62562500D02*
X137462500Y-62562500D01*
X151462500Y-61562500D02*
X151462500Y-62562500D01*
X151462500Y-62562500D02*
X150462500Y-62562500D01*
X151462500Y-48562500D02*
X151462500Y-49562500D01*
X150462500Y-48562500D02*
X151462500Y-48562500D01*
X137462500Y-48562500D02*
X138462500Y-48562500D01*
%TO.C,MX44*%
X166825000Y-103251750D02*
X166825000Y-102251750D01*
X166825000Y-116251750D02*
X166825000Y-115251750D01*
X167825000Y-116251750D02*
X166825000Y-116251750D01*
X180825000Y-115251750D02*
X180825000Y-116251750D01*
X180825000Y-116251750D02*
X179825000Y-116251750D01*
X180825000Y-102251750D02*
X180825000Y-103251750D01*
X179825000Y-102251750D02*
X180825000Y-102251750D01*
X166825000Y-102251750D02*
X167825000Y-102251750D01*
%TO.C,MX43*%
X185875000Y-103251750D02*
X185875000Y-102251750D01*
X185875000Y-116251750D02*
X185875000Y-115251750D01*
X186875000Y-116251750D02*
X185875000Y-116251750D01*
X199875000Y-115251750D02*
X199875000Y-116251750D01*
X199875000Y-116251750D02*
X198875000Y-116251750D01*
X199875000Y-102251750D02*
X199875000Y-103251750D01*
X198875000Y-102251750D02*
X199875000Y-102251750D01*
X185875000Y-102251750D02*
X186875000Y-102251750D01*
%TO.C,MX42*%
X204925000Y-105918750D02*
X204925000Y-104918750D01*
X204925000Y-118918750D02*
X204925000Y-117918750D01*
X205925000Y-118918750D02*
X204925000Y-118918750D01*
X218925000Y-117918750D02*
X218925000Y-118918750D01*
X218925000Y-118918750D02*
X217925000Y-118918750D01*
X218925000Y-104918750D02*
X218925000Y-105918750D01*
X217925000Y-104918750D02*
X218925000Y-104918750D01*
X204925000Y-104918750D02*
X205925000Y-104918750D01*
%TO.C,MX40*%
X39831250Y-87662500D02*
X39831250Y-86662500D01*
X39831250Y-100662500D02*
X39831250Y-99662500D01*
X40831250Y-100662500D02*
X39831250Y-100662500D01*
X53831250Y-99662500D02*
X53831250Y-100662500D01*
X53831250Y-100662500D02*
X52831250Y-100662500D01*
X53831250Y-86662500D02*
X53831250Y-87662500D01*
X52831250Y-86662500D02*
X53831250Y-86662500D01*
X39831250Y-86662500D02*
X40831250Y-86662500D01*
%TO.C,MX39*%
X58881250Y-87662500D02*
X58881250Y-86662500D01*
X58881250Y-100662500D02*
X58881250Y-99662500D01*
X59881250Y-100662500D02*
X58881250Y-100662500D01*
X72881250Y-99662500D02*
X72881250Y-100662500D01*
X72881250Y-100662500D02*
X71881250Y-100662500D01*
X72881250Y-86662500D02*
X72881250Y-87662500D01*
X71881250Y-86662500D02*
X72881250Y-86662500D01*
X58881250Y-86662500D02*
X59881250Y-86662500D01*
%TO.C,MX38*%
X77931250Y-87662500D02*
X77931250Y-86662500D01*
X77931250Y-100662500D02*
X77931250Y-99662500D01*
X78931250Y-100662500D02*
X77931250Y-100662500D01*
X91931250Y-99662500D02*
X91931250Y-100662500D01*
X91931250Y-100662500D02*
X90931250Y-100662500D01*
X91931250Y-86662500D02*
X91931250Y-87662500D01*
X90931250Y-86662500D02*
X91931250Y-86662500D01*
X77931250Y-86662500D02*
X78931250Y-86662500D01*
%TO.C,MX37*%
X96981250Y-87662500D02*
X96981250Y-86662500D01*
X96981250Y-100662500D02*
X96981250Y-99662500D01*
X97981250Y-100662500D02*
X96981250Y-100662500D01*
X110981250Y-99662500D02*
X110981250Y-100662500D01*
X110981250Y-100662500D02*
X109981250Y-100662500D01*
X110981250Y-86662500D02*
X110981250Y-87662500D01*
X109981250Y-86662500D02*
X110981250Y-86662500D01*
X96981250Y-86662500D02*
X97981250Y-86662500D01*
%TO.C,MX36*%
X118412500Y-87662500D02*
X118412500Y-86662500D01*
X118412500Y-100662500D02*
X118412500Y-99662500D01*
X119412500Y-100662500D02*
X118412500Y-100662500D01*
X132412500Y-99662500D02*
X132412500Y-100662500D01*
X132412500Y-100662500D02*
X131412500Y-100662500D01*
X132412500Y-86662500D02*
X132412500Y-87662500D01*
X131412500Y-86662500D02*
X132412500Y-86662500D01*
X118412500Y-86662500D02*
X119412500Y-86662500D01*
%TO.C,MX35*%
X137462500Y-87662500D02*
X137462500Y-86662500D01*
X137462500Y-100662500D02*
X137462500Y-99662500D01*
X138462500Y-100662500D02*
X137462500Y-100662500D01*
X151462500Y-99662500D02*
X151462500Y-100662500D01*
X151462500Y-100662500D02*
X150462500Y-100662500D01*
X151462500Y-86662500D02*
X151462500Y-87662500D01*
X150462500Y-86662500D02*
X151462500Y-86662500D01*
X137462500Y-86662500D02*
X138462500Y-86662500D01*
%TO.C,MX34*%
X156512500Y-81312500D02*
X156512500Y-80312500D01*
X156512500Y-94312500D02*
X156512500Y-93312500D01*
X157512500Y-94312500D02*
X156512500Y-94312500D01*
X170512500Y-93312500D02*
X170512500Y-94312500D01*
X170512500Y-94312500D02*
X169512500Y-94312500D01*
X170512500Y-80312500D02*
X170512500Y-81312500D01*
X169512500Y-80312500D02*
X170512500Y-80312500D01*
X156512500Y-80312500D02*
X157512500Y-80312500D01*
%TO.C,MX33*%
X175562500Y-78931250D02*
X175562500Y-77931250D01*
X175562500Y-91931250D02*
X175562500Y-90931250D01*
X176562500Y-91931250D02*
X175562500Y-91931250D01*
X189562500Y-90931250D02*
X189562500Y-91931250D01*
X189562500Y-91931250D02*
X188562500Y-91931250D01*
X189562500Y-77931250D02*
X189562500Y-78931250D01*
X188562500Y-77931250D02*
X189562500Y-77931250D01*
X175562500Y-77931250D02*
X176562500Y-77931250D01*
%TO.C,MX32*%
X194612500Y-81312500D02*
X194612500Y-80312500D01*
X194612500Y-94312500D02*
X194612500Y-93312500D01*
X195612500Y-94312500D02*
X194612500Y-94312500D01*
X208612500Y-93312500D02*
X208612500Y-94312500D01*
X208612500Y-94312500D02*
X207612500Y-94312500D01*
X208612500Y-80312500D02*
X208612500Y-81312500D01*
X207612500Y-80312500D02*
X208612500Y-80312500D01*
X194612500Y-80312500D02*
X195612500Y-80312500D01*
%TO.C,MX31*%
X213662500Y-83693750D02*
X213662500Y-82693750D01*
X213662500Y-96693750D02*
X213662500Y-95693750D01*
X214662500Y-96693750D02*
X213662500Y-96693750D01*
X227662500Y-95693750D02*
X227662500Y-96693750D01*
X227662500Y-96693750D02*
X226662500Y-96693750D01*
X227662500Y-82693750D02*
X227662500Y-83693750D01*
X226662500Y-82693750D02*
X227662500Y-82693750D01*
X213662500Y-82693750D02*
X214662500Y-82693750D01*
%TO.C,MX30*%
X39831250Y-68612500D02*
X39831250Y-67612500D01*
X39831250Y-81612500D02*
X39831250Y-80612500D01*
X40831250Y-81612500D02*
X39831250Y-81612500D01*
X53831250Y-80612500D02*
X53831250Y-81612500D01*
X53831250Y-81612500D02*
X52831250Y-81612500D01*
X53831250Y-67612500D02*
X53831250Y-68612500D01*
X52831250Y-67612500D02*
X53831250Y-67612500D01*
X39831250Y-67612500D02*
X40831250Y-67612500D01*
%TO.C,MX29*%
X58881250Y-68612500D02*
X58881250Y-67612500D01*
X58881250Y-81612500D02*
X58881250Y-80612500D01*
X59881250Y-81612500D02*
X58881250Y-81612500D01*
X72881250Y-80612500D02*
X72881250Y-81612500D01*
X72881250Y-81612500D02*
X71881250Y-81612500D01*
X72881250Y-67612500D02*
X72881250Y-68612500D01*
X71881250Y-67612500D02*
X72881250Y-67612500D01*
X58881250Y-67612500D02*
X59881250Y-67612500D01*
%TO.C,MX28*%
X77931250Y-68612500D02*
X77931250Y-67612500D01*
X77931250Y-81612500D02*
X77931250Y-80612500D01*
X78931250Y-81612500D02*
X77931250Y-81612500D01*
X91931250Y-80612500D02*
X91931250Y-81612500D01*
X91931250Y-81612500D02*
X90931250Y-81612500D01*
X91931250Y-67612500D02*
X91931250Y-68612500D01*
X90931250Y-67612500D02*
X91931250Y-67612500D01*
X77931250Y-67612500D02*
X78931250Y-67612500D01*
%TO.C,MX27*%
X96981250Y-68612500D02*
X96981250Y-67612500D01*
X96981250Y-81612500D02*
X96981250Y-80612500D01*
X97981250Y-81612500D02*
X96981250Y-81612500D01*
X110981250Y-80612500D02*
X110981250Y-81612500D01*
X110981250Y-81612500D02*
X109981250Y-81612500D01*
X110981250Y-67612500D02*
X110981250Y-68612500D01*
X109981250Y-67612500D02*
X110981250Y-67612500D01*
X96981250Y-67612500D02*
X97981250Y-67612500D01*
%TO.C,MX26*%
X118412500Y-68612500D02*
X118412500Y-67612500D01*
X118412500Y-81612500D02*
X118412500Y-80612500D01*
X119412500Y-81612500D02*
X118412500Y-81612500D01*
X132412500Y-80612500D02*
X132412500Y-81612500D01*
X132412500Y-81612500D02*
X131412500Y-81612500D01*
X132412500Y-67612500D02*
X132412500Y-68612500D01*
X131412500Y-67612500D02*
X132412500Y-67612500D01*
X118412500Y-67612500D02*
X119412500Y-67612500D01*
%TO.C,MX25*%
X137462500Y-68612500D02*
X137462500Y-67612500D01*
X137462500Y-81612500D02*
X137462500Y-80612500D01*
X138462500Y-81612500D02*
X137462500Y-81612500D01*
X151462500Y-80612500D02*
X151462500Y-81612500D01*
X151462500Y-81612500D02*
X150462500Y-81612500D01*
X151462500Y-67612500D02*
X151462500Y-68612500D01*
X150462500Y-67612500D02*
X151462500Y-67612500D01*
X137462500Y-67612500D02*
X138462500Y-67612500D01*
%TO.C,MX24*%
X156512500Y-62262500D02*
X156512500Y-61262500D01*
X156512500Y-75262500D02*
X156512500Y-74262500D01*
X157512500Y-75262500D02*
X156512500Y-75262500D01*
X170512500Y-74262500D02*
X170512500Y-75262500D01*
X170512500Y-75262500D02*
X169512500Y-75262500D01*
X170512500Y-61262500D02*
X170512500Y-62262500D01*
X169512500Y-61262500D02*
X170512500Y-61262500D01*
X156512500Y-61262500D02*
X157512500Y-61262500D01*
%TO.C,MX23*%
X175562500Y-59881250D02*
X175562500Y-58881250D01*
X175562500Y-72881250D02*
X175562500Y-71881250D01*
X176562500Y-72881250D02*
X175562500Y-72881250D01*
X189562500Y-71881250D02*
X189562500Y-72881250D01*
X189562500Y-72881250D02*
X188562500Y-72881250D01*
X189562500Y-58881250D02*
X189562500Y-59881250D01*
X188562500Y-58881250D02*
X189562500Y-58881250D01*
X175562500Y-58881250D02*
X176562500Y-58881250D01*
%TO.C,MX22*%
X194612500Y-62262500D02*
X194612500Y-61262500D01*
X194612500Y-75262500D02*
X194612500Y-74262500D01*
X195612500Y-75262500D02*
X194612500Y-75262500D01*
X208612500Y-74262500D02*
X208612500Y-75262500D01*
X208612500Y-75262500D02*
X207612500Y-75262500D01*
X208612500Y-61262500D02*
X208612500Y-62262500D01*
X207612500Y-61262500D02*
X208612500Y-61262500D01*
X194612500Y-61262500D02*
X195612500Y-61262500D01*
%TO.C,MX20*%
X39831250Y-49562500D02*
X39831250Y-48562500D01*
X39831250Y-62562500D02*
X39831250Y-61562500D01*
X40831250Y-62562500D02*
X39831250Y-62562500D01*
X53831250Y-61562500D02*
X53831250Y-62562500D01*
X53831250Y-62562500D02*
X52831250Y-62562500D01*
X53831250Y-48562500D02*
X53831250Y-49562500D01*
X52831250Y-48562500D02*
X53831250Y-48562500D01*
X39831250Y-48562500D02*
X40831250Y-48562500D01*
%TO.C,MX19*%
X58881250Y-49562500D02*
X58881250Y-48562500D01*
X58881250Y-62562500D02*
X58881250Y-61562500D01*
X59881250Y-62562500D02*
X58881250Y-62562500D01*
X72881250Y-61562500D02*
X72881250Y-62562500D01*
X72881250Y-62562500D02*
X71881250Y-62562500D01*
X72881250Y-48562500D02*
X72881250Y-49562500D01*
X71881250Y-48562500D02*
X72881250Y-48562500D01*
X58881250Y-48562500D02*
X59881250Y-48562500D01*
%TO.C,MX18*%
X77931250Y-49562500D02*
X77931250Y-48562500D01*
X77931250Y-62562500D02*
X77931250Y-61562500D01*
X78931250Y-62562500D02*
X77931250Y-62562500D01*
X91931250Y-61562500D02*
X91931250Y-62562500D01*
X91931250Y-62562500D02*
X90931250Y-62562500D01*
X91931250Y-48562500D02*
X91931250Y-49562500D01*
X90931250Y-48562500D02*
X91931250Y-48562500D01*
X77931250Y-48562500D02*
X78931250Y-48562500D01*
%TO.C,MX17*%
X96981250Y-49562500D02*
X96981250Y-48562500D01*
X96981250Y-62562500D02*
X96981250Y-61562500D01*
X97981250Y-62562500D02*
X96981250Y-62562500D01*
X110981250Y-61562500D02*
X110981250Y-62562500D01*
X110981250Y-62562500D02*
X109981250Y-62562500D01*
X110981250Y-48562500D02*
X110981250Y-49562500D01*
X109981250Y-48562500D02*
X110981250Y-48562500D01*
X96981250Y-48562500D02*
X97981250Y-48562500D01*
%TO.C,MX16*%
X118412500Y-49562500D02*
X118412500Y-48562500D01*
X118412500Y-62562500D02*
X118412500Y-61562500D01*
X119412500Y-62562500D02*
X118412500Y-62562500D01*
X132412500Y-61562500D02*
X132412500Y-62562500D01*
X132412500Y-62562500D02*
X131412500Y-62562500D01*
X132412500Y-48562500D02*
X132412500Y-49562500D01*
X131412500Y-48562500D02*
X132412500Y-48562500D01*
X118412500Y-48562500D02*
X119412500Y-48562500D01*
%TO.C,MX14*%
X156512500Y-43212500D02*
X156512500Y-42212500D01*
X156512500Y-56212500D02*
X156512500Y-55212500D01*
X157512500Y-56212500D02*
X156512500Y-56212500D01*
X170512500Y-55212500D02*
X170512500Y-56212500D01*
X170512500Y-56212500D02*
X169512500Y-56212500D01*
X170512500Y-42212500D02*
X170512500Y-43212500D01*
X169512500Y-42212500D02*
X170512500Y-42212500D01*
X156512500Y-42212500D02*
X157512500Y-42212500D01*
%TO.C,MX13*%
X175562500Y-40831250D02*
X175562500Y-39831250D01*
X175562500Y-53831250D02*
X175562500Y-52831250D01*
X176562500Y-53831250D02*
X175562500Y-53831250D01*
X189562500Y-52831250D02*
X189562500Y-53831250D01*
X189562500Y-53831250D02*
X188562500Y-53831250D01*
X189562500Y-39831250D02*
X189562500Y-40831250D01*
X188562500Y-39831250D02*
X189562500Y-39831250D01*
X175562500Y-39831250D02*
X176562500Y-39831250D01*
%TO.C,MX12*%
X194612500Y-43212500D02*
X194612500Y-42212500D01*
X194612500Y-56212500D02*
X194612500Y-55212500D01*
X195612500Y-56212500D02*
X194612500Y-56212500D01*
X208612500Y-55212500D02*
X208612500Y-56212500D01*
X208612500Y-56212500D02*
X207612500Y-56212500D01*
X208612500Y-42212500D02*
X208612500Y-43212500D01*
X207612500Y-42212500D02*
X208612500Y-42212500D01*
X194612500Y-42212500D02*
X195612500Y-42212500D01*
%TO.C,MX11*%
X213662500Y-45593750D02*
X213662500Y-44593750D01*
X213662500Y-58593750D02*
X213662500Y-57593750D01*
X214662500Y-58593750D02*
X213662500Y-58593750D01*
X227662500Y-57593750D02*
X227662500Y-58593750D01*
X227662500Y-58593750D02*
X226662500Y-58593750D01*
X227662500Y-44593750D02*
X227662500Y-45593750D01*
X226662500Y-44593750D02*
X227662500Y-44593750D01*
X213662500Y-44593750D02*
X214662500Y-44593750D01*
%TO.C,MX9*%
X58881250Y-30512500D02*
X58881250Y-29512500D01*
X58881250Y-43512500D02*
X58881250Y-42512500D01*
X59881250Y-43512500D02*
X58881250Y-43512500D01*
X72881250Y-42512500D02*
X72881250Y-43512500D01*
X72881250Y-43512500D02*
X71881250Y-43512500D01*
X72881250Y-29512500D02*
X72881250Y-30512500D01*
X71881250Y-29512500D02*
X72881250Y-29512500D01*
X58881250Y-29512500D02*
X59881250Y-29512500D01*
%TO.C,MX8*%
X77931250Y-30512500D02*
X77931250Y-29512500D01*
X77931250Y-43512500D02*
X77931250Y-42512500D01*
X78931250Y-43512500D02*
X77931250Y-43512500D01*
X91931250Y-42512500D02*
X91931250Y-43512500D01*
X91931250Y-43512500D02*
X90931250Y-43512500D01*
X91931250Y-29512500D02*
X91931250Y-30512500D01*
X90931250Y-29512500D02*
X91931250Y-29512500D01*
X77931250Y-29512500D02*
X78931250Y-29512500D01*
%TO.C,MX7*%
X96981250Y-30512500D02*
X96981250Y-29512500D01*
X96981250Y-43512500D02*
X96981250Y-42512500D01*
X97981250Y-43512500D02*
X96981250Y-43512500D01*
X110981250Y-42512500D02*
X110981250Y-43512500D01*
X110981250Y-43512500D02*
X109981250Y-43512500D01*
X110981250Y-29512500D02*
X110981250Y-30512500D01*
X109981250Y-29512500D02*
X110981250Y-29512500D01*
X96981250Y-29512500D02*
X97981250Y-29512500D01*
%TO.C,MX6*%
X118412500Y-30512500D02*
X118412500Y-29512500D01*
X118412500Y-43512500D02*
X118412500Y-42512500D01*
X119412500Y-43512500D02*
X118412500Y-43512500D01*
X132412500Y-42512500D02*
X132412500Y-43512500D01*
X132412500Y-43512500D02*
X131412500Y-43512500D01*
X132412500Y-29512500D02*
X132412500Y-30512500D01*
X131412500Y-29512500D02*
X132412500Y-29512500D01*
X118412500Y-29512500D02*
X119412500Y-29512500D01*
%TO.C,MX5*%
X137462500Y-30512500D02*
X137462500Y-29512500D01*
X137462500Y-43512500D02*
X137462500Y-42512500D01*
X138462500Y-43512500D02*
X137462500Y-43512500D01*
X151462500Y-42512500D02*
X151462500Y-43512500D01*
X151462500Y-43512500D02*
X150462500Y-43512500D01*
X151462500Y-29512500D02*
X151462500Y-30512500D01*
X150462500Y-29512500D02*
X151462500Y-29512500D01*
X137462500Y-29512500D02*
X138462500Y-29512500D01*
%TO.C,MX4*%
X156512500Y-24162500D02*
X156512500Y-23162500D01*
X156512500Y-37162500D02*
X156512500Y-36162500D01*
X157512500Y-37162500D02*
X156512500Y-37162500D01*
X170512500Y-36162500D02*
X170512500Y-37162500D01*
X170512500Y-37162500D02*
X169512500Y-37162500D01*
X170512500Y-23162500D02*
X170512500Y-24162500D01*
X169512500Y-23162500D02*
X170512500Y-23162500D01*
X156512500Y-23162500D02*
X157512500Y-23162500D01*
%TO.C,MX3*%
X175562500Y-21781250D02*
X175562500Y-20781250D01*
X175562500Y-34781250D02*
X175562500Y-33781250D01*
X176562500Y-34781250D02*
X175562500Y-34781250D01*
X189562500Y-33781250D02*
X189562500Y-34781250D01*
X189562500Y-34781250D02*
X188562500Y-34781250D01*
X189562500Y-20781250D02*
X189562500Y-21781250D01*
X188562500Y-20781250D02*
X189562500Y-20781250D01*
X175562500Y-20781250D02*
X176562500Y-20781250D01*
%TO.C,MX2*%
X194612500Y-24162500D02*
X194612500Y-23162500D01*
X194612500Y-37162500D02*
X194612500Y-36162500D01*
X195612500Y-37162500D02*
X194612500Y-37162500D01*
X208612500Y-36162500D02*
X208612500Y-37162500D01*
X208612500Y-37162500D02*
X207612500Y-37162500D01*
X208612500Y-23162500D02*
X208612500Y-24162500D01*
X207612500Y-23162500D02*
X208612500Y-23162500D01*
X194612500Y-23162500D02*
X195612500Y-23162500D01*
%TO.C,MX1*%
X213662500Y-26543750D02*
X213662500Y-25543750D01*
X213662500Y-39543750D02*
X213662500Y-38543750D01*
X214662500Y-39543750D02*
X213662500Y-39543750D01*
X227662500Y-38543750D02*
X227662500Y-39543750D01*
X227662500Y-39543750D02*
X226662500Y-39543750D01*
X227662500Y-25543750D02*
X227662500Y-26543750D01*
X226662500Y-25543750D02*
X227662500Y-25543750D01*
X213662500Y-25543750D02*
X214662500Y-25543750D01*
D12*
%TO.C,U1*%
X247650000Y-29210000D02*
X250190000Y-29210000D01*
X250190000Y-26670000D02*
X250190000Y-29210000D01*
X232410000Y-26670000D02*
X250190000Y-26670000D01*
X232410000Y-29210000D02*
X232410000Y-26670000D01*
D10*
G36*
X236368432Y-35689360D02*
G01*
X236368432Y-35889360D01*
X236468432Y-35889360D01*
X236468432Y-35689360D01*
X236368432Y-35689360D01*
G37*
X236368432Y-35689360D02*
X236368432Y-35889360D01*
X236468432Y-35889360D01*
X236468432Y-35689360D01*
X236368432Y-35689360D01*
G36*
X236768432Y-35089360D02*
G01*
X236768432Y-35889360D01*
X236868432Y-35889360D01*
X236868432Y-35089360D01*
X236768432Y-35089360D01*
G37*
X236768432Y-35089360D02*
X236768432Y-35889360D01*
X236868432Y-35889360D01*
X236868432Y-35089360D01*
X236768432Y-35089360D01*
G36*
X236368432Y-35089360D02*
G01*
X236368432Y-35189360D01*
X236868432Y-35189360D01*
X236868432Y-35089360D01*
X236368432Y-35089360D01*
G37*
X236368432Y-35089360D02*
X236368432Y-35189360D01*
X236868432Y-35189360D01*
X236868432Y-35089360D01*
X236368432Y-35089360D01*
G36*
X236568432Y-35489360D02*
G01*
X236568432Y-35589360D01*
X236668432Y-35589360D01*
X236668432Y-35489360D01*
X236568432Y-35489360D01*
G37*
X236568432Y-35489360D02*
X236568432Y-35589360D01*
X236668432Y-35589360D01*
X236668432Y-35489360D01*
X236568432Y-35489360D01*
G36*
X236368432Y-35089360D02*
G01*
X236368432Y-35389360D01*
X236468432Y-35389360D01*
X236468432Y-35089360D01*
X236368432Y-35089360D01*
G37*
X236368432Y-35089360D02*
X236368432Y-35389360D01*
X236468432Y-35389360D01*
X236468432Y-35089360D01*
X236368432Y-35089360D01*
D12*
X247650000Y-31750000D02*
X250190000Y-31750000D01*
X247650000Y-29210000D02*
X247650000Y-31750000D01*
X232410000Y-59690000D02*
X232410000Y-29210000D01*
X250190000Y-59690000D02*
X232410000Y-59690000D01*
X250190000Y-29210000D02*
X250190000Y-59690000D01*
D13*
%TO.C,D43*%
X202809500Y-111812500D02*
X200409500Y-111812500D01*
X202809500Y-111987500D02*
X200409500Y-111987500D01*
X202809500Y-112162500D02*
X200409500Y-112162500D01*
X200409500Y-112562500D02*
X202809500Y-112562500D01*
X202809500Y-112337500D02*
X200409500Y-112337500D01*
X202809500Y-112462500D02*
X200409500Y-112462500D01*
X202809500Y-112537500D02*
X202809500Y-106737500D01*
X202809500Y-106737500D02*
X200409500Y-106737500D01*
X200409500Y-106737500D02*
X200409500Y-112537500D01*
D14*
%TO.C,R2*%
X244585000Y-43656250D02*
G75*
G03*
X244585000Y-43656250I-920000J0D01*
G01*
X242745000Y-43656250D02*
X239585000Y-43656250D01*
%TO.C,R1*%
X244585000Y-38100000D02*
G75*
G03*
X244585000Y-38100000I-920000J0D01*
G01*
X242745000Y-38100000D02*
X239585000Y-38100000D01*
D13*
%TO.C,D45*%
X155167000Y-107022750D02*
X155167000Y-104622750D01*
X154992000Y-107022750D02*
X154992000Y-104622750D01*
X154817000Y-107022750D02*
X154817000Y-104622750D01*
X154417000Y-104622750D02*
X154417000Y-107022750D01*
X154642000Y-107022750D02*
X154642000Y-104622750D01*
X154517000Y-107022750D02*
X154517000Y-104622750D01*
X154442000Y-107022750D02*
X160242000Y-107022750D01*
X160242000Y-107022750D02*
X160242000Y-104622750D01*
X160242000Y-104622750D02*
X154442000Y-104622750D01*
%TO.C,D44*%
X183762500Y-111812500D02*
X181362500Y-111812500D01*
X183762500Y-111987500D02*
X181362500Y-111987500D01*
X183762500Y-112162500D02*
X181362500Y-112162500D01*
X181362500Y-112562500D02*
X183762500Y-112562500D01*
X183762500Y-112337500D02*
X181362500Y-112337500D01*
X183762500Y-112462500D02*
X181362500Y-112462500D01*
X183762500Y-112537500D02*
X183762500Y-106737500D01*
X183762500Y-106737500D02*
X181362500Y-106737500D01*
X181362500Y-106737500D02*
X181362500Y-112537500D01*
%TO.C,D42*%
X221853500Y-114193750D02*
X219453500Y-114193750D01*
X221853500Y-114368750D02*
X219453500Y-114368750D01*
X221853500Y-114543750D02*
X219453500Y-114543750D01*
X219453500Y-114943750D02*
X221853500Y-114943750D01*
X221853500Y-114718750D02*
X219453500Y-114718750D01*
X221853500Y-114843750D02*
X219453500Y-114843750D01*
X221853500Y-114918750D02*
X221853500Y-109118750D01*
X221853500Y-109118750D02*
X219453500Y-109118750D01*
X219453500Y-109118750D02*
X219453500Y-114918750D01*
%TO.C,D41*%
X246238208Y-102492020D02*
X245038208Y-104570480D01*
X246389762Y-102579520D02*
X245189762Y-104657980D01*
X246541317Y-102667020D02*
X245341317Y-104745480D01*
X245687727Y-104945480D02*
X246887727Y-102867020D01*
X246692871Y-102754520D02*
X245492871Y-104832980D01*
X246801124Y-102817020D02*
X245601124Y-104895480D01*
X246866076Y-102854520D02*
X241843129Y-99954520D01*
X241843129Y-99954520D02*
X240643129Y-102032980D01*
X240643129Y-102032980D02*
X245666076Y-104932980D01*
%TO.C,D40*%
X56805500Y-95937500D02*
X54405500Y-95937500D01*
X56805500Y-96112500D02*
X54405500Y-96112500D01*
X56805500Y-96287500D02*
X54405500Y-96287500D01*
X54405500Y-96687500D02*
X56805500Y-96687500D01*
X56805500Y-96462500D02*
X54405500Y-96462500D01*
X56805500Y-96587500D02*
X54405500Y-96587500D01*
X56805500Y-96662500D02*
X56805500Y-90862500D01*
X56805500Y-90862500D02*
X54405500Y-90862500D01*
X54405500Y-90862500D02*
X54405500Y-96662500D01*
%TO.C,D39*%
X75849500Y-95937500D02*
X73449500Y-95937500D01*
X75849500Y-96112500D02*
X73449500Y-96112500D01*
X75849500Y-96287500D02*
X73449500Y-96287500D01*
X73449500Y-96687500D02*
X75849500Y-96687500D01*
X75849500Y-96462500D02*
X73449500Y-96462500D01*
X75849500Y-96587500D02*
X73449500Y-96587500D01*
X75849500Y-96662500D02*
X75849500Y-90862500D01*
X75849500Y-90862500D02*
X73449500Y-90862500D01*
X73449500Y-90862500D02*
X73449500Y-96662500D01*
%TO.C,D38*%
X94893500Y-95925000D02*
X92493500Y-95925000D01*
X94893500Y-96100000D02*
X92493500Y-96100000D01*
X94893500Y-96275000D02*
X92493500Y-96275000D01*
X92493500Y-96675000D02*
X94893500Y-96675000D01*
X94893500Y-96450000D02*
X92493500Y-96450000D01*
X94893500Y-96575000D02*
X92493500Y-96575000D01*
X94893500Y-96650000D02*
X94893500Y-90850000D01*
X94893500Y-90850000D02*
X92493500Y-90850000D01*
X92493500Y-90850000D02*
X92493500Y-96650000D01*
%TO.C,D37*%
X113937500Y-95937500D02*
X111537500Y-95937500D01*
X113937500Y-96112500D02*
X111537500Y-96112500D01*
X113937500Y-96287500D02*
X111537500Y-96287500D01*
X111537500Y-96687500D02*
X113937500Y-96687500D01*
X113937500Y-96462500D02*
X111537500Y-96462500D01*
X113937500Y-96587500D02*
X111537500Y-96587500D01*
X113937500Y-96662500D02*
X113937500Y-90862500D01*
X113937500Y-90862500D02*
X111537500Y-90862500D01*
X111537500Y-90862500D02*
X111537500Y-96662500D01*
%TO.C,D36*%
X135362000Y-95937500D02*
X132962000Y-95937500D01*
X135362000Y-96112500D02*
X132962000Y-96112500D01*
X135362000Y-96287500D02*
X132962000Y-96287500D01*
X132962000Y-96687500D02*
X135362000Y-96687500D01*
X135362000Y-96462500D02*
X132962000Y-96462500D01*
X135362000Y-96587500D02*
X132962000Y-96587500D01*
X135362000Y-96662500D02*
X135362000Y-90862500D01*
X135362000Y-90862500D02*
X132962000Y-90862500D01*
X132962000Y-90862500D02*
X132962000Y-96662500D01*
%TO.C,D35*%
X154406000Y-95937500D02*
X152006000Y-95937500D01*
X154406000Y-96112500D02*
X152006000Y-96112500D01*
X154406000Y-96287500D02*
X152006000Y-96287500D01*
X152006000Y-96687500D02*
X154406000Y-96687500D01*
X154406000Y-96462500D02*
X152006000Y-96462500D01*
X154406000Y-96587500D02*
X152006000Y-96587500D01*
X154406000Y-96662500D02*
X154406000Y-90862500D01*
X154406000Y-90862500D02*
X152006000Y-90862500D01*
X152006000Y-90862500D02*
X152006000Y-96662500D01*
%TO.C,D34*%
X173450000Y-89587500D02*
X171050000Y-89587500D01*
X173450000Y-89762500D02*
X171050000Y-89762500D01*
X173450000Y-89937500D02*
X171050000Y-89937500D01*
X171050000Y-90337500D02*
X173450000Y-90337500D01*
X173450000Y-90112500D02*
X171050000Y-90112500D01*
X173450000Y-90237500D02*
X171050000Y-90237500D01*
X173450000Y-90312500D02*
X173450000Y-84512500D01*
X173450000Y-84512500D02*
X171050000Y-84512500D01*
X171050000Y-84512500D02*
X171050000Y-90312500D01*
%TO.C,D33*%
X192494000Y-87206250D02*
X190094000Y-87206250D01*
X192494000Y-87381250D02*
X190094000Y-87381250D01*
X192494000Y-87556250D02*
X190094000Y-87556250D01*
X190094000Y-87956250D02*
X192494000Y-87956250D01*
X192494000Y-87731250D02*
X190094000Y-87731250D01*
X192494000Y-87856250D02*
X190094000Y-87856250D01*
X192494000Y-87931250D02*
X192494000Y-82131250D01*
X192494000Y-82131250D02*
X190094000Y-82131250D01*
X190094000Y-82131250D02*
X190094000Y-87931250D01*
%TO.C,D32*%
X211538000Y-90381250D02*
X209138000Y-90381250D01*
X211538000Y-90556250D02*
X209138000Y-90556250D01*
X211538000Y-90731250D02*
X209138000Y-90731250D01*
X209138000Y-91131250D02*
X211538000Y-91131250D01*
X211538000Y-90906250D02*
X209138000Y-90906250D01*
X211538000Y-91031250D02*
X209138000Y-91031250D01*
X211538000Y-91106250D02*
X211538000Y-85306250D01*
X211538000Y-85306250D02*
X209138000Y-85306250D01*
X209138000Y-85306250D02*
X209138000Y-91106250D01*
%TO.C,D31*%
X230582000Y-91968750D02*
X228182000Y-91968750D01*
X230582000Y-92143750D02*
X228182000Y-92143750D01*
X230582000Y-92318750D02*
X228182000Y-92318750D01*
X228182000Y-92718750D02*
X230582000Y-92718750D01*
X230582000Y-92493750D02*
X228182000Y-92493750D01*
X230582000Y-92618750D02*
X228182000Y-92618750D01*
X230582000Y-92693750D02*
X230582000Y-86893750D01*
X230582000Y-86893750D02*
X228182000Y-86893750D01*
X228182000Y-86893750D02*
X228182000Y-92693750D01*
%TO.C,D30*%
X56805500Y-76887500D02*
X54405500Y-76887500D01*
X56805500Y-77062500D02*
X54405500Y-77062500D01*
X56805500Y-77237500D02*
X54405500Y-77237500D01*
X54405500Y-77637500D02*
X56805500Y-77637500D01*
X56805500Y-77412500D02*
X54405500Y-77412500D01*
X56805500Y-77537500D02*
X54405500Y-77537500D01*
X56805500Y-77612500D02*
X56805500Y-71812500D01*
X56805500Y-71812500D02*
X54405500Y-71812500D01*
X54405500Y-71812500D02*
X54405500Y-77612500D01*
%TO.C,D29*%
X75849500Y-76887500D02*
X73449500Y-76887500D01*
X75849500Y-77062500D02*
X73449500Y-77062500D01*
X75849500Y-77237500D02*
X73449500Y-77237500D01*
X73449500Y-77637500D02*
X75849500Y-77637500D01*
X75849500Y-77412500D02*
X73449500Y-77412500D01*
X75849500Y-77537500D02*
X73449500Y-77537500D01*
X75849500Y-77612500D02*
X75849500Y-71812500D01*
X75849500Y-71812500D02*
X73449500Y-71812500D01*
X73449500Y-71812500D02*
X73449500Y-77612500D01*
%TO.C,D28*%
X94893500Y-76887500D02*
X92493500Y-76887500D01*
X94893500Y-77062500D02*
X92493500Y-77062500D01*
X94893500Y-77237500D02*
X92493500Y-77237500D01*
X92493500Y-77637500D02*
X94893500Y-77637500D01*
X94893500Y-77412500D02*
X92493500Y-77412500D01*
X94893500Y-77537500D02*
X92493500Y-77537500D01*
X94893500Y-77612500D02*
X94893500Y-71812500D01*
X94893500Y-71812500D02*
X92493500Y-71812500D01*
X92493500Y-71812500D02*
X92493500Y-77612500D01*
%TO.C,D27*%
X113937500Y-76887500D02*
X111537500Y-76887500D01*
X113937500Y-77062500D02*
X111537500Y-77062500D01*
X113937500Y-77237500D02*
X111537500Y-77237500D01*
X111537500Y-77637500D02*
X113937500Y-77637500D01*
X113937500Y-77412500D02*
X111537500Y-77412500D01*
X113937500Y-77537500D02*
X111537500Y-77537500D01*
X113937500Y-77612500D02*
X113937500Y-71812500D01*
X113937500Y-71812500D02*
X111537500Y-71812500D01*
X111537500Y-71812500D02*
X111537500Y-77612500D01*
%TO.C,D26*%
X135362000Y-76887500D02*
X132962000Y-76887500D01*
X135362000Y-77062500D02*
X132962000Y-77062500D01*
X135362000Y-77237500D02*
X132962000Y-77237500D01*
X132962000Y-77637500D02*
X135362000Y-77637500D01*
X135362000Y-77412500D02*
X132962000Y-77412500D01*
X135362000Y-77537500D02*
X132962000Y-77537500D01*
X135362000Y-77612500D02*
X135362000Y-71812500D01*
X135362000Y-71812500D02*
X132962000Y-71812500D01*
X132962000Y-71812500D02*
X132962000Y-77612500D01*
%TO.C,D25*%
X154406000Y-76887500D02*
X152006000Y-76887500D01*
X154406000Y-77062500D02*
X152006000Y-77062500D01*
X154406000Y-77237500D02*
X152006000Y-77237500D01*
X152006000Y-77637500D02*
X154406000Y-77637500D01*
X154406000Y-77412500D02*
X152006000Y-77412500D01*
X154406000Y-77537500D02*
X152006000Y-77537500D01*
X154406000Y-77612500D02*
X154406000Y-71812500D01*
X154406000Y-71812500D02*
X152006000Y-71812500D01*
X152006000Y-71812500D02*
X152006000Y-77612500D01*
%TO.C,D24*%
X173450000Y-70537500D02*
X171050000Y-70537500D01*
X173450000Y-70712500D02*
X171050000Y-70712500D01*
X173450000Y-70887500D02*
X171050000Y-70887500D01*
X171050000Y-71287500D02*
X173450000Y-71287500D01*
X173450000Y-71062500D02*
X171050000Y-71062500D01*
X173450000Y-71187500D02*
X171050000Y-71187500D01*
X173450000Y-71262500D02*
X173450000Y-65462500D01*
X173450000Y-65462500D02*
X171050000Y-65462500D01*
X171050000Y-65462500D02*
X171050000Y-71262500D01*
%TO.C,D23*%
X192494000Y-68156250D02*
X190094000Y-68156250D01*
X192494000Y-68331250D02*
X190094000Y-68331250D01*
X192494000Y-68506250D02*
X190094000Y-68506250D01*
X190094000Y-68906250D02*
X192494000Y-68906250D01*
X192494000Y-68681250D02*
X190094000Y-68681250D01*
X192494000Y-68806250D02*
X190094000Y-68806250D01*
X192494000Y-68881250D02*
X192494000Y-63081250D01*
X192494000Y-63081250D02*
X190094000Y-63081250D01*
X190094000Y-63081250D02*
X190094000Y-68881250D01*
%TO.C,D22*%
X211538000Y-70537500D02*
X209138000Y-70537500D01*
X211538000Y-70712500D02*
X209138000Y-70712500D01*
X211538000Y-70887500D02*
X209138000Y-70887500D01*
X209138000Y-71287500D02*
X211538000Y-71287500D01*
X211538000Y-71062500D02*
X209138000Y-71062500D01*
X211538000Y-71187500D02*
X209138000Y-71187500D01*
X211538000Y-71262500D02*
X211538000Y-65462500D01*
X211538000Y-65462500D02*
X209138000Y-65462500D01*
X209138000Y-65462500D02*
X209138000Y-71262500D01*
%TO.C,D21*%
X230582000Y-72918750D02*
X228182000Y-72918750D01*
X230582000Y-73093750D02*
X228182000Y-73093750D01*
X230582000Y-73268750D02*
X228182000Y-73268750D01*
X228182000Y-73668750D02*
X230582000Y-73668750D01*
X230582000Y-73443750D02*
X228182000Y-73443750D01*
X230582000Y-73568750D02*
X228182000Y-73568750D01*
X230582000Y-73643750D02*
X230582000Y-67843750D01*
X230582000Y-67843750D02*
X228182000Y-67843750D01*
X228182000Y-67843750D02*
X228182000Y-73643750D01*
%TO.C,D20*%
X56805500Y-57837500D02*
X54405500Y-57837500D01*
X56805500Y-58012500D02*
X54405500Y-58012500D01*
X56805500Y-58187500D02*
X54405500Y-58187500D01*
X54405500Y-58587500D02*
X56805500Y-58587500D01*
X56805500Y-58362500D02*
X54405500Y-58362500D01*
X56805500Y-58487500D02*
X54405500Y-58487500D01*
X56805500Y-58562500D02*
X56805500Y-52762500D01*
X56805500Y-52762500D02*
X54405500Y-52762500D01*
X54405500Y-52762500D02*
X54405500Y-58562500D01*
%TO.C,D19*%
X75849500Y-57837500D02*
X73449500Y-57837500D01*
X75849500Y-58012500D02*
X73449500Y-58012500D01*
X75849500Y-58187500D02*
X73449500Y-58187500D01*
X73449500Y-58587500D02*
X75849500Y-58587500D01*
X75849500Y-58362500D02*
X73449500Y-58362500D01*
X75849500Y-58487500D02*
X73449500Y-58487500D01*
X75849500Y-58562500D02*
X75849500Y-52762500D01*
X75849500Y-52762500D02*
X73449500Y-52762500D01*
X73449500Y-52762500D02*
X73449500Y-58562500D01*
%TO.C,D18*%
X94893500Y-57837500D02*
X92493500Y-57837500D01*
X94893500Y-58012500D02*
X92493500Y-58012500D01*
X94893500Y-58187500D02*
X92493500Y-58187500D01*
X92493500Y-58587500D02*
X94893500Y-58587500D01*
X94893500Y-58362500D02*
X92493500Y-58362500D01*
X94893500Y-58487500D02*
X92493500Y-58487500D01*
X94893500Y-58562500D02*
X94893500Y-52762500D01*
X94893500Y-52762500D02*
X92493500Y-52762500D01*
X92493500Y-52762500D02*
X92493500Y-58562500D01*
%TO.C,D17*%
X113937500Y-57837500D02*
X111537500Y-57837500D01*
X113937500Y-58012500D02*
X111537500Y-58012500D01*
X113937500Y-58187500D02*
X111537500Y-58187500D01*
X111537500Y-58587500D02*
X113937500Y-58587500D01*
X113937500Y-58362500D02*
X111537500Y-58362500D01*
X113937500Y-58487500D02*
X111537500Y-58487500D01*
X113937500Y-58562500D02*
X113937500Y-52762500D01*
X113937500Y-52762500D02*
X111537500Y-52762500D01*
X111537500Y-52762500D02*
X111537500Y-58562500D01*
%TO.C,D16*%
X135362000Y-57837500D02*
X132962000Y-57837500D01*
X135362000Y-58012500D02*
X132962000Y-58012500D01*
X135362000Y-58187500D02*
X132962000Y-58187500D01*
X132962000Y-58587500D02*
X135362000Y-58587500D01*
X135362000Y-58362500D02*
X132962000Y-58362500D01*
X135362000Y-58487500D02*
X132962000Y-58487500D01*
X135362000Y-58562500D02*
X135362000Y-52762500D01*
X135362000Y-52762500D02*
X132962000Y-52762500D01*
X132962000Y-52762500D02*
X132962000Y-58562500D01*
%TO.C,D15*%
X154406000Y-57837500D02*
X152006000Y-57837500D01*
X154406000Y-58012500D02*
X152006000Y-58012500D01*
X154406000Y-58187500D02*
X152006000Y-58187500D01*
X152006000Y-58587500D02*
X154406000Y-58587500D01*
X154406000Y-58362500D02*
X152006000Y-58362500D01*
X154406000Y-58487500D02*
X152006000Y-58487500D01*
X154406000Y-58562500D02*
X154406000Y-52762500D01*
X154406000Y-52762500D02*
X152006000Y-52762500D01*
X152006000Y-52762500D02*
X152006000Y-58562500D01*
%TO.C,D14*%
X173450000Y-51487500D02*
X171050000Y-51487500D01*
X173450000Y-51662500D02*
X171050000Y-51662500D01*
X173450000Y-51837500D02*
X171050000Y-51837500D01*
X171050000Y-52237500D02*
X173450000Y-52237500D01*
X173450000Y-52012500D02*
X171050000Y-52012500D01*
X173450000Y-52137500D02*
X171050000Y-52137500D01*
X173450000Y-52212500D02*
X173450000Y-46412500D01*
X173450000Y-46412500D02*
X171050000Y-46412500D01*
X171050000Y-46412500D02*
X171050000Y-52212500D01*
%TO.C,D13*%
X192494000Y-49106250D02*
X190094000Y-49106250D01*
X192494000Y-49281250D02*
X190094000Y-49281250D01*
X192494000Y-49456250D02*
X190094000Y-49456250D01*
X190094000Y-49856250D02*
X192494000Y-49856250D01*
X192494000Y-49631250D02*
X190094000Y-49631250D01*
X192494000Y-49756250D02*
X190094000Y-49756250D01*
X192494000Y-49831250D02*
X192494000Y-44031250D01*
X192494000Y-44031250D02*
X190094000Y-44031250D01*
X190094000Y-44031250D02*
X190094000Y-49831250D01*
%TO.C,D12*%
X211538000Y-52281250D02*
X209138000Y-52281250D01*
X211538000Y-52456250D02*
X209138000Y-52456250D01*
X211538000Y-52631250D02*
X209138000Y-52631250D01*
X209138000Y-53031250D02*
X211538000Y-53031250D01*
X211538000Y-52806250D02*
X209138000Y-52806250D01*
X211538000Y-52931250D02*
X209138000Y-52931250D01*
X211538000Y-53006250D02*
X211538000Y-47206250D01*
X211538000Y-47206250D02*
X209138000Y-47206250D01*
X209138000Y-47206250D02*
X209138000Y-53006250D01*
%TO.C,D11*%
X230582000Y-53868750D02*
X228182000Y-53868750D01*
X230582000Y-54043750D02*
X228182000Y-54043750D01*
X230582000Y-54218750D02*
X228182000Y-54218750D01*
X228182000Y-54618750D02*
X230582000Y-54618750D01*
X230582000Y-54393750D02*
X228182000Y-54393750D01*
X230582000Y-54518750D02*
X228182000Y-54518750D01*
X230582000Y-54593750D02*
X230582000Y-48793750D01*
X230582000Y-48793750D02*
X228182000Y-48793750D01*
X228182000Y-48793750D02*
X228182000Y-54593750D01*
%TO.C,D10*%
X56805500Y-38787500D02*
X54405500Y-38787500D01*
X56805500Y-38962500D02*
X54405500Y-38962500D01*
X56805500Y-39137500D02*
X54405500Y-39137500D01*
X54405500Y-39537500D02*
X56805500Y-39537500D01*
X56805500Y-39312500D02*
X54405500Y-39312500D01*
X56805500Y-39437500D02*
X54405500Y-39437500D01*
X56805500Y-39512500D02*
X56805500Y-33712500D01*
X56805500Y-33712500D02*
X54405500Y-33712500D01*
X54405500Y-33712500D02*
X54405500Y-39512500D01*
%TO.C,D9*%
X75849500Y-38787500D02*
X73449500Y-38787500D01*
X75849500Y-38962500D02*
X73449500Y-38962500D01*
X75849500Y-39137500D02*
X73449500Y-39137500D01*
X73449500Y-39537500D02*
X75849500Y-39537500D01*
X75849500Y-39312500D02*
X73449500Y-39312500D01*
X75849500Y-39437500D02*
X73449500Y-39437500D01*
X75849500Y-39512500D02*
X75849500Y-33712500D01*
X75849500Y-33712500D02*
X73449500Y-33712500D01*
X73449500Y-33712500D02*
X73449500Y-39512500D01*
%TO.C,D8*%
X94893500Y-38787500D02*
X92493500Y-38787500D01*
X94893500Y-38962500D02*
X92493500Y-38962500D01*
X94893500Y-39137500D02*
X92493500Y-39137500D01*
X92493500Y-39537500D02*
X94893500Y-39537500D01*
X94893500Y-39312500D02*
X92493500Y-39312500D01*
X94893500Y-39437500D02*
X92493500Y-39437500D01*
X94893500Y-39512500D02*
X94893500Y-33712500D01*
X94893500Y-33712500D02*
X92493500Y-33712500D01*
X92493500Y-33712500D02*
X92493500Y-39512500D01*
%TO.C,D7*%
X113937500Y-38787500D02*
X111537500Y-38787500D01*
X113937500Y-38962500D02*
X111537500Y-38962500D01*
X113937500Y-39137500D02*
X111537500Y-39137500D01*
X111537500Y-39537500D02*
X113937500Y-39537500D01*
X113937500Y-39312500D02*
X111537500Y-39312500D01*
X113937500Y-39437500D02*
X111537500Y-39437500D01*
X113937500Y-39512500D02*
X113937500Y-33712500D01*
X113937500Y-33712500D02*
X111537500Y-33712500D01*
X111537500Y-33712500D02*
X111537500Y-39512500D01*
%TO.C,D6*%
X135362000Y-38787500D02*
X132962000Y-38787500D01*
X135362000Y-38962500D02*
X132962000Y-38962500D01*
X135362000Y-39137500D02*
X132962000Y-39137500D01*
X132962000Y-39537500D02*
X135362000Y-39537500D01*
X135362000Y-39312500D02*
X132962000Y-39312500D01*
X135362000Y-39437500D02*
X132962000Y-39437500D01*
X135362000Y-39512500D02*
X135362000Y-33712500D01*
X135362000Y-33712500D02*
X132962000Y-33712500D01*
X132962000Y-33712500D02*
X132962000Y-39512500D01*
%TO.C,D5*%
X154406000Y-37993750D02*
X152006000Y-37993750D01*
X154406000Y-38168750D02*
X152006000Y-38168750D01*
X154406000Y-38343750D02*
X152006000Y-38343750D01*
X152006000Y-38743750D02*
X154406000Y-38743750D01*
X154406000Y-38518750D02*
X152006000Y-38518750D01*
X154406000Y-38643750D02*
X152006000Y-38643750D01*
X154406000Y-38718750D02*
X154406000Y-32918750D01*
X154406000Y-32918750D02*
X152006000Y-32918750D01*
X152006000Y-32918750D02*
X152006000Y-38718750D01*
%TO.C,D4*%
X173450000Y-32437500D02*
X171050000Y-32437500D01*
X173450000Y-32612500D02*
X171050000Y-32612500D01*
X173450000Y-32787500D02*
X171050000Y-32787500D01*
X171050000Y-33187500D02*
X173450000Y-33187500D01*
X173450000Y-32962500D02*
X171050000Y-32962500D01*
X173450000Y-33087500D02*
X171050000Y-33087500D01*
X173450000Y-33162500D02*
X173450000Y-27362500D01*
X173450000Y-27362500D02*
X171050000Y-27362500D01*
X171050000Y-27362500D02*
X171050000Y-33162500D01*
%TO.C,D3*%
X192494000Y-30056250D02*
X190094000Y-30056250D01*
X192494000Y-30231250D02*
X190094000Y-30231250D01*
X192494000Y-30406250D02*
X190094000Y-30406250D01*
X190094000Y-30806250D02*
X192494000Y-30806250D01*
X192494000Y-30581250D02*
X190094000Y-30581250D01*
X192494000Y-30706250D02*
X190094000Y-30706250D01*
X192494000Y-30781250D02*
X192494000Y-24981250D01*
X192494000Y-24981250D02*
X190094000Y-24981250D01*
X190094000Y-24981250D02*
X190094000Y-30781250D01*
%TO.C,D2*%
X211538000Y-32437500D02*
X209138000Y-32437500D01*
X211538000Y-32612500D02*
X209138000Y-32612500D01*
X211538000Y-32787500D02*
X209138000Y-32787500D01*
X209138000Y-33187500D02*
X211538000Y-33187500D01*
X211538000Y-32962500D02*
X209138000Y-32962500D01*
X211538000Y-33087500D02*
X209138000Y-33087500D01*
X211538000Y-33162500D02*
X211538000Y-27362500D01*
X211538000Y-27362500D02*
X209138000Y-27362500D01*
X209138000Y-27362500D02*
X209138000Y-33162500D01*
%TO.C,D1*%
X230582000Y-34756250D02*
X228182000Y-34756250D01*
X230582000Y-34931250D02*
X228182000Y-34931250D01*
X230582000Y-35106250D02*
X228182000Y-35106250D01*
X228182000Y-35506250D02*
X230582000Y-35506250D01*
X230582000Y-35281250D02*
X228182000Y-35281250D01*
X230582000Y-35406250D02*
X228182000Y-35406250D01*
X230582000Y-35481250D02*
X230582000Y-29681250D01*
X230582000Y-29681250D02*
X228182000Y-29681250D01*
X228182000Y-29681250D02*
X228182000Y-35481250D01*
%TO.C,MX21*%
D10*
X222424404Y-62841130D02*
X222424404Y-61841130D01*
X222091071Y-62555416D01*
X221757738Y-61841130D01*
X221757738Y-62841130D01*
X221376785Y-61841130D02*
X220710119Y-62841130D01*
X220710119Y-61841130D02*
X221376785Y-62841130D01*
X220376785Y-61936369D02*
X220329166Y-61888750D01*
X220233928Y-61841130D01*
X219995833Y-61841130D01*
X219900595Y-61888750D01*
X219852976Y-61936369D01*
X219805357Y-62031607D01*
X219805357Y-62126845D01*
X219852976Y-62269702D01*
X220424404Y-62841130D01*
X219805357Y-62841130D01*
X218852976Y-62841130D02*
X219424404Y-62841130D01*
X219138690Y-62841130D02*
X219138690Y-61841130D01*
X219233928Y-61983988D01*
X219329166Y-62079226D01*
X219424404Y-62126845D01*
%TO.C,MX41*%
X233607685Y-104332586D02*
X232741660Y-103832586D01*
X233193583Y-104478404D01*
X232408327Y-104409936D01*
X233274352Y-104909936D01*
X232217850Y-104739850D02*
X232750542Y-105817201D01*
X231884517Y-105317201D02*
X233083876Y-105239850D01*
X231768430Y-106184936D02*
X232345781Y-106518269D01*
X231557563Y-105788263D02*
X232295201Y-105939209D01*
X231985677Y-106475320D01*
X231821971Y-107425534D02*
X232107685Y-106930662D01*
X231964828Y-107178098D02*
X231098803Y-106678098D01*
X231270140Y-106667048D01*
X231400237Y-106632188D01*
X231489096Y-106573519D01*
%TO.C,MX10*%
X48593154Y-28709880D02*
X48593154Y-27709880D01*
X48259821Y-28424166D01*
X47926488Y-27709880D01*
X47926488Y-28709880D01*
X47545535Y-27709880D02*
X46878869Y-28709880D01*
X46878869Y-27709880D02*
X47545535Y-28709880D01*
X45974107Y-28709880D02*
X46545535Y-28709880D01*
X46259821Y-28709880D02*
X46259821Y-27709880D01*
X46355059Y-27852738D01*
X46450297Y-27947976D01*
X46545535Y-27995595D01*
X45355059Y-27709880D02*
X45259821Y-27709880D01*
X45164583Y-27757500D01*
X45116964Y-27805119D01*
X45069345Y-27900357D01*
X45021726Y-28090833D01*
X45021726Y-28328928D01*
X45069345Y-28519404D01*
X45116964Y-28614642D01*
X45164583Y-28662261D01*
X45259821Y-28709880D01*
X45355059Y-28709880D01*
X45450297Y-28662261D01*
X45497916Y-28614642D01*
X45545535Y-28519404D01*
X45593154Y-28328928D01*
X45593154Y-28090833D01*
X45545535Y-27900357D01*
X45497916Y-27805119D01*
X45450297Y-27757500D01*
X45355059Y-27709880D01*
%TO.C,MX15*%
X146224404Y-47759880D02*
X146224404Y-46759880D01*
X145891071Y-47474166D01*
X145557738Y-46759880D01*
X145557738Y-47759880D01*
X145176785Y-46759880D02*
X144510119Y-47759880D01*
X144510119Y-46759880D02*
X145176785Y-47759880D01*
X143605357Y-47759880D02*
X144176785Y-47759880D01*
X143891071Y-47759880D02*
X143891071Y-46759880D01*
X143986309Y-46902738D01*
X144081547Y-46997976D01*
X144176785Y-47045595D01*
X142700595Y-46759880D02*
X143176785Y-46759880D01*
X143224404Y-47236071D01*
X143176785Y-47188452D01*
X143081547Y-47140833D01*
X142843452Y-47140833D01*
X142748214Y-47188452D01*
X142700595Y-47236071D01*
X142652976Y-47331309D01*
X142652976Y-47569404D01*
X142700595Y-47664642D01*
X142748214Y-47712261D01*
X142843452Y-47759880D01*
X143081547Y-47759880D01*
X143176785Y-47712261D01*
X143224404Y-47664642D01*
%TO.C,MX44*%
X175586904Y-101449130D02*
X175586904Y-100449130D01*
X175253571Y-101163416D01*
X174920238Y-100449130D01*
X174920238Y-101449130D01*
X174539285Y-100449130D02*
X173872619Y-101449130D01*
X173872619Y-100449130D02*
X174539285Y-101449130D01*
X173063095Y-100782464D02*
X173063095Y-101449130D01*
X173301190Y-100401511D02*
X173539285Y-101115797D01*
X172920238Y-101115797D01*
X172110714Y-100782464D02*
X172110714Y-101449130D01*
X172348809Y-100401511D02*
X172586904Y-101115797D01*
X171967857Y-101115797D01*
%TO.C,MX43*%
X194636904Y-101449130D02*
X194636904Y-100449130D01*
X194303571Y-101163416D01*
X193970238Y-100449130D01*
X193970238Y-101449130D01*
X193589285Y-100449130D02*
X192922619Y-101449130D01*
X192922619Y-100449130D02*
X193589285Y-101449130D01*
X192113095Y-100782464D02*
X192113095Y-101449130D01*
X192351190Y-100401511D02*
X192589285Y-101115797D01*
X191970238Y-101115797D01*
X191684523Y-100449130D02*
X191065476Y-100449130D01*
X191398809Y-100830083D01*
X191255952Y-100830083D01*
X191160714Y-100877702D01*
X191113095Y-100925321D01*
X191065476Y-101020559D01*
X191065476Y-101258654D01*
X191113095Y-101353892D01*
X191160714Y-101401511D01*
X191255952Y-101449130D01*
X191541666Y-101449130D01*
X191636904Y-101401511D01*
X191684523Y-101353892D01*
%TO.C,MX42*%
X213686904Y-104116130D02*
X213686904Y-103116130D01*
X213353571Y-103830416D01*
X213020238Y-103116130D01*
X213020238Y-104116130D01*
X212639285Y-103116130D02*
X211972619Y-104116130D01*
X211972619Y-103116130D02*
X212639285Y-104116130D01*
X211163095Y-103449464D02*
X211163095Y-104116130D01*
X211401190Y-103068511D02*
X211639285Y-103782797D01*
X211020238Y-103782797D01*
X210686904Y-103211369D02*
X210639285Y-103163750D01*
X210544047Y-103116130D01*
X210305952Y-103116130D01*
X210210714Y-103163750D01*
X210163095Y-103211369D01*
X210115476Y-103306607D01*
X210115476Y-103401845D01*
X210163095Y-103544702D01*
X210734523Y-104116130D01*
X210115476Y-104116130D01*
%TO.C,MX40*%
X48593154Y-85859880D02*
X48593154Y-84859880D01*
X48259821Y-85574166D01*
X47926488Y-84859880D01*
X47926488Y-85859880D01*
X47545535Y-84859880D02*
X46878869Y-85859880D01*
X46878869Y-84859880D02*
X47545535Y-85859880D01*
X46069345Y-85193214D02*
X46069345Y-85859880D01*
X46307440Y-84812261D02*
X46545535Y-85526547D01*
X45926488Y-85526547D01*
X45355059Y-84859880D02*
X45259821Y-84859880D01*
X45164583Y-84907500D01*
X45116964Y-84955119D01*
X45069345Y-85050357D01*
X45021726Y-85240833D01*
X45021726Y-85478928D01*
X45069345Y-85669404D01*
X45116964Y-85764642D01*
X45164583Y-85812261D01*
X45259821Y-85859880D01*
X45355059Y-85859880D01*
X45450297Y-85812261D01*
X45497916Y-85764642D01*
X45545535Y-85669404D01*
X45593154Y-85478928D01*
X45593154Y-85240833D01*
X45545535Y-85050357D01*
X45497916Y-84955119D01*
X45450297Y-84907500D01*
X45355059Y-84859880D01*
%TO.C,MX39*%
X67643154Y-85859880D02*
X67643154Y-84859880D01*
X67309821Y-85574166D01*
X66976488Y-84859880D01*
X66976488Y-85859880D01*
X66595535Y-84859880D02*
X65928869Y-85859880D01*
X65928869Y-84859880D02*
X66595535Y-85859880D01*
X65643154Y-84859880D02*
X65024107Y-84859880D01*
X65357440Y-85240833D01*
X65214583Y-85240833D01*
X65119345Y-85288452D01*
X65071726Y-85336071D01*
X65024107Y-85431309D01*
X65024107Y-85669404D01*
X65071726Y-85764642D01*
X65119345Y-85812261D01*
X65214583Y-85859880D01*
X65500297Y-85859880D01*
X65595535Y-85812261D01*
X65643154Y-85764642D01*
X64547916Y-85859880D02*
X64357440Y-85859880D01*
X64262202Y-85812261D01*
X64214583Y-85764642D01*
X64119345Y-85621785D01*
X64071726Y-85431309D01*
X64071726Y-85050357D01*
X64119345Y-84955119D01*
X64166964Y-84907500D01*
X64262202Y-84859880D01*
X64452678Y-84859880D01*
X64547916Y-84907500D01*
X64595535Y-84955119D01*
X64643154Y-85050357D01*
X64643154Y-85288452D01*
X64595535Y-85383690D01*
X64547916Y-85431309D01*
X64452678Y-85478928D01*
X64262202Y-85478928D01*
X64166964Y-85431309D01*
X64119345Y-85383690D01*
X64071726Y-85288452D01*
%TO.C,MX38*%
X86693154Y-85859880D02*
X86693154Y-84859880D01*
X86359821Y-85574166D01*
X86026488Y-84859880D01*
X86026488Y-85859880D01*
X85645535Y-84859880D02*
X84978869Y-85859880D01*
X84978869Y-84859880D02*
X85645535Y-85859880D01*
X84693154Y-84859880D02*
X84074107Y-84859880D01*
X84407440Y-85240833D01*
X84264583Y-85240833D01*
X84169345Y-85288452D01*
X84121726Y-85336071D01*
X84074107Y-85431309D01*
X84074107Y-85669404D01*
X84121726Y-85764642D01*
X84169345Y-85812261D01*
X84264583Y-85859880D01*
X84550297Y-85859880D01*
X84645535Y-85812261D01*
X84693154Y-85764642D01*
X83502678Y-85288452D02*
X83597916Y-85240833D01*
X83645535Y-85193214D01*
X83693154Y-85097976D01*
X83693154Y-85050357D01*
X83645535Y-84955119D01*
X83597916Y-84907500D01*
X83502678Y-84859880D01*
X83312202Y-84859880D01*
X83216964Y-84907500D01*
X83169345Y-84955119D01*
X83121726Y-85050357D01*
X83121726Y-85097976D01*
X83169345Y-85193214D01*
X83216964Y-85240833D01*
X83312202Y-85288452D01*
X83502678Y-85288452D01*
X83597916Y-85336071D01*
X83645535Y-85383690D01*
X83693154Y-85478928D01*
X83693154Y-85669404D01*
X83645535Y-85764642D01*
X83597916Y-85812261D01*
X83502678Y-85859880D01*
X83312202Y-85859880D01*
X83216964Y-85812261D01*
X83169345Y-85764642D01*
X83121726Y-85669404D01*
X83121726Y-85478928D01*
X83169345Y-85383690D01*
X83216964Y-85336071D01*
X83312202Y-85288452D01*
%TO.C,MX37*%
X105743154Y-85859880D02*
X105743154Y-84859880D01*
X105409821Y-85574166D01*
X105076488Y-84859880D01*
X105076488Y-85859880D01*
X104695535Y-84859880D02*
X104028869Y-85859880D01*
X104028869Y-84859880D02*
X104695535Y-85859880D01*
X103743154Y-84859880D02*
X103124107Y-84859880D01*
X103457440Y-85240833D01*
X103314583Y-85240833D01*
X103219345Y-85288452D01*
X103171726Y-85336071D01*
X103124107Y-85431309D01*
X103124107Y-85669404D01*
X103171726Y-85764642D01*
X103219345Y-85812261D01*
X103314583Y-85859880D01*
X103600297Y-85859880D01*
X103695535Y-85812261D01*
X103743154Y-85764642D01*
X102790773Y-84859880D02*
X102124107Y-84859880D01*
X102552678Y-85859880D01*
%TO.C,MX36*%
X127174404Y-85859880D02*
X127174404Y-84859880D01*
X126841071Y-85574166D01*
X126507738Y-84859880D01*
X126507738Y-85859880D01*
X126126785Y-84859880D02*
X125460119Y-85859880D01*
X125460119Y-84859880D02*
X126126785Y-85859880D01*
X125174404Y-84859880D02*
X124555357Y-84859880D01*
X124888690Y-85240833D01*
X124745833Y-85240833D01*
X124650595Y-85288452D01*
X124602976Y-85336071D01*
X124555357Y-85431309D01*
X124555357Y-85669404D01*
X124602976Y-85764642D01*
X124650595Y-85812261D01*
X124745833Y-85859880D01*
X125031547Y-85859880D01*
X125126785Y-85812261D01*
X125174404Y-85764642D01*
X123698214Y-84859880D02*
X123888690Y-84859880D01*
X123983928Y-84907500D01*
X124031547Y-84955119D01*
X124126785Y-85097976D01*
X124174404Y-85288452D01*
X124174404Y-85669404D01*
X124126785Y-85764642D01*
X124079166Y-85812261D01*
X123983928Y-85859880D01*
X123793452Y-85859880D01*
X123698214Y-85812261D01*
X123650595Y-85764642D01*
X123602976Y-85669404D01*
X123602976Y-85431309D01*
X123650595Y-85336071D01*
X123698214Y-85288452D01*
X123793452Y-85240833D01*
X123983928Y-85240833D01*
X124079166Y-85288452D01*
X124126785Y-85336071D01*
X124174404Y-85431309D01*
%TO.C,MX35*%
X146224404Y-85859880D02*
X146224404Y-84859880D01*
X145891071Y-85574166D01*
X145557738Y-84859880D01*
X145557738Y-85859880D01*
X145176785Y-84859880D02*
X144510119Y-85859880D01*
X144510119Y-84859880D02*
X145176785Y-85859880D01*
X144224404Y-84859880D02*
X143605357Y-84859880D01*
X143938690Y-85240833D01*
X143795833Y-85240833D01*
X143700595Y-85288452D01*
X143652976Y-85336071D01*
X143605357Y-85431309D01*
X143605357Y-85669404D01*
X143652976Y-85764642D01*
X143700595Y-85812261D01*
X143795833Y-85859880D01*
X144081547Y-85859880D01*
X144176785Y-85812261D01*
X144224404Y-85764642D01*
X142700595Y-84859880D02*
X143176785Y-84859880D01*
X143224404Y-85336071D01*
X143176785Y-85288452D01*
X143081547Y-85240833D01*
X142843452Y-85240833D01*
X142748214Y-85288452D01*
X142700595Y-85336071D01*
X142652976Y-85431309D01*
X142652976Y-85669404D01*
X142700595Y-85764642D01*
X142748214Y-85812261D01*
X142843452Y-85859880D01*
X143081547Y-85859880D01*
X143176785Y-85812261D01*
X143224404Y-85764642D01*
%TO.C,MX34*%
X165274404Y-79509880D02*
X165274404Y-78509880D01*
X164941071Y-79224166D01*
X164607738Y-78509880D01*
X164607738Y-79509880D01*
X164226785Y-78509880D02*
X163560119Y-79509880D01*
X163560119Y-78509880D02*
X164226785Y-79509880D01*
X163274404Y-78509880D02*
X162655357Y-78509880D01*
X162988690Y-78890833D01*
X162845833Y-78890833D01*
X162750595Y-78938452D01*
X162702976Y-78986071D01*
X162655357Y-79081309D01*
X162655357Y-79319404D01*
X162702976Y-79414642D01*
X162750595Y-79462261D01*
X162845833Y-79509880D01*
X163131547Y-79509880D01*
X163226785Y-79462261D01*
X163274404Y-79414642D01*
X161798214Y-78843214D02*
X161798214Y-79509880D01*
X162036309Y-78462261D02*
X162274404Y-79176547D01*
X161655357Y-79176547D01*
%TO.C,MX33*%
X184324404Y-77128630D02*
X184324404Y-76128630D01*
X183991071Y-76842916D01*
X183657738Y-76128630D01*
X183657738Y-77128630D01*
X183276785Y-76128630D02*
X182610119Y-77128630D01*
X182610119Y-76128630D02*
X183276785Y-77128630D01*
X182324404Y-76128630D02*
X181705357Y-76128630D01*
X182038690Y-76509583D01*
X181895833Y-76509583D01*
X181800595Y-76557202D01*
X181752976Y-76604821D01*
X181705357Y-76700059D01*
X181705357Y-76938154D01*
X181752976Y-77033392D01*
X181800595Y-77081011D01*
X181895833Y-77128630D01*
X182181547Y-77128630D01*
X182276785Y-77081011D01*
X182324404Y-77033392D01*
X181372023Y-76128630D02*
X180752976Y-76128630D01*
X181086309Y-76509583D01*
X180943452Y-76509583D01*
X180848214Y-76557202D01*
X180800595Y-76604821D01*
X180752976Y-76700059D01*
X180752976Y-76938154D01*
X180800595Y-77033392D01*
X180848214Y-77081011D01*
X180943452Y-77128630D01*
X181229166Y-77128630D01*
X181324404Y-77081011D01*
X181372023Y-77033392D01*
%TO.C,MX32*%
X203374404Y-79509880D02*
X203374404Y-78509880D01*
X203041071Y-79224166D01*
X202707738Y-78509880D01*
X202707738Y-79509880D01*
X202326785Y-78509880D02*
X201660119Y-79509880D01*
X201660119Y-78509880D02*
X202326785Y-79509880D01*
X201374404Y-78509880D02*
X200755357Y-78509880D01*
X201088690Y-78890833D01*
X200945833Y-78890833D01*
X200850595Y-78938452D01*
X200802976Y-78986071D01*
X200755357Y-79081309D01*
X200755357Y-79319404D01*
X200802976Y-79414642D01*
X200850595Y-79462261D01*
X200945833Y-79509880D01*
X201231547Y-79509880D01*
X201326785Y-79462261D01*
X201374404Y-79414642D01*
X200374404Y-78605119D02*
X200326785Y-78557500D01*
X200231547Y-78509880D01*
X199993452Y-78509880D01*
X199898214Y-78557500D01*
X199850595Y-78605119D01*
X199802976Y-78700357D01*
X199802976Y-78795595D01*
X199850595Y-78938452D01*
X200422023Y-79509880D01*
X199802976Y-79509880D01*
%TO.C,MX31*%
X222424404Y-81891130D02*
X222424404Y-80891130D01*
X222091071Y-81605416D01*
X221757738Y-80891130D01*
X221757738Y-81891130D01*
X221376785Y-80891130D02*
X220710119Y-81891130D01*
X220710119Y-80891130D02*
X221376785Y-81891130D01*
X220424404Y-80891130D02*
X219805357Y-80891130D01*
X220138690Y-81272083D01*
X219995833Y-81272083D01*
X219900595Y-81319702D01*
X219852976Y-81367321D01*
X219805357Y-81462559D01*
X219805357Y-81700654D01*
X219852976Y-81795892D01*
X219900595Y-81843511D01*
X219995833Y-81891130D01*
X220281547Y-81891130D01*
X220376785Y-81843511D01*
X220424404Y-81795892D01*
X218852976Y-81891130D02*
X219424404Y-81891130D01*
X219138690Y-81891130D02*
X219138690Y-80891130D01*
X219233928Y-81033988D01*
X219329166Y-81129226D01*
X219424404Y-81176845D01*
%TO.C,MX30*%
X48593154Y-66809880D02*
X48593154Y-65809880D01*
X48259821Y-66524166D01*
X47926488Y-65809880D01*
X47926488Y-66809880D01*
X47545535Y-65809880D02*
X46878869Y-66809880D01*
X46878869Y-65809880D02*
X47545535Y-66809880D01*
X46593154Y-65809880D02*
X45974107Y-65809880D01*
X46307440Y-66190833D01*
X46164583Y-66190833D01*
X46069345Y-66238452D01*
X46021726Y-66286071D01*
X45974107Y-66381309D01*
X45974107Y-66619404D01*
X46021726Y-66714642D01*
X46069345Y-66762261D01*
X46164583Y-66809880D01*
X46450297Y-66809880D01*
X46545535Y-66762261D01*
X46593154Y-66714642D01*
X45355059Y-65809880D02*
X45259821Y-65809880D01*
X45164583Y-65857500D01*
X45116964Y-65905119D01*
X45069345Y-66000357D01*
X45021726Y-66190833D01*
X45021726Y-66428928D01*
X45069345Y-66619404D01*
X45116964Y-66714642D01*
X45164583Y-66762261D01*
X45259821Y-66809880D01*
X45355059Y-66809880D01*
X45450297Y-66762261D01*
X45497916Y-66714642D01*
X45545535Y-66619404D01*
X45593154Y-66428928D01*
X45593154Y-66190833D01*
X45545535Y-66000357D01*
X45497916Y-65905119D01*
X45450297Y-65857500D01*
X45355059Y-65809880D01*
%TO.C,MX29*%
X67643154Y-66809880D02*
X67643154Y-65809880D01*
X67309821Y-66524166D01*
X66976488Y-65809880D01*
X66976488Y-66809880D01*
X66595535Y-65809880D02*
X65928869Y-66809880D01*
X65928869Y-65809880D02*
X66595535Y-66809880D01*
X65595535Y-65905119D02*
X65547916Y-65857500D01*
X65452678Y-65809880D01*
X65214583Y-65809880D01*
X65119345Y-65857500D01*
X65071726Y-65905119D01*
X65024107Y-66000357D01*
X65024107Y-66095595D01*
X65071726Y-66238452D01*
X65643154Y-66809880D01*
X65024107Y-66809880D01*
X64547916Y-66809880D02*
X64357440Y-66809880D01*
X64262202Y-66762261D01*
X64214583Y-66714642D01*
X64119345Y-66571785D01*
X64071726Y-66381309D01*
X64071726Y-66000357D01*
X64119345Y-65905119D01*
X64166964Y-65857500D01*
X64262202Y-65809880D01*
X64452678Y-65809880D01*
X64547916Y-65857500D01*
X64595535Y-65905119D01*
X64643154Y-66000357D01*
X64643154Y-66238452D01*
X64595535Y-66333690D01*
X64547916Y-66381309D01*
X64452678Y-66428928D01*
X64262202Y-66428928D01*
X64166964Y-66381309D01*
X64119345Y-66333690D01*
X64071726Y-66238452D01*
%TO.C,MX28*%
X86693154Y-66809880D02*
X86693154Y-65809880D01*
X86359821Y-66524166D01*
X86026488Y-65809880D01*
X86026488Y-66809880D01*
X85645535Y-65809880D02*
X84978869Y-66809880D01*
X84978869Y-65809880D02*
X85645535Y-66809880D01*
X84645535Y-65905119D02*
X84597916Y-65857500D01*
X84502678Y-65809880D01*
X84264583Y-65809880D01*
X84169345Y-65857500D01*
X84121726Y-65905119D01*
X84074107Y-66000357D01*
X84074107Y-66095595D01*
X84121726Y-66238452D01*
X84693154Y-66809880D01*
X84074107Y-66809880D01*
X83502678Y-66238452D02*
X83597916Y-66190833D01*
X83645535Y-66143214D01*
X83693154Y-66047976D01*
X83693154Y-66000357D01*
X83645535Y-65905119D01*
X83597916Y-65857500D01*
X83502678Y-65809880D01*
X83312202Y-65809880D01*
X83216964Y-65857500D01*
X83169345Y-65905119D01*
X83121726Y-66000357D01*
X83121726Y-66047976D01*
X83169345Y-66143214D01*
X83216964Y-66190833D01*
X83312202Y-66238452D01*
X83502678Y-66238452D01*
X83597916Y-66286071D01*
X83645535Y-66333690D01*
X83693154Y-66428928D01*
X83693154Y-66619404D01*
X83645535Y-66714642D01*
X83597916Y-66762261D01*
X83502678Y-66809880D01*
X83312202Y-66809880D01*
X83216964Y-66762261D01*
X83169345Y-66714642D01*
X83121726Y-66619404D01*
X83121726Y-66428928D01*
X83169345Y-66333690D01*
X83216964Y-66286071D01*
X83312202Y-66238452D01*
%TO.C,MX27*%
X105743154Y-66809880D02*
X105743154Y-65809880D01*
X105409821Y-66524166D01*
X105076488Y-65809880D01*
X105076488Y-66809880D01*
X104695535Y-65809880D02*
X104028869Y-66809880D01*
X104028869Y-65809880D02*
X104695535Y-66809880D01*
X103695535Y-65905119D02*
X103647916Y-65857500D01*
X103552678Y-65809880D01*
X103314583Y-65809880D01*
X103219345Y-65857500D01*
X103171726Y-65905119D01*
X103124107Y-66000357D01*
X103124107Y-66095595D01*
X103171726Y-66238452D01*
X103743154Y-66809880D01*
X103124107Y-66809880D01*
X102790773Y-65809880D02*
X102124107Y-65809880D01*
X102552678Y-66809880D01*
%TO.C,MX26*%
X127174404Y-66809880D02*
X127174404Y-65809880D01*
X126841071Y-66524166D01*
X126507738Y-65809880D01*
X126507738Y-66809880D01*
X126126785Y-65809880D02*
X125460119Y-66809880D01*
X125460119Y-65809880D02*
X126126785Y-66809880D01*
X125126785Y-65905119D02*
X125079166Y-65857500D01*
X124983928Y-65809880D01*
X124745833Y-65809880D01*
X124650595Y-65857500D01*
X124602976Y-65905119D01*
X124555357Y-66000357D01*
X124555357Y-66095595D01*
X124602976Y-66238452D01*
X125174404Y-66809880D01*
X124555357Y-66809880D01*
X123698214Y-65809880D02*
X123888690Y-65809880D01*
X123983928Y-65857500D01*
X124031547Y-65905119D01*
X124126785Y-66047976D01*
X124174404Y-66238452D01*
X124174404Y-66619404D01*
X124126785Y-66714642D01*
X124079166Y-66762261D01*
X123983928Y-66809880D01*
X123793452Y-66809880D01*
X123698214Y-66762261D01*
X123650595Y-66714642D01*
X123602976Y-66619404D01*
X123602976Y-66381309D01*
X123650595Y-66286071D01*
X123698214Y-66238452D01*
X123793452Y-66190833D01*
X123983928Y-66190833D01*
X124079166Y-66238452D01*
X124126785Y-66286071D01*
X124174404Y-66381309D01*
%TO.C,MX25*%
X146224404Y-66809880D02*
X146224404Y-65809880D01*
X145891071Y-66524166D01*
X145557738Y-65809880D01*
X145557738Y-66809880D01*
X145176785Y-65809880D02*
X144510119Y-66809880D01*
X144510119Y-65809880D02*
X145176785Y-66809880D01*
X144176785Y-65905119D02*
X144129166Y-65857500D01*
X144033928Y-65809880D01*
X143795833Y-65809880D01*
X143700595Y-65857500D01*
X143652976Y-65905119D01*
X143605357Y-66000357D01*
X143605357Y-66095595D01*
X143652976Y-66238452D01*
X144224404Y-66809880D01*
X143605357Y-66809880D01*
X142700595Y-65809880D02*
X143176785Y-65809880D01*
X143224404Y-66286071D01*
X143176785Y-66238452D01*
X143081547Y-66190833D01*
X142843452Y-66190833D01*
X142748214Y-66238452D01*
X142700595Y-66286071D01*
X142652976Y-66381309D01*
X142652976Y-66619404D01*
X142700595Y-66714642D01*
X142748214Y-66762261D01*
X142843452Y-66809880D01*
X143081547Y-66809880D01*
X143176785Y-66762261D01*
X143224404Y-66714642D01*
%TO.C,MX24*%
X165274404Y-60459880D02*
X165274404Y-59459880D01*
X164941071Y-60174166D01*
X164607738Y-59459880D01*
X164607738Y-60459880D01*
X164226785Y-59459880D02*
X163560119Y-60459880D01*
X163560119Y-59459880D02*
X164226785Y-60459880D01*
X163226785Y-59555119D02*
X163179166Y-59507500D01*
X163083928Y-59459880D01*
X162845833Y-59459880D01*
X162750595Y-59507500D01*
X162702976Y-59555119D01*
X162655357Y-59650357D01*
X162655357Y-59745595D01*
X162702976Y-59888452D01*
X163274404Y-60459880D01*
X162655357Y-60459880D01*
X161798214Y-59793214D02*
X161798214Y-60459880D01*
X162036309Y-59412261D02*
X162274404Y-60126547D01*
X161655357Y-60126547D01*
%TO.C,MX23*%
X184324404Y-58078630D02*
X184324404Y-57078630D01*
X183991071Y-57792916D01*
X183657738Y-57078630D01*
X183657738Y-58078630D01*
X183276785Y-57078630D02*
X182610119Y-58078630D01*
X182610119Y-57078630D02*
X183276785Y-58078630D01*
X182276785Y-57173869D02*
X182229166Y-57126250D01*
X182133928Y-57078630D01*
X181895833Y-57078630D01*
X181800595Y-57126250D01*
X181752976Y-57173869D01*
X181705357Y-57269107D01*
X181705357Y-57364345D01*
X181752976Y-57507202D01*
X182324404Y-58078630D01*
X181705357Y-58078630D01*
X181372023Y-57078630D02*
X180752976Y-57078630D01*
X181086309Y-57459583D01*
X180943452Y-57459583D01*
X180848214Y-57507202D01*
X180800595Y-57554821D01*
X180752976Y-57650059D01*
X180752976Y-57888154D01*
X180800595Y-57983392D01*
X180848214Y-58031011D01*
X180943452Y-58078630D01*
X181229166Y-58078630D01*
X181324404Y-58031011D01*
X181372023Y-57983392D01*
%TO.C,MX22*%
X203374404Y-60459880D02*
X203374404Y-59459880D01*
X203041071Y-60174166D01*
X202707738Y-59459880D01*
X202707738Y-60459880D01*
X202326785Y-59459880D02*
X201660119Y-60459880D01*
X201660119Y-59459880D02*
X202326785Y-60459880D01*
X201326785Y-59555119D02*
X201279166Y-59507500D01*
X201183928Y-59459880D01*
X200945833Y-59459880D01*
X200850595Y-59507500D01*
X200802976Y-59555119D01*
X200755357Y-59650357D01*
X200755357Y-59745595D01*
X200802976Y-59888452D01*
X201374404Y-60459880D01*
X200755357Y-60459880D01*
X200374404Y-59555119D02*
X200326785Y-59507500D01*
X200231547Y-59459880D01*
X199993452Y-59459880D01*
X199898214Y-59507500D01*
X199850595Y-59555119D01*
X199802976Y-59650357D01*
X199802976Y-59745595D01*
X199850595Y-59888452D01*
X200422023Y-60459880D01*
X199802976Y-60459880D01*
%TO.C,MX20*%
X48593154Y-47759880D02*
X48593154Y-46759880D01*
X48259821Y-47474166D01*
X47926488Y-46759880D01*
X47926488Y-47759880D01*
X47545535Y-46759880D02*
X46878869Y-47759880D01*
X46878869Y-46759880D02*
X47545535Y-47759880D01*
X46545535Y-46855119D02*
X46497916Y-46807500D01*
X46402678Y-46759880D01*
X46164583Y-46759880D01*
X46069345Y-46807500D01*
X46021726Y-46855119D01*
X45974107Y-46950357D01*
X45974107Y-47045595D01*
X46021726Y-47188452D01*
X46593154Y-47759880D01*
X45974107Y-47759880D01*
X45355059Y-46759880D02*
X45259821Y-46759880D01*
X45164583Y-46807500D01*
X45116964Y-46855119D01*
X45069345Y-46950357D01*
X45021726Y-47140833D01*
X45021726Y-47378928D01*
X45069345Y-47569404D01*
X45116964Y-47664642D01*
X45164583Y-47712261D01*
X45259821Y-47759880D01*
X45355059Y-47759880D01*
X45450297Y-47712261D01*
X45497916Y-47664642D01*
X45545535Y-47569404D01*
X45593154Y-47378928D01*
X45593154Y-47140833D01*
X45545535Y-46950357D01*
X45497916Y-46855119D01*
X45450297Y-46807500D01*
X45355059Y-46759880D01*
%TO.C,MX19*%
X67643154Y-47759880D02*
X67643154Y-46759880D01*
X67309821Y-47474166D01*
X66976488Y-46759880D01*
X66976488Y-47759880D01*
X66595535Y-46759880D02*
X65928869Y-47759880D01*
X65928869Y-46759880D02*
X66595535Y-47759880D01*
X65024107Y-47759880D02*
X65595535Y-47759880D01*
X65309821Y-47759880D02*
X65309821Y-46759880D01*
X65405059Y-46902738D01*
X65500297Y-46997976D01*
X65595535Y-47045595D01*
X64547916Y-47759880D02*
X64357440Y-47759880D01*
X64262202Y-47712261D01*
X64214583Y-47664642D01*
X64119345Y-47521785D01*
X64071726Y-47331309D01*
X64071726Y-46950357D01*
X64119345Y-46855119D01*
X64166964Y-46807500D01*
X64262202Y-46759880D01*
X64452678Y-46759880D01*
X64547916Y-46807500D01*
X64595535Y-46855119D01*
X64643154Y-46950357D01*
X64643154Y-47188452D01*
X64595535Y-47283690D01*
X64547916Y-47331309D01*
X64452678Y-47378928D01*
X64262202Y-47378928D01*
X64166964Y-47331309D01*
X64119345Y-47283690D01*
X64071726Y-47188452D01*
%TO.C,MX18*%
X86693154Y-47759880D02*
X86693154Y-46759880D01*
X86359821Y-47474166D01*
X86026488Y-46759880D01*
X86026488Y-47759880D01*
X85645535Y-46759880D02*
X84978869Y-47759880D01*
X84978869Y-46759880D02*
X85645535Y-47759880D01*
X84074107Y-47759880D02*
X84645535Y-47759880D01*
X84359821Y-47759880D02*
X84359821Y-46759880D01*
X84455059Y-46902738D01*
X84550297Y-46997976D01*
X84645535Y-47045595D01*
X83502678Y-47188452D02*
X83597916Y-47140833D01*
X83645535Y-47093214D01*
X83693154Y-46997976D01*
X83693154Y-46950357D01*
X83645535Y-46855119D01*
X83597916Y-46807500D01*
X83502678Y-46759880D01*
X83312202Y-46759880D01*
X83216964Y-46807500D01*
X83169345Y-46855119D01*
X83121726Y-46950357D01*
X83121726Y-46997976D01*
X83169345Y-47093214D01*
X83216964Y-47140833D01*
X83312202Y-47188452D01*
X83502678Y-47188452D01*
X83597916Y-47236071D01*
X83645535Y-47283690D01*
X83693154Y-47378928D01*
X83693154Y-47569404D01*
X83645535Y-47664642D01*
X83597916Y-47712261D01*
X83502678Y-47759880D01*
X83312202Y-47759880D01*
X83216964Y-47712261D01*
X83169345Y-47664642D01*
X83121726Y-47569404D01*
X83121726Y-47378928D01*
X83169345Y-47283690D01*
X83216964Y-47236071D01*
X83312202Y-47188452D01*
%TO.C,MX17*%
X105743154Y-47759880D02*
X105743154Y-46759880D01*
X105409821Y-47474166D01*
X105076488Y-46759880D01*
X105076488Y-47759880D01*
X104695535Y-46759880D02*
X104028869Y-47759880D01*
X104028869Y-46759880D02*
X104695535Y-47759880D01*
X103124107Y-47759880D02*
X103695535Y-47759880D01*
X103409821Y-47759880D02*
X103409821Y-46759880D01*
X103505059Y-46902738D01*
X103600297Y-46997976D01*
X103695535Y-47045595D01*
X102790773Y-46759880D02*
X102124107Y-46759880D01*
X102552678Y-47759880D01*
%TO.C,MX16*%
X127174404Y-47759880D02*
X127174404Y-46759880D01*
X126841071Y-47474166D01*
X126507738Y-46759880D01*
X126507738Y-47759880D01*
X126126785Y-46759880D02*
X125460119Y-47759880D01*
X125460119Y-46759880D02*
X126126785Y-47759880D01*
X124555357Y-47759880D02*
X125126785Y-47759880D01*
X124841071Y-47759880D02*
X124841071Y-46759880D01*
X124936309Y-46902738D01*
X125031547Y-46997976D01*
X125126785Y-47045595D01*
X123698214Y-46759880D02*
X123888690Y-46759880D01*
X123983928Y-46807500D01*
X124031547Y-46855119D01*
X124126785Y-46997976D01*
X124174404Y-47188452D01*
X124174404Y-47569404D01*
X124126785Y-47664642D01*
X124079166Y-47712261D01*
X123983928Y-47759880D01*
X123793452Y-47759880D01*
X123698214Y-47712261D01*
X123650595Y-47664642D01*
X123602976Y-47569404D01*
X123602976Y-47331309D01*
X123650595Y-47236071D01*
X123698214Y-47188452D01*
X123793452Y-47140833D01*
X123983928Y-47140833D01*
X124079166Y-47188452D01*
X124126785Y-47236071D01*
X124174404Y-47331309D01*
%TO.C,MX14*%
X165274404Y-41409880D02*
X165274404Y-40409880D01*
X164941071Y-41124166D01*
X164607738Y-40409880D01*
X164607738Y-41409880D01*
X164226785Y-40409880D02*
X163560119Y-41409880D01*
X163560119Y-40409880D02*
X164226785Y-41409880D01*
X162655357Y-41409880D02*
X163226785Y-41409880D01*
X162941071Y-41409880D02*
X162941071Y-40409880D01*
X163036309Y-40552738D01*
X163131547Y-40647976D01*
X163226785Y-40695595D01*
X161798214Y-40743214D02*
X161798214Y-41409880D01*
X162036309Y-40362261D02*
X162274404Y-41076547D01*
X161655357Y-41076547D01*
%TO.C,MX13*%
X184324404Y-39028630D02*
X184324404Y-38028630D01*
X183991071Y-38742916D01*
X183657738Y-38028630D01*
X183657738Y-39028630D01*
X183276785Y-38028630D02*
X182610119Y-39028630D01*
X182610119Y-38028630D02*
X183276785Y-39028630D01*
X181705357Y-39028630D02*
X182276785Y-39028630D01*
X181991071Y-39028630D02*
X181991071Y-38028630D01*
X182086309Y-38171488D01*
X182181547Y-38266726D01*
X182276785Y-38314345D01*
X181372023Y-38028630D02*
X180752976Y-38028630D01*
X181086309Y-38409583D01*
X180943452Y-38409583D01*
X180848214Y-38457202D01*
X180800595Y-38504821D01*
X180752976Y-38600059D01*
X180752976Y-38838154D01*
X180800595Y-38933392D01*
X180848214Y-38981011D01*
X180943452Y-39028630D01*
X181229166Y-39028630D01*
X181324404Y-38981011D01*
X181372023Y-38933392D01*
%TO.C,MX12*%
X203374404Y-41409880D02*
X203374404Y-40409880D01*
X203041071Y-41124166D01*
X202707738Y-40409880D01*
X202707738Y-41409880D01*
X202326785Y-40409880D02*
X201660119Y-41409880D01*
X201660119Y-40409880D02*
X202326785Y-41409880D01*
X200755357Y-41409880D02*
X201326785Y-41409880D01*
X201041071Y-41409880D02*
X201041071Y-40409880D01*
X201136309Y-40552738D01*
X201231547Y-40647976D01*
X201326785Y-40695595D01*
X200374404Y-40505119D02*
X200326785Y-40457500D01*
X200231547Y-40409880D01*
X199993452Y-40409880D01*
X199898214Y-40457500D01*
X199850595Y-40505119D01*
X199802976Y-40600357D01*
X199802976Y-40695595D01*
X199850595Y-40838452D01*
X200422023Y-41409880D01*
X199802976Y-41409880D01*
%TO.C,MX11*%
X222424404Y-43791130D02*
X222424404Y-42791130D01*
X222091071Y-43505416D01*
X221757738Y-42791130D01*
X221757738Y-43791130D01*
X221376785Y-42791130D02*
X220710119Y-43791130D01*
X220710119Y-42791130D02*
X221376785Y-43791130D01*
X219805357Y-43791130D02*
X220376785Y-43791130D01*
X220091071Y-43791130D02*
X220091071Y-42791130D01*
X220186309Y-42933988D01*
X220281547Y-43029226D01*
X220376785Y-43076845D01*
X218852976Y-43791130D02*
X219424404Y-43791130D01*
X219138690Y-43791130D02*
X219138690Y-42791130D01*
X219233928Y-42933988D01*
X219329166Y-43029226D01*
X219424404Y-43076845D01*
%TO.C,MX9*%
X67166964Y-28709880D02*
X67166964Y-27709880D01*
X66833630Y-28424166D01*
X66500297Y-27709880D01*
X66500297Y-28709880D01*
X66119345Y-27709880D02*
X65452678Y-28709880D01*
X65452678Y-27709880D02*
X66119345Y-28709880D01*
X65024107Y-28709880D02*
X64833630Y-28709880D01*
X64738392Y-28662261D01*
X64690773Y-28614642D01*
X64595535Y-28471785D01*
X64547916Y-28281309D01*
X64547916Y-27900357D01*
X64595535Y-27805119D01*
X64643154Y-27757500D01*
X64738392Y-27709880D01*
X64928869Y-27709880D01*
X65024107Y-27757500D01*
X65071726Y-27805119D01*
X65119345Y-27900357D01*
X65119345Y-28138452D01*
X65071726Y-28233690D01*
X65024107Y-28281309D01*
X64928869Y-28328928D01*
X64738392Y-28328928D01*
X64643154Y-28281309D01*
X64595535Y-28233690D01*
X64547916Y-28138452D01*
%TO.C,MX8*%
X86216964Y-28709880D02*
X86216964Y-27709880D01*
X85883630Y-28424166D01*
X85550297Y-27709880D01*
X85550297Y-28709880D01*
X85169345Y-27709880D02*
X84502678Y-28709880D01*
X84502678Y-27709880D02*
X85169345Y-28709880D01*
X83978869Y-28138452D02*
X84074107Y-28090833D01*
X84121726Y-28043214D01*
X84169345Y-27947976D01*
X84169345Y-27900357D01*
X84121726Y-27805119D01*
X84074107Y-27757500D01*
X83978869Y-27709880D01*
X83788392Y-27709880D01*
X83693154Y-27757500D01*
X83645535Y-27805119D01*
X83597916Y-27900357D01*
X83597916Y-27947976D01*
X83645535Y-28043214D01*
X83693154Y-28090833D01*
X83788392Y-28138452D01*
X83978869Y-28138452D01*
X84074107Y-28186071D01*
X84121726Y-28233690D01*
X84169345Y-28328928D01*
X84169345Y-28519404D01*
X84121726Y-28614642D01*
X84074107Y-28662261D01*
X83978869Y-28709880D01*
X83788392Y-28709880D01*
X83693154Y-28662261D01*
X83645535Y-28614642D01*
X83597916Y-28519404D01*
X83597916Y-28328928D01*
X83645535Y-28233690D01*
X83693154Y-28186071D01*
X83788392Y-28138452D01*
%TO.C,MX7*%
X105266964Y-28709880D02*
X105266964Y-27709880D01*
X104933630Y-28424166D01*
X104600297Y-27709880D01*
X104600297Y-28709880D01*
X104219345Y-27709880D02*
X103552678Y-28709880D01*
X103552678Y-27709880D02*
X104219345Y-28709880D01*
X103266964Y-27709880D02*
X102600297Y-27709880D01*
X103028869Y-28709880D01*
%TO.C,MX6*%
X126698214Y-28709880D02*
X126698214Y-27709880D01*
X126364880Y-28424166D01*
X126031547Y-27709880D01*
X126031547Y-28709880D01*
X125650595Y-27709880D02*
X124983928Y-28709880D01*
X124983928Y-27709880D02*
X125650595Y-28709880D01*
X124174404Y-27709880D02*
X124364880Y-27709880D01*
X124460119Y-27757500D01*
X124507738Y-27805119D01*
X124602976Y-27947976D01*
X124650595Y-28138452D01*
X124650595Y-28519404D01*
X124602976Y-28614642D01*
X124555357Y-28662261D01*
X124460119Y-28709880D01*
X124269642Y-28709880D01*
X124174404Y-28662261D01*
X124126785Y-28614642D01*
X124079166Y-28519404D01*
X124079166Y-28281309D01*
X124126785Y-28186071D01*
X124174404Y-28138452D01*
X124269642Y-28090833D01*
X124460119Y-28090833D01*
X124555357Y-28138452D01*
X124602976Y-28186071D01*
X124650595Y-28281309D01*
%TO.C,MX5*%
X145748214Y-28709880D02*
X145748214Y-27709880D01*
X145414880Y-28424166D01*
X145081547Y-27709880D01*
X145081547Y-28709880D01*
X144700595Y-27709880D02*
X144033928Y-28709880D01*
X144033928Y-27709880D02*
X144700595Y-28709880D01*
X143176785Y-27709880D02*
X143652976Y-27709880D01*
X143700595Y-28186071D01*
X143652976Y-28138452D01*
X143557738Y-28090833D01*
X143319642Y-28090833D01*
X143224404Y-28138452D01*
X143176785Y-28186071D01*
X143129166Y-28281309D01*
X143129166Y-28519404D01*
X143176785Y-28614642D01*
X143224404Y-28662261D01*
X143319642Y-28709880D01*
X143557738Y-28709880D01*
X143652976Y-28662261D01*
X143700595Y-28614642D01*
%TO.C,MX4*%
X164798214Y-22359880D02*
X164798214Y-21359880D01*
X164464880Y-22074166D01*
X164131547Y-21359880D01*
X164131547Y-22359880D01*
X163750595Y-21359880D02*
X163083928Y-22359880D01*
X163083928Y-21359880D02*
X163750595Y-22359880D01*
X162274404Y-21693214D02*
X162274404Y-22359880D01*
X162512500Y-21312261D02*
X162750595Y-22026547D01*
X162131547Y-22026547D01*
%TO.C,MX3*%
X183848214Y-19978630D02*
X183848214Y-18978630D01*
X183514880Y-19692916D01*
X183181547Y-18978630D01*
X183181547Y-19978630D01*
X182800595Y-18978630D02*
X182133928Y-19978630D01*
X182133928Y-18978630D02*
X182800595Y-19978630D01*
X181848214Y-18978630D02*
X181229166Y-18978630D01*
X181562500Y-19359583D01*
X181419642Y-19359583D01*
X181324404Y-19407202D01*
X181276785Y-19454821D01*
X181229166Y-19550059D01*
X181229166Y-19788154D01*
X181276785Y-19883392D01*
X181324404Y-19931011D01*
X181419642Y-19978630D01*
X181705357Y-19978630D01*
X181800595Y-19931011D01*
X181848214Y-19883392D01*
%TO.C,MX2*%
X202898214Y-22359880D02*
X202898214Y-21359880D01*
X202564880Y-22074166D01*
X202231547Y-21359880D01*
X202231547Y-22359880D01*
X201850595Y-21359880D02*
X201183928Y-22359880D01*
X201183928Y-21359880D02*
X201850595Y-22359880D01*
X200850595Y-21455119D02*
X200802976Y-21407500D01*
X200707738Y-21359880D01*
X200469642Y-21359880D01*
X200374404Y-21407500D01*
X200326785Y-21455119D01*
X200279166Y-21550357D01*
X200279166Y-21645595D01*
X200326785Y-21788452D01*
X200898214Y-22359880D01*
X200279166Y-22359880D01*
%TO.C,MX1*%
X221948214Y-24741130D02*
X221948214Y-23741130D01*
X221614880Y-24455416D01*
X221281547Y-23741130D01*
X221281547Y-24741130D01*
X220900595Y-23741130D02*
X220233928Y-24741130D01*
X220233928Y-23741130D02*
X220900595Y-24741130D01*
X219329166Y-24741130D02*
X219900595Y-24741130D01*
X219614880Y-24741130D02*
X219614880Y-23741130D01*
X219710119Y-23883988D01*
X219805357Y-23979226D01*
X219900595Y-24026845D01*
%TO.C,U1*%
X244430476Y-57211904D02*
X244430476Y-56411904D01*
X244240000Y-56411904D01*
X244125714Y-56450000D01*
X244049523Y-56526190D01*
X244011428Y-56602380D01*
X243973333Y-56754761D01*
X243973333Y-56869047D01*
X244011428Y-57021428D01*
X244049523Y-57097619D01*
X244125714Y-57173809D01*
X244240000Y-57211904D01*
X244430476Y-57211904D01*
X243249523Y-56411904D02*
X243630476Y-56411904D01*
X243668571Y-56792857D01*
X243630476Y-56754761D01*
X243554285Y-56716666D01*
X243363809Y-56716666D01*
X243287619Y-56754761D01*
X243249523Y-56792857D01*
X243211428Y-56869047D01*
X243211428Y-57059523D01*
X243249523Y-57135714D01*
X243287619Y-57173809D01*
X243363809Y-57211904D01*
X243554285Y-57211904D01*
X243630476Y-57173809D01*
X243668571Y-57135714D01*
X239026666Y-56792857D02*
X239293333Y-56792857D01*
X239293333Y-57211904D02*
X239293333Y-56411904D01*
X238912380Y-56411904D01*
X238188571Y-57211904D02*
X238645714Y-57211904D01*
X238417142Y-57211904D02*
X238417142Y-56411904D01*
X238493333Y-56526190D01*
X238569523Y-56602380D01*
X238645714Y-56640476D01*
X241433333Y-57135714D02*
X241471428Y-57173809D01*
X241585714Y-57211904D01*
X241661904Y-57211904D01*
X241776190Y-57173809D01*
X241852380Y-57097619D01*
X241890476Y-57021428D01*
X241928571Y-56869047D01*
X241928571Y-56754761D01*
X241890476Y-56602380D01*
X241852380Y-56526190D01*
X241776190Y-56450000D01*
X241661904Y-56411904D01*
X241585714Y-56411904D01*
X241471428Y-56450000D01*
X241433333Y-56488095D01*
X241166666Y-56411904D02*
X240633333Y-56411904D01*
X240976190Y-57211904D01*
X234664297Y-56985008D02*
X234758578Y-57032148D01*
X234805719Y-57032148D01*
X234876429Y-57008578D01*
X234947140Y-56937867D01*
X234970710Y-56867157D01*
X234970710Y-56820016D01*
X234947140Y-56749306D01*
X234758578Y-56560744D01*
X234263603Y-57055719D01*
X234428595Y-57220710D01*
X234499306Y-57244280D01*
X234546446Y-57244280D01*
X234617157Y-57220710D01*
X234664297Y-57173570D01*
X234687867Y-57102859D01*
X234687867Y-57055719D01*
X234664297Y-56985008D01*
X234499306Y-56820016D01*
X234970710Y-57762825D02*
X234876429Y-57668544D01*
X234852859Y-57597834D01*
X234852859Y-57550693D01*
X234876429Y-57432842D01*
X234947140Y-57314991D01*
X235135702Y-57126429D01*
X235206412Y-57102859D01*
X235253553Y-57102859D01*
X235324264Y-57126429D01*
X235418544Y-57220710D01*
X235442115Y-57291421D01*
X235442115Y-57338561D01*
X235418544Y-57409272D01*
X235300693Y-57527123D01*
X235229983Y-57550693D01*
X235182842Y-57550693D01*
X235112132Y-57527123D01*
X235017851Y-57432842D01*
X234994280Y-57362132D01*
X234994280Y-57314991D01*
X235017851Y-57244280D01*
X237033333Y-57000000D02*
X237266666Y-57000000D01*
X237266666Y-57366666D02*
X237266666Y-56666666D01*
X236933333Y-56666666D01*
X236533333Y-56666666D02*
X236466666Y-56666666D01*
X236400000Y-56700000D01*
X236366666Y-56733333D01*
X236333333Y-56800000D01*
X236300000Y-56933333D01*
X236300000Y-57100000D01*
X236333333Y-57233333D01*
X236366666Y-57300000D01*
X236400000Y-57333333D01*
X236466666Y-57366666D01*
X236533333Y-57366666D01*
X236600000Y-57333333D01*
X236633333Y-57300000D01*
X236666666Y-57233333D01*
X236700000Y-57100000D01*
X236700000Y-56933333D01*
X236666666Y-56800000D01*
X236633333Y-56733333D01*
X236600000Y-56700000D01*
X236533333Y-56666666D01*
X246083333Y-57000000D02*
X245983333Y-57033333D01*
X245950000Y-57066666D01*
X245916666Y-57133333D01*
X245916666Y-57233333D01*
X245950000Y-57300000D01*
X245983333Y-57333333D01*
X246050000Y-57366666D01*
X246316666Y-57366666D01*
X246316666Y-56666666D01*
X246083333Y-56666666D01*
X246016666Y-56700000D01*
X245983333Y-56733333D01*
X245950000Y-56800000D01*
X245950000Y-56866666D01*
X245983333Y-56933333D01*
X246016666Y-56966666D01*
X246083333Y-57000000D01*
X246316666Y-57000000D01*
X245683333Y-56666666D02*
X245216666Y-56666666D01*
X245516666Y-57366666D01*
X247062348Y-30041904D02*
X246605205Y-30041904D01*
X246833776Y-30841904D02*
X246833776Y-30041904D01*
X246414729Y-30041904D02*
X245881395Y-30841904D01*
X245881395Y-30041904D02*
X246414729Y-30841904D01*
X245424252Y-30041904D02*
X245348062Y-30041904D01*
X245271872Y-30080000D01*
X245233776Y-30118095D01*
X245195681Y-30194285D01*
X245157586Y-30346666D01*
X245157586Y-30537142D01*
X245195681Y-30689523D01*
X245233776Y-30765714D01*
X245271872Y-30803809D01*
X245348062Y-30841904D01*
X245424252Y-30841904D01*
X245500443Y-30803809D01*
X245538538Y-30765714D01*
X245576633Y-30689523D01*
X245614729Y-30537142D01*
X245614729Y-30346666D01*
X245576633Y-30194285D01*
X245538538Y-30118095D01*
X245500443Y-30080000D01*
X245424252Y-30041904D01*
X244243300Y-30003809D02*
X244929014Y-31032380D01*
X243976633Y-30841904D02*
X243976633Y-30041904D01*
X243786157Y-30041904D01*
X243671872Y-30080000D01*
X243595681Y-30156190D01*
X243557586Y-30232380D01*
X243519491Y-30384761D01*
X243519491Y-30499047D01*
X243557586Y-30651428D01*
X243595681Y-30727619D01*
X243671872Y-30803809D01*
X243786157Y-30841904D01*
X243976633Y-30841904D01*
X243252824Y-30041904D02*
X242757586Y-30041904D01*
X243024252Y-30346666D01*
X242909967Y-30346666D01*
X242833776Y-30384761D01*
X242795681Y-30422857D01*
X242757586Y-30499047D01*
X242757586Y-30689523D01*
X242795681Y-30765714D01*
X242833776Y-30803809D01*
X242909967Y-30841904D01*
X243138538Y-30841904D01*
X243214729Y-30803809D01*
X243252824Y-30765714D01*
X247351476Y-33381904D02*
X247351476Y-32581904D01*
X247161000Y-32581904D01*
X247046714Y-32620000D01*
X246970523Y-32696190D01*
X246932428Y-32772380D01*
X246894333Y-32924761D01*
X246894333Y-33039047D01*
X246932428Y-33191428D01*
X246970523Y-33267619D01*
X247046714Y-33343809D01*
X247161000Y-33381904D01*
X247351476Y-33381904D01*
X246589571Y-32658095D02*
X246551476Y-32620000D01*
X246475285Y-32581904D01*
X246284809Y-32581904D01*
X246208619Y-32620000D01*
X246170523Y-32658095D01*
X246132428Y-32734285D01*
X246132428Y-32810476D01*
X246170523Y-32924761D01*
X246627666Y-33381904D01*
X246132428Y-33381904D01*
X247351476Y-43541904D02*
X247351476Y-42741904D01*
X247161000Y-42741904D01*
X247046714Y-42780000D01*
X246970523Y-42856190D01*
X246932428Y-42932380D01*
X246894333Y-43084761D01*
X246894333Y-43199047D01*
X246932428Y-43351428D01*
X246970523Y-43427619D01*
X247046714Y-43503809D01*
X247161000Y-43541904D01*
X247351476Y-43541904D01*
X246399095Y-42741904D02*
X246322904Y-42741904D01*
X246246714Y-42780000D01*
X246208619Y-42818095D01*
X246170523Y-42894285D01*
X246132428Y-43046666D01*
X246132428Y-43237142D01*
X246170523Y-43389523D01*
X246208619Y-43465714D01*
X246246714Y-43503809D01*
X246322904Y-43541904D01*
X246399095Y-43541904D01*
X246475285Y-43503809D01*
X246513380Y-43465714D01*
X246551476Y-43389523D01*
X246589571Y-43237142D01*
X246589571Y-43046666D01*
X246551476Y-42894285D01*
X246513380Y-42818095D01*
X246475285Y-42780000D01*
X246399095Y-42741904D01*
X247351476Y-41001904D02*
X247351476Y-40201904D01*
X247161000Y-40201904D01*
X247046714Y-40240000D01*
X246970523Y-40316190D01*
X246932428Y-40392380D01*
X246894333Y-40544761D01*
X246894333Y-40659047D01*
X246932428Y-40811428D01*
X246970523Y-40887619D01*
X247046714Y-40963809D01*
X247161000Y-41001904D01*
X247351476Y-41001904D01*
X246132428Y-41001904D02*
X246589571Y-41001904D01*
X246361000Y-41001904D02*
X246361000Y-40201904D01*
X246437190Y-40316190D01*
X246513380Y-40392380D01*
X246589571Y-40430476D01*
X247370523Y-37700000D02*
X247446714Y-37661904D01*
X247561000Y-37661904D01*
X247675285Y-37700000D01*
X247751476Y-37776190D01*
X247789571Y-37852380D01*
X247827666Y-38004761D01*
X247827666Y-38119047D01*
X247789571Y-38271428D01*
X247751476Y-38347619D01*
X247675285Y-38423809D01*
X247561000Y-38461904D01*
X247484809Y-38461904D01*
X247370523Y-38423809D01*
X247332428Y-38385714D01*
X247332428Y-38119047D01*
X247484809Y-38119047D01*
X246989571Y-38461904D02*
X246989571Y-37661904D01*
X246532428Y-38461904D01*
X246532428Y-37661904D01*
X246151476Y-38461904D02*
X246151476Y-37661904D01*
X245961000Y-37661904D01*
X245846714Y-37700000D01*
X245770523Y-37776190D01*
X245732428Y-37852380D01*
X245694333Y-38004761D01*
X245694333Y-38119047D01*
X245732428Y-38271428D01*
X245770523Y-38347619D01*
X245846714Y-38423809D01*
X245961000Y-38461904D01*
X246151476Y-38461904D01*
X247370523Y-35160000D02*
X247446714Y-35121904D01*
X247561000Y-35121904D01*
X247675285Y-35160000D01*
X247751476Y-35236190D01*
X247789571Y-35312380D01*
X247827666Y-35464761D01*
X247827666Y-35579047D01*
X247789571Y-35731428D01*
X247751476Y-35807619D01*
X247675285Y-35883809D01*
X247561000Y-35921904D01*
X247484809Y-35921904D01*
X247370523Y-35883809D01*
X247332428Y-35845714D01*
X247332428Y-35579047D01*
X247484809Y-35579047D01*
X246989571Y-35921904D02*
X246989571Y-35121904D01*
X246532428Y-35921904D01*
X246532428Y-35121904D01*
X246151476Y-35921904D02*
X246151476Y-35121904D01*
X245961000Y-35121904D01*
X245846714Y-35160000D01*
X245770523Y-35236190D01*
X245732428Y-35312380D01*
X245694333Y-35464761D01*
X245694333Y-35579047D01*
X245732428Y-35731428D01*
X245770523Y-35807619D01*
X245846714Y-35883809D01*
X245961000Y-35921904D01*
X246151476Y-35921904D01*
X247351476Y-46081904D02*
X247351476Y-45281904D01*
X247161000Y-45281904D01*
X247046714Y-45320000D01*
X246970523Y-45396190D01*
X246932428Y-45472380D01*
X246894333Y-45624761D01*
X246894333Y-45739047D01*
X246932428Y-45891428D01*
X246970523Y-45967619D01*
X247046714Y-46043809D01*
X247161000Y-46081904D01*
X247351476Y-46081904D01*
X246208619Y-45548571D02*
X246208619Y-46081904D01*
X246399095Y-45243809D02*
X246589571Y-45815238D01*
X246094333Y-45815238D01*
X246894333Y-48545714D02*
X246932428Y-48583809D01*
X247046714Y-48621904D01*
X247122904Y-48621904D01*
X247237190Y-48583809D01*
X247313380Y-48507619D01*
X247351476Y-48431428D01*
X247389571Y-48279047D01*
X247389571Y-48164761D01*
X247351476Y-48012380D01*
X247313380Y-47936190D01*
X247237190Y-47860000D01*
X247122904Y-47821904D01*
X247046714Y-47821904D01*
X246932428Y-47860000D01*
X246894333Y-47898095D01*
X246208619Y-47821904D02*
X246361000Y-47821904D01*
X246437190Y-47860000D01*
X246475285Y-47898095D01*
X246551476Y-48012380D01*
X246589571Y-48164761D01*
X246589571Y-48469523D01*
X246551476Y-48545714D01*
X246513380Y-48583809D01*
X246437190Y-48621904D01*
X246284809Y-48621904D01*
X246208619Y-48583809D01*
X246170523Y-48545714D01*
X246132428Y-48469523D01*
X246132428Y-48279047D01*
X246170523Y-48202857D01*
X246208619Y-48164761D01*
X246284809Y-48126666D01*
X246437190Y-48126666D01*
X246513380Y-48164761D01*
X246551476Y-48202857D01*
X246589571Y-48279047D01*
X247351476Y-51161904D02*
X247351476Y-50361904D01*
X247161000Y-50361904D01*
X247046714Y-50400000D01*
X246970523Y-50476190D01*
X246932428Y-50552380D01*
X246894333Y-50704761D01*
X246894333Y-50819047D01*
X246932428Y-50971428D01*
X246970523Y-51047619D01*
X247046714Y-51123809D01*
X247161000Y-51161904D01*
X247351476Y-51161904D01*
X246627666Y-50361904D02*
X246094333Y-50361904D01*
X246437190Y-51161904D01*
X247313380Y-53282857D02*
X247046714Y-53282857D01*
X246932428Y-53701904D02*
X247313380Y-53701904D01*
X247313380Y-52901904D01*
X246932428Y-52901904D01*
X246246714Y-52901904D02*
X246399095Y-52901904D01*
X246475285Y-52940000D01*
X246513380Y-52978095D01*
X246589571Y-53092380D01*
X246627666Y-53244761D01*
X246627666Y-53549523D01*
X246589571Y-53625714D01*
X246551476Y-53663809D01*
X246475285Y-53701904D01*
X246322904Y-53701904D01*
X246246714Y-53663809D01*
X246208619Y-53625714D01*
X246170523Y-53549523D01*
X246170523Y-53359047D01*
X246208619Y-53282857D01*
X246246714Y-53244761D01*
X246322904Y-53206666D01*
X246475285Y-53206666D01*
X246551476Y-53244761D01*
X246589571Y-53282857D01*
X246627666Y-53359047D01*
X247084809Y-55822857D02*
X246970523Y-55860952D01*
X246932428Y-55899047D01*
X246894333Y-55975238D01*
X246894333Y-56089523D01*
X246932428Y-56165714D01*
X246970523Y-56203809D01*
X247046714Y-56241904D01*
X247351476Y-56241904D01*
X247351476Y-55441904D01*
X247084809Y-55441904D01*
X247008619Y-55480000D01*
X246970523Y-55518095D01*
X246932428Y-55594285D01*
X246932428Y-55670476D01*
X246970523Y-55746666D01*
X247008619Y-55784761D01*
X247084809Y-55822857D01*
X247351476Y-55822857D01*
X246208619Y-55708571D02*
X246208619Y-56241904D01*
X246399095Y-55403809D02*
X246589571Y-55975238D01*
X246094333Y-55975238D01*
X247864991Y-56914297D02*
X247817851Y-57008578D01*
X247817851Y-57055719D01*
X247841421Y-57126429D01*
X247912132Y-57197140D01*
X247982842Y-57220710D01*
X248029983Y-57220710D01*
X248100693Y-57197140D01*
X248289255Y-57008578D01*
X247794280Y-56513603D01*
X247629289Y-56678595D01*
X247605719Y-56749306D01*
X247605719Y-56796446D01*
X247629289Y-56867157D01*
X247676429Y-56914297D01*
X247747140Y-56937867D01*
X247794280Y-56937867D01*
X247864991Y-56914297D01*
X248029983Y-56749306D01*
X247063603Y-57244280D02*
X247299306Y-57008578D01*
X247558578Y-57220710D01*
X247511438Y-57220710D01*
X247440727Y-57244280D01*
X247322876Y-57362132D01*
X247299306Y-57432842D01*
X247299306Y-57479983D01*
X247322876Y-57550693D01*
X247440727Y-57668544D01*
X247511438Y-57692115D01*
X247558578Y-57692115D01*
X247629289Y-57668544D01*
X247747140Y-57550693D01*
X247770710Y-57479983D01*
X247770710Y-57432842D01*
X236162809Y-53282857D02*
X236048523Y-53320952D01*
X236010428Y-53359047D01*
X235972333Y-53435238D01*
X235972333Y-53549523D01*
X236010428Y-53625714D01*
X236048523Y-53663809D01*
X236124714Y-53701904D01*
X236429476Y-53701904D01*
X236429476Y-52901904D01*
X236162809Y-52901904D01*
X236086619Y-52940000D01*
X236048523Y-52978095D01*
X236010428Y-53054285D01*
X236010428Y-53130476D01*
X236048523Y-53206666D01*
X236086619Y-53244761D01*
X236162809Y-53282857D01*
X236429476Y-53282857D01*
X235705666Y-52901904D02*
X235210428Y-52901904D01*
X235477095Y-53206666D01*
X235362809Y-53206666D01*
X235286619Y-53244761D01*
X235248523Y-53282857D01*
X235210428Y-53359047D01*
X235210428Y-53549523D01*
X235248523Y-53625714D01*
X235286619Y-53663809D01*
X235362809Y-53701904D01*
X235591380Y-53701904D01*
X235667571Y-53663809D01*
X235705666Y-53625714D01*
X236162809Y-50742857D02*
X236048523Y-50780952D01*
X236010428Y-50819047D01*
X235972333Y-50895238D01*
X235972333Y-51009523D01*
X236010428Y-51085714D01*
X236048523Y-51123809D01*
X236124714Y-51161904D01*
X236429476Y-51161904D01*
X236429476Y-50361904D01*
X236162809Y-50361904D01*
X236086619Y-50400000D01*
X236048523Y-50438095D01*
X236010428Y-50514285D01*
X236010428Y-50590476D01*
X236048523Y-50666666D01*
X236086619Y-50704761D01*
X236162809Y-50742857D01*
X236429476Y-50742857D01*
X235210428Y-51161904D02*
X235667571Y-51161904D01*
X235439000Y-51161904D02*
X235439000Y-50361904D01*
X235515190Y-50476190D01*
X235591380Y-50552380D01*
X235667571Y-50590476D01*
X236105666Y-40582857D02*
X236372333Y-40582857D01*
X236372333Y-41001904D02*
X236372333Y-40201904D01*
X235991380Y-40201904D01*
X235343761Y-40468571D02*
X235343761Y-41001904D01*
X235534238Y-40163809D02*
X235724714Y-40735238D01*
X235229476Y-40735238D01*
X236905666Y-37661904D02*
X236639000Y-38461904D01*
X236372333Y-37661904D01*
X235648523Y-38385714D02*
X235686619Y-38423809D01*
X235800904Y-38461904D01*
X235877095Y-38461904D01*
X235991380Y-38423809D01*
X236067571Y-38347619D01*
X236105666Y-38271428D01*
X236143761Y-38119047D01*
X236143761Y-38004761D01*
X236105666Y-37852380D01*
X236067571Y-37776190D01*
X235991380Y-37700000D01*
X235877095Y-37661904D01*
X235800904Y-37661904D01*
X235686619Y-37700000D01*
X235648523Y-37738095D01*
X234848523Y-38385714D02*
X234886619Y-38423809D01*
X235000904Y-38461904D01*
X235077095Y-38461904D01*
X235191380Y-38423809D01*
X235267571Y-38347619D01*
X235305666Y-38271428D01*
X235343761Y-38119047D01*
X235343761Y-38004761D01*
X235305666Y-37852380D01*
X235267571Y-37776190D01*
X235191380Y-37700000D01*
X235077095Y-37661904D01*
X235000904Y-37661904D01*
X234886619Y-37700000D01*
X234848523Y-37738095D01*
X236100213Y-35853809D02*
X235985927Y-35891904D01*
X235795451Y-35891904D01*
X235719260Y-35853809D01*
X235681165Y-35815714D01*
X235643070Y-35739523D01*
X235643070Y-35663333D01*
X235681165Y-35587142D01*
X235719260Y-35549047D01*
X235795451Y-35510952D01*
X235947832Y-35472857D01*
X236024022Y-35434761D01*
X236062118Y-35396666D01*
X236100213Y-35320476D01*
X236100213Y-35244285D01*
X236062118Y-35168095D01*
X236024022Y-35130000D01*
X235947832Y-35091904D01*
X235757356Y-35091904D01*
X235643070Y-35130000D01*
X235414499Y-35091904D02*
X234957356Y-35091904D01*
X235185927Y-35891904D02*
X235185927Y-35091904D01*
X236448523Y-32620000D02*
X236524714Y-32581904D01*
X236639000Y-32581904D01*
X236753285Y-32620000D01*
X236829476Y-32696190D01*
X236867571Y-32772380D01*
X236905666Y-32924761D01*
X236905666Y-33039047D01*
X236867571Y-33191428D01*
X236829476Y-33267619D01*
X236753285Y-33343809D01*
X236639000Y-33381904D01*
X236562809Y-33381904D01*
X236448523Y-33343809D01*
X236410428Y-33305714D01*
X236410428Y-33039047D01*
X236562809Y-33039047D01*
X236067571Y-33381904D02*
X236067571Y-32581904D01*
X235610428Y-33381904D01*
X235610428Y-32581904D01*
X235229476Y-33381904D02*
X235229476Y-32581904D01*
X235039000Y-32581904D01*
X234924714Y-32620000D01*
X234848523Y-32696190D01*
X234810428Y-32772380D01*
X234772333Y-32924761D01*
X234772333Y-33039047D01*
X234810428Y-33191428D01*
X234848523Y-33267619D01*
X234924714Y-33343809D01*
X235039000Y-33381904D01*
X235229476Y-33381904D01*
X236162809Y-30422857D02*
X236048523Y-30460952D01*
X236010428Y-30499047D01*
X235972333Y-30575238D01*
X235972333Y-30689523D01*
X236010428Y-30765714D01*
X236048523Y-30803809D01*
X236124714Y-30841904D01*
X236429476Y-30841904D01*
X236429476Y-30041904D01*
X236162809Y-30041904D01*
X236086619Y-30080000D01*
X236048523Y-30118095D01*
X236010428Y-30194285D01*
X236010428Y-30270476D01*
X236048523Y-30346666D01*
X236086619Y-30384761D01*
X236162809Y-30422857D01*
X236429476Y-30422857D01*
X235477095Y-30041904D02*
X235400904Y-30041904D01*
X235324714Y-30080000D01*
X235286619Y-30118095D01*
X235248523Y-30194285D01*
X235210428Y-30346666D01*
X235210428Y-30537142D01*
X235248523Y-30689523D01*
X235286619Y-30765714D01*
X235324714Y-30803809D01*
X235400904Y-30841904D01*
X235477095Y-30841904D01*
X235553285Y-30803809D01*
X235591380Y-30765714D01*
X235629476Y-30689523D01*
X235667571Y-30537142D01*
X235667571Y-30346666D01*
X235629476Y-30194285D01*
X235591380Y-30118095D01*
X235553285Y-30080000D01*
X235477095Y-30041904D01*
X236105666Y-43122857D02*
X236372333Y-43122857D01*
X236372333Y-43541904D02*
X236372333Y-42741904D01*
X235991380Y-42741904D01*
X235305666Y-42741904D02*
X235686619Y-42741904D01*
X235724714Y-43122857D01*
X235686619Y-43084761D01*
X235610428Y-43046666D01*
X235419952Y-43046666D01*
X235343761Y-43084761D01*
X235305666Y-43122857D01*
X235267571Y-43199047D01*
X235267571Y-43389523D01*
X235305666Y-43465714D01*
X235343761Y-43503809D01*
X235419952Y-43541904D01*
X235610428Y-43541904D01*
X235686619Y-43503809D01*
X235724714Y-43465714D01*
X236105666Y-45662857D02*
X236372333Y-45662857D01*
X236372333Y-46081904D02*
X236372333Y-45281904D01*
X235991380Y-45281904D01*
X235343761Y-45281904D02*
X235496142Y-45281904D01*
X235572333Y-45320000D01*
X235610428Y-45358095D01*
X235686619Y-45472380D01*
X235724714Y-45624761D01*
X235724714Y-45929523D01*
X235686619Y-46005714D01*
X235648523Y-46043809D01*
X235572333Y-46081904D01*
X235419952Y-46081904D01*
X235343761Y-46043809D01*
X235305666Y-46005714D01*
X235267571Y-45929523D01*
X235267571Y-45739047D01*
X235305666Y-45662857D01*
X235343761Y-45624761D01*
X235419952Y-45586666D01*
X235572333Y-45586666D01*
X235648523Y-45624761D01*
X235686619Y-45662857D01*
X235724714Y-45739047D01*
X236105666Y-48202857D02*
X236372333Y-48202857D01*
X236372333Y-48621904D02*
X236372333Y-47821904D01*
X235991380Y-47821904D01*
X235762809Y-47821904D02*
X235229476Y-47821904D01*
X235572333Y-48621904D01*
X236162809Y-55822857D02*
X236048523Y-55860952D01*
X236010428Y-55899047D01*
X235972333Y-55975238D01*
X235972333Y-56089523D01*
X236010428Y-56165714D01*
X236048523Y-56203809D01*
X236124714Y-56241904D01*
X236429476Y-56241904D01*
X236429476Y-55441904D01*
X236162809Y-55441904D01*
X236086619Y-55480000D01*
X236048523Y-55518095D01*
X236010428Y-55594285D01*
X236010428Y-55670476D01*
X236048523Y-55746666D01*
X236086619Y-55784761D01*
X236162809Y-55822857D01*
X236429476Y-55822857D01*
X235667571Y-55518095D02*
X235629476Y-55480000D01*
X235553285Y-55441904D01*
X235362809Y-55441904D01*
X235286619Y-55480000D01*
X235248523Y-55518095D01*
X235210428Y-55594285D01*
X235210428Y-55670476D01*
X235248523Y-55784761D01*
X235705666Y-56241904D01*
X235210428Y-56241904D01*
%TO.C,D43*%
X200046404Y-108566071D02*
X199246404Y-108566071D01*
X199246404Y-108756547D01*
X199284500Y-108870833D01*
X199360690Y-108947023D01*
X199436880Y-108985119D01*
X199589261Y-109023214D01*
X199703547Y-109023214D01*
X199855928Y-108985119D01*
X199932119Y-108947023D01*
X200008309Y-108870833D01*
X200046404Y-108756547D01*
X200046404Y-108566071D01*
X199513071Y-109708928D02*
X200046404Y-109708928D01*
X199208309Y-109518452D02*
X199779738Y-109327976D01*
X199779738Y-109823214D01*
X199246404Y-110051785D02*
X199246404Y-110547023D01*
X199551166Y-110280357D01*
X199551166Y-110394642D01*
X199589261Y-110470833D01*
X199627357Y-110508928D01*
X199703547Y-110547023D01*
X199894023Y-110547023D01*
X199970214Y-110508928D01*
X200008309Y-110470833D01*
X200046404Y-110394642D01*
X200046404Y-110166071D01*
X200008309Y-110089880D01*
X199970214Y-110051785D01*
%TO.C,R2*%
X241291666Y-42188630D02*
X241625000Y-41712440D01*
X241863095Y-42188630D02*
X241863095Y-41188630D01*
X241482142Y-41188630D01*
X241386904Y-41236250D01*
X241339285Y-41283869D01*
X241291666Y-41379107D01*
X241291666Y-41521964D01*
X241339285Y-41617202D01*
X241386904Y-41664821D01*
X241482142Y-41712440D01*
X241863095Y-41712440D01*
X240910714Y-41283869D02*
X240863095Y-41236250D01*
X240767857Y-41188630D01*
X240529761Y-41188630D01*
X240434523Y-41236250D01*
X240386904Y-41283869D01*
X240339285Y-41379107D01*
X240339285Y-41474345D01*
X240386904Y-41617202D01*
X240958333Y-42188630D01*
X240339285Y-42188630D01*
%TO.C,R1*%
X241291666Y-36632380D02*
X241625000Y-36156190D01*
X241863095Y-36632380D02*
X241863095Y-35632380D01*
X241482142Y-35632380D01*
X241386904Y-35680000D01*
X241339285Y-35727619D01*
X241291666Y-35822857D01*
X241291666Y-35965714D01*
X241339285Y-36060952D01*
X241386904Y-36108571D01*
X241482142Y-36156190D01*
X241863095Y-36156190D01*
X240339285Y-36632380D02*
X240910714Y-36632380D01*
X240625000Y-36632380D02*
X240625000Y-35632380D01*
X240720238Y-35775238D01*
X240815476Y-35870476D01*
X240910714Y-35918095D01*
%TO.C,D45*%
X158413428Y-104259654D02*
X158413428Y-103459654D01*
X158222952Y-103459654D01*
X158108666Y-103497750D01*
X158032476Y-103573940D01*
X157994380Y-103650130D01*
X157956285Y-103802511D01*
X157956285Y-103916797D01*
X157994380Y-104069178D01*
X158032476Y-104145369D01*
X158108666Y-104221559D01*
X158222952Y-104259654D01*
X158413428Y-104259654D01*
X157270571Y-103726321D02*
X157270571Y-104259654D01*
X157461047Y-103421559D02*
X157651523Y-103992988D01*
X157156285Y-103992988D01*
X156470571Y-103459654D02*
X156851523Y-103459654D01*
X156889619Y-103840607D01*
X156851523Y-103802511D01*
X156775333Y-103764416D01*
X156584857Y-103764416D01*
X156508666Y-103802511D01*
X156470571Y-103840607D01*
X156432476Y-103916797D01*
X156432476Y-104107273D01*
X156470571Y-104183464D01*
X156508666Y-104221559D01*
X156584857Y-104259654D01*
X156775333Y-104259654D01*
X156851523Y-104221559D01*
X156889619Y-104183464D01*
%TO.C,D44*%
X180999404Y-108566071D02*
X180199404Y-108566071D01*
X180199404Y-108756547D01*
X180237500Y-108870833D01*
X180313690Y-108947023D01*
X180389880Y-108985119D01*
X180542261Y-109023214D01*
X180656547Y-109023214D01*
X180808928Y-108985119D01*
X180885119Y-108947023D01*
X180961309Y-108870833D01*
X180999404Y-108756547D01*
X180999404Y-108566071D01*
X180466071Y-109708928D02*
X180999404Y-109708928D01*
X180161309Y-109518452D02*
X180732738Y-109327976D01*
X180732738Y-109823214D01*
X180466071Y-110470833D02*
X180999404Y-110470833D01*
X180161309Y-110280357D02*
X180732738Y-110089880D01*
X180732738Y-110585119D01*
%TO.C,D42*%
X219090404Y-110947321D02*
X218290404Y-110947321D01*
X218290404Y-111137797D01*
X218328500Y-111252083D01*
X218404690Y-111328273D01*
X218480880Y-111366369D01*
X218633261Y-111404464D01*
X218747547Y-111404464D01*
X218899928Y-111366369D01*
X218976119Y-111328273D01*
X219052309Y-111252083D01*
X219090404Y-111137797D01*
X219090404Y-110947321D01*
X218557071Y-112090178D02*
X219090404Y-112090178D01*
X218252309Y-111899702D02*
X218823738Y-111709226D01*
X218823738Y-112204464D01*
X218366595Y-112471130D02*
X218328500Y-112509226D01*
X218290404Y-112585416D01*
X218290404Y-112775892D01*
X218328500Y-112852083D01*
X218366595Y-112890178D01*
X218442785Y-112928273D01*
X218518976Y-112928273D01*
X218633261Y-112890178D01*
X219090404Y-112433035D01*
X219090404Y-112928273D01*
%TO.C,D41*%
X243365829Y-104859982D02*
X243765829Y-104167161D01*
X243600872Y-104071923D01*
X243482850Y-104047772D01*
X243378772Y-104075659D01*
X243307685Y-104122595D01*
X243198503Y-104235513D01*
X243141360Y-104334487D01*
X243098161Y-104485500D01*
X243093057Y-104570531D01*
X243120945Y-104674609D01*
X243200872Y-104764743D01*
X243365829Y-104859982D01*
X242642752Y-103826673D02*
X242376086Y-104288553D01*
X242960090Y-103657979D02*
X242839333Y-104248089D01*
X242410445Y-104000470D01*
X241650274Y-103869505D02*
X242046171Y-104098077D01*
X241848223Y-103983791D02*
X242248223Y-103290971D01*
X242257063Y-103428040D01*
X242284950Y-103532118D01*
X242331885Y-103603205D01*
%TO.C,D40*%
X54042404Y-92691071D02*
X53242404Y-92691071D01*
X53242404Y-92881547D01*
X53280500Y-92995833D01*
X53356690Y-93072023D01*
X53432880Y-93110119D01*
X53585261Y-93148214D01*
X53699547Y-93148214D01*
X53851928Y-93110119D01*
X53928119Y-93072023D01*
X54004309Y-92995833D01*
X54042404Y-92881547D01*
X54042404Y-92691071D01*
X53509071Y-93833928D02*
X54042404Y-93833928D01*
X53204309Y-93643452D02*
X53775738Y-93452976D01*
X53775738Y-93948214D01*
X53242404Y-94405357D02*
X53242404Y-94481547D01*
X53280500Y-94557738D01*
X53318595Y-94595833D01*
X53394785Y-94633928D01*
X53547166Y-94672023D01*
X53737642Y-94672023D01*
X53890023Y-94633928D01*
X53966214Y-94595833D01*
X54004309Y-94557738D01*
X54042404Y-94481547D01*
X54042404Y-94405357D01*
X54004309Y-94329166D01*
X53966214Y-94291071D01*
X53890023Y-94252976D01*
X53737642Y-94214880D01*
X53547166Y-94214880D01*
X53394785Y-94252976D01*
X53318595Y-94291071D01*
X53280500Y-94329166D01*
X53242404Y-94405357D01*
%TO.C,D39*%
X73086404Y-92691071D02*
X72286404Y-92691071D01*
X72286404Y-92881547D01*
X72324500Y-92995833D01*
X72400690Y-93072023D01*
X72476880Y-93110119D01*
X72629261Y-93148214D01*
X72743547Y-93148214D01*
X72895928Y-93110119D01*
X72972119Y-93072023D01*
X73048309Y-92995833D01*
X73086404Y-92881547D01*
X73086404Y-92691071D01*
X72286404Y-93414880D02*
X72286404Y-93910119D01*
X72591166Y-93643452D01*
X72591166Y-93757738D01*
X72629261Y-93833928D01*
X72667357Y-93872023D01*
X72743547Y-93910119D01*
X72934023Y-93910119D01*
X73010214Y-93872023D01*
X73048309Y-93833928D01*
X73086404Y-93757738D01*
X73086404Y-93529166D01*
X73048309Y-93452976D01*
X73010214Y-93414880D01*
X73086404Y-94291071D02*
X73086404Y-94443452D01*
X73048309Y-94519642D01*
X73010214Y-94557738D01*
X72895928Y-94633928D01*
X72743547Y-94672023D01*
X72438785Y-94672023D01*
X72362595Y-94633928D01*
X72324500Y-94595833D01*
X72286404Y-94519642D01*
X72286404Y-94367261D01*
X72324500Y-94291071D01*
X72362595Y-94252976D01*
X72438785Y-94214880D01*
X72629261Y-94214880D01*
X72705452Y-94252976D01*
X72743547Y-94291071D01*
X72781642Y-94367261D01*
X72781642Y-94519642D01*
X72743547Y-94595833D01*
X72705452Y-94633928D01*
X72629261Y-94672023D01*
%TO.C,D38*%
X92130404Y-92678571D02*
X91330404Y-92678571D01*
X91330404Y-92869047D01*
X91368500Y-92983333D01*
X91444690Y-93059523D01*
X91520880Y-93097619D01*
X91673261Y-93135714D01*
X91787547Y-93135714D01*
X91939928Y-93097619D01*
X92016119Y-93059523D01*
X92092309Y-92983333D01*
X92130404Y-92869047D01*
X92130404Y-92678571D01*
X91330404Y-93402380D02*
X91330404Y-93897619D01*
X91635166Y-93630952D01*
X91635166Y-93745238D01*
X91673261Y-93821428D01*
X91711357Y-93859523D01*
X91787547Y-93897619D01*
X91978023Y-93897619D01*
X92054214Y-93859523D01*
X92092309Y-93821428D01*
X92130404Y-93745238D01*
X92130404Y-93516666D01*
X92092309Y-93440476D01*
X92054214Y-93402380D01*
X91673261Y-94354761D02*
X91635166Y-94278571D01*
X91597071Y-94240476D01*
X91520880Y-94202380D01*
X91482785Y-94202380D01*
X91406595Y-94240476D01*
X91368500Y-94278571D01*
X91330404Y-94354761D01*
X91330404Y-94507142D01*
X91368500Y-94583333D01*
X91406595Y-94621428D01*
X91482785Y-94659523D01*
X91520880Y-94659523D01*
X91597071Y-94621428D01*
X91635166Y-94583333D01*
X91673261Y-94507142D01*
X91673261Y-94354761D01*
X91711357Y-94278571D01*
X91749452Y-94240476D01*
X91825642Y-94202380D01*
X91978023Y-94202380D01*
X92054214Y-94240476D01*
X92092309Y-94278571D01*
X92130404Y-94354761D01*
X92130404Y-94507142D01*
X92092309Y-94583333D01*
X92054214Y-94621428D01*
X91978023Y-94659523D01*
X91825642Y-94659523D01*
X91749452Y-94621428D01*
X91711357Y-94583333D01*
X91673261Y-94507142D01*
%TO.C,D37*%
X111174404Y-92691071D02*
X110374404Y-92691071D01*
X110374404Y-92881547D01*
X110412500Y-92995833D01*
X110488690Y-93072023D01*
X110564880Y-93110119D01*
X110717261Y-93148214D01*
X110831547Y-93148214D01*
X110983928Y-93110119D01*
X111060119Y-93072023D01*
X111136309Y-92995833D01*
X111174404Y-92881547D01*
X111174404Y-92691071D01*
X110374404Y-93414880D02*
X110374404Y-93910119D01*
X110679166Y-93643452D01*
X110679166Y-93757738D01*
X110717261Y-93833928D01*
X110755357Y-93872023D01*
X110831547Y-93910119D01*
X111022023Y-93910119D01*
X111098214Y-93872023D01*
X111136309Y-93833928D01*
X111174404Y-93757738D01*
X111174404Y-93529166D01*
X111136309Y-93452976D01*
X111098214Y-93414880D01*
X110374404Y-94176785D02*
X110374404Y-94710119D01*
X111174404Y-94367261D01*
%TO.C,D36*%
X132598904Y-92691071D02*
X131798904Y-92691071D01*
X131798904Y-92881547D01*
X131837000Y-92995833D01*
X131913190Y-93072023D01*
X131989380Y-93110119D01*
X132141761Y-93148214D01*
X132256047Y-93148214D01*
X132408428Y-93110119D01*
X132484619Y-93072023D01*
X132560809Y-92995833D01*
X132598904Y-92881547D01*
X132598904Y-92691071D01*
X131798904Y-93414880D02*
X131798904Y-93910119D01*
X132103666Y-93643452D01*
X132103666Y-93757738D01*
X132141761Y-93833928D01*
X132179857Y-93872023D01*
X132256047Y-93910119D01*
X132446523Y-93910119D01*
X132522714Y-93872023D01*
X132560809Y-93833928D01*
X132598904Y-93757738D01*
X132598904Y-93529166D01*
X132560809Y-93452976D01*
X132522714Y-93414880D01*
X131798904Y-94595833D02*
X131798904Y-94443452D01*
X131837000Y-94367261D01*
X131875095Y-94329166D01*
X131989380Y-94252976D01*
X132141761Y-94214880D01*
X132446523Y-94214880D01*
X132522714Y-94252976D01*
X132560809Y-94291071D01*
X132598904Y-94367261D01*
X132598904Y-94519642D01*
X132560809Y-94595833D01*
X132522714Y-94633928D01*
X132446523Y-94672023D01*
X132256047Y-94672023D01*
X132179857Y-94633928D01*
X132141761Y-94595833D01*
X132103666Y-94519642D01*
X132103666Y-94367261D01*
X132141761Y-94291071D01*
X132179857Y-94252976D01*
X132256047Y-94214880D01*
%TO.C,D35*%
X151642904Y-92691071D02*
X150842904Y-92691071D01*
X150842904Y-92881547D01*
X150881000Y-92995833D01*
X150957190Y-93072023D01*
X151033380Y-93110119D01*
X151185761Y-93148214D01*
X151300047Y-93148214D01*
X151452428Y-93110119D01*
X151528619Y-93072023D01*
X151604809Y-92995833D01*
X151642904Y-92881547D01*
X151642904Y-92691071D01*
X150842904Y-93414880D02*
X150842904Y-93910119D01*
X151147666Y-93643452D01*
X151147666Y-93757738D01*
X151185761Y-93833928D01*
X151223857Y-93872023D01*
X151300047Y-93910119D01*
X151490523Y-93910119D01*
X151566714Y-93872023D01*
X151604809Y-93833928D01*
X151642904Y-93757738D01*
X151642904Y-93529166D01*
X151604809Y-93452976D01*
X151566714Y-93414880D01*
X150842904Y-94633928D02*
X150842904Y-94252976D01*
X151223857Y-94214880D01*
X151185761Y-94252976D01*
X151147666Y-94329166D01*
X151147666Y-94519642D01*
X151185761Y-94595833D01*
X151223857Y-94633928D01*
X151300047Y-94672023D01*
X151490523Y-94672023D01*
X151566714Y-94633928D01*
X151604809Y-94595833D01*
X151642904Y-94519642D01*
X151642904Y-94329166D01*
X151604809Y-94252976D01*
X151566714Y-94214880D01*
%TO.C,D34*%
X170686904Y-86341071D02*
X169886904Y-86341071D01*
X169886904Y-86531547D01*
X169925000Y-86645833D01*
X170001190Y-86722023D01*
X170077380Y-86760119D01*
X170229761Y-86798214D01*
X170344047Y-86798214D01*
X170496428Y-86760119D01*
X170572619Y-86722023D01*
X170648809Y-86645833D01*
X170686904Y-86531547D01*
X170686904Y-86341071D01*
X169886904Y-87064880D02*
X169886904Y-87560119D01*
X170191666Y-87293452D01*
X170191666Y-87407738D01*
X170229761Y-87483928D01*
X170267857Y-87522023D01*
X170344047Y-87560119D01*
X170534523Y-87560119D01*
X170610714Y-87522023D01*
X170648809Y-87483928D01*
X170686904Y-87407738D01*
X170686904Y-87179166D01*
X170648809Y-87102976D01*
X170610714Y-87064880D01*
X170153571Y-88245833D02*
X170686904Y-88245833D01*
X169848809Y-88055357D02*
X170420238Y-87864880D01*
X170420238Y-88360119D01*
%TO.C,D33*%
X189730904Y-83959821D02*
X188930904Y-83959821D01*
X188930904Y-84150297D01*
X188969000Y-84264583D01*
X189045190Y-84340773D01*
X189121380Y-84378869D01*
X189273761Y-84416964D01*
X189388047Y-84416964D01*
X189540428Y-84378869D01*
X189616619Y-84340773D01*
X189692809Y-84264583D01*
X189730904Y-84150297D01*
X189730904Y-83959821D01*
X188930904Y-84683630D02*
X188930904Y-85178869D01*
X189235666Y-84912202D01*
X189235666Y-85026488D01*
X189273761Y-85102678D01*
X189311857Y-85140773D01*
X189388047Y-85178869D01*
X189578523Y-85178869D01*
X189654714Y-85140773D01*
X189692809Y-85102678D01*
X189730904Y-85026488D01*
X189730904Y-84797916D01*
X189692809Y-84721726D01*
X189654714Y-84683630D01*
X188930904Y-85445535D02*
X188930904Y-85940773D01*
X189235666Y-85674107D01*
X189235666Y-85788392D01*
X189273761Y-85864583D01*
X189311857Y-85902678D01*
X189388047Y-85940773D01*
X189578523Y-85940773D01*
X189654714Y-85902678D01*
X189692809Y-85864583D01*
X189730904Y-85788392D01*
X189730904Y-85559821D01*
X189692809Y-85483630D01*
X189654714Y-85445535D01*
%TO.C,D32*%
X208774904Y-87134821D02*
X207974904Y-87134821D01*
X207974904Y-87325297D01*
X208013000Y-87439583D01*
X208089190Y-87515773D01*
X208165380Y-87553869D01*
X208317761Y-87591964D01*
X208432047Y-87591964D01*
X208584428Y-87553869D01*
X208660619Y-87515773D01*
X208736809Y-87439583D01*
X208774904Y-87325297D01*
X208774904Y-87134821D01*
X207974904Y-87858630D02*
X207974904Y-88353869D01*
X208279666Y-88087202D01*
X208279666Y-88201488D01*
X208317761Y-88277678D01*
X208355857Y-88315773D01*
X208432047Y-88353869D01*
X208622523Y-88353869D01*
X208698714Y-88315773D01*
X208736809Y-88277678D01*
X208774904Y-88201488D01*
X208774904Y-87972916D01*
X208736809Y-87896726D01*
X208698714Y-87858630D01*
X208051095Y-88658630D02*
X208013000Y-88696726D01*
X207974904Y-88772916D01*
X207974904Y-88963392D01*
X208013000Y-89039583D01*
X208051095Y-89077678D01*
X208127285Y-89115773D01*
X208203476Y-89115773D01*
X208317761Y-89077678D01*
X208774904Y-88620535D01*
X208774904Y-89115773D01*
%TO.C,D31*%
X227818904Y-88722321D02*
X227018904Y-88722321D01*
X227018904Y-88912797D01*
X227057000Y-89027083D01*
X227133190Y-89103273D01*
X227209380Y-89141369D01*
X227361761Y-89179464D01*
X227476047Y-89179464D01*
X227628428Y-89141369D01*
X227704619Y-89103273D01*
X227780809Y-89027083D01*
X227818904Y-88912797D01*
X227818904Y-88722321D01*
X227018904Y-89446130D02*
X227018904Y-89941369D01*
X227323666Y-89674702D01*
X227323666Y-89788988D01*
X227361761Y-89865178D01*
X227399857Y-89903273D01*
X227476047Y-89941369D01*
X227666523Y-89941369D01*
X227742714Y-89903273D01*
X227780809Y-89865178D01*
X227818904Y-89788988D01*
X227818904Y-89560416D01*
X227780809Y-89484226D01*
X227742714Y-89446130D01*
X227818904Y-90703273D02*
X227818904Y-90246130D01*
X227818904Y-90474702D02*
X227018904Y-90474702D01*
X227133190Y-90398511D01*
X227209380Y-90322321D01*
X227247476Y-90246130D01*
%TO.C,D30*%
X54042404Y-73641071D02*
X53242404Y-73641071D01*
X53242404Y-73831547D01*
X53280500Y-73945833D01*
X53356690Y-74022023D01*
X53432880Y-74060119D01*
X53585261Y-74098214D01*
X53699547Y-74098214D01*
X53851928Y-74060119D01*
X53928119Y-74022023D01*
X54004309Y-73945833D01*
X54042404Y-73831547D01*
X54042404Y-73641071D01*
X53242404Y-74364880D02*
X53242404Y-74860119D01*
X53547166Y-74593452D01*
X53547166Y-74707738D01*
X53585261Y-74783928D01*
X53623357Y-74822023D01*
X53699547Y-74860119D01*
X53890023Y-74860119D01*
X53966214Y-74822023D01*
X54004309Y-74783928D01*
X54042404Y-74707738D01*
X54042404Y-74479166D01*
X54004309Y-74402976D01*
X53966214Y-74364880D01*
X53242404Y-75355357D02*
X53242404Y-75431547D01*
X53280500Y-75507738D01*
X53318595Y-75545833D01*
X53394785Y-75583928D01*
X53547166Y-75622023D01*
X53737642Y-75622023D01*
X53890023Y-75583928D01*
X53966214Y-75545833D01*
X54004309Y-75507738D01*
X54042404Y-75431547D01*
X54042404Y-75355357D01*
X54004309Y-75279166D01*
X53966214Y-75241071D01*
X53890023Y-75202976D01*
X53737642Y-75164880D01*
X53547166Y-75164880D01*
X53394785Y-75202976D01*
X53318595Y-75241071D01*
X53280500Y-75279166D01*
X53242404Y-75355357D01*
%TO.C,D29*%
X73086404Y-73641071D02*
X72286404Y-73641071D01*
X72286404Y-73831547D01*
X72324500Y-73945833D01*
X72400690Y-74022023D01*
X72476880Y-74060119D01*
X72629261Y-74098214D01*
X72743547Y-74098214D01*
X72895928Y-74060119D01*
X72972119Y-74022023D01*
X73048309Y-73945833D01*
X73086404Y-73831547D01*
X73086404Y-73641071D01*
X72362595Y-74402976D02*
X72324500Y-74441071D01*
X72286404Y-74517261D01*
X72286404Y-74707738D01*
X72324500Y-74783928D01*
X72362595Y-74822023D01*
X72438785Y-74860119D01*
X72514976Y-74860119D01*
X72629261Y-74822023D01*
X73086404Y-74364880D01*
X73086404Y-74860119D01*
X73086404Y-75241071D02*
X73086404Y-75393452D01*
X73048309Y-75469642D01*
X73010214Y-75507738D01*
X72895928Y-75583928D01*
X72743547Y-75622023D01*
X72438785Y-75622023D01*
X72362595Y-75583928D01*
X72324500Y-75545833D01*
X72286404Y-75469642D01*
X72286404Y-75317261D01*
X72324500Y-75241071D01*
X72362595Y-75202976D01*
X72438785Y-75164880D01*
X72629261Y-75164880D01*
X72705452Y-75202976D01*
X72743547Y-75241071D01*
X72781642Y-75317261D01*
X72781642Y-75469642D01*
X72743547Y-75545833D01*
X72705452Y-75583928D01*
X72629261Y-75622023D01*
%TO.C,D28*%
X92130404Y-73641071D02*
X91330404Y-73641071D01*
X91330404Y-73831547D01*
X91368500Y-73945833D01*
X91444690Y-74022023D01*
X91520880Y-74060119D01*
X91673261Y-74098214D01*
X91787547Y-74098214D01*
X91939928Y-74060119D01*
X92016119Y-74022023D01*
X92092309Y-73945833D01*
X92130404Y-73831547D01*
X92130404Y-73641071D01*
X91406595Y-74402976D02*
X91368500Y-74441071D01*
X91330404Y-74517261D01*
X91330404Y-74707738D01*
X91368500Y-74783928D01*
X91406595Y-74822023D01*
X91482785Y-74860119D01*
X91558976Y-74860119D01*
X91673261Y-74822023D01*
X92130404Y-74364880D01*
X92130404Y-74860119D01*
X91673261Y-75317261D02*
X91635166Y-75241071D01*
X91597071Y-75202976D01*
X91520880Y-75164880D01*
X91482785Y-75164880D01*
X91406595Y-75202976D01*
X91368500Y-75241071D01*
X91330404Y-75317261D01*
X91330404Y-75469642D01*
X91368500Y-75545833D01*
X91406595Y-75583928D01*
X91482785Y-75622023D01*
X91520880Y-75622023D01*
X91597071Y-75583928D01*
X91635166Y-75545833D01*
X91673261Y-75469642D01*
X91673261Y-75317261D01*
X91711357Y-75241071D01*
X91749452Y-75202976D01*
X91825642Y-75164880D01*
X91978023Y-75164880D01*
X92054214Y-75202976D01*
X92092309Y-75241071D01*
X92130404Y-75317261D01*
X92130404Y-75469642D01*
X92092309Y-75545833D01*
X92054214Y-75583928D01*
X91978023Y-75622023D01*
X91825642Y-75622023D01*
X91749452Y-75583928D01*
X91711357Y-75545833D01*
X91673261Y-75469642D01*
%TO.C,D27*%
X111174404Y-73641071D02*
X110374404Y-73641071D01*
X110374404Y-73831547D01*
X110412500Y-73945833D01*
X110488690Y-74022023D01*
X110564880Y-74060119D01*
X110717261Y-74098214D01*
X110831547Y-74098214D01*
X110983928Y-74060119D01*
X111060119Y-74022023D01*
X111136309Y-73945833D01*
X111174404Y-73831547D01*
X111174404Y-73641071D01*
X110450595Y-74402976D02*
X110412500Y-74441071D01*
X110374404Y-74517261D01*
X110374404Y-74707738D01*
X110412500Y-74783928D01*
X110450595Y-74822023D01*
X110526785Y-74860119D01*
X110602976Y-74860119D01*
X110717261Y-74822023D01*
X111174404Y-74364880D01*
X111174404Y-74860119D01*
X110374404Y-75126785D02*
X110374404Y-75660119D01*
X111174404Y-75317261D01*
%TO.C,D26*%
X132598904Y-73641071D02*
X131798904Y-73641071D01*
X131798904Y-73831547D01*
X131837000Y-73945833D01*
X131913190Y-74022023D01*
X131989380Y-74060119D01*
X132141761Y-74098214D01*
X132256047Y-74098214D01*
X132408428Y-74060119D01*
X132484619Y-74022023D01*
X132560809Y-73945833D01*
X132598904Y-73831547D01*
X132598904Y-73641071D01*
X131875095Y-74402976D02*
X131837000Y-74441071D01*
X131798904Y-74517261D01*
X131798904Y-74707738D01*
X131837000Y-74783928D01*
X131875095Y-74822023D01*
X131951285Y-74860119D01*
X132027476Y-74860119D01*
X132141761Y-74822023D01*
X132598904Y-74364880D01*
X132598904Y-74860119D01*
X131798904Y-75545833D02*
X131798904Y-75393452D01*
X131837000Y-75317261D01*
X131875095Y-75279166D01*
X131989380Y-75202976D01*
X132141761Y-75164880D01*
X132446523Y-75164880D01*
X132522714Y-75202976D01*
X132560809Y-75241071D01*
X132598904Y-75317261D01*
X132598904Y-75469642D01*
X132560809Y-75545833D01*
X132522714Y-75583928D01*
X132446523Y-75622023D01*
X132256047Y-75622023D01*
X132179857Y-75583928D01*
X132141761Y-75545833D01*
X132103666Y-75469642D01*
X132103666Y-75317261D01*
X132141761Y-75241071D01*
X132179857Y-75202976D01*
X132256047Y-75164880D01*
%TO.C,D25*%
X151642904Y-73641071D02*
X150842904Y-73641071D01*
X150842904Y-73831547D01*
X150881000Y-73945833D01*
X150957190Y-74022023D01*
X151033380Y-74060119D01*
X151185761Y-74098214D01*
X151300047Y-74098214D01*
X151452428Y-74060119D01*
X151528619Y-74022023D01*
X151604809Y-73945833D01*
X151642904Y-73831547D01*
X151642904Y-73641071D01*
X150919095Y-74402976D02*
X150881000Y-74441071D01*
X150842904Y-74517261D01*
X150842904Y-74707738D01*
X150881000Y-74783928D01*
X150919095Y-74822023D01*
X150995285Y-74860119D01*
X151071476Y-74860119D01*
X151185761Y-74822023D01*
X151642904Y-74364880D01*
X151642904Y-74860119D01*
X150842904Y-75583928D02*
X150842904Y-75202976D01*
X151223857Y-75164880D01*
X151185761Y-75202976D01*
X151147666Y-75279166D01*
X151147666Y-75469642D01*
X151185761Y-75545833D01*
X151223857Y-75583928D01*
X151300047Y-75622023D01*
X151490523Y-75622023D01*
X151566714Y-75583928D01*
X151604809Y-75545833D01*
X151642904Y-75469642D01*
X151642904Y-75279166D01*
X151604809Y-75202976D01*
X151566714Y-75164880D01*
%TO.C,D24*%
X170686904Y-67291071D02*
X169886904Y-67291071D01*
X169886904Y-67481547D01*
X169925000Y-67595833D01*
X170001190Y-67672023D01*
X170077380Y-67710119D01*
X170229761Y-67748214D01*
X170344047Y-67748214D01*
X170496428Y-67710119D01*
X170572619Y-67672023D01*
X170648809Y-67595833D01*
X170686904Y-67481547D01*
X170686904Y-67291071D01*
X169963095Y-68052976D02*
X169925000Y-68091071D01*
X169886904Y-68167261D01*
X169886904Y-68357738D01*
X169925000Y-68433928D01*
X169963095Y-68472023D01*
X170039285Y-68510119D01*
X170115476Y-68510119D01*
X170229761Y-68472023D01*
X170686904Y-68014880D01*
X170686904Y-68510119D01*
X170153571Y-69195833D02*
X170686904Y-69195833D01*
X169848809Y-69005357D02*
X170420238Y-68814880D01*
X170420238Y-69310119D01*
%TO.C,D23*%
X189730904Y-64909821D02*
X188930904Y-64909821D01*
X188930904Y-65100297D01*
X188969000Y-65214583D01*
X189045190Y-65290773D01*
X189121380Y-65328869D01*
X189273761Y-65366964D01*
X189388047Y-65366964D01*
X189540428Y-65328869D01*
X189616619Y-65290773D01*
X189692809Y-65214583D01*
X189730904Y-65100297D01*
X189730904Y-64909821D01*
X189007095Y-65671726D02*
X188969000Y-65709821D01*
X188930904Y-65786011D01*
X188930904Y-65976488D01*
X188969000Y-66052678D01*
X189007095Y-66090773D01*
X189083285Y-66128869D01*
X189159476Y-66128869D01*
X189273761Y-66090773D01*
X189730904Y-65633630D01*
X189730904Y-66128869D01*
X188930904Y-66395535D02*
X188930904Y-66890773D01*
X189235666Y-66624107D01*
X189235666Y-66738392D01*
X189273761Y-66814583D01*
X189311857Y-66852678D01*
X189388047Y-66890773D01*
X189578523Y-66890773D01*
X189654714Y-66852678D01*
X189692809Y-66814583D01*
X189730904Y-66738392D01*
X189730904Y-66509821D01*
X189692809Y-66433630D01*
X189654714Y-66395535D01*
%TO.C,D22*%
X208774904Y-67291071D02*
X207974904Y-67291071D01*
X207974904Y-67481547D01*
X208013000Y-67595833D01*
X208089190Y-67672023D01*
X208165380Y-67710119D01*
X208317761Y-67748214D01*
X208432047Y-67748214D01*
X208584428Y-67710119D01*
X208660619Y-67672023D01*
X208736809Y-67595833D01*
X208774904Y-67481547D01*
X208774904Y-67291071D01*
X208051095Y-68052976D02*
X208013000Y-68091071D01*
X207974904Y-68167261D01*
X207974904Y-68357738D01*
X208013000Y-68433928D01*
X208051095Y-68472023D01*
X208127285Y-68510119D01*
X208203476Y-68510119D01*
X208317761Y-68472023D01*
X208774904Y-68014880D01*
X208774904Y-68510119D01*
X208051095Y-68814880D02*
X208013000Y-68852976D01*
X207974904Y-68929166D01*
X207974904Y-69119642D01*
X208013000Y-69195833D01*
X208051095Y-69233928D01*
X208127285Y-69272023D01*
X208203476Y-69272023D01*
X208317761Y-69233928D01*
X208774904Y-68776785D01*
X208774904Y-69272023D01*
%TO.C,D21*%
X227818904Y-69672321D02*
X227018904Y-69672321D01*
X227018904Y-69862797D01*
X227057000Y-69977083D01*
X227133190Y-70053273D01*
X227209380Y-70091369D01*
X227361761Y-70129464D01*
X227476047Y-70129464D01*
X227628428Y-70091369D01*
X227704619Y-70053273D01*
X227780809Y-69977083D01*
X227818904Y-69862797D01*
X227818904Y-69672321D01*
X227095095Y-70434226D02*
X227057000Y-70472321D01*
X227018904Y-70548511D01*
X227018904Y-70738988D01*
X227057000Y-70815178D01*
X227095095Y-70853273D01*
X227171285Y-70891369D01*
X227247476Y-70891369D01*
X227361761Y-70853273D01*
X227818904Y-70396130D01*
X227818904Y-70891369D01*
X227818904Y-71653273D02*
X227818904Y-71196130D01*
X227818904Y-71424702D02*
X227018904Y-71424702D01*
X227133190Y-71348511D01*
X227209380Y-71272321D01*
X227247476Y-71196130D01*
%TO.C,D20*%
X54042404Y-54591071D02*
X53242404Y-54591071D01*
X53242404Y-54781547D01*
X53280500Y-54895833D01*
X53356690Y-54972023D01*
X53432880Y-55010119D01*
X53585261Y-55048214D01*
X53699547Y-55048214D01*
X53851928Y-55010119D01*
X53928119Y-54972023D01*
X54004309Y-54895833D01*
X54042404Y-54781547D01*
X54042404Y-54591071D01*
X53318595Y-55352976D02*
X53280500Y-55391071D01*
X53242404Y-55467261D01*
X53242404Y-55657738D01*
X53280500Y-55733928D01*
X53318595Y-55772023D01*
X53394785Y-55810119D01*
X53470976Y-55810119D01*
X53585261Y-55772023D01*
X54042404Y-55314880D01*
X54042404Y-55810119D01*
X53242404Y-56305357D02*
X53242404Y-56381547D01*
X53280500Y-56457738D01*
X53318595Y-56495833D01*
X53394785Y-56533928D01*
X53547166Y-56572023D01*
X53737642Y-56572023D01*
X53890023Y-56533928D01*
X53966214Y-56495833D01*
X54004309Y-56457738D01*
X54042404Y-56381547D01*
X54042404Y-56305357D01*
X54004309Y-56229166D01*
X53966214Y-56191071D01*
X53890023Y-56152976D01*
X53737642Y-56114880D01*
X53547166Y-56114880D01*
X53394785Y-56152976D01*
X53318595Y-56191071D01*
X53280500Y-56229166D01*
X53242404Y-56305357D01*
%TO.C,D19*%
X73086404Y-54591071D02*
X72286404Y-54591071D01*
X72286404Y-54781547D01*
X72324500Y-54895833D01*
X72400690Y-54972023D01*
X72476880Y-55010119D01*
X72629261Y-55048214D01*
X72743547Y-55048214D01*
X72895928Y-55010119D01*
X72972119Y-54972023D01*
X73048309Y-54895833D01*
X73086404Y-54781547D01*
X73086404Y-54591071D01*
X73086404Y-55810119D02*
X73086404Y-55352976D01*
X73086404Y-55581547D02*
X72286404Y-55581547D01*
X72400690Y-55505357D01*
X72476880Y-55429166D01*
X72514976Y-55352976D01*
X73086404Y-56191071D02*
X73086404Y-56343452D01*
X73048309Y-56419642D01*
X73010214Y-56457738D01*
X72895928Y-56533928D01*
X72743547Y-56572023D01*
X72438785Y-56572023D01*
X72362595Y-56533928D01*
X72324500Y-56495833D01*
X72286404Y-56419642D01*
X72286404Y-56267261D01*
X72324500Y-56191071D01*
X72362595Y-56152976D01*
X72438785Y-56114880D01*
X72629261Y-56114880D01*
X72705452Y-56152976D01*
X72743547Y-56191071D01*
X72781642Y-56267261D01*
X72781642Y-56419642D01*
X72743547Y-56495833D01*
X72705452Y-56533928D01*
X72629261Y-56572023D01*
%TO.C,D18*%
X92130404Y-54591071D02*
X91330404Y-54591071D01*
X91330404Y-54781547D01*
X91368500Y-54895833D01*
X91444690Y-54972023D01*
X91520880Y-55010119D01*
X91673261Y-55048214D01*
X91787547Y-55048214D01*
X91939928Y-55010119D01*
X92016119Y-54972023D01*
X92092309Y-54895833D01*
X92130404Y-54781547D01*
X92130404Y-54591071D01*
X92130404Y-55810119D02*
X92130404Y-55352976D01*
X92130404Y-55581547D02*
X91330404Y-55581547D01*
X91444690Y-55505357D01*
X91520880Y-55429166D01*
X91558976Y-55352976D01*
X91673261Y-56267261D02*
X91635166Y-56191071D01*
X91597071Y-56152976D01*
X91520880Y-56114880D01*
X91482785Y-56114880D01*
X91406595Y-56152976D01*
X91368500Y-56191071D01*
X91330404Y-56267261D01*
X91330404Y-56419642D01*
X91368500Y-56495833D01*
X91406595Y-56533928D01*
X91482785Y-56572023D01*
X91520880Y-56572023D01*
X91597071Y-56533928D01*
X91635166Y-56495833D01*
X91673261Y-56419642D01*
X91673261Y-56267261D01*
X91711357Y-56191071D01*
X91749452Y-56152976D01*
X91825642Y-56114880D01*
X91978023Y-56114880D01*
X92054214Y-56152976D01*
X92092309Y-56191071D01*
X92130404Y-56267261D01*
X92130404Y-56419642D01*
X92092309Y-56495833D01*
X92054214Y-56533928D01*
X91978023Y-56572023D01*
X91825642Y-56572023D01*
X91749452Y-56533928D01*
X91711357Y-56495833D01*
X91673261Y-56419642D01*
%TO.C,D17*%
X111174404Y-54591071D02*
X110374404Y-54591071D01*
X110374404Y-54781547D01*
X110412500Y-54895833D01*
X110488690Y-54972023D01*
X110564880Y-55010119D01*
X110717261Y-55048214D01*
X110831547Y-55048214D01*
X110983928Y-55010119D01*
X111060119Y-54972023D01*
X111136309Y-54895833D01*
X111174404Y-54781547D01*
X111174404Y-54591071D01*
X111174404Y-55810119D02*
X111174404Y-55352976D01*
X111174404Y-55581547D02*
X110374404Y-55581547D01*
X110488690Y-55505357D01*
X110564880Y-55429166D01*
X110602976Y-55352976D01*
X110374404Y-56076785D02*
X110374404Y-56610119D01*
X111174404Y-56267261D01*
%TO.C,D16*%
X132598904Y-54591071D02*
X131798904Y-54591071D01*
X131798904Y-54781547D01*
X131837000Y-54895833D01*
X131913190Y-54972023D01*
X131989380Y-55010119D01*
X132141761Y-55048214D01*
X132256047Y-55048214D01*
X132408428Y-55010119D01*
X132484619Y-54972023D01*
X132560809Y-54895833D01*
X132598904Y-54781547D01*
X132598904Y-54591071D01*
X132598904Y-55810119D02*
X132598904Y-55352976D01*
X132598904Y-55581547D02*
X131798904Y-55581547D01*
X131913190Y-55505357D01*
X131989380Y-55429166D01*
X132027476Y-55352976D01*
X131798904Y-56495833D02*
X131798904Y-56343452D01*
X131837000Y-56267261D01*
X131875095Y-56229166D01*
X131989380Y-56152976D01*
X132141761Y-56114880D01*
X132446523Y-56114880D01*
X132522714Y-56152976D01*
X132560809Y-56191071D01*
X132598904Y-56267261D01*
X132598904Y-56419642D01*
X132560809Y-56495833D01*
X132522714Y-56533928D01*
X132446523Y-56572023D01*
X132256047Y-56572023D01*
X132179857Y-56533928D01*
X132141761Y-56495833D01*
X132103666Y-56419642D01*
X132103666Y-56267261D01*
X132141761Y-56191071D01*
X132179857Y-56152976D01*
X132256047Y-56114880D01*
%TO.C,D15*%
X151642904Y-54591071D02*
X150842904Y-54591071D01*
X150842904Y-54781547D01*
X150881000Y-54895833D01*
X150957190Y-54972023D01*
X151033380Y-55010119D01*
X151185761Y-55048214D01*
X151300047Y-55048214D01*
X151452428Y-55010119D01*
X151528619Y-54972023D01*
X151604809Y-54895833D01*
X151642904Y-54781547D01*
X151642904Y-54591071D01*
X151642904Y-55810119D02*
X151642904Y-55352976D01*
X151642904Y-55581547D02*
X150842904Y-55581547D01*
X150957190Y-55505357D01*
X151033380Y-55429166D01*
X151071476Y-55352976D01*
X150842904Y-56533928D02*
X150842904Y-56152976D01*
X151223857Y-56114880D01*
X151185761Y-56152976D01*
X151147666Y-56229166D01*
X151147666Y-56419642D01*
X151185761Y-56495833D01*
X151223857Y-56533928D01*
X151300047Y-56572023D01*
X151490523Y-56572023D01*
X151566714Y-56533928D01*
X151604809Y-56495833D01*
X151642904Y-56419642D01*
X151642904Y-56229166D01*
X151604809Y-56152976D01*
X151566714Y-56114880D01*
%TO.C,D14*%
X170686904Y-48241071D02*
X169886904Y-48241071D01*
X169886904Y-48431547D01*
X169925000Y-48545833D01*
X170001190Y-48622023D01*
X170077380Y-48660119D01*
X170229761Y-48698214D01*
X170344047Y-48698214D01*
X170496428Y-48660119D01*
X170572619Y-48622023D01*
X170648809Y-48545833D01*
X170686904Y-48431547D01*
X170686904Y-48241071D01*
X170686904Y-49460119D02*
X170686904Y-49002976D01*
X170686904Y-49231547D02*
X169886904Y-49231547D01*
X170001190Y-49155357D01*
X170077380Y-49079166D01*
X170115476Y-49002976D01*
X170153571Y-50145833D02*
X170686904Y-50145833D01*
X169848809Y-49955357D02*
X170420238Y-49764880D01*
X170420238Y-50260119D01*
%TO.C,D13*%
X189730904Y-45859821D02*
X188930904Y-45859821D01*
X188930904Y-46050297D01*
X188969000Y-46164583D01*
X189045190Y-46240773D01*
X189121380Y-46278869D01*
X189273761Y-46316964D01*
X189388047Y-46316964D01*
X189540428Y-46278869D01*
X189616619Y-46240773D01*
X189692809Y-46164583D01*
X189730904Y-46050297D01*
X189730904Y-45859821D01*
X189730904Y-47078869D02*
X189730904Y-46621726D01*
X189730904Y-46850297D02*
X188930904Y-46850297D01*
X189045190Y-46774107D01*
X189121380Y-46697916D01*
X189159476Y-46621726D01*
X188930904Y-47345535D02*
X188930904Y-47840773D01*
X189235666Y-47574107D01*
X189235666Y-47688392D01*
X189273761Y-47764583D01*
X189311857Y-47802678D01*
X189388047Y-47840773D01*
X189578523Y-47840773D01*
X189654714Y-47802678D01*
X189692809Y-47764583D01*
X189730904Y-47688392D01*
X189730904Y-47459821D01*
X189692809Y-47383630D01*
X189654714Y-47345535D01*
%TO.C,D12*%
X208774904Y-49034821D02*
X207974904Y-49034821D01*
X207974904Y-49225297D01*
X208013000Y-49339583D01*
X208089190Y-49415773D01*
X208165380Y-49453869D01*
X208317761Y-49491964D01*
X208432047Y-49491964D01*
X208584428Y-49453869D01*
X208660619Y-49415773D01*
X208736809Y-49339583D01*
X208774904Y-49225297D01*
X208774904Y-49034821D01*
X208774904Y-50253869D02*
X208774904Y-49796726D01*
X208774904Y-50025297D02*
X207974904Y-50025297D01*
X208089190Y-49949107D01*
X208165380Y-49872916D01*
X208203476Y-49796726D01*
X208051095Y-50558630D02*
X208013000Y-50596726D01*
X207974904Y-50672916D01*
X207974904Y-50863392D01*
X208013000Y-50939583D01*
X208051095Y-50977678D01*
X208127285Y-51015773D01*
X208203476Y-51015773D01*
X208317761Y-50977678D01*
X208774904Y-50520535D01*
X208774904Y-51015773D01*
%TO.C,D11*%
X227818904Y-50622321D02*
X227018904Y-50622321D01*
X227018904Y-50812797D01*
X227057000Y-50927083D01*
X227133190Y-51003273D01*
X227209380Y-51041369D01*
X227361761Y-51079464D01*
X227476047Y-51079464D01*
X227628428Y-51041369D01*
X227704619Y-51003273D01*
X227780809Y-50927083D01*
X227818904Y-50812797D01*
X227818904Y-50622321D01*
X227818904Y-51841369D02*
X227818904Y-51384226D01*
X227818904Y-51612797D02*
X227018904Y-51612797D01*
X227133190Y-51536607D01*
X227209380Y-51460416D01*
X227247476Y-51384226D01*
X227818904Y-52603273D02*
X227818904Y-52146130D01*
X227818904Y-52374702D02*
X227018904Y-52374702D01*
X227133190Y-52298511D01*
X227209380Y-52222321D01*
X227247476Y-52146130D01*
%TO.C,D10*%
X54042404Y-35541071D02*
X53242404Y-35541071D01*
X53242404Y-35731547D01*
X53280500Y-35845833D01*
X53356690Y-35922023D01*
X53432880Y-35960119D01*
X53585261Y-35998214D01*
X53699547Y-35998214D01*
X53851928Y-35960119D01*
X53928119Y-35922023D01*
X54004309Y-35845833D01*
X54042404Y-35731547D01*
X54042404Y-35541071D01*
X54042404Y-36760119D02*
X54042404Y-36302976D01*
X54042404Y-36531547D02*
X53242404Y-36531547D01*
X53356690Y-36455357D01*
X53432880Y-36379166D01*
X53470976Y-36302976D01*
X53242404Y-37255357D02*
X53242404Y-37331547D01*
X53280500Y-37407738D01*
X53318595Y-37445833D01*
X53394785Y-37483928D01*
X53547166Y-37522023D01*
X53737642Y-37522023D01*
X53890023Y-37483928D01*
X53966214Y-37445833D01*
X54004309Y-37407738D01*
X54042404Y-37331547D01*
X54042404Y-37255357D01*
X54004309Y-37179166D01*
X53966214Y-37141071D01*
X53890023Y-37102976D01*
X53737642Y-37064880D01*
X53547166Y-37064880D01*
X53394785Y-37102976D01*
X53318595Y-37141071D01*
X53280500Y-37179166D01*
X53242404Y-37255357D01*
%TO.C,D9*%
X73086404Y-35922023D02*
X72286404Y-35922023D01*
X72286404Y-36112500D01*
X72324500Y-36226785D01*
X72400690Y-36302976D01*
X72476880Y-36341071D01*
X72629261Y-36379166D01*
X72743547Y-36379166D01*
X72895928Y-36341071D01*
X72972119Y-36302976D01*
X73048309Y-36226785D01*
X73086404Y-36112500D01*
X73086404Y-35922023D01*
X73086404Y-36760119D02*
X73086404Y-36912500D01*
X73048309Y-36988690D01*
X73010214Y-37026785D01*
X72895928Y-37102976D01*
X72743547Y-37141071D01*
X72438785Y-37141071D01*
X72362595Y-37102976D01*
X72324500Y-37064880D01*
X72286404Y-36988690D01*
X72286404Y-36836309D01*
X72324500Y-36760119D01*
X72362595Y-36722023D01*
X72438785Y-36683928D01*
X72629261Y-36683928D01*
X72705452Y-36722023D01*
X72743547Y-36760119D01*
X72781642Y-36836309D01*
X72781642Y-36988690D01*
X72743547Y-37064880D01*
X72705452Y-37102976D01*
X72629261Y-37141071D01*
%TO.C,D8*%
X92130404Y-35922023D02*
X91330404Y-35922023D01*
X91330404Y-36112500D01*
X91368500Y-36226785D01*
X91444690Y-36302976D01*
X91520880Y-36341071D01*
X91673261Y-36379166D01*
X91787547Y-36379166D01*
X91939928Y-36341071D01*
X92016119Y-36302976D01*
X92092309Y-36226785D01*
X92130404Y-36112500D01*
X92130404Y-35922023D01*
X91673261Y-36836309D02*
X91635166Y-36760119D01*
X91597071Y-36722023D01*
X91520880Y-36683928D01*
X91482785Y-36683928D01*
X91406595Y-36722023D01*
X91368500Y-36760119D01*
X91330404Y-36836309D01*
X91330404Y-36988690D01*
X91368500Y-37064880D01*
X91406595Y-37102976D01*
X91482785Y-37141071D01*
X91520880Y-37141071D01*
X91597071Y-37102976D01*
X91635166Y-37064880D01*
X91673261Y-36988690D01*
X91673261Y-36836309D01*
X91711357Y-36760119D01*
X91749452Y-36722023D01*
X91825642Y-36683928D01*
X91978023Y-36683928D01*
X92054214Y-36722023D01*
X92092309Y-36760119D01*
X92130404Y-36836309D01*
X92130404Y-36988690D01*
X92092309Y-37064880D01*
X92054214Y-37102976D01*
X91978023Y-37141071D01*
X91825642Y-37141071D01*
X91749452Y-37102976D01*
X91711357Y-37064880D01*
X91673261Y-36988690D01*
%TO.C,D7*%
X111174404Y-35922023D02*
X110374404Y-35922023D01*
X110374404Y-36112500D01*
X110412500Y-36226785D01*
X110488690Y-36302976D01*
X110564880Y-36341071D01*
X110717261Y-36379166D01*
X110831547Y-36379166D01*
X110983928Y-36341071D01*
X111060119Y-36302976D01*
X111136309Y-36226785D01*
X111174404Y-36112500D01*
X111174404Y-35922023D01*
X110374404Y-36645833D02*
X110374404Y-37179166D01*
X111174404Y-36836309D01*
%TO.C,D6*%
X132598904Y-35922023D02*
X131798904Y-35922023D01*
X131798904Y-36112500D01*
X131837000Y-36226785D01*
X131913190Y-36302976D01*
X131989380Y-36341071D01*
X132141761Y-36379166D01*
X132256047Y-36379166D01*
X132408428Y-36341071D01*
X132484619Y-36302976D01*
X132560809Y-36226785D01*
X132598904Y-36112500D01*
X132598904Y-35922023D01*
X131798904Y-37064880D02*
X131798904Y-36912500D01*
X131837000Y-36836309D01*
X131875095Y-36798214D01*
X131989380Y-36722023D01*
X132141761Y-36683928D01*
X132446523Y-36683928D01*
X132522714Y-36722023D01*
X132560809Y-36760119D01*
X132598904Y-36836309D01*
X132598904Y-36988690D01*
X132560809Y-37064880D01*
X132522714Y-37102976D01*
X132446523Y-37141071D01*
X132256047Y-37141071D01*
X132179857Y-37102976D01*
X132141761Y-37064880D01*
X132103666Y-36988690D01*
X132103666Y-36836309D01*
X132141761Y-36760119D01*
X132179857Y-36722023D01*
X132256047Y-36683928D01*
%TO.C,D5*%
X151642904Y-35128273D02*
X150842904Y-35128273D01*
X150842904Y-35318750D01*
X150881000Y-35433035D01*
X150957190Y-35509226D01*
X151033380Y-35547321D01*
X151185761Y-35585416D01*
X151300047Y-35585416D01*
X151452428Y-35547321D01*
X151528619Y-35509226D01*
X151604809Y-35433035D01*
X151642904Y-35318750D01*
X151642904Y-35128273D01*
X150842904Y-36309226D02*
X150842904Y-35928273D01*
X151223857Y-35890178D01*
X151185761Y-35928273D01*
X151147666Y-36004464D01*
X151147666Y-36194940D01*
X151185761Y-36271130D01*
X151223857Y-36309226D01*
X151300047Y-36347321D01*
X151490523Y-36347321D01*
X151566714Y-36309226D01*
X151604809Y-36271130D01*
X151642904Y-36194940D01*
X151642904Y-36004464D01*
X151604809Y-35928273D01*
X151566714Y-35890178D01*
%TO.C,D4*%
X170686904Y-29572023D02*
X169886904Y-29572023D01*
X169886904Y-29762500D01*
X169925000Y-29876785D01*
X170001190Y-29952976D01*
X170077380Y-29991071D01*
X170229761Y-30029166D01*
X170344047Y-30029166D01*
X170496428Y-29991071D01*
X170572619Y-29952976D01*
X170648809Y-29876785D01*
X170686904Y-29762500D01*
X170686904Y-29572023D01*
X170153571Y-30714880D02*
X170686904Y-30714880D01*
X169848809Y-30524404D02*
X170420238Y-30333928D01*
X170420238Y-30829166D01*
%TO.C,D3*%
X189730904Y-27190773D02*
X188930904Y-27190773D01*
X188930904Y-27381250D01*
X188969000Y-27495535D01*
X189045190Y-27571726D01*
X189121380Y-27609821D01*
X189273761Y-27647916D01*
X189388047Y-27647916D01*
X189540428Y-27609821D01*
X189616619Y-27571726D01*
X189692809Y-27495535D01*
X189730904Y-27381250D01*
X189730904Y-27190773D01*
X188930904Y-27914583D02*
X188930904Y-28409821D01*
X189235666Y-28143154D01*
X189235666Y-28257440D01*
X189273761Y-28333630D01*
X189311857Y-28371726D01*
X189388047Y-28409821D01*
X189578523Y-28409821D01*
X189654714Y-28371726D01*
X189692809Y-28333630D01*
X189730904Y-28257440D01*
X189730904Y-28028869D01*
X189692809Y-27952678D01*
X189654714Y-27914583D01*
%TO.C,D2*%
X208774904Y-29572023D02*
X207974904Y-29572023D01*
X207974904Y-29762500D01*
X208013000Y-29876785D01*
X208089190Y-29952976D01*
X208165380Y-29991071D01*
X208317761Y-30029166D01*
X208432047Y-30029166D01*
X208584428Y-29991071D01*
X208660619Y-29952976D01*
X208736809Y-29876785D01*
X208774904Y-29762500D01*
X208774904Y-29572023D01*
X208051095Y-30333928D02*
X208013000Y-30372023D01*
X207974904Y-30448214D01*
X207974904Y-30638690D01*
X208013000Y-30714880D01*
X208051095Y-30752976D01*
X208127285Y-30791071D01*
X208203476Y-30791071D01*
X208317761Y-30752976D01*
X208774904Y-30295833D01*
X208774904Y-30791071D01*
%TO.C,D1*%
X227818904Y-31890773D02*
X227018904Y-31890773D01*
X227018904Y-32081250D01*
X227057000Y-32195535D01*
X227133190Y-32271726D01*
X227209380Y-32309821D01*
X227361761Y-32347916D01*
X227476047Y-32347916D01*
X227628428Y-32309821D01*
X227704619Y-32271726D01*
X227780809Y-32195535D01*
X227818904Y-32081250D01*
X227818904Y-31890773D01*
X227818904Y-33109821D02*
X227818904Y-32652678D01*
X227818904Y-32881250D02*
X227018904Y-32881250D01*
X227133190Y-32805059D01*
X227209380Y-32728869D01*
X227247476Y-32652678D01*
%TD*%
M02*
