%TF.GenerationSoftware,KiCad,Pcbnew,(5.1.9-0-10_14)*%
%TF.CreationDate,2021-04-19T01:18:51-05:00*%
%TF.ProjectId,wren-right,7772656e-2d72-4696-9768-742e6b696361,rev?*%
%TF.SameCoordinates,Original*%
%TF.FileFunction,Legend,Bot*%
%TF.FilePolarity,Positive*%
%FSLAX46Y46*%
G04 Gerber Fmt 4.6, Leading zero omitted, Abs format (unit mm)*
G04 Created by KiCad (PCBNEW (5.1.9-0-10_14)) date 2021-04-19 01:18:51*
%MOMM*%
%LPD*%
G01*
G04 APERTURE LIST*
%ADD10C,0.200000*%
%ADD11C,0.381000*%
%ADD12C,0.150000*%
G04 APERTURE END LIST*
D10*
%TO.C,D45*%
X190887500Y-136900000D02*
X190887500Y-142700000D01*
X193287500Y-136900000D02*
X190887500Y-136900000D01*
X193287500Y-142700000D02*
X193287500Y-136900000D01*
X193287500Y-142625000D02*
X190887500Y-142625000D01*
X193287500Y-142500000D02*
X190887500Y-142500000D01*
X190887500Y-142725000D02*
X193287500Y-142725000D01*
X193287500Y-142325000D02*
X190887500Y-142325000D01*
X193287500Y-142150000D02*
X190887500Y-142150000D01*
X193287500Y-141975000D02*
X190887500Y-141975000D01*
%TO.C,D44*%
X180568750Y-136900000D02*
X180568750Y-142700000D01*
X182968750Y-136900000D02*
X180568750Y-136900000D01*
X182968750Y-142700000D02*
X182968750Y-136900000D01*
X182968750Y-142625000D02*
X180568750Y-142625000D01*
X182968750Y-142500000D02*
X180568750Y-142500000D01*
X180568750Y-142725000D02*
X182968750Y-142725000D01*
X182968750Y-142325000D02*
X180568750Y-142325000D01*
X182968750Y-142150000D02*
X180568750Y-142150000D01*
X182968750Y-141975000D02*
X180568750Y-141975000D01*
%TO.C,D43*%
X161518750Y-136900000D02*
X161518750Y-142700000D01*
X163918750Y-136900000D02*
X161518750Y-136900000D01*
X163918750Y-142700000D02*
X163918750Y-136900000D01*
X163918750Y-142625000D02*
X161518750Y-142625000D01*
X163918750Y-142500000D02*
X161518750Y-142500000D01*
X161518750Y-142725000D02*
X163918750Y-142725000D01*
X163918750Y-142325000D02*
X161518750Y-142325000D01*
X163918750Y-142150000D02*
X161518750Y-142150000D01*
X163918750Y-141975000D02*
X161518750Y-141975000D01*
%TO.C,D42*%
X142472250Y-139281250D02*
X142472250Y-145081250D01*
X144872250Y-139281250D02*
X142472250Y-139281250D01*
X144872250Y-145081250D02*
X144872250Y-139281250D01*
X144872250Y-145006250D02*
X142472250Y-145006250D01*
X144872250Y-144881250D02*
X142472250Y-144881250D01*
X142472250Y-145106250D02*
X144872250Y-145106250D01*
X144872250Y-144706250D02*
X142472250Y-144706250D01*
X144872250Y-144531250D02*
X142472250Y-144531250D01*
X144872250Y-144356250D02*
X142472250Y-144356250D01*
%TO.C,D41*%
X112963621Y-145198270D02*
X107940674Y-148098270D01*
X114163621Y-147276730D02*
X112963621Y-145198270D01*
X109140674Y-150176730D02*
X114163621Y-147276730D01*
X109205626Y-150139230D02*
X108005626Y-148060770D01*
X109313879Y-150076730D02*
X108113879Y-147998270D01*
X107919023Y-148110770D02*
X109119023Y-150189230D01*
X109465433Y-149989230D02*
X108265433Y-147910770D01*
X109616988Y-149901730D02*
X108416988Y-147823270D01*
X109768542Y-149814230D02*
X108568542Y-147735770D01*
%TO.C,D36*%
X228170250Y-117850000D02*
X228170250Y-123650000D01*
X230570250Y-117850000D02*
X228170250Y-117850000D01*
X230570250Y-123650000D02*
X230570250Y-117850000D01*
X230570250Y-123575000D02*
X228170250Y-123575000D01*
X230570250Y-123450000D02*
X228170250Y-123450000D01*
X228170250Y-123675000D02*
X230570250Y-123675000D01*
X230570250Y-123275000D02*
X228170250Y-123275000D01*
X230570250Y-123100000D02*
X228170250Y-123100000D01*
X230570250Y-122925000D02*
X228170250Y-122925000D01*
%TO.C,D35*%
X209919750Y-117850000D02*
X209919750Y-123650000D01*
X212319750Y-117850000D02*
X209919750Y-117850000D01*
X212319750Y-123650000D02*
X212319750Y-117850000D01*
X212319750Y-123575000D02*
X209919750Y-123575000D01*
X212319750Y-123450000D02*
X209919750Y-123450000D01*
X209919750Y-123675000D02*
X212319750Y-123675000D01*
X212319750Y-123275000D02*
X209919750Y-123275000D01*
X212319750Y-123100000D02*
X209919750Y-123100000D01*
X212319750Y-122925000D02*
X209919750Y-122925000D01*
%TO.C,D34*%
X190875750Y-114675000D02*
X190875750Y-120475000D01*
X193275750Y-114675000D02*
X190875750Y-114675000D01*
X193275750Y-120475000D02*
X193275750Y-114675000D01*
X193275750Y-120400000D02*
X190875750Y-120400000D01*
X193275750Y-120275000D02*
X190875750Y-120275000D01*
X190875750Y-120500000D02*
X193275750Y-120500000D01*
X193275750Y-120100000D02*
X190875750Y-120100000D01*
X193275750Y-119925000D02*
X190875750Y-119925000D01*
X193275750Y-119750000D02*
X190875750Y-119750000D01*
%TO.C,D33*%
X171831750Y-112293750D02*
X171831750Y-118093750D01*
X174231750Y-112293750D02*
X171831750Y-112293750D01*
X174231750Y-118093750D02*
X174231750Y-112293750D01*
X174231750Y-118018750D02*
X171831750Y-118018750D01*
X174231750Y-117893750D02*
X171831750Y-117893750D01*
X171831750Y-118118750D02*
X174231750Y-118118750D01*
X174231750Y-117718750D02*
X171831750Y-117718750D01*
X174231750Y-117543750D02*
X171831750Y-117543750D01*
X174231750Y-117368750D02*
X171831750Y-117368750D01*
%TO.C,D32*%
X152787750Y-114675000D02*
X152787750Y-120475000D01*
X155187750Y-114675000D02*
X152787750Y-114675000D01*
X155187750Y-120475000D02*
X155187750Y-114675000D01*
X155187750Y-120400000D02*
X152787750Y-120400000D01*
X155187750Y-120275000D02*
X152787750Y-120275000D01*
X152787750Y-120500000D02*
X155187750Y-120500000D01*
X155187750Y-120100000D02*
X152787750Y-120100000D01*
X155187750Y-119925000D02*
X152787750Y-119925000D01*
X155187750Y-119750000D02*
X152787750Y-119750000D01*
%TO.C,D31*%
X133743750Y-117056250D02*
X133743750Y-122856250D01*
X136143750Y-117056250D02*
X133743750Y-117056250D01*
X136143750Y-122856250D02*
X136143750Y-117056250D01*
X136143750Y-122781250D02*
X133743750Y-122781250D01*
X136143750Y-122656250D02*
X133743750Y-122656250D01*
X133743750Y-122881250D02*
X136143750Y-122881250D01*
X136143750Y-122481250D02*
X133743750Y-122481250D01*
X136143750Y-122306250D02*
X133743750Y-122306250D01*
X136143750Y-122131250D02*
X133743750Y-122131250D01*
%TO.C,D26*%
X228170250Y-98800000D02*
X228170250Y-104600000D01*
X230570250Y-98800000D02*
X228170250Y-98800000D01*
X230570250Y-104600000D02*
X230570250Y-98800000D01*
X230570250Y-104525000D02*
X228170250Y-104525000D01*
X230570250Y-104400000D02*
X228170250Y-104400000D01*
X228170250Y-104625000D02*
X230570250Y-104625000D01*
X230570250Y-104225000D02*
X228170250Y-104225000D01*
X230570250Y-104050000D02*
X228170250Y-104050000D01*
X230570250Y-103875000D02*
X228170250Y-103875000D01*
%TO.C,D25*%
X209919750Y-98800000D02*
X209919750Y-104600000D01*
X212319750Y-98800000D02*
X209919750Y-98800000D01*
X212319750Y-104600000D02*
X212319750Y-98800000D01*
X212319750Y-104525000D02*
X209919750Y-104525000D01*
X212319750Y-104400000D02*
X209919750Y-104400000D01*
X209919750Y-104625000D02*
X212319750Y-104625000D01*
X212319750Y-104225000D02*
X209919750Y-104225000D01*
X212319750Y-104050000D02*
X209919750Y-104050000D01*
X212319750Y-103875000D02*
X209919750Y-103875000D01*
%TO.C,D24*%
X190875750Y-95625000D02*
X190875750Y-101425000D01*
X193275750Y-95625000D02*
X190875750Y-95625000D01*
X193275750Y-101425000D02*
X193275750Y-95625000D01*
X193275750Y-101350000D02*
X190875750Y-101350000D01*
X193275750Y-101225000D02*
X190875750Y-101225000D01*
X190875750Y-101450000D02*
X193275750Y-101450000D01*
X193275750Y-101050000D02*
X190875750Y-101050000D01*
X193275750Y-100875000D02*
X190875750Y-100875000D01*
X193275750Y-100700000D02*
X190875750Y-100700000D01*
%TO.C,D23*%
X171831750Y-93243750D02*
X171831750Y-99043750D01*
X174231750Y-93243750D02*
X171831750Y-93243750D01*
X174231750Y-99043750D02*
X174231750Y-93243750D01*
X174231750Y-98968750D02*
X171831750Y-98968750D01*
X174231750Y-98843750D02*
X171831750Y-98843750D01*
X171831750Y-99068750D02*
X174231750Y-99068750D01*
X174231750Y-98668750D02*
X171831750Y-98668750D01*
X174231750Y-98493750D02*
X171831750Y-98493750D01*
X174231750Y-98318750D02*
X171831750Y-98318750D01*
%TO.C,D22*%
X152787750Y-95625000D02*
X152787750Y-101425000D01*
X155187750Y-95625000D02*
X152787750Y-95625000D01*
X155187750Y-101425000D02*
X155187750Y-95625000D01*
X155187750Y-101350000D02*
X152787750Y-101350000D01*
X155187750Y-101225000D02*
X152787750Y-101225000D01*
X152787750Y-101450000D02*
X155187750Y-101450000D01*
X155187750Y-101050000D02*
X152787750Y-101050000D01*
X155187750Y-100875000D02*
X152787750Y-100875000D01*
X155187750Y-100700000D02*
X152787750Y-100700000D01*
%TO.C,D21*%
X133743750Y-98006250D02*
X133743750Y-103806250D01*
X136143750Y-98006250D02*
X133743750Y-98006250D01*
X136143750Y-103806250D02*
X136143750Y-98006250D01*
X136143750Y-103731250D02*
X133743750Y-103731250D01*
X136143750Y-103606250D02*
X133743750Y-103606250D01*
X133743750Y-103831250D02*
X136143750Y-103831250D01*
X136143750Y-103431250D02*
X133743750Y-103431250D01*
X136143750Y-103256250D02*
X133743750Y-103256250D01*
X136143750Y-103081250D02*
X133743750Y-103081250D01*
%TO.C,D16*%
X228170250Y-79750000D02*
X228170250Y-85550000D01*
X230570250Y-79750000D02*
X228170250Y-79750000D01*
X230570250Y-85550000D02*
X230570250Y-79750000D01*
X230570250Y-85475000D02*
X228170250Y-85475000D01*
X230570250Y-85350000D02*
X228170250Y-85350000D01*
X228170250Y-85575000D02*
X230570250Y-85575000D01*
X230570250Y-85175000D02*
X228170250Y-85175000D01*
X230570250Y-85000000D02*
X228170250Y-85000000D01*
X230570250Y-84825000D02*
X228170250Y-84825000D01*
%TO.C,D15*%
X209919750Y-79750000D02*
X209919750Y-85550000D01*
X212319750Y-79750000D02*
X209919750Y-79750000D01*
X212319750Y-85550000D02*
X212319750Y-79750000D01*
X212319750Y-85475000D02*
X209919750Y-85475000D01*
X212319750Y-85350000D02*
X209919750Y-85350000D01*
X209919750Y-85575000D02*
X212319750Y-85575000D01*
X212319750Y-85175000D02*
X209919750Y-85175000D01*
X212319750Y-85000000D02*
X209919750Y-85000000D01*
X212319750Y-84825000D02*
X209919750Y-84825000D01*
%TO.C,D14*%
X190875750Y-76575000D02*
X190875750Y-82375000D01*
X193275750Y-76575000D02*
X190875750Y-76575000D01*
X193275750Y-82375000D02*
X193275750Y-76575000D01*
X193275750Y-82300000D02*
X190875750Y-82300000D01*
X193275750Y-82175000D02*
X190875750Y-82175000D01*
X190875750Y-82400000D02*
X193275750Y-82400000D01*
X193275750Y-82000000D02*
X190875750Y-82000000D01*
X193275750Y-81825000D02*
X190875750Y-81825000D01*
X193275750Y-81650000D02*
X190875750Y-81650000D01*
%TO.C,D13*%
X171831750Y-74193750D02*
X171831750Y-79993750D01*
X174231750Y-74193750D02*
X171831750Y-74193750D01*
X174231750Y-79993750D02*
X174231750Y-74193750D01*
X174231750Y-79918750D02*
X171831750Y-79918750D01*
X174231750Y-79793750D02*
X171831750Y-79793750D01*
X171831750Y-80018750D02*
X174231750Y-80018750D01*
X174231750Y-79618750D02*
X171831750Y-79618750D01*
X174231750Y-79443750D02*
X171831750Y-79443750D01*
X174231750Y-79268750D02*
X171831750Y-79268750D01*
%TO.C,D12*%
X152787750Y-76575000D02*
X152787750Y-82375000D01*
X155187750Y-76575000D02*
X152787750Y-76575000D01*
X155187750Y-82375000D02*
X155187750Y-76575000D01*
X155187750Y-82300000D02*
X152787750Y-82300000D01*
X155187750Y-82175000D02*
X152787750Y-82175000D01*
X152787750Y-82400000D02*
X155187750Y-82400000D01*
X155187750Y-82000000D02*
X152787750Y-82000000D01*
X155187750Y-81825000D02*
X152787750Y-81825000D01*
X155187750Y-81650000D02*
X152787750Y-81650000D01*
%TO.C,D11*%
X133743750Y-78956250D02*
X133743750Y-84756250D01*
X136143750Y-78956250D02*
X133743750Y-78956250D01*
X136143750Y-84756250D02*
X136143750Y-78956250D01*
X136143750Y-84681250D02*
X133743750Y-84681250D01*
X136143750Y-84556250D02*
X133743750Y-84556250D01*
X133743750Y-84781250D02*
X136143750Y-84781250D01*
X136143750Y-84381250D02*
X133743750Y-84381250D01*
X136143750Y-84206250D02*
X133743750Y-84206250D01*
X136143750Y-84031250D02*
X133743750Y-84031250D01*
%TO.C,D6*%
X228170250Y-60700000D02*
X228170250Y-66500000D01*
X230570250Y-60700000D02*
X228170250Y-60700000D01*
X230570250Y-66500000D02*
X230570250Y-60700000D01*
X230570250Y-66425000D02*
X228170250Y-66425000D01*
X230570250Y-66300000D02*
X228170250Y-66300000D01*
X228170250Y-66525000D02*
X230570250Y-66525000D01*
X230570250Y-66125000D02*
X228170250Y-66125000D01*
X230570250Y-65950000D02*
X228170250Y-65950000D01*
X230570250Y-65775000D02*
X228170250Y-65775000D01*
%TO.C,D5*%
X209919750Y-60700000D02*
X209919750Y-66500000D01*
X212319750Y-60700000D02*
X209919750Y-60700000D01*
X212319750Y-66500000D02*
X212319750Y-60700000D01*
X212319750Y-66425000D02*
X209919750Y-66425000D01*
X212319750Y-66300000D02*
X209919750Y-66300000D01*
X209919750Y-66525000D02*
X212319750Y-66525000D01*
X212319750Y-66125000D02*
X209919750Y-66125000D01*
X212319750Y-65950000D02*
X209919750Y-65950000D01*
X212319750Y-65775000D02*
X209919750Y-65775000D01*
%TO.C,D4*%
X190875750Y-57525000D02*
X190875750Y-63325000D01*
X193275750Y-57525000D02*
X190875750Y-57525000D01*
X193275750Y-63325000D02*
X193275750Y-57525000D01*
X193275750Y-63250000D02*
X190875750Y-63250000D01*
X193275750Y-63125000D02*
X190875750Y-63125000D01*
X190875750Y-63350000D02*
X193275750Y-63350000D01*
X193275750Y-62950000D02*
X190875750Y-62950000D01*
X193275750Y-62775000D02*
X190875750Y-62775000D01*
X193275750Y-62600000D02*
X190875750Y-62600000D01*
%TO.C,D3*%
X171831750Y-55143750D02*
X171831750Y-60943750D01*
X174231750Y-55143750D02*
X171831750Y-55143750D01*
X174231750Y-60943750D02*
X174231750Y-55143750D01*
X174231750Y-60868750D02*
X171831750Y-60868750D01*
X174231750Y-60743750D02*
X171831750Y-60743750D01*
X171831750Y-60968750D02*
X174231750Y-60968750D01*
X174231750Y-60568750D02*
X171831750Y-60568750D01*
X174231750Y-60393750D02*
X171831750Y-60393750D01*
X174231750Y-60218750D02*
X171831750Y-60218750D01*
%TO.C,D2*%
X152787750Y-57525000D02*
X152787750Y-63325000D01*
X155187750Y-57525000D02*
X152787750Y-57525000D01*
X155187750Y-63325000D02*
X155187750Y-57525000D01*
X155187750Y-63250000D02*
X152787750Y-63250000D01*
X155187750Y-63125000D02*
X152787750Y-63125000D01*
X152787750Y-63350000D02*
X155187750Y-63350000D01*
X155187750Y-62950000D02*
X152787750Y-62950000D01*
X155187750Y-62775000D02*
X152787750Y-62775000D01*
X155187750Y-62600000D02*
X152787750Y-62600000D01*
%TO.C,D1*%
X133743750Y-59906250D02*
X133743750Y-65706250D01*
X136143750Y-59906250D02*
X133743750Y-59906250D01*
X136143750Y-65706250D02*
X136143750Y-59906250D01*
X136143750Y-65631250D02*
X133743750Y-65631250D01*
X136143750Y-65506250D02*
X133743750Y-65506250D01*
X133743750Y-65731250D02*
X136143750Y-65731250D01*
X136143750Y-65331250D02*
X133743750Y-65331250D01*
X136143750Y-65156250D02*
X133743750Y-65156250D01*
X136143750Y-64981250D02*
X133743750Y-64981250D01*
D11*
%TO.C,U1*%
X99218750Y-58737500D02*
X96678750Y-58737500D01*
X99218750Y-56197500D02*
X99218750Y-58737500D01*
D12*
G36*
X111613385Y-62486530D02*
G01*
X111613385Y-62586530D01*
X111713385Y-62586530D01*
X111713385Y-62486530D01*
X111613385Y-62486530D01*
G37*
X111613385Y-62486530D02*
X111613385Y-62586530D01*
X111713385Y-62586530D01*
X111713385Y-62486530D01*
X111613385Y-62486530D01*
G36*
X111813385Y-62086530D02*
G01*
X111813385Y-62886530D01*
X111913385Y-62886530D01*
X111913385Y-62086530D01*
X111813385Y-62086530D01*
G37*
X111813385Y-62086530D02*
X111813385Y-62886530D01*
X111913385Y-62886530D01*
X111913385Y-62086530D01*
X111813385Y-62086530D01*
G36*
X111413385Y-62686530D02*
G01*
X111413385Y-62886530D01*
X111513385Y-62886530D01*
X111513385Y-62686530D01*
X111413385Y-62686530D01*
G37*
X111413385Y-62686530D02*
X111413385Y-62886530D01*
X111513385Y-62886530D01*
X111513385Y-62686530D01*
X111413385Y-62686530D01*
G36*
X111413385Y-62086530D02*
G01*
X111413385Y-62386530D01*
X111513385Y-62386530D01*
X111513385Y-62086530D01*
X111413385Y-62086530D01*
G37*
X111413385Y-62086530D02*
X111413385Y-62386530D01*
X111513385Y-62386530D01*
X111513385Y-62086530D01*
X111413385Y-62086530D01*
G36*
X111413385Y-62086530D02*
G01*
X111413385Y-62186530D01*
X111913385Y-62186530D01*
X111913385Y-62086530D01*
X111413385Y-62086530D01*
G37*
X111413385Y-62086530D02*
X111413385Y-62186530D01*
X111913385Y-62186530D01*
X111913385Y-62086530D01*
X111413385Y-62086530D01*
D11*
X114458750Y-86677500D02*
X114458750Y-53657500D01*
X96678750Y-86677500D02*
X114458750Y-86677500D01*
X96678750Y-53657500D02*
X96678750Y-86677500D01*
X114458750Y-53657500D02*
X96678750Y-53657500D01*
X99218750Y-56197500D02*
X96678750Y-56197500D01*
%TO.C,D45*%
D12*
X190524404Y-138728571D02*
X189724404Y-138728571D01*
X189724404Y-138919047D01*
X189762500Y-139033333D01*
X189838690Y-139109523D01*
X189914880Y-139147619D01*
X190067261Y-139185714D01*
X190181547Y-139185714D01*
X190333928Y-139147619D01*
X190410119Y-139109523D01*
X190486309Y-139033333D01*
X190524404Y-138919047D01*
X190524404Y-138728571D01*
X189991071Y-139871428D02*
X190524404Y-139871428D01*
X189686309Y-139680952D02*
X190257738Y-139490476D01*
X190257738Y-139985714D01*
X189724404Y-140671428D02*
X189724404Y-140290476D01*
X190105357Y-140252380D01*
X190067261Y-140290476D01*
X190029166Y-140366666D01*
X190029166Y-140557142D01*
X190067261Y-140633333D01*
X190105357Y-140671428D01*
X190181547Y-140709523D01*
X190372023Y-140709523D01*
X190448214Y-140671428D01*
X190486309Y-140633333D01*
X190524404Y-140557142D01*
X190524404Y-140366666D01*
X190486309Y-140290476D01*
X190448214Y-140252380D01*
%TO.C,D44*%
X180205654Y-138728571D02*
X179405654Y-138728571D01*
X179405654Y-138919047D01*
X179443750Y-139033333D01*
X179519940Y-139109523D01*
X179596130Y-139147619D01*
X179748511Y-139185714D01*
X179862797Y-139185714D01*
X180015178Y-139147619D01*
X180091369Y-139109523D01*
X180167559Y-139033333D01*
X180205654Y-138919047D01*
X180205654Y-138728571D01*
X179672321Y-139871428D02*
X180205654Y-139871428D01*
X179367559Y-139680952D02*
X179938988Y-139490476D01*
X179938988Y-139985714D01*
X179672321Y-140633333D02*
X180205654Y-140633333D01*
X179367559Y-140442857D02*
X179938988Y-140252380D01*
X179938988Y-140747619D01*
%TO.C,D43*%
X161155654Y-138728571D02*
X160355654Y-138728571D01*
X160355654Y-138919047D01*
X160393750Y-139033333D01*
X160469940Y-139109523D01*
X160546130Y-139147619D01*
X160698511Y-139185714D01*
X160812797Y-139185714D01*
X160965178Y-139147619D01*
X161041369Y-139109523D01*
X161117559Y-139033333D01*
X161155654Y-138919047D01*
X161155654Y-138728571D01*
X160622321Y-139871428D02*
X161155654Y-139871428D01*
X160317559Y-139680952D02*
X160888988Y-139490476D01*
X160888988Y-139985714D01*
X160355654Y-140214285D02*
X160355654Y-140709523D01*
X160660416Y-140442857D01*
X160660416Y-140557142D01*
X160698511Y-140633333D01*
X160736607Y-140671428D01*
X160812797Y-140709523D01*
X161003273Y-140709523D01*
X161079464Y-140671428D01*
X161117559Y-140633333D01*
X161155654Y-140557142D01*
X161155654Y-140328571D01*
X161117559Y-140252380D01*
X161079464Y-140214285D01*
%TO.C,D42*%
X142109154Y-141109821D02*
X141309154Y-141109821D01*
X141309154Y-141300297D01*
X141347250Y-141414583D01*
X141423440Y-141490773D01*
X141499630Y-141528869D01*
X141652011Y-141566964D01*
X141766297Y-141566964D01*
X141918678Y-141528869D01*
X141994869Y-141490773D01*
X142071059Y-141414583D01*
X142109154Y-141300297D01*
X142109154Y-141109821D01*
X141575821Y-142252678D02*
X142109154Y-142252678D01*
X141271059Y-142062202D02*
X141842488Y-141871726D01*
X141842488Y-142366964D01*
X141385345Y-142633630D02*
X141347250Y-142671726D01*
X141309154Y-142747916D01*
X141309154Y-142938392D01*
X141347250Y-143014583D01*
X141385345Y-143052678D01*
X141461535Y-143090773D01*
X141537726Y-143090773D01*
X141652011Y-143052678D01*
X142109154Y-142595535D01*
X142109154Y-143090773D01*
%TO.C,D41*%
X111198484Y-145798105D02*
X110798484Y-145105285D01*
X110633526Y-145200523D01*
X110553600Y-145290657D01*
X110525712Y-145394735D01*
X110530816Y-145479766D01*
X110574015Y-145630779D01*
X110631158Y-145729753D01*
X110740340Y-145842672D01*
X110811426Y-145889607D01*
X110915505Y-145917494D01*
X111033526Y-145893343D01*
X111198484Y-145798105D01*
X109942074Y-145907653D02*
X110208740Y-146369534D01*
X109954650Y-145548484D02*
X110405321Y-145948117D01*
X109976433Y-146195736D01*
X109482929Y-146788581D02*
X109878826Y-146560010D01*
X109680877Y-146674295D02*
X109280877Y-145981475D01*
X109404003Y-146042354D01*
X109508081Y-146070242D01*
X109593112Y-146065138D01*
%TO.C,D35*%
X209556654Y-119678571D02*
X208756654Y-119678571D01*
X208756654Y-119869047D01*
X208794750Y-119983333D01*
X208870940Y-120059523D01*
X208947130Y-120097619D01*
X209099511Y-120135714D01*
X209213797Y-120135714D01*
X209366178Y-120097619D01*
X209442369Y-120059523D01*
X209518559Y-119983333D01*
X209556654Y-119869047D01*
X209556654Y-119678571D01*
X208756654Y-120402380D02*
X208756654Y-120897619D01*
X209061416Y-120630952D01*
X209061416Y-120745238D01*
X209099511Y-120821428D01*
X209137607Y-120859523D01*
X209213797Y-120897619D01*
X209404273Y-120897619D01*
X209480464Y-120859523D01*
X209518559Y-120821428D01*
X209556654Y-120745238D01*
X209556654Y-120516666D01*
X209518559Y-120440476D01*
X209480464Y-120402380D01*
X208756654Y-121621428D02*
X208756654Y-121240476D01*
X209137607Y-121202380D01*
X209099511Y-121240476D01*
X209061416Y-121316666D01*
X209061416Y-121507142D01*
X209099511Y-121583333D01*
X209137607Y-121621428D01*
X209213797Y-121659523D01*
X209404273Y-121659523D01*
X209480464Y-121621428D01*
X209518559Y-121583333D01*
X209556654Y-121507142D01*
X209556654Y-121316666D01*
X209518559Y-121240476D01*
X209480464Y-121202380D01*
%TO.C,D34*%
X190512654Y-116503571D02*
X189712654Y-116503571D01*
X189712654Y-116694047D01*
X189750750Y-116808333D01*
X189826940Y-116884523D01*
X189903130Y-116922619D01*
X190055511Y-116960714D01*
X190169797Y-116960714D01*
X190322178Y-116922619D01*
X190398369Y-116884523D01*
X190474559Y-116808333D01*
X190512654Y-116694047D01*
X190512654Y-116503571D01*
X189712654Y-117227380D02*
X189712654Y-117722619D01*
X190017416Y-117455952D01*
X190017416Y-117570238D01*
X190055511Y-117646428D01*
X190093607Y-117684523D01*
X190169797Y-117722619D01*
X190360273Y-117722619D01*
X190436464Y-117684523D01*
X190474559Y-117646428D01*
X190512654Y-117570238D01*
X190512654Y-117341666D01*
X190474559Y-117265476D01*
X190436464Y-117227380D01*
X189979321Y-118408333D02*
X190512654Y-118408333D01*
X189674559Y-118217857D02*
X190245988Y-118027380D01*
X190245988Y-118522619D01*
%TO.C,D33*%
X171468654Y-114122321D02*
X170668654Y-114122321D01*
X170668654Y-114312797D01*
X170706750Y-114427083D01*
X170782940Y-114503273D01*
X170859130Y-114541369D01*
X171011511Y-114579464D01*
X171125797Y-114579464D01*
X171278178Y-114541369D01*
X171354369Y-114503273D01*
X171430559Y-114427083D01*
X171468654Y-114312797D01*
X171468654Y-114122321D01*
X170668654Y-114846130D02*
X170668654Y-115341369D01*
X170973416Y-115074702D01*
X170973416Y-115188988D01*
X171011511Y-115265178D01*
X171049607Y-115303273D01*
X171125797Y-115341369D01*
X171316273Y-115341369D01*
X171392464Y-115303273D01*
X171430559Y-115265178D01*
X171468654Y-115188988D01*
X171468654Y-114960416D01*
X171430559Y-114884226D01*
X171392464Y-114846130D01*
X170668654Y-115608035D02*
X170668654Y-116103273D01*
X170973416Y-115836607D01*
X170973416Y-115950892D01*
X171011511Y-116027083D01*
X171049607Y-116065178D01*
X171125797Y-116103273D01*
X171316273Y-116103273D01*
X171392464Y-116065178D01*
X171430559Y-116027083D01*
X171468654Y-115950892D01*
X171468654Y-115722321D01*
X171430559Y-115646130D01*
X171392464Y-115608035D01*
%TO.C,D32*%
X152424654Y-116503571D02*
X151624654Y-116503571D01*
X151624654Y-116694047D01*
X151662750Y-116808333D01*
X151738940Y-116884523D01*
X151815130Y-116922619D01*
X151967511Y-116960714D01*
X152081797Y-116960714D01*
X152234178Y-116922619D01*
X152310369Y-116884523D01*
X152386559Y-116808333D01*
X152424654Y-116694047D01*
X152424654Y-116503571D01*
X151624654Y-117227380D02*
X151624654Y-117722619D01*
X151929416Y-117455952D01*
X151929416Y-117570238D01*
X151967511Y-117646428D01*
X152005607Y-117684523D01*
X152081797Y-117722619D01*
X152272273Y-117722619D01*
X152348464Y-117684523D01*
X152386559Y-117646428D01*
X152424654Y-117570238D01*
X152424654Y-117341666D01*
X152386559Y-117265476D01*
X152348464Y-117227380D01*
X151700845Y-118027380D02*
X151662750Y-118065476D01*
X151624654Y-118141666D01*
X151624654Y-118332142D01*
X151662750Y-118408333D01*
X151700845Y-118446428D01*
X151777035Y-118484523D01*
X151853226Y-118484523D01*
X151967511Y-118446428D01*
X152424654Y-117989285D01*
X152424654Y-118484523D01*
%TO.C,D31*%
X133380654Y-118884821D02*
X132580654Y-118884821D01*
X132580654Y-119075297D01*
X132618750Y-119189583D01*
X132694940Y-119265773D01*
X132771130Y-119303869D01*
X132923511Y-119341964D01*
X133037797Y-119341964D01*
X133190178Y-119303869D01*
X133266369Y-119265773D01*
X133342559Y-119189583D01*
X133380654Y-119075297D01*
X133380654Y-118884821D01*
X132580654Y-119608630D02*
X132580654Y-120103869D01*
X132885416Y-119837202D01*
X132885416Y-119951488D01*
X132923511Y-120027678D01*
X132961607Y-120065773D01*
X133037797Y-120103869D01*
X133228273Y-120103869D01*
X133304464Y-120065773D01*
X133342559Y-120027678D01*
X133380654Y-119951488D01*
X133380654Y-119722916D01*
X133342559Y-119646726D01*
X133304464Y-119608630D01*
X133380654Y-120865773D02*
X133380654Y-120408630D01*
X133380654Y-120637202D02*
X132580654Y-120637202D01*
X132694940Y-120561011D01*
X132771130Y-120484821D01*
X132809226Y-120408630D01*
%TO.C,D25*%
X209556654Y-100628571D02*
X208756654Y-100628571D01*
X208756654Y-100819047D01*
X208794750Y-100933333D01*
X208870940Y-101009523D01*
X208947130Y-101047619D01*
X209099511Y-101085714D01*
X209213797Y-101085714D01*
X209366178Y-101047619D01*
X209442369Y-101009523D01*
X209518559Y-100933333D01*
X209556654Y-100819047D01*
X209556654Y-100628571D01*
X208832845Y-101390476D02*
X208794750Y-101428571D01*
X208756654Y-101504761D01*
X208756654Y-101695238D01*
X208794750Y-101771428D01*
X208832845Y-101809523D01*
X208909035Y-101847619D01*
X208985226Y-101847619D01*
X209099511Y-101809523D01*
X209556654Y-101352380D01*
X209556654Y-101847619D01*
X208756654Y-102571428D02*
X208756654Y-102190476D01*
X209137607Y-102152380D01*
X209099511Y-102190476D01*
X209061416Y-102266666D01*
X209061416Y-102457142D01*
X209099511Y-102533333D01*
X209137607Y-102571428D01*
X209213797Y-102609523D01*
X209404273Y-102609523D01*
X209480464Y-102571428D01*
X209518559Y-102533333D01*
X209556654Y-102457142D01*
X209556654Y-102266666D01*
X209518559Y-102190476D01*
X209480464Y-102152380D01*
%TO.C,D24*%
X190512654Y-97453571D02*
X189712654Y-97453571D01*
X189712654Y-97644047D01*
X189750750Y-97758333D01*
X189826940Y-97834523D01*
X189903130Y-97872619D01*
X190055511Y-97910714D01*
X190169797Y-97910714D01*
X190322178Y-97872619D01*
X190398369Y-97834523D01*
X190474559Y-97758333D01*
X190512654Y-97644047D01*
X190512654Y-97453571D01*
X189788845Y-98215476D02*
X189750750Y-98253571D01*
X189712654Y-98329761D01*
X189712654Y-98520238D01*
X189750750Y-98596428D01*
X189788845Y-98634523D01*
X189865035Y-98672619D01*
X189941226Y-98672619D01*
X190055511Y-98634523D01*
X190512654Y-98177380D01*
X190512654Y-98672619D01*
X189979321Y-99358333D02*
X190512654Y-99358333D01*
X189674559Y-99167857D02*
X190245988Y-98977380D01*
X190245988Y-99472619D01*
%TO.C,D23*%
X171468654Y-95072321D02*
X170668654Y-95072321D01*
X170668654Y-95262797D01*
X170706750Y-95377083D01*
X170782940Y-95453273D01*
X170859130Y-95491369D01*
X171011511Y-95529464D01*
X171125797Y-95529464D01*
X171278178Y-95491369D01*
X171354369Y-95453273D01*
X171430559Y-95377083D01*
X171468654Y-95262797D01*
X171468654Y-95072321D01*
X170744845Y-95834226D02*
X170706750Y-95872321D01*
X170668654Y-95948511D01*
X170668654Y-96138988D01*
X170706750Y-96215178D01*
X170744845Y-96253273D01*
X170821035Y-96291369D01*
X170897226Y-96291369D01*
X171011511Y-96253273D01*
X171468654Y-95796130D01*
X171468654Y-96291369D01*
X170668654Y-96558035D02*
X170668654Y-97053273D01*
X170973416Y-96786607D01*
X170973416Y-96900892D01*
X171011511Y-96977083D01*
X171049607Y-97015178D01*
X171125797Y-97053273D01*
X171316273Y-97053273D01*
X171392464Y-97015178D01*
X171430559Y-96977083D01*
X171468654Y-96900892D01*
X171468654Y-96672321D01*
X171430559Y-96596130D01*
X171392464Y-96558035D01*
%TO.C,D22*%
X152424654Y-97453571D02*
X151624654Y-97453571D01*
X151624654Y-97644047D01*
X151662750Y-97758333D01*
X151738940Y-97834523D01*
X151815130Y-97872619D01*
X151967511Y-97910714D01*
X152081797Y-97910714D01*
X152234178Y-97872619D01*
X152310369Y-97834523D01*
X152386559Y-97758333D01*
X152424654Y-97644047D01*
X152424654Y-97453571D01*
X151700845Y-98215476D02*
X151662750Y-98253571D01*
X151624654Y-98329761D01*
X151624654Y-98520238D01*
X151662750Y-98596428D01*
X151700845Y-98634523D01*
X151777035Y-98672619D01*
X151853226Y-98672619D01*
X151967511Y-98634523D01*
X152424654Y-98177380D01*
X152424654Y-98672619D01*
X151700845Y-98977380D02*
X151662750Y-99015476D01*
X151624654Y-99091666D01*
X151624654Y-99282142D01*
X151662750Y-99358333D01*
X151700845Y-99396428D01*
X151777035Y-99434523D01*
X151853226Y-99434523D01*
X151967511Y-99396428D01*
X152424654Y-98939285D01*
X152424654Y-99434523D01*
%TO.C,D21*%
X133380654Y-99834821D02*
X132580654Y-99834821D01*
X132580654Y-100025297D01*
X132618750Y-100139583D01*
X132694940Y-100215773D01*
X132771130Y-100253869D01*
X132923511Y-100291964D01*
X133037797Y-100291964D01*
X133190178Y-100253869D01*
X133266369Y-100215773D01*
X133342559Y-100139583D01*
X133380654Y-100025297D01*
X133380654Y-99834821D01*
X132656845Y-100596726D02*
X132618750Y-100634821D01*
X132580654Y-100711011D01*
X132580654Y-100901488D01*
X132618750Y-100977678D01*
X132656845Y-101015773D01*
X132733035Y-101053869D01*
X132809226Y-101053869D01*
X132923511Y-101015773D01*
X133380654Y-100558630D01*
X133380654Y-101053869D01*
X133380654Y-101815773D02*
X133380654Y-101358630D01*
X133380654Y-101587202D02*
X132580654Y-101587202D01*
X132694940Y-101511011D01*
X132771130Y-101434821D01*
X132809226Y-101358630D01*
%TO.C,D15*%
X209556654Y-81578571D02*
X208756654Y-81578571D01*
X208756654Y-81769047D01*
X208794750Y-81883333D01*
X208870940Y-81959523D01*
X208947130Y-81997619D01*
X209099511Y-82035714D01*
X209213797Y-82035714D01*
X209366178Y-81997619D01*
X209442369Y-81959523D01*
X209518559Y-81883333D01*
X209556654Y-81769047D01*
X209556654Y-81578571D01*
X209556654Y-82797619D02*
X209556654Y-82340476D01*
X209556654Y-82569047D02*
X208756654Y-82569047D01*
X208870940Y-82492857D01*
X208947130Y-82416666D01*
X208985226Y-82340476D01*
X208756654Y-83521428D02*
X208756654Y-83140476D01*
X209137607Y-83102380D01*
X209099511Y-83140476D01*
X209061416Y-83216666D01*
X209061416Y-83407142D01*
X209099511Y-83483333D01*
X209137607Y-83521428D01*
X209213797Y-83559523D01*
X209404273Y-83559523D01*
X209480464Y-83521428D01*
X209518559Y-83483333D01*
X209556654Y-83407142D01*
X209556654Y-83216666D01*
X209518559Y-83140476D01*
X209480464Y-83102380D01*
%TO.C,D14*%
X190512654Y-78403571D02*
X189712654Y-78403571D01*
X189712654Y-78594047D01*
X189750750Y-78708333D01*
X189826940Y-78784523D01*
X189903130Y-78822619D01*
X190055511Y-78860714D01*
X190169797Y-78860714D01*
X190322178Y-78822619D01*
X190398369Y-78784523D01*
X190474559Y-78708333D01*
X190512654Y-78594047D01*
X190512654Y-78403571D01*
X190512654Y-79622619D02*
X190512654Y-79165476D01*
X190512654Y-79394047D02*
X189712654Y-79394047D01*
X189826940Y-79317857D01*
X189903130Y-79241666D01*
X189941226Y-79165476D01*
X189979321Y-80308333D02*
X190512654Y-80308333D01*
X189674559Y-80117857D02*
X190245988Y-79927380D01*
X190245988Y-80422619D01*
%TO.C,D13*%
X171468654Y-76022321D02*
X170668654Y-76022321D01*
X170668654Y-76212797D01*
X170706750Y-76327083D01*
X170782940Y-76403273D01*
X170859130Y-76441369D01*
X171011511Y-76479464D01*
X171125797Y-76479464D01*
X171278178Y-76441369D01*
X171354369Y-76403273D01*
X171430559Y-76327083D01*
X171468654Y-76212797D01*
X171468654Y-76022321D01*
X171468654Y-77241369D02*
X171468654Y-76784226D01*
X171468654Y-77012797D02*
X170668654Y-77012797D01*
X170782940Y-76936607D01*
X170859130Y-76860416D01*
X170897226Y-76784226D01*
X170668654Y-77508035D02*
X170668654Y-78003273D01*
X170973416Y-77736607D01*
X170973416Y-77850892D01*
X171011511Y-77927083D01*
X171049607Y-77965178D01*
X171125797Y-78003273D01*
X171316273Y-78003273D01*
X171392464Y-77965178D01*
X171430559Y-77927083D01*
X171468654Y-77850892D01*
X171468654Y-77622321D01*
X171430559Y-77546130D01*
X171392464Y-77508035D01*
%TO.C,D12*%
X152424654Y-78403571D02*
X151624654Y-78403571D01*
X151624654Y-78594047D01*
X151662750Y-78708333D01*
X151738940Y-78784523D01*
X151815130Y-78822619D01*
X151967511Y-78860714D01*
X152081797Y-78860714D01*
X152234178Y-78822619D01*
X152310369Y-78784523D01*
X152386559Y-78708333D01*
X152424654Y-78594047D01*
X152424654Y-78403571D01*
X152424654Y-79622619D02*
X152424654Y-79165476D01*
X152424654Y-79394047D02*
X151624654Y-79394047D01*
X151738940Y-79317857D01*
X151815130Y-79241666D01*
X151853226Y-79165476D01*
X151700845Y-79927380D02*
X151662750Y-79965476D01*
X151624654Y-80041666D01*
X151624654Y-80232142D01*
X151662750Y-80308333D01*
X151700845Y-80346428D01*
X151777035Y-80384523D01*
X151853226Y-80384523D01*
X151967511Y-80346428D01*
X152424654Y-79889285D01*
X152424654Y-80384523D01*
%TO.C,D11*%
X133380654Y-80784821D02*
X132580654Y-80784821D01*
X132580654Y-80975297D01*
X132618750Y-81089583D01*
X132694940Y-81165773D01*
X132771130Y-81203869D01*
X132923511Y-81241964D01*
X133037797Y-81241964D01*
X133190178Y-81203869D01*
X133266369Y-81165773D01*
X133342559Y-81089583D01*
X133380654Y-80975297D01*
X133380654Y-80784821D01*
X133380654Y-82003869D02*
X133380654Y-81546726D01*
X133380654Y-81775297D02*
X132580654Y-81775297D01*
X132694940Y-81699107D01*
X132771130Y-81622916D01*
X132809226Y-81546726D01*
X133380654Y-82765773D02*
X133380654Y-82308630D01*
X133380654Y-82537202D02*
X132580654Y-82537202D01*
X132694940Y-82461011D01*
X132771130Y-82384821D01*
X132809226Y-82308630D01*
%TO.C,D5*%
X209556654Y-62909523D02*
X208756654Y-62909523D01*
X208756654Y-63100000D01*
X208794750Y-63214285D01*
X208870940Y-63290476D01*
X208947130Y-63328571D01*
X209099511Y-63366666D01*
X209213797Y-63366666D01*
X209366178Y-63328571D01*
X209442369Y-63290476D01*
X209518559Y-63214285D01*
X209556654Y-63100000D01*
X209556654Y-62909523D01*
X208756654Y-64090476D02*
X208756654Y-63709523D01*
X209137607Y-63671428D01*
X209099511Y-63709523D01*
X209061416Y-63785714D01*
X209061416Y-63976190D01*
X209099511Y-64052380D01*
X209137607Y-64090476D01*
X209213797Y-64128571D01*
X209404273Y-64128571D01*
X209480464Y-64090476D01*
X209518559Y-64052380D01*
X209556654Y-63976190D01*
X209556654Y-63785714D01*
X209518559Y-63709523D01*
X209480464Y-63671428D01*
%TO.C,D4*%
X190512654Y-59734523D02*
X189712654Y-59734523D01*
X189712654Y-59925000D01*
X189750750Y-60039285D01*
X189826940Y-60115476D01*
X189903130Y-60153571D01*
X190055511Y-60191666D01*
X190169797Y-60191666D01*
X190322178Y-60153571D01*
X190398369Y-60115476D01*
X190474559Y-60039285D01*
X190512654Y-59925000D01*
X190512654Y-59734523D01*
X189979321Y-60877380D02*
X190512654Y-60877380D01*
X189674559Y-60686904D02*
X190245988Y-60496428D01*
X190245988Y-60991666D01*
%TO.C,D3*%
X171468654Y-57353273D02*
X170668654Y-57353273D01*
X170668654Y-57543750D01*
X170706750Y-57658035D01*
X170782940Y-57734226D01*
X170859130Y-57772321D01*
X171011511Y-57810416D01*
X171125797Y-57810416D01*
X171278178Y-57772321D01*
X171354369Y-57734226D01*
X171430559Y-57658035D01*
X171468654Y-57543750D01*
X171468654Y-57353273D01*
X170668654Y-58077083D02*
X170668654Y-58572321D01*
X170973416Y-58305654D01*
X170973416Y-58419940D01*
X171011511Y-58496130D01*
X171049607Y-58534226D01*
X171125797Y-58572321D01*
X171316273Y-58572321D01*
X171392464Y-58534226D01*
X171430559Y-58496130D01*
X171468654Y-58419940D01*
X171468654Y-58191369D01*
X171430559Y-58115178D01*
X171392464Y-58077083D01*
%TO.C,D2*%
X152424654Y-59734523D02*
X151624654Y-59734523D01*
X151624654Y-59925000D01*
X151662750Y-60039285D01*
X151738940Y-60115476D01*
X151815130Y-60153571D01*
X151967511Y-60191666D01*
X152081797Y-60191666D01*
X152234178Y-60153571D01*
X152310369Y-60115476D01*
X152386559Y-60039285D01*
X152424654Y-59925000D01*
X152424654Y-59734523D01*
X151700845Y-60496428D02*
X151662750Y-60534523D01*
X151624654Y-60610714D01*
X151624654Y-60801190D01*
X151662750Y-60877380D01*
X151700845Y-60915476D01*
X151777035Y-60953571D01*
X151853226Y-60953571D01*
X151967511Y-60915476D01*
X152424654Y-60458333D01*
X152424654Y-60953571D01*
%TO.C,D1*%
X133380654Y-62115773D02*
X132580654Y-62115773D01*
X132580654Y-62306250D01*
X132618750Y-62420535D01*
X132694940Y-62496726D01*
X132771130Y-62534821D01*
X132923511Y-62572916D01*
X133037797Y-62572916D01*
X133190178Y-62534821D01*
X133266369Y-62496726D01*
X133342559Y-62420535D01*
X133380654Y-62306250D01*
X133380654Y-62115773D01*
X133380654Y-63334821D02*
X133380654Y-62877678D01*
X133380654Y-63106250D02*
X132580654Y-63106250D01*
X132694940Y-63030059D01*
X132771130Y-62953869D01*
X132809226Y-62877678D01*
%TO.C,U1*%
X103619226Y-84199404D02*
X103619226Y-83399404D01*
X103428750Y-83399404D01*
X103314464Y-83437500D01*
X103238273Y-83513690D01*
X103200178Y-83589880D01*
X103162083Y-83742261D01*
X103162083Y-83856547D01*
X103200178Y-84008928D01*
X103238273Y-84085119D01*
X103314464Y-84161309D01*
X103428750Y-84199404D01*
X103619226Y-84199404D01*
X102438273Y-83399404D02*
X102819226Y-83399404D01*
X102857321Y-83780357D01*
X102819226Y-83742261D01*
X102743035Y-83704166D01*
X102552559Y-83704166D01*
X102476369Y-83742261D01*
X102438273Y-83780357D01*
X102400178Y-83856547D01*
X102400178Y-84047023D01*
X102438273Y-84123214D01*
X102476369Y-84161309D01*
X102552559Y-84199404D01*
X102743035Y-84199404D01*
X102819226Y-84161309D01*
X102857321Y-84123214D01*
X108375416Y-83780357D02*
X108642083Y-83780357D01*
X108642083Y-84199404D02*
X108642083Y-83399404D01*
X108261130Y-83399404D01*
X107537321Y-84199404D02*
X107994464Y-84199404D01*
X107765892Y-84199404D02*
X107765892Y-83399404D01*
X107842083Y-83513690D01*
X107918273Y-83589880D01*
X107994464Y-83627976D01*
X105702083Y-84123214D02*
X105740178Y-84161309D01*
X105854464Y-84199404D01*
X105930654Y-84199404D01*
X106044940Y-84161309D01*
X106121130Y-84085119D01*
X106159226Y-84008928D01*
X106197321Y-83856547D01*
X106197321Y-83742261D01*
X106159226Y-83589880D01*
X106121130Y-83513690D01*
X106044940Y-83437500D01*
X105930654Y-83399404D01*
X105854464Y-83399404D01*
X105740178Y-83437500D01*
X105702083Y-83475595D01*
X105435416Y-83399404D02*
X104902083Y-83399404D01*
X105244940Y-84199404D01*
X112133741Y-83901797D02*
X112086601Y-83996078D01*
X112086601Y-84043219D01*
X112110171Y-84113929D01*
X112180882Y-84184640D01*
X112251592Y-84208210D01*
X112298733Y-84208210D01*
X112369443Y-84184640D01*
X112558005Y-83996078D01*
X112063030Y-83501103D01*
X111898039Y-83666095D01*
X111874469Y-83736806D01*
X111874469Y-83783946D01*
X111898039Y-83854657D01*
X111945179Y-83901797D01*
X112015890Y-83925367D01*
X112063030Y-83925367D01*
X112133741Y-83901797D01*
X112298733Y-83736806D01*
X111355924Y-84208210D02*
X111450205Y-84113929D01*
X111520915Y-84090359D01*
X111568056Y-84090359D01*
X111685907Y-84113929D01*
X111803758Y-84184640D01*
X111992320Y-84373202D01*
X112015890Y-84443912D01*
X112015890Y-84491053D01*
X111992320Y-84561764D01*
X111898039Y-84656044D01*
X111827328Y-84679615D01*
X111780188Y-84679615D01*
X111709477Y-84656044D01*
X111591626Y-84538193D01*
X111568056Y-84467483D01*
X111568056Y-84420342D01*
X111591626Y-84349632D01*
X111685907Y-84255351D01*
X111756617Y-84231780D01*
X111803758Y-84231780D01*
X111874469Y-84255351D01*
X110302083Y-83987500D02*
X110535416Y-83987500D01*
X110535416Y-84354166D02*
X110535416Y-83654166D01*
X110202083Y-83654166D01*
X109802083Y-83654166D02*
X109735416Y-83654166D01*
X109668750Y-83687500D01*
X109635416Y-83720833D01*
X109602083Y-83787500D01*
X109568750Y-83920833D01*
X109568750Y-84087500D01*
X109602083Y-84220833D01*
X109635416Y-84287500D01*
X109668750Y-84320833D01*
X109735416Y-84354166D01*
X109802083Y-84354166D01*
X109868750Y-84320833D01*
X109902083Y-84287500D01*
X109935416Y-84220833D01*
X109968750Y-84087500D01*
X109968750Y-83920833D01*
X109935416Y-83787500D01*
X109902083Y-83720833D01*
X109868750Y-83687500D01*
X109802083Y-83654166D01*
X101352083Y-83987500D02*
X101252083Y-84020833D01*
X101218750Y-84054166D01*
X101185416Y-84120833D01*
X101185416Y-84220833D01*
X101218750Y-84287500D01*
X101252083Y-84320833D01*
X101318750Y-84354166D01*
X101585416Y-84354166D01*
X101585416Y-83654166D01*
X101352083Y-83654166D01*
X101285416Y-83687500D01*
X101252083Y-83720833D01*
X101218750Y-83787500D01*
X101218750Y-83854166D01*
X101252083Y-83920833D01*
X101285416Y-83954166D01*
X101352083Y-83987500D01*
X101585416Y-83987500D01*
X100952083Y-83654166D02*
X100485416Y-83654166D01*
X100785416Y-84354166D01*
X111142083Y-62851309D02*
X111027797Y-62889404D01*
X110837321Y-62889404D01*
X110761130Y-62851309D01*
X110723035Y-62813214D01*
X110684940Y-62737023D01*
X110684940Y-62660833D01*
X110723035Y-62584642D01*
X110761130Y-62546547D01*
X110837321Y-62508452D01*
X110989702Y-62470357D01*
X111065892Y-62432261D01*
X111103988Y-62394166D01*
X111142083Y-62317976D01*
X111142083Y-62241785D01*
X111103988Y-62165595D01*
X111065892Y-62127500D01*
X110989702Y-62089404D01*
X110799226Y-62089404D01*
X110684940Y-62127500D01*
X110456369Y-62089404D02*
X109999226Y-62089404D01*
X110227797Y-62889404D02*
X110227797Y-62089404D01*
X104187354Y-57029404D02*
X103730211Y-57029404D01*
X103958782Y-57829404D02*
X103958782Y-57029404D01*
X103539735Y-57029404D02*
X103006401Y-57829404D01*
X103006401Y-57029404D02*
X103539735Y-57829404D01*
X102549258Y-57029404D02*
X102473068Y-57029404D01*
X102396878Y-57067500D01*
X102358782Y-57105595D01*
X102320687Y-57181785D01*
X102282592Y-57334166D01*
X102282592Y-57524642D01*
X102320687Y-57677023D01*
X102358782Y-57753214D01*
X102396878Y-57791309D01*
X102473068Y-57829404D01*
X102549258Y-57829404D01*
X102625449Y-57791309D01*
X102663544Y-57753214D01*
X102701639Y-57677023D01*
X102739735Y-57524642D01*
X102739735Y-57334166D01*
X102701639Y-57181785D01*
X102663544Y-57105595D01*
X102625449Y-57067500D01*
X102549258Y-57029404D01*
X101368306Y-56991309D02*
X102054020Y-58019880D01*
X101101639Y-57829404D02*
X101101639Y-57029404D01*
X100911163Y-57029404D01*
X100796878Y-57067500D01*
X100720687Y-57143690D01*
X100682592Y-57219880D01*
X100644497Y-57372261D01*
X100644497Y-57486547D01*
X100682592Y-57638928D01*
X100720687Y-57715119D01*
X100796878Y-57791309D01*
X100911163Y-57829404D01*
X101101639Y-57829404D01*
X100377830Y-57029404D02*
X99882592Y-57029404D01*
X100149258Y-57334166D01*
X100034973Y-57334166D01*
X99958782Y-57372261D01*
X99920687Y-57410357D01*
X99882592Y-57486547D01*
X99882592Y-57677023D01*
X99920687Y-57753214D01*
X99958782Y-57791309D01*
X100034973Y-57829404D01*
X100263544Y-57829404D01*
X100339735Y-57791309D01*
X100377830Y-57753214D01*
X111353559Y-82810357D02*
X111239273Y-82848452D01*
X111201178Y-82886547D01*
X111163083Y-82962738D01*
X111163083Y-83077023D01*
X111201178Y-83153214D01*
X111239273Y-83191309D01*
X111315464Y-83229404D01*
X111620226Y-83229404D01*
X111620226Y-82429404D01*
X111353559Y-82429404D01*
X111277369Y-82467500D01*
X111239273Y-82505595D01*
X111201178Y-82581785D01*
X111201178Y-82657976D01*
X111239273Y-82734166D01*
X111277369Y-82772261D01*
X111353559Y-82810357D01*
X111620226Y-82810357D01*
X110858321Y-82505595D02*
X110820226Y-82467500D01*
X110744035Y-82429404D01*
X110553559Y-82429404D01*
X110477369Y-82467500D01*
X110439273Y-82505595D01*
X110401178Y-82581785D01*
X110401178Y-82657976D01*
X110439273Y-82772261D01*
X110896416Y-83229404D01*
X110401178Y-83229404D01*
X111296416Y-75190357D02*
X111563083Y-75190357D01*
X111563083Y-75609404D02*
X111563083Y-74809404D01*
X111182130Y-74809404D01*
X110953559Y-74809404D02*
X110420226Y-74809404D01*
X110763083Y-75609404D01*
X111296416Y-72650357D02*
X111563083Y-72650357D01*
X111563083Y-73069404D02*
X111563083Y-72269404D01*
X111182130Y-72269404D01*
X110534511Y-72269404D02*
X110686892Y-72269404D01*
X110763083Y-72307500D01*
X110801178Y-72345595D01*
X110877369Y-72459880D01*
X110915464Y-72612261D01*
X110915464Y-72917023D01*
X110877369Y-72993214D01*
X110839273Y-73031309D01*
X110763083Y-73069404D01*
X110610702Y-73069404D01*
X110534511Y-73031309D01*
X110496416Y-72993214D01*
X110458321Y-72917023D01*
X110458321Y-72726547D01*
X110496416Y-72650357D01*
X110534511Y-72612261D01*
X110610702Y-72574166D01*
X110763083Y-72574166D01*
X110839273Y-72612261D01*
X110877369Y-72650357D01*
X110915464Y-72726547D01*
X111296416Y-70110357D02*
X111563083Y-70110357D01*
X111563083Y-70529404D02*
X111563083Y-69729404D01*
X111182130Y-69729404D01*
X110496416Y-69729404D02*
X110877369Y-69729404D01*
X110915464Y-70110357D01*
X110877369Y-70072261D01*
X110801178Y-70034166D01*
X110610702Y-70034166D01*
X110534511Y-70072261D01*
X110496416Y-70110357D01*
X110458321Y-70186547D01*
X110458321Y-70377023D01*
X110496416Y-70453214D01*
X110534511Y-70491309D01*
X110610702Y-70529404D01*
X110801178Y-70529404D01*
X110877369Y-70491309D01*
X110915464Y-70453214D01*
X111353559Y-57410357D02*
X111239273Y-57448452D01*
X111201178Y-57486547D01*
X111163083Y-57562738D01*
X111163083Y-57677023D01*
X111201178Y-57753214D01*
X111239273Y-57791309D01*
X111315464Y-57829404D01*
X111620226Y-57829404D01*
X111620226Y-57029404D01*
X111353559Y-57029404D01*
X111277369Y-57067500D01*
X111239273Y-57105595D01*
X111201178Y-57181785D01*
X111201178Y-57257976D01*
X111239273Y-57334166D01*
X111277369Y-57372261D01*
X111353559Y-57410357D01*
X111620226Y-57410357D01*
X110667845Y-57029404D02*
X110591654Y-57029404D01*
X110515464Y-57067500D01*
X110477369Y-57105595D01*
X110439273Y-57181785D01*
X110401178Y-57334166D01*
X110401178Y-57524642D01*
X110439273Y-57677023D01*
X110477369Y-57753214D01*
X110515464Y-57791309D01*
X110591654Y-57829404D01*
X110667845Y-57829404D01*
X110744035Y-57791309D01*
X110782130Y-57753214D01*
X110820226Y-57677023D01*
X110858321Y-57524642D01*
X110858321Y-57334166D01*
X110820226Y-57181785D01*
X110782130Y-57105595D01*
X110744035Y-57067500D01*
X110667845Y-57029404D01*
X111639273Y-59607500D02*
X111715464Y-59569404D01*
X111829750Y-59569404D01*
X111944035Y-59607500D01*
X112020226Y-59683690D01*
X112058321Y-59759880D01*
X112096416Y-59912261D01*
X112096416Y-60026547D01*
X112058321Y-60178928D01*
X112020226Y-60255119D01*
X111944035Y-60331309D01*
X111829750Y-60369404D01*
X111753559Y-60369404D01*
X111639273Y-60331309D01*
X111601178Y-60293214D01*
X111601178Y-60026547D01*
X111753559Y-60026547D01*
X111258321Y-60369404D02*
X111258321Y-59569404D01*
X110801178Y-60369404D01*
X110801178Y-59569404D01*
X110420226Y-60369404D02*
X110420226Y-59569404D01*
X110229750Y-59569404D01*
X110115464Y-59607500D01*
X110039273Y-59683690D01*
X110001178Y-59759880D01*
X109963083Y-59912261D01*
X109963083Y-60026547D01*
X110001178Y-60178928D01*
X110039273Y-60255119D01*
X110115464Y-60331309D01*
X110229750Y-60369404D01*
X110420226Y-60369404D01*
X112096416Y-64649404D02*
X111829750Y-65449404D01*
X111563083Y-64649404D01*
X110839273Y-65373214D02*
X110877369Y-65411309D01*
X110991654Y-65449404D01*
X111067845Y-65449404D01*
X111182130Y-65411309D01*
X111258321Y-65335119D01*
X111296416Y-65258928D01*
X111334511Y-65106547D01*
X111334511Y-64992261D01*
X111296416Y-64839880D01*
X111258321Y-64763690D01*
X111182130Y-64687500D01*
X111067845Y-64649404D01*
X110991654Y-64649404D01*
X110877369Y-64687500D01*
X110839273Y-64725595D01*
X110039273Y-65373214D02*
X110077369Y-65411309D01*
X110191654Y-65449404D01*
X110267845Y-65449404D01*
X110382130Y-65411309D01*
X110458321Y-65335119D01*
X110496416Y-65258928D01*
X110534511Y-65106547D01*
X110534511Y-64992261D01*
X110496416Y-64839880D01*
X110458321Y-64763690D01*
X110382130Y-64687500D01*
X110267845Y-64649404D01*
X110191654Y-64649404D01*
X110077369Y-64687500D01*
X110039273Y-64725595D01*
X111296416Y-67570357D02*
X111563083Y-67570357D01*
X111563083Y-67989404D02*
X111563083Y-67189404D01*
X111182130Y-67189404D01*
X110534511Y-67456071D02*
X110534511Y-67989404D01*
X110724988Y-67151309D02*
X110915464Y-67722738D01*
X110420226Y-67722738D01*
X111353559Y-77730357D02*
X111239273Y-77768452D01*
X111201178Y-77806547D01*
X111163083Y-77882738D01*
X111163083Y-77997023D01*
X111201178Y-78073214D01*
X111239273Y-78111309D01*
X111315464Y-78149404D01*
X111620226Y-78149404D01*
X111620226Y-77349404D01*
X111353559Y-77349404D01*
X111277369Y-77387500D01*
X111239273Y-77425595D01*
X111201178Y-77501785D01*
X111201178Y-77577976D01*
X111239273Y-77654166D01*
X111277369Y-77692261D01*
X111353559Y-77730357D01*
X111620226Y-77730357D01*
X110401178Y-78149404D02*
X110858321Y-78149404D01*
X110629750Y-78149404D02*
X110629750Y-77349404D01*
X110705940Y-77463690D01*
X110782130Y-77539880D01*
X110858321Y-77577976D01*
X111353559Y-80270357D02*
X111239273Y-80308452D01*
X111201178Y-80346547D01*
X111163083Y-80422738D01*
X111163083Y-80537023D01*
X111201178Y-80613214D01*
X111239273Y-80651309D01*
X111315464Y-80689404D01*
X111620226Y-80689404D01*
X111620226Y-79889404D01*
X111353559Y-79889404D01*
X111277369Y-79927500D01*
X111239273Y-79965595D01*
X111201178Y-80041785D01*
X111201178Y-80117976D01*
X111239273Y-80194166D01*
X111277369Y-80232261D01*
X111353559Y-80270357D01*
X111620226Y-80270357D01*
X110896416Y-79889404D02*
X110401178Y-79889404D01*
X110667845Y-80194166D01*
X110553559Y-80194166D01*
X110477369Y-80232261D01*
X110439273Y-80270357D01*
X110401178Y-80346547D01*
X110401178Y-80537023D01*
X110439273Y-80613214D01*
X110477369Y-80651309D01*
X110553559Y-80689404D01*
X110782130Y-80689404D01*
X110858321Y-80651309D01*
X110896416Y-80613214D01*
X99404452Y-84302491D02*
X99310171Y-84255351D01*
X99263030Y-84255351D01*
X99192320Y-84278921D01*
X99121609Y-84349632D01*
X99098039Y-84420342D01*
X99098039Y-84467483D01*
X99121609Y-84538193D01*
X99310171Y-84726755D01*
X99805146Y-84231780D01*
X99640154Y-84066789D01*
X99569443Y-84043219D01*
X99522303Y-84043219D01*
X99451592Y-84066789D01*
X99404452Y-84113929D01*
X99380882Y-84184640D01*
X99380882Y-84231780D01*
X99404452Y-84302491D01*
X99569443Y-84467483D01*
X99074469Y-83501103D02*
X99310171Y-83736806D01*
X99098039Y-83996078D01*
X99098039Y-83948938D01*
X99074469Y-83878227D01*
X98956617Y-83760376D01*
X98885907Y-83736806D01*
X98838766Y-83736806D01*
X98768056Y-83760376D01*
X98650205Y-83878227D01*
X98626634Y-83948938D01*
X98626634Y-83996078D01*
X98650205Y-84066789D01*
X98768056Y-84184640D01*
X98838766Y-84208210D01*
X98885907Y-84208210D01*
X100431559Y-82810357D02*
X100317273Y-82848452D01*
X100279178Y-82886547D01*
X100241083Y-82962738D01*
X100241083Y-83077023D01*
X100279178Y-83153214D01*
X100317273Y-83191309D01*
X100393464Y-83229404D01*
X100698226Y-83229404D01*
X100698226Y-82429404D01*
X100431559Y-82429404D01*
X100355369Y-82467500D01*
X100317273Y-82505595D01*
X100279178Y-82581785D01*
X100279178Y-82657976D01*
X100317273Y-82734166D01*
X100355369Y-82772261D01*
X100431559Y-82810357D01*
X100698226Y-82810357D01*
X99555369Y-82696071D02*
X99555369Y-83229404D01*
X99745845Y-82391309D02*
X99936321Y-82962738D01*
X99441083Y-82962738D01*
X100660130Y-80270357D02*
X100393464Y-80270357D01*
X100279178Y-80689404D02*
X100660130Y-80689404D01*
X100660130Y-79889404D01*
X100279178Y-79889404D01*
X99593464Y-79889404D02*
X99745845Y-79889404D01*
X99822035Y-79927500D01*
X99860130Y-79965595D01*
X99936321Y-80079880D01*
X99974416Y-80232261D01*
X99974416Y-80537023D01*
X99936321Y-80613214D01*
X99898226Y-80651309D01*
X99822035Y-80689404D01*
X99669654Y-80689404D01*
X99593464Y-80651309D01*
X99555369Y-80613214D01*
X99517273Y-80537023D01*
X99517273Y-80346547D01*
X99555369Y-80270357D01*
X99593464Y-80232261D01*
X99669654Y-80194166D01*
X99822035Y-80194166D01*
X99898226Y-80232261D01*
X99936321Y-80270357D01*
X99974416Y-80346547D01*
X100698226Y-78149404D02*
X100698226Y-77349404D01*
X100507750Y-77349404D01*
X100393464Y-77387500D01*
X100317273Y-77463690D01*
X100279178Y-77539880D01*
X100241083Y-77692261D01*
X100241083Y-77806547D01*
X100279178Y-77958928D01*
X100317273Y-78035119D01*
X100393464Y-78111309D01*
X100507750Y-78149404D01*
X100698226Y-78149404D01*
X99974416Y-77349404D02*
X99441083Y-77349404D01*
X99783940Y-78149404D01*
X100241083Y-75533214D02*
X100279178Y-75571309D01*
X100393464Y-75609404D01*
X100469654Y-75609404D01*
X100583940Y-75571309D01*
X100660130Y-75495119D01*
X100698226Y-75418928D01*
X100736321Y-75266547D01*
X100736321Y-75152261D01*
X100698226Y-74999880D01*
X100660130Y-74923690D01*
X100583940Y-74847500D01*
X100469654Y-74809404D01*
X100393464Y-74809404D01*
X100279178Y-74847500D01*
X100241083Y-74885595D01*
X99555369Y-74809404D02*
X99707750Y-74809404D01*
X99783940Y-74847500D01*
X99822035Y-74885595D01*
X99898226Y-74999880D01*
X99936321Y-75152261D01*
X99936321Y-75457023D01*
X99898226Y-75533214D01*
X99860130Y-75571309D01*
X99783940Y-75609404D01*
X99631559Y-75609404D01*
X99555369Y-75571309D01*
X99517273Y-75533214D01*
X99479178Y-75457023D01*
X99479178Y-75266547D01*
X99517273Y-75190357D01*
X99555369Y-75152261D01*
X99631559Y-75114166D01*
X99783940Y-75114166D01*
X99860130Y-75152261D01*
X99898226Y-75190357D01*
X99936321Y-75266547D01*
X100698226Y-73069404D02*
X100698226Y-72269404D01*
X100507750Y-72269404D01*
X100393464Y-72307500D01*
X100317273Y-72383690D01*
X100279178Y-72459880D01*
X100241083Y-72612261D01*
X100241083Y-72726547D01*
X100279178Y-72878928D01*
X100317273Y-72955119D01*
X100393464Y-73031309D01*
X100507750Y-73069404D01*
X100698226Y-73069404D01*
X99555369Y-72536071D02*
X99555369Y-73069404D01*
X99745845Y-72231309D02*
X99936321Y-72802738D01*
X99441083Y-72802738D01*
X100717273Y-62147500D02*
X100793464Y-62109404D01*
X100907750Y-62109404D01*
X101022035Y-62147500D01*
X101098226Y-62223690D01*
X101136321Y-62299880D01*
X101174416Y-62452261D01*
X101174416Y-62566547D01*
X101136321Y-62718928D01*
X101098226Y-62795119D01*
X101022035Y-62871309D01*
X100907750Y-62909404D01*
X100831559Y-62909404D01*
X100717273Y-62871309D01*
X100679178Y-62833214D01*
X100679178Y-62566547D01*
X100831559Y-62566547D01*
X100336321Y-62909404D02*
X100336321Y-62109404D01*
X99879178Y-62909404D01*
X99879178Y-62109404D01*
X99498226Y-62909404D02*
X99498226Y-62109404D01*
X99307750Y-62109404D01*
X99193464Y-62147500D01*
X99117273Y-62223690D01*
X99079178Y-62299880D01*
X99041083Y-62452261D01*
X99041083Y-62566547D01*
X99079178Y-62718928D01*
X99117273Y-62795119D01*
X99193464Y-62871309D01*
X99307750Y-62909404D01*
X99498226Y-62909404D01*
X100717273Y-64687500D02*
X100793464Y-64649404D01*
X100907750Y-64649404D01*
X101022035Y-64687500D01*
X101098226Y-64763690D01*
X101136321Y-64839880D01*
X101174416Y-64992261D01*
X101174416Y-65106547D01*
X101136321Y-65258928D01*
X101098226Y-65335119D01*
X101022035Y-65411309D01*
X100907750Y-65449404D01*
X100831559Y-65449404D01*
X100717273Y-65411309D01*
X100679178Y-65373214D01*
X100679178Y-65106547D01*
X100831559Y-65106547D01*
X100336321Y-65449404D02*
X100336321Y-64649404D01*
X99879178Y-65449404D01*
X99879178Y-64649404D01*
X99498226Y-65449404D02*
X99498226Y-64649404D01*
X99307750Y-64649404D01*
X99193464Y-64687500D01*
X99117273Y-64763690D01*
X99079178Y-64839880D01*
X99041083Y-64992261D01*
X99041083Y-65106547D01*
X99079178Y-65258928D01*
X99117273Y-65335119D01*
X99193464Y-65411309D01*
X99307750Y-65449404D01*
X99498226Y-65449404D01*
X100698226Y-67989404D02*
X100698226Y-67189404D01*
X100507750Y-67189404D01*
X100393464Y-67227500D01*
X100317273Y-67303690D01*
X100279178Y-67379880D01*
X100241083Y-67532261D01*
X100241083Y-67646547D01*
X100279178Y-67798928D01*
X100317273Y-67875119D01*
X100393464Y-67951309D01*
X100507750Y-67989404D01*
X100698226Y-67989404D01*
X99479178Y-67989404D02*
X99936321Y-67989404D01*
X99707750Y-67989404D02*
X99707750Y-67189404D01*
X99783940Y-67303690D01*
X99860130Y-67379880D01*
X99936321Y-67417976D01*
X100698226Y-70529404D02*
X100698226Y-69729404D01*
X100507750Y-69729404D01*
X100393464Y-69767500D01*
X100317273Y-69843690D01*
X100279178Y-69919880D01*
X100241083Y-70072261D01*
X100241083Y-70186547D01*
X100279178Y-70338928D01*
X100317273Y-70415119D01*
X100393464Y-70491309D01*
X100507750Y-70529404D01*
X100698226Y-70529404D01*
X99745845Y-69729404D02*
X99669654Y-69729404D01*
X99593464Y-69767500D01*
X99555369Y-69805595D01*
X99517273Y-69881785D01*
X99479178Y-70034166D01*
X99479178Y-70224642D01*
X99517273Y-70377023D01*
X99555369Y-70453214D01*
X99593464Y-70491309D01*
X99669654Y-70529404D01*
X99745845Y-70529404D01*
X99822035Y-70491309D01*
X99860130Y-70453214D01*
X99898226Y-70377023D01*
X99936321Y-70224642D01*
X99936321Y-70034166D01*
X99898226Y-69881785D01*
X99860130Y-69805595D01*
X99822035Y-69767500D01*
X99745845Y-69729404D01*
X100698226Y-60369404D02*
X100698226Y-59569404D01*
X100507750Y-59569404D01*
X100393464Y-59607500D01*
X100317273Y-59683690D01*
X100279178Y-59759880D01*
X100241083Y-59912261D01*
X100241083Y-60026547D01*
X100279178Y-60178928D01*
X100317273Y-60255119D01*
X100393464Y-60331309D01*
X100507750Y-60369404D01*
X100698226Y-60369404D01*
X99936321Y-59645595D02*
X99898226Y-59607500D01*
X99822035Y-59569404D01*
X99631559Y-59569404D01*
X99555369Y-59607500D01*
X99517273Y-59645595D01*
X99479178Y-59721785D01*
X99479178Y-59797976D01*
X99517273Y-59912261D01*
X99974416Y-60369404D01*
X99479178Y-60369404D01*
%TD*%
M02*
