%TF.GenerationSoftware,KiCad,Pcbnew,(5.1.9-0-10_14)*%
%TF.CreationDate,2021-04-19T01:18:51-05:00*%
%TF.ProjectId,wren-right,7772656e-2d72-4696-9768-742e6b696361,rev?*%
%TF.SameCoordinates,Original*%
%TF.FileFunction,Soldermask,Top*%
%TF.FilePolarity,Negative*%
%FSLAX46Y46*%
G04 Gerber Fmt 4.6, Leading zero omitted, Abs format (unit mm)*
G04 Created by KiCad (PCBNEW (5.1.9-0-10_14)) date 2021-04-19 01:18:51*
%MOMM*%
%LPD*%
G01*
G04 APERTURE LIST*
%ADD10C,5.500000*%
%ADD11C,3.987800*%
%ADD12C,3.048000*%
%ADD13C,1.750000*%
%ADD14O,1.400000X1.400000*%
%ADD15C,1.400000*%
%ADD16C,1.600000*%
%ADD17R,1.600000X1.600000*%
%ADD18C,0.100000*%
%ADD19R,2.000000X2.000000*%
%ADD20C,2.000000*%
%ADD21R,2.000000X3.200000*%
%ADD22C,1.752600*%
%ADD23R,1.752600X1.752600*%
%ADD24C,1.200000*%
G04 APERTURE END LIST*
D10*
%TO.C,H7*%
X120650000Y-138112500D03*
%TD*%
%TO.C,H6*%
X135731250Y-110331250D03*
%TD*%
%TO.C,H3*%
X135731250Y-72231250D03*
%TD*%
%TO.C,H2*%
X211931250Y-73025000D03*
%TD*%
%TO.C,H1*%
X211913250Y-111125000D03*
%TD*%
D11*
%TO.C,MX41*%
X119766290Y-146069861D03*
X107828290Y-125392639D03*
D12*
X106568063Y-153689861D03*
X94630063Y-133012639D03*
D13*
X109188250Y-144258159D03*
X104108250Y-135459341D03*
D11*
X106648250Y-139858750D03*
%TD*%
D14*
%TO.C,R2*%
X108283750Y-70643750D03*
D15*
X103203750Y-70643750D03*
%TD*%
D14*
%TO.C,R1*%
X108283750Y-65087500D03*
D15*
X103203750Y-65087500D03*
%TD*%
D16*
%TO.C,D45*%
X192087500Y-135800000D03*
D17*
X192087500Y-143600000D03*
%TD*%
D16*
%TO.C,D44*%
X181768750Y-135800000D03*
D17*
X181768750Y-143600000D03*
%TD*%
D16*
%TO.C,D43*%
X162718750Y-135800000D03*
D17*
X162718750Y-143600000D03*
%TD*%
D16*
%TO.C,D42*%
X143672250Y-138181250D03*
D17*
X143672250Y-145981250D03*
%TD*%
D16*
%TO.C,D41*%
X114516249Y-145687500D03*
D18*
G36*
X107468431Y-150680320D02*
G01*
X106668431Y-149294680D01*
X108054071Y-148494680D01*
X108854071Y-149880320D01*
X107468431Y-150680320D01*
G37*
%TD*%
D16*
%TO.C,D36*%
X229370250Y-116750000D03*
D17*
X229370250Y-124550000D03*
%TD*%
D16*
%TO.C,D35*%
X211119750Y-116750000D03*
D17*
X211119750Y-124550000D03*
%TD*%
D16*
%TO.C,D34*%
X192075750Y-113575000D03*
D17*
X192075750Y-121375000D03*
%TD*%
D16*
%TO.C,D33*%
X173031750Y-111193750D03*
D17*
X173031750Y-118993750D03*
%TD*%
D16*
%TO.C,D32*%
X153987750Y-113575000D03*
D17*
X153987750Y-121375000D03*
%TD*%
D16*
%TO.C,D31*%
X134943750Y-115956250D03*
D17*
X134943750Y-123756250D03*
%TD*%
D16*
%TO.C,D26*%
X229370250Y-97700000D03*
D17*
X229370250Y-105500000D03*
%TD*%
D16*
%TO.C,D25*%
X211119750Y-97700000D03*
D17*
X211119750Y-105500000D03*
%TD*%
D16*
%TO.C,D24*%
X192075750Y-94525000D03*
D17*
X192075750Y-102325000D03*
%TD*%
D16*
%TO.C,D23*%
X173031750Y-92143750D03*
D17*
X173031750Y-99943750D03*
%TD*%
D16*
%TO.C,D22*%
X153987750Y-94525000D03*
D17*
X153987750Y-102325000D03*
%TD*%
D16*
%TO.C,D21*%
X134943750Y-96906250D03*
D17*
X134943750Y-104706250D03*
%TD*%
D16*
%TO.C,D16*%
X229370250Y-78650000D03*
D17*
X229370250Y-86450000D03*
%TD*%
D16*
%TO.C,D15*%
X211119750Y-78650000D03*
D17*
X211119750Y-86450000D03*
%TD*%
D16*
%TO.C,D14*%
X192075750Y-75475000D03*
D17*
X192075750Y-83275000D03*
%TD*%
D16*
%TO.C,D13*%
X173031750Y-73093750D03*
D17*
X173031750Y-80893750D03*
%TD*%
D16*
%TO.C,D12*%
X153987750Y-75475000D03*
D17*
X153987750Y-83275000D03*
%TD*%
D16*
%TO.C,D11*%
X134943750Y-77856250D03*
D17*
X134943750Y-85656250D03*
%TD*%
D16*
%TO.C,D6*%
X229370250Y-59600000D03*
D17*
X229370250Y-67400000D03*
%TD*%
D16*
%TO.C,D5*%
X211119750Y-59600000D03*
D17*
X211119750Y-67400000D03*
%TD*%
D16*
%TO.C,D4*%
X192075750Y-56425000D03*
D17*
X192075750Y-64225000D03*
%TD*%
D16*
%TO.C,D3*%
X173031750Y-54043750D03*
D17*
X173031750Y-61843750D03*
%TD*%
D16*
%TO.C,D2*%
X153987750Y-56425000D03*
D17*
X153987750Y-64225000D03*
%TD*%
D16*
%TO.C,D1*%
X134943750Y-58806250D03*
D17*
X134943750Y-66606250D03*
%TD*%
D19*
%TO.C,ENC1*%
X189579250Y-147097750D03*
D20*
X192079250Y-147097750D03*
X194579250Y-147097750D03*
D21*
X186479250Y-139597750D03*
X197679250Y-139597750D03*
D20*
X189579250Y-132597750D03*
X194579250Y-132597750D03*
%TD*%
D22*
%TO.C,U1*%
X100488750Y-85407500D03*
X103028750Y-85407500D03*
X105568750Y-85407500D03*
X108108750Y-85407500D03*
X110648750Y-85407500D03*
X113188750Y-57467500D03*
X98177350Y-85407500D03*
X113188750Y-60007500D03*
X113188750Y-62547500D03*
X113188750Y-65087500D03*
X113188750Y-67627500D03*
X113188750Y-70167500D03*
X113188750Y-72707500D03*
X113188750Y-75247500D03*
X113188750Y-77787500D03*
X113188750Y-80327500D03*
X113188750Y-82867500D03*
X113188750Y-85407500D03*
X97948750Y-82867500D03*
X97948750Y-80327500D03*
X97948750Y-77787500D03*
X97948750Y-75247500D03*
X97948750Y-72707500D03*
X97948750Y-70167500D03*
X97948750Y-67627500D03*
X97948750Y-65087500D03*
X97948750Y-62547500D03*
X97948750Y-60007500D03*
D23*
X97948750Y-57467500D03*
%TD*%
D20*
%TO.C,SW0*%
X108830250Y-89693750D03*
X108830250Y-94193750D03*
X102330250Y-89693750D03*
X102330250Y-94193750D03*
%TD*%
D24*
%TO.C,J1*%
X90748108Y-124467583D03*
X87248108Y-118405405D03*
G36*
G01*
X84106250Y-117563546D02*
X84106250Y-117563546D01*
G75*
G02*
X85062468Y-117819764I350000J-606218D01*
G01*
X85362468Y-118339380D01*
G75*
G02*
X85106250Y-119295598I-606218J-350000D01*
G01*
X85106250Y-119295598D01*
G75*
G02*
X84150032Y-119039380I-350000J606218D01*
G01*
X83850032Y-118519764D01*
G75*
G02*
X84106250Y-117563546I606218J350000D01*
G01*
G37*
G36*
G01*
X85606250Y-120161622D02*
X85606250Y-120161622D01*
G75*
G02*
X86562468Y-120417840I350000J-606218D01*
G01*
X86862468Y-120937456D01*
G75*
G02*
X86606250Y-121893674I-606218J-350000D01*
G01*
X86606250Y-121893674D01*
G75*
G02*
X85650032Y-121637456I-350000J606218D01*
G01*
X85350032Y-121117840D01*
G75*
G02*
X85606250Y-120161622I606218J350000D01*
G01*
G37*
D18*
G36*
X87000032Y-123975725D02*
G01*
X88212468Y-123275725D01*
X89212468Y-125007775D01*
X88000032Y-125707775D01*
X87000032Y-123975725D01*
G37*
G36*
G01*
X92253364Y-122674762D02*
X92253364Y-122674762D01*
G75*
G02*
X93209582Y-122930980I350000J-606218D01*
G01*
X93509582Y-123450596D01*
G75*
G02*
X93253364Y-124406814I-606218J-350000D01*
G01*
X93253364Y-124406814D01*
G75*
G02*
X92297146Y-124150596I-350000J606218D01*
G01*
X91997146Y-123630980D01*
G75*
G02*
X92253364Y-122674762I606218J350000D01*
G01*
G37*
G36*
G01*
X88869390Y-114813546D02*
X88869390Y-114813546D01*
G75*
G02*
X89825608Y-115069764I350000J-606218D01*
G01*
X90125608Y-115589380D01*
G75*
G02*
X89869390Y-116545598I-606218J-350000D01*
G01*
X89869390Y-116545598D01*
G75*
G02*
X88913172Y-116289380I-350000J606218D01*
G01*
X88613172Y-115769764D01*
G75*
G02*
X88869390Y-114813546I606218J350000D01*
G01*
G37*
%TD*%
D13*
%TO.C,MX44*%
X178117500Y-139700000D03*
X167957500Y-139700000D03*
D11*
X173037500Y-139700000D03*
%TD*%
D13*
%TO.C,MX43*%
X159067500Y-139700000D03*
X148907500Y-139700000D03*
D11*
X153987500Y-139700000D03*
%TD*%
D13*
%TO.C,MX42*%
X140017500Y-142081250D03*
X129857500Y-142081250D03*
D11*
X134937500Y-142081250D03*
%TD*%
D13*
%TO.C,MX36*%
X226536250Y-120650000D03*
X216376250Y-120650000D03*
D11*
X221456250Y-120650000D03*
%TD*%
D13*
%TO.C,MX35*%
X207486250Y-120650000D03*
X197326250Y-120650000D03*
D11*
X202406250Y-120650000D03*
%TD*%
D13*
%TO.C,MX34*%
X188436250Y-117475000D03*
X178276250Y-117475000D03*
D11*
X183356250Y-117475000D03*
%TD*%
D13*
%TO.C,MX33*%
X169386250Y-115093750D03*
X159226250Y-115093750D03*
D11*
X164306250Y-115093750D03*
%TD*%
D13*
%TO.C,MX32*%
X150336250Y-117475000D03*
X140176250Y-117475000D03*
D11*
X145256250Y-117475000D03*
%TD*%
D13*
%TO.C,MX31*%
X131286250Y-119856250D03*
X121126250Y-119856250D03*
D11*
X126206250Y-119856250D03*
%TD*%
D13*
%TO.C,MX26*%
X226536250Y-101600000D03*
X216376250Y-101600000D03*
D11*
X221456250Y-101600000D03*
%TD*%
D13*
%TO.C,MX25*%
X207486250Y-101600000D03*
X197326250Y-101600000D03*
D11*
X202406250Y-101600000D03*
%TD*%
D13*
%TO.C,MX24*%
X188436250Y-98425000D03*
X178276250Y-98425000D03*
D11*
X183356250Y-98425000D03*
%TD*%
D13*
%TO.C,MX23*%
X169386250Y-96043750D03*
X159226250Y-96043750D03*
D11*
X164306250Y-96043750D03*
%TD*%
D13*
%TO.C,MX22*%
X150336250Y-98425000D03*
X140176250Y-98425000D03*
D11*
X145256250Y-98425000D03*
%TD*%
D13*
%TO.C,MX21*%
X131286250Y-100806250D03*
X121126250Y-100806250D03*
D11*
X126206250Y-100806250D03*
%TD*%
D13*
%TO.C,MX16*%
X226536250Y-82550000D03*
X216376250Y-82550000D03*
D11*
X221456250Y-82550000D03*
%TD*%
D13*
%TO.C,MX15*%
X207486250Y-82550000D03*
X197326250Y-82550000D03*
D11*
X202406250Y-82550000D03*
%TD*%
D13*
%TO.C,MX14*%
X188436250Y-79375000D03*
X178276250Y-79375000D03*
D11*
X183356250Y-79375000D03*
%TD*%
D13*
%TO.C,MX13*%
X169386250Y-76993750D03*
X159226250Y-76993750D03*
D11*
X164306250Y-76993750D03*
%TD*%
D13*
%TO.C,MX12*%
X150336250Y-79375000D03*
X140176250Y-79375000D03*
D11*
X145256250Y-79375000D03*
%TD*%
D13*
%TO.C,MX11*%
X131286250Y-81756250D03*
X121126250Y-81756250D03*
D11*
X126206250Y-81756250D03*
%TD*%
D13*
%TO.C,MX6*%
X226536250Y-63500000D03*
X216376250Y-63500000D03*
D11*
X221456250Y-63500000D03*
%TD*%
D13*
%TO.C,MX5*%
X207486250Y-63500000D03*
X197326250Y-63500000D03*
D11*
X202406250Y-63500000D03*
%TD*%
D13*
%TO.C,MX4*%
X188436250Y-60325000D03*
X178276250Y-60325000D03*
D11*
X183356250Y-60325000D03*
%TD*%
D13*
%TO.C,MX3*%
X169386250Y-57943750D03*
X159226250Y-57943750D03*
D11*
X164306250Y-57943750D03*
%TD*%
D13*
%TO.C,MX2*%
X150336250Y-60325000D03*
X140176250Y-60325000D03*
D11*
X145256250Y-60325000D03*
%TD*%
D13*
%TO.C,MX1*%
X131286250Y-62706250D03*
X121126250Y-62706250D03*
D11*
X126206250Y-62706250D03*
%TD*%
M02*
