%TF.GenerationSoftware,KiCad,Pcbnew,(5.1.9-0-10_14)*%
%TF.CreationDate,2021-04-19T01:18:51-05:00*%
%TF.ProjectId,wren-right,7772656e-2d72-4696-9768-742e6b696361,rev?*%
%TF.SameCoordinates,Original*%
%TF.FileFunction,Legend,Top*%
%TF.FilePolarity,Positive*%
%FSLAX46Y46*%
G04 Gerber Fmt 4.6, Leading zero omitted, Abs format (unit mm)*
G04 Created by KiCad (PCBNEW (5.1.9-0-10_14)) date 2021-04-19 01:18:51*
%MOMM*%
%LPD*%
G01*
G04 APERTURE LIST*
%ADD10C,0.010000*%
%ADD11C,0.120000*%
%ADD12C,0.381000*%
%ADD13C,0.150000*%
G04 APERTURE END LIST*
D10*
%TO.C,G\u002A\u002A\u002A*%
G36*
X107490953Y-99162347D02*
G01*
X107550123Y-99181749D01*
X107675656Y-99272822D01*
X107743009Y-99402498D01*
X107751136Y-99547163D01*
X107698994Y-99683208D01*
X107585537Y-99787022D01*
X107577095Y-99791536D01*
X107473402Y-99839649D01*
X107400181Y-99846916D01*
X107314393Y-99814487D01*
X107284084Y-99799374D01*
X107161045Y-99701094D01*
X107101182Y-99576654D01*
X107097109Y-99443206D01*
X107141437Y-99317900D01*
X107226779Y-99217888D01*
X107345747Y-99160320D01*
X107490953Y-99162347D01*
G37*
X107490953Y-99162347D02*
X107550123Y-99181749D01*
X107675656Y-99272822D01*
X107743009Y-99402498D01*
X107751136Y-99547163D01*
X107698994Y-99683208D01*
X107585537Y-99787022D01*
X107577095Y-99791536D01*
X107473402Y-99839649D01*
X107400181Y-99846916D01*
X107314393Y-99814487D01*
X107284084Y-99799374D01*
X107161045Y-99701094D01*
X107101182Y-99576654D01*
X107097109Y-99443206D01*
X107141437Y-99317900D01*
X107226779Y-99217888D01*
X107345747Y-99160320D01*
X107490953Y-99162347D01*
G36*
X103851561Y-97827606D02*
G01*
X103908424Y-97830175D01*
X104050105Y-97838166D01*
X104164564Y-97850675D01*
X104269532Y-97873624D01*
X104382736Y-97912939D01*
X104521906Y-97974542D01*
X104704772Y-98064357D01*
X104889425Y-98157951D01*
X105498518Y-98467946D01*
X105995379Y-98354646D01*
X106435097Y-98272023D01*
X106820533Y-98240887D01*
X107166371Y-98263616D01*
X107487297Y-98342586D01*
X107797996Y-98480176D01*
X108113154Y-98678762D01*
X108146567Y-98702859D01*
X108365544Y-98908457D01*
X108567558Y-99190895D01*
X108748931Y-99543394D01*
X108905980Y-99959175D01*
X108994283Y-100264049D01*
X109054630Y-100553211D01*
X109107260Y-100922770D01*
X109151802Y-101368779D01*
X109187884Y-101887286D01*
X109215136Y-102474344D01*
X109222364Y-102690183D01*
X109233005Y-103029306D01*
X109242628Y-103295400D01*
X109252447Y-103500077D01*
X109263679Y-103654945D01*
X109277538Y-103771614D01*
X109295240Y-103861694D01*
X109318000Y-103936794D01*
X109347032Y-104008525D01*
X109364381Y-104046974D01*
X109452676Y-104206656D01*
X109572465Y-104382726D01*
X109674902Y-104510212D01*
X109839160Y-104711557D01*
X109949127Y-104894970D01*
X110014254Y-105086692D01*
X110043995Y-105312965D01*
X110048559Y-105547583D01*
X110026895Y-105921817D01*
X109972561Y-106292976D01*
X109890281Y-106641612D01*
X109784777Y-106948281D01*
X109660771Y-107193535D01*
X109641761Y-107222513D01*
X109506254Y-107388875D01*
X109362503Y-107485445D01*
X109184788Y-107525273D01*
X109041581Y-107527020D01*
X108774563Y-107516791D01*
X108474035Y-107893144D01*
X108339040Y-108057430D01*
X108208816Y-108207614D01*
X108100341Y-108324549D01*
X108042630Y-108379624D01*
X107911753Y-108489750D01*
X108116085Y-108489677D01*
X108221659Y-108486720D01*
X108402456Y-108478285D01*
X108649250Y-108464958D01*
X108952814Y-108447325D01*
X109303924Y-108425970D01*
X109693352Y-108401480D01*
X110111872Y-108374440D01*
X110550258Y-108345435D01*
X110999284Y-108315050D01*
X111449725Y-108283872D01*
X111892353Y-108252486D01*
X112164237Y-108232782D01*
X112478974Y-108210704D01*
X112767812Y-108192239D01*
X113019520Y-108177963D01*
X113222868Y-108168450D01*
X113366624Y-108164276D01*
X113439558Y-108166017D01*
X113444821Y-108167186D01*
X113490831Y-108223162D01*
X113505005Y-108315476D01*
X113484893Y-108401068D01*
X113459697Y-108428857D01*
X113406107Y-108439156D01*
X113275764Y-108454055D01*
X113076422Y-108472971D01*
X112815836Y-108495321D01*
X112501760Y-108520522D01*
X112141949Y-108547991D01*
X111744158Y-108577145D01*
X111316140Y-108607401D01*
X110865650Y-108638176D01*
X110400443Y-108668887D01*
X109928274Y-108698952D01*
X109590416Y-108719745D01*
X109276222Y-108739088D01*
X108974352Y-108758227D01*
X108699974Y-108776157D01*
X108468254Y-108791875D01*
X108294361Y-108804376D01*
X108210216Y-108811108D01*
X107930683Y-108835760D01*
X107992530Y-109012005D01*
X108026252Y-109163754D01*
X108045928Y-109366183D01*
X108050841Y-109586363D01*
X108040274Y-109791365D01*
X108013513Y-109948257D01*
X108012934Y-109950250D01*
X107969810Y-110042443D01*
X107895619Y-110075167D01*
X107851704Y-110077250D01*
X107727750Y-110077250D01*
X107727534Y-109611583D01*
X107716879Y-109314224D01*
X107685985Y-109084944D01*
X107636003Y-108927768D01*
X107568085Y-108846717D01*
X107506298Y-108838256D01*
X107450552Y-108879488D01*
X107446482Y-108915597D01*
X107456208Y-108984909D01*
X107468416Y-109113671D01*
X107480793Y-109276805D01*
X107483337Y-109315250D01*
X107491906Y-109491040D01*
X107487786Y-109606095D01*
X107467534Y-109683838D01*
X107427708Y-109747694D01*
X107418007Y-109759750D01*
X107347037Y-109829306D01*
X107287239Y-109835180D01*
X107254152Y-109818673D01*
X107213754Y-109778520D01*
X107188959Y-109706148D01*
X107175646Y-109582770D01*
X107170552Y-109437673D01*
X107161294Y-109260236D01*
X107143211Y-109101007D01*
X107119988Y-108991190D01*
X107116793Y-108982195D01*
X107069898Y-108860807D01*
X106679157Y-108888006D01*
X106566701Y-108894763D01*
X106386353Y-108904301D01*
X106150094Y-108916082D01*
X105869901Y-108929569D01*
X105557755Y-108944223D01*
X105225635Y-108959505D01*
X104885521Y-108974879D01*
X104549392Y-108989806D01*
X104229226Y-109003747D01*
X103937005Y-109016165D01*
X103684706Y-109026522D01*
X103484310Y-109034280D01*
X103347796Y-109038901D01*
X103295493Y-109039983D01*
X103252091Y-109047471D01*
X103247067Y-109084461D01*
X103279152Y-109173007D01*
X103286773Y-109191350D01*
X103324233Y-109329777D01*
X103340660Y-109496856D01*
X103337238Y-109667594D01*
X103315153Y-109817002D01*
X103275590Y-109920087D01*
X103251000Y-109945614D01*
X103157621Y-109976941D01*
X103091138Y-109934280D01*
X103049862Y-109815046D01*
X103032101Y-109616651D01*
X103031934Y-109610285D01*
X103008481Y-109361164D01*
X102953431Y-109180327D01*
X102868746Y-109072024D01*
X102769133Y-109040083D01*
X102692946Y-109050895D01*
X102683814Y-109093501D01*
X102691505Y-109114166D01*
X102771940Y-109358287D01*
X102814395Y-109611580D01*
X102818061Y-109851761D01*
X102782130Y-110056547D01*
X102729925Y-110171659D01*
X102666625Y-110249583D01*
X102606485Y-110259523D01*
X102542927Y-110226937D01*
X102511375Y-110184873D01*
X102491672Y-110097466D01*
X102481730Y-109950472D01*
X102479427Y-109793668D01*
X102471186Y-109546858D01*
X102446342Y-109365675D01*
X102405380Y-109238502D01*
X102332344Y-109077089D01*
X100923713Y-109111502D01*
X100534502Y-109120304D01*
X100126460Y-109128274D01*
X99719378Y-109135113D01*
X99333047Y-109140522D01*
X98987258Y-109144203D01*
X98701801Y-109145855D01*
X98647250Y-109145916D01*
X97779416Y-109145916D01*
X97765998Y-109029259D01*
X97774659Y-108931618D01*
X97809484Y-108890765D01*
X97864426Y-108884488D01*
X97993406Y-108876961D01*
X98185812Y-108868583D01*
X98431030Y-108859752D01*
X98718448Y-108850864D01*
X99037455Y-108842319D01*
X99214663Y-108838089D01*
X100562937Y-108807250D01*
X100555326Y-108332775D01*
X100557552Y-108286861D01*
X100863889Y-108286861D01*
X100873494Y-108506633D01*
X100900775Y-108798684D01*
X101816595Y-108770671D01*
X102124657Y-108760910D01*
X102492164Y-108748719D01*
X102893959Y-108734967D01*
X103304886Y-108720521D01*
X103699787Y-108706250D01*
X103917750Y-108698163D01*
X104306202Y-108682990D01*
X104739572Y-108665067D01*
X105188995Y-108645653D01*
X105625612Y-108626006D01*
X106020559Y-108607387D01*
X106189491Y-108599051D01*
X106521555Y-108582077D01*
X106780476Y-108567601D01*
X106977681Y-108554122D01*
X107124602Y-108540139D01*
X107232664Y-108524153D01*
X107313299Y-108504661D01*
X107377934Y-108480164D01*
X107437999Y-108449161D01*
X107469516Y-108430969D01*
X107697666Y-108266504D01*
X107942436Y-108034933D01*
X108192554Y-107749087D01*
X108436749Y-107421800D01*
X108574264Y-107206998D01*
X108976583Y-107206998D01*
X109013760Y-107215426D01*
X109105697Y-107213640D01*
X109131127Y-107211722D01*
X109282773Y-107167413D01*
X109363814Y-107092750D01*
X109457807Y-106924434D01*
X109543629Y-106695132D01*
X109618089Y-106424125D01*
X109677997Y-106130693D01*
X109720163Y-105834118D01*
X109741397Y-105553679D01*
X109738507Y-105308658D01*
X109708305Y-105118334D01*
X109696447Y-105082435D01*
X109649949Y-104992844D01*
X109575968Y-104881172D01*
X109491728Y-104769912D01*
X109414454Y-104681555D01*
X109361370Y-104638593D01*
X109355644Y-104637416D01*
X109335463Y-104675974D01*
X109309645Y-104777903D01*
X109283241Y-104922585D01*
X109279098Y-104949683D01*
X109256423Y-105141275D01*
X109256496Y-105288675D01*
X109280512Y-105429567D01*
X109296220Y-105489433D01*
X109357430Y-105741458D01*
X109384491Y-105958328D01*
X109374812Y-106162462D01*
X109325804Y-106376278D01*
X109234879Y-106622197D01*
X109140937Y-106834026D01*
X109069124Y-106990995D01*
X109013226Y-107116614D01*
X108981183Y-107192868D01*
X108976583Y-107206998D01*
X108574264Y-107206998D01*
X108654078Y-107082327D01*
X108831522Y-106766028D01*
X108956980Y-106499592D01*
X109033776Y-106268779D01*
X109065239Y-106059353D01*
X109054693Y-105857073D01*
X109005466Y-105647703D01*
X108996101Y-105618313D01*
X108946337Y-105350129D01*
X108952488Y-105027225D01*
X109014214Y-104658150D01*
X109038402Y-104559235D01*
X109072737Y-104415932D01*
X109084565Y-104310595D01*
X109072425Y-104207916D01*
X109034858Y-104072588D01*
X109015772Y-104012045D01*
X108988166Y-103917060D01*
X108965895Y-103816647D01*
X108947972Y-103699089D01*
X108933407Y-103552668D01*
X108921211Y-103365667D01*
X108910395Y-103126367D01*
X108899970Y-102823053D01*
X108891683Y-102541916D01*
X108874135Y-102035549D01*
X108851399Y-101601147D01*
X108822047Y-101226089D01*
X108784646Y-100897758D01*
X108737769Y-100603533D01*
X108679984Y-100330796D01*
X108612077Y-100074556D01*
X108468050Y-99667197D01*
X108290374Y-99331950D01*
X108072854Y-99060835D01*
X107809298Y-98845872D01*
X107547122Y-98702552D01*
X107307839Y-98611404D01*
X107068627Y-98560054D01*
X106811620Y-98548006D01*
X106518953Y-98574766D01*
X106172759Y-98639838D01*
X106076750Y-98661800D01*
X105848507Y-98713660D01*
X105627973Y-98760556D01*
X105439542Y-98797498D01*
X105307609Y-98819497D01*
X105302529Y-98820167D01*
X105180818Y-98840541D01*
X105104898Y-98862320D01*
X105091105Y-98875171D01*
X105115997Y-98923803D01*
X105168235Y-99024124D01*
X105225842Y-99134083D01*
X105383301Y-99485501D01*
X105510071Y-99872794D01*
X105602999Y-100276658D01*
X105658929Y-100677790D01*
X105674707Y-101056888D01*
X105647178Y-101394648D01*
X105618142Y-101534549D01*
X105559442Y-101693778D01*
X105476528Y-101843981D01*
X105438226Y-101894841D01*
X105392399Y-101946449D01*
X105343401Y-101997221D01*
X105282611Y-102054443D01*
X105201403Y-102125404D01*
X105091155Y-102217389D01*
X104943243Y-102337687D01*
X104749044Y-102493585D01*
X104499934Y-102692370D01*
X104404583Y-102768324D01*
X104147437Y-102980274D01*
X103855310Y-103233020D01*
X103544128Y-103511792D01*
X103229818Y-103801820D01*
X102928310Y-104088333D01*
X102655529Y-104356562D01*
X102427404Y-104591735D01*
X102361875Y-104662605D01*
X101970359Y-105130595D01*
X101647496Y-105602708D01*
X101379163Y-106100870D01*
X101254590Y-106382081D01*
X101188576Y-106543737D01*
X101137036Y-106674103D01*
X101107168Y-106754758D01*
X101102583Y-106771156D01*
X101133468Y-106757747D01*
X101215779Y-106703033D01*
X101333996Y-106617545D01*
X101381682Y-106581773D01*
X101662200Y-106385812D01*
X101918558Y-106245579D01*
X102176672Y-106148535D01*
X102382724Y-106097424D01*
X102836710Y-105966443D01*
X103278461Y-105766932D01*
X103692259Y-105509275D01*
X104062383Y-105203856D01*
X104373116Y-104861062D01*
X104479714Y-104712100D01*
X104583885Y-104592730D01*
X104682536Y-104556343D01*
X104773883Y-104603477D01*
X104788278Y-104619496D01*
X104812689Y-104693679D01*
X104783026Y-104798175D01*
X104696068Y-104938005D01*
X104548598Y-105118190D01*
X104337395Y-105343751D01*
X104298750Y-105383094D01*
X103943894Y-105706096D01*
X103573425Y-105966702D01*
X103169977Y-106174289D01*
X102716187Y-106338235D01*
X102353862Y-106433297D01*
X102109881Y-106516582D01*
X101846915Y-106652081D01*
X101584759Y-106825161D01*
X101343205Y-107021188D01*
X101142048Y-107225527D01*
X101001082Y-107423543D01*
X100992358Y-107439908D01*
X100940046Y-107588366D01*
X100899324Y-107795820D01*
X100873002Y-108037057D01*
X100863889Y-108286861D01*
X100557552Y-108286861D01*
X100586843Y-107682752D01*
X100701541Y-107042308D01*
X100898177Y-106414601D01*
X101175509Y-105802789D01*
X101532294Y-105210031D01*
X101967290Y-104639486D01*
X102042068Y-104552750D01*
X102284664Y-104289082D01*
X102580261Y-103989149D01*
X102913670Y-103666875D01*
X103269704Y-103336184D01*
X103633175Y-103010999D01*
X103988896Y-102705244D01*
X104321680Y-102432843D01*
X104531583Y-102270413D01*
X104804317Y-102059170D01*
X105011343Y-101883524D01*
X105160132Y-101736496D01*
X105258158Y-101611105D01*
X105283349Y-101568250D01*
X105322973Y-101439662D01*
X105346072Y-101247694D01*
X105352984Y-101011940D01*
X105344045Y-100751990D01*
X105319592Y-100487436D01*
X105279960Y-100237870D01*
X105258856Y-100142177D01*
X105115819Y-99659541D01*
X104937661Y-99251010D01*
X104720626Y-98912047D01*
X104460960Y-98638114D01*
X104154911Y-98424676D01*
X103798723Y-98267194D01*
X103675347Y-98228396D01*
X103492490Y-98159055D01*
X103387904Y-98080303D01*
X103363630Y-97994988D01*
X103421709Y-97905959D01*
X103435747Y-97893992D01*
X103496849Y-97854174D01*
X103572221Y-97831768D01*
X103683309Y-97823877D01*
X103851561Y-97827606D01*
G37*
X103851561Y-97827606D02*
X103908424Y-97830175D01*
X104050105Y-97838166D01*
X104164564Y-97850675D01*
X104269532Y-97873624D01*
X104382736Y-97912939D01*
X104521906Y-97974542D01*
X104704772Y-98064357D01*
X104889425Y-98157951D01*
X105498518Y-98467946D01*
X105995379Y-98354646D01*
X106435097Y-98272023D01*
X106820533Y-98240887D01*
X107166371Y-98263616D01*
X107487297Y-98342586D01*
X107797996Y-98480176D01*
X108113154Y-98678762D01*
X108146567Y-98702859D01*
X108365544Y-98908457D01*
X108567558Y-99190895D01*
X108748931Y-99543394D01*
X108905980Y-99959175D01*
X108994283Y-100264049D01*
X109054630Y-100553211D01*
X109107260Y-100922770D01*
X109151802Y-101368779D01*
X109187884Y-101887286D01*
X109215136Y-102474344D01*
X109222364Y-102690183D01*
X109233005Y-103029306D01*
X109242628Y-103295400D01*
X109252447Y-103500077D01*
X109263679Y-103654945D01*
X109277538Y-103771614D01*
X109295240Y-103861694D01*
X109318000Y-103936794D01*
X109347032Y-104008525D01*
X109364381Y-104046974D01*
X109452676Y-104206656D01*
X109572465Y-104382726D01*
X109674902Y-104510212D01*
X109839160Y-104711557D01*
X109949127Y-104894970D01*
X110014254Y-105086692D01*
X110043995Y-105312965D01*
X110048559Y-105547583D01*
X110026895Y-105921817D01*
X109972561Y-106292976D01*
X109890281Y-106641612D01*
X109784777Y-106948281D01*
X109660771Y-107193535D01*
X109641761Y-107222513D01*
X109506254Y-107388875D01*
X109362503Y-107485445D01*
X109184788Y-107525273D01*
X109041581Y-107527020D01*
X108774563Y-107516791D01*
X108474035Y-107893144D01*
X108339040Y-108057430D01*
X108208816Y-108207614D01*
X108100341Y-108324549D01*
X108042630Y-108379624D01*
X107911753Y-108489750D01*
X108116085Y-108489677D01*
X108221659Y-108486720D01*
X108402456Y-108478285D01*
X108649250Y-108464958D01*
X108952814Y-108447325D01*
X109303924Y-108425970D01*
X109693352Y-108401480D01*
X110111872Y-108374440D01*
X110550258Y-108345435D01*
X110999284Y-108315050D01*
X111449725Y-108283872D01*
X111892353Y-108252486D01*
X112164237Y-108232782D01*
X112478974Y-108210704D01*
X112767812Y-108192239D01*
X113019520Y-108177963D01*
X113222868Y-108168450D01*
X113366624Y-108164276D01*
X113439558Y-108166017D01*
X113444821Y-108167186D01*
X113490831Y-108223162D01*
X113505005Y-108315476D01*
X113484893Y-108401068D01*
X113459697Y-108428857D01*
X113406107Y-108439156D01*
X113275764Y-108454055D01*
X113076422Y-108472971D01*
X112815836Y-108495321D01*
X112501760Y-108520522D01*
X112141949Y-108547991D01*
X111744158Y-108577145D01*
X111316140Y-108607401D01*
X110865650Y-108638176D01*
X110400443Y-108668887D01*
X109928274Y-108698952D01*
X109590416Y-108719745D01*
X109276222Y-108739088D01*
X108974352Y-108758227D01*
X108699974Y-108776157D01*
X108468254Y-108791875D01*
X108294361Y-108804376D01*
X108210216Y-108811108D01*
X107930683Y-108835760D01*
X107992530Y-109012005D01*
X108026252Y-109163754D01*
X108045928Y-109366183D01*
X108050841Y-109586363D01*
X108040274Y-109791365D01*
X108013513Y-109948257D01*
X108012934Y-109950250D01*
X107969810Y-110042443D01*
X107895619Y-110075167D01*
X107851704Y-110077250D01*
X107727750Y-110077250D01*
X107727534Y-109611583D01*
X107716879Y-109314224D01*
X107685985Y-109084944D01*
X107636003Y-108927768D01*
X107568085Y-108846717D01*
X107506298Y-108838256D01*
X107450552Y-108879488D01*
X107446482Y-108915597D01*
X107456208Y-108984909D01*
X107468416Y-109113671D01*
X107480793Y-109276805D01*
X107483337Y-109315250D01*
X107491906Y-109491040D01*
X107487786Y-109606095D01*
X107467534Y-109683838D01*
X107427708Y-109747694D01*
X107418007Y-109759750D01*
X107347037Y-109829306D01*
X107287239Y-109835180D01*
X107254152Y-109818673D01*
X107213754Y-109778520D01*
X107188959Y-109706148D01*
X107175646Y-109582770D01*
X107170552Y-109437673D01*
X107161294Y-109260236D01*
X107143211Y-109101007D01*
X107119988Y-108991190D01*
X107116793Y-108982195D01*
X107069898Y-108860807D01*
X106679157Y-108888006D01*
X106566701Y-108894763D01*
X106386353Y-108904301D01*
X106150094Y-108916082D01*
X105869901Y-108929569D01*
X105557755Y-108944223D01*
X105225635Y-108959505D01*
X104885521Y-108974879D01*
X104549392Y-108989806D01*
X104229226Y-109003747D01*
X103937005Y-109016165D01*
X103684706Y-109026522D01*
X103484310Y-109034280D01*
X103347796Y-109038901D01*
X103295493Y-109039983D01*
X103252091Y-109047471D01*
X103247067Y-109084461D01*
X103279152Y-109173007D01*
X103286773Y-109191350D01*
X103324233Y-109329777D01*
X103340660Y-109496856D01*
X103337238Y-109667594D01*
X103315153Y-109817002D01*
X103275590Y-109920087D01*
X103251000Y-109945614D01*
X103157621Y-109976941D01*
X103091138Y-109934280D01*
X103049862Y-109815046D01*
X103032101Y-109616651D01*
X103031934Y-109610285D01*
X103008481Y-109361164D01*
X102953431Y-109180327D01*
X102868746Y-109072024D01*
X102769133Y-109040083D01*
X102692946Y-109050895D01*
X102683814Y-109093501D01*
X102691505Y-109114166D01*
X102771940Y-109358287D01*
X102814395Y-109611580D01*
X102818061Y-109851761D01*
X102782130Y-110056547D01*
X102729925Y-110171659D01*
X102666625Y-110249583D01*
X102606485Y-110259523D01*
X102542927Y-110226937D01*
X102511375Y-110184873D01*
X102491672Y-110097466D01*
X102481730Y-109950472D01*
X102479427Y-109793668D01*
X102471186Y-109546858D01*
X102446342Y-109365675D01*
X102405380Y-109238502D01*
X102332344Y-109077089D01*
X100923713Y-109111502D01*
X100534502Y-109120304D01*
X100126460Y-109128274D01*
X99719378Y-109135113D01*
X99333047Y-109140522D01*
X98987258Y-109144203D01*
X98701801Y-109145855D01*
X98647250Y-109145916D01*
X97779416Y-109145916D01*
X97765998Y-109029259D01*
X97774659Y-108931618D01*
X97809484Y-108890765D01*
X97864426Y-108884488D01*
X97993406Y-108876961D01*
X98185812Y-108868583D01*
X98431030Y-108859752D01*
X98718448Y-108850864D01*
X99037455Y-108842319D01*
X99214663Y-108838089D01*
X100562937Y-108807250D01*
X100555326Y-108332775D01*
X100557552Y-108286861D01*
X100863889Y-108286861D01*
X100873494Y-108506633D01*
X100900775Y-108798684D01*
X101816595Y-108770671D01*
X102124657Y-108760910D01*
X102492164Y-108748719D01*
X102893959Y-108734967D01*
X103304886Y-108720521D01*
X103699787Y-108706250D01*
X103917750Y-108698163D01*
X104306202Y-108682990D01*
X104739572Y-108665067D01*
X105188995Y-108645653D01*
X105625612Y-108626006D01*
X106020559Y-108607387D01*
X106189491Y-108599051D01*
X106521555Y-108582077D01*
X106780476Y-108567601D01*
X106977681Y-108554122D01*
X107124602Y-108540139D01*
X107232664Y-108524153D01*
X107313299Y-108504661D01*
X107377934Y-108480164D01*
X107437999Y-108449161D01*
X107469516Y-108430969D01*
X107697666Y-108266504D01*
X107942436Y-108034933D01*
X108192554Y-107749087D01*
X108436749Y-107421800D01*
X108574264Y-107206998D01*
X108976583Y-107206998D01*
X109013760Y-107215426D01*
X109105697Y-107213640D01*
X109131127Y-107211722D01*
X109282773Y-107167413D01*
X109363814Y-107092750D01*
X109457807Y-106924434D01*
X109543629Y-106695132D01*
X109618089Y-106424125D01*
X109677997Y-106130693D01*
X109720163Y-105834118D01*
X109741397Y-105553679D01*
X109738507Y-105308658D01*
X109708305Y-105118334D01*
X109696447Y-105082435D01*
X109649949Y-104992844D01*
X109575968Y-104881172D01*
X109491728Y-104769912D01*
X109414454Y-104681555D01*
X109361370Y-104638593D01*
X109355644Y-104637416D01*
X109335463Y-104675974D01*
X109309645Y-104777903D01*
X109283241Y-104922585D01*
X109279098Y-104949683D01*
X109256423Y-105141275D01*
X109256496Y-105288675D01*
X109280512Y-105429567D01*
X109296220Y-105489433D01*
X109357430Y-105741458D01*
X109384491Y-105958328D01*
X109374812Y-106162462D01*
X109325804Y-106376278D01*
X109234879Y-106622197D01*
X109140937Y-106834026D01*
X109069124Y-106990995D01*
X109013226Y-107116614D01*
X108981183Y-107192868D01*
X108976583Y-107206998D01*
X108574264Y-107206998D01*
X108654078Y-107082327D01*
X108831522Y-106766028D01*
X108956980Y-106499592D01*
X109033776Y-106268779D01*
X109065239Y-106059353D01*
X109054693Y-105857073D01*
X109005466Y-105647703D01*
X108996101Y-105618313D01*
X108946337Y-105350129D01*
X108952488Y-105027225D01*
X109014214Y-104658150D01*
X109038402Y-104559235D01*
X109072737Y-104415932D01*
X109084565Y-104310595D01*
X109072425Y-104207916D01*
X109034858Y-104072588D01*
X109015772Y-104012045D01*
X108988166Y-103917060D01*
X108965895Y-103816647D01*
X108947972Y-103699089D01*
X108933407Y-103552668D01*
X108921211Y-103365667D01*
X108910395Y-103126367D01*
X108899970Y-102823053D01*
X108891683Y-102541916D01*
X108874135Y-102035549D01*
X108851399Y-101601147D01*
X108822047Y-101226089D01*
X108784646Y-100897758D01*
X108737769Y-100603533D01*
X108679984Y-100330796D01*
X108612077Y-100074556D01*
X108468050Y-99667197D01*
X108290374Y-99331950D01*
X108072854Y-99060835D01*
X107809298Y-98845872D01*
X107547122Y-98702552D01*
X107307839Y-98611404D01*
X107068627Y-98560054D01*
X106811620Y-98548006D01*
X106518953Y-98574766D01*
X106172759Y-98639838D01*
X106076750Y-98661800D01*
X105848507Y-98713660D01*
X105627973Y-98760556D01*
X105439542Y-98797498D01*
X105307609Y-98819497D01*
X105302529Y-98820167D01*
X105180818Y-98840541D01*
X105104898Y-98862320D01*
X105091105Y-98875171D01*
X105115997Y-98923803D01*
X105168235Y-99024124D01*
X105225842Y-99134083D01*
X105383301Y-99485501D01*
X105510071Y-99872794D01*
X105602999Y-100276658D01*
X105658929Y-100677790D01*
X105674707Y-101056888D01*
X105647178Y-101394648D01*
X105618142Y-101534549D01*
X105559442Y-101693778D01*
X105476528Y-101843981D01*
X105438226Y-101894841D01*
X105392399Y-101946449D01*
X105343401Y-101997221D01*
X105282611Y-102054443D01*
X105201403Y-102125404D01*
X105091155Y-102217389D01*
X104943243Y-102337687D01*
X104749044Y-102493585D01*
X104499934Y-102692370D01*
X104404583Y-102768324D01*
X104147437Y-102980274D01*
X103855310Y-103233020D01*
X103544128Y-103511792D01*
X103229818Y-103801820D01*
X102928310Y-104088333D01*
X102655529Y-104356562D01*
X102427404Y-104591735D01*
X102361875Y-104662605D01*
X101970359Y-105130595D01*
X101647496Y-105602708D01*
X101379163Y-106100870D01*
X101254590Y-106382081D01*
X101188576Y-106543737D01*
X101137036Y-106674103D01*
X101107168Y-106754758D01*
X101102583Y-106771156D01*
X101133468Y-106757747D01*
X101215779Y-106703033D01*
X101333996Y-106617545D01*
X101381682Y-106581773D01*
X101662200Y-106385812D01*
X101918558Y-106245579D01*
X102176672Y-106148535D01*
X102382724Y-106097424D01*
X102836710Y-105966443D01*
X103278461Y-105766932D01*
X103692259Y-105509275D01*
X104062383Y-105203856D01*
X104373116Y-104861062D01*
X104479714Y-104712100D01*
X104583885Y-104592730D01*
X104682536Y-104556343D01*
X104773883Y-104603477D01*
X104788278Y-104619496D01*
X104812689Y-104693679D01*
X104783026Y-104798175D01*
X104696068Y-104938005D01*
X104548598Y-105118190D01*
X104337395Y-105343751D01*
X104298750Y-105383094D01*
X103943894Y-105706096D01*
X103573425Y-105966702D01*
X103169977Y-106174289D01*
X102716187Y-106338235D01*
X102353862Y-106433297D01*
X102109881Y-106516582D01*
X101846915Y-106652081D01*
X101584759Y-106825161D01*
X101343205Y-107021188D01*
X101142048Y-107225527D01*
X101001082Y-107423543D01*
X100992358Y-107439908D01*
X100940046Y-107588366D01*
X100899324Y-107795820D01*
X100873002Y-108037057D01*
X100863889Y-108286861D01*
X100557552Y-108286861D01*
X100586843Y-107682752D01*
X100701541Y-107042308D01*
X100898177Y-106414601D01*
X101175509Y-105802789D01*
X101532294Y-105210031D01*
X101967290Y-104639486D01*
X102042068Y-104552750D01*
X102284664Y-104289082D01*
X102580261Y-103989149D01*
X102913670Y-103666875D01*
X103269704Y-103336184D01*
X103633175Y-103010999D01*
X103988896Y-102705244D01*
X104321680Y-102432843D01*
X104531583Y-102270413D01*
X104804317Y-102059170D01*
X105011343Y-101883524D01*
X105160132Y-101736496D01*
X105258158Y-101611105D01*
X105283349Y-101568250D01*
X105322973Y-101439662D01*
X105346072Y-101247694D01*
X105352984Y-101011940D01*
X105344045Y-100751990D01*
X105319592Y-100487436D01*
X105279960Y-100237870D01*
X105258856Y-100142177D01*
X105115819Y-99659541D01*
X104937661Y-99251010D01*
X104720626Y-98912047D01*
X104460960Y-98638114D01*
X104154911Y-98424676D01*
X103798723Y-98267194D01*
X103675347Y-98228396D01*
X103492490Y-98159055D01*
X103387904Y-98080303D01*
X103363630Y-97994988D01*
X103421709Y-97905959D01*
X103435747Y-97893992D01*
X103496849Y-97854174D01*
X103572221Y-97831768D01*
X103683309Y-97823877D01*
X103851561Y-97827606D01*
G36*
X113444195Y-110591662D02*
G01*
X113498687Y-110649470D01*
X113503277Y-110737813D01*
X113462243Y-110822168D01*
X113411000Y-110859413D01*
X113351863Y-110869827D01*
X113214937Y-110885766D01*
X113006879Y-110906704D01*
X112734350Y-110932117D01*
X112404009Y-110961479D01*
X112022517Y-110994266D01*
X111596531Y-111029951D01*
X111132713Y-111068009D01*
X110637722Y-111107916D01*
X110118217Y-111149145D01*
X109580858Y-111191172D01*
X109032305Y-111233472D01*
X108479217Y-111275519D01*
X107928254Y-111316787D01*
X107386076Y-111356752D01*
X106859341Y-111394889D01*
X106354711Y-111430671D01*
X105878844Y-111463575D01*
X105438400Y-111493073D01*
X105103083Y-111514685D01*
X104714400Y-111538053D01*
X104274415Y-111562504D01*
X103793046Y-111587627D01*
X103280210Y-111613009D01*
X102745824Y-111638238D01*
X102199804Y-111662899D01*
X101652068Y-111686582D01*
X101112532Y-111708874D01*
X100591113Y-111729361D01*
X100097729Y-111747631D01*
X99642297Y-111763271D01*
X99234732Y-111775870D01*
X98884953Y-111785013D01*
X98602876Y-111790289D01*
X98451350Y-111791460D01*
X98227299Y-111788697D01*
X98074712Y-111779074D01*
X97980552Y-111761079D01*
X97931784Y-111733201D01*
X97929829Y-111730956D01*
X97899705Y-111643699D01*
X97937619Y-111562400D01*
X98028161Y-111507333D01*
X98108989Y-111495208D01*
X98274382Y-111493037D01*
X98515140Y-111487156D01*
X98822062Y-111477945D01*
X99185945Y-111465785D01*
X99597586Y-111451055D01*
X100047784Y-111434135D01*
X100527336Y-111415406D01*
X101027040Y-111395246D01*
X101537694Y-111374036D01*
X102050095Y-111352156D01*
X102555040Y-111329986D01*
X103043329Y-111307906D01*
X103505758Y-111286294D01*
X103933125Y-111265533D01*
X104316228Y-111246001D01*
X104645864Y-111228078D01*
X104806750Y-111218700D01*
X105173722Y-111195634D01*
X105615418Y-111166184D01*
X106122194Y-111131071D01*
X106684405Y-111091011D01*
X107292407Y-111046722D01*
X107936556Y-110998923D01*
X108607207Y-110948331D01*
X109294716Y-110895665D01*
X109989438Y-110841642D01*
X110681730Y-110786980D01*
X111361946Y-110732398D01*
X111613278Y-110711988D01*
X111993222Y-110681698D01*
X112348122Y-110654692D01*
X112668844Y-110631570D01*
X112946255Y-110612934D01*
X113171223Y-110599382D01*
X113334614Y-110591516D01*
X113427295Y-110589935D01*
X113444195Y-110591662D01*
G37*
X113444195Y-110591662D02*
X113498687Y-110649470D01*
X113503277Y-110737813D01*
X113462243Y-110822168D01*
X113411000Y-110859413D01*
X113351863Y-110869827D01*
X113214937Y-110885766D01*
X113006879Y-110906704D01*
X112734350Y-110932117D01*
X112404009Y-110961479D01*
X112022517Y-110994266D01*
X111596531Y-111029951D01*
X111132713Y-111068009D01*
X110637722Y-111107916D01*
X110118217Y-111149145D01*
X109580858Y-111191172D01*
X109032305Y-111233472D01*
X108479217Y-111275519D01*
X107928254Y-111316787D01*
X107386076Y-111356752D01*
X106859341Y-111394889D01*
X106354711Y-111430671D01*
X105878844Y-111463575D01*
X105438400Y-111493073D01*
X105103083Y-111514685D01*
X104714400Y-111538053D01*
X104274415Y-111562504D01*
X103793046Y-111587627D01*
X103280210Y-111613009D01*
X102745824Y-111638238D01*
X102199804Y-111662899D01*
X101652068Y-111686582D01*
X101112532Y-111708874D01*
X100591113Y-111729361D01*
X100097729Y-111747631D01*
X99642297Y-111763271D01*
X99234732Y-111775870D01*
X98884953Y-111785013D01*
X98602876Y-111790289D01*
X98451350Y-111791460D01*
X98227299Y-111788697D01*
X98074712Y-111779074D01*
X97980552Y-111761079D01*
X97931784Y-111733201D01*
X97929829Y-111730956D01*
X97899705Y-111643699D01*
X97937619Y-111562400D01*
X98028161Y-111507333D01*
X98108989Y-111495208D01*
X98274382Y-111493037D01*
X98515140Y-111487156D01*
X98822062Y-111477945D01*
X99185945Y-111465785D01*
X99597586Y-111451055D01*
X100047784Y-111434135D01*
X100527336Y-111415406D01*
X101027040Y-111395246D01*
X101537694Y-111374036D01*
X102050095Y-111352156D01*
X102555040Y-111329986D01*
X103043329Y-111307906D01*
X103505758Y-111286294D01*
X103933125Y-111265533D01*
X104316228Y-111246001D01*
X104645864Y-111228078D01*
X104806750Y-111218700D01*
X105173722Y-111195634D01*
X105615418Y-111166184D01*
X106122194Y-111131071D01*
X106684405Y-111091011D01*
X107292407Y-111046722D01*
X107936556Y-110998923D01*
X108607207Y-110948331D01*
X109294716Y-110895665D01*
X109989438Y-110841642D01*
X110681730Y-110786980D01*
X111361946Y-110732398D01*
X111613278Y-110711988D01*
X111993222Y-110681698D01*
X112348122Y-110654692D01*
X112668844Y-110631570D01*
X112946255Y-110612934D01*
X113171223Y-110599382D01*
X113334614Y-110591516D01*
X113427295Y-110589935D01*
X113444195Y-110591662D01*
D11*
%TO.C,R2*%
X104123750Y-70643750D02*
X107283750Y-70643750D01*
X104123750Y-70643750D02*
G75*
G03*
X104123750Y-70643750I-920000J0D01*
G01*
%TO.C,R1*%
X104123750Y-65087500D02*
X107283750Y-65087500D01*
X104123750Y-65087500D02*
G75*
G03*
X104123750Y-65087500I-920000J0D01*
G01*
%TO.C,ENC1*%
X192079250Y-140097750D02*
X192079250Y-139097750D01*
X191579250Y-139597750D02*
X192579250Y-139597750D01*
X195579250Y-133497750D02*
X197979250Y-133497750D01*
X190779250Y-133497750D02*
X193379250Y-133497750D01*
X186179250Y-133497750D02*
X188579250Y-133497750D01*
X187979250Y-146797750D02*
X188279250Y-147097750D01*
X187979250Y-147397750D02*
X187979250Y-146797750D01*
X188279250Y-147097750D02*
X187979250Y-147397750D01*
X186179250Y-145697750D02*
X197979250Y-145697750D01*
X186179250Y-141597750D02*
X186179250Y-145697750D01*
X197979250Y-141597750D02*
X197979250Y-145697750D01*
X197979250Y-133497750D02*
X197979250Y-137597750D01*
X186179250Y-137597750D02*
X186179250Y-133497750D01*
X195079250Y-139597750D02*
G75*
G03*
X195079250Y-139597750I-3000000J0D01*
G01*
D12*
%TO.C,U1*%
X96678750Y-56197500D02*
X96678750Y-86677500D01*
X96678750Y-86677500D02*
X114458750Y-86677500D01*
X114458750Y-86677500D02*
X114458750Y-56197500D01*
X99218750Y-56197500D02*
X99218750Y-58737500D01*
X99218750Y-58737500D02*
X96678750Y-58737500D01*
D13*
G36*
X110500318Y-62076860D02*
G01*
X110500318Y-62376860D01*
X110400318Y-62376860D01*
X110400318Y-62076860D01*
X110500318Y-62076860D01*
G37*
X110500318Y-62076860D02*
X110500318Y-62376860D01*
X110400318Y-62376860D01*
X110400318Y-62076860D01*
X110500318Y-62076860D01*
G36*
X110300318Y-62476860D02*
G01*
X110300318Y-62576860D01*
X110200318Y-62576860D01*
X110200318Y-62476860D01*
X110300318Y-62476860D01*
G37*
X110300318Y-62476860D02*
X110300318Y-62576860D01*
X110200318Y-62576860D01*
X110200318Y-62476860D01*
X110300318Y-62476860D01*
G36*
X110500318Y-62076860D02*
G01*
X110500318Y-62176860D01*
X110000318Y-62176860D01*
X110000318Y-62076860D01*
X110500318Y-62076860D01*
G37*
X110500318Y-62076860D02*
X110500318Y-62176860D01*
X110000318Y-62176860D01*
X110000318Y-62076860D01*
X110500318Y-62076860D01*
G36*
X110100318Y-62076860D02*
G01*
X110100318Y-62876860D01*
X110000318Y-62876860D01*
X110000318Y-62076860D01*
X110100318Y-62076860D01*
G37*
X110100318Y-62076860D02*
X110100318Y-62876860D01*
X110000318Y-62876860D01*
X110000318Y-62076860D01*
X110100318Y-62076860D01*
G36*
X110500318Y-62676860D02*
G01*
X110500318Y-62876860D01*
X110400318Y-62876860D01*
X110400318Y-62676860D01*
X110500318Y-62676860D01*
G37*
X110500318Y-62676860D02*
X110500318Y-62876860D01*
X110400318Y-62876860D01*
X110400318Y-62676860D01*
X110500318Y-62676860D01*
D12*
X114458750Y-56197500D02*
X114458750Y-53657500D01*
X114458750Y-53657500D02*
X96678750Y-53657500D01*
X96678750Y-53657500D02*
X96678750Y-56197500D01*
X99218750Y-56197500D02*
X96678750Y-56197500D01*
D11*
%TO.C,SW0*%
X103330250Y-95193750D02*
X107830250Y-95193750D01*
X102080250Y-91193750D02*
X102080250Y-92693750D01*
X107830250Y-88693750D02*
X103330250Y-88693750D01*
X109080250Y-92693750D02*
X109080250Y-91193750D01*
%TO.C,J1*%
X86884007Y-125774763D02*
X87067020Y-125091750D01*
X86384007Y-124908737D02*
X86884007Y-125774763D01*
X87067020Y-125091750D02*
X86384007Y-124908737D01*
X82676827Y-116887714D02*
X88376827Y-126760403D01*
X88376827Y-126760403D02*
X92360544Y-124460403D01*
X94698813Y-123110403D02*
X93746185Y-123660403D01*
X87959582Y-113837714D02*
X88998813Y-113237714D01*
X82676827Y-116887714D02*
X82936635Y-116737714D01*
X86559582Y-111412843D02*
X81536635Y-114312843D01*
X88998813Y-113237714D02*
X94698813Y-123110403D01*
X87959582Y-113837714D02*
X86559582Y-111412843D01*
X82936635Y-116737714D02*
X81536635Y-114312843D01*
%TO.C,H7*%
D13*
X119888095Y-132064880D02*
X119888095Y-131064880D01*
X119888095Y-131541071D02*
X120459523Y-131541071D01*
X120459523Y-132064880D02*
X120459523Y-131064880D01*
X120840476Y-131064880D02*
X121507142Y-131064880D01*
X121078571Y-132064880D01*
%TO.C,H6*%
X134969345Y-104283630D02*
X134969345Y-103283630D01*
X134969345Y-103759821D02*
X135540773Y-103759821D01*
X135540773Y-104283630D02*
X135540773Y-103283630D01*
X136445535Y-103283630D02*
X136255059Y-103283630D01*
X136159821Y-103331250D01*
X136112202Y-103378869D01*
X136016964Y-103521726D01*
X135969345Y-103712202D01*
X135969345Y-104093154D01*
X136016964Y-104188392D01*
X136064583Y-104236011D01*
X136159821Y-104283630D01*
X136350297Y-104283630D01*
X136445535Y-104236011D01*
X136493154Y-104188392D01*
X136540773Y-104093154D01*
X136540773Y-103855059D01*
X136493154Y-103759821D01*
X136445535Y-103712202D01*
X136350297Y-103664583D01*
X136159821Y-103664583D01*
X136064583Y-103712202D01*
X136016964Y-103759821D01*
X135969345Y-103855059D01*
%TO.C,H3*%
X134969345Y-66183630D02*
X134969345Y-65183630D01*
X134969345Y-65659821D02*
X135540773Y-65659821D01*
X135540773Y-66183630D02*
X135540773Y-65183630D01*
X135921726Y-65183630D02*
X136540773Y-65183630D01*
X136207440Y-65564583D01*
X136350297Y-65564583D01*
X136445535Y-65612202D01*
X136493154Y-65659821D01*
X136540773Y-65755059D01*
X136540773Y-65993154D01*
X136493154Y-66088392D01*
X136445535Y-66136011D01*
X136350297Y-66183630D01*
X136064583Y-66183630D01*
X135969345Y-66136011D01*
X135921726Y-66088392D01*
%TO.C,H2*%
X211169345Y-66977380D02*
X211169345Y-65977380D01*
X211169345Y-66453571D02*
X211740773Y-66453571D01*
X211740773Y-66977380D02*
X211740773Y-65977380D01*
X212169345Y-66072619D02*
X212216964Y-66025000D01*
X212312202Y-65977380D01*
X212550297Y-65977380D01*
X212645535Y-66025000D01*
X212693154Y-66072619D01*
X212740773Y-66167857D01*
X212740773Y-66263095D01*
X212693154Y-66405952D01*
X212121726Y-66977380D01*
X212740773Y-66977380D01*
%TO.C,H1*%
X211151345Y-105077380D02*
X211151345Y-104077380D01*
X211151345Y-104553571D02*
X211722773Y-104553571D01*
X211722773Y-105077380D02*
X211722773Y-104077380D01*
X212722773Y-105077380D02*
X212151345Y-105077380D01*
X212437059Y-105077380D02*
X212437059Y-104077380D01*
X212341821Y-104220238D01*
X212246583Y-104315476D01*
X212151345Y-104363095D01*
%TO.C,R2*%
X105577083Y-69176130D02*
X105243750Y-68699940D01*
X105005654Y-69176130D02*
X105005654Y-68176130D01*
X105386607Y-68176130D01*
X105481845Y-68223750D01*
X105529464Y-68271369D01*
X105577083Y-68366607D01*
X105577083Y-68509464D01*
X105529464Y-68604702D01*
X105481845Y-68652321D01*
X105386607Y-68699940D01*
X105005654Y-68699940D01*
X105958035Y-68271369D02*
X106005654Y-68223750D01*
X106100892Y-68176130D01*
X106338988Y-68176130D01*
X106434226Y-68223750D01*
X106481845Y-68271369D01*
X106529464Y-68366607D01*
X106529464Y-68461845D01*
X106481845Y-68604702D01*
X105910416Y-69176130D01*
X106529464Y-69176130D01*
%TO.C,R1*%
X105577083Y-63619880D02*
X105243750Y-63143690D01*
X105005654Y-63619880D02*
X105005654Y-62619880D01*
X105386607Y-62619880D01*
X105481845Y-62667500D01*
X105529464Y-62715119D01*
X105577083Y-62810357D01*
X105577083Y-62953214D01*
X105529464Y-63048452D01*
X105481845Y-63096071D01*
X105386607Y-63143690D01*
X105005654Y-63143690D01*
X106529464Y-63619880D02*
X105958035Y-63619880D01*
X106243750Y-63619880D02*
X106243750Y-62619880D01*
X106148511Y-62762738D01*
X106053273Y-62857976D01*
X105958035Y-62905595D01*
%TO.C,ENC1*%
X184807821Y-146012035D02*
X184807821Y-145678702D01*
X185331630Y-145535845D02*
X185331630Y-146012035D01*
X184331630Y-146012035D01*
X184331630Y-145535845D01*
X185331630Y-145107273D02*
X184331630Y-145107273D01*
X185331630Y-144535845D01*
X184331630Y-144535845D01*
X185236392Y-143488226D02*
X185284011Y-143535845D01*
X185331630Y-143678702D01*
X185331630Y-143773940D01*
X185284011Y-143916797D01*
X185188773Y-144012035D01*
X185093535Y-144059654D01*
X184903059Y-144107273D01*
X184760202Y-144107273D01*
X184569726Y-144059654D01*
X184474488Y-144012035D01*
X184379250Y-143916797D01*
X184331630Y-143773940D01*
X184331630Y-143678702D01*
X184379250Y-143535845D01*
X184426869Y-143488226D01*
X185331630Y-142535845D02*
X185331630Y-143107273D01*
X185331630Y-142821559D02*
X184331630Y-142821559D01*
X184474488Y-142916797D01*
X184569726Y-143012035D01*
X184617345Y-143107273D01*
%TO.C,U1*%
X102438273Y-84199404D02*
X102438273Y-83399404D01*
X102628750Y-83399404D01*
X102743035Y-83437500D01*
X102819226Y-83513690D01*
X102857321Y-83589880D01*
X102895416Y-83742261D01*
X102895416Y-83856547D01*
X102857321Y-84008928D01*
X102819226Y-84085119D01*
X102743035Y-84161309D01*
X102628750Y-84199404D01*
X102438273Y-84199404D01*
X103619226Y-83399404D02*
X103238273Y-83399404D01*
X103200178Y-83780357D01*
X103238273Y-83742261D01*
X103314464Y-83704166D01*
X103504940Y-83704166D01*
X103581130Y-83742261D01*
X103619226Y-83780357D01*
X103657321Y-83856547D01*
X103657321Y-84047023D01*
X103619226Y-84123214D01*
X103581130Y-84161309D01*
X103504940Y-84199404D01*
X103314464Y-84199404D01*
X103238273Y-84161309D01*
X103200178Y-84123214D01*
X107842083Y-83780357D02*
X107575416Y-83780357D01*
X107575416Y-84199404D02*
X107575416Y-83399404D01*
X107956369Y-83399404D01*
X108680178Y-84199404D02*
X108223035Y-84199404D01*
X108451607Y-84199404D02*
X108451607Y-83399404D01*
X108375416Y-83513690D01*
X108299226Y-83589880D01*
X108223035Y-83627976D01*
X105435416Y-84123214D02*
X105397321Y-84161309D01*
X105283035Y-84199404D01*
X105206845Y-84199404D01*
X105092559Y-84161309D01*
X105016369Y-84085119D01*
X104978273Y-84008928D01*
X104940178Y-83856547D01*
X104940178Y-83742261D01*
X104978273Y-83589880D01*
X105016369Y-83513690D01*
X105092559Y-83437500D01*
X105206845Y-83399404D01*
X105283035Y-83399404D01*
X105397321Y-83437500D01*
X105435416Y-83475595D01*
X105702083Y-83399404D02*
X106235416Y-83399404D01*
X105892559Y-84199404D01*
X111733047Y-84302491D02*
X111827328Y-84255351D01*
X111874469Y-84255351D01*
X111945179Y-84278921D01*
X112015890Y-84349632D01*
X112039460Y-84420342D01*
X112039460Y-84467483D01*
X112015890Y-84538193D01*
X111827328Y-84726755D01*
X111332353Y-84231780D01*
X111497345Y-84066789D01*
X111568056Y-84043219D01*
X111615196Y-84043219D01*
X111685907Y-84066789D01*
X111733047Y-84113929D01*
X111756617Y-84184640D01*
X111756617Y-84231780D01*
X111733047Y-84302491D01*
X111568056Y-84467483D01*
X112039460Y-83524674D02*
X111945179Y-83618955D01*
X111921609Y-83689665D01*
X111921609Y-83736806D01*
X111945179Y-83854657D01*
X112015890Y-83972508D01*
X112204452Y-84161070D01*
X112275162Y-84184640D01*
X112322303Y-84184640D01*
X112393014Y-84161070D01*
X112487294Y-84066789D01*
X112510865Y-83996078D01*
X112510865Y-83948938D01*
X112487294Y-83878227D01*
X112369443Y-83760376D01*
X112298733Y-83736806D01*
X112251592Y-83736806D01*
X112180882Y-83760376D01*
X112086601Y-83854657D01*
X112063030Y-83925367D01*
X112063030Y-83972508D01*
X112086601Y-84043219D01*
X109835416Y-83987500D02*
X109602083Y-83987500D01*
X109602083Y-84354166D02*
X109602083Y-83654166D01*
X109935416Y-83654166D01*
X110335416Y-83654166D02*
X110402083Y-83654166D01*
X110468750Y-83687500D01*
X110502083Y-83720833D01*
X110535416Y-83787500D01*
X110568750Y-83920833D01*
X110568750Y-84087500D01*
X110535416Y-84220833D01*
X110502083Y-84287500D01*
X110468750Y-84320833D01*
X110402083Y-84354166D01*
X110335416Y-84354166D01*
X110268750Y-84320833D01*
X110235416Y-84287500D01*
X110202083Y-84220833D01*
X110168750Y-84087500D01*
X110168750Y-83920833D01*
X110202083Y-83787500D01*
X110235416Y-83720833D01*
X110268750Y-83687500D01*
X110335416Y-83654166D01*
X100785416Y-83987500D02*
X100885416Y-84020833D01*
X100918750Y-84054166D01*
X100952083Y-84120833D01*
X100952083Y-84220833D01*
X100918750Y-84287500D01*
X100885416Y-84320833D01*
X100818750Y-84354166D01*
X100552083Y-84354166D01*
X100552083Y-83654166D01*
X100785416Y-83654166D01*
X100852083Y-83687500D01*
X100885416Y-83720833D01*
X100918750Y-83787500D01*
X100918750Y-83854166D01*
X100885416Y-83920833D01*
X100852083Y-83954166D01*
X100785416Y-83987500D01*
X100552083Y-83987500D01*
X101185416Y-83654166D02*
X101652083Y-83654166D01*
X101352083Y-84354166D01*
X99806401Y-57029404D02*
X100263544Y-57029404D01*
X100034973Y-57829404D02*
X100034973Y-57029404D01*
X100454020Y-57029404D02*
X100987354Y-57829404D01*
X100987354Y-57029404D02*
X100454020Y-57829404D01*
X101444497Y-57029404D02*
X101520687Y-57029404D01*
X101596878Y-57067500D01*
X101634973Y-57105595D01*
X101673068Y-57181785D01*
X101711163Y-57334166D01*
X101711163Y-57524642D01*
X101673068Y-57677023D01*
X101634973Y-57753214D01*
X101596878Y-57791309D01*
X101520687Y-57829404D01*
X101444497Y-57829404D01*
X101368306Y-57791309D01*
X101330211Y-57753214D01*
X101292116Y-57677023D01*
X101254020Y-57524642D01*
X101254020Y-57334166D01*
X101292116Y-57181785D01*
X101330211Y-57105595D01*
X101368306Y-57067500D01*
X101444497Y-57029404D01*
X102625449Y-56991309D02*
X101939735Y-58019880D01*
X102892116Y-57829404D02*
X102892116Y-57029404D01*
X103082592Y-57029404D01*
X103196878Y-57067500D01*
X103273068Y-57143690D01*
X103311163Y-57219880D01*
X103349258Y-57372261D01*
X103349258Y-57486547D01*
X103311163Y-57638928D01*
X103273068Y-57715119D01*
X103196878Y-57791309D01*
X103082592Y-57829404D01*
X102892116Y-57829404D01*
X103615925Y-57029404D02*
X104111163Y-57029404D01*
X103844497Y-57334166D01*
X103958782Y-57334166D01*
X104034973Y-57372261D01*
X104073068Y-57410357D01*
X104111163Y-57486547D01*
X104111163Y-57677023D01*
X104073068Y-57753214D01*
X104034973Y-57791309D01*
X103958782Y-57829404D01*
X103730211Y-57829404D01*
X103654020Y-57791309D01*
X103615925Y-57753214D01*
X99517273Y-60369404D02*
X99517273Y-59569404D01*
X99707750Y-59569404D01*
X99822035Y-59607500D01*
X99898226Y-59683690D01*
X99936321Y-59759880D01*
X99974416Y-59912261D01*
X99974416Y-60026547D01*
X99936321Y-60178928D01*
X99898226Y-60255119D01*
X99822035Y-60331309D01*
X99707750Y-60369404D01*
X99517273Y-60369404D01*
X100279178Y-59645595D02*
X100317273Y-59607500D01*
X100393464Y-59569404D01*
X100583940Y-59569404D01*
X100660130Y-59607500D01*
X100698226Y-59645595D01*
X100736321Y-59721785D01*
X100736321Y-59797976D01*
X100698226Y-59912261D01*
X100241083Y-60369404D01*
X100736321Y-60369404D01*
X99517273Y-70529404D02*
X99517273Y-69729404D01*
X99707750Y-69729404D01*
X99822035Y-69767500D01*
X99898226Y-69843690D01*
X99936321Y-69919880D01*
X99974416Y-70072261D01*
X99974416Y-70186547D01*
X99936321Y-70338928D01*
X99898226Y-70415119D01*
X99822035Y-70491309D01*
X99707750Y-70529404D01*
X99517273Y-70529404D01*
X100469654Y-69729404D02*
X100545845Y-69729404D01*
X100622035Y-69767500D01*
X100660130Y-69805595D01*
X100698226Y-69881785D01*
X100736321Y-70034166D01*
X100736321Y-70224642D01*
X100698226Y-70377023D01*
X100660130Y-70453214D01*
X100622035Y-70491309D01*
X100545845Y-70529404D01*
X100469654Y-70529404D01*
X100393464Y-70491309D01*
X100355369Y-70453214D01*
X100317273Y-70377023D01*
X100279178Y-70224642D01*
X100279178Y-70034166D01*
X100317273Y-69881785D01*
X100355369Y-69805595D01*
X100393464Y-69767500D01*
X100469654Y-69729404D01*
X99517273Y-67989404D02*
X99517273Y-67189404D01*
X99707750Y-67189404D01*
X99822035Y-67227500D01*
X99898226Y-67303690D01*
X99936321Y-67379880D01*
X99974416Y-67532261D01*
X99974416Y-67646547D01*
X99936321Y-67798928D01*
X99898226Y-67875119D01*
X99822035Y-67951309D01*
X99707750Y-67989404D01*
X99517273Y-67989404D01*
X100736321Y-67989404D02*
X100279178Y-67989404D01*
X100507750Y-67989404D02*
X100507750Y-67189404D01*
X100431559Y-67303690D01*
X100355369Y-67379880D01*
X100279178Y-67417976D01*
X99498226Y-64687500D02*
X99422035Y-64649404D01*
X99307750Y-64649404D01*
X99193464Y-64687500D01*
X99117273Y-64763690D01*
X99079178Y-64839880D01*
X99041083Y-64992261D01*
X99041083Y-65106547D01*
X99079178Y-65258928D01*
X99117273Y-65335119D01*
X99193464Y-65411309D01*
X99307750Y-65449404D01*
X99383940Y-65449404D01*
X99498226Y-65411309D01*
X99536321Y-65373214D01*
X99536321Y-65106547D01*
X99383940Y-65106547D01*
X99879178Y-65449404D02*
X99879178Y-64649404D01*
X100336321Y-65449404D01*
X100336321Y-64649404D01*
X100717273Y-65449404D02*
X100717273Y-64649404D01*
X100907750Y-64649404D01*
X101022035Y-64687500D01*
X101098226Y-64763690D01*
X101136321Y-64839880D01*
X101174416Y-64992261D01*
X101174416Y-65106547D01*
X101136321Y-65258928D01*
X101098226Y-65335119D01*
X101022035Y-65411309D01*
X100907750Y-65449404D01*
X100717273Y-65449404D01*
X99498226Y-62147500D02*
X99422035Y-62109404D01*
X99307750Y-62109404D01*
X99193464Y-62147500D01*
X99117273Y-62223690D01*
X99079178Y-62299880D01*
X99041083Y-62452261D01*
X99041083Y-62566547D01*
X99079178Y-62718928D01*
X99117273Y-62795119D01*
X99193464Y-62871309D01*
X99307750Y-62909404D01*
X99383940Y-62909404D01*
X99498226Y-62871309D01*
X99536321Y-62833214D01*
X99536321Y-62566547D01*
X99383940Y-62566547D01*
X99879178Y-62909404D02*
X99879178Y-62109404D01*
X100336321Y-62909404D01*
X100336321Y-62109404D01*
X100717273Y-62909404D02*
X100717273Y-62109404D01*
X100907750Y-62109404D01*
X101022035Y-62147500D01*
X101098226Y-62223690D01*
X101136321Y-62299880D01*
X101174416Y-62452261D01*
X101174416Y-62566547D01*
X101136321Y-62718928D01*
X101098226Y-62795119D01*
X101022035Y-62871309D01*
X100907750Y-62909404D01*
X100717273Y-62909404D01*
X99517273Y-73069404D02*
X99517273Y-72269404D01*
X99707750Y-72269404D01*
X99822035Y-72307500D01*
X99898226Y-72383690D01*
X99936321Y-72459880D01*
X99974416Y-72612261D01*
X99974416Y-72726547D01*
X99936321Y-72878928D01*
X99898226Y-72955119D01*
X99822035Y-73031309D01*
X99707750Y-73069404D01*
X99517273Y-73069404D01*
X100660130Y-72536071D02*
X100660130Y-73069404D01*
X100469654Y-72231309D02*
X100279178Y-72802738D01*
X100774416Y-72802738D01*
X99974416Y-75533214D02*
X99936321Y-75571309D01*
X99822035Y-75609404D01*
X99745845Y-75609404D01*
X99631559Y-75571309D01*
X99555369Y-75495119D01*
X99517273Y-75418928D01*
X99479178Y-75266547D01*
X99479178Y-75152261D01*
X99517273Y-74999880D01*
X99555369Y-74923690D01*
X99631559Y-74847500D01*
X99745845Y-74809404D01*
X99822035Y-74809404D01*
X99936321Y-74847500D01*
X99974416Y-74885595D01*
X100660130Y-74809404D02*
X100507750Y-74809404D01*
X100431559Y-74847500D01*
X100393464Y-74885595D01*
X100317273Y-74999880D01*
X100279178Y-75152261D01*
X100279178Y-75457023D01*
X100317273Y-75533214D01*
X100355369Y-75571309D01*
X100431559Y-75609404D01*
X100583940Y-75609404D01*
X100660130Y-75571309D01*
X100698226Y-75533214D01*
X100736321Y-75457023D01*
X100736321Y-75266547D01*
X100698226Y-75190357D01*
X100660130Y-75152261D01*
X100583940Y-75114166D01*
X100431559Y-75114166D01*
X100355369Y-75152261D01*
X100317273Y-75190357D01*
X100279178Y-75266547D01*
X99517273Y-78149404D02*
X99517273Y-77349404D01*
X99707750Y-77349404D01*
X99822035Y-77387500D01*
X99898226Y-77463690D01*
X99936321Y-77539880D01*
X99974416Y-77692261D01*
X99974416Y-77806547D01*
X99936321Y-77958928D01*
X99898226Y-78035119D01*
X99822035Y-78111309D01*
X99707750Y-78149404D01*
X99517273Y-78149404D01*
X100241083Y-77349404D02*
X100774416Y-77349404D01*
X100431559Y-78149404D01*
X99555369Y-80270357D02*
X99822035Y-80270357D01*
X99936321Y-80689404D02*
X99555369Y-80689404D01*
X99555369Y-79889404D01*
X99936321Y-79889404D01*
X100622035Y-79889404D02*
X100469654Y-79889404D01*
X100393464Y-79927500D01*
X100355369Y-79965595D01*
X100279178Y-80079880D01*
X100241083Y-80232261D01*
X100241083Y-80537023D01*
X100279178Y-80613214D01*
X100317273Y-80651309D01*
X100393464Y-80689404D01*
X100545845Y-80689404D01*
X100622035Y-80651309D01*
X100660130Y-80613214D01*
X100698226Y-80537023D01*
X100698226Y-80346547D01*
X100660130Y-80270357D01*
X100622035Y-80232261D01*
X100545845Y-80194166D01*
X100393464Y-80194166D01*
X100317273Y-80232261D01*
X100279178Y-80270357D01*
X100241083Y-80346547D01*
X99783940Y-82810357D02*
X99898226Y-82848452D01*
X99936321Y-82886547D01*
X99974416Y-82962738D01*
X99974416Y-83077023D01*
X99936321Y-83153214D01*
X99898226Y-83191309D01*
X99822035Y-83229404D01*
X99517273Y-83229404D01*
X99517273Y-82429404D01*
X99783940Y-82429404D01*
X99860130Y-82467500D01*
X99898226Y-82505595D01*
X99936321Y-82581785D01*
X99936321Y-82657976D01*
X99898226Y-82734166D01*
X99860130Y-82772261D01*
X99783940Y-82810357D01*
X99517273Y-82810357D01*
X100660130Y-82696071D02*
X100660130Y-83229404D01*
X100469654Y-82391309D02*
X100279178Y-82962738D01*
X100774416Y-82962738D01*
X99003758Y-83901797D02*
X99050898Y-83996078D01*
X99050898Y-84043219D01*
X99027328Y-84113929D01*
X98956617Y-84184640D01*
X98885907Y-84208210D01*
X98838766Y-84208210D01*
X98768056Y-84184640D01*
X98579494Y-83996078D01*
X99074469Y-83501103D01*
X99239460Y-83666095D01*
X99263030Y-83736806D01*
X99263030Y-83783946D01*
X99239460Y-83854657D01*
X99192320Y-83901797D01*
X99121609Y-83925367D01*
X99074469Y-83925367D01*
X99003758Y-83901797D01*
X98838766Y-83736806D01*
X99805146Y-84231780D02*
X99569443Y-83996078D01*
X99310171Y-84208210D01*
X99357311Y-84208210D01*
X99428022Y-84231780D01*
X99545873Y-84349632D01*
X99569443Y-84420342D01*
X99569443Y-84467483D01*
X99545873Y-84538193D01*
X99428022Y-84656044D01*
X99357311Y-84679615D01*
X99310171Y-84679615D01*
X99239460Y-84656044D01*
X99121609Y-84538193D01*
X99098039Y-84467483D01*
X99098039Y-84420342D01*
X110705940Y-80270357D02*
X110820226Y-80308452D01*
X110858321Y-80346547D01*
X110896416Y-80422738D01*
X110896416Y-80537023D01*
X110858321Y-80613214D01*
X110820226Y-80651309D01*
X110744035Y-80689404D01*
X110439273Y-80689404D01*
X110439273Y-79889404D01*
X110705940Y-79889404D01*
X110782130Y-79927500D01*
X110820226Y-79965595D01*
X110858321Y-80041785D01*
X110858321Y-80117976D01*
X110820226Y-80194166D01*
X110782130Y-80232261D01*
X110705940Y-80270357D01*
X110439273Y-80270357D01*
X111163083Y-79889404D02*
X111658321Y-79889404D01*
X111391654Y-80194166D01*
X111505940Y-80194166D01*
X111582130Y-80232261D01*
X111620226Y-80270357D01*
X111658321Y-80346547D01*
X111658321Y-80537023D01*
X111620226Y-80613214D01*
X111582130Y-80651309D01*
X111505940Y-80689404D01*
X111277369Y-80689404D01*
X111201178Y-80651309D01*
X111163083Y-80613214D01*
X110705940Y-77730357D02*
X110820226Y-77768452D01*
X110858321Y-77806547D01*
X110896416Y-77882738D01*
X110896416Y-77997023D01*
X110858321Y-78073214D01*
X110820226Y-78111309D01*
X110744035Y-78149404D01*
X110439273Y-78149404D01*
X110439273Y-77349404D01*
X110705940Y-77349404D01*
X110782130Y-77387500D01*
X110820226Y-77425595D01*
X110858321Y-77501785D01*
X110858321Y-77577976D01*
X110820226Y-77654166D01*
X110782130Y-77692261D01*
X110705940Y-77730357D01*
X110439273Y-77730357D01*
X111658321Y-78149404D02*
X111201178Y-78149404D01*
X111429750Y-78149404D02*
X111429750Y-77349404D01*
X111353559Y-77463690D01*
X111277369Y-77539880D01*
X111201178Y-77577976D01*
X110763083Y-67570357D02*
X110496416Y-67570357D01*
X110496416Y-67989404D02*
X110496416Y-67189404D01*
X110877369Y-67189404D01*
X111524988Y-67456071D02*
X111524988Y-67989404D01*
X111334511Y-67151309D02*
X111144035Y-67722738D01*
X111639273Y-67722738D01*
X109963083Y-64649404D02*
X110229750Y-65449404D01*
X110496416Y-64649404D01*
X111220226Y-65373214D02*
X111182130Y-65411309D01*
X111067845Y-65449404D01*
X110991654Y-65449404D01*
X110877369Y-65411309D01*
X110801178Y-65335119D01*
X110763083Y-65258928D01*
X110724988Y-65106547D01*
X110724988Y-64992261D01*
X110763083Y-64839880D01*
X110801178Y-64763690D01*
X110877369Y-64687500D01*
X110991654Y-64649404D01*
X111067845Y-64649404D01*
X111182130Y-64687500D01*
X111220226Y-64725595D01*
X112020226Y-65373214D02*
X111982130Y-65411309D01*
X111867845Y-65449404D01*
X111791654Y-65449404D01*
X111677369Y-65411309D01*
X111601178Y-65335119D01*
X111563083Y-65258928D01*
X111524988Y-65106547D01*
X111524988Y-64992261D01*
X111563083Y-64839880D01*
X111601178Y-64763690D01*
X111677369Y-64687500D01*
X111791654Y-64649404D01*
X111867845Y-64649404D01*
X111982130Y-64687500D01*
X112020226Y-64725595D01*
X110768536Y-62841309D02*
X110882822Y-62879404D01*
X111073298Y-62879404D01*
X111149489Y-62841309D01*
X111187584Y-62803214D01*
X111225679Y-62727023D01*
X111225679Y-62650833D01*
X111187584Y-62574642D01*
X111149489Y-62536547D01*
X111073298Y-62498452D01*
X110920917Y-62460357D01*
X110844727Y-62422261D01*
X110806631Y-62384166D01*
X110768536Y-62307976D01*
X110768536Y-62231785D01*
X110806631Y-62155595D01*
X110844727Y-62117500D01*
X110920917Y-62079404D01*
X111111393Y-62079404D01*
X111225679Y-62117500D01*
X111454250Y-62079404D02*
X111911393Y-62079404D01*
X111682822Y-62879404D02*
X111682822Y-62079404D01*
X110420226Y-59607500D02*
X110344035Y-59569404D01*
X110229750Y-59569404D01*
X110115464Y-59607500D01*
X110039273Y-59683690D01*
X110001178Y-59759880D01*
X109963083Y-59912261D01*
X109963083Y-60026547D01*
X110001178Y-60178928D01*
X110039273Y-60255119D01*
X110115464Y-60331309D01*
X110229750Y-60369404D01*
X110305940Y-60369404D01*
X110420226Y-60331309D01*
X110458321Y-60293214D01*
X110458321Y-60026547D01*
X110305940Y-60026547D01*
X110801178Y-60369404D02*
X110801178Y-59569404D01*
X111258321Y-60369404D01*
X111258321Y-59569404D01*
X111639273Y-60369404D02*
X111639273Y-59569404D01*
X111829750Y-59569404D01*
X111944035Y-59607500D01*
X112020226Y-59683690D01*
X112058321Y-59759880D01*
X112096416Y-59912261D01*
X112096416Y-60026547D01*
X112058321Y-60178928D01*
X112020226Y-60255119D01*
X111944035Y-60331309D01*
X111829750Y-60369404D01*
X111639273Y-60369404D01*
X110705940Y-57410357D02*
X110820226Y-57448452D01*
X110858321Y-57486547D01*
X110896416Y-57562738D01*
X110896416Y-57677023D01*
X110858321Y-57753214D01*
X110820226Y-57791309D01*
X110744035Y-57829404D01*
X110439273Y-57829404D01*
X110439273Y-57029404D01*
X110705940Y-57029404D01*
X110782130Y-57067500D01*
X110820226Y-57105595D01*
X110858321Y-57181785D01*
X110858321Y-57257976D01*
X110820226Y-57334166D01*
X110782130Y-57372261D01*
X110705940Y-57410357D01*
X110439273Y-57410357D01*
X111391654Y-57029404D02*
X111467845Y-57029404D01*
X111544035Y-57067500D01*
X111582130Y-57105595D01*
X111620226Y-57181785D01*
X111658321Y-57334166D01*
X111658321Y-57524642D01*
X111620226Y-57677023D01*
X111582130Y-57753214D01*
X111544035Y-57791309D01*
X111467845Y-57829404D01*
X111391654Y-57829404D01*
X111315464Y-57791309D01*
X111277369Y-57753214D01*
X111239273Y-57677023D01*
X111201178Y-57524642D01*
X111201178Y-57334166D01*
X111239273Y-57181785D01*
X111277369Y-57105595D01*
X111315464Y-57067500D01*
X111391654Y-57029404D01*
X110763083Y-70110357D02*
X110496416Y-70110357D01*
X110496416Y-70529404D02*
X110496416Y-69729404D01*
X110877369Y-69729404D01*
X111563083Y-69729404D02*
X111182130Y-69729404D01*
X111144035Y-70110357D01*
X111182130Y-70072261D01*
X111258321Y-70034166D01*
X111448797Y-70034166D01*
X111524988Y-70072261D01*
X111563083Y-70110357D01*
X111601178Y-70186547D01*
X111601178Y-70377023D01*
X111563083Y-70453214D01*
X111524988Y-70491309D01*
X111448797Y-70529404D01*
X111258321Y-70529404D01*
X111182130Y-70491309D01*
X111144035Y-70453214D01*
X110763083Y-72650357D02*
X110496416Y-72650357D01*
X110496416Y-73069404D02*
X110496416Y-72269404D01*
X110877369Y-72269404D01*
X111524988Y-72269404D02*
X111372607Y-72269404D01*
X111296416Y-72307500D01*
X111258321Y-72345595D01*
X111182130Y-72459880D01*
X111144035Y-72612261D01*
X111144035Y-72917023D01*
X111182130Y-72993214D01*
X111220226Y-73031309D01*
X111296416Y-73069404D01*
X111448797Y-73069404D01*
X111524988Y-73031309D01*
X111563083Y-72993214D01*
X111601178Y-72917023D01*
X111601178Y-72726547D01*
X111563083Y-72650357D01*
X111524988Y-72612261D01*
X111448797Y-72574166D01*
X111296416Y-72574166D01*
X111220226Y-72612261D01*
X111182130Y-72650357D01*
X111144035Y-72726547D01*
X110763083Y-75190357D02*
X110496416Y-75190357D01*
X110496416Y-75609404D02*
X110496416Y-74809404D01*
X110877369Y-74809404D01*
X111105940Y-74809404D02*
X111639273Y-74809404D01*
X111296416Y-75609404D01*
X110705940Y-82810357D02*
X110820226Y-82848452D01*
X110858321Y-82886547D01*
X110896416Y-82962738D01*
X110896416Y-83077023D01*
X110858321Y-83153214D01*
X110820226Y-83191309D01*
X110744035Y-83229404D01*
X110439273Y-83229404D01*
X110439273Y-82429404D01*
X110705940Y-82429404D01*
X110782130Y-82467500D01*
X110820226Y-82505595D01*
X110858321Y-82581785D01*
X110858321Y-82657976D01*
X110820226Y-82734166D01*
X110782130Y-82772261D01*
X110705940Y-82810357D01*
X110439273Y-82810357D01*
X111201178Y-82505595D02*
X111239273Y-82467500D01*
X111315464Y-82429404D01*
X111505940Y-82429404D01*
X111582130Y-82467500D01*
X111620226Y-82505595D01*
X111658321Y-82581785D01*
X111658321Y-82657976D01*
X111620226Y-82772261D01*
X111163083Y-83229404D01*
X111658321Y-83229404D01*
%TO.C,SW0*%
X104246916Y-88098511D02*
X104389773Y-88146130D01*
X104627869Y-88146130D01*
X104723107Y-88098511D01*
X104770726Y-88050892D01*
X104818345Y-87955654D01*
X104818345Y-87860416D01*
X104770726Y-87765178D01*
X104723107Y-87717559D01*
X104627869Y-87669940D01*
X104437392Y-87622321D01*
X104342154Y-87574702D01*
X104294535Y-87527083D01*
X104246916Y-87431845D01*
X104246916Y-87336607D01*
X104294535Y-87241369D01*
X104342154Y-87193750D01*
X104437392Y-87146130D01*
X104675488Y-87146130D01*
X104818345Y-87193750D01*
X105151678Y-87146130D02*
X105389773Y-88146130D01*
X105580250Y-87431845D01*
X105770726Y-88146130D01*
X106008821Y-87146130D01*
X106580250Y-87146130D02*
X106675488Y-87146130D01*
X106770726Y-87193750D01*
X106818345Y-87241369D01*
X106865964Y-87336607D01*
X106913583Y-87527083D01*
X106913583Y-87765178D01*
X106865964Y-87955654D01*
X106818345Y-88050892D01*
X106770726Y-88098511D01*
X106675488Y-88146130D01*
X106580250Y-88146130D01*
X106485011Y-88098511D01*
X106437392Y-88050892D01*
X106389773Y-87955654D01*
X106342154Y-87765178D01*
X106342154Y-87527083D01*
X106389773Y-87336607D01*
X106437392Y-87241369D01*
X106485011Y-87193750D01*
X106580250Y-87146130D01*
%TO.C,J1*%
X82758470Y-110815789D02*
X83115613Y-111434379D01*
X83145802Y-111581906D01*
X83110942Y-111712004D01*
X83011034Y-111824672D01*
X82928555Y-111872291D01*
X84124495Y-111181815D02*
X83629624Y-111467529D01*
X83877059Y-111324672D02*
X83377059Y-110458646D01*
X83366009Y-110629983D01*
X83331150Y-110760081D01*
X83272481Y-110848939D01*
%TD*%
M02*
