M48
; DRILL file {KiCad (5.1.9-0-10_14)} date Monday, April 19, 2021 at 01:18:49 AM
; FORMAT={-:-/ absolute / inch / decimal}
; #@! TF.CreationDate,2021-04-19T01:18:49-05:00
; #@! TF.GenerationSoftware,Kicad,Pcbnew,(5.1.9-0-10_14)
; #@! TF.FileFunction,NonPlated,1,2,NPTH
FMAT,2
INCH
T1C0.0472
T2C0.0689
T3C0.1200
T4C0.1570
T5C0.2165
%
G90
G05
T1
X3.435Y-4.6616
X3.5728Y-4.9003
T2
X4.0987Y-5.333
X4.2988Y-5.6795
X4.7687Y-2.4688
X4.7687Y-3.2188
X4.7687Y-3.9688
X4.7687Y-4.7188
X5.1125Y-5.5938
X5.1688Y-2.4688
X5.1688Y-3.2188
X5.1688Y-3.9688
X5.1688Y-4.7188
X5.5125Y-5.5938
X5.5187Y-2.375
X5.5187Y-3.125
X5.5187Y-3.875
X5.5187Y-4.625
X5.8625Y-5.5
X5.9188Y-2.375
X5.9188Y-3.125
X5.9188Y-3.875
X5.9188Y-4.625
X6.2625Y-5.5
X6.2687Y-2.2812
X6.2687Y-3.0312
X6.2687Y-3.7812
X6.2687Y-4.5312
X6.6125Y-5.5
X6.6688Y-2.2812
X6.6688Y-3.0312
X6.6688Y-3.7812
X6.6688Y-4.5312
X7.0125Y-5.5
X7.0187Y-2.375
X7.0187Y-3.125
X7.0187Y-3.875
X7.0187Y-4.625
X7.4188Y-2.375
X7.4188Y-3.125
X7.4188Y-3.875
X7.4188Y-4.625
X7.7687Y-2.5
X7.7687Y-3.25
X7.7687Y-4.0
X7.7687Y-4.75
X8.1687Y-2.5
X8.1687Y-3.25
X8.1687Y-4.0
X8.1687Y-4.75
X8.5187Y-2.5
X8.5187Y-3.25
X8.5187Y-4.0
X8.5187Y-4.75
X8.9187Y-2.5
X8.9187Y-3.25
X8.9187Y-4.0
X8.9187Y-4.75
T3
X3.7256Y-5.2367
X4.1956Y-6.0508
T4
X4.1987Y-5.5062
X4.2452Y-4.9367
X4.7152Y-5.7508
X4.9688Y-2.4688
X4.9688Y-3.2188
X4.9688Y-3.9688
X4.9688Y-4.7188
X5.3125Y-5.5938
X5.7188Y-2.375
X5.7188Y-3.125
X5.7188Y-3.875
X5.7188Y-4.625
X6.0625Y-5.5
X6.4688Y-2.2812
X6.4688Y-3.0312
X6.4688Y-3.7812
X6.4688Y-4.5312
X6.8125Y-5.5
X7.2188Y-2.375
X7.2188Y-3.125
X7.2188Y-3.875
X7.2188Y-4.625
X7.9688Y-2.5
X7.9688Y-3.25
X7.9688Y-4.0
X7.9688Y-4.75
X8.7188Y-2.5
X8.7188Y-3.25
X8.7188Y-4.0
X8.7188Y-4.75
T5
X4.75Y-5.4375
X5.3438Y-2.8438
X5.3438Y-4.3438
X8.343Y-4.375
X8.3438Y-2.875
T0
M30
