%TF.GenerationSoftware,KiCad,Pcbnew,(5.1.9-0-10_14)*%
%TF.CreationDate,2021-04-19T01:18:51-05:00*%
%TF.ProjectId,wren-right,7772656e-2d72-4696-9768-742e6b696361,rev?*%
%TF.SameCoordinates,Original*%
%TF.FileFunction,Soldermask,Bot*%
%TF.FilePolarity,Negative*%
%FSLAX46Y46*%
G04 Gerber Fmt 4.6, Leading zero omitted, Abs format (unit mm)*
G04 Created by KiCad (PCBNEW (5.1.9-0-10_14)) date 2021-04-19 01:18:51*
%MOMM*%
%LPD*%
G01*
G04 APERTURE LIST*
%ADD10C,5.500000*%
%ADD11C,3.987800*%
%ADD12C,3.048000*%
%ADD13C,1.750000*%
%ADD14C,0.100000*%
%ADD15C,1.905000*%
%ADD16C,2.250000*%
%ADD17O,1.400000X1.400000*%
%ADD18C,1.400000*%
%ADD19C,1.600000*%
%ADD20R,1.600000X1.600000*%
%ADD21R,1.200000X1.200000*%
%ADD22R,2.000000X2.000000*%
%ADD23C,2.000000*%
%ADD24R,2.000000X3.200000*%
%ADD25C,1.752600*%
%ADD26R,1.752600X1.752600*%
%ADD27C,1.200000*%
%ADD28R,1.905000X1.905000*%
G04 APERTURE END LIST*
D10*
%TO.C,H7*%
X120650000Y-138112500D03*
%TD*%
%TO.C,H6*%
X135731250Y-110331250D03*
%TD*%
%TO.C,H3*%
X135731250Y-72231250D03*
%TD*%
%TO.C,H2*%
X211931250Y-73025000D03*
%TD*%
%TO.C,H1*%
X211913250Y-111125000D03*
%TD*%
D11*
%TO.C,MX41*%
X119766290Y-146069861D03*
X107828290Y-125392639D03*
D12*
X106568063Y-153689861D03*
X94630063Y-133012639D03*
D13*
X109188250Y-144258159D03*
X104108250Y-135459341D03*
D14*
G36*
X100312702Y-140950259D02*
G01*
X101962480Y-139997759D01*
X102914980Y-141647537D01*
X101265202Y-142600037D01*
X100312702Y-140950259D01*
G37*
D15*
X102883841Y-143498602D03*
D16*
X108862352Y-135693686D03*
D11*
X106648250Y-139858750D03*
G36*
G01*
X105842539Y-135055292D02*
X105842134Y-135057206D01*
G75*
G02*
X107174942Y-134188372I1100821J-231987D01*
G01*
X109094340Y-134592866D01*
G75*
G02*
X109963174Y-135925674I-231987J-1100821D01*
G01*
X109963174Y-135925674D01*
G75*
G02*
X108630366Y-136794508I-1100821J231987D01*
G01*
X106710968Y-136390014D01*
G75*
G02*
X105842134Y-135057206I231987J1100821D01*
G01*
G37*
D16*
X112317659Y-139518455D03*
G36*
G01*
X110785083Y-140268746D02*
X110784693Y-140267948D01*
G75*
G02*
X111301230Y-138763143I1010671J494134D01*
G01*
X111823526Y-138507783D01*
G75*
G02*
X113328331Y-139024320I494134J-1010671D01*
G01*
X113328331Y-139024320D01*
G75*
G02*
X112811794Y-140529125I-1010671J-494134D01*
G01*
X112289498Y-140784485D01*
G75*
G02*
X110784693Y-140267948I-494134J1010671D01*
G01*
G37*
%TD*%
D17*
%TO.C,R2*%
X108283750Y-70643750D03*
D18*
X103203750Y-70643750D03*
%TD*%
D17*
%TO.C,R1*%
X108283750Y-65087500D03*
D18*
X103203750Y-65087500D03*
%TD*%
D19*
%TO.C,D45*%
X192087500Y-135800000D03*
D20*
X192087500Y-143600000D03*
D21*
X192087500Y-141275000D03*
X192087500Y-138125000D03*
%TD*%
D19*
%TO.C,D44*%
X181768750Y-135800000D03*
D20*
X181768750Y-143600000D03*
D21*
X181768750Y-141275000D03*
X181768750Y-138125000D03*
%TD*%
D19*
%TO.C,D43*%
X162718750Y-135800000D03*
D20*
X162718750Y-143600000D03*
D21*
X162718750Y-141275000D03*
X162718750Y-138125000D03*
%TD*%
D19*
%TO.C,D42*%
X143672250Y-138181250D03*
D20*
X143672250Y-145981250D03*
D21*
X143672250Y-143656250D03*
X143672250Y-140506250D03*
%TD*%
D19*
%TO.C,D41*%
X114516249Y-145687500D03*
D14*
G36*
X107468431Y-150680320D02*
G01*
X106668431Y-149294680D01*
X108054071Y-148494680D01*
X108854071Y-149880320D01*
X107468431Y-150680320D01*
G37*
G36*
X109555145Y-149244615D02*
G01*
X108955145Y-148205385D01*
X109994375Y-147605385D01*
X110594375Y-148644615D01*
X109555145Y-149244615D01*
G37*
G36*
X112283125Y-147669615D02*
G01*
X111683125Y-146630385D01*
X112722355Y-146030385D01*
X113322355Y-147069615D01*
X112283125Y-147669615D01*
G37*
%TD*%
D19*
%TO.C,D36*%
X229370250Y-116750000D03*
D20*
X229370250Y-124550000D03*
D21*
X229370250Y-122225000D03*
X229370250Y-119075000D03*
%TD*%
D19*
%TO.C,D35*%
X211119750Y-116750000D03*
D20*
X211119750Y-124550000D03*
D21*
X211119750Y-122225000D03*
X211119750Y-119075000D03*
%TD*%
D19*
%TO.C,D34*%
X192075750Y-113575000D03*
D20*
X192075750Y-121375000D03*
D21*
X192075750Y-119050000D03*
X192075750Y-115900000D03*
%TD*%
D19*
%TO.C,D33*%
X173031750Y-111193750D03*
D20*
X173031750Y-118993750D03*
D21*
X173031750Y-116668750D03*
X173031750Y-113518750D03*
%TD*%
D19*
%TO.C,D32*%
X153987750Y-113575000D03*
D20*
X153987750Y-121375000D03*
D21*
X153987750Y-119050000D03*
X153987750Y-115900000D03*
%TD*%
D19*
%TO.C,D31*%
X134943750Y-115956250D03*
D20*
X134943750Y-123756250D03*
D21*
X134943750Y-121431250D03*
X134943750Y-118281250D03*
%TD*%
D19*
%TO.C,D26*%
X229370250Y-97700000D03*
D20*
X229370250Y-105500000D03*
D21*
X229370250Y-103175000D03*
X229370250Y-100025000D03*
%TD*%
D19*
%TO.C,D25*%
X211119750Y-97700000D03*
D20*
X211119750Y-105500000D03*
D21*
X211119750Y-103175000D03*
X211119750Y-100025000D03*
%TD*%
D19*
%TO.C,D24*%
X192075750Y-94525000D03*
D20*
X192075750Y-102325000D03*
D21*
X192075750Y-100000000D03*
X192075750Y-96850000D03*
%TD*%
D19*
%TO.C,D23*%
X173031750Y-92143750D03*
D20*
X173031750Y-99943750D03*
D21*
X173031750Y-97618750D03*
X173031750Y-94468750D03*
%TD*%
D19*
%TO.C,D22*%
X153987750Y-94525000D03*
D20*
X153987750Y-102325000D03*
D21*
X153987750Y-100000000D03*
X153987750Y-96850000D03*
%TD*%
D19*
%TO.C,D21*%
X134943750Y-96906250D03*
D20*
X134943750Y-104706250D03*
D21*
X134943750Y-102381250D03*
X134943750Y-99231250D03*
%TD*%
D19*
%TO.C,D16*%
X229370250Y-78650000D03*
D20*
X229370250Y-86450000D03*
D21*
X229370250Y-84125000D03*
X229370250Y-80975000D03*
%TD*%
D19*
%TO.C,D15*%
X211119750Y-78650000D03*
D20*
X211119750Y-86450000D03*
D21*
X211119750Y-84125000D03*
X211119750Y-80975000D03*
%TD*%
D19*
%TO.C,D14*%
X192075750Y-75475000D03*
D20*
X192075750Y-83275000D03*
D21*
X192075750Y-80950000D03*
X192075750Y-77800000D03*
%TD*%
D19*
%TO.C,D13*%
X173031750Y-73093750D03*
D20*
X173031750Y-80893750D03*
D21*
X173031750Y-78568750D03*
X173031750Y-75418750D03*
%TD*%
D19*
%TO.C,D12*%
X153987750Y-75475000D03*
D20*
X153987750Y-83275000D03*
D21*
X153987750Y-80950000D03*
X153987750Y-77800000D03*
%TD*%
D19*
%TO.C,D11*%
X134943750Y-77856250D03*
D20*
X134943750Y-85656250D03*
D21*
X134943750Y-83331250D03*
X134943750Y-80181250D03*
%TD*%
D19*
%TO.C,D6*%
X229370250Y-59600000D03*
D20*
X229370250Y-67400000D03*
D21*
X229370250Y-65075000D03*
X229370250Y-61925000D03*
%TD*%
D19*
%TO.C,D5*%
X211119750Y-59600000D03*
D20*
X211119750Y-67400000D03*
D21*
X211119750Y-65075000D03*
X211119750Y-61925000D03*
%TD*%
D19*
%TO.C,D4*%
X192075750Y-56425000D03*
D20*
X192075750Y-64225000D03*
D21*
X192075750Y-61900000D03*
X192075750Y-58750000D03*
%TD*%
D19*
%TO.C,D3*%
X173031750Y-54043750D03*
D20*
X173031750Y-61843750D03*
D21*
X173031750Y-59518750D03*
X173031750Y-56368750D03*
%TD*%
D19*
%TO.C,D2*%
X153987750Y-56425000D03*
D20*
X153987750Y-64225000D03*
D21*
X153987750Y-61900000D03*
X153987750Y-58750000D03*
%TD*%
D19*
%TO.C,D1*%
X134943750Y-58806250D03*
D20*
X134943750Y-66606250D03*
D21*
X134943750Y-64281250D03*
X134943750Y-61131250D03*
%TD*%
D22*
%TO.C,ENC1*%
X189579250Y-147097750D03*
D23*
X192079250Y-147097750D03*
X194579250Y-147097750D03*
D24*
X186479250Y-139597750D03*
X197679250Y-139597750D03*
D23*
X189579250Y-132597750D03*
X194579250Y-132597750D03*
%TD*%
D25*
%TO.C,U1*%
X100488750Y-85407500D03*
X103028750Y-85407500D03*
X105568750Y-85407500D03*
X108108750Y-85407500D03*
X110648750Y-85407500D03*
X113188750Y-57467500D03*
X98177350Y-85407500D03*
X113188750Y-60007500D03*
X113188750Y-62547500D03*
X113188750Y-65087500D03*
X113188750Y-67627500D03*
X113188750Y-70167500D03*
X113188750Y-72707500D03*
X113188750Y-75247500D03*
X113188750Y-77787500D03*
X113188750Y-80327500D03*
X113188750Y-82867500D03*
X113188750Y-85407500D03*
X97948750Y-82867500D03*
X97948750Y-80327500D03*
X97948750Y-77787500D03*
X97948750Y-75247500D03*
X97948750Y-72707500D03*
X97948750Y-70167500D03*
X97948750Y-67627500D03*
X97948750Y-65087500D03*
X97948750Y-62547500D03*
X97948750Y-60007500D03*
D26*
X97948750Y-57467500D03*
%TD*%
D23*
%TO.C,SW0*%
X108830250Y-89693750D03*
X108830250Y-94193750D03*
X102330250Y-89693750D03*
X102330250Y-94193750D03*
%TD*%
D27*
%TO.C,J1*%
X90748108Y-124467583D03*
X87248108Y-118405405D03*
G36*
G01*
X84106250Y-117563546D02*
X84106250Y-117563546D01*
G75*
G02*
X85062468Y-117819764I350000J-606218D01*
G01*
X85362468Y-118339380D01*
G75*
G02*
X85106250Y-119295598I-606218J-350000D01*
G01*
X85106250Y-119295598D01*
G75*
G02*
X84150032Y-119039380I-350000J606218D01*
G01*
X83850032Y-118519764D01*
G75*
G02*
X84106250Y-117563546I606218J350000D01*
G01*
G37*
G36*
G01*
X85606250Y-120161622D02*
X85606250Y-120161622D01*
G75*
G02*
X86562468Y-120417840I350000J-606218D01*
G01*
X86862468Y-120937456D01*
G75*
G02*
X86606250Y-121893674I-606218J-350000D01*
G01*
X86606250Y-121893674D01*
G75*
G02*
X85650032Y-121637456I-350000J606218D01*
G01*
X85350032Y-121117840D01*
G75*
G02*
X85606250Y-120161622I606218J350000D01*
G01*
G37*
D14*
G36*
X87000032Y-123975725D02*
G01*
X88212468Y-123275725D01*
X89212468Y-125007775D01*
X88000032Y-125707775D01*
X87000032Y-123975725D01*
G37*
G36*
G01*
X92253364Y-122674762D02*
X92253364Y-122674762D01*
G75*
G02*
X93209582Y-122930980I350000J-606218D01*
G01*
X93509582Y-123450596D01*
G75*
G02*
X93253364Y-124406814I-606218J-350000D01*
G01*
X93253364Y-124406814D01*
G75*
G02*
X92297146Y-124150596I-350000J606218D01*
G01*
X91997146Y-123630980D01*
G75*
G02*
X92253364Y-122674762I606218J350000D01*
G01*
G37*
G36*
G01*
X88869390Y-114813546D02*
X88869390Y-114813546D01*
G75*
G02*
X89825608Y-115069764I350000J-606218D01*
G01*
X90125608Y-115589380D01*
G75*
G02*
X89869390Y-116545598I-606218J-350000D01*
G01*
X89869390Y-116545598D01*
G75*
G02*
X88913172Y-116289380I-350000J606218D01*
G01*
X88613172Y-115769764D01*
G75*
G02*
X88869390Y-114813546I606218J350000D01*
G01*
G37*
%TD*%
D13*
%TO.C,MX44*%
X178117500Y-139700000D03*
X167957500Y-139700000D03*
D28*
X174307500Y-144780000D03*
D15*
X171767500Y-144780000D03*
D16*
X170537500Y-135700000D03*
D11*
X173037500Y-139700000D03*
G36*
G01*
X168476188Y-137997350D02*
X168476183Y-137997345D01*
G75*
G02*
X168390155Y-136408683I751317J837345D01*
G01*
X169700157Y-134948683D01*
G75*
G02*
X171288819Y-134862655I837345J-751317D01*
G01*
X171288819Y-134862655D01*
G75*
G02*
X171374847Y-136451317I-751317J-837345D01*
G01*
X170064845Y-137911317D01*
G75*
G02*
X168476183Y-137997345I-837345J751317D01*
G01*
G37*
D16*
X175577500Y-134620000D03*
G36*
G01*
X175460983Y-136322395D02*
X175460097Y-136322334D01*
G75*
G02*
X174415166Y-135122597I77403J1122334D01*
G01*
X174455166Y-134542597D01*
G75*
G02*
X175654903Y-133497666I1122334J-77403D01*
G01*
X175654903Y-133497666D01*
G75*
G02*
X176699834Y-134697403I-77403J-1122334D01*
G01*
X176659834Y-135277403D01*
G75*
G02*
X175460097Y-136322334I-1122334J77403D01*
G01*
G37*
%TD*%
D13*
%TO.C,MX43*%
X159067500Y-139700000D03*
X148907500Y-139700000D03*
D28*
X155257500Y-144780000D03*
D15*
X152717500Y-144780000D03*
D16*
X151487500Y-135700000D03*
D11*
X153987500Y-139700000D03*
G36*
G01*
X149426188Y-137997350D02*
X149426183Y-137997345D01*
G75*
G02*
X149340155Y-136408683I751317J837345D01*
G01*
X150650157Y-134948683D01*
G75*
G02*
X152238819Y-134862655I837345J-751317D01*
G01*
X152238819Y-134862655D01*
G75*
G02*
X152324847Y-136451317I-751317J-837345D01*
G01*
X151014845Y-137911317D01*
G75*
G02*
X149426183Y-137997345I-837345J751317D01*
G01*
G37*
D16*
X156527500Y-134620000D03*
G36*
G01*
X156410983Y-136322395D02*
X156410097Y-136322334D01*
G75*
G02*
X155365166Y-135122597I77403J1122334D01*
G01*
X155405166Y-134542597D01*
G75*
G02*
X156604903Y-133497666I1122334J-77403D01*
G01*
X156604903Y-133497666D01*
G75*
G02*
X157649834Y-134697403I-77403J-1122334D01*
G01*
X157609834Y-135277403D01*
G75*
G02*
X156410097Y-136322334I-1122334J77403D01*
G01*
G37*
%TD*%
D13*
%TO.C,MX42*%
X140017500Y-142081250D03*
X129857500Y-142081250D03*
D28*
X136207500Y-147161250D03*
D15*
X133667500Y-147161250D03*
D16*
X132437500Y-138081250D03*
D11*
X134937500Y-142081250D03*
G36*
G01*
X130376188Y-140378600D02*
X130376183Y-140378595D01*
G75*
G02*
X130290155Y-138789933I751317J837345D01*
G01*
X131600157Y-137329933D01*
G75*
G02*
X133188819Y-137243905I837345J-751317D01*
G01*
X133188819Y-137243905D01*
G75*
G02*
X133274847Y-138832567I-751317J-837345D01*
G01*
X131964845Y-140292567D01*
G75*
G02*
X130376183Y-140378595I-837345J751317D01*
G01*
G37*
D16*
X137477500Y-137001250D03*
G36*
G01*
X137360983Y-138703645D02*
X137360097Y-138703584D01*
G75*
G02*
X136315166Y-137503847I77403J1122334D01*
G01*
X136355166Y-136923847D01*
G75*
G02*
X137554903Y-135878916I1122334J-77403D01*
G01*
X137554903Y-135878916D01*
G75*
G02*
X138599834Y-137078653I-77403J-1122334D01*
G01*
X138559834Y-137658653D01*
G75*
G02*
X137360097Y-138703584I-1122334J77403D01*
G01*
G37*
%TD*%
D13*
%TO.C,MX36*%
X226536250Y-120650000D03*
X216376250Y-120650000D03*
D28*
X222726250Y-125730000D03*
D15*
X220186250Y-125730000D03*
D16*
X218956250Y-116650000D03*
D11*
X221456250Y-120650000D03*
G36*
G01*
X216894938Y-118947350D02*
X216894933Y-118947345D01*
G75*
G02*
X216808905Y-117358683I751317J837345D01*
G01*
X218118907Y-115898683D01*
G75*
G02*
X219707569Y-115812655I837345J-751317D01*
G01*
X219707569Y-115812655D01*
G75*
G02*
X219793597Y-117401317I-751317J-837345D01*
G01*
X218483595Y-118861317D01*
G75*
G02*
X216894933Y-118947345I-837345J751317D01*
G01*
G37*
D16*
X223996250Y-115570000D03*
G36*
G01*
X223879733Y-117272395D02*
X223878847Y-117272334D01*
G75*
G02*
X222833916Y-116072597I77403J1122334D01*
G01*
X222873916Y-115492597D01*
G75*
G02*
X224073653Y-114447666I1122334J-77403D01*
G01*
X224073653Y-114447666D01*
G75*
G02*
X225118584Y-115647403I-77403J-1122334D01*
G01*
X225078584Y-116227403D01*
G75*
G02*
X223878847Y-117272334I-1122334J77403D01*
G01*
G37*
%TD*%
D13*
%TO.C,MX35*%
X207486250Y-120650000D03*
X197326250Y-120650000D03*
D28*
X203676250Y-125730000D03*
D15*
X201136250Y-125730000D03*
D16*
X199906250Y-116650000D03*
D11*
X202406250Y-120650000D03*
G36*
G01*
X197844938Y-118947350D02*
X197844933Y-118947345D01*
G75*
G02*
X197758905Y-117358683I751317J837345D01*
G01*
X199068907Y-115898683D01*
G75*
G02*
X200657569Y-115812655I837345J-751317D01*
G01*
X200657569Y-115812655D01*
G75*
G02*
X200743597Y-117401317I-751317J-837345D01*
G01*
X199433595Y-118861317D01*
G75*
G02*
X197844933Y-118947345I-837345J751317D01*
G01*
G37*
D16*
X204946250Y-115570000D03*
G36*
G01*
X204829733Y-117272395D02*
X204828847Y-117272334D01*
G75*
G02*
X203783916Y-116072597I77403J1122334D01*
G01*
X203823916Y-115492597D01*
G75*
G02*
X205023653Y-114447666I1122334J-77403D01*
G01*
X205023653Y-114447666D01*
G75*
G02*
X206068584Y-115647403I-77403J-1122334D01*
G01*
X206028584Y-116227403D01*
G75*
G02*
X204828847Y-117272334I-1122334J77403D01*
G01*
G37*
%TD*%
D13*
%TO.C,MX34*%
X188436250Y-117475000D03*
X178276250Y-117475000D03*
D28*
X184626250Y-122555000D03*
D15*
X182086250Y-122555000D03*
D16*
X180856250Y-113475000D03*
D11*
X183356250Y-117475000D03*
G36*
G01*
X178794938Y-115772350D02*
X178794933Y-115772345D01*
G75*
G02*
X178708905Y-114183683I751317J837345D01*
G01*
X180018907Y-112723683D01*
G75*
G02*
X181607569Y-112637655I837345J-751317D01*
G01*
X181607569Y-112637655D01*
G75*
G02*
X181693597Y-114226317I-751317J-837345D01*
G01*
X180383595Y-115686317D01*
G75*
G02*
X178794933Y-115772345I-837345J751317D01*
G01*
G37*
D16*
X185896250Y-112395000D03*
G36*
G01*
X185779733Y-114097395D02*
X185778847Y-114097334D01*
G75*
G02*
X184733916Y-112897597I77403J1122334D01*
G01*
X184773916Y-112317597D01*
G75*
G02*
X185973653Y-111272666I1122334J-77403D01*
G01*
X185973653Y-111272666D01*
G75*
G02*
X187018584Y-112472403I-77403J-1122334D01*
G01*
X186978584Y-113052403D01*
G75*
G02*
X185778847Y-114097334I-1122334J77403D01*
G01*
G37*
%TD*%
D13*
%TO.C,MX33*%
X169386250Y-115093750D03*
X159226250Y-115093750D03*
D28*
X165576250Y-120173750D03*
D15*
X163036250Y-120173750D03*
D16*
X161806250Y-111093750D03*
D11*
X164306250Y-115093750D03*
G36*
G01*
X159744938Y-113391100D02*
X159744933Y-113391095D01*
G75*
G02*
X159658905Y-111802433I751317J837345D01*
G01*
X160968907Y-110342433D01*
G75*
G02*
X162557569Y-110256405I837345J-751317D01*
G01*
X162557569Y-110256405D01*
G75*
G02*
X162643597Y-111845067I-751317J-837345D01*
G01*
X161333595Y-113305067D01*
G75*
G02*
X159744933Y-113391095I-837345J751317D01*
G01*
G37*
D16*
X166846250Y-110013750D03*
G36*
G01*
X166729733Y-111716145D02*
X166728847Y-111716084D01*
G75*
G02*
X165683916Y-110516347I77403J1122334D01*
G01*
X165723916Y-109936347D01*
G75*
G02*
X166923653Y-108891416I1122334J-77403D01*
G01*
X166923653Y-108891416D01*
G75*
G02*
X167968584Y-110091153I-77403J-1122334D01*
G01*
X167928584Y-110671153D01*
G75*
G02*
X166728847Y-111716084I-1122334J77403D01*
G01*
G37*
%TD*%
D13*
%TO.C,MX32*%
X150336250Y-117475000D03*
X140176250Y-117475000D03*
D28*
X146526250Y-122555000D03*
D15*
X143986250Y-122555000D03*
D16*
X142756250Y-113475000D03*
D11*
X145256250Y-117475000D03*
G36*
G01*
X140694938Y-115772350D02*
X140694933Y-115772345D01*
G75*
G02*
X140608905Y-114183683I751317J837345D01*
G01*
X141918907Y-112723683D01*
G75*
G02*
X143507569Y-112637655I837345J-751317D01*
G01*
X143507569Y-112637655D01*
G75*
G02*
X143593597Y-114226317I-751317J-837345D01*
G01*
X142283595Y-115686317D01*
G75*
G02*
X140694933Y-115772345I-837345J751317D01*
G01*
G37*
D16*
X147796250Y-112395000D03*
G36*
G01*
X147679733Y-114097395D02*
X147678847Y-114097334D01*
G75*
G02*
X146633916Y-112897597I77403J1122334D01*
G01*
X146673916Y-112317597D01*
G75*
G02*
X147873653Y-111272666I1122334J-77403D01*
G01*
X147873653Y-111272666D01*
G75*
G02*
X148918584Y-112472403I-77403J-1122334D01*
G01*
X148878584Y-113052403D01*
G75*
G02*
X147678847Y-114097334I-1122334J77403D01*
G01*
G37*
%TD*%
D13*
%TO.C,MX31*%
X131286250Y-119856250D03*
X121126250Y-119856250D03*
D28*
X127476250Y-124936250D03*
D15*
X124936250Y-124936250D03*
D16*
X123706250Y-115856250D03*
D11*
X126206250Y-119856250D03*
G36*
G01*
X121644938Y-118153600D02*
X121644933Y-118153595D01*
G75*
G02*
X121558905Y-116564933I751317J837345D01*
G01*
X122868907Y-115104933D01*
G75*
G02*
X124457569Y-115018905I837345J-751317D01*
G01*
X124457569Y-115018905D01*
G75*
G02*
X124543597Y-116607567I-751317J-837345D01*
G01*
X123233595Y-118067567D01*
G75*
G02*
X121644933Y-118153595I-837345J751317D01*
G01*
G37*
D16*
X128746250Y-114776250D03*
G36*
G01*
X128629733Y-116478645D02*
X128628847Y-116478584D01*
G75*
G02*
X127583916Y-115278847I77403J1122334D01*
G01*
X127623916Y-114698847D01*
G75*
G02*
X128823653Y-113653916I1122334J-77403D01*
G01*
X128823653Y-113653916D01*
G75*
G02*
X129868584Y-114853653I-77403J-1122334D01*
G01*
X129828584Y-115433653D01*
G75*
G02*
X128628847Y-116478584I-1122334J77403D01*
G01*
G37*
%TD*%
D13*
%TO.C,MX26*%
X226536250Y-101600000D03*
X216376250Y-101600000D03*
D28*
X222726250Y-106680000D03*
D15*
X220186250Y-106680000D03*
D16*
X218956250Y-97600000D03*
D11*
X221456250Y-101600000D03*
G36*
G01*
X216894938Y-99897350D02*
X216894933Y-99897345D01*
G75*
G02*
X216808905Y-98308683I751317J837345D01*
G01*
X218118907Y-96848683D01*
G75*
G02*
X219707569Y-96762655I837345J-751317D01*
G01*
X219707569Y-96762655D01*
G75*
G02*
X219793597Y-98351317I-751317J-837345D01*
G01*
X218483595Y-99811317D01*
G75*
G02*
X216894933Y-99897345I-837345J751317D01*
G01*
G37*
D16*
X223996250Y-96520000D03*
G36*
G01*
X223879733Y-98222395D02*
X223878847Y-98222334D01*
G75*
G02*
X222833916Y-97022597I77403J1122334D01*
G01*
X222873916Y-96442597D01*
G75*
G02*
X224073653Y-95397666I1122334J-77403D01*
G01*
X224073653Y-95397666D01*
G75*
G02*
X225118584Y-96597403I-77403J-1122334D01*
G01*
X225078584Y-97177403D01*
G75*
G02*
X223878847Y-98222334I-1122334J77403D01*
G01*
G37*
%TD*%
D13*
%TO.C,MX25*%
X207486250Y-101600000D03*
X197326250Y-101600000D03*
D28*
X203676250Y-106680000D03*
D15*
X201136250Y-106680000D03*
D16*
X199906250Y-97600000D03*
D11*
X202406250Y-101600000D03*
G36*
G01*
X197844938Y-99897350D02*
X197844933Y-99897345D01*
G75*
G02*
X197758905Y-98308683I751317J837345D01*
G01*
X199068907Y-96848683D01*
G75*
G02*
X200657569Y-96762655I837345J-751317D01*
G01*
X200657569Y-96762655D01*
G75*
G02*
X200743597Y-98351317I-751317J-837345D01*
G01*
X199433595Y-99811317D01*
G75*
G02*
X197844933Y-99897345I-837345J751317D01*
G01*
G37*
D16*
X204946250Y-96520000D03*
G36*
G01*
X204829733Y-98222395D02*
X204828847Y-98222334D01*
G75*
G02*
X203783916Y-97022597I77403J1122334D01*
G01*
X203823916Y-96442597D01*
G75*
G02*
X205023653Y-95397666I1122334J-77403D01*
G01*
X205023653Y-95397666D01*
G75*
G02*
X206068584Y-96597403I-77403J-1122334D01*
G01*
X206028584Y-97177403D01*
G75*
G02*
X204828847Y-98222334I-1122334J77403D01*
G01*
G37*
%TD*%
D13*
%TO.C,MX24*%
X188436250Y-98425000D03*
X178276250Y-98425000D03*
D28*
X184626250Y-103505000D03*
D15*
X182086250Y-103505000D03*
D16*
X180856250Y-94425000D03*
D11*
X183356250Y-98425000D03*
G36*
G01*
X178794938Y-96722350D02*
X178794933Y-96722345D01*
G75*
G02*
X178708905Y-95133683I751317J837345D01*
G01*
X180018907Y-93673683D01*
G75*
G02*
X181607569Y-93587655I837345J-751317D01*
G01*
X181607569Y-93587655D01*
G75*
G02*
X181693597Y-95176317I-751317J-837345D01*
G01*
X180383595Y-96636317D01*
G75*
G02*
X178794933Y-96722345I-837345J751317D01*
G01*
G37*
D16*
X185896250Y-93345000D03*
G36*
G01*
X185779733Y-95047395D02*
X185778847Y-95047334D01*
G75*
G02*
X184733916Y-93847597I77403J1122334D01*
G01*
X184773916Y-93267597D01*
G75*
G02*
X185973653Y-92222666I1122334J-77403D01*
G01*
X185973653Y-92222666D01*
G75*
G02*
X187018584Y-93422403I-77403J-1122334D01*
G01*
X186978584Y-94002403D01*
G75*
G02*
X185778847Y-95047334I-1122334J77403D01*
G01*
G37*
%TD*%
D13*
%TO.C,MX23*%
X169386250Y-96043750D03*
X159226250Y-96043750D03*
D28*
X165576250Y-101123750D03*
D15*
X163036250Y-101123750D03*
D16*
X161806250Y-92043750D03*
D11*
X164306250Y-96043750D03*
G36*
G01*
X159744938Y-94341100D02*
X159744933Y-94341095D01*
G75*
G02*
X159658905Y-92752433I751317J837345D01*
G01*
X160968907Y-91292433D01*
G75*
G02*
X162557569Y-91206405I837345J-751317D01*
G01*
X162557569Y-91206405D01*
G75*
G02*
X162643597Y-92795067I-751317J-837345D01*
G01*
X161333595Y-94255067D01*
G75*
G02*
X159744933Y-94341095I-837345J751317D01*
G01*
G37*
D16*
X166846250Y-90963750D03*
G36*
G01*
X166729733Y-92666145D02*
X166728847Y-92666084D01*
G75*
G02*
X165683916Y-91466347I77403J1122334D01*
G01*
X165723916Y-90886347D01*
G75*
G02*
X166923653Y-89841416I1122334J-77403D01*
G01*
X166923653Y-89841416D01*
G75*
G02*
X167968584Y-91041153I-77403J-1122334D01*
G01*
X167928584Y-91621153D01*
G75*
G02*
X166728847Y-92666084I-1122334J77403D01*
G01*
G37*
%TD*%
D13*
%TO.C,MX22*%
X150336250Y-98425000D03*
X140176250Y-98425000D03*
D28*
X146526250Y-103505000D03*
D15*
X143986250Y-103505000D03*
D16*
X142756250Y-94425000D03*
D11*
X145256250Y-98425000D03*
G36*
G01*
X140694938Y-96722350D02*
X140694933Y-96722345D01*
G75*
G02*
X140608905Y-95133683I751317J837345D01*
G01*
X141918907Y-93673683D01*
G75*
G02*
X143507569Y-93587655I837345J-751317D01*
G01*
X143507569Y-93587655D01*
G75*
G02*
X143593597Y-95176317I-751317J-837345D01*
G01*
X142283595Y-96636317D01*
G75*
G02*
X140694933Y-96722345I-837345J751317D01*
G01*
G37*
D16*
X147796250Y-93345000D03*
G36*
G01*
X147679733Y-95047395D02*
X147678847Y-95047334D01*
G75*
G02*
X146633916Y-93847597I77403J1122334D01*
G01*
X146673916Y-93267597D01*
G75*
G02*
X147873653Y-92222666I1122334J-77403D01*
G01*
X147873653Y-92222666D01*
G75*
G02*
X148918584Y-93422403I-77403J-1122334D01*
G01*
X148878584Y-94002403D01*
G75*
G02*
X147678847Y-95047334I-1122334J77403D01*
G01*
G37*
%TD*%
D13*
%TO.C,MX21*%
X131286250Y-100806250D03*
X121126250Y-100806250D03*
D28*
X127476250Y-105886250D03*
D15*
X124936250Y-105886250D03*
D16*
X123706250Y-96806250D03*
D11*
X126206250Y-100806250D03*
G36*
G01*
X121644938Y-99103600D02*
X121644933Y-99103595D01*
G75*
G02*
X121558905Y-97514933I751317J837345D01*
G01*
X122868907Y-96054933D01*
G75*
G02*
X124457569Y-95968905I837345J-751317D01*
G01*
X124457569Y-95968905D01*
G75*
G02*
X124543597Y-97557567I-751317J-837345D01*
G01*
X123233595Y-99017567D01*
G75*
G02*
X121644933Y-99103595I-837345J751317D01*
G01*
G37*
D16*
X128746250Y-95726250D03*
G36*
G01*
X128629733Y-97428645D02*
X128628847Y-97428584D01*
G75*
G02*
X127583916Y-96228847I77403J1122334D01*
G01*
X127623916Y-95648847D01*
G75*
G02*
X128823653Y-94603916I1122334J-77403D01*
G01*
X128823653Y-94603916D01*
G75*
G02*
X129868584Y-95803653I-77403J-1122334D01*
G01*
X129828584Y-96383653D01*
G75*
G02*
X128628847Y-97428584I-1122334J77403D01*
G01*
G37*
%TD*%
D13*
%TO.C,MX16*%
X226536250Y-82550000D03*
X216376250Y-82550000D03*
D28*
X222726250Y-87630000D03*
D15*
X220186250Y-87630000D03*
D16*
X218956250Y-78550000D03*
D11*
X221456250Y-82550000D03*
G36*
G01*
X216894938Y-80847350D02*
X216894933Y-80847345D01*
G75*
G02*
X216808905Y-79258683I751317J837345D01*
G01*
X218118907Y-77798683D01*
G75*
G02*
X219707569Y-77712655I837345J-751317D01*
G01*
X219707569Y-77712655D01*
G75*
G02*
X219793597Y-79301317I-751317J-837345D01*
G01*
X218483595Y-80761317D01*
G75*
G02*
X216894933Y-80847345I-837345J751317D01*
G01*
G37*
D16*
X223996250Y-77470000D03*
G36*
G01*
X223879733Y-79172395D02*
X223878847Y-79172334D01*
G75*
G02*
X222833916Y-77972597I77403J1122334D01*
G01*
X222873916Y-77392597D01*
G75*
G02*
X224073653Y-76347666I1122334J-77403D01*
G01*
X224073653Y-76347666D01*
G75*
G02*
X225118584Y-77547403I-77403J-1122334D01*
G01*
X225078584Y-78127403D01*
G75*
G02*
X223878847Y-79172334I-1122334J77403D01*
G01*
G37*
%TD*%
D13*
%TO.C,MX15*%
X207486250Y-82550000D03*
X197326250Y-82550000D03*
D28*
X203676250Y-87630000D03*
D15*
X201136250Y-87630000D03*
D16*
X199906250Y-78550000D03*
D11*
X202406250Y-82550000D03*
G36*
G01*
X197844938Y-80847350D02*
X197844933Y-80847345D01*
G75*
G02*
X197758905Y-79258683I751317J837345D01*
G01*
X199068907Y-77798683D01*
G75*
G02*
X200657569Y-77712655I837345J-751317D01*
G01*
X200657569Y-77712655D01*
G75*
G02*
X200743597Y-79301317I-751317J-837345D01*
G01*
X199433595Y-80761317D01*
G75*
G02*
X197844933Y-80847345I-837345J751317D01*
G01*
G37*
D16*
X204946250Y-77470000D03*
G36*
G01*
X204829733Y-79172395D02*
X204828847Y-79172334D01*
G75*
G02*
X203783916Y-77972597I77403J1122334D01*
G01*
X203823916Y-77392597D01*
G75*
G02*
X205023653Y-76347666I1122334J-77403D01*
G01*
X205023653Y-76347666D01*
G75*
G02*
X206068584Y-77547403I-77403J-1122334D01*
G01*
X206028584Y-78127403D01*
G75*
G02*
X204828847Y-79172334I-1122334J77403D01*
G01*
G37*
%TD*%
D13*
%TO.C,MX14*%
X188436250Y-79375000D03*
X178276250Y-79375000D03*
D28*
X184626250Y-84455000D03*
D15*
X182086250Y-84455000D03*
D16*
X180856250Y-75375000D03*
D11*
X183356250Y-79375000D03*
G36*
G01*
X178794938Y-77672350D02*
X178794933Y-77672345D01*
G75*
G02*
X178708905Y-76083683I751317J837345D01*
G01*
X180018907Y-74623683D01*
G75*
G02*
X181607569Y-74537655I837345J-751317D01*
G01*
X181607569Y-74537655D01*
G75*
G02*
X181693597Y-76126317I-751317J-837345D01*
G01*
X180383595Y-77586317D01*
G75*
G02*
X178794933Y-77672345I-837345J751317D01*
G01*
G37*
D16*
X185896250Y-74295000D03*
G36*
G01*
X185779733Y-75997395D02*
X185778847Y-75997334D01*
G75*
G02*
X184733916Y-74797597I77403J1122334D01*
G01*
X184773916Y-74217597D01*
G75*
G02*
X185973653Y-73172666I1122334J-77403D01*
G01*
X185973653Y-73172666D01*
G75*
G02*
X187018584Y-74372403I-77403J-1122334D01*
G01*
X186978584Y-74952403D01*
G75*
G02*
X185778847Y-75997334I-1122334J77403D01*
G01*
G37*
%TD*%
D13*
%TO.C,MX13*%
X169386250Y-76993750D03*
X159226250Y-76993750D03*
D28*
X165576250Y-82073750D03*
D15*
X163036250Y-82073750D03*
D16*
X161806250Y-72993750D03*
D11*
X164306250Y-76993750D03*
G36*
G01*
X159744938Y-75291100D02*
X159744933Y-75291095D01*
G75*
G02*
X159658905Y-73702433I751317J837345D01*
G01*
X160968907Y-72242433D01*
G75*
G02*
X162557569Y-72156405I837345J-751317D01*
G01*
X162557569Y-72156405D01*
G75*
G02*
X162643597Y-73745067I-751317J-837345D01*
G01*
X161333595Y-75205067D01*
G75*
G02*
X159744933Y-75291095I-837345J751317D01*
G01*
G37*
D16*
X166846250Y-71913750D03*
G36*
G01*
X166729733Y-73616145D02*
X166728847Y-73616084D01*
G75*
G02*
X165683916Y-72416347I77403J1122334D01*
G01*
X165723916Y-71836347D01*
G75*
G02*
X166923653Y-70791416I1122334J-77403D01*
G01*
X166923653Y-70791416D01*
G75*
G02*
X167968584Y-71991153I-77403J-1122334D01*
G01*
X167928584Y-72571153D01*
G75*
G02*
X166728847Y-73616084I-1122334J77403D01*
G01*
G37*
%TD*%
D13*
%TO.C,MX12*%
X150336250Y-79375000D03*
X140176250Y-79375000D03*
D28*
X146526250Y-84455000D03*
D15*
X143986250Y-84455000D03*
D16*
X142756250Y-75375000D03*
D11*
X145256250Y-79375000D03*
G36*
G01*
X140694938Y-77672350D02*
X140694933Y-77672345D01*
G75*
G02*
X140608905Y-76083683I751317J837345D01*
G01*
X141918907Y-74623683D01*
G75*
G02*
X143507569Y-74537655I837345J-751317D01*
G01*
X143507569Y-74537655D01*
G75*
G02*
X143593597Y-76126317I-751317J-837345D01*
G01*
X142283595Y-77586317D01*
G75*
G02*
X140694933Y-77672345I-837345J751317D01*
G01*
G37*
D16*
X147796250Y-74295000D03*
G36*
G01*
X147679733Y-75997395D02*
X147678847Y-75997334D01*
G75*
G02*
X146633916Y-74797597I77403J1122334D01*
G01*
X146673916Y-74217597D01*
G75*
G02*
X147873653Y-73172666I1122334J-77403D01*
G01*
X147873653Y-73172666D01*
G75*
G02*
X148918584Y-74372403I-77403J-1122334D01*
G01*
X148878584Y-74952403D01*
G75*
G02*
X147678847Y-75997334I-1122334J77403D01*
G01*
G37*
%TD*%
D13*
%TO.C,MX11*%
X131286250Y-81756250D03*
X121126250Y-81756250D03*
D28*
X127476250Y-86836250D03*
D15*
X124936250Y-86836250D03*
D16*
X123706250Y-77756250D03*
D11*
X126206250Y-81756250D03*
G36*
G01*
X121644938Y-80053600D02*
X121644933Y-80053595D01*
G75*
G02*
X121558905Y-78464933I751317J837345D01*
G01*
X122868907Y-77004933D01*
G75*
G02*
X124457569Y-76918905I837345J-751317D01*
G01*
X124457569Y-76918905D01*
G75*
G02*
X124543597Y-78507567I-751317J-837345D01*
G01*
X123233595Y-79967567D01*
G75*
G02*
X121644933Y-80053595I-837345J751317D01*
G01*
G37*
D16*
X128746250Y-76676250D03*
G36*
G01*
X128629733Y-78378645D02*
X128628847Y-78378584D01*
G75*
G02*
X127583916Y-77178847I77403J1122334D01*
G01*
X127623916Y-76598847D01*
G75*
G02*
X128823653Y-75553916I1122334J-77403D01*
G01*
X128823653Y-75553916D01*
G75*
G02*
X129868584Y-76753653I-77403J-1122334D01*
G01*
X129828584Y-77333653D01*
G75*
G02*
X128628847Y-78378584I-1122334J77403D01*
G01*
G37*
%TD*%
D13*
%TO.C,MX6*%
X226536250Y-63500000D03*
X216376250Y-63500000D03*
D28*
X222726250Y-68580000D03*
D15*
X220186250Y-68580000D03*
D16*
X218956250Y-59500000D03*
D11*
X221456250Y-63500000D03*
G36*
G01*
X216894938Y-61797350D02*
X216894933Y-61797345D01*
G75*
G02*
X216808905Y-60208683I751317J837345D01*
G01*
X218118907Y-58748683D01*
G75*
G02*
X219707569Y-58662655I837345J-751317D01*
G01*
X219707569Y-58662655D01*
G75*
G02*
X219793597Y-60251317I-751317J-837345D01*
G01*
X218483595Y-61711317D01*
G75*
G02*
X216894933Y-61797345I-837345J751317D01*
G01*
G37*
D16*
X223996250Y-58420000D03*
G36*
G01*
X223879733Y-60122395D02*
X223878847Y-60122334D01*
G75*
G02*
X222833916Y-58922597I77403J1122334D01*
G01*
X222873916Y-58342597D01*
G75*
G02*
X224073653Y-57297666I1122334J-77403D01*
G01*
X224073653Y-57297666D01*
G75*
G02*
X225118584Y-58497403I-77403J-1122334D01*
G01*
X225078584Y-59077403D01*
G75*
G02*
X223878847Y-60122334I-1122334J77403D01*
G01*
G37*
%TD*%
D13*
%TO.C,MX5*%
X207486250Y-63500000D03*
X197326250Y-63500000D03*
D28*
X203676250Y-68580000D03*
D15*
X201136250Y-68580000D03*
D16*
X199906250Y-59500000D03*
D11*
X202406250Y-63500000D03*
G36*
G01*
X197844938Y-61797350D02*
X197844933Y-61797345D01*
G75*
G02*
X197758905Y-60208683I751317J837345D01*
G01*
X199068907Y-58748683D01*
G75*
G02*
X200657569Y-58662655I837345J-751317D01*
G01*
X200657569Y-58662655D01*
G75*
G02*
X200743597Y-60251317I-751317J-837345D01*
G01*
X199433595Y-61711317D01*
G75*
G02*
X197844933Y-61797345I-837345J751317D01*
G01*
G37*
D16*
X204946250Y-58420000D03*
G36*
G01*
X204829733Y-60122395D02*
X204828847Y-60122334D01*
G75*
G02*
X203783916Y-58922597I77403J1122334D01*
G01*
X203823916Y-58342597D01*
G75*
G02*
X205023653Y-57297666I1122334J-77403D01*
G01*
X205023653Y-57297666D01*
G75*
G02*
X206068584Y-58497403I-77403J-1122334D01*
G01*
X206028584Y-59077403D01*
G75*
G02*
X204828847Y-60122334I-1122334J77403D01*
G01*
G37*
%TD*%
D13*
%TO.C,MX4*%
X188436250Y-60325000D03*
X178276250Y-60325000D03*
D28*
X184626250Y-65405000D03*
D15*
X182086250Y-65405000D03*
D16*
X180856250Y-56325000D03*
D11*
X183356250Y-60325000D03*
G36*
G01*
X178794938Y-58622350D02*
X178794933Y-58622345D01*
G75*
G02*
X178708905Y-57033683I751317J837345D01*
G01*
X180018907Y-55573683D01*
G75*
G02*
X181607569Y-55487655I837345J-751317D01*
G01*
X181607569Y-55487655D01*
G75*
G02*
X181693597Y-57076317I-751317J-837345D01*
G01*
X180383595Y-58536317D01*
G75*
G02*
X178794933Y-58622345I-837345J751317D01*
G01*
G37*
D16*
X185896250Y-55245000D03*
G36*
G01*
X185779733Y-56947395D02*
X185778847Y-56947334D01*
G75*
G02*
X184733916Y-55747597I77403J1122334D01*
G01*
X184773916Y-55167597D01*
G75*
G02*
X185973653Y-54122666I1122334J-77403D01*
G01*
X185973653Y-54122666D01*
G75*
G02*
X187018584Y-55322403I-77403J-1122334D01*
G01*
X186978584Y-55902403D01*
G75*
G02*
X185778847Y-56947334I-1122334J77403D01*
G01*
G37*
%TD*%
D13*
%TO.C,MX3*%
X169386250Y-57943750D03*
X159226250Y-57943750D03*
D28*
X165576250Y-63023750D03*
D15*
X163036250Y-63023750D03*
D16*
X161806250Y-53943750D03*
D11*
X164306250Y-57943750D03*
G36*
G01*
X159744938Y-56241100D02*
X159744933Y-56241095D01*
G75*
G02*
X159658905Y-54652433I751317J837345D01*
G01*
X160968907Y-53192433D01*
G75*
G02*
X162557569Y-53106405I837345J-751317D01*
G01*
X162557569Y-53106405D01*
G75*
G02*
X162643597Y-54695067I-751317J-837345D01*
G01*
X161333595Y-56155067D01*
G75*
G02*
X159744933Y-56241095I-837345J751317D01*
G01*
G37*
D16*
X166846250Y-52863750D03*
G36*
G01*
X166729733Y-54566145D02*
X166728847Y-54566084D01*
G75*
G02*
X165683916Y-53366347I77403J1122334D01*
G01*
X165723916Y-52786347D01*
G75*
G02*
X166923653Y-51741416I1122334J-77403D01*
G01*
X166923653Y-51741416D01*
G75*
G02*
X167968584Y-52941153I-77403J-1122334D01*
G01*
X167928584Y-53521153D01*
G75*
G02*
X166728847Y-54566084I-1122334J77403D01*
G01*
G37*
%TD*%
D13*
%TO.C,MX2*%
X150336250Y-60325000D03*
X140176250Y-60325000D03*
D28*
X146526250Y-65405000D03*
D15*
X143986250Y-65405000D03*
D16*
X142756250Y-56325000D03*
D11*
X145256250Y-60325000D03*
G36*
G01*
X140694938Y-58622350D02*
X140694933Y-58622345D01*
G75*
G02*
X140608905Y-57033683I751317J837345D01*
G01*
X141918907Y-55573683D01*
G75*
G02*
X143507569Y-55487655I837345J-751317D01*
G01*
X143507569Y-55487655D01*
G75*
G02*
X143593597Y-57076317I-751317J-837345D01*
G01*
X142283595Y-58536317D01*
G75*
G02*
X140694933Y-58622345I-837345J751317D01*
G01*
G37*
D16*
X147796250Y-55245000D03*
G36*
G01*
X147679733Y-56947395D02*
X147678847Y-56947334D01*
G75*
G02*
X146633916Y-55747597I77403J1122334D01*
G01*
X146673916Y-55167597D01*
G75*
G02*
X147873653Y-54122666I1122334J-77403D01*
G01*
X147873653Y-54122666D01*
G75*
G02*
X148918584Y-55322403I-77403J-1122334D01*
G01*
X148878584Y-55902403D01*
G75*
G02*
X147678847Y-56947334I-1122334J77403D01*
G01*
G37*
%TD*%
D13*
%TO.C,MX1*%
X131286250Y-62706250D03*
X121126250Y-62706250D03*
D28*
X127476250Y-67786250D03*
D15*
X124936250Y-67786250D03*
D16*
X123706250Y-58706250D03*
D11*
X126206250Y-62706250D03*
G36*
G01*
X121644938Y-61003600D02*
X121644933Y-61003595D01*
G75*
G02*
X121558905Y-59414933I751317J837345D01*
G01*
X122868907Y-57954933D01*
G75*
G02*
X124457569Y-57868905I837345J-751317D01*
G01*
X124457569Y-57868905D01*
G75*
G02*
X124543597Y-59457567I-751317J-837345D01*
G01*
X123233595Y-60917567D01*
G75*
G02*
X121644933Y-61003595I-837345J751317D01*
G01*
G37*
D16*
X128746250Y-57626250D03*
G36*
G01*
X128629733Y-59328645D02*
X128628847Y-59328584D01*
G75*
G02*
X127583916Y-58128847I77403J1122334D01*
G01*
X127623916Y-57548847D01*
G75*
G02*
X128823653Y-56503916I1122334J-77403D01*
G01*
X128823653Y-56503916D01*
G75*
G02*
X129868584Y-57703653I-77403J-1122334D01*
G01*
X129828584Y-58283653D01*
G75*
G02*
X128628847Y-59328584I-1122334J77403D01*
G01*
G37*
%TD*%
M02*
