%TF.GenerationSoftware,KiCad,Pcbnew,(5.1.9-0-10_14)*%
%TF.CreationDate,2021-04-19T01:18:51-05:00*%
%TF.ProjectId,wren-right,7772656e-2d72-4696-9768-742e6b696361,rev?*%
%TF.SameCoordinates,Original*%
%TF.FileFunction,OtherDrawing,Comment*%
%FSLAX46Y46*%
G04 Gerber Fmt 4.6, Leading zero omitted, Abs format (unit mm)*
G04 Created by KiCad (PCBNEW (5.1.9-0-10_14)) date 2021-04-19 01:18:51*
%MOMM*%
%LPD*%
G01*
G04 APERTURE LIST*
%ADD10C,0.150000*%
%ADD11C,0.200000*%
G04 APERTURE END LIST*
D10*
%TO.C,MX41*%
X115210428Y-140688877D02*
X116210428Y-142420928D01*
X116210428Y-142420928D02*
X114478377Y-143420928D01*
X103086072Y-147688877D02*
X104086072Y-149420928D01*
X104086072Y-149420928D02*
X105818123Y-148420928D01*
X98818123Y-136296572D02*
X97086072Y-137296572D01*
X97086072Y-137296572D02*
X98086072Y-139028623D01*
X110210428Y-132028623D02*
X109210428Y-130296572D01*
X109210428Y-130296572D02*
X107478377Y-131296572D01*
X105372142Y-118598466D02*
X124422142Y-151594034D01*
X124422142Y-151594034D02*
X107924358Y-161119034D01*
X88874358Y-128123466D02*
X107924358Y-161119034D01*
X88874358Y-128123466D02*
X105372142Y-118598466D01*
D11*
%TO.C,U1*%
X109124750Y-57213500D02*
X101758750Y-57213500D01*
X101758750Y-57213500D02*
X101758750Y-52133500D01*
X101758750Y-52133500D02*
X109124750Y-52133500D01*
X109124750Y-52133500D02*
X109124750Y-57213500D01*
D10*
%TO.C,MX44*%
X178037500Y-132700000D02*
X180037500Y-132700000D01*
X180037500Y-132700000D02*
X180037500Y-134700000D01*
X178037500Y-146700000D02*
X180037500Y-146700000D01*
X180037500Y-146700000D02*
X180037500Y-144700000D01*
X166037500Y-144700000D02*
X166037500Y-146700000D01*
X166037500Y-146700000D02*
X168037500Y-146700000D01*
X168037500Y-132700000D02*
X166037500Y-132700000D01*
X166037500Y-132700000D02*
X166037500Y-134700000D01*
X163512500Y-130175000D02*
X182562500Y-130175000D01*
X182562500Y-130175000D02*
X182562500Y-149225000D01*
X182562500Y-149225000D02*
X163512500Y-149225000D01*
X163512500Y-149225000D02*
X163512500Y-130175000D01*
%TO.C,MX43*%
X158987500Y-132700000D02*
X160987500Y-132700000D01*
X160987500Y-132700000D02*
X160987500Y-134700000D01*
X158987500Y-146700000D02*
X160987500Y-146700000D01*
X160987500Y-146700000D02*
X160987500Y-144700000D01*
X146987500Y-144700000D02*
X146987500Y-146700000D01*
X146987500Y-146700000D02*
X148987500Y-146700000D01*
X148987500Y-132700000D02*
X146987500Y-132700000D01*
X146987500Y-132700000D02*
X146987500Y-134700000D01*
X144462500Y-130175000D02*
X163512500Y-130175000D01*
X163512500Y-130175000D02*
X163512500Y-149225000D01*
X163512500Y-149225000D02*
X144462500Y-149225000D01*
X144462500Y-149225000D02*
X144462500Y-130175000D01*
%TO.C,MX42*%
X139937500Y-135081250D02*
X141937500Y-135081250D01*
X141937500Y-135081250D02*
X141937500Y-137081250D01*
X139937500Y-149081250D02*
X141937500Y-149081250D01*
X141937500Y-149081250D02*
X141937500Y-147081250D01*
X127937500Y-147081250D02*
X127937500Y-149081250D01*
X127937500Y-149081250D02*
X129937500Y-149081250D01*
X129937500Y-135081250D02*
X127937500Y-135081250D01*
X127937500Y-135081250D02*
X127937500Y-137081250D01*
X125412500Y-132556250D02*
X144462500Y-132556250D01*
X144462500Y-132556250D02*
X144462500Y-151606250D01*
X144462500Y-151606250D02*
X125412500Y-151606250D01*
X125412500Y-151606250D02*
X125412500Y-132556250D01*
%TO.C,MX36*%
X226456250Y-113650000D02*
X228456250Y-113650000D01*
X228456250Y-113650000D02*
X228456250Y-115650000D01*
X226456250Y-127650000D02*
X228456250Y-127650000D01*
X228456250Y-127650000D02*
X228456250Y-125650000D01*
X214456250Y-125650000D02*
X214456250Y-127650000D01*
X214456250Y-127650000D02*
X216456250Y-127650000D01*
X216456250Y-113650000D02*
X214456250Y-113650000D01*
X214456250Y-113650000D02*
X214456250Y-115650000D01*
X211931250Y-111125000D02*
X230981250Y-111125000D01*
X230981250Y-111125000D02*
X230981250Y-130175000D01*
X230981250Y-130175000D02*
X211931250Y-130175000D01*
X211931250Y-130175000D02*
X211931250Y-111125000D01*
%TO.C,MX35*%
X207406250Y-113650000D02*
X209406250Y-113650000D01*
X209406250Y-113650000D02*
X209406250Y-115650000D01*
X207406250Y-127650000D02*
X209406250Y-127650000D01*
X209406250Y-127650000D02*
X209406250Y-125650000D01*
X195406250Y-125650000D02*
X195406250Y-127650000D01*
X195406250Y-127650000D02*
X197406250Y-127650000D01*
X197406250Y-113650000D02*
X195406250Y-113650000D01*
X195406250Y-113650000D02*
X195406250Y-115650000D01*
X192881250Y-111125000D02*
X211931250Y-111125000D01*
X211931250Y-111125000D02*
X211931250Y-130175000D01*
X211931250Y-130175000D02*
X192881250Y-130175000D01*
X192881250Y-130175000D02*
X192881250Y-111125000D01*
%TO.C,MX34*%
X188356250Y-110475000D02*
X190356250Y-110475000D01*
X190356250Y-110475000D02*
X190356250Y-112475000D01*
X188356250Y-124475000D02*
X190356250Y-124475000D01*
X190356250Y-124475000D02*
X190356250Y-122475000D01*
X176356250Y-122475000D02*
X176356250Y-124475000D01*
X176356250Y-124475000D02*
X178356250Y-124475000D01*
X178356250Y-110475000D02*
X176356250Y-110475000D01*
X176356250Y-110475000D02*
X176356250Y-112475000D01*
X173831250Y-107950000D02*
X192881250Y-107950000D01*
X192881250Y-107950000D02*
X192881250Y-127000000D01*
X192881250Y-127000000D02*
X173831250Y-127000000D01*
X173831250Y-127000000D02*
X173831250Y-107950000D01*
%TO.C,MX33*%
X169306250Y-108093750D02*
X171306250Y-108093750D01*
X171306250Y-108093750D02*
X171306250Y-110093750D01*
X169306250Y-122093750D02*
X171306250Y-122093750D01*
X171306250Y-122093750D02*
X171306250Y-120093750D01*
X157306250Y-120093750D02*
X157306250Y-122093750D01*
X157306250Y-122093750D02*
X159306250Y-122093750D01*
X159306250Y-108093750D02*
X157306250Y-108093750D01*
X157306250Y-108093750D02*
X157306250Y-110093750D01*
X154781250Y-105568750D02*
X173831250Y-105568750D01*
X173831250Y-105568750D02*
X173831250Y-124618750D01*
X173831250Y-124618750D02*
X154781250Y-124618750D01*
X154781250Y-124618750D02*
X154781250Y-105568750D01*
%TO.C,MX32*%
X150256250Y-110475000D02*
X152256250Y-110475000D01*
X152256250Y-110475000D02*
X152256250Y-112475000D01*
X150256250Y-124475000D02*
X152256250Y-124475000D01*
X152256250Y-124475000D02*
X152256250Y-122475000D01*
X138256250Y-122475000D02*
X138256250Y-124475000D01*
X138256250Y-124475000D02*
X140256250Y-124475000D01*
X140256250Y-110475000D02*
X138256250Y-110475000D01*
X138256250Y-110475000D02*
X138256250Y-112475000D01*
X135731250Y-107950000D02*
X154781250Y-107950000D01*
X154781250Y-107950000D02*
X154781250Y-127000000D01*
X154781250Y-127000000D02*
X135731250Y-127000000D01*
X135731250Y-127000000D02*
X135731250Y-107950000D01*
%TO.C,MX31*%
X131206250Y-112856250D02*
X133206250Y-112856250D01*
X133206250Y-112856250D02*
X133206250Y-114856250D01*
X131206250Y-126856250D02*
X133206250Y-126856250D01*
X133206250Y-126856250D02*
X133206250Y-124856250D01*
X119206250Y-124856250D02*
X119206250Y-126856250D01*
X119206250Y-126856250D02*
X121206250Y-126856250D01*
X121206250Y-112856250D02*
X119206250Y-112856250D01*
X119206250Y-112856250D02*
X119206250Y-114856250D01*
X116681250Y-110331250D02*
X135731250Y-110331250D01*
X135731250Y-110331250D02*
X135731250Y-129381250D01*
X135731250Y-129381250D02*
X116681250Y-129381250D01*
X116681250Y-129381250D02*
X116681250Y-110331250D01*
%TO.C,MX26*%
X226456250Y-94600000D02*
X228456250Y-94600000D01*
X228456250Y-94600000D02*
X228456250Y-96600000D01*
X226456250Y-108600000D02*
X228456250Y-108600000D01*
X228456250Y-108600000D02*
X228456250Y-106600000D01*
X214456250Y-106600000D02*
X214456250Y-108600000D01*
X214456250Y-108600000D02*
X216456250Y-108600000D01*
X216456250Y-94600000D02*
X214456250Y-94600000D01*
X214456250Y-94600000D02*
X214456250Y-96600000D01*
X211931250Y-92075000D02*
X230981250Y-92075000D01*
X230981250Y-92075000D02*
X230981250Y-111125000D01*
X230981250Y-111125000D02*
X211931250Y-111125000D01*
X211931250Y-111125000D02*
X211931250Y-92075000D01*
%TO.C,MX25*%
X207406250Y-94600000D02*
X209406250Y-94600000D01*
X209406250Y-94600000D02*
X209406250Y-96600000D01*
X207406250Y-108600000D02*
X209406250Y-108600000D01*
X209406250Y-108600000D02*
X209406250Y-106600000D01*
X195406250Y-106600000D02*
X195406250Y-108600000D01*
X195406250Y-108600000D02*
X197406250Y-108600000D01*
X197406250Y-94600000D02*
X195406250Y-94600000D01*
X195406250Y-94600000D02*
X195406250Y-96600000D01*
X192881250Y-92075000D02*
X211931250Y-92075000D01*
X211931250Y-92075000D02*
X211931250Y-111125000D01*
X211931250Y-111125000D02*
X192881250Y-111125000D01*
X192881250Y-111125000D02*
X192881250Y-92075000D01*
%TO.C,MX24*%
X188356250Y-91425000D02*
X190356250Y-91425000D01*
X190356250Y-91425000D02*
X190356250Y-93425000D01*
X188356250Y-105425000D02*
X190356250Y-105425000D01*
X190356250Y-105425000D02*
X190356250Y-103425000D01*
X176356250Y-103425000D02*
X176356250Y-105425000D01*
X176356250Y-105425000D02*
X178356250Y-105425000D01*
X178356250Y-91425000D02*
X176356250Y-91425000D01*
X176356250Y-91425000D02*
X176356250Y-93425000D01*
X173831250Y-88900000D02*
X192881250Y-88900000D01*
X192881250Y-88900000D02*
X192881250Y-107950000D01*
X192881250Y-107950000D02*
X173831250Y-107950000D01*
X173831250Y-107950000D02*
X173831250Y-88900000D01*
%TO.C,MX23*%
X169306250Y-89043750D02*
X171306250Y-89043750D01*
X171306250Y-89043750D02*
X171306250Y-91043750D01*
X169306250Y-103043750D02*
X171306250Y-103043750D01*
X171306250Y-103043750D02*
X171306250Y-101043750D01*
X157306250Y-101043750D02*
X157306250Y-103043750D01*
X157306250Y-103043750D02*
X159306250Y-103043750D01*
X159306250Y-89043750D02*
X157306250Y-89043750D01*
X157306250Y-89043750D02*
X157306250Y-91043750D01*
X154781250Y-86518750D02*
X173831250Y-86518750D01*
X173831250Y-86518750D02*
X173831250Y-105568750D01*
X173831250Y-105568750D02*
X154781250Y-105568750D01*
X154781250Y-105568750D02*
X154781250Y-86518750D01*
%TO.C,MX22*%
X150256250Y-91425000D02*
X152256250Y-91425000D01*
X152256250Y-91425000D02*
X152256250Y-93425000D01*
X150256250Y-105425000D02*
X152256250Y-105425000D01*
X152256250Y-105425000D02*
X152256250Y-103425000D01*
X138256250Y-103425000D02*
X138256250Y-105425000D01*
X138256250Y-105425000D02*
X140256250Y-105425000D01*
X140256250Y-91425000D02*
X138256250Y-91425000D01*
X138256250Y-91425000D02*
X138256250Y-93425000D01*
X135731250Y-88900000D02*
X154781250Y-88900000D01*
X154781250Y-88900000D02*
X154781250Y-107950000D01*
X154781250Y-107950000D02*
X135731250Y-107950000D01*
X135731250Y-107950000D02*
X135731250Y-88900000D01*
%TO.C,MX21*%
X131206250Y-93806250D02*
X133206250Y-93806250D01*
X133206250Y-93806250D02*
X133206250Y-95806250D01*
X131206250Y-107806250D02*
X133206250Y-107806250D01*
X133206250Y-107806250D02*
X133206250Y-105806250D01*
X119206250Y-105806250D02*
X119206250Y-107806250D01*
X119206250Y-107806250D02*
X121206250Y-107806250D01*
X121206250Y-93806250D02*
X119206250Y-93806250D01*
X119206250Y-93806250D02*
X119206250Y-95806250D01*
X116681250Y-91281250D02*
X135731250Y-91281250D01*
X135731250Y-91281250D02*
X135731250Y-110331250D01*
X135731250Y-110331250D02*
X116681250Y-110331250D01*
X116681250Y-110331250D02*
X116681250Y-91281250D01*
%TO.C,MX16*%
X226456250Y-75550000D02*
X228456250Y-75550000D01*
X228456250Y-75550000D02*
X228456250Y-77550000D01*
X226456250Y-89550000D02*
X228456250Y-89550000D01*
X228456250Y-89550000D02*
X228456250Y-87550000D01*
X214456250Y-87550000D02*
X214456250Y-89550000D01*
X214456250Y-89550000D02*
X216456250Y-89550000D01*
X216456250Y-75550000D02*
X214456250Y-75550000D01*
X214456250Y-75550000D02*
X214456250Y-77550000D01*
X211931250Y-73025000D02*
X230981250Y-73025000D01*
X230981250Y-73025000D02*
X230981250Y-92075000D01*
X230981250Y-92075000D02*
X211931250Y-92075000D01*
X211931250Y-92075000D02*
X211931250Y-73025000D01*
%TO.C,MX15*%
X207406250Y-75550000D02*
X209406250Y-75550000D01*
X209406250Y-75550000D02*
X209406250Y-77550000D01*
X207406250Y-89550000D02*
X209406250Y-89550000D01*
X209406250Y-89550000D02*
X209406250Y-87550000D01*
X195406250Y-87550000D02*
X195406250Y-89550000D01*
X195406250Y-89550000D02*
X197406250Y-89550000D01*
X197406250Y-75550000D02*
X195406250Y-75550000D01*
X195406250Y-75550000D02*
X195406250Y-77550000D01*
X192881250Y-73025000D02*
X211931250Y-73025000D01*
X211931250Y-73025000D02*
X211931250Y-92075000D01*
X211931250Y-92075000D02*
X192881250Y-92075000D01*
X192881250Y-92075000D02*
X192881250Y-73025000D01*
%TO.C,MX14*%
X188356250Y-72375000D02*
X190356250Y-72375000D01*
X190356250Y-72375000D02*
X190356250Y-74375000D01*
X188356250Y-86375000D02*
X190356250Y-86375000D01*
X190356250Y-86375000D02*
X190356250Y-84375000D01*
X176356250Y-84375000D02*
X176356250Y-86375000D01*
X176356250Y-86375000D02*
X178356250Y-86375000D01*
X178356250Y-72375000D02*
X176356250Y-72375000D01*
X176356250Y-72375000D02*
X176356250Y-74375000D01*
X173831250Y-69850000D02*
X192881250Y-69850000D01*
X192881250Y-69850000D02*
X192881250Y-88900000D01*
X192881250Y-88900000D02*
X173831250Y-88900000D01*
X173831250Y-88900000D02*
X173831250Y-69850000D01*
%TO.C,MX13*%
X169306250Y-69993750D02*
X171306250Y-69993750D01*
X171306250Y-69993750D02*
X171306250Y-71993750D01*
X169306250Y-83993750D02*
X171306250Y-83993750D01*
X171306250Y-83993750D02*
X171306250Y-81993750D01*
X157306250Y-81993750D02*
X157306250Y-83993750D01*
X157306250Y-83993750D02*
X159306250Y-83993750D01*
X159306250Y-69993750D02*
X157306250Y-69993750D01*
X157306250Y-69993750D02*
X157306250Y-71993750D01*
X154781250Y-67468750D02*
X173831250Y-67468750D01*
X173831250Y-67468750D02*
X173831250Y-86518750D01*
X173831250Y-86518750D02*
X154781250Y-86518750D01*
X154781250Y-86518750D02*
X154781250Y-67468750D01*
%TO.C,MX12*%
X150256250Y-72375000D02*
X152256250Y-72375000D01*
X152256250Y-72375000D02*
X152256250Y-74375000D01*
X150256250Y-86375000D02*
X152256250Y-86375000D01*
X152256250Y-86375000D02*
X152256250Y-84375000D01*
X138256250Y-84375000D02*
X138256250Y-86375000D01*
X138256250Y-86375000D02*
X140256250Y-86375000D01*
X140256250Y-72375000D02*
X138256250Y-72375000D01*
X138256250Y-72375000D02*
X138256250Y-74375000D01*
X135731250Y-69850000D02*
X154781250Y-69850000D01*
X154781250Y-69850000D02*
X154781250Y-88900000D01*
X154781250Y-88900000D02*
X135731250Y-88900000D01*
X135731250Y-88900000D02*
X135731250Y-69850000D01*
%TO.C,MX11*%
X131206250Y-74756250D02*
X133206250Y-74756250D01*
X133206250Y-74756250D02*
X133206250Y-76756250D01*
X131206250Y-88756250D02*
X133206250Y-88756250D01*
X133206250Y-88756250D02*
X133206250Y-86756250D01*
X119206250Y-86756250D02*
X119206250Y-88756250D01*
X119206250Y-88756250D02*
X121206250Y-88756250D01*
X121206250Y-74756250D02*
X119206250Y-74756250D01*
X119206250Y-74756250D02*
X119206250Y-76756250D01*
X116681250Y-72231250D02*
X135731250Y-72231250D01*
X135731250Y-72231250D02*
X135731250Y-91281250D01*
X135731250Y-91281250D02*
X116681250Y-91281250D01*
X116681250Y-91281250D02*
X116681250Y-72231250D01*
%TO.C,MX6*%
X226456250Y-56500000D02*
X228456250Y-56500000D01*
X228456250Y-56500000D02*
X228456250Y-58500000D01*
X226456250Y-70500000D02*
X228456250Y-70500000D01*
X228456250Y-70500000D02*
X228456250Y-68500000D01*
X214456250Y-68500000D02*
X214456250Y-70500000D01*
X214456250Y-70500000D02*
X216456250Y-70500000D01*
X216456250Y-56500000D02*
X214456250Y-56500000D01*
X214456250Y-56500000D02*
X214456250Y-58500000D01*
X211931250Y-53975000D02*
X230981250Y-53975000D01*
X230981250Y-53975000D02*
X230981250Y-73025000D01*
X230981250Y-73025000D02*
X211931250Y-73025000D01*
X211931250Y-73025000D02*
X211931250Y-53975000D01*
%TO.C,MX5*%
X207406250Y-56500000D02*
X209406250Y-56500000D01*
X209406250Y-56500000D02*
X209406250Y-58500000D01*
X207406250Y-70500000D02*
X209406250Y-70500000D01*
X209406250Y-70500000D02*
X209406250Y-68500000D01*
X195406250Y-68500000D02*
X195406250Y-70500000D01*
X195406250Y-70500000D02*
X197406250Y-70500000D01*
X197406250Y-56500000D02*
X195406250Y-56500000D01*
X195406250Y-56500000D02*
X195406250Y-58500000D01*
X192881250Y-53975000D02*
X211931250Y-53975000D01*
X211931250Y-53975000D02*
X211931250Y-73025000D01*
X211931250Y-73025000D02*
X192881250Y-73025000D01*
X192881250Y-73025000D02*
X192881250Y-53975000D01*
%TO.C,MX4*%
X188356250Y-53325000D02*
X190356250Y-53325000D01*
X190356250Y-53325000D02*
X190356250Y-55325000D01*
X188356250Y-67325000D02*
X190356250Y-67325000D01*
X190356250Y-67325000D02*
X190356250Y-65325000D01*
X176356250Y-65325000D02*
X176356250Y-67325000D01*
X176356250Y-67325000D02*
X178356250Y-67325000D01*
X178356250Y-53325000D02*
X176356250Y-53325000D01*
X176356250Y-53325000D02*
X176356250Y-55325000D01*
X173831250Y-50800000D02*
X192881250Y-50800000D01*
X192881250Y-50800000D02*
X192881250Y-69850000D01*
X192881250Y-69850000D02*
X173831250Y-69850000D01*
X173831250Y-69850000D02*
X173831250Y-50800000D01*
%TO.C,MX3*%
X169306250Y-50943750D02*
X171306250Y-50943750D01*
X171306250Y-50943750D02*
X171306250Y-52943750D01*
X169306250Y-64943750D02*
X171306250Y-64943750D01*
X171306250Y-64943750D02*
X171306250Y-62943750D01*
X157306250Y-62943750D02*
X157306250Y-64943750D01*
X157306250Y-64943750D02*
X159306250Y-64943750D01*
X159306250Y-50943750D02*
X157306250Y-50943750D01*
X157306250Y-50943750D02*
X157306250Y-52943750D01*
X154781250Y-48418750D02*
X173831250Y-48418750D01*
X173831250Y-48418750D02*
X173831250Y-67468750D01*
X173831250Y-67468750D02*
X154781250Y-67468750D01*
X154781250Y-67468750D02*
X154781250Y-48418750D01*
%TO.C,MX2*%
X150256250Y-53325000D02*
X152256250Y-53325000D01*
X152256250Y-53325000D02*
X152256250Y-55325000D01*
X150256250Y-67325000D02*
X152256250Y-67325000D01*
X152256250Y-67325000D02*
X152256250Y-65325000D01*
X138256250Y-65325000D02*
X138256250Y-67325000D01*
X138256250Y-67325000D02*
X140256250Y-67325000D01*
X140256250Y-53325000D02*
X138256250Y-53325000D01*
X138256250Y-53325000D02*
X138256250Y-55325000D01*
X135731250Y-50800000D02*
X154781250Y-50800000D01*
X154781250Y-50800000D02*
X154781250Y-69850000D01*
X154781250Y-69850000D02*
X135731250Y-69850000D01*
X135731250Y-69850000D02*
X135731250Y-50800000D01*
%TO.C,MX1*%
X131206250Y-55706250D02*
X133206250Y-55706250D01*
X133206250Y-55706250D02*
X133206250Y-57706250D01*
X131206250Y-69706250D02*
X133206250Y-69706250D01*
X133206250Y-69706250D02*
X133206250Y-67706250D01*
X119206250Y-67706250D02*
X119206250Y-69706250D01*
X119206250Y-69706250D02*
X121206250Y-69706250D01*
X121206250Y-55706250D02*
X119206250Y-55706250D01*
X119206250Y-55706250D02*
X119206250Y-57706250D01*
X116681250Y-53181250D02*
X135731250Y-53181250D01*
X135731250Y-53181250D02*
X135731250Y-72231250D01*
X135731250Y-72231250D02*
X116681250Y-72231250D01*
X116681250Y-72231250D02*
X116681250Y-53181250D01*
%TD*%
%TO.C,MX41*%
X102625893Y-140146586D02*
X103491918Y-139646586D01*
X103039995Y-140292404D01*
X103825251Y-140223936D01*
X102959226Y-140723936D01*
X104015728Y-140553850D02*
X103483036Y-141631201D01*
X104349061Y-141131201D02*
X103149702Y-141053850D01*
X104465148Y-141998936D02*
X103887797Y-142332269D01*
X104676015Y-141602263D02*
X103938377Y-141753209D01*
X104247901Y-142289320D01*
X104411607Y-143239534D02*
X104125893Y-142744662D01*
X104268750Y-142992098D02*
X105134775Y-142492098D01*
X104963438Y-142481048D01*
X104833341Y-142446188D01*
X104744482Y-142387519D01*
X111249601Y-132858285D02*
X112115626Y-132358285D01*
X111663703Y-133004103D01*
X112448959Y-132935635D01*
X111582934Y-133435635D01*
X112639436Y-133265550D02*
X112106744Y-134342900D01*
X112972769Y-133842900D02*
X111773410Y-133765550D01*
X112627134Y-134482338D02*
X113008087Y-135142167D01*
X112916267Y-135745036D02*
X113782293Y-135245036D01*
X113201982Y-136239908D01*
X114068007Y-135739908D01*
X113511505Y-136776019D02*
X113505126Y-136669731D01*
X113522556Y-136604682D01*
X113581225Y-136515824D01*
X113828660Y-136372966D01*
X113934949Y-136366587D01*
X113999997Y-136384016D01*
X114088856Y-136442686D01*
X114160284Y-136566403D01*
X114166664Y-136672692D01*
X114149234Y-136737740D01*
X114090565Y-136826599D01*
X113843129Y-136969456D01*
X113736841Y-136975836D01*
X113671792Y-136958406D01*
X113582934Y-136899737D01*
X113511505Y-136776019D01*
X114130553Y-137848241D02*
X113892458Y-137435848D01*
X114758483Y-136935848D01*
X114750852Y-137875011D02*
X114917519Y-138163686D01*
X114535315Y-138549309D02*
X114297220Y-138136916D01*
X115163245Y-137636916D01*
X115401340Y-138049309D01*
X114749601Y-138920463D02*
X115615626Y-138420463D01*
X115734674Y-138626659D01*
X115764863Y-138774187D01*
X115730003Y-138904284D01*
X115671334Y-138993143D01*
X115530187Y-139129620D01*
X115406469Y-139201049D01*
X115217702Y-139255047D01*
X115111414Y-139261427D01*
X114981316Y-139226568D01*
X114868648Y-139126659D01*
X114749601Y-138920463D01*
%TO.C,MX44*%
X171275595Y-143327380D02*
X171275595Y-142327380D01*
X171608928Y-143041666D01*
X171942261Y-142327380D01*
X171942261Y-143327380D01*
X172323214Y-142327380D02*
X172989880Y-143327380D01*
X172989880Y-142327380D02*
X172323214Y-143327380D01*
X173799404Y-142660714D02*
X173799404Y-143327380D01*
X173561309Y-142279761D02*
X173323214Y-142994047D01*
X173942261Y-142994047D01*
X174751785Y-142660714D02*
X174751785Y-143327380D01*
X174513690Y-142279761D02*
X174275595Y-142994047D01*
X174894642Y-142994047D01*
X169275595Y-132214880D02*
X169275595Y-131214880D01*
X169608928Y-131929166D01*
X169942261Y-131214880D01*
X169942261Y-132214880D01*
X170323214Y-131214880D02*
X170989880Y-132214880D01*
X170989880Y-131214880D02*
X170323214Y-132214880D01*
X171370833Y-131833928D02*
X172132738Y-131833928D01*
X172608928Y-132214880D02*
X172608928Y-131214880D01*
X173180357Y-132214880D01*
X173180357Y-131214880D01*
X173799404Y-132214880D02*
X173704166Y-132167261D01*
X173656547Y-132119642D01*
X173608928Y-132024404D01*
X173608928Y-131738690D01*
X173656547Y-131643452D01*
X173704166Y-131595833D01*
X173799404Y-131548214D01*
X173942261Y-131548214D01*
X174037500Y-131595833D01*
X174085119Y-131643452D01*
X174132738Y-131738690D01*
X174132738Y-132024404D01*
X174085119Y-132119642D01*
X174037500Y-132167261D01*
X173942261Y-132214880D01*
X173799404Y-132214880D01*
X175037500Y-132214880D02*
X174561309Y-132214880D01*
X174561309Y-131214880D01*
X175370833Y-131691071D02*
X175704166Y-131691071D01*
X175847023Y-132214880D02*
X175370833Y-132214880D01*
X175370833Y-131214880D01*
X175847023Y-131214880D01*
X176275595Y-132214880D02*
X176275595Y-131214880D01*
X176513690Y-131214880D01*
X176656547Y-131262500D01*
X176751785Y-131357738D01*
X176799404Y-131452976D01*
X176847023Y-131643452D01*
X176847023Y-131786309D01*
X176799404Y-131976785D01*
X176751785Y-132072023D01*
X176656547Y-132167261D01*
X176513690Y-132214880D01*
X176275595Y-132214880D01*
%TO.C,MX43*%
X152225595Y-143327380D02*
X152225595Y-142327380D01*
X152558928Y-143041666D01*
X152892261Y-142327380D01*
X152892261Y-143327380D01*
X153273214Y-142327380D02*
X153939880Y-143327380D01*
X153939880Y-142327380D02*
X153273214Y-143327380D01*
X154749404Y-142660714D02*
X154749404Y-143327380D01*
X154511309Y-142279761D02*
X154273214Y-142994047D01*
X154892261Y-142994047D01*
X155177976Y-142327380D02*
X155797023Y-142327380D01*
X155463690Y-142708333D01*
X155606547Y-142708333D01*
X155701785Y-142755952D01*
X155749404Y-142803571D01*
X155797023Y-142898809D01*
X155797023Y-143136904D01*
X155749404Y-143232142D01*
X155701785Y-143279761D01*
X155606547Y-143327380D01*
X155320833Y-143327380D01*
X155225595Y-143279761D01*
X155177976Y-143232142D01*
X150225595Y-132214880D02*
X150225595Y-131214880D01*
X150558928Y-131929166D01*
X150892261Y-131214880D01*
X150892261Y-132214880D01*
X151273214Y-131214880D02*
X151939880Y-132214880D01*
X151939880Y-131214880D02*
X151273214Y-132214880D01*
X152320833Y-131833928D02*
X153082738Y-131833928D01*
X153558928Y-132214880D02*
X153558928Y-131214880D01*
X154130357Y-132214880D01*
X154130357Y-131214880D01*
X154749404Y-132214880D02*
X154654166Y-132167261D01*
X154606547Y-132119642D01*
X154558928Y-132024404D01*
X154558928Y-131738690D01*
X154606547Y-131643452D01*
X154654166Y-131595833D01*
X154749404Y-131548214D01*
X154892261Y-131548214D01*
X154987500Y-131595833D01*
X155035119Y-131643452D01*
X155082738Y-131738690D01*
X155082738Y-132024404D01*
X155035119Y-132119642D01*
X154987500Y-132167261D01*
X154892261Y-132214880D01*
X154749404Y-132214880D01*
X155987500Y-132214880D02*
X155511309Y-132214880D01*
X155511309Y-131214880D01*
X156320833Y-131691071D02*
X156654166Y-131691071D01*
X156797023Y-132214880D02*
X156320833Y-132214880D01*
X156320833Y-131214880D01*
X156797023Y-131214880D01*
X157225595Y-132214880D02*
X157225595Y-131214880D01*
X157463690Y-131214880D01*
X157606547Y-131262500D01*
X157701785Y-131357738D01*
X157749404Y-131452976D01*
X157797023Y-131643452D01*
X157797023Y-131786309D01*
X157749404Y-131976785D01*
X157701785Y-132072023D01*
X157606547Y-132167261D01*
X157463690Y-132214880D01*
X157225595Y-132214880D01*
%TO.C,MX42*%
X133175595Y-145708630D02*
X133175595Y-144708630D01*
X133508928Y-145422916D01*
X133842261Y-144708630D01*
X133842261Y-145708630D01*
X134223214Y-144708630D02*
X134889880Y-145708630D01*
X134889880Y-144708630D02*
X134223214Y-145708630D01*
X135699404Y-145041964D02*
X135699404Y-145708630D01*
X135461309Y-144661011D02*
X135223214Y-145375297D01*
X135842261Y-145375297D01*
X136175595Y-144803869D02*
X136223214Y-144756250D01*
X136318452Y-144708630D01*
X136556547Y-144708630D01*
X136651785Y-144756250D01*
X136699404Y-144803869D01*
X136747023Y-144899107D01*
X136747023Y-144994345D01*
X136699404Y-145137202D01*
X136127976Y-145708630D01*
X136747023Y-145708630D01*
X131175595Y-134596130D02*
X131175595Y-133596130D01*
X131508928Y-134310416D01*
X131842261Y-133596130D01*
X131842261Y-134596130D01*
X132223214Y-133596130D02*
X132889880Y-134596130D01*
X132889880Y-133596130D02*
X132223214Y-134596130D01*
X133270833Y-134215178D02*
X134032738Y-134215178D01*
X134508928Y-134596130D02*
X134508928Y-133596130D01*
X135080357Y-134596130D01*
X135080357Y-133596130D01*
X135699404Y-134596130D02*
X135604166Y-134548511D01*
X135556547Y-134500892D01*
X135508928Y-134405654D01*
X135508928Y-134119940D01*
X135556547Y-134024702D01*
X135604166Y-133977083D01*
X135699404Y-133929464D01*
X135842261Y-133929464D01*
X135937500Y-133977083D01*
X135985119Y-134024702D01*
X136032738Y-134119940D01*
X136032738Y-134405654D01*
X135985119Y-134500892D01*
X135937500Y-134548511D01*
X135842261Y-134596130D01*
X135699404Y-134596130D01*
X136937500Y-134596130D02*
X136461309Y-134596130D01*
X136461309Y-133596130D01*
X137270833Y-134072321D02*
X137604166Y-134072321D01*
X137747023Y-134596130D02*
X137270833Y-134596130D01*
X137270833Y-133596130D01*
X137747023Y-133596130D01*
X138175595Y-134596130D02*
X138175595Y-133596130D01*
X138413690Y-133596130D01*
X138556547Y-133643750D01*
X138651785Y-133738988D01*
X138699404Y-133834226D01*
X138747023Y-134024702D01*
X138747023Y-134167559D01*
X138699404Y-134358035D01*
X138651785Y-134453273D01*
X138556547Y-134548511D01*
X138413690Y-134596130D01*
X138175595Y-134596130D01*
%TO.C,MX36*%
X219694345Y-124277380D02*
X219694345Y-123277380D01*
X220027678Y-123991666D01*
X220361011Y-123277380D01*
X220361011Y-124277380D01*
X220741964Y-123277380D02*
X221408630Y-124277380D01*
X221408630Y-123277380D02*
X220741964Y-124277380D01*
X221694345Y-123277380D02*
X222313392Y-123277380D01*
X221980059Y-123658333D01*
X222122916Y-123658333D01*
X222218154Y-123705952D01*
X222265773Y-123753571D01*
X222313392Y-123848809D01*
X222313392Y-124086904D01*
X222265773Y-124182142D01*
X222218154Y-124229761D01*
X222122916Y-124277380D01*
X221837202Y-124277380D01*
X221741964Y-124229761D01*
X221694345Y-124182142D01*
X223170535Y-123277380D02*
X222980059Y-123277380D01*
X222884821Y-123325000D01*
X222837202Y-123372619D01*
X222741964Y-123515476D01*
X222694345Y-123705952D01*
X222694345Y-124086904D01*
X222741964Y-124182142D01*
X222789583Y-124229761D01*
X222884821Y-124277380D01*
X223075297Y-124277380D01*
X223170535Y-124229761D01*
X223218154Y-124182142D01*
X223265773Y-124086904D01*
X223265773Y-123848809D01*
X223218154Y-123753571D01*
X223170535Y-123705952D01*
X223075297Y-123658333D01*
X222884821Y-123658333D01*
X222789583Y-123705952D01*
X222741964Y-123753571D01*
X222694345Y-123848809D01*
X217694345Y-113164880D02*
X217694345Y-112164880D01*
X218027678Y-112879166D01*
X218361011Y-112164880D01*
X218361011Y-113164880D01*
X218741964Y-112164880D02*
X219408630Y-113164880D01*
X219408630Y-112164880D02*
X218741964Y-113164880D01*
X219789583Y-112783928D02*
X220551488Y-112783928D01*
X221027678Y-113164880D02*
X221027678Y-112164880D01*
X221599107Y-113164880D01*
X221599107Y-112164880D01*
X222218154Y-113164880D02*
X222122916Y-113117261D01*
X222075297Y-113069642D01*
X222027678Y-112974404D01*
X222027678Y-112688690D01*
X222075297Y-112593452D01*
X222122916Y-112545833D01*
X222218154Y-112498214D01*
X222361011Y-112498214D01*
X222456250Y-112545833D01*
X222503869Y-112593452D01*
X222551488Y-112688690D01*
X222551488Y-112974404D01*
X222503869Y-113069642D01*
X222456250Y-113117261D01*
X222361011Y-113164880D01*
X222218154Y-113164880D01*
X223456250Y-113164880D02*
X222980059Y-113164880D01*
X222980059Y-112164880D01*
X223789583Y-112641071D02*
X224122916Y-112641071D01*
X224265773Y-113164880D02*
X223789583Y-113164880D01*
X223789583Y-112164880D01*
X224265773Y-112164880D01*
X224694345Y-113164880D02*
X224694345Y-112164880D01*
X224932440Y-112164880D01*
X225075297Y-112212500D01*
X225170535Y-112307738D01*
X225218154Y-112402976D01*
X225265773Y-112593452D01*
X225265773Y-112736309D01*
X225218154Y-112926785D01*
X225170535Y-113022023D01*
X225075297Y-113117261D01*
X224932440Y-113164880D01*
X224694345Y-113164880D01*
%TO.C,MX35*%
X200644345Y-124277380D02*
X200644345Y-123277380D01*
X200977678Y-123991666D01*
X201311011Y-123277380D01*
X201311011Y-124277380D01*
X201691964Y-123277380D02*
X202358630Y-124277380D01*
X202358630Y-123277380D02*
X201691964Y-124277380D01*
X202644345Y-123277380D02*
X203263392Y-123277380D01*
X202930059Y-123658333D01*
X203072916Y-123658333D01*
X203168154Y-123705952D01*
X203215773Y-123753571D01*
X203263392Y-123848809D01*
X203263392Y-124086904D01*
X203215773Y-124182142D01*
X203168154Y-124229761D01*
X203072916Y-124277380D01*
X202787202Y-124277380D01*
X202691964Y-124229761D01*
X202644345Y-124182142D01*
X204168154Y-123277380D02*
X203691964Y-123277380D01*
X203644345Y-123753571D01*
X203691964Y-123705952D01*
X203787202Y-123658333D01*
X204025297Y-123658333D01*
X204120535Y-123705952D01*
X204168154Y-123753571D01*
X204215773Y-123848809D01*
X204215773Y-124086904D01*
X204168154Y-124182142D01*
X204120535Y-124229761D01*
X204025297Y-124277380D01*
X203787202Y-124277380D01*
X203691964Y-124229761D01*
X203644345Y-124182142D01*
X198644345Y-113164880D02*
X198644345Y-112164880D01*
X198977678Y-112879166D01*
X199311011Y-112164880D01*
X199311011Y-113164880D01*
X199691964Y-112164880D02*
X200358630Y-113164880D01*
X200358630Y-112164880D02*
X199691964Y-113164880D01*
X200739583Y-112783928D02*
X201501488Y-112783928D01*
X201977678Y-113164880D02*
X201977678Y-112164880D01*
X202549107Y-113164880D01*
X202549107Y-112164880D01*
X203168154Y-113164880D02*
X203072916Y-113117261D01*
X203025297Y-113069642D01*
X202977678Y-112974404D01*
X202977678Y-112688690D01*
X203025297Y-112593452D01*
X203072916Y-112545833D01*
X203168154Y-112498214D01*
X203311011Y-112498214D01*
X203406250Y-112545833D01*
X203453869Y-112593452D01*
X203501488Y-112688690D01*
X203501488Y-112974404D01*
X203453869Y-113069642D01*
X203406250Y-113117261D01*
X203311011Y-113164880D01*
X203168154Y-113164880D01*
X204406250Y-113164880D02*
X203930059Y-113164880D01*
X203930059Y-112164880D01*
X204739583Y-112641071D02*
X205072916Y-112641071D01*
X205215773Y-113164880D02*
X204739583Y-113164880D01*
X204739583Y-112164880D01*
X205215773Y-112164880D01*
X205644345Y-113164880D02*
X205644345Y-112164880D01*
X205882440Y-112164880D01*
X206025297Y-112212500D01*
X206120535Y-112307738D01*
X206168154Y-112402976D01*
X206215773Y-112593452D01*
X206215773Y-112736309D01*
X206168154Y-112926785D01*
X206120535Y-113022023D01*
X206025297Y-113117261D01*
X205882440Y-113164880D01*
X205644345Y-113164880D01*
%TO.C,MX34*%
X181594345Y-121102380D02*
X181594345Y-120102380D01*
X181927678Y-120816666D01*
X182261011Y-120102380D01*
X182261011Y-121102380D01*
X182641964Y-120102380D02*
X183308630Y-121102380D01*
X183308630Y-120102380D02*
X182641964Y-121102380D01*
X183594345Y-120102380D02*
X184213392Y-120102380D01*
X183880059Y-120483333D01*
X184022916Y-120483333D01*
X184118154Y-120530952D01*
X184165773Y-120578571D01*
X184213392Y-120673809D01*
X184213392Y-120911904D01*
X184165773Y-121007142D01*
X184118154Y-121054761D01*
X184022916Y-121102380D01*
X183737202Y-121102380D01*
X183641964Y-121054761D01*
X183594345Y-121007142D01*
X185070535Y-120435714D02*
X185070535Y-121102380D01*
X184832440Y-120054761D02*
X184594345Y-120769047D01*
X185213392Y-120769047D01*
X179594345Y-109989880D02*
X179594345Y-108989880D01*
X179927678Y-109704166D01*
X180261011Y-108989880D01*
X180261011Y-109989880D01*
X180641964Y-108989880D02*
X181308630Y-109989880D01*
X181308630Y-108989880D02*
X180641964Y-109989880D01*
X181689583Y-109608928D02*
X182451488Y-109608928D01*
X182927678Y-109989880D02*
X182927678Y-108989880D01*
X183499107Y-109989880D01*
X183499107Y-108989880D01*
X184118154Y-109989880D02*
X184022916Y-109942261D01*
X183975297Y-109894642D01*
X183927678Y-109799404D01*
X183927678Y-109513690D01*
X183975297Y-109418452D01*
X184022916Y-109370833D01*
X184118154Y-109323214D01*
X184261011Y-109323214D01*
X184356250Y-109370833D01*
X184403869Y-109418452D01*
X184451488Y-109513690D01*
X184451488Y-109799404D01*
X184403869Y-109894642D01*
X184356250Y-109942261D01*
X184261011Y-109989880D01*
X184118154Y-109989880D01*
X185356250Y-109989880D02*
X184880059Y-109989880D01*
X184880059Y-108989880D01*
X185689583Y-109466071D02*
X186022916Y-109466071D01*
X186165773Y-109989880D02*
X185689583Y-109989880D01*
X185689583Y-108989880D01*
X186165773Y-108989880D01*
X186594345Y-109989880D02*
X186594345Y-108989880D01*
X186832440Y-108989880D01*
X186975297Y-109037500D01*
X187070535Y-109132738D01*
X187118154Y-109227976D01*
X187165773Y-109418452D01*
X187165773Y-109561309D01*
X187118154Y-109751785D01*
X187070535Y-109847023D01*
X186975297Y-109942261D01*
X186832440Y-109989880D01*
X186594345Y-109989880D01*
%TO.C,MX33*%
X162544345Y-118721130D02*
X162544345Y-117721130D01*
X162877678Y-118435416D01*
X163211011Y-117721130D01*
X163211011Y-118721130D01*
X163591964Y-117721130D02*
X164258630Y-118721130D01*
X164258630Y-117721130D02*
X163591964Y-118721130D01*
X164544345Y-117721130D02*
X165163392Y-117721130D01*
X164830059Y-118102083D01*
X164972916Y-118102083D01*
X165068154Y-118149702D01*
X165115773Y-118197321D01*
X165163392Y-118292559D01*
X165163392Y-118530654D01*
X165115773Y-118625892D01*
X165068154Y-118673511D01*
X164972916Y-118721130D01*
X164687202Y-118721130D01*
X164591964Y-118673511D01*
X164544345Y-118625892D01*
X165496726Y-117721130D02*
X166115773Y-117721130D01*
X165782440Y-118102083D01*
X165925297Y-118102083D01*
X166020535Y-118149702D01*
X166068154Y-118197321D01*
X166115773Y-118292559D01*
X166115773Y-118530654D01*
X166068154Y-118625892D01*
X166020535Y-118673511D01*
X165925297Y-118721130D01*
X165639583Y-118721130D01*
X165544345Y-118673511D01*
X165496726Y-118625892D01*
X160544345Y-107608630D02*
X160544345Y-106608630D01*
X160877678Y-107322916D01*
X161211011Y-106608630D01*
X161211011Y-107608630D01*
X161591964Y-106608630D02*
X162258630Y-107608630D01*
X162258630Y-106608630D02*
X161591964Y-107608630D01*
X162639583Y-107227678D02*
X163401488Y-107227678D01*
X163877678Y-107608630D02*
X163877678Y-106608630D01*
X164449107Y-107608630D01*
X164449107Y-106608630D01*
X165068154Y-107608630D02*
X164972916Y-107561011D01*
X164925297Y-107513392D01*
X164877678Y-107418154D01*
X164877678Y-107132440D01*
X164925297Y-107037202D01*
X164972916Y-106989583D01*
X165068154Y-106941964D01*
X165211011Y-106941964D01*
X165306250Y-106989583D01*
X165353869Y-107037202D01*
X165401488Y-107132440D01*
X165401488Y-107418154D01*
X165353869Y-107513392D01*
X165306250Y-107561011D01*
X165211011Y-107608630D01*
X165068154Y-107608630D01*
X166306250Y-107608630D02*
X165830059Y-107608630D01*
X165830059Y-106608630D01*
X166639583Y-107084821D02*
X166972916Y-107084821D01*
X167115773Y-107608630D02*
X166639583Y-107608630D01*
X166639583Y-106608630D01*
X167115773Y-106608630D01*
X167544345Y-107608630D02*
X167544345Y-106608630D01*
X167782440Y-106608630D01*
X167925297Y-106656250D01*
X168020535Y-106751488D01*
X168068154Y-106846726D01*
X168115773Y-107037202D01*
X168115773Y-107180059D01*
X168068154Y-107370535D01*
X168020535Y-107465773D01*
X167925297Y-107561011D01*
X167782440Y-107608630D01*
X167544345Y-107608630D01*
%TO.C,MX32*%
X143494345Y-121102380D02*
X143494345Y-120102380D01*
X143827678Y-120816666D01*
X144161011Y-120102380D01*
X144161011Y-121102380D01*
X144541964Y-120102380D02*
X145208630Y-121102380D01*
X145208630Y-120102380D02*
X144541964Y-121102380D01*
X145494345Y-120102380D02*
X146113392Y-120102380D01*
X145780059Y-120483333D01*
X145922916Y-120483333D01*
X146018154Y-120530952D01*
X146065773Y-120578571D01*
X146113392Y-120673809D01*
X146113392Y-120911904D01*
X146065773Y-121007142D01*
X146018154Y-121054761D01*
X145922916Y-121102380D01*
X145637202Y-121102380D01*
X145541964Y-121054761D01*
X145494345Y-121007142D01*
X146494345Y-120197619D02*
X146541964Y-120150000D01*
X146637202Y-120102380D01*
X146875297Y-120102380D01*
X146970535Y-120150000D01*
X147018154Y-120197619D01*
X147065773Y-120292857D01*
X147065773Y-120388095D01*
X147018154Y-120530952D01*
X146446726Y-121102380D01*
X147065773Y-121102380D01*
X141494345Y-109989880D02*
X141494345Y-108989880D01*
X141827678Y-109704166D01*
X142161011Y-108989880D01*
X142161011Y-109989880D01*
X142541964Y-108989880D02*
X143208630Y-109989880D01*
X143208630Y-108989880D02*
X142541964Y-109989880D01*
X143589583Y-109608928D02*
X144351488Y-109608928D01*
X144827678Y-109989880D02*
X144827678Y-108989880D01*
X145399107Y-109989880D01*
X145399107Y-108989880D01*
X146018154Y-109989880D02*
X145922916Y-109942261D01*
X145875297Y-109894642D01*
X145827678Y-109799404D01*
X145827678Y-109513690D01*
X145875297Y-109418452D01*
X145922916Y-109370833D01*
X146018154Y-109323214D01*
X146161011Y-109323214D01*
X146256250Y-109370833D01*
X146303869Y-109418452D01*
X146351488Y-109513690D01*
X146351488Y-109799404D01*
X146303869Y-109894642D01*
X146256250Y-109942261D01*
X146161011Y-109989880D01*
X146018154Y-109989880D01*
X147256250Y-109989880D02*
X146780059Y-109989880D01*
X146780059Y-108989880D01*
X147589583Y-109466071D02*
X147922916Y-109466071D01*
X148065773Y-109989880D02*
X147589583Y-109989880D01*
X147589583Y-108989880D01*
X148065773Y-108989880D01*
X148494345Y-109989880D02*
X148494345Y-108989880D01*
X148732440Y-108989880D01*
X148875297Y-109037500D01*
X148970535Y-109132738D01*
X149018154Y-109227976D01*
X149065773Y-109418452D01*
X149065773Y-109561309D01*
X149018154Y-109751785D01*
X148970535Y-109847023D01*
X148875297Y-109942261D01*
X148732440Y-109989880D01*
X148494345Y-109989880D01*
%TO.C,MX31*%
X124444345Y-123483630D02*
X124444345Y-122483630D01*
X124777678Y-123197916D01*
X125111011Y-122483630D01*
X125111011Y-123483630D01*
X125491964Y-122483630D02*
X126158630Y-123483630D01*
X126158630Y-122483630D02*
X125491964Y-123483630D01*
X126444345Y-122483630D02*
X127063392Y-122483630D01*
X126730059Y-122864583D01*
X126872916Y-122864583D01*
X126968154Y-122912202D01*
X127015773Y-122959821D01*
X127063392Y-123055059D01*
X127063392Y-123293154D01*
X127015773Y-123388392D01*
X126968154Y-123436011D01*
X126872916Y-123483630D01*
X126587202Y-123483630D01*
X126491964Y-123436011D01*
X126444345Y-123388392D01*
X128015773Y-123483630D02*
X127444345Y-123483630D01*
X127730059Y-123483630D02*
X127730059Y-122483630D01*
X127634821Y-122626488D01*
X127539583Y-122721726D01*
X127444345Y-122769345D01*
X122444345Y-112371130D02*
X122444345Y-111371130D01*
X122777678Y-112085416D01*
X123111011Y-111371130D01*
X123111011Y-112371130D01*
X123491964Y-111371130D02*
X124158630Y-112371130D01*
X124158630Y-111371130D02*
X123491964Y-112371130D01*
X124539583Y-111990178D02*
X125301488Y-111990178D01*
X125777678Y-112371130D02*
X125777678Y-111371130D01*
X126349107Y-112371130D01*
X126349107Y-111371130D01*
X126968154Y-112371130D02*
X126872916Y-112323511D01*
X126825297Y-112275892D01*
X126777678Y-112180654D01*
X126777678Y-111894940D01*
X126825297Y-111799702D01*
X126872916Y-111752083D01*
X126968154Y-111704464D01*
X127111011Y-111704464D01*
X127206250Y-111752083D01*
X127253869Y-111799702D01*
X127301488Y-111894940D01*
X127301488Y-112180654D01*
X127253869Y-112275892D01*
X127206250Y-112323511D01*
X127111011Y-112371130D01*
X126968154Y-112371130D01*
X128206250Y-112371130D02*
X127730059Y-112371130D01*
X127730059Y-111371130D01*
X128539583Y-111847321D02*
X128872916Y-111847321D01*
X129015773Y-112371130D02*
X128539583Y-112371130D01*
X128539583Y-111371130D01*
X129015773Y-111371130D01*
X129444345Y-112371130D02*
X129444345Y-111371130D01*
X129682440Y-111371130D01*
X129825297Y-111418750D01*
X129920535Y-111513988D01*
X129968154Y-111609226D01*
X130015773Y-111799702D01*
X130015773Y-111942559D01*
X129968154Y-112133035D01*
X129920535Y-112228273D01*
X129825297Y-112323511D01*
X129682440Y-112371130D01*
X129444345Y-112371130D01*
%TO.C,MX26*%
X219694345Y-105227380D02*
X219694345Y-104227380D01*
X220027678Y-104941666D01*
X220361011Y-104227380D01*
X220361011Y-105227380D01*
X220741964Y-104227380D02*
X221408630Y-105227380D01*
X221408630Y-104227380D02*
X220741964Y-105227380D01*
X221741964Y-104322619D02*
X221789583Y-104275000D01*
X221884821Y-104227380D01*
X222122916Y-104227380D01*
X222218154Y-104275000D01*
X222265773Y-104322619D01*
X222313392Y-104417857D01*
X222313392Y-104513095D01*
X222265773Y-104655952D01*
X221694345Y-105227380D01*
X222313392Y-105227380D01*
X223170535Y-104227380D02*
X222980059Y-104227380D01*
X222884821Y-104275000D01*
X222837202Y-104322619D01*
X222741964Y-104465476D01*
X222694345Y-104655952D01*
X222694345Y-105036904D01*
X222741964Y-105132142D01*
X222789583Y-105179761D01*
X222884821Y-105227380D01*
X223075297Y-105227380D01*
X223170535Y-105179761D01*
X223218154Y-105132142D01*
X223265773Y-105036904D01*
X223265773Y-104798809D01*
X223218154Y-104703571D01*
X223170535Y-104655952D01*
X223075297Y-104608333D01*
X222884821Y-104608333D01*
X222789583Y-104655952D01*
X222741964Y-104703571D01*
X222694345Y-104798809D01*
X217694345Y-94114880D02*
X217694345Y-93114880D01*
X218027678Y-93829166D01*
X218361011Y-93114880D01*
X218361011Y-94114880D01*
X218741964Y-93114880D02*
X219408630Y-94114880D01*
X219408630Y-93114880D02*
X218741964Y-94114880D01*
X219789583Y-93733928D02*
X220551488Y-93733928D01*
X221027678Y-94114880D02*
X221027678Y-93114880D01*
X221599107Y-94114880D01*
X221599107Y-93114880D01*
X222218154Y-94114880D02*
X222122916Y-94067261D01*
X222075297Y-94019642D01*
X222027678Y-93924404D01*
X222027678Y-93638690D01*
X222075297Y-93543452D01*
X222122916Y-93495833D01*
X222218154Y-93448214D01*
X222361011Y-93448214D01*
X222456250Y-93495833D01*
X222503869Y-93543452D01*
X222551488Y-93638690D01*
X222551488Y-93924404D01*
X222503869Y-94019642D01*
X222456250Y-94067261D01*
X222361011Y-94114880D01*
X222218154Y-94114880D01*
X223456250Y-94114880D02*
X222980059Y-94114880D01*
X222980059Y-93114880D01*
X223789583Y-93591071D02*
X224122916Y-93591071D01*
X224265773Y-94114880D02*
X223789583Y-94114880D01*
X223789583Y-93114880D01*
X224265773Y-93114880D01*
X224694345Y-94114880D02*
X224694345Y-93114880D01*
X224932440Y-93114880D01*
X225075297Y-93162500D01*
X225170535Y-93257738D01*
X225218154Y-93352976D01*
X225265773Y-93543452D01*
X225265773Y-93686309D01*
X225218154Y-93876785D01*
X225170535Y-93972023D01*
X225075297Y-94067261D01*
X224932440Y-94114880D01*
X224694345Y-94114880D01*
%TO.C,MX25*%
X200644345Y-105227380D02*
X200644345Y-104227380D01*
X200977678Y-104941666D01*
X201311011Y-104227380D01*
X201311011Y-105227380D01*
X201691964Y-104227380D02*
X202358630Y-105227380D01*
X202358630Y-104227380D02*
X201691964Y-105227380D01*
X202691964Y-104322619D02*
X202739583Y-104275000D01*
X202834821Y-104227380D01*
X203072916Y-104227380D01*
X203168154Y-104275000D01*
X203215773Y-104322619D01*
X203263392Y-104417857D01*
X203263392Y-104513095D01*
X203215773Y-104655952D01*
X202644345Y-105227380D01*
X203263392Y-105227380D01*
X204168154Y-104227380D02*
X203691964Y-104227380D01*
X203644345Y-104703571D01*
X203691964Y-104655952D01*
X203787202Y-104608333D01*
X204025297Y-104608333D01*
X204120535Y-104655952D01*
X204168154Y-104703571D01*
X204215773Y-104798809D01*
X204215773Y-105036904D01*
X204168154Y-105132142D01*
X204120535Y-105179761D01*
X204025297Y-105227380D01*
X203787202Y-105227380D01*
X203691964Y-105179761D01*
X203644345Y-105132142D01*
X198644345Y-94114880D02*
X198644345Y-93114880D01*
X198977678Y-93829166D01*
X199311011Y-93114880D01*
X199311011Y-94114880D01*
X199691964Y-93114880D02*
X200358630Y-94114880D01*
X200358630Y-93114880D02*
X199691964Y-94114880D01*
X200739583Y-93733928D02*
X201501488Y-93733928D01*
X201977678Y-94114880D02*
X201977678Y-93114880D01*
X202549107Y-94114880D01*
X202549107Y-93114880D01*
X203168154Y-94114880D02*
X203072916Y-94067261D01*
X203025297Y-94019642D01*
X202977678Y-93924404D01*
X202977678Y-93638690D01*
X203025297Y-93543452D01*
X203072916Y-93495833D01*
X203168154Y-93448214D01*
X203311011Y-93448214D01*
X203406250Y-93495833D01*
X203453869Y-93543452D01*
X203501488Y-93638690D01*
X203501488Y-93924404D01*
X203453869Y-94019642D01*
X203406250Y-94067261D01*
X203311011Y-94114880D01*
X203168154Y-94114880D01*
X204406250Y-94114880D02*
X203930059Y-94114880D01*
X203930059Y-93114880D01*
X204739583Y-93591071D02*
X205072916Y-93591071D01*
X205215773Y-94114880D02*
X204739583Y-94114880D01*
X204739583Y-93114880D01*
X205215773Y-93114880D01*
X205644345Y-94114880D02*
X205644345Y-93114880D01*
X205882440Y-93114880D01*
X206025297Y-93162500D01*
X206120535Y-93257738D01*
X206168154Y-93352976D01*
X206215773Y-93543452D01*
X206215773Y-93686309D01*
X206168154Y-93876785D01*
X206120535Y-93972023D01*
X206025297Y-94067261D01*
X205882440Y-94114880D01*
X205644345Y-94114880D01*
%TO.C,MX24*%
X181594345Y-102052380D02*
X181594345Y-101052380D01*
X181927678Y-101766666D01*
X182261011Y-101052380D01*
X182261011Y-102052380D01*
X182641964Y-101052380D02*
X183308630Y-102052380D01*
X183308630Y-101052380D02*
X182641964Y-102052380D01*
X183641964Y-101147619D02*
X183689583Y-101100000D01*
X183784821Y-101052380D01*
X184022916Y-101052380D01*
X184118154Y-101100000D01*
X184165773Y-101147619D01*
X184213392Y-101242857D01*
X184213392Y-101338095D01*
X184165773Y-101480952D01*
X183594345Y-102052380D01*
X184213392Y-102052380D01*
X185070535Y-101385714D02*
X185070535Y-102052380D01*
X184832440Y-101004761D02*
X184594345Y-101719047D01*
X185213392Y-101719047D01*
X179594345Y-90939880D02*
X179594345Y-89939880D01*
X179927678Y-90654166D01*
X180261011Y-89939880D01*
X180261011Y-90939880D01*
X180641964Y-89939880D02*
X181308630Y-90939880D01*
X181308630Y-89939880D02*
X180641964Y-90939880D01*
X181689583Y-90558928D02*
X182451488Y-90558928D01*
X182927678Y-90939880D02*
X182927678Y-89939880D01*
X183499107Y-90939880D01*
X183499107Y-89939880D01*
X184118154Y-90939880D02*
X184022916Y-90892261D01*
X183975297Y-90844642D01*
X183927678Y-90749404D01*
X183927678Y-90463690D01*
X183975297Y-90368452D01*
X184022916Y-90320833D01*
X184118154Y-90273214D01*
X184261011Y-90273214D01*
X184356250Y-90320833D01*
X184403869Y-90368452D01*
X184451488Y-90463690D01*
X184451488Y-90749404D01*
X184403869Y-90844642D01*
X184356250Y-90892261D01*
X184261011Y-90939880D01*
X184118154Y-90939880D01*
X185356250Y-90939880D02*
X184880059Y-90939880D01*
X184880059Y-89939880D01*
X185689583Y-90416071D02*
X186022916Y-90416071D01*
X186165773Y-90939880D02*
X185689583Y-90939880D01*
X185689583Y-89939880D01*
X186165773Y-89939880D01*
X186594345Y-90939880D02*
X186594345Y-89939880D01*
X186832440Y-89939880D01*
X186975297Y-89987500D01*
X187070535Y-90082738D01*
X187118154Y-90177976D01*
X187165773Y-90368452D01*
X187165773Y-90511309D01*
X187118154Y-90701785D01*
X187070535Y-90797023D01*
X186975297Y-90892261D01*
X186832440Y-90939880D01*
X186594345Y-90939880D01*
%TO.C,MX23*%
X162544345Y-99671130D02*
X162544345Y-98671130D01*
X162877678Y-99385416D01*
X163211011Y-98671130D01*
X163211011Y-99671130D01*
X163591964Y-98671130D02*
X164258630Y-99671130D01*
X164258630Y-98671130D02*
X163591964Y-99671130D01*
X164591964Y-98766369D02*
X164639583Y-98718750D01*
X164734821Y-98671130D01*
X164972916Y-98671130D01*
X165068154Y-98718750D01*
X165115773Y-98766369D01*
X165163392Y-98861607D01*
X165163392Y-98956845D01*
X165115773Y-99099702D01*
X164544345Y-99671130D01*
X165163392Y-99671130D01*
X165496726Y-98671130D02*
X166115773Y-98671130D01*
X165782440Y-99052083D01*
X165925297Y-99052083D01*
X166020535Y-99099702D01*
X166068154Y-99147321D01*
X166115773Y-99242559D01*
X166115773Y-99480654D01*
X166068154Y-99575892D01*
X166020535Y-99623511D01*
X165925297Y-99671130D01*
X165639583Y-99671130D01*
X165544345Y-99623511D01*
X165496726Y-99575892D01*
X160544345Y-88558630D02*
X160544345Y-87558630D01*
X160877678Y-88272916D01*
X161211011Y-87558630D01*
X161211011Y-88558630D01*
X161591964Y-87558630D02*
X162258630Y-88558630D01*
X162258630Y-87558630D02*
X161591964Y-88558630D01*
X162639583Y-88177678D02*
X163401488Y-88177678D01*
X163877678Y-88558630D02*
X163877678Y-87558630D01*
X164449107Y-88558630D01*
X164449107Y-87558630D01*
X165068154Y-88558630D02*
X164972916Y-88511011D01*
X164925297Y-88463392D01*
X164877678Y-88368154D01*
X164877678Y-88082440D01*
X164925297Y-87987202D01*
X164972916Y-87939583D01*
X165068154Y-87891964D01*
X165211011Y-87891964D01*
X165306250Y-87939583D01*
X165353869Y-87987202D01*
X165401488Y-88082440D01*
X165401488Y-88368154D01*
X165353869Y-88463392D01*
X165306250Y-88511011D01*
X165211011Y-88558630D01*
X165068154Y-88558630D01*
X166306250Y-88558630D02*
X165830059Y-88558630D01*
X165830059Y-87558630D01*
X166639583Y-88034821D02*
X166972916Y-88034821D01*
X167115773Y-88558630D02*
X166639583Y-88558630D01*
X166639583Y-87558630D01*
X167115773Y-87558630D01*
X167544345Y-88558630D02*
X167544345Y-87558630D01*
X167782440Y-87558630D01*
X167925297Y-87606250D01*
X168020535Y-87701488D01*
X168068154Y-87796726D01*
X168115773Y-87987202D01*
X168115773Y-88130059D01*
X168068154Y-88320535D01*
X168020535Y-88415773D01*
X167925297Y-88511011D01*
X167782440Y-88558630D01*
X167544345Y-88558630D01*
%TO.C,MX22*%
X143494345Y-102052380D02*
X143494345Y-101052380D01*
X143827678Y-101766666D01*
X144161011Y-101052380D01*
X144161011Y-102052380D01*
X144541964Y-101052380D02*
X145208630Y-102052380D01*
X145208630Y-101052380D02*
X144541964Y-102052380D01*
X145541964Y-101147619D02*
X145589583Y-101100000D01*
X145684821Y-101052380D01*
X145922916Y-101052380D01*
X146018154Y-101100000D01*
X146065773Y-101147619D01*
X146113392Y-101242857D01*
X146113392Y-101338095D01*
X146065773Y-101480952D01*
X145494345Y-102052380D01*
X146113392Y-102052380D01*
X146494345Y-101147619D02*
X146541964Y-101100000D01*
X146637202Y-101052380D01*
X146875297Y-101052380D01*
X146970535Y-101100000D01*
X147018154Y-101147619D01*
X147065773Y-101242857D01*
X147065773Y-101338095D01*
X147018154Y-101480952D01*
X146446726Y-102052380D01*
X147065773Y-102052380D01*
X141494345Y-90939880D02*
X141494345Y-89939880D01*
X141827678Y-90654166D01*
X142161011Y-89939880D01*
X142161011Y-90939880D01*
X142541964Y-89939880D02*
X143208630Y-90939880D01*
X143208630Y-89939880D02*
X142541964Y-90939880D01*
X143589583Y-90558928D02*
X144351488Y-90558928D01*
X144827678Y-90939880D02*
X144827678Y-89939880D01*
X145399107Y-90939880D01*
X145399107Y-89939880D01*
X146018154Y-90939880D02*
X145922916Y-90892261D01*
X145875297Y-90844642D01*
X145827678Y-90749404D01*
X145827678Y-90463690D01*
X145875297Y-90368452D01*
X145922916Y-90320833D01*
X146018154Y-90273214D01*
X146161011Y-90273214D01*
X146256250Y-90320833D01*
X146303869Y-90368452D01*
X146351488Y-90463690D01*
X146351488Y-90749404D01*
X146303869Y-90844642D01*
X146256250Y-90892261D01*
X146161011Y-90939880D01*
X146018154Y-90939880D01*
X147256250Y-90939880D02*
X146780059Y-90939880D01*
X146780059Y-89939880D01*
X147589583Y-90416071D02*
X147922916Y-90416071D01*
X148065773Y-90939880D02*
X147589583Y-90939880D01*
X147589583Y-89939880D01*
X148065773Y-89939880D01*
X148494345Y-90939880D02*
X148494345Y-89939880D01*
X148732440Y-89939880D01*
X148875297Y-89987500D01*
X148970535Y-90082738D01*
X149018154Y-90177976D01*
X149065773Y-90368452D01*
X149065773Y-90511309D01*
X149018154Y-90701785D01*
X148970535Y-90797023D01*
X148875297Y-90892261D01*
X148732440Y-90939880D01*
X148494345Y-90939880D01*
%TO.C,MX21*%
X124444345Y-104433630D02*
X124444345Y-103433630D01*
X124777678Y-104147916D01*
X125111011Y-103433630D01*
X125111011Y-104433630D01*
X125491964Y-103433630D02*
X126158630Y-104433630D01*
X126158630Y-103433630D02*
X125491964Y-104433630D01*
X126491964Y-103528869D02*
X126539583Y-103481250D01*
X126634821Y-103433630D01*
X126872916Y-103433630D01*
X126968154Y-103481250D01*
X127015773Y-103528869D01*
X127063392Y-103624107D01*
X127063392Y-103719345D01*
X127015773Y-103862202D01*
X126444345Y-104433630D01*
X127063392Y-104433630D01*
X128015773Y-104433630D02*
X127444345Y-104433630D01*
X127730059Y-104433630D02*
X127730059Y-103433630D01*
X127634821Y-103576488D01*
X127539583Y-103671726D01*
X127444345Y-103719345D01*
X122444345Y-93321130D02*
X122444345Y-92321130D01*
X122777678Y-93035416D01*
X123111011Y-92321130D01*
X123111011Y-93321130D01*
X123491964Y-92321130D02*
X124158630Y-93321130D01*
X124158630Y-92321130D02*
X123491964Y-93321130D01*
X124539583Y-92940178D02*
X125301488Y-92940178D01*
X125777678Y-93321130D02*
X125777678Y-92321130D01*
X126349107Y-93321130D01*
X126349107Y-92321130D01*
X126968154Y-93321130D02*
X126872916Y-93273511D01*
X126825297Y-93225892D01*
X126777678Y-93130654D01*
X126777678Y-92844940D01*
X126825297Y-92749702D01*
X126872916Y-92702083D01*
X126968154Y-92654464D01*
X127111011Y-92654464D01*
X127206250Y-92702083D01*
X127253869Y-92749702D01*
X127301488Y-92844940D01*
X127301488Y-93130654D01*
X127253869Y-93225892D01*
X127206250Y-93273511D01*
X127111011Y-93321130D01*
X126968154Y-93321130D01*
X128206250Y-93321130D02*
X127730059Y-93321130D01*
X127730059Y-92321130D01*
X128539583Y-92797321D02*
X128872916Y-92797321D01*
X129015773Y-93321130D02*
X128539583Y-93321130D01*
X128539583Y-92321130D01*
X129015773Y-92321130D01*
X129444345Y-93321130D02*
X129444345Y-92321130D01*
X129682440Y-92321130D01*
X129825297Y-92368750D01*
X129920535Y-92463988D01*
X129968154Y-92559226D01*
X130015773Y-92749702D01*
X130015773Y-92892559D01*
X129968154Y-93083035D01*
X129920535Y-93178273D01*
X129825297Y-93273511D01*
X129682440Y-93321130D01*
X129444345Y-93321130D01*
%TO.C,MX16*%
X219694345Y-86177380D02*
X219694345Y-85177380D01*
X220027678Y-85891666D01*
X220361011Y-85177380D01*
X220361011Y-86177380D01*
X220741964Y-85177380D02*
X221408630Y-86177380D01*
X221408630Y-85177380D02*
X220741964Y-86177380D01*
X222313392Y-86177380D02*
X221741964Y-86177380D01*
X222027678Y-86177380D02*
X222027678Y-85177380D01*
X221932440Y-85320238D01*
X221837202Y-85415476D01*
X221741964Y-85463095D01*
X223170535Y-85177380D02*
X222980059Y-85177380D01*
X222884821Y-85225000D01*
X222837202Y-85272619D01*
X222741964Y-85415476D01*
X222694345Y-85605952D01*
X222694345Y-85986904D01*
X222741964Y-86082142D01*
X222789583Y-86129761D01*
X222884821Y-86177380D01*
X223075297Y-86177380D01*
X223170535Y-86129761D01*
X223218154Y-86082142D01*
X223265773Y-85986904D01*
X223265773Y-85748809D01*
X223218154Y-85653571D01*
X223170535Y-85605952D01*
X223075297Y-85558333D01*
X222884821Y-85558333D01*
X222789583Y-85605952D01*
X222741964Y-85653571D01*
X222694345Y-85748809D01*
X217694345Y-75064880D02*
X217694345Y-74064880D01*
X218027678Y-74779166D01*
X218361011Y-74064880D01*
X218361011Y-75064880D01*
X218741964Y-74064880D02*
X219408630Y-75064880D01*
X219408630Y-74064880D02*
X218741964Y-75064880D01*
X219789583Y-74683928D02*
X220551488Y-74683928D01*
X221027678Y-75064880D02*
X221027678Y-74064880D01*
X221599107Y-75064880D01*
X221599107Y-74064880D01*
X222218154Y-75064880D02*
X222122916Y-75017261D01*
X222075297Y-74969642D01*
X222027678Y-74874404D01*
X222027678Y-74588690D01*
X222075297Y-74493452D01*
X222122916Y-74445833D01*
X222218154Y-74398214D01*
X222361011Y-74398214D01*
X222456250Y-74445833D01*
X222503869Y-74493452D01*
X222551488Y-74588690D01*
X222551488Y-74874404D01*
X222503869Y-74969642D01*
X222456250Y-75017261D01*
X222361011Y-75064880D01*
X222218154Y-75064880D01*
X223456250Y-75064880D02*
X222980059Y-75064880D01*
X222980059Y-74064880D01*
X223789583Y-74541071D02*
X224122916Y-74541071D01*
X224265773Y-75064880D02*
X223789583Y-75064880D01*
X223789583Y-74064880D01*
X224265773Y-74064880D01*
X224694345Y-75064880D02*
X224694345Y-74064880D01*
X224932440Y-74064880D01*
X225075297Y-74112500D01*
X225170535Y-74207738D01*
X225218154Y-74302976D01*
X225265773Y-74493452D01*
X225265773Y-74636309D01*
X225218154Y-74826785D01*
X225170535Y-74922023D01*
X225075297Y-75017261D01*
X224932440Y-75064880D01*
X224694345Y-75064880D01*
%TO.C,MX15*%
X200644345Y-86177380D02*
X200644345Y-85177380D01*
X200977678Y-85891666D01*
X201311011Y-85177380D01*
X201311011Y-86177380D01*
X201691964Y-85177380D02*
X202358630Y-86177380D01*
X202358630Y-85177380D02*
X201691964Y-86177380D01*
X203263392Y-86177380D02*
X202691964Y-86177380D01*
X202977678Y-86177380D02*
X202977678Y-85177380D01*
X202882440Y-85320238D01*
X202787202Y-85415476D01*
X202691964Y-85463095D01*
X204168154Y-85177380D02*
X203691964Y-85177380D01*
X203644345Y-85653571D01*
X203691964Y-85605952D01*
X203787202Y-85558333D01*
X204025297Y-85558333D01*
X204120535Y-85605952D01*
X204168154Y-85653571D01*
X204215773Y-85748809D01*
X204215773Y-85986904D01*
X204168154Y-86082142D01*
X204120535Y-86129761D01*
X204025297Y-86177380D01*
X203787202Y-86177380D01*
X203691964Y-86129761D01*
X203644345Y-86082142D01*
X198644345Y-75064880D02*
X198644345Y-74064880D01*
X198977678Y-74779166D01*
X199311011Y-74064880D01*
X199311011Y-75064880D01*
X199691964Y-74064880D02*
X200358630Y-75064880D01*
X200358630Y-74064880D02*
X199691964Y-75064880D01*
X200739583Y-74683928D02*
X201501488Y-74683928D01*
X201977678Y-75064880D02*
X201977678Y-74064880D01*
X202549107Y-75064880D01*
X202549107Y-74064880D01*
X203168154Y-75064880D02*
X203072916Y-75017261D01*
X203025297Y-74969642D01*
X202977678Y-74874404D01*
X202977678Y-74588690D01*
X203025297Y-74493452D01*
X203072916Y-74445833D01*
X203168154Y-74398214D01*
X203311011Y-74398214D01*
X203406250Y-74445833D01*
X203453869Y-74493452D01*
X203501488Y-74588690D01*
X203501488Y-74874404D01*
X203453869Y-74969642D01*
X203406250Y-75017261D01*
X203311011Y-75064880D01*
X203168154Y-75064880D01*
X204406250Y-75064880D02*
X203930059Y-75064880D01*
X203930059Y-74064880D01*
X204739583Y-74541071D02*
X205072916Y-74541071D01*
X205215773Y-75064880D02*
X204739583Y-75064880D01*
X204739583Y-74064880D01*
X205215773Y-74064880D01*
X205644345Y-75064880D02*
X205644345Y-74064880D01*
X205882440Y-74064880D01*
X206025297Y-74112500D01*
X206120535Y-74207738D01*
X206168154Y-74302976D01*
X206215773Y-74493452D01*
X206215773Y-74636309D01*
X206168154Y-74826785D01*
X206120535Y-74922023D01*
X206025297Y-75017261D01*
X205882440Y-75064880D01*
X205644345Y-75064880D01*
%TO.C,MX14*%
X181594345Y-83002380D02*
X181594345Y-82002380D01*
X181927678Y-82716666D01*
X182261011Y-82002380D01*
X182261011Y-83002380D01*
X182641964Y-82002380D02*
X183308630Y-83002380D01*
X183308630Y-82002380D02*
X182641964Y-83002380D01*
X184213392Y-83002380D02*
X183641964Y-83002380D01*
X183927678Y-83002380D02*
X183927678Y-82002380D01*
X183832440Y-82145238D01*
X183737202Y-82240476D01*
X183641964Y-82288095D01*
X185070535Y-82335714D02*
X185070535Y-83002380D01*
X184832440Y-81954761D02*
X184594345Y-82669047D01*
X185213392Y-82669047D01*
X179594345Y-71889880D02*
X179594345Y-70889880D01*
X179927678Y-71604166D01*
X180261011Y-70889880D01*
X180261011Y-71889880D01*
X180641964Y-70889880D02*
X181308630Y-71889880D01*
X181308630Y-70889880D02*
X180641964Y-71889880D01*
X181689583Y-71508928D02*
X182451488Y-71508928D01*
X182927678Y-71889880D02*
X182927678Y-70889880D01*
X183499107Y-71889880D01*
X183499107Y-70889880D01*
X184118154Y-71889880D02*
X184022916Y-71842261D01*
X183975297Y-71794642D01*
X183927678Y-71699404D01*
X183927678Y-71413690D01*
X183975297Y-71318452D01*
X184022916Y-71270833D01*
X184118154Y-71223214D01*
X184261011Y-71223214D01*
X184356250Y-71270833D01*
X184403869Y-71318452D01*
X184451488Y-71413690D01*
X184451488Y-71699404D01*
X184403869Y-71794642D01*
X184356250Y-71842261D01*
X184261011Y-71889880D01*
X184118154Y-71889880D01*
X185356250Y-71889880D02*
X184880059Y-71889880D01*
X184880059Y-70889880D01*
X185689583Y-71366071D02*
X186022916Y-71366071D01*
X186165773Y-71889880D02*
X185689583Y-71889880D01*
X185689583Y-70889880D01*
X186165773Y-70889880D01*
X186594345Y-71889880D02*
X186594345Y-70889880D01*
X186832440Y-70889880D01*
X186975297Y-70937500D01*
X187070535Y-71032738D01*
X187118154Y-71127976D01*
X187165773Y-71318452D01*
X187165773Y-71461309D01*
X187118154Y-71651785D01*
X187070535Y-71747023D01*
X186975297Y-71842261D01*
X186832440Y-71889880D01*
X186594345Y-71889880D01*
%TO.C,MX13*%
X162544345Y-80621130D02*
X162544345Y-79621130D01*
X162877678Y-80335416D01*
X163211011Y-79621130D01*
X163211011Y-80621130D01*
X163591964Y-79621130D02*
X164258630Y-80621130D01*
X164258630Y-79621130D02*
X163591964Y-80621130D01*
X165163392Y-80621130D02*
X164591964Y-80621130D01*
X164877678Y-80621130D02*
X164877678Y-79621130D01*
X164782440Y-79763988D01*
X164687202Y-79859226D01*
X164591964Y-79906845D01*
X165496726Y-79621130D02*
X166115773Y-79621130D01*
X165782440Y-80002083D01*
X165925297Y-80002083D01*
X166020535Y-80049702D01*
X166068154Y-80097321D01*
X166115773Y-80192559D01*
X166115773Y-80430654D01*
X166068154Y-80525892D01*
X166020535Y-80573511D01*
X165925297Y-80621130D01*
X165639583Y-80621130D01*
X165544345Y-80573511D01*
X165496726Y-80525892D01*
X160544345Y-69508630D02*
X160544345Y-68508630D01*
X160877678Y-69222916D01*
X161211011Y-68508630D01*
X161211011Y-69508630D01*
X161591964Y-68508630D02*
X162258630Y-69508630D01*
X162258630Y-68508630D02*
X161591964Y-69508630D01*
X162639583Y-69127678D02*
X163401488Y-69127678D01*
X163877678Y-69508630D02*
X163877678Y-68508630D01*
X164449107Y-69508630D01*
X164449107Y-68508630D01*
X165068154Y-69508630D02*
X164972916Y-69461011D01*
X164925297Y-69413392D01*
X164877678Y-69318154D01*
X164877678Y-69032440D01*
X164925297Y-68937202D01*
X164972916Y-68889583D01*
X165068154Y-68841964D01*
X165211011Y-68841964D01*
X165306250Y-68889583D01*
X165353869Y-68937202D01*
X165401488Y-69032440D01*
X165401488Y-69318154D01*
X165353869Y-69413392D01*
X165306250Y-69461011D01*
X165211011Y-69508630D01*
X165068154Y-69508630D01*
X166306250Y-69508630D02*
X165830059Y-69508630D01*
X165830059Y-68508630D01*
X166639583Y-68984821D02*
X166972916Y-68984821D01*
X167115773Y-69508630D02*
X166639583Y-69508630D01*
X166639583Y-68508630D01*
X167115773Y-68508630D01*
X167544345Y-69508630D02*
X167544345Y-68508630D01*
X167782440Y-68508630D01*
X167925297Y-68556250D01*
X168020535Y-68651488D01*
X168068154Y-68746726D01*
X168115773Y-68937202D01*
X168115773Y-69080059D01*
X168068154Y-69270535D01*
X168020535Y-69365773D01*
X167925297Y-69461011D01*
X167782440Y-69508630D01*
X167544345Y-69508630D01*
%TO.C,MX12*%
X143494345Y-83002380D02*
X143494345Y-82002380D01*
X143827678Y-82716666D01*
X144161011Y-82002380D01*
X144161011Y-83002380D01*
X144541964Y-82002380D02*
X145208630Y-83002380D01*
X145208630Y-82002380D02*
X144541964Y-83002380D01*
X146113392Y-83002380D02*
X145541964Y-83002380D01*
X145827678Y-83002380D02*
X145827678Y-82002380D01*
X145732440Y-82145238D01*
X145637202Y-82240476D01*
X145541964Y-82288095D01*
X146494345Y-82097619D02*
X146541964Y-82050000D01*
X146637202Y-82002380D01*
X146875297Y-82002380D01*
X146970535Y-82050000D01*
X147018154Y-82097619D01*
X147065773Y-82192857D01*
X147065773Y-82288095D01*
X147018154Y-82430952D01*
X146446726Y-83002380D01*
X147065773Y-83002380D01*
X141494345Y-71889880D02*
X141494345Y-70889880D01*
X141827678Y-71604166D01*
X142161011Y-70889880D01*
X142161011Y-71889880D01*
X142541964Y-70889880D02*
X143208630Y-71889880D01*
X143208630Y-70889880D02*
X142541964Y-71889880D01*
X143589583Y-71508928D02*
X144351488Y-71508928D01*
X144827678Y-71889880D02*
X144827678Y-70889880D01*
X145399107Y-71889880D01*
X145399107Y-70889880D01*
X146018154Y-71889880D02*
X145922916Y-71842261D01*
X145875297Y-71794642D01*
X145827678Y-71699404D01*
X145827678Y-71413690D01*
X145875297Y-71318452D01*
X145922916Y-71270833D01*
X146018154Y-71223214D01*
X146161011Y-71223214D01*
X146256250Y-71270833D01*
X146303869Y-71318452D01*
X146351488Y-71413690D01*
X146351488Y-71699404D01*
X146303869Y-71794642D01*
X146256250Y-71842261D01*
X146161011Y-71889880D01*
X146018154Y-71889880D01*
X147256250Y-71889880D02*
X146780059Y-71889880D01*
X146780059Y-70889880D01*
X147589583Y-71366071D02*
X147922916Y-71366071D01*
X148065773Y-71889880D02*
X147589583Y-71889880D01*
X147589583Y-70889880D01*
X148065773Y-70889880D01*
X148494345Y-71889880D02*
X148494345Y-70889880D01*
X148732440Y-70889880D01*
X148875297Y-70937500D01*
X148970535Y-71032738D01*
X149018154Y-71127976D01*
X149065773Y-71318452D01*
X149065773Y-71461309D01*
X149018154Y-71651785D01*
X148970535Y-71747023D01*
X148875297Y-71842261D01*
X148732440Y-71889880D01*
X148494345Y-71889880D01*
%TO.C,MX11*%
X124444345Y-85383630D02*
X124444345Y-84383630D01*
X124777678Y-85097916D01*
X125111011Y-84383630D01*
X125111011Y-85383630D01*
X125491964Y-84383630D02*
X126158630Y-85383630D01*
X126158630Y-84383630D02*
X125491964Y-85383630D01*
X127063392Y-85383630D02*
X126491964Y-85383630D01*
X126777678Y-85383630D02*
X126777678Y-84383630D01*
X126682440Y-84526488D01*
X126587202Y-84621726D01*
X126491964Y-84669345D01*
X128015773Y-85383630D02*
X127444345Y-85383630D01*
X127730059Y-85383630D02*
X127730059Y-84383630D01*
X127634821Y-84526488D01*
X127539583Y-84621726D01*
X127444345Y-84669345D01*
X122444345Y-74271130D02*
X122444345Y-73271130D01*
X122777678Y-73985416D01*
X123111011Y-73271130D01*
X123111011Y-74271130D01*
X123491964Y-73271130D02*
X124158630Y-74271130D01*
X124158630Y-73271130D02*
X123491964Y-74271130D01*
X124539583Y-73890178D02*
X125301488Y-73890178D01*
X125777678Y-74271130D02*
X125777678Y-73271130D01*
X126349107Y-74271130D01*
X126349107Y-73271130D01*
X126968154Y-74271130D02*
X126872916Y-74223511D01*
X126825297Y-74175892D01*
X126777678Y-74080654D01*
X126777678Y-73794940D01*
X126825297Y-73699702D01*
X126872916Y-73652083D01*
X126968154Y-73604464D01*
X127111011Y-73604464D01*
X127206250Y-73652083D01*
X127253869Y-73699702D01*
X127301488Y-73794940D01*
X127301488Y-74080654D01*
X127253869Y-74175892D01*
X127206250Y-74223511D01*
X127111011Y-74271130D01*
X126968154Y-74271130D01*
X128206250Y-74271130D02*
X127730059Y-74271130D01*
X127730059Y-73271130D01*
X128539583Y-73747321D02*
X128872916Y-73747321D01*
X129015773Y-74271130D02*
X128539583Y-74271130D01*
X128539583Y-73271130D01*
X129015773Y-73271130D01*
X129444345Y-74271130D02*
X129444345Y-73271130D01*
X129682440Y-73271130D01*
X129825297Y-73318750D01*
X129920535Y-73413988D01*
X129968154Y-73509226D01*
X130015773Y-73699702D01*
X130015773Y-73842559D01*
X129968154Y-74033035D01*
X129920535Y-74128273D01*
X129825297Y-74223511D01*
X129682440Y-74271130D01*
X129444345Y-74271130D01*
%TO.C,MX6*%
X220170535Y-67127380D02*
X220170535Y-66127380D01*
X220503869Y-66841666D01*
X220837202Y-66127380D01*
X220837202Y-67127380D01*
X221218154Y-66127380D02*
X221884821Y-67127380D01*
X221884821Y-66127380D02*
X221218154Y-67127380D01*
X222694345Y-66127380D02*
X222503869Y-66127380D01*
X222408630Y-66175000D01*
X222361011Y-66222619D01*
X222265773Y-66365476D01*
X222218154Y-66555952D01*
X222218154Y-66936904D01*
X222265773Y-67032142D01*
X222313392Y-67079761D01*
X222408630Y-67127380D01*
X222599107Y-67127380D01*
X222694345Y-67079761D01*
X222741964Y-67032142D01*
X222789583Y-66936904D01*
X222789583Y-66698809D01*
X222741964Y-66603571D01*
X222694345Y-66555952D01*
X222599107Y-66508333D01*
X222408630Y-66508333D01*
X222313392Y-66555952D01*
X222265773Y-66603571D01*
X222218154Y-66698809D01*
X217694345Y-56014880D02*
X217694345Y-55014880D01*
X218027678Y-55729166D01*
X218361011Y-55014880D01*
X218361011Y-56014880D01*
X218741964Y-55014880D02*
X219408630Y-56014880D01*
X219408630Y-55014880D02*
X218741964Y-56014880D01*
X219789583Y-55633928D02*
X220551488Y-55633928D01*
X221027678Y-56014880D02*
X221027678Y-55014880D01*
X221599107Y-56014880D01*
X221599107Y-55014880D01*
X222218154Y-56014880D02*
X222122916Y-55967261D01*
X222075297Y-55919642D01*
X222027678Y-55824404D01*
X222027678Y-55538690D01*
X222075297Y-55443452D01*
X222122916Y-55395833D01*
X222218154Y-55348214D01*
X222361011Y-55348214D01*
X222456250Y-55395833D01*
X222503869Y-55443452D01*
X222551488Y-55538690D01*
X222551488Y-55824404D01*
X222503869Y-55919642D01*
X222456250Y-55967261D01*
X222361011Y-56014880D01*
X222218154Y-56014880D01*
X223456250Y-56014880D02*
X222980059Y-56014880D01*
X222980059Y-55014880D01*
X223789583Y-55491071D02*
X224122916Y-55491071D01*
X224265773Y-56014880D02*
X223789583Y-56014880D01*
X223789583Y-55014880D01*
X224265773Y-55014880D01*
X224694345Y-56014880D02*
X224694345Y-55014880D01*
X224932440Y-55014880D01*
X225075297Y-55062500D01*
X225170535Y-55157738D01*
X225218154Y-55252976D01*
X225265773Y-55443452D01*
X225265773Y-55586309D01*
X225218154Y-55776785D01*
X225170535Y-55872023D01*
X225075297Y-55967261D01*
X224932440Y-56014880D01*
X224694345Y-56014880D01*
%TO.C,MX5*%
X201120535Y-67127380D02*
X201120535Y-66127380D01*
X201453869Y-66841666D01*
X201787202Y-66127380D01*
X201787202Y-67127380D01*
X202168154Y-66127380D02*
X202834821Y-67127380D01*
X202834821Y-66127380D02*
X202168154Y-67127380D01*
X203691964Y-66127380D02*
X203215773Y-66127380D01*
X203168154Y-66603571D01*
X203215773Y-66555952D01*
X203311011Y-66508333D01*
X203549107Y-66508333D01*
X203644345Y-66555952D01*
X203691964Y-66603571D01*
X203739583Y-66698809D01*
X203739583Y-66936904D01*
X203691964Y-67032142D01*
X203644345Y-67079761D01*
X203549107Y-67127380D01*
X203311011Y-67127380D01*
X203215773Y-67079761D01*
X203168154Y-67032142D01*
X198644345Y-56014880D02*
X198644345Y-55014880D01*
X198977678Y-55729166D01*
X199311011Y-55014880D01*
X199311011Y-56014880D01*
X199691964Y-55014880D02*
X200358630Y-56014880D01*
X200358630Y-55014880D02*
X199691964Y-56014880D01*
X200739583Y-55633928D02*
X201501488Y-55633928D01*
X201977678Y-56014880D02*
X201977678Y-55014880D01*
X202549107Y-56014880D01*
X202549107Y-55014880D01*
X203168154Y-56014880D02*
X203072916Y-55967261D01*
X203025297Y-55919642D01*
X202977678Y-55824404D01*
X202977678Y-55538690D01*
X203025297Y-55443452D01*
X203072916Y-55395833D01*
X203168154Y-55348214D01*
X203311011Y-55348214D01*
X203406250Y-55395833D01*
X203453869Y-55443452D01*
X203501488Y-55538690D01*
X203501488Y-55824404D01*
X203453869Y-55919642D01*
X203406250Y-55967261D01*
X203311011Y-56014880D01*
X203168154Y-56014880D01*
X204406250Y-56014880D02*
X203930059Y-56014880D01*
X203930059Y-55014880D01*
X204739583Y-55491071D02*
X205072916Y-55491071D01*
X205215773Y-56014880D02*
X204739583Y-56014880D01*
X204739583Y-55014880D01*
X205215773Y-55014880D01*
X205644345Y-56014880D02*
X205644345Y-55014880D01*
X205882440Y-55014880D01*
X206025297Y-55062500D01*
X206120535Y-55157738D01*
X206168154Y-55252976D01*
X206215773Y-55443452D01*
X206215773Y-55586309D01*
X206168154Y-55776785D01*
X206120535Y-55872023D01*
X206025297Y-55967261D01*
X205882440Y-56014880D01*
X205644345Y-56014880D01*
%TO.C,MX4*%
X182070535Y-63952380D02*
X182070535Y-62952380D01*
X182403869Y-63666666D01*
X182737202Y-62952380D01*
X182737202Y-63952380D01*
X183118154Y-62952380D02*
X183784821Y-63952380D01*
X183784821Y-62952380D02*
X183118154Y-63952380D01*
X184594345Y-63285714D02*
X184594345Y-63952380D01*
X184356250Y-62904761D02*
X184118154Y-63619047D01*
X184737202Y-63619047D01*
X179594345Y-52839880D02*
X179594345Y-51839880D01*
X179927678Y-52554166D01*
X180261011Y-51839880D01*
X180261011Y-52839880D01*
X180641964Y-51839880D02*
X181308630Y-52839880D01*
X181308630Y-51839880D02*
X180641964Y-52839880D01*
X181689583Y-52458928D02*
X182451488Y-52458928D01*
X182927678Y-52839880D02*
X182927678Y-51839880D01*
X183499107Y-52839880D01*
X183499107Y-51839880D01*
X184118154Y-52839880D02*
X184022916Y-52792261D01*
X183975297Y-52744642D01*
X183927678Y-52649404D01*
X183927678Y-52363690D01*
X183975297Y-52268452D01*
X184022916Y-52220833D01*
X184118154Y-52173214D01*
X184261011Y-52173214D01*
X184356250Y-52220833D01*
X184403869Y-52268452D01*
X184451488Y-52363690D01*
X184451488Y-52649404D01*
X184403869Y-52744642D01*
X184356250Y-52792261D01*
X184261011Y-52839880D01*
X184118154Y-52839880D01*
X185356250Y-52839880D02*
X184880059Y-52839880D01*
X184880059Y-51839880D01*
X185689583Y-52316071D02*
X186022916Y-52316071D01*
X186165773Y-52839880D02*
X185689583Y-52839880D01*
X185689583Y-51839880D01*
X186165773Y-51839880D01*
X186594345Y-52839880D02*
X186594345Y-51839880D01*
X186832440Y-51839880D01*
X186975297Y-51887500D01*
X187070535Y-51982738D01*
X187118154Y-52077976D01*
X187165773Y-52268452D01*
X187165773Y-52411309D01*
X187118154Y-52601785D01*
X187070535Y-52697023D01*
X186975297Y-52792261D01*
X186832440Y-52839880D01*
X186594345Y-52839880D01*
%TO.C,MX3*%
X163020535Y-61571130D02*
X163020535Y-60571130D01*
X163353869Y-61285416D01*
X163687202Y-60571130D01*
X163687202Y-61571130D01*
X164068154Y-60571130D02*
X164734821Y-61571130D01*
X164734821Y-60571130D02*
X164068154Y-61571130D01*
X165020535Y-60571130D02*
X165639583Y-60571130D01*
X165306250Y-60952083D01*
X165449107Y-60952083D01*
X165544345Y-60999702D01*
X165591964Y-61047321D01*
X165639583Y-61142559D01*
X165639583Y-61380654D01*
X165591964Y-61475892D01*
X165544345Y-61523511D01*
X165449107Y-61571130D01*
X165163392Y-61571130D01*
X165068154Y-61523511D01*
X165020535Y-61475892D01*
X160544345Y-50458630D02*
X160544345Y-49458630D01*
X160877678Y-50172916D01*
X161211011Y-49458630D01*
X161211011Y-50458630D01*
X161591964Y-49458630D02*
X162258630Y-50458630D01*
X162258630Y-49458630D02*
X161591964Y-50458630D01*
X162639583Y-50077678D02*
X163401488Y-50077678D01*
X163877678Y-50458630D02*
X163877678Y-49458630D01*
X164449107Y-50458630D01*
X164449107Y-49458630D01*
X165068154Y-50458630D02*
X164972916Y-50411011D01*
X164925297Y-50363392D01*
X164877678Y-50268154D01*
X164877678Y-49982440D01*
X164925297Y-49887202D01*
X164972916Y-49839583D01*
X165068154Y-49791964D01*
X165211011Y-49791964D01*
X165306250Y-49839583D01*
X165353869Y-49887202D01*
X165401488Y-49982440D01*
X165401488Y-50268154D01*
X165353869Y-50363392D01*
X165306250Y-50411011D01*
X165211011Y-50458630D01*
X165068154Y-50458630D01*
X166306250Y-50458630D02*
X165830059Y-50458630D01*
X165830059Y-49458630D01*
X166639583Y-49934821D02*
X166972916Y-49934821D01*
X167115773Y-50458630D02*
X166639583Y-50458630D01*
X166639583Y-49458630D01*
X167115773Y-49458630D01*
X167544345Y-50458630D02*
X167544345Y-49458630D01*
X167782440Y-49458630D01*
X167925297Y-49506250D01*
X168020535Y-49601488D01*
X168068154Y-49696726D01*
X168115773Y-49887202D01*
X168115773Y-50030059D01*
X168068154Y-50220535D01*
X168020535Y-50315773D01*
X167925297Y-50411011D01*
X167782440Y-50458630D01*
X167544345Y-50458630D01*
%TO.C,MX2*%
X143970535Y-63952380D02*
X143970535Y-62952380D01*
X144303869Y-63666666D01*
X144637202Y-62952380D01*
X144637202Y-63952380D01*
X145018154Y-62952380D02*
X145684821Y-63952380D01*
X145684821Y-62952380D02*
X145018154Y-63952380D01*
X146018154Y-63047619D02*
X146065773Y-63000000D01*
X146161011Y-62952380D01*
X146399107Y-62952380D01*
X146494345Y-63000000D01*
X146541964Y-63047619D01*
X146589583Y-63142857D01*
X146589583Y-63238095D01*
X146541964Y-63380952D01*
X145970535Y-63952380D01*
X146589583Y-63952380D01*
X141494345Y-52839880D02*
X141494345Y-51839880D01*
X141827678Y-52554166D01*
X142161011Y-51839880D01*
X142161011Y-52839880D01*
X142541964Y-51839880D02*
X143208630Y-52839880D01*
X143208630Y-51839880D02*
X142541964Y-52839880D01*
X143589583Y-52458928D02*
X144351488Y-52458928D01*
X144827678Y-52839880D02*
X144827678Y-51839880D01*
X145399107Y-52839880D01*
X145399107Y-51839880D01*
X146018154Y-52839880D02*
X145922916Y-52792261D01*
X145875297Y-52744642D01*
X145827678Y-52649404D01*
X145827678Y-52363690D01*
X145875297Y-52268452D01*
X145922916Y-52220833D01*
X146018154Y-52173214D01*
X146161011Y-52173214D01*
X146256250Y-52220833D01*
X146303869Y-52268452D01*
X146351488Y-52363690D01*
X146351488Y-52649404D01*
X146303869Y-52744642D01*
X146256250Y-52792261D01*
X146161011Y-52839880D01*
X146018154Y-52839880D01*
X147256250Y-52839880D02*
X146780059Y-52839880D01*
X146780059Y-51839880D01*
X147589583Y-52316071D02*
X147922916Y-52316071D01*
X148065773Y-52839880D02*
X147589583Y-52839880D01*
X147589583Y-51839880D01*
X148065773Y-51839880D01*
X148494345Y-52839880D02*
X148494345Y-51839880D01*
X148732440Y-51839880D01*
X148875297Y-51887500D01*
X148970535Y-51982738D01*
X149018154Y-52077976D01*
X149065773Y-52268452D01*
X149065773Y-52411309D01*
X149018154Y-52601785D01*
X148970535Y-52697023D01*
X148875297Y-52792261D01*
X148732440Y-52839880D01*
X148494345Y-52839880D01*
%TO.C,MX1*%
X124920535Y-66333630D02*
X124920535Y-65333630D01*
X125253869Y-66047916D01*
X125587202Y-65333630D01*
X125587202Y-66333630D01*
X125968154Y-65333630D02*
X126634821Y-66333630D01*
X126634821Y-65333630D02*
X125968154Y-66333630D01*
X127539583Y-66333630D02*
X126968154Y-66333630D01*
X127253869Y-66333630D02*
X127253869Y-65333630D01*
X127158630Y-65476488D01*
X127063392Y-65571726D01*
X126968154Y-65619345D01*
X122444345Y-55221130D02*
X122444345Y-54221130D01*
X122777678Y-54935416D01*
X123111011Y-54221130D01*
X123111011Y-55221130D01*
X123491964Y-54221130D02*
X124158630Y-55221130D01*
X124158630Y-54221130D02*
X123491964Y-55221130D01*
X124539583Y-54840178D02*
X125301488Y-54840178D01*
X125777678Y-55221130D02*
X125777678Y-54221130D01*
X126349107Y-55221130D01*
X126349107Y-54221130D01*
X126968154Y-55221130D02*
X126872916Y-55173511D01*
X126825297Y-55125892D01*
X126777678Y-55030654D01*
X126777678Y-54744940D01*
X126825297Y-54649702D01*
X126872916Y-54602083D01*
X126968154Y-54554464D01*
X127111011Y-54554464D01*
X127206250Y-54602083D01*
X127253869Y-54649702D01*
X127301488Y-54744940D01*
X127301488Y-55030654D01*
X127253869Y-55125892D01*
X127206250Y-55173511D01*
X127111011Y-55221130D01*
X126968154Y-55221130D01*
X128206250Y-55221130D02*
X127730059Y-55221130D01*
X127730059Y-54221130D01*
X128539583Y-54697321D02*
X128872916Y-54697321D01*
X129015773Y-55221130D02*
X128539583Y-55221130D01*
X128539583Y-54221130D01*
X129015773Y-54221130D01*
X129444345Y-55221130D02*
X129444345Y-54221130D01*
X129682440Y-54221130D01*
X129825297Y-54268750D01*
X129920535Y-54363988D01*
X129968154Y-54459226D01*
X130015773Y-54649702D01*
X130015773Y-54792559D01*
X129968154Y-54983035D01*
X129920535Y-55078273D01*
X129825297Y-55173511D01*
X129682440Y-55221130D01*
X129444345Y-55221130D01*
%TD*%
M02*
