M48
; DRILL file {KiCad (5.1.9-0-10_14)} date Monday, April 19, 2021 at 01:18:49 AM
; FORMAT={-:-/ absolute / inch / decimal}
; #@! TF.CreationDate,2021-04-19T01:18:49-05:00
; #@! TF.GenerationSoftware,Kicad,Pcbnew,(5.1.9-0-10_14)
; #@! TF.FileFunction,Plated,1,2,PTH
FMAT,2
INCH
T1C0.0157
T2C0.0236
T3C0.0276
T4C0.0394
T5C0.0409
T6C0.0430
T7C0.0433
T8C0.0579
T9C0.0591
%
G90
G05
T1
X3.6237Y-4.7612
X4.0074Y-3.1999
X4.1037Y-3.2963
X4.1288Y-3.1612
X4.1987Y-3.737
X5.5687Y-2.8912
X6.3187Y-2.7312
X7.0687Y-2.7163
X7.5886Y-2.6714
X7.5888Y-2.6313
X7.6842Y-3.6412
X7.8058Y-4.8783
X7.8187Y-2.7812
X8.5687Y-2.7012
T3
X4.0631Y-2.5625
X4.0631Y-2.7812
X4.2426Y-5.8893
X4.2631Y-2.5625
X4.2631Y-2.7812
X4.5085Y-5.7357
X5.3127Y-2.3152
X5.3127Y-2.6223
X5.3127Y-3.0652
X5.3127Y-3.3723
X5.3127Y-3.8152
X5.3127Y-4.1223
X5.3127Y-4.5652
X5.3127Y-4.8723
X5.6564Y-5.4402
X5.6564Y-5.7473
X6.0625Y-2.2215
X6.0625Y-2.5285
X6.0625Y-2.9715
X6.0625Y-3.2785
X6.0625Y-3.7215
X6.0625Y-4.0285
X6.0625Y-4.4715
X6.0625Y-4.7785
X6.4062Y-5.3465
X6.4062Y-5.6535
X6.8123Y-2.1277
X6.8123Y-2.4348
X6.8123Y-2.8777
X6.8123Y-3.1848
X6.8123Y-3.6277
X6.8123Y-3.9348
X6.8123Y-4.3777
X6.8123Y-4.6848
X7.1562Y-5.3465
X7.1562Y-5.6535
X7.562Y-2.2215
X7.562Y-2.5285
X7.562Y-2.9715
X7.562Y-3.2785
X7.562Y-3.7215
X7.562Y-4.0285
X7.562Y-4.4715
X7.562Y-4.7785
X7.5625Y-5.3465
X7.5625Y-5.6535
X8.3118Y-2.3465
X8.3118Y-2.6535
X8.3118Y-3.0965
X8.3118Y-3.4035
X8.3118Y-3.8465
X8.3118Y-4.1535
X8.3118Y-4.5965
X8.3118Y-4.9035
X9.0303Y-2.3465
X9.0303Y-2.6535
X9.0303Y-3.0965
X9.0303Y-3.4035
X9.0303Y-3.8465
X9.0303Y-4.1535
X9.0303Y-4.5965
X9.0303Y-4.9035
T4
X7.4638Y-5.2204
X7.4638Y-5.7912
X7.5622Y-5.7912
X7.6606Y-5.2204
X7.6606Y-5.7912
T5
X4.0005Y-5.5629
X4.0505Y-5.6496
X4.9188Y-2.6687
X4.9188Y-3.4187
X4.9188Y-4.1688
X4.9188Y-4.9188
X5.0187Y-2.6687
X5.0187Y-3.4187
X5.0187Y-4.1688
X5.0187Y-4.9188
X5.2625Y-5.7938
X5.3625Y-5.7938
X5.6688Y-2.575
X5.6688Y-3.325
X5.6688Y-4.075
X5.6688Y-4.825
X5.7687Y-2.575
X5.7687Y-3.325
X5.7687Y-4.075
X5.7687Y-4.825
X6.0125Y-5.7
X6.1125Y-5.7
X6.4188Y-2.4812
X6.4188Y-3.2312
X6.4188Y-3.9812
X6.4188Y-4.7313
X6.5187Y-2.4812
X6.5187Y-3.2312
X6.5187Y-3.9812
X6.5187Y-4.7313
X6.7625Y-5.7
X6.8625Y-5.7
X7.1688Y-2.575
X7.1688Y-3.325
X7.1688Y-4.075
X7.1688Y-4.825
X7.2687Y-2.575
X7.2687Y-3.325
X7.2687Y-4.075
X7.2687Y-4.825
X7.9188Y-2.7
X7.9188Y-3.45
X7.9188Y-4.2
X7.9188Y-4.95
X8.0187Y-2.7
X8.0187Y-3.45
X8.0187Y-4.2
X8.0187Y-4.95
X8.6687Y-2.7
X8.6687Y-3.45
X8.6687Y-4.2
X8.6687Y-4.95
X8.7687Y-2.7
X8.7687Y-3.45
X8.7687Y-4.2
X8.7687Y-4.95
T6
X3.8562Y-2.2625
X3.8562Y-2.3625
X3.8562Y-2.4625
X3.8562Y-2.5625
X3.8562Y-2.6625
X3.8562Y-2.7625
X3.8562Y-2.8625
X3.8562Y-2.9625
X3.8562Y-3.0625
X3.8562Y-3.1625
X3.8562Y-3.2625
X3.8653Y-3.3625
X3.9562Y-3.3625
X4.0562Y-3.3625
X4.1562Y-3.3625
X4.2562Y-3.3625
X4.3563Y-3.3625
X4.4562Y-2.2625
X4.4562Y-2.3625
X4.4562Y-2.4625
X4.4562Y-2.5625
X4.4562Y-2.6625
X4.4562Y-2.7625
X4.4562Y-2.8625
X4.4562Y-2.9625
X4.4562Y-3.0625
X4.4562Y-3.1625
X4.4562Y-3.2625
X4.4562Y-3.3625
T7
X4.0287Y-3.5312
X4.0287Y-3.7084
X4.2847Y-3.5312
X4.2847Y-3.7084
T8
X4.2104Y-5.3263
X4.2859Y-5.3423
X4.4014Y-5.5029
X4.422Y-5.4929
X4.8187Y-2.3687
X4.8187Y-3.1187
X4.8187Y-3.8687
X4.8187Y-4.6187
X4.8703Y-2.3113
X4.8703Y-3.0613
X4.8703Y-3.8113
X4.8703Y-4.5613
X5.0672Y-2.2916
X5.0672Y-3.0416
X5.0672Y-3.7916
X5.0672Y-4.5416
X5.0687Y-2.2687
X5.0687Y-3.0187
X5.0687Y-3.7687
X5.0687Y-4.5187
X5.1625Y-5.4937
X5.2141Y-5.4363
X5.4109Y-5.4166
X5.4125Y-5.3937
X5.5687Y-2.275
X5.5687Y-3.025
X5.5687Y-3.775
X5.5687Y-4.525
X5.6203Y-2.2175
X5.6203Y-2.9675
X5.6203Y-3.7175
X5.6203Y-4.4675
X5.8172Y-2.1978
X5.8172Y-2.9478
X5.8172Y-3.6978
X5.8172Y-4.4478
X5.8187Y-2.175
X5.8187Y-2.925
X5.8187Y-3.675
X5.8187Y-4.425
X5.9125Y-5.4
X5.9641Y-5.3425
X6.1609Y-5.3228
X6.1625Y-5.3
X6.3187Y-2.1812
X6.3187Y-2.9312
X6.3187Y-3.6812
X6.3187Y-4.4312
X6.3703Y-2.1238
X6.3703Y-2.8738
X6.3703Y-3.6238
X6.3703Y-4.3738
X6.5672Y-2.1041
X6.5672Y-2.8541
X6.5672Y-3.6041
X6.5672Y-4.3541
X6.5687Y-2.0812
X6.5687Y-2.8312
X6.5687Y-3.5812
X6.5687Y-4.3312
X6.6625Y-5.4
X6.7141Y-5.3425
X6.9109Y-5.3228
X6.9125Y-5.3
X7.0687Y-2.275
X7.0687Y-3.025
X7.0687Y-3.775
X7.0687Y-4.525
X7.1203Y-2.2175
X7.1203Y-2.9675
X7.1203Y-3.7175
X7.1203Y-4.4675
X7.3172Y-2.1978
X7.3172Y-2.9478
X7.3172Y-3.6978
X7.3172Y-4.4478
X7.3187Y-2.175
X7.3187Y-2.925
X7.3187Y-3.675
X7.3187Y-4.425
X7.8187Y-2.4
X7.8187Y-3.15
X7.8187Y-3.9
X7.8187Y-4.65
X7.8703Y-2.3425
X7.8703Y-3.0925
X7.8703Y-3.8425
X7.8703Y-4.5925
X8.0672Y-2.3228
X8.0672Y-3.0728
X8.0672Y-3.8228
X8.0672Y-4.5728
X8.0687Y-2.3
X8.0687Y-3.05
X8.0687Y-3.8
X8.0687Y-4.55
X8.5687Y-2.4
X8.5687Y-3.15
X8.5687Y-3.9
X8.5687Y-4.65
X8.6203Y-2.3425
X8.6203Y-3.0925
X8.6203Y-3.8425
X8.6203Y-4.5925
X8.8172Y-2.3228
X8.8172Y-3.0728
X8.8172Y-3.8228
X8.8172Y-4.5728
X8.8187Y-2.3
X8.8187Y-3.05
X8.8187Y-3.8
X8.8187Y-4.55
T2
G00X3.325Y-4.6524
M15
G01X3.3369Y-4.6728
M16
G05
G00X3.3841Y-4.7546
M15
G01X3.3959Y-4.7751
M16
G05
G00X3.4628Y-4.891
M15
G01X3.4747Y-4.9115
M16
G05
G00X3.5126Y-4.5441
M15
G01X3.5244Y-4.5645
M16
G05
G00X3.6458Y-4.8536
M15
G01X3.6576Y-4.874
M16
G05
T9
G00X7.3417Y-5.5216
M15
G01X7.3417Y-5.4704
M16
G05
G00X7.7826Y-5.5216
M15
G01X7.7826Y-5.4704
M16
G05
T0
M30
