%TF.GenerationSoftware,KiCad,Pcbnew,(5.1.9-0-10_14)*%
%TF.CreationDate,2021-04-25T18:40:37-05:00*%
%TF.ProjectId,wren-plain,7772656e-2d70-46c6-9169-6e2e6b696361,rev?*%
%TF.SameCoordinates,Original*%
%TF.FileFunction,Soldermask,Top*%
%TF.FilePolarity,Negative*%
%FSLAX46Y46*%
G04 Gerber Fmt 4.6, Leading zero omitted, Abs format (unit mm)*
G04 Created by KiCad (PCBNEW (5.1.9-0-10_14)) date 2021-04-25 18:40:37*
%MOMM*%
%LPD*%
G01*
G04 APERTURE LIST*
%ADD10C,1.701800*%
%ADD11C,2.286000*%
%ADD12C,3.987800*%
%ADD13C,3.048000*%
%ADD14C,1.752600*%
%ADD15R,1.752600X1.752600*%
%ADD16C,1.600000*%
%ADD17R,1.600000X1.600000*%
%ADD18C,5.500000*%
%ADD19O,1.400000X1.400000*%
%ADD20C,1.400000*%
%ADD21C,0.100000*%
%ADD22C,2.000000*%
%ADD23R,2.000000X3.200000*%
%ADD24R,2.000000X2.000000*%
%ADD25C,1.200000*%
G04 APERTURE END LIST*
D10*
%TO.C,MX6*%
X120332500Y-36512500D03*
X130492500Y-36512500D03*
D11*
X121602500Y-33972500D03*
D12*
X125412500Y-36512500D03*
D11*
X127952500Y-31432500D03*
X122872500Y-31432500D03*
X129222500Y-33972500D03*
%TD*%
D10*
%TO.C,MX36*%
X120332500Y-93662500D03*
X130492500Y-93662500D03*
D11*
X121602500Y-91122500D03*
D12*
X125412500Y-93662500D03*
D11*
X127952500Y-88582500D03*
X122872500Y-88582500D03*
X129222500Y-91122500D03*
%TD*%
D13*
%TO.C,REF\u002A\u002A*%
X251483187Y-102946548D03*
X239583187Y-123557952D03*
D12*
X238284960Y-95326548D03*
X226384960Y-115937952D03*
%TD*%
D10*
%TO.C,MX41*%
X236944000Y-114159159D03*
X242024000Y-105360341D03*
D11*
X235379295Y-111789307D03*
D12*
X239484000Y-109759750D03*
D11*
X236354591Y-105020045D03*
X233814591Y-109419455D03*
X239189295Y-105190193D03*
%TD*%
D10*
%TO.C,MX15*%
X139382500Y-55562500D03*
X149542500Y-55562500D03*
D11*
X140652500Y-53022500D03*
D12*
X144462500Y-55562500D03*
D11*
X147002500Y-50482500D03*
X141922500Y-50482500D03*
X148272500Y-53022500D03*
%TD*%
D10*
%TO.C,MX44*%
X168745000Y-109251750D03*
X178905000Y-109251750D03*
D11*
X170015000Y-106711750D03*
D12*
X173825000Y-109251750D03*
D11*
X176365000Y-104171750D03*
X171285000Y-104171750D03*
X177635000Y-106711750D03*
%TD*%
D10*
%TO.C,MX43*%
X187795000Y-109251750D03*
X197955000Y-109251750D03*
D11*
X189065000Y-106711750D03*
D12*
X192875000Y-109251750D03*
D11*
X195415000Y-104171750D03*
X190335000Y-104171750D03*
X196685000Y-106711750D03*
%TD*%
D10*
%TO.C,MX42*%
X206845000Y-111918750D03*
X217005000Y-111918750D03*
D11*
X208115000Y-109378750D03*
D12*
X211925000Y-111918750D03*
D11*
X214465000Y-106838750D03*
X209385000Y-106838750D03*
X215735000Y-109378750D03*
%TD*%
D10*
%TO.C,MX35*%
X139382500Y-93662500D03*
X149542500Y-93662500D03*
D11*
X140652500Y-91122500D03*
D12*
X144462500Y-93662500D03*
D11*
X147002500Y-88582500D03*
X141922500Y-88582500D03*
X148272500Y-91122500D03*
%TD*%
D10*
%TO.C,MX34*%
X158432500Y-87312500D03*
X168592500Y-87312500D03*
D11*
X159702500Y-84772500D03*
D12*
X163512500Y-87312500D03*
D11*
X166052500Y-82232500D03*
X160972500Y-82232500D03*
X167322500Y-84772500D03*
%TD*%
D10*
%TO.C,MX33*%
X177482500Y-84931250D03*
X187642500Y-84931250D03*
D11*
X178752500Y-82391250D03*
D12*
X182562500Y-84931250D03*
D11*
X185102500Y-79851250D03*
X180022500Y-79851250D03*
X186372500Y-82391250D03*
%TD*%
D10*
%TO.C,MX32*%
X196532500Y-87312500D03*
X206692500Y-87312500D03*
D11*
X197802500Y-84772500D03*
D12*
X201612500Y-87312500D03*
D11*
X204152500Y-82232500D03*
X199072500Y-82232500D03*
X205422500Y-84772500D03*
%TD*%
D10*
%TO.C,MX31*%
X215582500Y-89693750D03*
X225742500Y-89693750D03*
D11*
X216852500Y-87153750D03*
D12*
X220662500Y-89693750D03*
D11*
X223202500Y-84613750D03*
X218122500Y-84613750D03*
X224472500Y-87153750D03*
%TD*%
D10*
%TO.C,MX26*%
X120332500Y-74612500D03*
X130492500Y-74612500D03*
D11*
X121602500Y-72072500D03*
D12*
X125412500Y-74612500D03*
D11*
X127952500Y-69532500D03*
X122872500Y-69532500D03*
X129222500Y-72072500D03*
%TD*%
D10*
%TO.C,MX25*%
X139382500Y-74612500D03*
X149542500Y-74612500D03*
D11*
X140652500Y-72072500D03*
D12*
X144462500Y-74612500D03*
D11*
X147002500Y-69532500D03*
X141922500Y-69532500D03*
X148272500Y-72072500D03*
%TD*%
D10*
%TO.C,MX24*%
X158432500Y-68262500D03*
X168592500Y-68262500D03*
D11*
X159702500Y-65722500D03*
D12*
X163512500Y-68262500D03*
D11*
X166052500Y-63182500D03*
X160972500Y-63182500D03*
X167322500Y-65722500D03*
%TD*%
D10*
%TO.C,MX23*%
X177482500Y-65881250D03*
X187642500Y-65881250D03*
D11*
X178752500Y-63341250D03*
D12*
X182562500Y-65881250D03*
D11*
X185102500Y-60801250D03*
X180022500Y-60801250D03*
X186372500Y-63341250D03*
%TD*%
D10*
%TO.C,MX22*%
X196532500Y-68262500D03*
X206692500Y-68262500D03*
D11*
X197802500Y-65722500D03*
D12*
X201612500Y-68262500D03*
D11*
X204152500Y-63182500D03*
X199072500Y-63182500D03*
X205422500Y-65722500D03*
%TD*%
D10*
%TO.C,MX21*%
X215582500Y-70643750D03*
X225742500Y-70643750D03*
D11*
X216852500Y-68103750D03*
D12*
X220662500Y-70643750D03*
D11*
X223202500Y-65563750D03*
X218122500Y-65563750D03*
X224472500Y-68103750D03*
%TD*%
D10*
%TO.C,MX16*%
X120332500Y-55562500D03*
X130492500Y-55562500D03*
D11*
X121602500Y-53022500D03*
D12*
X125412500Y-55562500D03*
D11*
X127952500Y-50482500D03*
X122872500Y-50482500D03*
X129222500Y-53022500D03*
%TD*%
D10*
%TO.C,MX14*%
X158432500Y-49212500D03*
X168592500Y-49212500D03*
D11*
X159702500Y-46672500D03*
D12*
X163512500Y-49212500D03*
D11*
X166052500Y-44132500D03*
X160972500Y-44132500D03*
X167322500Y-46672500D03*
%TD*%
D10*
%TO.C,MX13*%
X177482500Y-46831250D03*
X187642500Y-46831250D03*
D11*
X178752500Y-44291250D03*
D12*
X182562500Y-46831250D03*
D11*
X185102500Y-41751250D03*
X180022500Y-41751250D03*
X186372500Y-44291250D03*
%TD*%
D10*
%TO.C,MX12*%
X196532500Y-49212500D03*
X206692500Y-49212500D03*
D11*
X197802500Y-46672500D03*
D12*
X201612500Y-49212500D03*
D11*
X204152500Y-44132500D03*
X199072500Y-44132500D03*
X205422500Y-46672500D03*
%TD*%
D10*
%TO.C,MX11*%
X215582500Y-51593750D03*
X225742500Y-51593750D03*
D11*
X216852500Y-49053750D03*
D12*
X220662500Y-51593750D03*
D11*
X223202500Y-46513750D03*
X218122500Y-46513750D03*
X224472500Y-49053750D03*
%TD*%
D10*
%TO.C,MX5*%
X139382500Y-36512500D03*
X149542500Y-36512500D03*
D11*
X140652500Y-33972500D03*
D12*
X144462500Y-36512500D03*
D11*
X147002500Y-31432500D03*
X141922500Y-31432500D03*
X148272500Y-33972500D03*
%TD*%
D10*
%TO.C,MX4*%
X158432500Y-30162500D03*
X168592500Y-30162500D03*
D11*
X159702500Y-27622500D03*
D12*
X163512500Y-30162500D03*
D11*
X166052500Y-25082500D03*
X160972500Y-25082500D03*
X167322500Y-27622500D03*
%TD*%
D10*
%TO.C,MX3*%
X177482500Y-27781250D03*
X187642500Y-27781250D03*
D11*
X178752500Y-25241250D03*
D12*
X182562500Y-27781250D03*
D11*
X185102500Y-22701250D03*
X180022500Y-22701250D03*
X186372500Y-25241250D03*
%TD*%
D10*
%TO.C,MX2*%
X196532500Y-30162500D03*
X206692500Y-30162500D03*
D11*
X197802500Y-27622500D03*
D12*
X201612500Y-30162500D03*
D11*
X204152500Y-25082500D03*
X199072500Y-25082500D03*
X205422500Y-27622500D03*
%TD*%
D10*
%TO.C,MX1*%
X215582500Y-32543750D03*
X225742500Y-32543750D03*
D11*
X216852500Y-30003750D03*
D12*
X220662500Y-32543750D03*
D11*
X223202500Y-27463750D03*
X218122500Y-27463750D03*
X224472500Y-30003750D03*
%TD*%
D14*
%TO.C,U1*%
X246380000Y-58420000D03*
X243840000Y-58420000D03*
X241300000Y-58420000D03*
X238760000Y-58420000D03*
X236220000Y-58420000D03*
X233680000Y-30480000D03*
X248691400Y-58420000D03*
X233680000Y-33020000D03*
X233680000Y-35560000D03*
X233680000Y-38100000D03*
X233680000Y-40640000D03*
X233680000Y-43180000D03*
X233680000Y-45720000D03*
X233680000Y-48260000D03*
X233680000Y-50800000D03*
X233680000Y-53340000D03*
X233680000Y-55880000D03*
X233680000Y-58420000D03*
X248920000Y-55880000D03*
X248920000Y-53340000D03*
X248920000Y-50800000D03*
X248920000Y-48260000D03*
X248920000Y-45720000D03*
X248920000Y-43180000D03*
X248920000Y-40640000D03*
X248920000Y-38100000D03*
X248920000Y-35560000D03*
X248920000Y-33020000D03*
D15*
X248920000Y-30480000D03*
%TD*%
D16*
%TO.C,D43*%
X201609500Y-105637500D03*
D17*
X201609500Y-113437500D03*
%TD*%
D18*
%TO.C,H5*%
X134937500Y-84137500D03*
%TD*%
%TO.C,H4*%
X226212500Y-106362500D03*
%TD*%
%TO.C,H3*%
X211137500Y-42068750D03*
%TD*%
%TO.C,H2*%
X134937500Y-46037500D03*
%TD*%
%TO.C,H1*%
X211131250Y-80168750D03*
%TD*%
D19*
%TO.C,R2*%
X238585000Y-43656250D03*
D20*
X243665000Y-43656250D03*
%TD*%
D19*
%TO.C,R1*%
X238585000Y-38100000D03*
D20*
X243665000Y-38100000D03*
%TD*%
D16*
%TO.C,D45*%
X161342000Y-105822750D03*
D17*
X153542000Y-105822750D03*
%TD*%
D16*
%TO.C,D44*%
X182562500Y-105637500D03*
D17*
X182562500Y-113437500D03*
%TD*%
D16*
%TO.C,D42*%
X220653500Y-108018750D03*
D17*
X220653500Y-115818750D03*
%TD*%
D16*
%TO.C,D41*%
X240290501Y-100443750D03*
D21*
G36*
X248138319Y-104050930D02*
G01*
X247338319Y-105436570D01*
X245952679Y-104636570D01*
X246752679Y-103250930D01*
X248138319Y-104050930D01*
G37*
%TD*%
D16*
%TO.C,D36*%
X134162000Y-89762500D03*
D17*
X134162000Y-97562500D03*
%TD*%
D16*
%TO.C,D35*%
X153206000Y-89762500D03*
D17*
X153206000Y-97562500D03*
%TD*%
D16*
%TO.C,D34*%
X172250000Y-83412500D03*
D17*
X172250000Y-91212500D03*
%TD*%
D16*
%TO.C,D33*%
X191294000Y-81031250D03*
D17*
X191294000Y-88831250D03*
%TD*%
D16*
%TO.C,D32*%
X210338000Y-84206250D03*
D17*
X210338000Y-92006250D03*
%TD*%
D16*
%TO.C,D31*%
X229382000Y-85793750D03*
D17*
X229382000Y-93593750D03*
%TD*%
D16*
%TO.C,D26*%
X134162000Y-70712500D03*
D17*
X134162000Y-78512500D03*
%TD*%
D16*
%TO.C,D25*%
X153206000Y-70712500D03*
D17*
X153206000Y-78512500D03*
%TD*%
D16*
%TO.C,D24*%
X172250000Y-64362500D03*
D17*
X172250000Y-72162500D03*
%TD*%
D16*
%TO.C,D23*%
X191294000Y-61981250D03*
D17*
X191294000Y-69781250D03*
%TD*%
D16*
%TO.C,D22*%
X210338000Y-64362500D03*
D17*
X210338000Y-72162500D03*
%TD*%
D16*
%TO.C,D21*%
X229382000Y-66743750D03*
D17*
X229382000Y-74543750D03*
%TD*%
D16*
%TO.C,D16*%
X134162000Y-51662500D03*
D17*
X134162000Y-59462500D03*
%TD*%
D16*
%TO.C,D15*%
X153206000Y-51662500D03*
D17*
X153206000Y-59462500D03*
%TD*%
D16*
%TO.C,D14*%
X172250000Y-45312500D03*
D17*
X172250000Y-53112500D03*
%TD*%
D16*
%TO.C,D13*%
X191294000Y-42931250D03*
D17*
X191294000Y-50731250D03*
%TD*%
D16*
%TO.C,D12*%
X210338000Y-46106250D03*
D17*
X210338000Y-53906250D03*
%TD*%
D16*
%TO.C,D11*%
X229382000Y-47693750D03*
D17*
X229382000Y-55493750D03*
%TD*%
D16*
%TO.C,D6*%
X134162000Y-32612500D03*
D17*
X134162000Y-40412500D03*
%TD*%
D16*
%TO.C,D5*%
X153206000Y-32612500D03*
D17*
X153206000Y-40412500D03*
%TD*%
D16*
%TO.C,D4*%
X172250000Y-26262500D03*
D17*
X172250000Y-34062500D03*
%TD*%
D16*
%TO.C,D3*%
X191294000Y-23881250D03*
D17*
X191294000Y-31681250D03*
%TD*%
D16*
%TO.C,D2*%
X210338000Y-26262500D03*
D17*
X210338000Y-34062500D03*
%TD*%
D16*
%TO.C,D1*%
X229382000Y-28581250D03*
D17*
X229382000Y-36381250D03*
%TD*%
D22*
%TO.C,ENC1*%
X159902000Y-102266750D03*
X154902000Y-102266750D03*
D23*
X163002000Y-109266750D03*
X151802000Y-109266750D03*
D22*
X159902000Y-116766750D03*
X157402000Y-116766750D03*
D24*
X154902000Y-116766750D03*
%TD*%
D22*
%TO.C,SW0*%
X244561500Y-62706250D03*
X244561500Y-67206250D03*
X238061500Y-62706250D03*
X238061500Y-67206250D03*
%TD*%
D25*
%TO.C,J1*%
X254287858Y-94128583D03*
X257787858Y-88066405D03*
G36*
G01*
X256946000Y-84924546D02*
X256946000Y-84924546D01*
G75*
G02*
X257202218Y-85880764I-350000J-606218D01*
G01*
X256902218Y-86400380D01*
G75*
G02*
X255946000Y-86656598I-606218J350000D01*
G01*
X255946000Y-86656598D01*
G75*
G02*
X255689782Y-85700380I350000J606218D01*
G01*
X255989782Y-85180764D01*
G75*
G02*
X256946000Y-84924546I606218J-350000D01*
G01*
G37*
G36*
G01*
X255446000Y-87522622D02*
X255446000Y-87522622D01*
G75*
G02*
X255702218Y-88478840I-350000J-606218D01*
G01*
X255402218Y-88998456D01*
G75*
G02*
X254446000Y-89254674I-606218J350000D01*
G01*
X254446000Y-89254674D01*
G75*
G02*
X254189782Y-88298456I350000J606218D01*
G01*
X254489782Y-87778840D01*
G75*
G02*
X255446000Y-87522622I606218J-350000D01*
G01*
G37*
D21*
G36*
X252839782Y-90636725D02*
G01*
X254052218Y-91336725D01*
X253052218Y-93068775D01*
X251839782Y-92368775D01*
X252839782Y-90636725D01*
G37*
G36*
G01*
X256593114Y-94535762D02*
X256593114Y-94535762D01*
G75*
G02*
X256849332Y-95491980I-350000J-606218D01*
G01*
X256549332Y-96011596D01*
G75*
G02*
X255593114Y-96267814I-606218J350000D01*
G01*
X255593114Y-96267814D01*
G75*
G02*
X255336896Y-95311596I350000J606218D01*
G01*
X255636896Y-94791980D01*
G75*
G02*
X256593114Y-94535762I606218J-350000D01*
G01*
G37*
G36*
G01*
X261709140Y-87674546D02*
X261709140Y-87674546D01*
G75*
G02*
X261965358Y-88630764I-350000J-606218D01*
G01*
X261665358Y-89150380D01*
G75*
G02*
X260709140Y-89406598I-606218J350000D01*
G01*
X260709140Y-89406598D01*
G75*
G02*
X260452922Y-88450380I350000J606218D01*
G01*
X260752922Y-87930764D01*
G75*
G02*
X261709140Y-87674546I606218J-350000D01*
G01*
G37*
%TD*%
M02*
