%TF.GenerationSoftware,KiCad,Pcbnew,(5.1.9-0-10_14)*%
%TF.CreationDate,2021-04-25T18:40:37-05:00*%
%TF.ProjectId,wren-plain,7772656e-2d70-46c6-9169-6e2e6b696361,rev?*%
%TF.SameCoordinates,Original*%
%TF.FileFunction,Copper,L1,Top*%
%TF.FilePolarity,Positive*%
%FSLAX46Y46*%
G04 Gerber Fmt 4.6, Leading zero omitted, Abs format (unit mm)*
G04 Created by KiCad (PCBNEW (5.1.9-0-10_14)) date 2021-04-25 18:40:37*
%MOMM*%
%LPD*%
G01*
G04 APERTURE LIST*
%TA.AperFunction,ComponentPad*%
%ADD10C,2.286000*%
%TD*%
%TA.AperFunction,ComponentPad*%
%ADD11C,1.752600*%
%TD*%
%TA.AperFunction,ComponentPad*%
%ADD12R,1.752600X1.752600*%
%TD*%
%TA.AperFunction,ComponentPad*%
%ADD13C,1.600000*%
%TD*%
%TA.AperFunction,ComponentPad*%
%ADD14R,1.600000X1.600000*%
%TD*%
%TA.AperFunction,ComponentPad*%
%ADD15O,1.400000X1.400000*%
%TD*%
%TA.AperFunction,ComponentPad*%
%ADD16C,1.400000*%
%TD*%
%TA.AperFunction,ComponentPad*%
%ADD17C,0.100000*%
%TD*%
%TA.AperFunction,ComponentPad*%
%ADD18C,2.000000*%
%TD*%
%TA.AperFunction,ComponentPad*%
%ADD19R,2.000000X3.200000*%
%TD*%
%TA.AperFunction,ComponentPad*%
%ADD20R,2.000000X2.000000*%
%TD*%
%TA.AperFunction,ViaPad*%
%ADD21C,0.800000*%
%TD*%
%TA.AperFunction,Conductor*%
%ADD22C,0.250000*%
%TD*%
G04 APERTURE END LIST*
D10*
%TO.P,MX6,1*%
%TO.N,COL5*%
X121602500Y-33972500D03*
%TO.P,MX6,2*%
%TO.N,Net-(D6-Pad2)*%
X127952500Y-31432500D03*
%TO.P,MX6,1*%
%TO.N,COL5*%
X122872500Y-31432500D03*
%TO.P,MX6,2*%
%TO.N,Net-(D6-Pad2)*%
X129222500Y-33972500D03*
%TD*%
%TO.P,MX36,1*%
%TO.N,COL5*%
X121602500Y-91122500D03*
%TO.P,MX36,2*%
%TO.N,Net-(D36-Pad2)*%
X127952500Y-88582500D03*
%TO.P,MX36,1*%
%TO.N,COL5*%
X122872500Y-88582500D03*
%TO.P,MX36,2*%
%TO.N,Net-(D36-Pad2)*%
X129222500Y-91122500D03*
%TD*%
%TO.P,MX41,1*%
%TO.N,COL0*%
X235379295Y-111789307D03*
%TO.P,MX41,2*%
%TO.N,Net-(D41-Pad2)*%
X236354591Y-105020045D03*
%TO.P,MX41,1*%
%TO.N,COL0*%
X233814591Y-109419455D03*
%TO.P,MX41,2*%
%TO.N,Net-(D41-Pad2)*%
X239189295Y-105190193D03*
%TD*%
%TO.P,MX15,1*%
%TO.N,COL4*%
X140652500Y-53022500D03*
%TO.P,MX15,2*%
%TO.N,Net-(D15-Pad2)*%
X147002500Y-50482500D03*
%TO.P,MX15,1*%
%TO.N,COL4*%
X141922500Y-50482500D03*
%TO.P,MX15,2*%
%TO.N,Net-(D15-Pad2)*%
X148272500Y-53022500D03*
%TD*%
%TO.P,MX44,1*%
%TO.N,COL3*%
X170015000Y-106711750D03*
%TO.P,MX44,2*%
%TO.N,Net-(D44-Pad2)*%
X176365000Y-104171750D03*
%TO.P,MX44,1*%
%TO.N,COL3*%
X171285000Y-104171750D03*
%TO.P,MX44,2*%
%TO.N,Net-(D44-Pad2)*%
X177635000Y-106711750D03*
%TD*%
%TO.P,MX43,1*%
%TO.N,COL2*%
X189065000Y-106711750D03*
%TO.P,MX43,2*%
%TO.N,Net-(D43-Pad2)*%
X195415000Y-104171750D03*
%TO.P,MX43,1*%
%TO.N,COL2*%
X190335000Y-104171750D03*
%TO.P,MX43,2*%
%TO.N,Net-(D43-Pad2)*%
X196685000Y-106711750D03*
%TD*%
%TO.P,MX42,1*%
%TO.N,COL1*%
X208115000Y-109378750D03*
%TO.P,MX42,2*%
%TO.N,Net-(D42-Pad2)*%
X214465000Y-106838750D03*
%TO.P,MX42,1*%
%TO.N,COL1*%
X209385000Y-106838750D03*
%TO.P,MX42,2*%
%TO.N,Net-(D42-Pad2)*%
X215735000Y-109378750D03*
%TD*%
%TO.P,MX35,1*%
%TO.N,COL4*%
X140652500Y-91122500D03*
%TO.P,MX35,2*%
%TO.N,Net-(D35-Pad2)*%
X147002500Y-88582500D03*
%TO.P,MX35,1*%
%TO.N,COL4*%
X141922500Y-88582500D03*
%TO.P,MX35,2*%
%TO.N,Net-(D35-Pad2)*%
X148272500Y-91122500D03*
%TD*%
%TO.P,MX34,1*%
%TO.N,COL3*%
X159702500Y-84772500D03*
%TO.P,MX34,2*%
%TO.N,Net-(D34-Pad2)*%
X166052500Y-82232500D03*
%TO.P,MX34,1*%
%TO.N,COL3*%
X160972500Y-82232500D03*
%TO.P,MX34,2*%
%TO.N,Net-(D34-Pad2)*%
X167322500Y-84772500D03*
%TD*%
%TO.P,MX33,1*%
%TO.N,COL2*%
X178752500Y-82391250D03*
%TO.P,MX33,2*%
%TO.N,Net-(D33-Pad2)*%
X185102500Y-79851250D03*
%TO.P,MX33,1*%
%TO.N,COL2*%
X180022500Y-79851250D03*
%TO.P,MX33,2*%
%TO.N,Net-(D33-Pad2)*%
X186372500Y-82391250D03*
%TD*%
%TO.P,MX32,1*%
%TO.N,COL1*%
X197802500Y-84772500D03*
%TO.P,MX32,2*%
%TO.N,Net-(D32-Pad2)*%
X204152500Y-82232500D03*
%TO.P,MX32,1*%
%TO.N,COL1*%
X199072500Y-82232500D03*
%TO.P,MX32,2*%
%TO.N,Net-(D32-Pad2)*%
X205422500Y-84772500D03*
%TD*%
%TO.P,MX31,1*%
%TO.N,COL0*%
X216852500Y-87153750D03*
%TO.P,MX31,2*%
%TO.N,Net-(D31-Pad2)*%
X223202500Y-84613750D03*
%TO.P,MX31,1*%
%TO.N,COL0*%
X218122500Y-84613750D03*
%TO.P,MX31,2*%
%TO.N,Net-(D31-Pad2)*%
X224472500Y-87153750D03*
%TD*%
%TO.P,MX26,1*%
%TO.N,COL5*%
X121602500Y-72072500D03*
%TO.P,MX26,2*%
%TO.N,Net-(D26-Pad2)*%
X127952500Y-69532500D03*
%TO.P,MX26,1*%
%TO.N,COL5*%
X122872500Y-69532500D03*
%TO.P,MX26,2*%
%TO.N,Net-(D26-Pad2)*%
X129222500Y-72072500D03*
%TD*%
%TO.P,MX25,1*%
%TO.N,COL4*%
X140652500Y-72072500D03*
%TO.P,MX25,2*%
%TO.N,Net-(D25-Pad2)*%
X147002500Y-69532500D03*
%TO.P,MX25,1*%
%TO.N,COL4*%
X141922500Y-69532500D03*
%TO.P,MX25,2*%
%TO.N,Net-(D25-Pad2)*%
X148272500Y-72072500D03*
%TD*%
%TO.P,MX24,1*%
%TO.N,COL3*%
X159702500Y-65722500D03*
%TO.P,MX24,2*%
%TO.N,Net-(D24-Pad2)*%
X166052500Y-63182500D03*
%TO.P,MX24,1*%
%TO.N,COL3*%
X160972500Y-63182500D03*
%TO.P,MX24,2*%
%TO.N,Net-(D24-Pad2)*%
X167322500Y-65722500D03*
%TD*%
%TO.P,MX23,1*%
%TO.N,COL2*%
X178752500Y-63341250D03*
%TO.P,MX23,2*%
%TO.N,Net-(D23-Pad2)*%
X185102500Y-60801250D03*
%TO.P,MX23,1*%
%TO.N,COL2*%
X180022500Y-60801250D03*
%TO.P,MX23,2*%
%TO.N,Net-(D23-Pad2)*%
X186372500Y-63341250D03*
%TD*%
%TO.P,MX22,1*%
%TO.N,COL1*%
X197802500Y-65722500D03*
%TO.P,MX22,2*%
%TO.N,Net-(D22-Pad2)*%
X204152500Y-63182500D03*
%TO.P,MX22,1*%
%TO.N,COL1*%
X199072500Y-63182500D03*
%TO.P,MX22,2*%
%TO.N,Net-(D22-Pad2)*%
X205422500Y-65722500D03*
%TD*%
%TO.P,MX21,1*%
%TO.N,COL0*%
X216852500Y-68103750D03*
%TO.P,MX21,2*%
%TO.N,Net-(D21-Pad2)*%
X223202500Y-65563750D03*
%TO.P,MX21,1*%
%TO.N,COL0*%
X218122500Y-65563750D03*
%TO.P,MX21,2*%
%TO.N,Net-(D21-Pad2)*%
X224472500Y-68103750D03*
%TD*%
%TO.P,MX16,1*%
%TO.N,COL5*%
X121602500Y-53022500D03*
%TO.P,MX16,2*%
%TO.N,Net-(D16-Pad2)*%
X127952500Y-50482500D03*
%TO.P,MX16,1*%
%TO.N,COL5*%
X122872500Y-50482500D03*
%TO.P,MX16,2*%
%TO.N,Net-(D16-Pad2)*%
X129222500Y-53022500D03*
%TD*%
%TO.P,MX14,1*%
%TO.N,COL3*%
X159702500Y-46672500D03*
%TO.P,MX14,2*%
%TO.N,Net-(D14-Pad2)*%
X166052500Y-44132500D03*
%TO.P,MX14,1*%
%TO.N,COL3*%
X160972500Y-44132500D03*
%TO.P,MX14,2*%
%TO.N,Net-(D14-Pad2)*%
X167322500Y-46672500D03*
%TD*%
%TO.P,MX13,1*%
%TO.N,COL2*%
X178752500Y-44291250D03*
%TO.P,MX13,2*%
%TO.N,Net-(D13-Pad2)*%
X185102500Y-41751250D03*
%TO.P,MX13,1*%
%TO.N,COL2*%
X180022500Y-41751250D03*
%TO.P,MX13,2*%
%TO.N,Net-(D13-Pad2)*%
X186372500Y-44291250D03*
%TD*%
%TO.P,MX12,1*%
%TO.N,COL1*%
X197802500Y-46672500D03*
%TO.P,MX12,2*%
%TO.N,Net-(D12-Pad2)*%
X204152500Y-44132500D03*
%TO.P,MX12,1*%
%TO.N,COL1*%
X199072500Y-44132500D03*
%TO.P,MX12,2*%
%TO.N,Net-(D12-Pad2)*%
X205422500Y-46672500D03*
%TD*%
%TO.P,MX11,1*%
%TO.N,COL0*%
X216852500Y-49053750D03*
%TO.P,MX11,2*%
%TO.N,Net-(D11-Pad2)*%
X223202500Y-46513750D03*
%TO.P,MX11,1*%
%TO.N,COL0*%
X218122500Y-46513750D03*
%TO.P,MX11,2*%
%TO.N,Net-(D11-Pad2)*%
X224472500Y-49053750D03*
%TD*%
%TO.P,MX5,1*%
%TO.N,COL4*%
X140652500Y-33972500D03*
%TO.P,MX5,2*%
%TO.N,Net-(D5-Pad2)*%
X147002500Y-31432500D03*
%TO.P,MX5,1*%
%TO.N,COL4*%
X141922500Y-31432500D03*
%TO.P,MX5,2*%
%TO.N,Net-(D5-Pad2)*%
X148272500Y-33972500D03*
%TD*%
%TO.P,MX4,1*%
%TO.N,COL3*%
X159702500Y-27622500D03*
%TO.P,MX4,2*%
%TO.N,Net-(D4-Pad2)*%
X166052500Y-25082500D03*
%TO.P,MX4,1*%
%TO.N,COL3*%
X160972500Y-25082500D03*
%TO.P,MX4,2*%
%TO.N,Net-(D4-Pad2)*%
X167322500Y-27622500D03*
%TD*%
%TO.P,MX3,1*%
%TO.N,COL2*%
X178752500Y-25241250D03*
%TO.P,MX3,2*%
%TO.N,Net-(D3-Pad2)*%
X185102500Y-22701250D03*
%TO.P,MX3,1*%
%TO.N,COL2*%
X180022500Y-22701250D03*
%TO.P,MX3,2*%
%TO.N,Net-(D3-Pad2)*%
X186372500Y-25241250D03*
%TD*%
%TO.P,MX2,1*%
%TO.N,COL1*%
X197802500Y-27622500D03*
%TO.P,MX2,2*%
%TO.N,Net-(D2-Pad2)*%
X204152500Y-25082500D03*
%TO.P,MX2,1*%
%TO.N,COL1*%
X199072500Y-25082500D03*
%TO.P,MX2,2*%
%TO.N,Net-(D2-Pad2)*%
X205422500Y-27622500D03*
%TD*%
%TO.P,MX1,1*%
%TO.N,COL0*%
X216852500Y-30003750D03*
%TO.P,MX1,2*%
%TO.N,Net-(D1-Pad2)*%
X223202500Y-27463750D03*
%TO.P,MX1,1*%
%TO.N,COL0*%
X218122500Y-27463750D03*
%TO.P,MX1,2*%
%TO.N,Net-(D1-Pad2)*%
X224472500Y-30003750D03*
%TD*%
D11*
%TO.P,U1,25*%
%TO.N,Net-(U1-Pad25)*%
X246380000Y-58420000D03*
%TO.P,U1,26*%
%TO.N,Net-(U1-Pad26)*%
X243840000Y-58420000D03*
%TO.P,U1,27*%
%TO.N,Net-(U1-Pad27)*%
X241300000Y-58420000D03*
%TO.P,U1,28*%
%TO.N,Net-(U1-Pad28)*%
X238760000Y-58420000D03*
%TO.P,U1,29*%
%TO.N,Net-(U1-Pad29)*%
X236220000Y-58420000D03*
%TO.P,U1,24*%
%TO.N,Net-(U1-Pad24)*%
X233680000Y-30480000D03*
%TO.P,U1,12*%
%TO.N,ROW4*%
X248691400Y-58420000D03*
%TO.P,U1,23*%
%TO.N,GND*%
X233680000Y-33020000D03*
%TO.P,U1,22*%
%TO.N,Net-(SW0-Pad1)*%
X233680000Y-35560000D03*
%TO.P,U1,21*%
%TO.N,VCC*%
X233680000Y-38100000D03*
%TO.P,U1,20*%
%TO.N,Net-(U1-Pad20)*%
X233680000Y-40640000D03*
%TO.P,U1,19*%
%TO.N,Net-(U1-Pad19)*%
X233680000Y-43180000D03*
%TO.P,U1,18*%
%TO.N,COL5*%
X233680000Y-45720000D03*
%TO.P,U1,17*%
%TO.N,COL4*%
X233680000Y-48260000D03*
%TO.P,U1,16*%
%TO.N,COL3*%
X233680000Y-50800000D03*
%TO.P,U1,15*%
%TO.N,COL2*%
X233680000Y-53340000D03*
%TO.P,U1,14*%
%TO.N,COL1*%
X233680000Y-55880000D03*
%TO.P,U1,13*%
%TO.N,COL0*%
X233680000Y-58420000D03*
%TO.P,U1,11*%
%TO.N,Net-(U1-Pad11)*%
X248920000Y-55880000D03*
%TO.P,U1,10*%
%TO.N,RIGHT*%
X248920000Y-53340000D03*
%TO.P,U1,9*%
%TO.N,LEFT*%
X248920000Y-50800000D03*
%TO.P,U1,8*%
%TO.N,ROW2*%
X248920000Y-48260000D03*
%TO.P,U1,7*%
%TO.N,ROW3*%
X248920000Y-45720000D03*
%TO.P,U1,6*%
%TO.N,SCL*%
X248920000Y-43180000D03*
%TO.P,U1,5*%
%TO.N,SDA*%
X248920000Y-40640000D03*
%TO.P,U1,4*%
%TO.N,GND*%
X248920000Y-38100000D03*
%TO.P,U1,3*%
X248920000Y-35560000D03*
%TO.P,U1,2*%
%TO.N,ROW1*%
X248920000Y-33020000D03*
D12*
%TO.P,U1,1*%
%TO.N,ROW0*%
X248920000Y-30480000D03*
%TD*%
D13*
%TO.P,D43,2*%
%TO.N,Net-(D43-Pad2)*%
X201609500Y-105637500D03*
D14*
%TO.P,D43,1*%
%TO.N,ROW4*%
X201609500Y-113437500D03*
%TD*%
D15*
%TO.P,R2,2*%
%TO.N,VCC*%
X238585000Y-43656250D03*
D16*
%TO.P,R2,1*%
%TO.N,SCL*%
X243665000Y-43656250D03*
%TD*%
D15*
%TO.P,R1,2*%
%TO.N,VCC*%
X238585000Y-38100000D03*
D16*
%TO.P,R1,1*%
%TO.N,SDA*%
X243665000Y-38100000D03*
%TD*%
D13*
%TO.P,D45,2*%
%TO.N,ENC1-IN*%
X161342000Y-105822750D03*
D14*
%TO.P,D45,1*%
%TO.N,ROW4*%
X153542000Y-105822750D03*
%TD*%
D13*
%TO.P,D44,2*%
%TO.N,Net-(D44-Pad2)*%
X182562500Y-105637500D03*
D14*
%TO.P,D44,1*%
%TO.N,ROW4*%
X182562500Y-113437500D03*
%TD*%
D13*
%TO.P,D42,2*%
%TO.N,Net-(D42-Pad2)*%
X220653500Y-108018750D03*
D14*
%TO.P,D42,1*%
%TO.N,ROW4*%
X220653500Y-115818750D03*
%TD*%
D13*
%TO.P,D41,2*%
%TO.N,Net-(D41-Pad2)*%
X240290501Y-100443750D03*
%TA.AperFunction,ComponentPad*%
D17*
%TO.P,D41,1*%
%TO.N,ROW4*%
G36*
X248138319Y-104050930D02*
G01*
X247338319Y-105436570D01*
X245952679Y-104636570D01*
X246752679Y-103250930D01*
X248138319Y-104050930D01*
G37*
%TD.AperFunction*%
%TD*%
D13*
%TO.P,D36,2*%
%TO.N,Net-(D36-Pad2)*%
X134162000Y-89762500D03*
D14*
%TO.P,D36,1*%
%TO.N,ROW3*%
X134162000Y-97562500D03*
%TD*%
D13*
%TO.P,D35,2*%
%TO.N,Net-(D35-Pad2)*%
X153206000Y-89762500D03*
D14*
%TO.P,D35,1*%
%TO.N,ROW3*%
X153206000Y-97562500D03*
%TD*%
D13*
%TO.P,D34,2*%
%TO.N,Net-(D34-Pad2)*%
X172250000Y-83412500D03*
D14*
%TO.P,D34,1*%
%TO.N,ROW3*%
X172250000Y-91212500D03*
%TD*%
D13*
%TO.P,D33,2*%
%TO.N,Net-(D33-Pad2)*%
X191294000Y-81031250D03*
D14*
%TO.P,D33,1*%
%TO.N,ROW3*%
X191294000Y-88831250D03*
%TD*%
D13*
%TO.P,D32,2*%
%TO.N,Net-(D32-Pad2)*%
X210338000Y-84206250D03*
D14*
%TO.P,D32,1*%
%TO.N,ROW3*%
X210338000Y-92006250D03*
%TD*%
D13*
%TO.P,D31,2*%
%TO.N,Net-(D31-Pad2)*%
X229382000Y-85793750D03*
D14*
%TO.P,D31,1*%
%TO.N,ROW3*%
X229382000Y-93593750D03*
%TD*%
D13*
%TO.P,D26,2*%
%TO.N,Net-(D26-Pad2)*%
X134162000Y-70712500D03*
D14*
%TO.P,D26,1*%
%TO.N,ROW2*%
X134162000Y-78512500D03*
%TD*%
D13*
%TO.P,D25,2*%
%TO.N,Net-(D25-Pad2)*%
X153206000Y-70712500D03*
D14*
%TO.P,D25,1*%
%TO.N,ROW2*%
X153206000Y-78512500D03*
%TD*%
D13*
%TO.P,D24,2*%
%TO.N,Net-(D24-Pad2)*%
X172250000Y-64362500D03*
D14*
%TO.P,D24,1*%
%TO.N,ROW2*%
X172250000Y-72162500D03*
%TD*%
D13*
%TO.P,D23,2*%
%TO.N,Net-(D23-Pad2)*%
X191294000Y-61981250D03*
D14*
%TO.P,D23,1*%
%TO.N,ROW2*%
X191294000Y-69781250D03*
%TD*%
D13*
%TO.P,D22,2*%
%TO.N,Net-(D22-Pad2)*%
X210338000Y-64362500D03*
D14*
%TO.P,D22,1*%
%TO.N,ROW2*%
X210338000Y-72162500D03*
%TD*%
D13*
%TO.P,D21,2*%
%TO.N,Net-(D21-Pad2)*%
X229382000Y-66743750D03*
D14*
%TO.P,D21,1*%
%TO.N,ROW2*%
X229382000Y-74543750D03*
%TD*%
D13*
%TO.P,D16,2*%
%TO.N,Net-(D16-Pad2)*%
X134162000Y-51662500D03*
D14*
%TO.P,D16,1*%
%TO.N,ROW1*%
X134162000Y-59462500D03*
%TD*%
D13*
%TO.P,D15,2*%
%TO.N,Net-(D15-Pad2)*%
X153206000Y-51662500D03*
D14*
%TO.P,D15,1*%
%TO.N,ROW1*%
X153206000Y-59462500D03*
%TD*%
D13*
%TO.P,D14,2*%
%TO.N,Net-(D14-Pad2)*%
X172250000Y-45312500D03*
D14*
%TO.P,D14,1*%
%TO.N,ROW1*%
X172250000Y-53112500D03*
%TD*%
D13*
%TO.P,D13,2*%
%TO.N,Net-(D13-Pad2)*%
X191294000Y-42931250D03*
D14*
%TO.P,D13,1*%
%TO.N,ROW1*%
X191294000Y-50731250D03*
%TD*%
D13*
%TO.P,D12,2*%
%TO.N,Net-(D12-Pad2)*%
X210338000Y-46106250D03*
D14*
%TO.P,D12,1*%
%TO.N,ROW1*%
X210338000Y-53906250D03*
%TD*%
D13*
%TO.P,D11,2*%
%TO.N,Net-(D11-Pad2)*%
X229382000Y-47693750D03*
D14*
%TO.P,D11,1*%
%TO.N,ROW1*%
X229382000Y-55493750D03*
%TD*%
D13*
%TO.P,D6,2*%
%TO.N,Net-(D6-Pad2)*%
X134162000Y-32612500D03*
D14*
%TO.P,D6,1*%
%TO.N,ROW0*%
X134162000Y-40412500D03*
%TD*%
D13*
%TO.P,D5,2*%
%TO.N,Net-(D5-Pad2)*%
X153206000Y-32612500D03*
D14*
%TO.P,D5,1*%
%TO.N,ROW0*%
X153206000Y-40412500D03*
%TD*%
D13*
%TO.P,D4,2*%
%TO.N,Net-(D4-Pad2)*%
X172250000Y-26262500D03*
D14*
%TO.P,D4,1*%
%TO.N,ROW0*%
X172250000Y-34062500D03*
%TD*%
D13*
%TO.P,D3,2*%
%TO.N,Net-(D3-Pad2)*%
X191294000Y-23881250D03*
D14*
%TO.P,D3,1*%
%TO.N,ROW0*%
X191294000Y-31681250D03*
%TD*%
D13*
%TO.P,D2,2*%
%TO.N,Net-(D2-Pad2)*%
X210338000Y-26262500D03*
D14*
%TO.P,D2,1*%
%TO.N,ROW0*%
X210338000Y-34062500D03*
%TD*%
D13*
%TO.P,D1,2*%
%TO.N,Net-(D1-Pad2)*%
X229382000Y-28581250D03*
D14*
%TO.P,D1,1*%
%TO.N,ROW0*%
X229382000Y-36381250D03*
%TD*%
D18*
%TO.P,ENC1,S1*%
%TO.N,ENC1-IN*%
X159902000Y-102266750D03*
%TO.P,ENC1,S2*%
%TO.N,COL4*%
X154902000Y-102266750D03*
D19*
%TO.P,ENC1,MP*%
%TO.N,N/C*%
X163002000Y-109266750D03*
X151802000Y-109266750D03*
D18*
%TO.P,ENC1,B*%
%TO.N,RIGHT*%
X159902000Y-116766750D03*
%TO.P,ENC1,C*%
%TO.N,GND*%
X157402000Y-116766750D03*
D20*
%TO.P,ENC1,A*%
%TO.N,LEFT*%
X154902000Y-116766750D03*
%TD*%
D18*
%TO.P,SW0,1*%
%TO.N,Net-(SW0-Pad1)*%
X244561500Y-62706250D03*
%TO.P,SW0,2*%
%TO.N,GND*%
X244561500Y-67206250D03*
%TO.P,SW0,1*%
%TO.N,Net-(SW0-Pad1)*%
X238061500Y-62706250D03*
%TO.P,SW0,2*%
%TO.N,GND*%
X238061500Y-67206250D03*
%TD*%
%TO.P,J1,R2*%
%TO.N,SCL*%
%TA.AperFunction,ComponentPad*%
G36*
G01*
X256946000Y-84924546D02*
X256946000Y-84924546D01*
G75*
G02*
X257202218Y-85880764I-350000J-606218D01*
G01*
X256902218Y-86400380D01*
G75*
G02*
X255946000Y-86656598I-606218J350000D01*
G01*
X255946000Y-86656598D01*
G75*
G02*
X255689782Y-85700380I350000J606218D01*
G01*
X255989782Y-85180764D01*
G75*
G02*
X256946000Y-84924546I606218J-350000D01*
G01*
G37*
%TD.AperFunction*%
%TO.P,J1,R1*%
%TO.N,VCC*%
%TA.AperFunction,ComponentPad*%
G36*
G01*
X255446000Y-87522622D02*
X255446000Y-87522622D01*
G75*
G02*
X255702218Y-88478840I-350000J-606218D01*
G01*
X255402218Y-88998456D01*
G75*
G02*
X254446000Y-89254674I-606218J350000D01*
G01*
X254446000Y-89254674D01*
G75*
G02*
X254189782Y-88298456I350000J606218D01*
G01*
X254489782Y-87778840D01*
G75*
G02*
X255446000Y-87522622I606218J-350000D01*
G01*
G37*
%TD.AperFunction*%
%TA.AperFunction,ComponentPad*%
D17*
%TO.P,J1,T*%
%TO.N,GND*%
G36*
X252839782Y-90636725D02*
G01*
X254052218Y-91336725D01*
X253052218Y-93068775D01*
X251839782Y-92368775D01*
X252839782Y-90636725D01*
G37*
%TD.AperFunction*%
%TO.P,J1,S*%
%TO.N,SDA*%
%TA.AperFunction,ComponentPad*%
G36*
G01*
X256593114Y-94535762D02*
X256593114Y-94535762D01*
G75*
G02*
X256849332Y-95491980I-350000J-606218D01*
G01*
X256549332Y-96011596D01*
G75*
G02*
X255593114Y-96267814I-606218J350000D01*
G01*
X255593114Y-96267814D01*
G75*
G02*
X255336896Y-95311596I350000J606218D01*
G01*
X255636896Y-94791980D01*
G75*
G02*
X256593114Y-94535762I606218J-350000D01*
G01*
G37*
%TD.AperFunction*%
%TO.P,J1,*%
%TO.N,*%
%TA.AperFunction,ComponentPad*%
G36*
G01*
X261709140Y-87674546D02*
X261709140Y-87674546D01*
G75*
G02*
X261965358Y-88630764I-350000J-606218D01*
G01*
X261665358Y-89150380D01*
G75*
G02*
X260709140Y-89406598I-606218J350000D01*
G01*
X260709140Y-89406598D01*
G75*
G02*
X260452922Y-88450380I350000J606218D01*
G01*
X260752922Y-87930764D01*
G75*
G02*
X261709140Y-87674546I606218J-350000D01*
G01*
G37*
%TD.AperFunction*%
%TD*%
D21*
%TO.N,COL0*%
X216852500Y-60026279D03*
%TO.N,COL1*%
X197802500Y-57283250D03*
%TO.N,COL2*%
X178752500Y-54489250D03*
%TO.N,COL3*%
X159702500Y-56318250D03*
%TO.N,COL4*%
X140652500Y-61144250D03*
%TO.N,COL5*%
X121602500Y-46615250D03*
%TO.N,VCC*%
X242532000Y-56673750D03*
X242532000Y-61880750D03*
%TO.N,SDA*%
X240119000Y-46767750D03*
X240119000Y-49688750D03*
X240627000Y-61880750D03*
%TO.N,GND*%
X238070501Y-60754249D03*
X155119000Y-63476858D03*
%TO.N,LEFT*%
X154902000Y-40925750D03*
%TO.N,RIGHT*%
X157353917Y-39440667D03*
%TD*%
D22*
%TO.N,Net-(D1-Pad2)*%
X228844500Y-28043750D02*
X229382000Y-28581250D01*
X223162500Y-28043750D02*
X228844500Y-28043750D01*
X224472500Y-28733750D02*
X224472500Y-30003750D01*
X223202500Y-27463750D02*
X224472500Y-28733750D01*
%TO.N,Net-(D2-Pad2)*%
X209738000Y-25662500D02*
X210338000Y-26262500D01*
X204112500Y-25662500D02*
X209738000Y-25662500D01*
X205422500Y-26352500D02*
X205422500Y-27622500D01*
X204152500Y-25082500D02*
X205422500Y-26352500D01*
%TO.N,Net-(D3-Pad2)*%
X190694000Y-23281250D02*
X191294000Y-23881250D01*
X185062500Y-23281250D02*
X190694000Y-23281250D01*
X186372500Y-23971250D02*
X186372500Y-25241250D01*
X185102500Y-22701250D02*
X186372500Y-23971250D01*
%TO.N,Net-(D4-Pad2)*%
X171650000Y-25662500D02*
X172250000Y-26262500D01*
X166012500Y-25662500D02*
X171650000Y-25662500D01*
X167322500Y-26352500D02*
X167322500Y-27622500D01*
X166052500Y-25082500D02*
X167322500Y-26352500D01*
%TO.N,Net-(D5-Pad2)*%
X148272500Y-32702500D02*
X148272500Y-33972500D01*
X147002500Y-31432500D02*
X148272500Y-32702500D01*
X152026000Y-31432500D02*
X153206000Y-32612500D01*
X147002500Y-31432500D02*
X152026000Y-31432500D01*
%TO.N,Net-(D6-Pad2)*%
X133562000Y-32012500D02*
X134162000Y-32612500D01*
X127912500Y-32012500D02*
X133562000Y-32012500D01*
X129222500Y-32702500D02*
X129222500Y-33972500D01*
X127952500Y-31432500D02*
X129222500Y-32702500D01*
%TO.N,Net-(D11-Pad2)*%
X228782000Y-47093750D02*
X229382000Y-47693750D01*
X223162500Y-47093750D02*
X228782000Y-47093750D01*
X224472500Y-47783750D02*
X224472500Y-49053750D01*
X223202500Y-46513750D02*
X224472500Y-47783750D01*
%TO.N,ROW1*%
X229382000Y-55493750D02*
X230885000Y-55493750D01*
X230885000Y-55493750D02*
X232478699Y-53900051D01*
X233103375Y-31818699D02*
X247718699Y-31818699D01*
X247718699Y-31818699D02*
X248920000Y-33020000D01*
X232478699Y-32443375D02*
X233103375Y-31818699D01*
X232478699Y-53900051D02*
X232478699Y-32443375D01*
%TO.N,Net-(D12-Pad2)*%
X208944250Y-44712500D02*
X210338000Y-46106250D01*
X204112500Y-44712500D02*
X208944250Y-44712500D01*
X205422500Y-45402500D02*
X205422500Y-46672500D01*
X204152500Y-44132500D02*
X205422500Y-45402500D01*
%TO.N,Net-(D13-Pad2)*%
X190694000Y-42331250D02*
X191294000Y-42931250D01*
X185062500Y-42331250D02*
X190694000Y-42331250D01*
X186372500Y-43021250D02*
X186372500Y-44291250D01*
X185102500Y-41751250D02*
X186372500Y-43021250D01*
%TO.N,Net-(D14-Pad2)*%
X171650000Y-44712500D02*
X172250000Y-45312500D01*
X166012500Y-44712500D02*
X171650000Y-44712500D01*
X167322500Y-45402500D02*
X167322500Y-46672500D01*
X166052500Y-44132500D02*
X167322500Y-45402500D01*
%TO.N,Net-(D15-Pad2)*%
X152606000Y-51062500D02*
X153206000Y-51662500D01*
X146962500Y-51062500D02*
X152606000Y-51062500D01*
X148272500Y-51752500D02*
X148272500Y-53022500D01*
X147002500Y-50482500D02*
X148272500Y-51752500D01*
%TO.N,Net-(D16-Pad2)*%
X133562000Y-51062500D02*
X134162000Y-51662500D01*
X127912500Y-51062500D02*
X133562000Y-51062500D01*
X129222500Y-51752500D02*
X129222500Y-53022500D01*
X127952500Y-50482500D02*
X129222500Y-51752500D01*
%TO.N,Net-(D21-Pad2)*%
X228782000Y-66143750D02*
X229382000Y-66743750D01*
X223162500Y-66143750D02*
X228782000Y-66143750D01*
X224472500Y-66833750D02*
X224472500Y-68103750D01*
X223202500Y-65563750D02*
X224472500Y-66833750D01*
%TO.N,Net-(D22-Pad2)*%
X209738000Y-63762500D02*
X210338000Y-64362500D01*
X204112500Y-63762500D02*
X209738000Y-63762500D01*
X205422500Y-64452500D02*
X205422500Y-65722500D01*
X204152500Y-63182500D02*
X205422500Y-64452500D01*
%TO.N,Net-(D23-Pad2)*%
X190694000Y-61381250D02*
X191294000Y-61981250D01*
X185062500Y-61381250D02*
X190694000Y-61381250D01*
X186372500Y-62071250D02*
X186372500Y-63341250D01*
X185102500Y-60801250D02*
X186372500Y-62071250D01*
%TO.N,Net-(D24-Pad2)*%
X171650000Y-63762500D02*
X172250000Y-64362500D01*
X166012500Y-63762500D02*
X171650000Y-63762500D01*
X167322500Y-64452500D02*
X167322500Y-65722500D01*
X166052500Y-63182500D02*
X167322500Y-64452500D01*
%TO.N,Net-(D25-Pad2)*%
X152606000Y-70112500D02*
X153206000Y-70712500D01*
X146962500Y-70112500D02*
X152606000Y-70112500D01*
X148272500Y-70802500D02*
X148272500Y-72072500D01*
X147002500Y-69532500D02*
X148272500Y-70802500D01*
%TO.N,Net-(D26-Pad2)*%
X133562000Y-70112500D02*
X134162000Y-70712500D01*
X127912500Y-70112500D02*
X133562000Y-70112500D01*
X129222500Y-70802500D02*
X129222500Y-72072500D01*
X127952500Y-69532500D02*
X129222500Y-70802500D01*
%TO.N,Net-(D31-Pad2)*%
X228782000Y-85193750D02*
X229382000Y-85793750D01*
X223162500Y-85193750D02*
X228782000Y-85193750D01*
X224472500Y-85883750D02*
X224472500Y-87153750D01*
X223202500Y-84613750D02*
X224472500Y-85883750D01*
%TO.N,Net-(D32-Pad2)*%
X208944250Y-82812500D02*
X210338000Y-84206250D01*
X204112500Y-82812500D02*
X208944250Y-82812500D01*
X205422500Y-83502500D02*
X205422500Y-84772500D01*
X204152500Y-82232500D02*
X205422500Y-83502500D01*
%TO.N,Net-(D33-Pad2)*%
X190694000Y-80431250D02*
X191294000Y-81031250D01*
X185062500Y-80431250D02*
X190694000Y-80431250D01*
X186372500Y-81121250D02*
X186372500Y-82391250D01*
X185102500Y-79851250D02*
X186372500Y-81121250D01*
%TO.N,Net-(D34-Pad2)*%
X171650000Y-82812500D02*
X172250000Y-83412500D01*
X166012500Y-82812500D02*
X171650000Y-82812500D01*
X167322500Y-83502500D02*
X167322500Y-84772500D01*
X166052500Y-82232500D02*
X167322500Y-83502500D01*
%TO.N,Net-(D35-Pad2)*%
X152606000Y-89162500D02*
X153206000Y-89762500D01*
X146962500Y-89162500D02*
X152606000Y-89162500D01*
X148272500Y-89852500D02*
X148272500Y-91122500D01*
X147002500Y-88582500D02*
X148272500Y-89852500D01*
%TO.N,Net-(D36-Pad2)*%
X133562000Y-89162500D02*
X134162000Y-89762500D01*
X127912500Y-89162500D02*
X133562000Y-89162500D01*
%TO.N,ROW4*%
X239836511Y-60766239D02*
X239836511Y-91951261D01*
X247045499Y-99160249D02*
X247045499Y-104343750D01*
X240881000Y-59721750D02*
X239836511Y-60766239D01*
X248691400Y-58420000D02*
X247389650Y-59721750D01*
X239836511Y-91951261D02*
X247045499Y-99160249D01*
X247389650Y-59721750D02*
X240881000Y-59721750D01*
%TO.N,Net-(D42-Pad2)*%
X220053500Y-107418750D02*
X220653500Y-108018750D01*
X214425000Y-107418750D02*
X220053500Y-107418750D01*
X215735000Y-108108750D02*
X215735000Y-109378750D01*
X214465000Y-106838750D02*
X215735000Y-108108750D01*
%TO.N,Net-(D43-Pad2)*%
X201009500Y-105037500D02*
X201609500Y-105637500D01*
X195381250Y-105037500D02*
X201009500Y-105037500D01*
X196685000Y-105441750D02*
X196685000Y-106711750D01*
X195415000Y-104171750D02*
X196685000Y-105441750D01*
%TO.N,Net-(D44-Pad2)*%
X181962500Y-105037500D02*
X182562500Y-105637500D01*
X176331250Y-105037500D02*
X181962500Y-105037500D01*
X177635000Y-105441750D02*
X177635000Y-106711750D01*
X176365000Y-104171750D02*
X177635000Y-105441750D01*
%TO.N,COL0*%
X216852500Y-46283750D02*
X218162500Y-47593750D01*
X216852500Y-65333750D02*
X218162500Y-66643750D01*
X216852500Y-84383750D02*
X218162500Y-85693750D01*
X216852500Y-68103750D02*
X216852500Y-84383750D01*
X216852500Y-30003750D02*
X216852500Y-46283750D01*
X227783333Y-102938249D02*
X234769898Y-109924814D01*
X225666297Y-102938249D02*
X227783333Y-102938249D01*
X216852500Y-94124452D02*
X225666297Y-102938249D01*
X216852500Y-87153750D02*
X216852500Y-94124452D01*
X216852500Y-49053750D02*
X216852500Y-65333750D01*
X235379295Y-110984159D02*
X235379295Y-111789307D01*
X233814591Y-109419455D02*
X235379295Y-110984159D01*
X216852500Y-85883750D02*
X216852500Y-87153750D01*
X218122500Y-84613750D02*
X216852500Y-85883750D01*
X216852500Y-66833750D02*
X216852500Y-68103750D01*
X218122500Y-65563750D02*
X216852500Y-66833750D01*
X216852500Y-47783750D02*
X216852500Y-49053750D01*
X218122500Y-46513750D02*
X216852500Y-47783750D01*
X216852500Y-28733750D02*
X216852500Y-30003750D01*
X218122500Y-27463750D02*
X216852500Y-28733750D01*
%TO.N,COL1*%
X197802500Y-43902500D02*
X199112500Y-45212500D01*
X197802500Y-62952500D02*
X199112500Y-64262500D01*
X197802500Y-82002500D02*
X199112500Y-83312500D01*
X197802500Y-65722500D02*
X197802500Y-82002500D01*
X197802500Y-27622500D02*
X197802500Y-43902500D01*
X197802500Y-99066250D02*
X208115000Y-109378750D01*
X197802500Y-84772500D02*
X197802500Y-99066250D01*
X197802500Y-57283250D02*
X197802500Y-62952500D01*
X197802500Y-46672500D02*
X197802500Y-57283250D01*
X208115000Y-108108750D02*
X208115000Y-109378750D01*
X209385000Y-106838750D02*
X208115000Y-108108750D01*
X197802500Y-83502500D02*
X197802500Y-84772500D01*
X199072500Y-82232500D02*
X197802500Y-83502500D01*
X197802500Y-45402500D02*
X197802500Y-46672500D01*
X199072500Y-44132500D02*
X197802500Y-45402500D01*
X197802500Y-26352500D02*
X197802500Y-27622500D01*
X199072500Y-25082500D02*
X197802500Y-26352500D01*
X197802500Y-64452500D02*
X197802500Y-65722500D01*
X199072500Y-63182500D02*
X197802500Y-64452500D01*
%TO.N,COL2*%
X178752500Y-41521250D02*
X180062500Y-42831250D01*
X178752500Y-60571250D02*
X180062500Y-61881250D01*
X178752500Y-79621250D02*
X180062500Y-80931250D01*
X178752500Y-63341250D02*
X178752500Y-79621250D01*
X178752500Y-25241250D02*
X178752500Y-41521250D01*
X178752500Y-96678750D02*
X189071250Y-106997500D01*
X178752500Y-82391250D02*
X178752500Y-96678750D01*
X178752500Y-54489250D02*
X178752500Y-60571250D01*
X178752500Y-44291250D02*
X178752500Y-54489250D01*
X189065000Y-105441750D02*
X189065000Y-106711750D01*
X190335000Y-104171750D02*
X189065000Y-105441750D01*
X178752500Y-23971250D02*
X178752500Y-25241250D01*
X180022500Y-22701250D02*
X178752500Y-23971250D01*
X178752500Y-81121250D02*
X178752500Y-82391250D01*
X180022500Y-79851250D02*
X178752500Y-81121250D01*
X178752500Y-43021250D02*
X178752500Y-44291250D01*
X180022500Y-41751250D02*
X178752500Y-43021250D01*
X178752500Y-62071250D02*
X178752500Y-63341250D01*
X180022500Y-60801250D02*
X178752500Y-62071250D01*
%TO.N,COL3*%
X159702500Y-43902500D02*
X161012500Y-45212500D01*
X159702500Y-62952500D02*
X161012500Y-64262500D01*
X159702500Y-82002500D02*
X161012500Y-83312500D01*
X159702500Y-65722500D02*
X159702500Y-82002500D01*
X159702500Y-27622500D02*
X159702500Y-43902500D01*
X159702500Y-84772500D02*
X159702500Y-96984250D01*
X169715750Y-106997500D02*
X170021250Y-106997500D01*
X159702500Y-96984250D02*
X169715750Y-106997500D01*
X159702500Y-56318250D02*
X159702500Y-62952500D01*
X159702500Y-46672500D02*
X159702500Y-56318250D01*
X170015000Y-105441750D02*
X170015000Y-106711750D01*
X171285000Y-104171750D02*
X170015000Y-105441750D01*
X159702500Y-26352500D02*
X159702500Y-27622500D01*
X160972500Y-25082500D02*
X159702500Y-26352500D01*
X159702500Y-45402500D02*
X159702500Y-46672500D01*
X160972500Y-44132500D02*
X159702500Y-45402500D01*
X159702500Y-64452500D02*
X159702500Y-65722500D01*
X160972500Y-63182500D02*
X159702500Y-64452500D01*
X159702500Y-83502500D02*
X159702500Y-84772500D01*
X160972500Y-82232500D02*
X159702500Y-83502500D01*
%TO.N,COL4*%
X140652500Y-50252500D02*
X141962500Y-51562500D01*
X140652500Y-69302500D02*
X141962500Y-70612500D01*
X140652500Y-88352500D02*
X141962500Y-89662500D01*
X140652500Y-72072500D02*
X140652500Y-88352500D01*
X140652500Y-33972500D02*
X140652500Y-50252500D01*
X140652500Y-91122500D02*
X140652500Y-99790250D01*
X140652500Y-99790250D02*
X142684500Y-101822250D01*
X140652500Y-53022500D02*
X140652500Y-61144250D01*
X140652500Y-61144250D02*
X140652500Y-69302500D01*
X154457500Y-101822250D02*
X154902000Y-102266750D01*
X142684500Y-101822250D02*
X154457500Y-101822250D01*
X140652500Y-32702500D02*
X140652500Y-33972500D01*
X141922500Y-31432500D02*
X140652500Y-32702500D01*
X140652500Y-51752500D02*
X140652500Y-53022500D01*
X141922500Y-50482500D02*
X140652500Y-51752500D01*
X140652500Y-70802500D02*
X140652500Y-72072500D01*
X141922500Y-69532500D02*
X140652500Y-70802500D01*
X140652500Y-89852500D02*
X140652500Y-91122500D01*
X141922500Y-88582500D02*
X140652500Y-89852500D01*
%TO.N,COL5*%
X121602500Y-50252500D02*
X122912500Y-51562500D01*
X121602500Y-69302500D02*
X122912500Y-70612500D01*
X121602500Y-53022500D02*
X121602500Y-69302500D01*
X121602500Y-88352500D02*
X122912500Y-89662500D01*
X121602500Y-72072500D02*
X121602500Y-88352500D01*
X121602500Y-46615250D02*
X121602500Y-50252500D01*
X121602500Y-33972500D02*
X121602500Y-46615250D01*
X121602500Y-32702500D02*
X121602500Y-33972500D01*
X122872500Y-31432500D02*
X121602500Y-32702500D01*
X121602500Y-51752500D02*
X121602500Y-53022500D01*
X122872500Y-50482500D02*
X121602500Y-51752500D01*
X121602500Y-70802500D02*
X121602500Y-72072500D01*
X122872500Y-69532500D02*
X121602500Y-70802500D01*
X121602500Y-89852500D02*
X121602500Y-91122500D01*
X122872500Y-88582500D02*
X121602500Y-89852500D01*
%TO.N,VCC*%
X238585000Y-38100000D02*
X238585000Y-43656250D01*
X238585000Y-52726750D02*
X242532000Y-56673750D01*
X238585000Y-43656250D02*
X238585000Y-52726750D01*
X242532000Y-62637752D02*
X245961000Y-66066752D01*
X242532000Y-61880750D02*
X242532000Y-62637752D01*
X245961000Y-66066752D02*
X245961000Y-66071750D01*
X248248551Y-68359301D02*
X248248551Y-81691199D01*
X245961000Y-66071750D02*
X248248551Y-68359301D01*
X248248551Y-81691199D02*
X254946000Y-88388648D01*
%TO.N,SDA*%
X240119000Y-46767750D02*
X240119000Y-49688750D01*
X240627000Y-61880750D02*
X240627000Y-82200750D01*
X253828038Y-95401788D02*
X256093114Y-95401788D01*
X240627000Y-82200750D02*
X253828038Y-95401788D01*
%TO.N,SCL*%
X250533000Y-79877572D02*
X256446000Y-85790572D01*
X250533000Y-58483674D02*
X250533000Y-79877572D01*
X248480773Y-57218699D02*
X249268025Y-57218699D01*
X247718699Y-56456625D02*
X248480773Y-57218699D01*
X247718699Y-44381301D02*
X247718699Y-56456625D01*
X249268025Y-57218699D02*
X250533000Y-58483674D01*
X248920000Y-43180000D02*
X247718699Y-44381301D01*
%TO.N,GND*%
X239386501Y-65881249D02*
X238061500Y-67206250D01*
X239386501Y-62070249D02*
X239386501Y-65881249D01*
X238070501Y-60754249D02*
X239386501Y-62070249D01*
X233680000Y-33257352D02*
X233680000Y-33020000D01*
X237558699Y-37136051D02*
X233680000Y-33257352D01*
X237558699Y-60242447D02*
X237558699Y-37136051D01*
X238070501Y-60754249D02*
X237558699Y-60242447D01*
X244561500Y-83468250D02*
X252946000Y-91852750D01*
X244561500Y-67206250D02*
X244561500Y-83468250D01*
X155119000Y-63476858D02*
X155083892Y-63476858D01*
X154844010Y-63716740D02*
X154844010Y-99286350D01*
X154844010Y-99286350D02*
X157402000Y-101844340D01*
X157402000Y-116331149D02*
X157696824Y-116331153D01*
X155083892Y-63476858D02*
X154844010Y-63716740D01*
X157402000Y-101844340D02*
X157402000Y-116766750D01*
%TO.N,Net-(SW0-Pad1)*%
X234881300Y-59526050D02*
X234881300Y-36761300D01*
X234881300Y-36761300D02*
X233680000Y-35560000D01*
X238061500Y-62706250D02*
X234881300Y-59526050D01*
%TO.N,LEFT*%
X155337631Y-116331118D02*
X155474311Y-116331120D01*
X154394000Y-41433750D02*
X154394001Y-99472751D01*
X154902000Y-40925750D02*
X154394000Y-41433750D01*
X154394001Y-99472751D02*
X156951990Y-102030740D01*
X156951990Y-114716760D02*
X154902000Y-116766750D01*
X156951990Y-102030740D02*
X156951990Y-114716760D01*
%TO.N,RIGHT*%
X157353917Y-39440667D02*
X155844001Y-40950583D01*
X155844001Y-63824859D02*
X155294020Y-64374840D01*
X155844001Y-40950583D02*
X155844001Y-63824859D01*
X155294020Y-64374840D02*
X155294020Y-99099950D01*
X155294020Y-99099950D02*
X157852010Y-101657940D01*
X157852010Y-114716760D02*
X159902000Y-116766750D01*
X157852010Y-101657940D02*
X157852010Y-114716760D01*
%TO.N,Net-(D41-Pad2)*%
X236836886Y-103897365D02*
X240290501Y-100443750D01*
X236836886Y-105344686D02*
X236836886Y-103897365D01*
X239019147Y-105020045D02*
X239189295Y-105190193D01*
X236354591Y-105020045D02*
X239019147Y-105020045D01*
%TD*%
M02*
