M48
; DRILL file {KiCad (5.1.9-0-10_14)} date Sunday, April 25, 2021 at 06:40:33 PM
; FORMAT={-:-/ absolute / inch / decimal}
; #@! TF.CreationDate,2021-04-25T18:40:33-05:00
; #@! TF.GenerationSoftware,Kicad,Pcbnew,(5.1.9-0-10_14)
; #@! TF.FileFunction,NonPlated,1,2,NPTH
FMAT,2
INCH
T1C0.0472
T2C0.0670
T3C0.1200
T4C0.1570
T5C0.2165
%
G90
G05
T1
X10.0113Y-3.7058
X10.1491Y-3.4672
T2
X4.7375Y-1.4375
X4.7375Y-2.1875
X4.7375Y-2.9375
X4.7375Y-3.6875
X5.1375Y-1.4375
X5.1375Y-2.1875
X5.1375Y-2.9375
X5.1375Y-3.6875
X5.4875Y-1.4375
X5.4875Y-2.1875
X5.4875Y-2.9375
X5.4875Y-3.6875
X5.8875Y-1.4375
X5.8875Y-2.1875
X5.8875Y-2.9375
X5.8875Y-3.6875
X6.2375Y-1.1875
X6.2375Y-1.9375
X6.2375Y-2.6875
X6.2375Y-3.4375
X6.6375Y-1.1875
X6.6375Y-1.9375
X6.6375Y-2.6875
X6.6375Y-3.4375
X6.6435Y-4.3012
X6.9875Y-1.0938
X6.9875Y-1.8438
X6.9875Y-2.5938
X6.9875Y-3.3438
X7.0435Y-4.3012
X7.3875Y-1.0938
X7.3875Y-1.8438
X7.3875Y-2.5938
X7.3875Y-3.3438
X7.3935Y-4.3012
X7.7375Y-1.1875
X7.7375Y-1.9375
X7.7375Y-2.6875
X7.7375Y-3.4375
X7.7935Y-4.3012
X8.1375Y-1.1875
X8.1375Y-1.9375
X8.1375Y-2.6875
X8.1375Y-3.4375
X8.1435Y-4.4062
X8.4875Y-1.2812
X8.4875Y-2.0312
X8.4875Y-2.7812
X8.4875Y-3.5312
X8.5435Y-4.4062
X8.8875Y-1.2812
X8.8875Y-2.0312
X8.8875Y-2.7812
X8.8875Y-3.5312
X9.3285Y-4.4945
X9.5285Y-4.148
T3
X9.4324Y-4.8645
X9.9009Y-4.053
T4
X4.9375Y-1.4375
X4.9375Y-2.1875
X4.9375Y-2.9375
X4.9375Y-3.6875
X5.6875Y-1.4375
X5.6875Y-2.1875
X5.6875Y-2.9375
X5.6875Y-3.6875
X6.4375Y-1.1875
X6.4375Y-1.9375
X6.4375Y-2.6875
X6.4375Y-3.4375
X6.8435Y-4.3012
X7.1875Y-1.0938
X7.1875Y-1.8438
X7.1875Y-2.5938
X7.1875Y-3.3438
X7.5935Y-4.3012
X7.9375Y-1.1875
X7.9375Y-1.9375
X7.9375Y-2.6875
X7.9375Y-3.4375
X8.3435Y-4.4062
X8.6875Y-1.2812
X8.6875Y-2.0312
X8.6875Y-2.7812
X8.6875Y-3.5312
X8.9128Y-4.5645
X9.3813Y-3.753
X9.4285Y-4.3213
T5
X5.3125Y-1.8125
X5.3125Y-3.3125
X8.3123Y-3.1562
X8.3125Y-1.6562
X8.906Y-4.1875
T0
M30
