%TF.GenerationSoftware,KiCad,Pcbnew,(5.1.9-0-10_14)*%
%TF.CreationDate,2021-04-26T22:25:58-05:00*%
%TF.ProjectId,wren-universal,7772656e-2d75-46e6-9976-657273616c2e,rev?*%
%TF.SameCoordinates,Original*%
%TF.FileFunction,Soldermask,Bot*%
%TF.FilePolarity,Negative*%
%FSLAX46Y46*%
G04 Gerber Fmt 4.6, Leading zero omitted, Abs format (unit mm)*
G04 Created by KiCad (PCBNEW (5.1.9-0-10_14)) date 2021-04-26 22:25:58*
%MOMM*%
%LPD*%
G01*
G04 APERTURE LIST*
%ADD10C,1.300000*%
%ADD11C,2.100000*%
%ADD12C,1.701800*%
%ADD13C,2.286000*%
%ADD14C,3.987800*%
%ADD15C,3.048000*%
%ADD16C,1.752600*%
%ADD17R,1.752600X1.752600*%
%ADD18C,1.600000*%
%ADD19R,1.600000X1.600000*%
%ADD20R,1.200000X1.200000*%
%ADD21C,5.500000*%
%ADD22O,1.400000X1.400000*%
%ADD23C,1.400000*%
%ADD24C,0.100000*%
%ADD25C,2.000000*%
%ADD26R,2.000000X3.200000*%
%ADD27R,2.000000X2.000000*%
G04 APERTURE END LIST*
%TO.C,J1*%
G36*
G01*
X258652204Y-90899649D02*
X259002204Y-90293431D01*
G75*
G02*
X260641434Y-89854201I1039230J-600000D01*
G01*
X260641434Y-89854201D01*
G75*
G02*
X261080664Y-91493431I-600000J-1039230D01*
G01*
X260730664Y-92099649D01*
G75*
G02*
X259091434Y-92538879I-1039230J600000D01*
G01*
X259091434Y-92538879D01*
G75*
G02*
X258652204Y-90899649I600000J1039230D01*
G01*
G37*
G36*
G01*
X260412011Y-88451573D02*
X260762011Y-87845355D01*
G75*
G02*
X261991434Y-87515932I779423J-450000D01*
G01*
X261991434Y-87515932D01*
G75*
G02*
X262320857Y-88745355I-450000J-779423D01*
G01*
X261970857Y-89351573D01*
G75*
G02*
X260741434Y-89680996I-779423J450000D01*
G01*
X260741434Y-89680996D01*
G75*
G02*
X260412011Y-88451573I450000J779423D01*
G01*
G37*
G36*
G01*
X256912011Y-94513751D02*
X257262011Y-93907533D01*
G75*
G02*
X258491434Y-93578110I779423J-450000D01*
G01*
X258491434Y-93578110D01*
G75*
G02*
X258820857Y-94807533I-450000J-779423D01*
G01*
X258470857Y-95413751D01*
G75*
G02*
X257241434Y-95743174I-779423J450000D01*
G01*
X257241434Y-95743174D01*
G75*
G02*
X256912011Y-94513751I450000J779423D01*
G01*
G37*
G36*
G01*
X252378294Y-93166379D02*
X252728294Y-92560161D01*
G75*
G02*
X253957717Y-92230738I779423J-450000D01*
G01*
X253957717Y-92230738D01*
G75*
G02*
X254287140Y-93460161I-450000J-779423D01*
G01*
X253937140Y-94066379D01*
G75*
G02*
X252707717Y-94395802I-779423J450000D01*
G01*
X252707717Y-94395802D01*
G75*
G02*
X252378294Y-93166379I450000J779423D01*
G01*
G37*
D10*
X256474576Y-92471411D03*
X259974576Y-86409233D03*
X258329127Y-85459233D03*
X254829127Y-91521411D03*
G36*
G01*
X254716563Y-94516379D02*
X255066563Y-93910161D01*
G75*
G02*
X256295986Y-93580738I779423J-450000D01*
G01*
X256295986Y-93580738D01*
G75*
G02*
X256625409Y-94810161I-450000J-779423D01*
G01*
X256275409Y-95416379D01*
G75*
G02*
X255045986Y-95745802I-779423J450000D01*
G01*
X255045986Y-95745802D01*
G75*
G02*
X254716563Y-94516379I450000J779423D01*
G01*
G37*
G36*
G01*
X251282846Y-91263751D02*
X251632846Y-90657533D01*
G75*
G02*
X252862269Y-90328110I779423J-450000D01*
G01*
X252862269Y-90328110D01*
G75*
G02*
X253191692Y-91557533I-450000J-779423D01*
G01*
X252841692Y-92163751D01*
G75*
G02*
X251612269Y-92493174I-779423J450000D01*
G01*
X251612269Y-92493174D01*
G75*
G02*
X251282846Y-91263751I450000J779423D01*
G01*
G37*
G36*
G01*
X254782846Y-85201573D02*
X255132846Y-84595355D01*
G75*
G02*
X256362269Y-84265932I779423J-450000D01*
G01*
X256362269Y-84265932D01*
G75*
G02*
X256691692Y-85495355I-450000J-779423D01*
G01*
X256341692Y-86101573D01*
G75*
G02*
X255112269Y-86430996I-779423J450000D01*
G01*
X255112269Y-86430996D01*
G75*
G02*
X254782846Y-85201573I450000J779423D01*
G01*
G37*
G36*
G01*
X253282846Y-87799649D02*
X253632846Y-87193431D01*
G75*
G02*
X254862269Y-86864008I779423J-450000D01*
G01*
X254862269Y-86864008D01*
G75*
G02*
X255191692Y-88093431I-450000J-779423D01*
G01*
X254841692Y-88699649D01*
G75*
G02*
X253612269Y-89029072I-779423J450000D01*
G01*
X253612269Y-89029072D01*
G75*
G02*
X253282846Y-87799649I450000J779423D01*
G01*
G37*
%TD*%
D11*
%TO.C,FID15*%
X114801750Y-84105750D03*
%TD*%
%TO.C,FID14*%
X55238750Y-42735500D03*
%TD*%
%TO.C,FID13*%
X55238750Y-49212500D03*
%TD*%
%TO.C,FID12*%
X55238750Y-46005750D03*
%TD*%
%TO.C,FID11*%
X55238750Y-80962500D03*
%TD*%
%TO.C,FID10*%
X55238750Y-87312500D03*
%TD*%
%TO.C,FID9*%
X114801750Y-87312500D03*
%TD*%
%TO.C,FID8*%
X55238750Y-84105750D03*
%TD*%
%TO.C,FID7*%
X114801750Y-80962500D03*
%TD*%
%TO.C,FID6*%
X114801750Y-49212500D03*
%TD*%
%TO.C,FID5*%
X114801750Y-46005750D03*
%TD*%
%TO.C,FID4*%
X114801750Y-42862500D03*
%TD*%
D12*
%TO.C,MX39*%
X60801250Y-93662500D03*
X70961250Y-93662500D03*
D13*
X62071250Y-91122500D03*
D14*
X65881250Y-93662500D03*
D13*
X68421250Y-88582500D03*
X63341250Y-88582500D03*
X69691250Y-91122500D03*
%TD*%
D12*
%TO.C,MX36*%
X120332500Y-93662500D03*
X130492500Y-93662500D03*
D13*
X121602500Y-91122500D03*
D14*
X125412500Y-93662500D03*
D13*
X127952500Y-88582500D03*
X122872500Y-88582500D03*
X129222500Y-91122500D03*
%TD*%
D15*
%TO.C,FID1*%
X251483187Y-102946548D03*
X239583187Y-123557952D03*
D14*
X238284960Y-95326548D03*
X226384960Y-115937952D03*
%TD*%
D12*
%TO.C,MX21*%
X215582500Y-70643750D03*
X225742500Y-70643750D03*
D13*
X216852500Y-68103750D03*
D14*
X220662500Y-70643750D03*
D13*
X223202500Y-65563750D03*
X218122500Y-65563750D03*
X224472500Y-68103750D03*
%TD*%
D12*
%TO.C,MX41*%
X236944000Y-114159159D03*
X242024000Y-105360341D03*
D13*
X235379295Y-111789307D03*
D14*
X239484000Y-109759750D03*
D13*
X236354591Y-105020045D03*
X233814591Y-109419455D03*
X239189295Y-105190193D03*
%TD*%
D12*
%TO.C,MX10*%
X41751250Y-36512500D03*
X51911250Y-36512500D03*
D13*
X43021250Y-33972500D03*
D14*
X46831250Y-36512500D03*
D13*
X49371250Y-31432500D03*
X44291250Y-31432500D03*
X50641250Y-33972500D03*
%TD*%
D12*
%TO.C,MX15*%
X139382500Y-55562500D03*
X149542500Y-55562500D03*
D13*
X140652500Y-53022500D03*
D14*
X144462500Y-55562500D03*
D13*
X147002500Y-50482500D03*
X141922500Y-50482500D03*
X148272500Y-53022500D03*
%TD*%
D12*
%TO.C,MX44*%
X168745000Y-109251750D03*
X178905000Y-109251750D03*
D13*
X170015000Y-106711750D03*
D14*
X173825000Y-109251750D03*
D13*
X176365000Y-104171750D03*
X171285000Y-104171750D03*
X177635000Y-106711750D03*
%TD*%
D12*
%TO.C,MX43*%
X187795000Y-109251750D03*
X197955000Y-109251750D03*
D13*
X189065000Y-106711750D03*
D14*
X192875000Y-109251750D03*
D13*
X195415000Y-104171750D03*
X190335000Y-104171750D03*
X196685000Y-106711750D03*
%TD*%
D12*
%TO.C,MX42*%
X206845000Y-111918750D03*
X217005000Y-111918750D03*
D13*
X208115000Y-109378750D03*
D14*
X211925000Y-111918750D03*
D13*
X214465000Y-106838750D03*
X209385000Y-106838750D03*
X215735000Y-109378750D03*
%TD*%
D12*
%TO.C,MX40*%
X41751250Y-93662500D03*
X51911250Y-93662500D03*
D13*
X43021250Y-91122500D03*
D14*
X46831250Y-93662500D03*
D13*
X49371250Y-88582500D03*
X44291250Y-88582500D03*
X50641250Y-91122500D03*
%TD*%
D12*
%TO.C,MX38*%
X79851250Y-93662500D03*
X90011250Y-93662500D03*
D13*
X81121250Y-91122500D03*
D14*
X84931250Y-93662500D03*
D13*
X87471250Y-88582500D03*
X82391250Y-88582500D03*
X88741250Y-91122500D03*
%TD*%
D12*
%TO.C,MX37*%
X98901250Y-93662500D03*
X109061250Y-93662500D03*
D13*
X100171250Y-91122500D03*
D14*
X103981250Y-93662500D03*
D13*
X106521250Y-88582500D03*
X101441250Y-88582500D03*
X107791250Y-91122500D03*
%TD*%
D12*
%TO.C,MX35*%
X139382500Y-93662500D03*
X149542500Y-93662500D03*
D13*
X140652500Y-91122500D03*
D14*
X144462500Y-93662500D03*
D13*
X147002500Y-88582500D03*
X141922500Y-88582500D03*
X148272500Y-91122500D03*
%TD*%
D12*
%TO.C,MX34*%
X158432500Y-87312500D03*
X168592500Y-87312500D03*
D13*
X159702500Y-84772500D03*
D14*
X163512500Y-87312500D03*
D13*
X166052500Y-82232500D03*
X160972500Y-82232500D03*
X167322500Y-84772500D03*
%TD*%
D12*
%TO.C,MX33*%
X177482500Y-84931250D03*
X187642500Y-84931250D03*
D13*
X178752500Y-82391250D03*
D14*
X182562500Y-84931250D03*
D13*
X185102500Y-79851250D03*
X180022500Y-79851250D03*
X186372500Y-82391250D03*
%TD*%
D12*
%TO.C,MX32*%
X196532500Y-87312500D03*
X206692500Y-87312500D03*
D13*
X197802500Y-84772500D03*
D14*
X201612500Y-87312500D03*
D13*
X204152500Y-82232500D03*
X199072500Y-82232500D03*
X205422500Y-84772500D03*
%TD*%
D12*
%TO.C,MX31*%
X215582500Y-89693750D03*
X225742500Y-89693750D03*
D13*
X216852500Y-87153750D03*
D14*
X220662500Y-89693750D03*
D13*
X223202500Y-84613750D03*
X218122500Y-84613750D03*
X224472500Y-87153750D03*
%TD*%
D12*
%TO.C,MX30*%
X41751250Y-74612500D03*
X51911250Y-74612500D03*
D13*
X43021250Y-72072500D03*
D14*
X46831250Y-74612500D03*
D13*
X49371250Y-69532500D03*
X44291250Y-69532500D03*
X50641250Y-72072500D03*
%TD*%
D12*
%TO.C,MX29*%
X60801250Y-74612500D03*
X70961250Y-74612500D03*
D13*
X62071250Y-72072500D03*
D14*
X65881250Y-74612500D03*
D13*
X68421250Y-69532500D03*
X63341250Y-69532500D03*
X69691250Y-72072500D03*
%TD*%
D12*
%TO.C,MX28*%
X79851250Y-74612500D03*
X90011250Y-74612500D03*
D13*
X81121250Y-72072500D03*
D14*
X84931250Y-74612500D03*
D13*
X87471250Y-69532500D03*
X82391250Y-69532500D03*
X88741250Y-72072500D03*
%TD*%
D12*
%TO.C,MX27*%
X98901250Y-74612500D03*
X109061250Y-74612500D03*
D13*
X100171250Y-72072500D03*
D14*
X103981250Y-74612500D03*
D13*
X106521250Y-69532500D03*
X101441250Y-69532500D03*
X107791250Y-72072500D03*
%TD*%
D12*
%TO.C,MX26*%
X120332500Y-74612500D03*
X130492500Y-74612500D03*
D13*
X121602500Y-72072500D03*
D14*
X125412500Y-74612500D03*
D13*
X127952500Y-69532500D03*
X122872500Y-69532500D03*
X129222500Y-72072500D03*
%TD*%
D12*
%TO.C,MX25*%
X139382500Y-74612500D03*
X149542500Y-74612500D03*
D13*
X140652500Y-72072500D03*
D14*
X144462500Y-74612500D03*
D13*
X147002500Y-69532500D03*
X141922500Y-69532500D03*
X148272500Y-72072500D03*
%TD*%
D12*
%TO.C,MX24*%
X158432500Y-68262500D03*
X168592500Y-68262500D03*
D13*
X159702500Y-65722500D03*
D14*
X163512500Y-68262500D03*
D13*
X166052500Y-63182500D03*
X160972500Y-63182500D03*
X167322500Y-65722500D03*
%TD*%
D12*
%TO.C,MX23*%
X177482500Y-65881250D03*
X187642500Y-65881250D03*
D13*
X178752500Y-63341250D03*
D14*
X182562500Y-65881250D03*
D13*
X185102500Y-60801250D03*
X180022500Y-60801250D03*
X186372500Y-63341250D03*
%TD*%
D12*
%TO.C,MX22*%
X196532500Y-68262500D03*
X206692500Y-68262500D03*
D13*
X197802500Y-65722500D03*
D14*
X201612500Y-68262500D03*
D13*
X204152500Y-63182500D03*
X199072500Y-63182500D03*
X205422500Y-65722500D03*
%TD*%
D12*
%TO.C,MX20*%
X41751250Y-55562500D03*
X51911250Y-55562500D03*
D13*
X43021250Y-53022500D03*
D14*
X46831250Y-55562500D03*
D13*
X49371250Y-50482500D03*
X44291250Y-50482500D03*
X50641250Y-53022500D03*
%TD*%
D12*
%TO.C,MX19*%
X60801250Y-55562500D03*
X70961250Y-55562500D03*
D13*
X62071250Y-53022500D03*
D14*
X65881250Y-55562500D03*
D13*
X68421250Y-50482500D03*
X63341250Y-50482500D03*
X69691250Y-53022500D03*
%TD*%
D12*
%TO.C,MX18*%
X79851250Y-55562500D03*
X90011250Y-55562500D03*
D13*
X81121250Y-53022500D03*
D14*
X84931250Y-55562500D03*
D13*
X87471250Y-50482500D03*
X82391250Y-50482500D03*
X88741250Y-53022500D03*
%TD*%
D12*
%TO.C,MX17*%
X98901250Y-55562500D03*
X109061250Y-55562500D03*
D13*
X100171250Y-53022500D03*
D14*
X103981250Y-55562500D03*
D13*
X106521250Y-50482500D03*
X101441250Y-50482500D03*
X107791250Y-53022500D03*
%TD*%
D12*
%TO.C,MX16*%
X120332500Y-55562500D03*
X130492500Y-55562500D03*
D13*
X121602500Y-53022500D03*
D14*
X125412500Y-55562500D03*
D13*
X127952500Y-50482500D03*
X122872500Y-50482500D03*
X129222500Y-53022500D03*
%TD*%
D12*
%TO.C,MX14*%
X158432500Y-49212500D03*
X168592500Y-49212500D03*
D13*
X159702500Y-46672500D03*
D14*
X163512500Y-49212500D03*
D13*
X166052500Y-44132500D03*
X160972500Y-44132500D03*
X167322500Y-46672500D03*
%TD*%
D12*
%TO.C,MX13*%
X177482500Y-46831250D03*
X187642500Y-46831250D03*
D13*
X178752500Y-44291250D03*
D14*
X182562500Y-46831250D03*
D13*
X185102500Y-41751250D03*
X180022500Y-41751250D03*
X186372500Y-44291250D03*
%TD*%
D12*
%TO.C,MX12*%
X196532500Y-49212500D03*
X206692500Y-49212500D03*
D13*
X197802500Y-46672500D03*
D14*
X201612500Y-49212500D03*
D13*
X204152500Y-44132500D03*
X199072500Y-44132500D03*
X205422500Y-46672500D03*
%TD*%
D12*
%TO.C,MX11*%
X215582500Y-51593750D03*
X225742500Y-51593750D03*
D13*
X216852500Y-49053750D03*
D14*
X220662500Y-51593750D03*
D13*
X223202500Y-46513750D03*
X218122500Y-46513750D03*
X224472500Y-49053750D03*
%TD*%
D12*
%TO.C,MX9*%
X60801250Y-36512500D03*
X70961250Y-36512500D03*
D13*
X62071250Y-33972500D03*
D14*
X65881250Y-36512500D03*
D13*
X68421250Y-31432500D03*
X63341250Y-31432500D03*
X69691250Y-33972500D03*
%TD*%
D12*
%TO.C,MX8*%
X79851250Y-36512500D03*
X90011250Y-36512500D03*
D13*
X81121250Y-33972500D03*
D14*
X84931250Y-36512500D03*
D13*
X87471250Y-31432500D03*
X82391250Y-31432500D03*
X88741250Y-33972500D03*
%TD*%
D12*
%TO.C,MX7*%
X98901250Y-36512500D03*
X109061250Y-36512500D03*
D13*
X100171250Y-33972500D03*
D14*
X103981250Y-36512500D03*
D13*
X106521250Y-31432500D03*
X101441250Y-31432500D03*
X107791250Y-33972500D03*
%TD*%
D12*
%TO.C,MX6*%
X120332500Y-36512500D03*
X130492500Y-36512500D03*
D13*
X121602500Y-33972500D03*
D14*
X125412500Y-36512500D03*
D13*
X127952500Y-31432500D03*
X122872500Y-31432500D03*
X129222500Y-33972500D03*
%TD*%
D12*
%TO.C,MX5*%
X139382500Y-36512500D03*
X149542500Y-36512500D03*
D13*
X140652500Y-33972500D03*
D14*
X144462500Y-36512500D03*
D13*
X147002500Y-31432500D03*
X141922500Y-31432500D03*
X148272500Y-33972500D03*
%TD*%
D12*
%TO.C,MX4*%
X158432500Y-30162500D03*
X168592500Y-30162500D03*
D13*
X159702500Y-27622500D03*
D14*
X163512500Y-30162500D03*
D13*
X166052500Y-25082500D03*
X160972500Y-25082500D03*
X167322500Y-27622500D03*
%TD*%
D12*
%TO.C,MX3*%
X177482500Y-27781250D03*
X187642500Y-27781250D03*
D13*
X178752500Y-25241250D03*
D14*
X182562500Y-27781250D03*
D13*
X185102500Y-22701250D03*
X180022500Y-22701250D03*
X186372500Y-25241250D03*
%TD*%
D12*
%TO.C,MX2*%
X196532500Y-30162500D03*
X206692500Y-30162500D03*
D13*
X197802500Y-27622500D03*
D14*
X201612500Y-30162500D03*
D13*
X204152500Y-25082500D03*
X199072500Y-25082500D03*
X205422500Y-27622500D03*
%TD*%
D12*
%TO.C,MX1*%
X215582500Y-32543750D03*
X225742500Y-32543750D03*
D13*
X216852500Y-30003750D03*
D14*
X220662500Y-32543750D03*
D13*
X223202500Y-27463750D03*
X218122500Y-27463750D03*
X224472500Y-30003750D03*
%TD*%
D16*
%TO.C,U1*%
X246380000Y-58420000D03*
X243840000Y-58420000D03*
X241300000Y-58420000D03*
X238760000Y-58420000D03*
X236220000Y-58420000D03*
X233680000Y-30480000D03*
X248691400Y-58420000D03*
X233680000Y-33020000D03*
X233680000Y-35560000D03*
X233680000Y-38100000D03*
X233680000Y-40640000D03*
X233680000Y-43180000D03*
X233680000Y-45720000D03*
X233680000Y-48260000D03*
X233680000Y-50800000D03*
X233680000Y-53340000D03*
X233680000Y-55880000D03*
X233680000Y-58420000D03*
X248920000Y-55880000D03*
X248920000Y-53340000D03*
X248920000Y-50800000D03*
X248920000Y-48260000D03*
X248920000Y-45720000D03*
X248920000Y-43180000D03*
X248920000Y-40640000D03*
X248920000Y-38100000D03*
X248920000Y-35560000D03*
X248920000Y-33020000D03*
D17*
X248920000Y-30480000D03*
%TD*%
D18*
%TO.C,D43*%
X196775000Y-114300000D03*
D19*
X188975000Y-114300000D03*
D20*
X191300000Y-114300000D03*
X194450000Y-114300000D03*
%TD*%
D21*
%TO.C,H7*%
X226250500Y-106013250D03*
%TD*%
%TO.C,H6*%
X211137500Y-80168750D03*
%TD*%
%TO.C,H5*%
X134937500Y-84137500D03*
%TD*%
%TO.C,H4*%
X75400000Y-84137500D03*
%TD*%
%TO.C,H3*%
X211137500Y-42068750D03*
%TD*%
%TO.C,H2*%
X134937500Y-46037500D03*
%TD*%
%TO.C,H1*%
X75400000Y-46037500D03*
%TD*%
D22*
%TO.C,R2*%
X238585000Y-43656250D03*
D23*
X243665000Y-43656250D03*
%TD*%
D22*
%TO.C,R1*%
X238585000Y-38100000D03*
D23*
X243665000Y-38100000D03*
%TD*%
D18*
%TO.C,D45*%
X161342000Y-105822750D03*
D19*
X153542000Y-105822750D03*
D20*
X155867000Y-105822750D03*
X159017000Y-105822750D03*
%TD*%
D18*
%TO.C,D44*%
X177725000Y-114300000D03*
D19*
X169925000Y-114300000D03*
D20*
X172250000Y-114300000D03*
X175400000Y-114300000D03*
%TD*%
D18*
%TO.C,D42*%
X215825000Y-116681250D03*
D19*
X208025000Y-116681250D03*
D20*
X210350000Y-116681250D03*
X213500000Y-116681250D03*
%TD*%
D18*
%TO.C,D41*%
X245618000Y-108541251D03*
D24*
G36*
X242010820Y-116389069D02*
G01*
X240625180Y-115589069D01*
X241425180Y-114203429D01*
X242810820Y-115003429D01*
X242010820Y-116389069D01*
G37*
G36*
X243100115Y-114102355D02*
G01*
X242060885Y-113502355D01*
X242660885Y-112463125D01*
X243700115Y-113063125D01*
X243100115Y-114102355D01*
G37*
G36*
X244675115Y-111374375D02*
G01*
X243635885Y-110774375D01*
X244235885Y-109735145D01*
X245275115Y-110335145D01*
X244675115Y-111374375D01*
G37*
%TD*%
D18*
%TO.C,D40*%
X50725000Y-98425000D03*
D19*
X42925000Y-98425000D03*
D20*
X45250000Y-98425000D03*
X48400000Y-98425000D03*
%TD*%
D18*
%TO.C,D39*%
X69775000Y-98425000D03*
D19*
X61975000Y-98425000D03*
D20*
X64300000Y-98425000D03*
X67450000Y-98425000D03*
%TD*%
D18*
%TO.C,D38*%
X88825000Y-98425000D03*
D19*
X81025000Y-98425000D03*
D20*
X83350000Y-98425000D03*
X86500000Y-98425000D03*
%TD*%
D18*
%TO.C,D37*%
X107875000Y-98425000D03*
D19*
X100075000Y-98425000D03*
D20*
X102400000Y-98425000D03*
X105550000Y-98425000D03*
%TD*%
D18*
%TO.C,D36*%
X129306250Y-98425000D03*
D19*
X121506250Y-98425000D03*
D20*
X123831250Y-98425000D03*
X126981250Y-98425000D03*
%TD*%
D18*
%TO.C,D35*%
X148356250Y-98425000D03*
D19*
X140556250Y-98425000D03*
D20*
X142881250Y-98425000D03*
X146031250Y-98425000D03*
%TD*%
D18*
%TO.C,D34*%
X167406250Y-92075000D03*
D19*
X159606250Y-92075000D03*
D20*
X161931250Y-92075000D03*
X165081250Y-92075000D03*
%TD*%
D18*
%TO.C,D33*%
X186456250Y-89693750D03*
D19*
X178656250Y-89693750D03*
D20*
X180981250Y-89693750D03*
X184131250Y-89693750D03*
%TD*%
D18*
%TO.C,D32*%
X205506250Y-92075000D03*
D19*
X197706250Y-92075000D03*
D20*
X200031250Y-92075000D03*
X203181250Y-92075000D03*
%TD*%
D18*
%TO.C,D31*%
X224556250Y-94456250D03*
D19*
X216756250Y-94456250D03*
D20*
X219081250Y-94456250D03*
X222231250Y-94456250D03*
%TD*%
D18*
%TO.C,D30*%
X50725000Y-79375000D03*
D19*
X42925000Y-79375000D03*
D20*
X45250000Y-79375000D03*
X48400000Y-79375000D03*
%TD*%
D18*
%TO.C,D29*%
X69775000Y-79375000D03*
D19*
X61975000Y-79375000D03*
D20*
X64300000Y-79375000D03*
X67450000Y-79375000D03*
%TD*%
D18*
%TO.C,D28*%
X88825000Y-79375000D03*
D19*
X81025000Y-79375000D03*
D20*
X83350000Y-79375000D03*
X86500000Y-79375000D03*
%TD*%
D18*
%TO.C,D27*%
X107875000Y-79375000D03*
D19*
X100075000Y-79375000D03*
D20*
X102400000Y-79375000D03*
X105550000Y-79375000D03*
%TD*%
D18*
%TO.C,D26*%
X129306250Y-79375000D03*
D19*
X121506250Y-79375000D03*
D20*
X123831250Y-79375000D03*
X126981250Y-79375000D03*
%TD*%
D18*
%TO.C,D25*%
X148356250Y-79375000D03*
D19*
X140556250Y-79375000D03*
D20*
X142881250Y-79375000D03*
X146031250Y-79375000D03*
%TD*%
D18*
%TO.C,D24*%
X167406250Y-73025000D03*
D19*
X159606250Y-73025000D03*
D20*
X161931250Y-73025000D03*
X165081250Y-73025000D03*
%TD*%
D18*
%TO.C,D23*%
X186456250Y-70643750D03*
D19*
X178656250Y-70643750D03*
D20*
X180981250Y-70643750D03*
X184131250Y-70643750D03*
%TD*%
D18*
%TO.C,D22*%
X205506250Y-73025000D03*
D19*
X197706250Y-73025000D03*
D20*
X200031250Y-73025000D03*
X203181250Y-73025000D03*
%TD*%
D18*
%TO.C,D21*%
X224556250Y-75406250D03*
D19*
X216756250Y-75406250D03*
D20*
X219081250Y-75406250D03*
X222231250Y-75406250D03*
%TD*%
D18*
%TO.C,D20*%
X50725000Y-60325000D03*
D19*
X42925000Y-60325000D03*
D20*
X45250000Y-60325000D03*
X48400000Y-60325000D03*
%TD*%
D18*
%TO.C,D19*%
X69775000Y-60325000D03*
D19*
X61975000Y-60325000D03*
D20*
X64300000Y-60325000D03*
X67450000Y-60325000D03*
%TD*%
D18*
%TO.C,D18*%
X88825000Y-60325000D03*
D19*
X81025000Y-60325000D03*
D20*
X83350000Y-60325000D03*
X86500000Y-60325000D03*
%TD*%
D18*
%TO.C,D17*%
X107748000Y-60325000D03*
D19*
X99948000Y-60325000D03*
D20*
X102273000Y-60325000D03*
X105423000Y-60325000D03*
%TD*%
D18*
%TO.C,D16*%
X129306250Y-60325000D03*
D19*
X121506250Y-60325000D03*
D20*
X123831250Y-60325000D03*
X126981250Y-60325000D03*
%TD*%
D18*
%TO.C,D15*%
X148356250Y-60325000D03*
D19*
X140556250Y-60325000D03*
D20*
X142881250Y-60325000D03*
X146031250Y-60325000D03*
%TD*%
D18*
%TO.C,D14*%
X167406250Y-53975000D03*
D19*
X159606250Y-53975000D03*
D20*
X161931250Y-53975000D03*
X165081250Y-53975000D03*
%TD*%
D18*
%TO.C,D13*%
X186456250Y-51593750D03*
D19*
X178656250Y-51593750D03*
D20*
X180981250Y-51593750D03*
X184131250Y-51593750D03*
%TD*%
D18*
%TO.C,D12*%
X205506250Y-53975000D03*
D19*
X197706250Y-53975000D03*
D20*
X200031250Y-53975000D03*
X203181250Y-53975000D03*
%TD*%
D18*
%TO.C,D11*%
X224556250Y-56356250D03*
D19*
X216756250Y-56356250D03*
D20*
X219081250Y-56356250D03*
X222231250Y-56356250D03*
%TD*%
D18*
%TO.C,D10*%
X50725000Y-41275000D03*
D19*
X42925000Y-41275000D03*
D20*
X45250000Y-41275000D03*
X48400000Y-41275000D03*
%TD*%
D18*
%TO.C,D9*%
X69775000Y-41275000D03*
D19*
X61975000Y-41275000D03*
D20*
X64300000Y-41275000D03*
X67450000Y-41275000D03*
%TD*%
D18*
%TO.C,D8*%
X88825000Y-41275000D03*
D19*
X81025000Y-41275000D03*
D20*
X83350000Y-41275000D03*
X86500000Y-41275000D03*
%TD*%
D18*
%TO.C,D7*%
X107875000Y-41275000D03*
D19*
X100075000Y-41275000D03*
D20*
X102400000Y-41275000D03*
X105550000Y-41275000D03*
%TD*%
D18*
%TO.C,D6*%
X129306250Y-41275000D03*
D19*
X121506250Y-41275000D03*
D20*
X123831250Y-41275000D03*
X126981250Y-41275000D03*
%TD*%
D18*
%TO.C,D5*%
X148356250Y-41275000D03*
D19*
X140556250Y-41275000D03*
D20*
X142881250Y-41275000D03*
X146031250Y-41275000D03*
%TD*%
D18*
%TO.C,D4*%
X167406250Y-34925000D03*
D19*
X159606250Y-34925000D03*
D20*
X161931250Y-34925000D03*
X165081250Y-34925000D03*
%TD*%
D18*
%TO.C,D3*%
X186456250Y-32543750D03*
D19*
X178656250Y-32543750D03*
D20*
X180981250Y-32543750D03*
X184131250Y-32543750D03*
%TD*%
D18*
%TO.C,D2*%
X205506250Y-34925000D03*
D19*
X197706250Y-34925000D03*
D20*
X200031250Y-34925000D03*
X203181250Y-34925000D03*
%TD*%
D18*
%TO.C,D1*%
X224556250Y-37306250D03*
D19*
X216756250Y-37306250D03*
D20*
X219081250Y-37306250D03*
X222231250Y-37306250D03*
%TD*%
D25*
%TO.C,ENC1*%
X159902000Y-102266750D03*
X154902000Y-102266750D03*
D26*
X163002000Y-109266750D03*
X151802000Y-109266750D03*
D25*
X159902000Y-116766750D03*
X157402000Y-116766750D03*
D27*
X154902000Y-116766750D03*
%TD*%
D25*
%TO.C,SW0*%
X244561500Y-62706250D03*
X244561500Y-67206250D03*
X238061500Y-62706250D03*
X238061500Y-67206250D03*
%TD*%
M02*
