%TF.GenerationSoftware,KiCad,Pcbnew,(5.1.9-0-10_14)*%
%TF.CreationDate,2021-04-26T22:25:58-05:00*%
%TF.ProjectId,wren-universal,7772656e-2d75-46e6-9976-657273616c2e,rev?*%
%TF.SameCoordinates,Original*%
%TF.FileFunction,Copper,L1,Top*%
%TF.FilePolarity,Positive*%
%FSLAX46Y46*%
G04 Gerber Fmt 4.6, Leading zero omitted, Abs format (unit mm)*
G04 Created by KiCad (PCBNEW (5.1.9-0-10_14)) date 2021-04-26 22:25:58*
%MOMM*%
%LPD*%
G01*
G04 APERTURE LIST*
%TA.AperFunction,ComponentPad*%
%ADD10C,2.286000*%
%TD*%
%TA.AperFunction,ComponentPad*%
%ADD11C,1.752600*%
%TD*%
%TA.AperFunction,ComponentPad*%
%ADD12R,1.752600X1.752600*%
%TD*%
%TA.AperFunction,ComponentPad*%
%ADD13C,1.600000*%
%TD*%
%TA.AperFunction,ComponentPad*%
%ADD14R,1.600000X1.600000*%
%TD*%
%TA.AperFunction,ComponentPad*%
%ADD15O,1.400000X1.400000*%
%TD*%
%TA.AperFunction,ComponentPad*%
%ADD16C,1.400000*%
%TD*%
%TA.AperFunction,ComponentPad*%
%ADD17C,0.100000*%
%TD*%
%TA.AperFunction,ComponentPad*%
%ADD18C,2.000000*%
%TD*%
%TA.AperFunction,ComponentPad*%
%ADD19R,2.000000X3.200000*%
%TD*%
%TA.AperFunction,ComponentPad*%
%ADD20R,2.000000X2.000000*%
%TD*%
%TA.AperFunction,ViaPad*%
%ADD21C,0.800000*%
%TD*%
%TA.AperFunction,Conductor*%
%ADD22C,0.250000*%
%TD*%
G04 APERTURE END LIST*
%TO.P,J1,3*%
%TO.N,VCC*%
%TA.AperFunction,ComponentPad*%
G36*
G01*
X258912011Y-91049649D02*
X259262011Y-90443431D01*
G75*
G02*
X260491434Y-90114008I779423J-450000D01*
G01*
X260491434Y-90114008D01*
G75*
G02*
X260820857Y-91343431I-450000J-779423D01*
G01*
X260470857Y-91949649D01*
G75*
G02*
X259241434Y-92279072I-779423J450000D01*
G01*
X259241434Y-92279072D01*
G75*
G02*
X258912011Y-91049649I450000J779423D01*
G01*
G37*
%TD.AperFunction*%
%TO.P,J1,2*%
%TO.N,SCL*%
%TA.AperFunction,ComponentPad*%
G36*
G01*
X260412011Y-88451573D02*
X260762011Y-87845355D01*
G75*
G02*
X261991434Y-87515932I779423J-450000D01*
G01*
X261991434Y-87515932D01*
G75*
G02*
X262320857Y-88745355I-450000J-779423D01*
G01*
X261970857Y-89351573D01*
G75*
G02*
X260741434Y-89680996I-779423J450000D01*
G01*
X260741434Y-89680996D01*
G75*
G02*
X260412011Y-88451573I450000J779423D01*
G01*
G37*
%TD.AperFunction*%
%TO.P,J1,1*%
%TO.N,SDA*%
%TA.AperFunction,ComponentPad*%
G36*
G01*
X256912011Y-94513751D02*
X257262011Y-93907533D01*
G75*
G02*
X258491434Y-93578110I779423J-450000D01*
G01*
X258491434Y-93578110D01*
G75*
G02*
X258820857Y-94807533I-450000J-779423D01*
G01*
X258470857Y-95413751D01*
G75*
G02*
X257241434Y-95743174I-779423J450000D01*
G01*
X257241434Y-95743174D01*
G75*
G02*
X256912011Y-94513751I450000J779423D01*
G01*
G37*
%TD.AperFunction*%
%TO.P,J1,4*%
%TO.N,GND*%
%TA.AperFunction,ComponentPad*%
G36*
G01*
X252378294Y-93166379D02*
X252728294Y-92560161D01*
G75*
G02*
X253957717Y-92230738I779423J-450000D01*
G01*
X253957717Y-92230738D01*
G75*
G02*
X254287140Y-93460161I-450000J-779423D01*
G01*
X253937140Y-94066379D01*
G75*
G02*
X252707717Y-94395802I-779423J450000D01*
G01*
X252707717Y-94395802D01*
G75*
G02*
X252378294Y-93166379I450000J779423D01*
G01*
G37*
%TD.AperFunction*%
%TO.P,J1,5*%
%TA.AperFunction,ComponentPad*%
G36*
G01*
X254716563Y-94516379D02*
X255066563Y-93910161D01*
G75*
G02*
X256295986Y-93580738I779423J-450000D01*
G01*
X256295986Y-93580738D01*
G75*
G02*
X256625409Y-94810161I-450000J-779423D01*
G01*
X256275409Y-95416379D01*
G75*
G02*
X255045986Y-95745802I-779423J450000D01*
G01*
X255045986Y-95745802D01*
G75*
G02*
X254716563Y-94516379I450000J779423D01*
G01*
G37*
%TD.AperFunction*%
%TO.P,J1,1*%
%TO.N,SDA*%
%TA.AperFunction,ComponentPad*%
G36*
G01*
X251282846Y-91263751D02*
X251632846Y-90657533D01*
G75*
G02*
X252862269Y-90328110I779423J-450000D01*
G01*
X252862269Y-90328110D01*
G75*
G02*
X253191692Y-91557533I-450000J-779423D01*
G01*
X252841692Y-92163751D01*
G75*
G02*
X251612269Y-92493174I-779423J450000D01*
G01*
X251612269Y-92493174D01*
G75*
G02*
X251282846Y-91263751I450000J779423D01*
G01*
G37*
%TD.AperFunction*%
%TO.P,J1,2*%
%TO.N,SCL*%
%TA.AperFunction,ComponentPad*%
G36*
G01*
X254782846Y-85201573D02*
X255132846Y-84595355D01*
G75*
G02*
X256362269Y-84265932I779423J-450000D01*
G01*
X256362269Y-84265932D01*
G75*
G02*
X256691692Y-85495355I-450000J-779423D01*
G01*
X256341692Y-86101573D01*
G75*
G02*
X255112269Y-86430996I-779423J450000D01*
G01*
X255112269Y-86430996D01*
G75*
G02*
X254782846Y-85201573I450000J779423D01*
G01*
G37*
%TD.AperFunction*%
%TO.P,J1,3*%
%TO.N,VCC*%
%TA.AperFunction,ComponentPad*%
G36*
G01*
X253282846Y-87799649D02*
X253632846Y-87193431D01*
G75*
G02*
X254862269Y-86864008I779423J-450000D01*
G01*
X254862269Y-86864008D01*
G75*
G02*
X255191692Y-88093431I-450000J-779423D01*
G01*
X254841692Y-88699649D01*
G75*
G02*
X253612269Y-89029072I-779423J450000D01*
G01*
X253612269Y-89029072D01*
G75*
G02*
X253282846Y-87799649I450000J779423D01*
G01*
G37*
%TD.AperFunction*%
%TD*%
D10*
%TO.P,MX39,1*%
%TO.N,COL8*%
X62071250Y-91122500D03*
%TO.P,MX39,2*%
%TO.N,Net-(D39-Pad2)*%
X68421250Y-88582500D03*
%TO.P,MX39,1*%
%TO.N,COL8*%
X63341250Y-88582500D03*
%TO.P,MX39,2*%
%TO.N,Net-(D39-Pad2)*%
X69691250Y-91122500D03*
%TD*%
%TO.P,MX36,1*%
%TO.N,COL5*%
X121602500Y-91122500D03*
%TO.P,MX36,2*%
%TO.N,Net-(D36-Pad2)*%
X127952500Y-88582500D03*
%TO.P,MX36,1*%
%TO.N,COL5*%
X122872500Y-88582500D03*
%TO.P,MX36,2*%
%TO.N,Net-(D36-Pad2)*%
X129222500Y-91122500D03*
%TD*%
%TO.P,MX21,1*%
%TO.N,COL0*%
X216852500Y-68103750D03*
%TO.P,MX21,2*%
%TO.N,Net-(D21-Pad2)*%
X223202500Y-65563750D03*
%TO.P,MX21,1*%
%TO.N,COL0*%
X218122500Y-65563750D03*
%TO.P,MX21,2*%
%TO.N,Net-(D21-Pad2)*%
X224472500Y-68103750D03*
%TD*%
%TO.P,MX41,1*%
%TO.N,COL0*%
X235379295Y-111789307D03*
%TO.P,MX41,2*%
%TO.N,Net-(D41-Pad2)*%
X236354591Y-105020045D03*
%TO.P,MX41,1*%
%TO.N,COL0*%
X233814591Y-109419455D03*
%TO.P,MX41,2*%
%TO.N,Net-(D41-Pad2)*%
X239189295Y-105190193D03*
%TD*%
%TO.P,MX10,1*%
%TO.N,COL9*%
X43021250Y-33972500D03*
%TO.P,MX10,2*%
%TO.N,Net-(D10-Pad2)*%
X49371250Y-31432500D03*
%TO.P,MX10,1*%
%TO.N,COL9*%
X44291250Y-31432500D03*
%TO.P,MX10,2*%
%TO.N,Net-(D10-Pad2)*%
X50641250Y-33972500D03*
%TD*%
%TO.P,MX15,1*%
%TO.N,COL4*%
X140652500Y-53022500D03*
%TO.P,MX15,2*%
%TO.N,Net-(D15-Pad2)*%
X147002500Y-50482500D03*
%TO.P,MX15,1*%
%TO.N,COL4*%
X141922500Y-50482500D03*
%TO.P,MX15,2*%
%TO.N,Net-(D15-Pad2)*%
X148272500Y-53022500D03*
%TD*%
%TO.P,MX44,1*%
%TO.N,COL3*%
X170015000Y-106711750D03*
%TO.P,MX44,2*%
%TO.N,Net-(D44-Pad2)*%
X176365000Y-104171750D03*
%TO.P,MX44,1*%
%TO.N,COL3*%
X171285000Y-104171750D03*
%TO.P,MX44,2*%
%TO.N,Net-(D44-Pad2)*%
X177635000Y-106711750D03*
%TD*%
%TO.P,MX43,1*%
%TO.N,COL2*%
X189065000Y-106711750D03*
%TO.P,MX43,2*%
%TO.N,Net-(D43-Pad2)*%
X195415000Y-104171750D03*
%TO.P,MX43,1*%
%TO.N,COL2*%
X190335000Y-104171750D03*
%TO.P,MX43,2*%
%TO.N,Net-(D43-Pad2)*%
X196685000Y-106711750D03*
%TD*%
%TO.P,MX42,1*%
%TO.N,COL1*%
X208115000Y-109378750D03*
%TO.P,MX42,2*%
%TO.N,Net-(D42-Pad2)*%
X214465000Y-106838750D03*
%TO.P,MX42,1*%
%TO.N,COL1*%
X209385000Y-106838750D03*
%TO.P,MX42,2*%
%TO.N,Net-(D42-Pad2)*%
X215735000Y-109378750D03*
%TD*%
%TO.P,MX40,1*%
%TO.N,COL9*%
X43021250Y-91122500D03*
%TO.P,MX40,2*%
%TO.N,Net-(D40-Pad2)*%
X49371250Y-88582500D03*
%TO.P,MX40,1*%
%TO.N,COL9*%
X44291250Y-88582500D03*
%TO.P,MX40,2*%
%TO.N,Net-(D40-Pad2)*%
X50641250Y-91122500D03*
%TD*%
%TO.P,MX38,1*%
%TO.N,COL7*%
X81121250Y-91122500D03*
%TO.P,MX38,2*%
%TO.N,Net-(D38-Pad2)*%
X87471250Y-88582500D03*
%TO.P,MX38,1*%
%TO.N,COL7*%
X82391250Y-88582500D03*
%TO.P,MX38,2*%
%TO.N,Net-(D38-Pad2)*%
X88741250Y-91122500D03*
%TD*%
%TO.P,MX37,1*%
%TO.N,COL6*%
X100171250Y-91122500D03*
%TO.P,MX37,2*%
%TO.N,Net-(D37-Pad2)*%
X106521250Y-88582500D03*
%TO.P,MX37,1*%
%TO.N,COL6*%
X101441250Y-88582500D03*
%TO.P,MX37,2*%
%TO.N,Net-(D37-Pad2)*%
X107791250Y-91122500D03*
%TD*%
%TO.P,MX35,1*%
%TO.N,COL4*%
X140652500Y-91122500D03*
%TO.P,MX35,2*%
%TO.N,Net-(D35-Pad2)*%
X147002500Y-88582500D03*
%TO.P,MX35,1*%
%TO.N,COL4*%
X141922500Y-88582500D03*
%TO.P,MX35,2*%
%TO.N,Net-(D35-Pad2)*%
X148272500Y-91122500D03*
%TD*%
%TO.P,MX34,1*%
%TO.N,COL3*%
X159702500Y-84772500D03*
%TO.P,MX34,2*%
%TO.N,Net-(D34-Pad2)*%
X166052500Y-82232500D03*
%TO.P,MX34,1*%
%TO.N,COL3*%
X160972500Y-82232500D03*
%TO.P,MX34,2*%
%TO.N,Net-(D34-Pad2)*%
X167322500Y-84772500D03*
%TD*%
%TO.P,MX33,1*%
%TO.N,COL2*%
X178752500Y-82391250D03*
%TO.P,MX33,2*%
%TO.N,Net-(D33-Pad2)*%
X185102500Y-79851250D03*
%TO.P,MX33,1*%
%TO.N,COL2*%
X180022500Y-79851250D03*
%TO.P,MX33,2*%
%TO.N,Net-(D33-Pad2)*%
X186372500Y-82391250D03*
%TD*%
%TO.P,MX32,1*%
%TO.N,COL1*%
X197802500Y-84772500D03*
%TO.P,MX32,2*%
%TO.N,Net-(D32-Pad2)*%
X204152500Y-82232500D03*
%TO.P,MX32,1*%
%TO.N,COL1*%
X199072500Y-82232500D03*
%TO.P,MX32,2*%
%TO.N,Net-(D32-Pad2)*%
X205422500Y-84772500D03*
%TD*%
%TO.P,MX31,1*%
%TO.N,COL0*%
X216852500Y-87153750D03*
%TO.P,MX31,2*%
%TO.N,Net-(D31-Pad2)*%
X223202500Y-84613750D03*
%TO.P,MX31,1*%
%TO.N,COL0*%
X218122500Y-84613750D03*
%TO.P,MX31,2*%
%TO.N,Net-(D31-Pad2)*%
X224472500Y-87153750D03*
%TD*%
%TO.P,MX30,1*%
%TO.N,COL9*%
X43021250Y-72072500D03*
%TO.P,MX30,2*%
%TO.N,Net-(D30-Pad2)*%
X49371250Y-69532500D03*
%TO.P,MX30,1*%
%TO.N,COL9*%
X44291250Y-69532500D03*
%TO.P,MX30,2*%
%TO.N,Net-(D30-Pad2)*%
X50641250Y-72072500D03*
%TD*%
%TO.P,MX29,1*%
%TO.N,COL8*%
X62071250Y-72072500D03*
%TO.P,MX29,2*%
%TO.N,Net-(D29-Pad2)*%
X68421250Y-69532500D03*
%TO.P,MX29,1*%
%TO.N,COL8*%
X63341250Y-69532500D03*
%TO.P,MX29,2*%
%TO.N,Net-(D29-Pad2)*%
X69691250Y-72072500D03*
%TD*%
%TO.P,MX28,1*%
%TO.N,COL7*%
X81121250Y-72072500D03*
%TO.P,MX28,2*%
%TO.N,Net-(D28-Pad2)*%
X87471250Y-69532500D03*
%TO.P,MX28,1*%
%TO.N,COL7*%
X82391250Y-69532500D03*
%TO.P,MX28,2*%
%TO.N,Net-(D28-Pad2)*%
X88741250Y-72072500D03*
%TD*%
%TO.P,MX27,1*%
%TO.N,COL6*%
X100171250Y-72072500D03*
%TO.P,MX27,2*%
%TO.N,Net-(D27-Pad2)*%
X106521250Y-69532500D03*
%TO.P,MX27,1*%
%TO.N,COL6*%
X101441250Y-69532500D03*
%TO.P,MX27,2*%
%TO.N,Net-(D27-Pad2)*%
X107791250Y-72072500D03*
%TD*%
%TO.P,MX26,1*%
%TO.N,COL5*%
X121602500Y-72072500D03*
%TO.P,MX26,2*%
%TO.N,Net-(D26-Pad2)*%
X127952500Y-69532500D03*
%TO.P,MX26,1*%
%TO.N,COL5*%
X122872500Y-69532500D03*
%TO.P,MX26,2*%
%TO.N,Net-(D26-Pad2)*%
X129222500Y-72072500D03*
%TD*%
%TO.P,MX25,1*%
%TO.N,COL4*%
X140652500Y-72072500D03*
%TO.P,MX25,2*%
%TO.N,Net-(D25-Pad2)*%
X147002500Y-69532500D03*
%TO.P,MX25,1*%
%TO.N,COL4*%
X141922500Y-69532500D03*
%TO.P,MX25,2*%
%TO.N,Net-(D25-Pad2)*%
X148272500Y-72072500D03*
%TD*%
%TO.P,MX24,1*%
%TO.N,COL3*%
X159702500Y-65722500D03*
%TO.P,MX24,2*%
%TO.N,Net-(D24-Pad2)*%
X166052500Y-63182500D03*
%TO.P,MX24,1*%
%TO.N,COL3*%
X160972500Y-63182500D03*
%TO.P,MX24,2*%
%TO.N,Net-(D24-Pad2)*%
X167322500Y-65722500D03*
%TD*%
%TO.P,MX23,1*%
%TO.N,COL2*%
X178752500Y-63341250D03*
%TO.P,MX23,2*%
%TO.N,Net-(D23-Pad2)*%
X185102500Y-60801250D03*
%TO.P,MX23,1*%
%TO.N,COL2*%
X180022500Y-60801250D03*
%TO.P,MX23,2*%
%TO.N,Net-(D23-Pad2)*%
X186372500Y-63341250D03*
%TD*%
%TO.P,MX22,1*%
%TO.N,COL1*%
X197802500Y-65722500D03*
%TO.P,MX22,2*%
%TO.N,Net-(D22-Pad2)*%
X204152500Y-63182500D03*
%TO.P,MX22,1*%
%TO.N,COL1*%
X199072500Y-63182500D03*
%TO.P,MX22,2*%
%TO.N,Net-(D22-Pad2)*%
X205422500Y-65722500D03*
%TD*%
%TO.P,MX20,1*%
%TO.N,COL9*%
X43021250Y-53022500D03*
%TO.P,MX20,2*%
%TO.N,Net-(D20-Pad2)*%
X49371250Y-50482500D03*
%TO.P,MX20,1*%
%TO.N,COL9*%
X44291250Y-50482500D03*
%TO.P,MX20,2*%
%TO.N,Net-(D20-Pad2)*%
X50641250Y-53022500D03*
%TD*%
%TO.P,MX19,1*%
%TO.N,COL8*%
X62071250Y-53022500D03*
%TO.P,MX19,2*%
%TO.N,Net-(D19-Pad2)*%
X68421250Y-50482500D03*
%TO.P,MX19,1*%
%TO.N,COL8*%
X63341250Y-50482500D03*
%TO.P,MX19,2*%
%TO.N,Net-(D19-Pad2)*%
X69691250Y-53022500D03*
%TD*%
%TO.P,MX18,1*%
%TO.N,COL7*%
X81121250Y-53022500D03*
%TO.P,MX18,2*%
%TO.N,Net-(D18-Pad2)*%
X87471250Y-50482500D03*
%TO.P,MX18,1*%
%TO.N,COL7*%
X82391250Y-50482500D03*
%TO.P,MX18,2*%
%TO.N,Net-(D18-Pad2)*%
X88741250Y-53022500D03*
%TD*%
%TO.P,MX17,1*%
%TO.N,COL6*%
X100171250Y-53022500D03*
%TO.P,MX17,2*%
%TO.N,Net-(D17-Pad2)*%
X106521250Y-50482500D03*
%TO.P,MX17,1*%
%TO.N,COL6*%
X101441250Y-50482500D03*
%TO.P,MX17,2*%
%TO.N,Net-(D17-Pad2)*%
X107791250Y-53022500D03*
%TD*%
%TO.P,MX16,1*%
%TO.N,COL5*%
X121602500Y-53022500D03*
%TO.P,MX16,2*%
%TO.N,Net-(D16-Pad2)*%
X127952500Y-50482500D03*
%TO.P,MX16,1*%
%TO.N,COL5*%
X122872500Y-50482500D03*
%TO.P,MX16,2*%
%TO.N,Net-(D16-Pad2)*%
X129222500Y-53022500D03*
%TD*%
%TO.P,MX14,1*%
%TO.N,COL3*%
X159702500Y-46672500D03*
%TO.P,MX14,2*%
%TO.N,Net-(D14-Pad2)*%
X166052500Y-44132500D03*
%TO.P,MX14,1*%
%TO.N,COL3*%
X160972500Y-44132500D03*
%TO.P,MX14,2*%
%TO.N,Net-(D14-Pad2)*%
X167322500Y-46672500D03*
%TD*%
%TO.P,MX13,1*%
%TO.N,COL2*%
X178752500Y-44291250D03*
%TO.P,MX13,2*%
%TO.N,Net-(D13-Pad2)*%
X185102500Y-41751250D03*
%TO.P,MX13,1*%
%TO.N,COL2*%
X180022500Y-41751250D03*
%TO.P,MX13,2*%
%TO.N,Net-(D13-Pad2)*%
X186372500Y-44291250D03*
%TD*%
%TO.P,MX12,1*%
%TO.N,COL1*%
X197802500Y-46672500D03*
%TO.P,MX12,2*%
%TO.N,Net-(D12-Pad2)*%
X204152500Y-44132500D03*
%TO.P,MX12,1*%
%TO.N,COL1*%
X199072500Y-44132500D03*
%TO.P,MX12,2*%
%TO.N,Net-(D12-Pad2)*%
X205422500Y-46672500D03*
%TD*%
%TO.P,MX11,1*%
%TO.N,COL0*%
X216852500Y-49053750D03*
%TO.P,MX11,2*%
%TO.N,Net-(D11-Pad2)*%
X223202500Y-46513750D03*
%TO.P,MX11,1*%
%TO.N,COL0*%
X218122500Y-46513750D03*
%TO.P,MX11,2*%
%TO.N,Net-(D11-Pad2)*%
X224472500Y-49053750D03*
%TD*%
%TO.P,MX9,1*%
%TO.N,COL8*%
X62071250Y-33972500D03*
%TO.P,MX9,2*%
%TO.N,Net-(D9-Pad2)*%
X68421250Y-31432500D03*
%TO.P,MX9,1*%
%TO.N,COL8*%
X63341250Y-31432500D03*
%TO.P,MX9,2*%
%TO.N,Net-(D9-Pad2)*%
X69691250Y-33972500D03*
%TD*%
%TO.P,MX8,1*%
%TO.N,COL7*%
X81121250Y-33972500D03*
%TO.P,MX8,2*%
%TO.N,Net-(D8-Pad2)*%
X87471250Y-31432500D03*
%TO.P,MX8,1*%
%TO.N,COL7*%
X82391250Y-31432500D03*
%TO.P,MX8,2*%
%TO.N,Net-(D8-Pad2)*%
X88741250Y-33972500D03*
%TD*%
%TO.P,MX7,1*%
%TO.N,COL6*%
X100171250Y-33972500D03*
%TO.P,MX7,2*%
%TO.N,Net-(D7-Pad2)*%
X106521250Y-31432500D03*
%TO.P,MX7,1*%
%TO.N,COL6*%
X101441250Y-31432500D03*
%TO.P,MX7,2*%
%TO.N,Net-(D7-Pad2)*%
X107791250Y-33972500D03*
%TD*%
%TO.P,MX6,1*%
%TO.N,COL5*%
X121602500Y-33972500D03*
%TO.P,MX6,2*%
%TO.N,Net-(D6-Pad2)*%
X127952500Y-31432500D03*
%TO.P,MX6,1*%
%TO.N,COL5*%
X122872500Y-31432500D03*
%TO.P,MX6,2*%
%TO.N,Net-(D6-Pad2)*%
X129222500Y-33972500D03*
%TD*%
%TO.P,MX5,1*%
%TO.N,COL4*%
X140652500Y-33972500D03*
%TO.P,MX5,2*%
%TO.N,Net-(D5-Pad2)*%
X147002500Y-31432500D03*
%TO.P,MX5,1*%
%TO.N,COL4*%
X141922500Y-31432500D03*
%TO.P,MX5,2*%
%TO.N,Net-(D5-Pad2)*%
X148272500Y-33972500D03*
%TD*%
%TO.P,MX4,1*%
%TO.N,COL3*%
X159702500Y-27622500D03*
%TO.P,MX4,2*%
%TO.N,Net-(D4-Pad2)*%
X166052500Y-25082500D03*
%TO.P,MX4,1*%
%TO.N,COL3*%
X160972500Y-25082500D03*
%TO.P,MX4,2*%
%TO.N,Net-(D4-Pad2)*%
X167322500Y-27622500D03*
%TD*%
%TO.P,MX3,1*%
%TO.N,COL2*%
X178752500Y-25241250D03*
%TO.P,MX3,2*%
%TO.N,Net-(D3-Pad2)*%
X185102500Y-22701250D03*
%TO.P,MX3,1*%
%TO.N,COL2*%
X180022500Y-22701250D03*
%TO.P,MX3,2*%
%TO.N,Net-(D3-Pad2)*%
X186372500Y-25241250D03*
%TD*%
%TO.P,MX2,1*%
%TO.N,COL1*%
X197802500Y-27622500D03*
%TO.P,MX2,2*%
%TO.N,Net-(D2-Pad2)*%
X204152500Y-25082500D03*
%TO.P,MX2,1*%
%TO.N,COL1*%
X199072500Y-25082500D03*
%TO.P,MX2,2*%
%TO.N,Net-(D2-Pad2)*%
X205422500Y-27622500D03*
%TD*%
%TO.P,MX1,1*%
%TO.N,COL0*%
X216852500Y-30003750D03*
%TO.P,MX1,2*%
%TO.N,Net-(D1-Pad2)*%
X223202500Y-27463750D03*
%TO.P,MX1,1*%
%TO.N,COL0*%
X218122500Y-27463750D03*
%TO.P,MX1,2*%
%TO.N,Net-(D1-Pad2)*%
X224472500Y-30003750D03*
%TD*%
D11*
%TO.P,U1,25*%
%TO.N,N/C*%
X246380000Y-58420000D03*
%TO.P,U1,26*%
X243840000Y-58420000D03*
%TO.P,U1,27*%
X241300000Y-58420000D03*
%TO.P,U1,28*%
X238760000Y-58420000D03*
%TO.P,U1,29*%
%TO.N,COL9*%
X236220000Y-58420000D03*
%TO.P,U1,24*%
%TO.N,N/C*%
X233680000Y-30480000D03*
%TO.P,U1,12*%
%TO.N,ROW4*%
X248691400Y-58420000D03*
%TO.P,U1,23*%
%TO.N,GND*%
X233680000Y-33020000D03*
%TO.P,U1,22*%
%TO.N,Net-(SW0-Pad1)*%
X233680000Y-35560000D03*
%TO.P,U1,21*%
%TO.N,VCC*%
X233680000Y-38100000D03*
%TO.P,U1,20*%
%TO.N,COL7*%
X233680000Y-40640000D03*
%TO.P,U1,19*%
%TO.N,COL6*%
X233680000Y-43180000D03*
%TO.P,U1,18*%
%TO.N,COL5*%
X233680000Y-45720000D03*
%TO.P,U1,17*%
%TO.N,COL4*%
X233680000Y-48260000D03*
%TO.P,U1,16*%
%TO.N,COL3*%
X233680000Y-50800000D03*
%TO.P,U1,15*%
%TO.N,COL2*%
X233680000Y-53340000D03*
%TO.P,U1,14*%
%TO.N,COL1*%
X233680000Y-55880000D03*
%TO.P,U1,13*%
%TO.N,COL0*%
X233680000Y-58420000D03*
%TO.P,U1,11*%
%TO.N,RIGHT*%
X248920000Y-55880000D03*
%TO.P,U1,10*%
%TO.N,LEFT*%
X248920000Y-53340000D03*
%TO.P,U1,9*%
%TO.N,COL8*%
X248920000Y-50800000D03*
%TO.P,U1,8*%
%TO.N,ROW2*%
X248920000Y-48260000D03*
%TO.P,U1,7*%
%TO.N,ROW3*%
X248920000Y-45720000D03*
%TO.P,U1,6*%
%TO.N,SCL*%
X248920000Y-43180000D03*
%TO.P,U1,5*%
%TO.N,SDA*%
X248920000Y-40640000D03*
%TO.P,U1,4*%
%TO.N,GND*%
X248920000Y-38100000D03*
%TO.P,U1,3*%
X248920000Y-35560000D03*
%TO.P,U1,2*%
%TO.N,ROW1*%
X248920000Y-33020000D03*
D12*
%TO.P,U1,1*%
%TO.N,ROW0*%
X248920000Y-30480000D03*
%TD*%
D13*
%TO.P,D43,2*%
%TO.N,Net-(D43-Pad2)*%
X196775000Y-114300000D03*
D14*
%TO.P,D43,1*%
%TO.N,ROW4*%
X188975000Y-114300000D03*
%TD*%
D15*
%TO.P,R2,2*%
%TO.N,VCC*%
X238585000Y-43656250D03*
D16*
%TO.P,R2,1*%
%TO.N,SCL*%
X243665000Y-43656250D03*
%TD*%
D15*
%TO.P,R1,2*%
%TO.N,VCC*%
X238585000Y-38100000D03*
D16*
%TO.P,R1,1*%
%TO.N,SDA*%
X243665000Y-38100000D03*
%TD*%
D13*
%TO.P,D45,2*%
%TO.N,ENC1-IN*%
X161342000Y-105822750D03*
D14*
%TO.P,D45,1*%
%TO.N,ROW4*%
X153542000Y-105822750D03*
%TD*%
D13*
%TO.P,D44,2*%
%TO.N,Net-(D44-Pad2)*%
X177725000Y-114300000D03*
D14*
%TO.P,D44,1*%
%TO.N,ROW4*%
X169925000Y-114300000D03*
%TD*%
D13*
%TO.P,D42,2*%
%TO.N,Net-(D42-Pad2)*%
X215825000Y-116681250D03*
D14*
%TO.P,D42,1*%
%TO.N,ROW4*%
X208025000Y-116681250D03*
%TD*%
D13*
%TO.P,D41,2*%
%TO.N,Net-(D41-Pad2)*%
X245618000Y-108541251D03*
%TA.AperFunction,ComponentPad*%
D17*
%TO.P,D41,1*%
%TO.N,ROW4*%
G36*
X242010820Y-116389069D02*
G01*
X240625180Y-115589069D01*
X241425180Y-114203429D01*
X242810820Y-115003429D01*
X242010820Y-116389069D01*
G37*
%TD.AperFunction*%
%TD*%
D13*
%TO.P,D40,2*%
%TO.N,Net-(D40-Pad2)*%
X50725000Y-98425000D03*
D14*
%TO.P,D40,1*%
%TO.N,ROW3*%
X42925000Y-98425000D03*
%TD*%
D13*
%TO.P,D39,2*%
%TO.N,Net-(D39-Pad2)*%
X69775000Y-98425000D03*
D14*
%TO.P,D39,1*%
%TO.N,ROW3*%
X61975000Y-98425000D03*
%TD*%
D13*
%TO.P,D38,2*%
%TO.N,Net-(D38-Pad2)*%
X88825000Y-98425000D03*
D14*
%TO.P,D38,1*%
%TO.N,ROW3*%
X81025000Y-98425000D03*
%TD*%
D13*
%TO.P,D37,2*%
%TO.N,Net-(D37-Pad2)*%
X107875000Y-98425000D03*
D14*
%TO.P,D37,1*%
%TO.N,ROW3*%
X100075000Y-98425000D03*
%TD*%
D13*
%TO.P,D36,2*%
%TO.N,Net-(D36-Pad2)*%
X129306250Y-98425000D03*
D14*
%TO.P,D36,1*%
%TO.N,ROW3*%
X121506250Y-98425000D03*
%TD*%
D13*
%TO.P,D35,2*%
%TO.N,Net-(D35-Pad2)*%
X148356250Y-98425000D03*
D14*
%TO.P,D35,1*%
%TO.N,ROW3*%
X140556250Y-98425000D03*
%TD*%
D13*
%TO.P,D34,2*%
%TO.N,Net-(D34-Pad2)*%
X167406250Y-92075000D03*
D14*
%TO.P,D34,1*%
%TO.N,ROW3*%
X159606250Y-92075000D03*
%TD*%
D13*
%TO.P,D33,2*%
%TO.N,Net-(D33-Pad2)*%
X186456250Y-89693750D03*
D14*
%TO.P,D33,1*%
%TO.N,ROW3*%
X178656250Y-89693750D03*
%TD*%
D13*
%TO.P,D32,2*%
%TO.N,Net-(D32-Pad2)*%
X205506250Y-92075000D03*
D14*
%TO.P,D32,1*%
%TO.N,ROW3*%
X197706250Y-92075000D03*
%TD*%
D13*
%TO.P,D31,2*%
%TO.N,Net-(D31-Pad2)*%
X224556250Y-94456250D03*
D14*
%TO.P,D31,1*%
%TO.N,ROW3*%
X216756250Y-94456250D03*
%TD*%
D13*
%TO.P,D30,2*%
%TO.N,Net-(D30-Pad2)*%
X50725000Y-79375000D03*
D14*
%TO.P,D30,1*%
%TO.N,ROW2*%
X42925000Y-79375000D03*
%TD*%
D13*
%TO.P,D29,2*%
%TO.N,Net-(D29-Pad2)*%
X69775000Y-79375000D03*
D14*
%TO.P,D29,1*%
%TO.N,ROW2*%
X61975000Y-79375000D03*
%TD*%
D13*
%TO.P,D28,2*%
%TO.N,Net-(D28-Pad2)*%
X88825000Y-79375000D03*
D14*
%TO.P,D28,1*%
%TO.N,ROW2*%
X81025000Y-79375000D03*
%TD*%
D13*
%TO.P,D27,2*%
%TO.N,Net-(D27-Pad2)*%
X107875000Y-79375000D03*
D14*
%TO.P,D27,1*%
%TO.N,ROW2*%
X100075000Y-79375000D03*
%TD*%
D13*
%TO.P,D26,2*%
%TO.N,Net-(D26-Pad2)*%
X129306250Y-79375000D03*
D14*
%TO.P,D26,1*%
%TO.N,ROW2*%
X121506250Y-79375000D03*
%TD*%
D13*
%TO.P,D25,2*%
%TO.N,Net-(D25-Pad2)*%
X148356250Y-79375000D03*
D14*
%TO.P,D25,1*%
%TO.N,ROW2*%
X140556250Y-79375000D03*
%TD*%
D13*
%TO.P,D24,2*%
%TO.N,Net-(D24-Pad2)*%
X167406250Y-73025000D03*
D14*
%TO.P,D24,1*%
%TO.N,ROW2*%
X159606250Y-73025000D03*
%TD*%
D13*
%TO.P,D23,2*%
%TO.N,Net-(D23-Pad2)*%
X186456250Y-70643750D03*
D14*
%TO.P,D23,1*%
%TO.N,ROW2*%
X178656250Y-70643750D03*
%TD*%
D13*
%TO.P,D22,2*%
%TO.N,Net-(D22-Pad2)*%
X205506250Y-73025000D03*
D14*
%TO.P,D22,1*%
%TO.N,ROW2*%
X197706250Y-73025000D03*
%TD*%
D13*
%TO.P,D21,2*%
%TO.N,Net-(D21-Pad2)*%
X224556250Y-75406250D03*
D14*
%TO.P,D21,1*%
%TO.N,ROW2*%
X216756250Y-75406250D03*
%TD*%
D13*
%TO.P,D20,2*%
%TO.N,Net-(D20-Pad2)*%
X50725000Y-60325000D03*
D14*
%TO.P,D20,1*%
%TO.N,ROW1*%
X42925000Y-60325000D03*
%TD*%
D13*
%TO.P,D19,2*%
%TO.N,Net-(D19-Pad2)*%
X69775000Y-60325000D03*
D14*
%TO.P,D19,1*%
%TO.N,ROW1*%
X61975000Y-60325000D03*
%TD*%
D13*
%TO.P,D18,2*%
%TO.N,Net-(D18-Pad2)*%
X88825000Y-60325000D03*
D14*
%TO.P,D18,1*%
%TO.N,ROW1*%
X81025000Y-60325000D03*
%TD*%
D13*
%TO.P,D17,2*%
%TO.N,Net-(D17-Pad2)*%
X107748000Y-60325000D03*
D14*
%TO.P,D17,1*%
%TO.N,ROW1*%
X99948000Y-60325000D03*
%TD*%
D13*
%TO.P,D16,2*%
%TO.N,Net-(D16-Pad2)*%
X129306250Y-60325000D03*
D14*
%TO.P,D16,1*%
%TO.N,ROW1*%
X121506250Y-60325000D03*
%TD*%
D13*
%TO.P,D15,2*%
%TO.N,Net-(D15-Pad2)*%
X148356250Y-60325000D03*
D14*
%TO.P,D15,1*%
%TO.N,ROW1*%
X140556250Y-60325000D03*
%TD*%
D13*
%TO.P,D14,2*%
%TO.N,Net-(D14-Pad2)*%
X167406250Y-53975000D03*
D14*
%TO.P,D14,1*%
%TO.N,ROW1*%
X159606250Y-53975000D03*
%TD*%
D13*
%TO.P,D13,2*%
%TO.N,Net-(D13-Pad2)*%
X186456250Y-51593750D03*
D14*
%TO.P,D13,1*%
%TO.N,ROW1*%
X178656250Y-51593750D03*
%TD*%
D13*
%TO.P,D12,2*%
%TO.N,Net-(D12-Pad2)*%
X205506250Y-53975000D03*
D14*
%TO.P,D12,1*%
%TO.N,ROW1*%
X197706250Y-53975000D03*
%TD*%
D13*
%TO.P,D11,2*%
%TO.N,Net-(D11-Pad2)*%
X224556250Y-56356250D03*
D14*
%TO.P,D11,1*%
%TO.N,ROW1*%
X216756250Y-56356250D03*
%TD*%
D13*
%TO.P,D10,2*%
%TO.N,Net-(D10-Pad2)*%
X50725000Y-41275000D03*
D14*
%TO.P,D10,1*%
%TO.N,ROW0*%
X42925000Y-41275000D03*
%TD*%
D13*
%TO.P,D9,2*%
%TO.N,Net-(D9-Pad2)*%
X69775000Y-41275000D03*
D14*
%TO.P,D9,1*%
%TO.N,ROW0*%
X61975000Y-41275000D03*
%TD*%
D13*
%TO.P,D8,2*%
%TO.N,Net-(D8-Pad2)*%
X88825000Y-41275000D03*
D14*
%TO.P,D8,1*%
%TO.N,ROW0*%
X81025000Y-41275000D03*
%TD*%
D13*
%TO.P,D7,2*%
%TO.N,Net-(D7-Pad2)*%
X107875000Y-41275000D03*
D14*
%TO.P,D7,1*%
%TO.N,ROW0*%
X100075000Y-41275000D03*
%TD*%
D13*
%TO.P,D6,2*%
%TO.N,Net-(D6-Pad2)*%
X129306250Y-41275000D03*
D14*
%TO.P,D6,1*%
%TO.N,ROW0*%
X121506250Y-41275000D03*
%TD*%
D13*
%TO.P,D5,2*%
%TO.N,Net-(D5-Pad2)*%
X148356250Y-41275000D03*
D14*
%TO.P,D5,1*%
%TO.N,ROW0*%
X140556250Y-41275000D03*
%TD*%
D13*
%TO.P,D4,2*%
%TO.N,Net-(D4-Pad2)*%
X167406250Y-34925000D03*
D14*
%TO.P,D4,1*%
%TO.N,ROW0*%
X159606250Y-34925000D03*
%TD*%
D13*
%TO.P,D3,2*%
%TO.N,Net-(D3-Pad2)*%
X186456250Y-32543750D03*
D14*
%TO.P,D3,1*%
%TO.N,ROW0*%
X178656250Y-32543750D03*
%TD*%
D13*
%TO.P,D2,2*%
%TO.N,Net-(D2-Pad2)*%
X205506250Y-34925000D03*
D14*
%TO.P,D2,1*%
%TO.N,ROW0*%
X197706250Y-34925000D03*
%TD*%
D13*
%TO.P,D1,2*%
%TO.N,Net-(D1-Pad2)*%
X224556250Y-37306250D03*
D14*
%TO.P,D1,1*%
%TO.N,ROW0*%
X216756250Y-37306250D03*
%TD*%
D18*
%TO.P,ENC1,S1*%
%TO.N,ENC1-IN*%
X159902000Y-102266750D03*
%TO.P,ENC1,S2*%
%TO.N,COL4*%
X154902000Y-102266750D03*
D19*
%TO.P,ENC1,MP*%
%TO.N,N/C*%
X163002000Y-109266750D03*
X151802000Y-109266750D03*
D18*
%TO.P,ENC1,B*%
%TO.N,RIGHT*%
X159902000Y-116766750D03*
%TO.P,ENC1,C*%
%TO.N,GND*%
X157402000Y-116766750D03*
D20*
%TO.P,ENC1,A*%
%TO.N,LEFT*%
X154902000Y-116766750D03*
%TD*%
D18*
%TO.P,SW0,1*%
%TO.N,Net-(SW0-Pad1)*%
X244561500Y-62706250D03*
%TO.P,SW0,2*%
%TO.N,GND*%
X244561500Y-67206250D03*
%TO.P,SW0,1*%
%TO.N,Net-(SW0-Pad1)*%
X238061500Y-62706250D03*
%TO.P,SW0,2*%
%TO.N,GND*%
X238061500Y-67206250D03*
%TD*%
D21*
%TO.N,ROW1*%
X226307750Y-55181500D03*
X232403750Y-52133500D03*
X246993699Y-50355500D03*
%TO.N,ROW4*%
X248278750Y-63690500D03*
%TO.N,COL0*%
X215631249Y-60026279D03*
%TO.N,COL1*%
X196581249Y-57282768D03*
%TO.N,COL2*%
X177531249Y-54551750D03*
%TO.N,COL3*%
X158481249Y-55680999D03*
%TO.N,COL4*%
X140168472Y-48728472D03*
%TO.N,COL5*%
X120615125Y-48225125D03*
%TO.N,COL6*%
X98949999Y-42712251D03*
X98949999Y-47538251D03*
%TO.N,COL7*%
X119500750Y-43512501D03*
X109594750Y-44962501D03*
X79899999Y-45633251D03*
%TO.N,COL8*%
X60849999Y-43012749D03*
%TO.N,COL9*%
X235606300Y-49593500D03*
X117087750Y-50736500D03*
X112515750Y-50736500D03*
X42780000Y-48971250D03*
%TO.N,VCC*%
X242532000Y-56673750D03*
X242532000Y-61880750D03*
%TO.N,SDA*%
X240119000Y-46767750D03*
X240627000Y-61880750D03*
X240119000Y-53117750D03*
%TO.N,GND*%
X238070501Y-60754249D03*
X155119000Y-63476858D03*
%TO.N,LEFT*%
X154394000Y-62769750D03*
%TO.N,RIGHT*%
X155119000Y-61753750D03*
%TD*%
D22*
%TO.N,Net-(D1-Pad2)*%
X224472500Y-28733750D02*
X224472500Y-30003750D01*
X223202500Y-27463750D02*
X224472500Y-28733750D01*
X224472500Y-37222500D02*
X224556250Y-37306250D01*
X224472500Y-30003750D02*
X224472500Y-37222500D01*
%TO.N,Net-(D2-Pad2)*%
X205422500Y-26352500D02*
X205422500Y-27622500D01*
X204152500Y-25082500D02*
X205422500Y-26352500D01*
X205422500Y-34841250D02*
X205506250Y-34925000D01*
X205422500Y-27622500D02*
X205422500Y-34841250D01*
%TO.N,Net-(D3-Pad2)*%
X186372500Y-23971250D02*
X186372500Y-25241250D01*
X185102500Y-22701250D02*
X186372500Y-23971250D01*
X186372500Y-32460000D02*
X186456250Y-32543750D01*
X186372500Y-25241250D02*
X186372500Y-32460000D01*
%TO.N,Net-(D4-Pad2)*%
X167322500Y-26352500D02*
X167322500Y-27622500D01*
X166052500Y-25082500D02*
X167322500Y-26352500D01*
X167322500Y-34841250D02*
X167406250Y-34925000D01*
X167322500Y-27622500D02*
X167322500Y-34841250D01*
%TO.N,Net-(D5-Pad2)*%
X148272500Y-32702500D02*
X148272500Y-33972500D01*
X147002500Y-31432500D02*
X148272500Y-32702500D01*
X148272500Y-41191250D02*
X148356250Y-41275000D01*
X148272500Y-33972500D02*
X148272500Y-41191250D01*
%TO.N,Net-(D6-Pad2)*%
X129222500Y-32702500D02*
X129222500Y-33972500D01*
X127952500Y-31432500D02*
X129222500Y-32702500D01*
X129222500Y-41191250D02*
X129306250Y-41275000D01*
X129222500Y-33972500D02*
X129222500Y-41191250D01*
%TO.N,Net-(D7-Pad2)*%
X107791250Y-32702500D02*
X107791250Y-33972500D01*
X106521250Y-31432500D02*
X107791250Y-32702500D01*
X107791250Y-41191250D02*
X107875000Y-41275000D01*
X107791250Y-33972500D02*
X107791250Y-41191250D01*
%TO.N,Net-(D8-Pad2)*%
X88741250Y-32702500D02*
X88741250Y-33972500D01*
X87471250Y-31432500D02*
X88741250Y-32702500D01*
X88741250Y-41191250D02*
X88825000Y-41275000D01*
X88741250Y-33972500D02*
X88741250Y-41191250D01*
%TO.N,Net-(D9-Pad2)*%
X69691250Y-32702500D02*
X69691250Y-33972500D01*
X68421250Y-31432500D02*
X69691250Y-32702500D01*
X69691250Y-41191250D02*
X69775000Y-41275000D01*
X69691250Y-33972500D02*
X69691250Y-41191250D01*
%TO.N,Net-(D10-Pad2)*%
X50641250Y-32702500D02*
X50641250Y-33972500D01*
X49371250Y-31432500D02*
X50641250Y-32702500D01*
X50641250Y-41191250D02*
X50725000Y-41275000D01*
X50641250Y-33972500D02*
X50641250Y-41191250D01*
%TO.N,Net-(D11-Pad2)*%
X224472500Y-47783750D02*
X224472500Y-49053750D01*
X223202500Y-46513750D02*
X224472500Y-47783750D01*
X224472500Y-56272500D02*
X224556250Y-56356250D01*
X224472500Y-49053750D02*
X224472500Y-56272500D01*
%TO.N,ROW1*%
X229355750Y-55181500D02*
X232403750Y-52133500D01*
X226307750Y-55181500D02*
X229355750Y-55181500D01*
X246993699Y-34946301D02*
X248920000Y-33020000D01*
X246993699Y-50355500D02*
X246993699Y-34946301D01*
%TO.N,Net-(D12-Pad2)*%
X205422500Y-45402500D02*
X205422500Y-46672500D01*
X204152500Y-44132500D02*
X205422500Y-45402500D01*
X205422500Y-53891250D02*
X205506250Y-53975000D01*
X205422500Y-46672500D02*
X205422500Y-53891250D01*
%TO.N,Net-(D13-Pad2)*%
X186372500Y-43021250D02*
X186372500Y-44291250D01*
X185102500Y-41751250D02*
X186372500Y-43021250D01*
X186372500Y-51510000D02*
X186456250Y-51593750D01*
X186372500Y-44291250D02*
X186372500Y-51510000D01*
%TO.N,Net-(D14-Pad2)*%
X167322500Y-45402500D02*
X167322500Y-46672500D01*
X166052500Y-44132500D02*
X167322500Y-45402500D01*
X167322500Y-53891250D02*
X167406250Y-53975000D01*
X167322500Y-46672500D02*
X167322500Y-53891250D01*
%TO.N,Net-(D15-Pad2)*%
X148272500Y-51752500D02*
X148272500Y-53022500D01*
X147002500Y-50482500D02*
X148272500Y-51752500D01*
X148272500Y-60241250D02*
X148356250Y-60325000D01*
X148272500Y-53022500D02*
X148272500Y-60241250D01*
%TO.N,Net-(D16-Pad2)*%
X129222500Y-51752500D02*
X129222500Y-53022500D01*
X127952500Y-50482500D02*
X129222500Y-51752500D01*
X129222500Y-60241250D02*
X129306250Y-60325000D01*
X129222500Y-53022500D02*
X129222500Y-60241250D01*
%TO.N,Net-(D17-Pad2)*%
X107791250Y-51752500D02*
X107791250Y-53022500D01*
X106521250Y-50482500D02*
X107791250Y-51752500D01*
X107791250Y-60281750D02*
X107748000Y-60325000D01*
X107791250Y-53022500D02*
X107791250Y-60281750D01*
%TO.N,Net-(D18-Pad2)*%
X88741250Y-51752500D02*
X88741250Y-53022500D01*
X87471250Y-50482500D02*
X88741250Y-51752500D01*
X88741250Y-60241250D02*
X88825000Y-60325000D01*
X88741250Y-53022500D02*
X88741250Y-60241250D01*
%TO.N,Net-(D19-Pad2)*%
X69691250Y-51752500D02*
X69691250Y-53022500D01*
X68421250Y-50482500D02*
X69691250Y-51752500D01*
X69691250Y-60241250D02*
X69775000Y-60325000D01*
X69691250Y-53022500D02*
X69691250Y-60241250D01*
%TO.N,Net-(D20-Pad2)*%
X50641250Y-51752500D02*
X50641250Y-53022500D01*
X49371250Y-50482500D02*
X50641250Y-51752500D01*
X50641250Y-60241250D02*
X50725000Y-60325000D01*
X50641250Y-53022500D02*
X50641250Y-60241250D01*
%TO.N,Net-(D21-Pad2)*%
X224472500Y-66833750D02*
X224472500Y-68103750D01*
X223202500Y-65563750D02*
X224472500Y-66833750D01*
X224472500Y-75322500D02*
X224556250Y-75406250D01*
X224472500Y-68103750D02*
X224472500Y-75322500D01*
%TO.N,Net-(D22-Pad2)*%
X205422500Y-64452500D02*
X205422500Y-65722500D01*
X204152500Y-63182500D02*
X205422500Y-64452500D01*
X205422500Y-72941250D02*
X205506250Y-73025000D01*
X205422500Y-65722500D02*
X205422500Y-72941250D01*
%TO.N,Net-(D23-Pad2)*%
X186372500Y-62071250D02*
X186372500Y-63341250D01*
X185102500Y-60801250D02*
X186372500Y-62071250D01*
X186372500Y-70560000D02*
X186456250Y-70643750D01*
X186372500Y-63341250D02*
X186372500Y-70560000D01*
%TO.N,Net-(D24-Pad2)*%
X167322500Y-64452500D02*
X167322500Y-65722500D01*
X166052500Y-63182500D02*
X167322500Y-64452500D01*
X167322500Y-72941250D02*
X167406250Y-73025000D01*
X167322500Y-65722500D02*
X167322500Y-72941250D01*
%TO.N,Net-(D25-Pad2)*%
X148272500Y-70802500D02*
X148272500Y-72072500D01*
X147002500Y-69532500D02*
X148272500Y-70802500D01*
X148272500Y-79291250D02*
X148356250Y-79375000D01*
X148272500Y-72072500D02*
X148272500Y-79291250D01*
%TO.N,Net-(D26-Pad2)*%
X129222500Y-70802500D02*
X129222500Y-72072500D01*
X127952500Y-69532500D02*
X129222500Y-70802500D01*
X129222500Y-79291250D02*
X129306250Y-79375000D01*
X129222500Y-72072500D02*
X129222500Y-79291250D01*
%TO.N,Net-(D27-Pad2)*%
X107791250Y-70802500D02*
X107791250Y-72072500D01*
X106521250Y-69532500D02*
X107791250Y-70802500D01*
X107791250Y-79291250D02*
X107875000Y-79375000D01*
X107791250Y-72072500D02*
X107791250Y-79291250D01*
%TO.N,Net-(D28-Pad2)*%
X88741250Y-70802500D02*
X88741250Y-72072500D01*
X87471250Y-69532500D02*
X88741250Y-70802500D01*
X88741250Y-79291250D02*
X88825000Y-79375000D01*
X88741250Y-72072500D02*
X88741250Y-79291250D01*
%TO.N,Net-(D29-Pad2)*%
X69691250Y-70802500D02*
X69691250Y-72072500D01*
X68421250Y-69532500D02*
X69691250Y-70802500D01*
X69691250Y-79291250D02*
X69775000Y-79375000D01*
X69691250Y-72072500D02*
X69691250Y-79291250D01*
%TO.N,Net-(D30-Pad2)*%
X50641250Y-70802500D02*
X50641250Y-72072500D01*
X49371250Y-69532500D02*
X50641250Y-70802500D01*
X50641250Y-79291250D02*
X50725000Y-79375000D01*
X50641250Y-72072500D02*
X50641250Y-79291250D01*
%TO.N,Net-(D31-Pad2)*%
X224472500Y-85883750D02*
X224472500Y-87153750D01*
X223202500Y-84613750D02*
X224472500Y-85883750D01*
X224472500Y-94372500D02*
X224556250Y-94456250D01*
X224472500Y-87153750D02*
X224472500Y-94372500D01*
%TO.N,Net-(D32-Pad2)*%
X205422500Y-83502500D02*
X205422500Y-84772500D01*
X204152500Y-82232500D02*
X205422500Y-83502500D01*
X205422500Y-91991250D02*
X205506250Y-92075000D01*
X205422500Y-84772500D02*
X205422500Y-91991250D01*
%TO.N,Net-(D33-Pad2)*%
X186372500Y-81121250D02*
X186372500Y-82391250D01*
X185102500Y-79851250D02*
X186372500Y-81121250D01*
X186372500Y-89610000D02*
X186456250Y-89693750D01*
X186372500Y-82391250D02*
X186372500Y-89610000D01*
%TO.N,Net-(D34-Pad2)*%
X167322500Y-83502500D02*
X167322500Y-84772500D01*
X166052500Y-82232500D02*
X167322500Y-83502500D01*
X167322500Y-91991250D02*
X167406250Y-92075000D01*
X167322500Y-84772500D02*
X167322500Y-91991250D01*
%TO.N,Net-(D35-Pad2)*%
X148272500Y-89852500D02*
X148272500Y-91122500D01*
X147002500Y-88582500D02*
X148272500Y-89852500D01*
X148272500Y-98341250D02*
X148356250Y-98425000D01*
X148272500Y-91122500D02*
X148272500Y-98341250D01*
%TO.N,Net-(D36-Pad2)*%
X129222500Y-89852500D02*
X129222500Y-91122500D01*
X127952500Y-88582500D02*
X129222500Y-89852500D01*
X129222500Y-98341250D02*
X129306250Y-98425000D01*
X129222500Y-91122500D02*
X129222500Y-98341250D01*
%TO.N,Net-(D37-Pad2)*%
X107791250Y-89852500D02*
X107791250Y-91122500D01*
X106521250Y-88582500D02*
X107791250Y-89852500D01*
X107791250Y-98341250D02*
X107875000Y-98425000D01*
X107791250Y-91122500D02*
X107791250Y-98341250D01*
%TO.N,Net-(D38-Pad2)*%
X88741250Y-89852500D02*
X88741250Y-91122500D01*
X87471250Y-88582500D02*
X88741250Y-89852500D01*
X88741250Y-98341250D02*
X88825000Y-98425000D01*
X88741250Y-91122500D02*
X88741250Y-98341250D01*
%TO.N,Net-(D39-Pad2)*%
X69691250Y-89852500D02*
X69691250Y-91122500D01*
X68421250Y-88582500D02*
X69691250Y-89852500D01*
X69691250Y-98341250D02*
X69775000Y-98425000D01*
X69691250Y-91122500D02*
X69691250Y-98341250D01*
%TO.N,Net-(D40-Pad2)*%
X50641250Y-89852500D02*
X50641250Y-91122500D01*
X49371250Y-88582500D02*
X50641250Y-89852500D01*
X50641250Y-98341250D02*
X50725000Y-98425000D01*
X50641250Y-91122500D02*
X50641250Y-98341250D01*
%TO.N,ROW4*%
X248278750Y-58832650D02*
X248691400Y-58420000D01*
X248278750Y-63690500D02*
X248278750Y-58832650D01*
%TO.N,Net-(D42-Pad2)*%
X215735000Y-108108750D02*
X215735000Y-109378750D01*
X214465000Y-106838750D02*
X215735000Y-108108750D01*
X215735000Y-116591250D02*
X215825000Y-116681250D01*
X215735000Y-109378750D02*
X215735000Y-116591250D01*
%TO.N,Net-(D43-Pad2)*%
X196685000Y-105441750D02*
X196685000Y-106711750D01*
X195415000Y-104171750D02*
X196685000Y-105441750D01*
X196685000Y-114210000D02*
X196775000Y-114300000D01*
X196685000Y-106711750D02*
X196685000Y-114210000D01*
%TO.N,Net-(D44-Pad2)*%
X177635000Y-105441750D02*
X177635000Y-106711750D01*
X176365000Y-104171750D02*
X177635000Y-105441750D01*
X177635000Y-114210000D02*
X177725000Y-114300000D01*
X177635000Y-106711750D02*
X177635000Y-114210000D01*
%TO.N,COL0*%
X235379295Y-110984159D02*
X235379295Y-111789307D01*
X233814591Y-109419455D02*
X235379295Y-110984159D01*
X216852500Y-85883750D02*
X216852500Y-87153750D01*
X218122500Y-84613750D02*
X216852500Y-85883750D01*
X216852500Y-66833750D02*
X216852500Y-68103750D01*
X218122500Y-65563750D02*
X216852500Y-66833750D01*
X216852500Y-47783750D02*
X216852500Y-49053750D01*
X218122500Y-46513750D02*
X216852500Y-47783750D01*
X216852500Y-28733750D02*
X216852500Y-30003750D01*
X218122500Y-27463750D02*
X216852500Y-28733750D01*
X215631249Y-44022499D02*
X218122500Y-46513750D01*
X215631249Y-36246249D02*
X215631249Y-44022499D01*
X216852500Y-35024998D02*
X215631249Y-36246249D01*
X216852500Y-30003750D02*
X216852500Y-35024998D01*
X215631249Y-63072499D02*
X218122500Y-65563750D01*
X215631249Y-55296249D02*
X215631249Y-63072499D01*
X216852500Y-54074998D02*
X215631249Y-55296249D01*
X216852500Y-49053750D02*
X216852500Y-54074998D01*
X215631249Y-82122499D02*
X218122500Y-84613750D01*
X215631249Y-74346249D02*
X215631249Y-82122499D01*
X216852500Y-73124998D02*
X215631249Y-74346249D01*
X216852500Y-68103750D02*
X216852500Y-73124998D01*
X215631249Y-99945001D02*
X225105703Y-109419455D01*
X216852500Y-92174998D02*
X215631249Y-93396249D01*
X225105703Y-109419455D02*
X233814591Y-109419455D01*
X215631249Y-93396249D02*
X215631249Y-99945001D01*
X216852500Y-87153750D02*
X216852500Y-92174998D01*
%TO.N,COL1*%
X208115000Y-108108750D02*
X208115000Y-109378750D01*
X209385000Y-106838750D02*
X208115000Y-108108750D01*
X197802500Y-83502500D02*
X197802500Y-84772500D01*
X199072500Y-82232500D02*
X197802500Y-83502500D01*
X197802500Y-45402500D02*
X197802500Y-46672500D01*
X199072500Y-44132500D02*
X197802500Y-45402500D01*
X197802500Y-26352500D02*
X197802500Y-27622500D01*
X199072500Y-25082500D02*
X197802500Y-26352500D01*
X197802500Y-64452500D02*
X197802500Y-65722500D01*
X199072500Y-63182500D02*
X197802500Y-64452500D01*
X196581249Y-33864999D02*
X196581249Y-41641249D01*
X197802500Y-32643748D02*
X196581249Y-33864999D01*
X196581249Y-41641249D02*
X199072500Y-44132500D01*
X197802500Y-27622500D02*
X197802500Y-32643748D01*
X197802500Y-51693748D02*
X196581249Y-52914999D01*
X196581249Y-60691249D02*
X199072500Y-63182500D01*
X197802500Y-46672500D02*
X197802500Y-51693748D01*
X196581249Y-79741249D02*
X199072500Y-82232500D01*
X196581249Y-69954085D02*
X196581249Y-79741249D01*
X197802500Y-68732834D02*
X196581249Y-69954085D01*
X197802500Y-65722500D02*
X197802500Y-68732834D01*
X196581249Y-94034999D02*
X209385000Y-106838750D01*
X197802500Y-89793748D02*
X196581249Y-91014999D01*
X196581249Y-91014999D02*
X196581249Y-94034999D01*
X197802500Y-84772500D02*
X197802500Y-89793748D01*
X196581249Y-52914999D02*
X196581249Y-60691249D01*
%TO.N,COL2*%
X189065000Y-105441750D02*
X189065000Y-106711750D01*
X190335000Y-104171750D02*
X189065000Y-105441750D01*
X178752500Y-23971250D02*
X178752500Y-25241250D01*
X180022500Y-22701250D02*
X178752500Y-23971250D01*
X178752500Y-81121250D02*
X178752500Y-82391250D01*
X180022500Y-79851250D02*
X178752500Y-81121250D01*
X178752500Y-43021250D02*
X178752500Y-44291250D01*
X180022500Y-41751250D02*
X178752500Y-43021250D01*
X178752500Y-62071250D02*
X178752500Y-63341250D01*
X180022500Y-60801250D02*
X178752500Y-62071250D01*
X177531249Y-39259999D02*
X180022500Y-41751250D01*
X177531249Y-31483749D02*
X177531249Y-39259999D01*
X178752500Y-30262498D02*
X177531249Y-31483749D01*
X178752500Y-25241250D02*
X178752500Y-30262498D01*
X177531249Y-58309999D02*
X180022500Y-60801250D01*
X177531249Y-50533749D02*
X177531249Y-58309999D01*
X178752500Y-49312498D02*
X177531249Y-50533749D01*
X178752500Y-44291250D02*
X178752500Y-49312498D01*
X177531249Y-77359999D02*
X180022500Y-79851250D01*
X178752500Y-68362498D02*
X177531249Y-69583749D01*
X177531249Y-69583749D02*
X177531249Y-77359999D01*
X178752500Y-63341250D02*
X178752500Y-68362498D01*
X177531249Y-91367999D02*
X190335000Y-104171750D01*
X177531249Y-86622835D02*
X177531249Y-91367999D01*
X178752500Y-85401584D02*
X177531249Y-86622835D01*
X178752500Y-82391250D02*
X178752500Y-85401584D01*
%TO.N,COL3*%
X169715750Y-106997500D02*
X170021250Y-106997500D01*
X170015000Y-105441750D02*
X170015000Y-106711750D01*
X171285000Y-104171750D02*
X170015000Y-105441750D01*
X159702500Y-26352500D02*
X159702500Y-27622500D01*
X160972500Y-25082500D02*
X159702500Y-26352500D01*
X159702500Y-45402500D02*
X159702500Y-46672500D01*
X160972500Y-44132500D02*
X159702500Y-45402500D01*
X159702500Y-64452500D02*
X159702500Y-65722500D01*
X160972500Y-63182500D02*
X159702500Y-64452500D01*
X159702500Y-83502500D02*
X159702500Y-84772500D01*
X160972500Y-82232500D02*
X159702500Y-83502500D01*
X158481249Y-41641249D02*
X160972500Y-44132500D01*
X158481249Y-33864999D02*
X158481249Y-41641249D01*
X159702500Y-32643748D02*
X158481249Y-33864999D01*
X159702500Y-27622500D02*
X159702500Y-32643748D01*
X158481249Y-60691249D02*
X160972500Y-63182500D01*
X159702500Y-51693748D02*
X158481249Y-52914999D01*
X159702500Y-46672500D02*
X159702500Y-51693748D01*
X158481249Y-79741249D02*
X160972500Y-82232500D01*
X158481249Y-71964999D02*
X158481249Y-79741249D01*
X159702500Y-70743748D02*
X158481249Y-71964999D01*
X159702500Y-65722500D02*
X159702500Y-70743748D01*
X169517998Y-104171750D02*
X171285000Y-104171750D01*
X158481249Y-89004085D02*
X158481249Y-93135001D01*
X158481249Y-93135001D02*
X169517998Y-104171750D01*
X159702500Y-87782834D02*
X158481249Y-89004085D01*
X159702500Y-84772500D02*
X159702500Y-87782834D01*
X158481249Y-55680999D02*
X158481249Y-60691249D01*
X158481249Y-52914999D02*
X158481249Y-55680999D01*
%TO.N,COL4*%
X154457500Y-101822250D02*
X154902000Y-102266750D01*
X140652500Y-32702500D02*
X140652500Y-33972500D01*
X141922500Y-31432500D02*
X140652500Y-32702500D01*
X140652500Y-51752500D02*
X140652500Y-53022500D01*
X141922500Y-50482500D02*
X140652500Y-51752500D01*
X140652500Y-70802500D02*
X140652500Y-72072500D01*
X141922500Y-69532500D02*
X140652500Y-70802500D01*
X140652500Y-89852500D02*
X140652500Y-91122500D01*
X141922500Y-88582500D02*
X140652500Y-89852500D01*
X139431249Y-47991249D02*
X141922500Y-50482500D01*
X139431249Y-40214999D02*
X139431249Y-47991249D01*
X140652500Y-38993748D02*
X139431249Y-40214999D01*
X140652500Y-33972500D02*
X140652500Y-38993748D01*
X139431249Y-67041249D02*
X141922500Y-69532500D01*
X139431249Y-59264999D02*
X139431249Y-67041249D01*
X140652500Y-58043748D02*
X139431249Y-59264999D01*
X140652500Y-53022500D02*
X140652500Y-58043748D01*
X139431249Y-86091249D02*
X141922500Y-88582500D01*
X139431249Y-78314999D02*
X139431249Y-86091249D01*
X140652500Y-77093748D02*
X139431249Y-78314999D01*
X140652500Y-72072500D02*
X140652500Y-77093748D01*
X139431249Y-99485001D02*
X142212998Y-102266750D01*
X142212998Y-102266750D02*
X154902000Y-102266750D01*
X139431249Y-97364999D02*
X139431249Y-99485001D01*
X140652500Y-96143748D02*
X139431249Y-97364999D01*
X140652500Y-91122500D02*
X140652500Y-96143748D01*
%TO.N,COL5*%
X121602500Y-32702500D02*
X121602500Y-33972500D01*
X122872500Y-31432500D02*
X121602500Y-32702500D01*
X121602500Y-51752500D02*
X121602500Y-53022500D01*
X122872500Y-50482500D02*
X121602500Y-51752500D01*
X121602500Y-70802500D02*
X121602500Y-72072500D01*
X122872500Y-69532500D02*
X121602500Y-70802500D01*
X121602500Y-89852500D02*
X121602500Y-91122500D01*
X122872500Y-88582500D02*
X121602500Y-89852500D01*
X120381249Y-38204085D02*
X120381249Y-47991249D01*
X121602500Y-36982834D02*
X120381249Y-38204085D01*
X121602500Y-33972500D02*
X121602500Y-36982834D01*
X120381249Y-59264999D02*
X120381249Y-67041249D01*
X121602500Y-58043748D02*
X120381249Y-59264999D01*
X120381249Y-67041249D02*
X122872500Y-69532500D01*
X121602500Y-53022500D02*
X121602500Y-58043748D01*
X120381249Y-78314999D02*
X120381249Y-86091249D01*
X121602500Y-77093748D02*
X120381249Y-78314999D01*
X120381249Y-86091249D02*
X122872500Y-88582500D01*
X121602500Y-72072500D02*
X121602500Y-77093748D01*
X120615125Y-48225125D02*
X122872500Y-50482500D01*
X120381249Y-47991249D02*
X120615125Y-48225125D01*
%TO.N,COL6*%
X100171250Y-89852500D02*
X100171250Y-91122500D01*
X101441250Y-88582500D02*
X100171250Y-89852500D01*
X100171250Y-70802500D02*
X100171250Y-72072500D01*
X101441250Y-69532500D02*
X100171250Y-70802500D01*
X100171250Y-51752500D02*
X100171250Y-53022500D01*
X101441250Y-50482500D02*
X100171250Y-51752500D01*
X100171250Y-32702500D02*
X100171250Y-33972500D01*
X101441250Y-31432500D02*
X100171250Y-32702500D01*
X98949999Y-47991249D02*
X101441250Y-50482500D01*
X100171250Y-36982834D02*
X98949999Y-38204085D01*
X100171250Y-33972500D02*
X100171250Y-36982834D01*
X98822999Y-66914249D02*
X101441250Y-69532500D01*
X98822999Y-59264999D02*
X98822999Y-66914249D01*
X100171250Y-57916748D02*
X98822999Y-59264999D01*
X100171250Y-53022500D02*
X100171250Y-57916748D01*
X98949999Y-86091249D02*
X101441250Y-88582500D01*
X100171250Y-77093748D02*
X98949999Y-78314999D01*
X98949999Y-78314999D02*
X98949999Y-86091249D01*
X100171250Y-72072500D02*
X100171250Y-77093748D01*
X98949999Y-38204085D02*
X98949999Y-42712251D01*
X98949999Y-47538251D02*
X98949999Y-47991249D01*
X98949999Y-42712251D02*
X98949999Y-47538251D01*
%TO.N,COL7*%
X81121250Y-32702500D02*
X81121250Y-33972500D01*
X82391250Y-31432500D02*
X81121250Y-32702500D01*
X81121250Y-51752500D02*
X81121250Y-53022500D01*
X82391250Y-50482500D02*
X81121250Y-51752500D01*
X81121250Y-70802500D02*
X81121250Y-72072500D01*
X82391250Y-69532500D02*
X81121250Y-70802500D01*
X81121250Y-89852500D02*
X81121250Y-91122500D01*
X82391250Y-88582500D02*
X81121250Y-89852500D01*
X81121250Y-38993748D02*
X79899999Y-40214999D01*
X79899999Y-47991249D02*
X82391250Y-50482500D01*
X81121250Y-33972500D02*
X81121250Y-38993748D01*
X79899999Y-57254085D02*
X79899999Y-67041249D01*
X79899999Y-67041249D02*
X82391250Y-69532500D01*
X81121250Y-56032834D02*
X79899999Y-57254085D01*
X81121250Y-53022500D02*
X81121250Y-56032834D01*
X79899999Y-86091249D02*
X82391250Y-88582500D01*
X79899999Y-78314999D02*
X79899999Y-86091249D01*
X81121250Y-77093748D02*
X79899999Y-78314999D01*
X81121250Y-72072500D02*
X81121250Y-77093748D01*
X119500750Y-43512501D02*
X118753751Y-44259500D01*
X110297751Y-44259500D02*
X109594750Y-44962501D01*
X118753751Y-44259500D02*
X110297751Y-44259500D01*
X79899999Y-45633251D02*
X79899999Y-47991249D01*
X79899999Y-40214999D02*
X79899999Y-45633251D01*
%TO.N,COL8*%
X62071250Y-89852500D02*
X62071250Y-91122500D01*
X63341250Y-88582500D02*
X62071250Y-89852500D01*
X62071250Y-70802500D02*
X62071250Y-72072500D01*
X63341250Y-69532500D02*
X62071250Y-70802500D01*
X62071250Y-51752500D02*
X62071250Y-53022500D01*
X63341250Y-50482500D02*
X62071250Y-51752500D01*
X62071250Y-32702500D02*
X62071250Y-33972500D01*
X63341250Y-31432500D02*
X62071250Y-32702500D01*
X60849999Y-47991249D02*
X63341250Y-50482500D01*
X62071250Y-38993748D02*
X60849999Y-40214999D01*
X62071250Y-33972500D02*
X62071250Y-38993748D01*
X60849999Y-67041249D02*
X63341250Y-69532500D01*
X60849999Y-59264999D02*
X60849999Y-67041249D01*
X62071250Y-58043748D02*
X60849999Y-59264999D01*
X62071250Y-53022500D02*
X62071250Y-58043748D01*
X60849999Y-86091249D02*
X63341250Y-88582500D01*
X60849999Y-78314999D02*
X60849999Y-86091249D01*
X62071250Y-77093748D02*
X60849999Y-78314999D01*
X62071250Y-72072500D02*
X62071250Y-77093748D01*
X60849999Y-43012749D02*
X60849999Y-47991249D01*
X60849999Y-40214999D02*
X60849999Y-43012749D01*
%TO.N,COL9*%
X43021250Y-32702500D02*
X43021250Y-33972500D01*
X44291250Y-31432500D02*
X43021250Y-32702500D01*
X43021250Y-51752500D02*
X43021250Y-53022500D01*
X44291250Y-50482500D02*
X43021250Y-51752500D01*
X43021250Y-70802500D02*
X43021250Y-72072500D01*
X44291250Y-69532500D02*
X43021250Y-70802500D01*
X43021250Y-89852500D02*
X43021250Y-91122500D01*
X44291250Y-88582500D02*
X43021250Y-89852500D01*
X43021250Y-38993748D02*
X41799999Y-40214999D01*
X43021250Y-33972500D02*
X43021250Y-38993748D01*
X41799999Y-67041249D02*
X44291250Y-69532500D01*
X41799999Y-59264999D02*
X41799999Y-67041249D01*
X43021250Y-58043748D02*
X41799999Y-59264999D01*
X43021250Y-53022500D02*
X43021250Y-58043748D01*
X41799999Y-86091249D02*
X44291250Y-88582500D01*
X41799999Y-78314999D02*
X41799999Y-86091249D01*
X43021250Y-77093748D02*
X41799999Y-78314999D01*
X43021250Y-72072500D02*
X43021250Y-77093748D01*
X41799999Y-40214999D02*
X41799999Y-47991249D01*
X236220000Y-50207200D02*
X235606300Y-49593500D01*
X236220000Y-58420000D02*
X236220000Y-50207200D01*
X117087750Y-50736500D02*
X112515750Y-50736500D01*
X42780000Y-48971250D02*
X44291250Y-50482500D01*
X41799999Y-47991249D02*
X42780000Y-48971250D01*
%TO.N,VCC*%
X238585000Y-38100000D02*
X238585000Y-43656250D01*
X238585000Y-52726750D02*
X242532000Y-56673750D01*
X238585000Y-43656250D02*
X238585000Y-52726750D01*
X248248551Y-81957822D02*
X254237269Y-87946540D01*
X245961000Y-66071750D02*
X248248551Y-68359301D01*
X248248551Y-68359301D02*
X248248551Y-81957822D01*
X242532000Y-62637752D02*
X245961000Y-66066752D01*
X245961000Y-66066752D02*
X245961000Y-66071750D01*
X242532000Y-61880750D02*
X242532000Y-62637752D01*
%TO.N,SDA*%
X240119000Y-46767750D02*
X240119000Y-53117750D01*
X252237269Y-91989981D02*
X252237269Y-91410642D01*
X251326750Y-92900500D02*
X252237269Y-91989981D01*
X240627000Y-82200750D02*
X251326750Y-92900500D01*
X240627000Y-61880750D02*
X240627000Y-82200750D01*
%TO.N,SCL*%
X250533000Y-80144195D02*
X255737269Y-85348464D01*
X250533000Y-58483674D02*
X250533000Y-80144195D01*
X249268025Y-57218699D02*
X250533000Y-58483674D01*
X248480773Y-57218699D02*
X249268025Y-57218699D01*
X247718699Y-44381301D02*
X247718699Y-56456625D01*
X247718699Y-56456625D02*
X248480773Y-57218699D01*
X248920000Y-43180000D02*
X247718699Y-44381301D01*
%TO.N,GND*%
X239386501Y-65881249D02*
X238061500Y-67206250D01*
X239386501Y-62070249D02*
X239386501Y-65881249D01*
X238070501Y-60754249D02*
X239386501Y-62070249D01*
X233680000Y-33257352D02*
X233680000Y-33020000D01*
X237558699Y-37136051D02*
X233680000Y-33257352D01*
X237558699Y-60242447D02*
X237558699Y-37136051D01*
X238070501Y-60754249D02*
X237558699Y-60242447D01*
X155119000Y-63476858D02*
X155083892Y-63476858D01*
X154844010Y-63716740D02*
X154844010Y-99286350D01*
X154844010Y-99286350D02*
X157402000Y-101844340D01*
X157402000Y-116331149D02*
X157696824Y-116331153D01*
X155083892Y-63476858D02*
X154844010Y-63716740D01*
X157402000Y-101844340D02*
X157402000Y-116766750D01*
X244561500Y-67206250D02*
X244561500Y-81309250D01*
X253726865Y-92919122D02*
X253332717Y-93313270D01*
X253726865Y-90474615D02*
X253726865Y-92919122D01*
X244561500Y-81309250D02*
X253726865Y-90474615D01*
%TO.N,Net-(SW0-Pad1)*%
X234881300Y-59526050D02*
X234881300Y-36761300D01*
X234881300Y-36761300D02*
X233680000Y-35560000D01*
X238061500Y-62706250D02*
X234881300Y-59526050D01*
%TO.N,LEFT*%
X155337631Y-116331118D02*
X155474311Y-116331120D01*
X156951990Y-114716760D02*
X154902000Y-116766750D01*
X154394000Y-99472750D02*
X156951990Y-102030740D01*
X156951990Y-102030740D02*
X156951990Y-114716760D01*
X154394000Y-62769750D02*
X154394000Y-99472750D01*
%TO.N,RIGHT*%
X155844001Y-63824859D02*
X155294020Y-64374840D01*
X155844001Y-62478751D02*
X155844001Y-63824859D01*
X155119000Y-61753750D02*
X155844001Y-62478751D01*
X155294020Y-64374840D02*
X155294020Y-99099950D01*
X155294020Y-99099950D02*
X157852010Y-101657940D01*
X157852010Y-114716760D02*
X159902000Y-116766750D01*
X157852010Y-101657940D02*
X157852010Y-114716760D01*
%TO.N,Net-(D41-Pad2)*%
X239019147Y-105020045D02*
X239189295Y-105190193D01*
X236354591Y-105020045D02*
X239019147Y-105020045D01*
X242540353Y-108541251D02*
X245618000Y-108541251D01*
X239189295Y-105190193D02*
X242540353Y-108541251D01*
%TD*%
M02*
