%TF.GenerationSoftware,KiCad,Pcbnew,(5.1.9-0-10_14)*%
%TF.CreationDate,2021-04-10T22:10:23-05:00*%
%TF.ProjectId,wren-left,7772656e-2d6c-4656-9674-2e6b69636164,rev?*%
%TF.SameCoordinates,Original*%
%TF.FileFunction,Legend,Bot*%
%TF.FilePolarity,Positive*%
%FSLAX46Y46*%
G04 Gerber Fmt 4.6, Leading zero omitted, Abs format (unit mm)*
G04 Created by KiCad (PCBNEW (5.1.9-0-10_14)) date 2021-04-10 22:10:23*
%MOMM*%
%LPD*%
G01*
G04 APERTURE LIST*
%ADD10C,0.381000*%
%ADD11C,0.120000*%
%ADD12C,0.203200*%
%ADD13C,0.150000*%
G04 APERTURE END LIST*
D10*
%TO.C,U1*%
X232410000Y-26828750D02*
X250190000Y-26828750D01*
X250190000Y-26828750D02*
X250190000Y-57308750D01*
X250190000Y-57308750D02*
X232410000Y-57308750D01*
X232410000Y-57308750D02*
X232410000Y-26828750D01*
X247650000Y-26828750D02*
X247650000Y-29368750D01*
X247650000Y-29368750D02*
X250190000Y-29368750D01*
D11*
%TO.C,R2*%
X241400064Y-45239000D02*
X240945936Y-45239000D01*
X241400064Y-46709000D02*
X240945936Y-46709000D01*
%TO.C,R1*%
X241273064Y-33047000D02*
X240818936Y-33047000D01*
X241273064Y-34517000D02*
X240818936Y-34517000D01*
%TO.C,D44*%
X182768750Y-118931250D02*
X180768750Y-118931250D01*
X180768750Y-118931250D02*
X180768750Y-115031250D01*
X182768750Y-118931250D02*
X182768750Y-115031250D01*
%TO.C,D43*%
X201818750Y-118931250D02*
X199818750Y-118931250D01*
X199818750Y-118931250D02*
X199818750Y-115031250D01*
X201818750Y-118931250D02*
X201818750Y-115031250D01*
%TO.C,D42*%
X220868750Y-121312500D02*
X218868750Y-121312500D01*
X218868750Y-121312500D02*
X218868750Y-117412500D01*
X220868750Y-121312500D02*
X220868750Y-117412500D01*
%TO.C,D41*%
X247717307Y-109796475D02*
X246717307Y-111528525D01*
X246717307Y-111528525D02*
X243339808Y-109578525D01*
X247717307Y-109796475D02*
X244339808Y-107846475D01*
%TO.C,D40*%
X55768750Y-95912500D02*
X53768750Y-95912500D01*
X53768750Y-95912500D02*
X53768750Y-92012500D01*
X55768750Y-95912500D02*
X55768750Y-92012500D01*
%TO.C,D39*%
X74818750Y-95912500D02*
X72818750Y-95912500D01*
X72818750Y-95912500D02*
X72818750Y-92012500D01*
X74818750Y-95912500D02*
X74818750Y-92012500D01*
%TO.C,D38*%
X93868750Y-95912500D02*
X91868750Y-95912500D01*
X91868750Y-95912500D02*
X91868750Y-92012500D01*
X93868750Y-95912500D02*
X93868750Y-92012500D01*
%TO.C,D37*%
X112918750Y-95912500D02*
X110918750Y-95912500D01*
X110918750Y-95912500D02*
X110918750Y-92012500D01*
X112918750Y-95912500D02*
X112918750Y-92012500D01*
%TO.C,D36*%
X134350000Y-95912500D02*
X132350000Y-95912500D01*
X132350000Y-95912500D02*
X132350000Y-92012500D01*
X134350000Y-95912500D02*
X134350000Y-92012500D01*
%TO.C,D35*%
X153400000Y-95912500D02*
X151400000Y-95912500D01*
X151400000Y-95912500D02*
X151400000Y-92012500D01*
X153400000Y-95912500D02*
X153400000Y-92012500D01*
%TO.C,D34*%
X172450000Y-92737500D02*
X170450000Y-92737500D01*
X170450000Y-92737500D02*
X170450000Y-88837500D01*
X172450000Y-92737500D02*
X172450000Y-88837500D01*
%TO.C,D33*%
X191500000Y-90356250D02*
X189500000Y-90356250D01*
X189500000Y-90356250D02*
X189500000Y-86456250D01*
X191500000Y-90356250D02*
X191500000Y-86456250D01*
%TO.C,D32*%
X210550000Y-92737500D02*
X208550000Y-92737500D01*
X208550000Y-92737500D02*
X208550000Y-88837500D01*
X210550000Y-92737500D02*
X210550000Y-88837500D01*
%TO.C,D31*%
X229600000Y-95118750D02*
X227600000Y-95118750D01*
X227600000Y-95118750D02*
X227600000Y-91218750D01*
X229600000Y-95118750D02*
X229600000Y-91218750D01*
%TO.C,D30*%
X55768750Y-76862500D02*
X53768750Y-76862500D01*
X53768750Y-76862500D02*
X53768750Y-72962500D01*
X55768750Y-76862500D02*
X55768750Y-72962500D01*
%TO.C,D29*%
X74818750Y-76862500D02*
X72818750Y-76862500D01*
X72818750Y-76862500D02*
X72818750Y-72962500D01*
X74818750Y-76862500D02*
X74818750Y-72962500D01*
%TO.C,D28*%
X93868750Y-76862500D02*
X91868750Y-76862500D01*
X91868750Y-76862500D02*
X91868750Y-72962500D01*
X93868750Y-76862500D02*
X93868750Y-72962500D01*
%TO.C,D27*%
X112918750Y-76862500D02*
X110918750Y-76862500D01*
X110918750Y-76862500D02*
X110918750Y-72962500D01*
X112918750Y-76862500D02*
X112918750Y-72962500D01*
%TO.C,D26*%
X134350000Y-76862500D02*
X132350000Y-76862500D01*
X132350000Y-76862500D02*
X132350000Y-72962500D01*
X134350000Y-76862500D02*
X134350000Y-72962500D01*
%TO.C,D25*%
X153400000Y-76862500D02*
X151400000Y-76862500D01*
X151400000Y-76862500D02*
X151400000Y-72962500D01*
X153400000Y-76862500D02*
X153400000Y-72962500D01*
%TO.C,D24*%
X172450000Y-73687500D02*
X170450000Y-73687500D01*
X170450000Y-73687500D02*
X170450000Y-69787500D01*
X172450000Y-73687500D02*
X172450000Y-69787500D01*
%TO.C,D23*%
X191500000Y-71306250D02*
X189500000Y-71306250D01*
X189500000Y-71306250D02*
X189500000Y-67406250D01*
X191500000Y-71306250D02*
X191500000Y-67406250D01*
%TO.C,D22*%
X210550000Y-73687500D02*
X208550000Y-73687500D01*
X208550000Y-73687500D02*
X208550000Y-69787500D01*
X210550000Y-73687500D02*
X210550000Y-69787500D01*
%TO.C,D21*%
X229600000Y-76068750D02*
X227600000Y-76068750D01*
X227600000Y-76068750D02*
X227600000Y-72168750D01*
X229600000Y-76068750D02*
X229600000Y-72168750D01*
%TO.C,D20*%
X55768750Y-57812500D02*
X53768750Y-57812500D01*
X53768750Y-57812500D02*
X53768750Y-53912500D01*
X55768750Y-57812500D02*
X55768750Y-53912500D01*
%TO.C,D19*%
X74818750Y-57812500D02*
X72818750Y-57812500D01*
X72818750Y-57812500D02*
X72818750Y-53912500D01*
X74818750Y-57812500D02*
X74818750Y-53912500D01*
%TO.C,D18*%
X93868750Y-57812500D02*
X91868750Y-57812500D01*
X91868750Y-57812500D02*
X91868750Y-53912500D01*
X93868750Y-57812500D02*
X93868750Y-53912500D01*
%TO.C,D17*%
X112918750Y-57812500D02*
X110918750Y-57812500D01*
X110918750Y-57812500D02*
X110918750Y-53912500D01*
X112918750Y-57812500D02*
X112918750Y-53912500D01*
%TO.C,D16*%
X134350000Y-57812500D02*
X132350000Y-57812500D01*
X132350000Y-57812500D02*
X132350000Y-53912500D01*
X134350000Y-57812500D02*
X134350000Y-53912500D01*
%TO.C,D15*%
X153400000Y-57812500D02*
X151400000Y-57812500D01*
X151400000Y-57812500D02*
X151400000Y-53912500D01*
X153400000Y-57812500D02*
X153400000Y-53912500D01*
%TO.C,D14*%
X172450000Y-54637500D02*
X170450000Y-54637500D01*
X170450000Y-54637500D02*
X170450000Y-50737500D01*
X172450000Y-54637500D02*
X172450000Y-50737500D01*
%TO.C,D13*%
X191500000Y-52256250D02*
X189500000Y-52256250D01*
X189500000Y-52256250D02*
X189500000Y-48356250D01*
X191500000Y-52256250D02*
X191500000Y-48356250D01*
%TO.C,D12*%
X210550000Y-54637500D02*
X208550000Y-54637500D01*
X208550000Y-54637500D02*
X208550000Y-50737500D01*
X210550000Y-54637500D02*
X210550000Y-50737500D01*
%TO.C,D11*%
X229600000Y-57018750D02*
X227600000Y-57018750D01*
X227600000Y-57018750D02*
X227600000Y-53118750D01*
X229600000Y-57018750D02*
X229600000Y-53118750D01*
%TO.C,D10*%
X55768750Y-38762500D02*
X53768750Y-38762500D01*
X53768750Y-38762500D02*
X53768750Y-34862500D01*
X55768750Y-38762500D02*
X55768750Y-34862500D01*
%TO.C,D9*%
X74818750Y-38762500D02*
X72818750Y-38762500D01*
X72818750Y-38762500D02*
X72818750Y-34862500D01*
X74818750Y-38762500D02*
X74818750Y-34862500D01*
%TO.C,D8*%
X93868750Y-38762500D02*
X91868750Y-38762500D01*
X91868750Y-38762500D02*
X91868750Y-34862500D01*
X93868750Y-38762500D02*
X93868750Y-34862500D01*
%TO.C,D7*%
X112918750Y-38762500D02*
X110918750Y-38762500D01*
X110918750Y-38762500D02*
X110918750Y-34862500D01*
X112918750Y-38762500D02*
X112918750Y-34862500D01*
%TO.C,D6*%
X134350000Y-38762500D02*
X132350000Y-38762500D01*
X132350000Y-38762500D02*
X132350000Y-34862500D01*
X134350000Y-38762500D02*
X134350000Y-34862500D01*
%TO.C,D5*%
X153400000Y-38762500D02*
X151400000Y-38762500D01*
X151400000Y-38762500D02*
X151400000Y-34862500D01*
X153400000Y-38762500D02*
X153400000Y-34862500D01*
%TO.C,D4*%
X172450000Y-35587500D02*
X170450000Y-35587500D01*
X170450000Y-35587500D02*
X170450000Y-31687500D01*
X172450000Y-35587500D02*
X172450000Y-31687500D01*
%TO.C,D3*%
X191500000Y-33206250D02*
X189500000Y-33206250D01*
X189500000Y-33206250D02*
X189500000Y-29306250D01*
X191500000Y-33206250D02*
X191500000Y-29306250D01*
%TO.C,D2*%
X210550000Y-35587500D02*
X208550000Y-35587500D01*
X208550000Y-35587500D02*
X208550000Y-31687500D01*
X210550000Y-35587500D02*
X210550000Y-31687500D01*
%TO.C,D1*%
X229600000Y-37906250D02*
X227600000Y-37906250D01*
X227600000Y-37906250D02*
X227600000Y-34006250D01*
X229600000Y-37906250D02*
X229600000Y-34006250D01*
%TO.C,U1*%
D12*
X242229523Y-40907607D02*
X243257619Y-40907607D01*
X243378571Y-40980178D01*
X243439047Y-41052750D01*
X243499523Y-41197892D01*
X243499523Y-41488178D01*
X243439047Y-41633321D01*
X243378571Y-41705892D01*
X243257619Y-41778464D01*
X242229523Y-41778464D01*
X243499523Y-43302464D02*
X243499523Y-42431607D01*
X243499523Y-42867035D02*
X242229523Y-42867035D01*
X242410952Y-42721892D01*
X242531904Y-42576750D01*
X242592380Y-42431607D01*
%TO.C,R2*%
D13*
X241339666Y-44776380D02*
X241673000Y-44300190D01*
X241911095Y-44776380D02*
X241911095Y-43776380D01*
X241530142Y-43776380D01*
X241434904Y-43824000D01*
X241387285Y-43871619D01*
X241339666Y-43966857D01*
X241339666Y-44109714D01*
X241387285Y-44204952D01*
X241434904Y-44252571D01*
X241530142Y-44300190D01*
X241911095Y-44300190D01*
X240958714Y-43871619D02*
X240911095Y-43824000D01*
X240815857Y-43776380D01*
X240577761Y-43776380D01*
X240482523Y-43824000D01*
X240434904Y-43871619D01*
X240387285Y-43966857D01*
X240387285Y-44062095D01*
X240434904Y-44204952D01*
X241006333Y-44776380D01*
X240387285Y-44776380D01*
%TO.C,R1*%
X241212666Y-32584380D02*
X241546000Y-32108190D01*
X241784095Y-32584380D02*
X241784095Y-31584380D01*
X241403142Y-31584380D01*
X241307904Y-31632000D01*
X241260285Y-31679619D01*
X241212666Y-31774857D01*
X241212666Y-31917714D01*
X241260285Y-32012952D01*
X241307904Y-32060571D01*
X241403142Y-32108190D01*
X241784095Y-32108190D01*
X240260285Y-32584380D02*
X240831714Y-32584380D01*
X240546000Y-32584380D02*
X240546000Y-31584380D01*
X240641238Y-31727238D01*
X240736476Y-31822476D01*
X240831714Y-31870095D01*
%TO.C,D44*%
X184221130Y-115466964D02*
X183221130Y-115466964D01*
X183221130Y-115705059D01*
X183268750Y-115847916D01*
X183363988Y-115943154D01*
X183459226Y-115990773D01*
X183649702Y-116038392D01*
X183792559Y-116038392D01*
X183983035Y-115990773D01*
X184078273Y-115943154D01*
X184173511Y-115847916D01*
X184221130Y-115705059D01*
X184221130Y-115466964D01*
X183554464Y-116895535D02*
X184221130Y-116895535D01*
X183173511Y-116657440D02*
X183887797Y-116419345D01*
X183887797Y-117038392D01*
X183554464Y-117847916D02*
X184221130Y-117847916D01*
X183173511Y-117609821D02*
X183887797Y-117371726D01*
X183887797Y-117990773D01*
%TO.C,D43*%
X203271130Y-115466964D02*
X202271130Y-115466964D01*
X202271130Y-115705059D01*
X202318750Y-115847916D01*
X202413988Y-115943154D01*
X202509226Y-115990773D01*
X202699702Y-116038392D01*
X202842559Y-116038392D01*
X203033035Y-115990773D01*
X203128273Y-115943154D01*
X203223511Y-115847916D01*
X203271130Y-115705059D01*
X203271130Y-115466964D01*
X202604464Y-116895535D02*
X203271130Y-116895535D01*
X202223511Y-116657440D02*
X202937797Y-116419345D01*
X202937797Y-117038392D01*
X202271130Y-117324107D02*
X202271130Y-117943154D01*
X202652083Y-117609821D01*
X202652083Y-117752678D01*
X202699702Y-117847916D01*
X202747321Y-117895535D01*
X202842559Y-117943154D01*
X203080654Y-117943154D01*
X203175892Y-117895535D01*
X203223511Y-117847916D01*
X203271130Y-117752678D01*
X203271130Y-117466964D01*
X203223511Y-117371726D01*
X203175892Y-117324107D01*
%TO.C,D42*%
X222321130Y-117848214D02*
X221321130Y-117848214D01*
X221321130Y-118086309D01*
X221368750Y-118229166D01*
X221463988Y-118324404D01*
X221559226Y-118372023D01*
X221749702Y-118419642D01*
X221892559Y-118419642D01*
X222083035Y-118372023D01*
X222178273Y-118324404D01*
X222273511Y-118229166D01*
X222321130Y-118086309D01*
X222321130Y-117848214D01*
X221654464Y-119276785D02*
X222321130Y-119276785D01*
X221273511Y-119038690D02*
X221987797Y-118800595D01*
X221987797Y-119419642D01*
X221416369Y-119752976D02*
X221368750Y-119800595D01*
X221321130Y-119895833D01*
X221321130Y-120133928D01*
X221368750Y-120229166D01*
X221416369Y-120276785D01*
X221511607Y-120324404D01*
X221606845Y-120324404D01*
X221749702Y-120276785D01*
X222321130Y-119705357D01*
X222321130Y-120324404D01*
%TO.C,D41*%
X247094161Y-108804365D02*
X247594161Y-107938339D01*
X247387965Y-107819292D01*
X247240437Y-107789102D01*
X247110340Y-107823962D01*
X247021481Y-107882631D01*
X246885004Y-108023779D01*
X246813575Y-108147497D01*
X246759577Y-108336263D01*
X246753197Y-108442552D01*
X246788056Y-108572649D01*
X246887965Y-108685317D01*
X247094161Y-108804365D01*
X246190315Y-107512729D02*
X245856982Y-108090079D01*
X246586988Y-107301862D02*
X246436042Y-108039499D01*
X245899931Y-107729975D01*
X244949717Y-107566270D02*
X245444589Y-107851984D01*
X245197153Y-107709127D02*
X245697153Y-106843101D01*
X245708203Y-107014438D01*
X245743063Y-107144536D01*
X245801732Y-107233394D01*
%TO.C,D40*%
X57221130Y-92448214D02*
X56221130Y-92448214D01*
X56221130Y-92686309D01*
X56268750Y-92829166D01*
X56363988Y-92924404D01*
X56459226Y-92972023D01*
X56649702Y-93019642D01*
X56792559Y-93019642D01*
X56983035Y-92972023D01*
X57078273Y-92924404D01*
X57173511Y-92829166D01*
X57221130Y-92686309D01*
X57221130Y-92448214D01*
X56554464Y-93876785D02*
X57221130Y-93876785D01*
X56173511Y-93638690D02*
X56887797Y-93400595D01*
X56887797Y-94019642D01*
X56221130Y-94591071D02*
X56221130Y-94686309D01*
X56268750Y-94781547D01*
X56316369Y-94829166D01*
X56411607Y-94876785D01*
X56602083Y-94924404D01*
X56840178Y-94924404D01*
X57030654Y-94876785D01*
X57125892Y-94829166D01*
X57173511Y-94781547D01*
X57221130Y-94686309D01*
X57221130Y-94591071D01*
X57173511Y-94495833D01*
X57125892Y-94448214D01*
X57030654Y-94400595D01*
X56840178Y-94352976D01*
X56602083Y-94352976D01*
X56411607Y-94400595D01*
X56316369Y-94448214D01*
X56268750Y-94495833D01*
X56221130Y-94591071D01*
%TO.C,D39*%
X76271130Y-92448214D02*
X75271130Y-92448214D01*
X75271130Y-92686309D01*
X75318750Y-92829166D01*
X75413988Y-92924404D01*
X75509226Y-92972023D01*
X75699702Y-93019642D01*
X75842559Y-93019642D01*
X76033035Y-92972023D01*
X76128273Y-92924404D01*
X76223511Y-92829166D01*
X76271130Y-92686309D01*
X76271130Y-92448214D01*
X75271130Y-93352976D02*
X75271130Y-93972023D01*
X75652083Y-93638690D01*
X75652083Y-93781547D01*
X75699702Y-93876785D01*
X75747321Y-93924404D01*
X75842559Y-93972023D01*
X76080654Y-93972023D01*
X76175892Y-93924404D01*
X76223511Y-93876785D01*
X76271130Y-93781547D01*
X76271130Y-93495833D01*
X76223511Y-93400595D01*
X76175892Y-93352976D01*
X76271130Y-94448214D02*
X76271130Y-94638690D01*
X76223511Y-94733928D01*
X76175892Y-94781547D01*
X76033035Y-94876785D01*
X75842559Y-94924404D01*
X75461607Y-94924404D01*
X75366369Y-94876785D01*
X75318750Y-94829166D01*
X75271130Y-94733928D01*
X75271130Y-94543452D01*
X75318750Y-94448214D01*
X75366369Y-94400595D01*
X75461607Y-94352976D01*
X75699702Y-94352976D01*
X75794940Y-94400595D01*
X75842559Y-94448214D01*
X75890178Y-94543452D01*
X75890178Y-94733928D01*
X75842559Y-94829166D01*
X75794940Y-94876785D01*
X75699702Y-94924404D01*
%TO.C,D38*%
X95321130Y-92448214D02*
X94321130Y-92448214D01*
X94321130Y-92686309D01*
X94368750Y-92829166D01*
X94463988Y-92924404D01*
X94559226Y-92972023D01*
X94749702Y-93019642D01*
X94892559Y-93019642D01*
X95083035Y-92972023D01*
X95178273Y-92924404D01*
X95273511Y-92829166D01*
X95321130Y-92686309D01*
X95321130Y-92448214D01*
X94321130Y-93352976D02*
X94321130Y-93972023D01*
X94702083Y-93638690D01*
X94702083Y-93781547D01*
X94749702Y-93876785D01*
X94797321Y-93924404D01*
X94892559Y-93972023D01*
X95130654Y-93972023D01*
X95225892Y-93924404D01*
X95273511Y-93876785D01*
X95321130Y-93781547D01*
X95321130Y-93495833D01*
X95273511Y-93400595D01*
X95225892Y-93352976D01*
X94749702Y-94543452D02*
X94702083Y-94448214D01*
X94654464Y-94400595D01*
X94559226Y-94352976D01*
X94511607Y-94352976D01*
X94416369Y-94400595D01*
X94368750Y-94448214D01*
X94321130Y-94543452D01*
X94321130Y-94733928D01*
X94368750Y-94829166D01*
X94416369Y-94876785D01*
X94511607Y-94924404D01*
X94559226Y-94924404D01*
X94654464Y-94876785D01*
X94702083Y-94829166D01*
X94749702Y-94733928D01*
X94749702Y-94543452D01*
X94797321Y-94448214D01*
X94844940Y-94400595D01*
X94940178Y-94352976D01*
X95130654Y-94352976D01*
X95225892Y-94400595D01*
X95273511Y-94448214D01*
X95321130Y-94543452D01*
X95321130Y-94733928D01*
X95273511Y-94829166D01*
X95225892Y-94876785D01*
X95130654Y-94924404D01*
X94940178Y-94924404D01*
X94844940Y-94876785D01*
X94797321Y-94829166D01*
X94749702Y-94733928D01*
%TO.C,D37*%
X114371130Y-92448214D02*
X113371130Y-92448214D01*
X113371130Y-92686309D01*
X113418750Y-92829166D01*
X113513988Y-92924404D01*
X113609226Y-92972023D01*
X113799702Y-93019642D01*
X113942559Y-93019642D01*
X114133035Y-92972023D01*
X114228273Y-92924404D01*
X114323511Y-92829166D01*
X114371130Y-92686309D01*
X114371130Y-92448214D01*
X113371130Y-93352976D02*
X113371130Y-93972023D01*
X113752083Y-93638690D01*
X113752083Y-93781547D01*
X113799702Y-93876785D01*
X113847321Y-93924404D01*
X113942559Y-93972023D01*
X114180654Y-93972023D01*
X114275892Y-93924404D01*
X114323511Y-93876785D01*
X114371130Y-93781547D01*
X114371130Y-93495833D01*
X114323511Y-93400595D01*
X114275892Y-93352976D01*
X113371130Y-94305357D02*
X113371130Y-94972023D01*
X114371130Y-94543452D01*
%TO.C,D36*%
X135802380Y-92448214D02*
X134802380Y-92448214D01*
X134802380Y-92686309D01*
X134850000Y-92829166D01*
X134945238Y-92924404D01*
X135040476Y-92972023D01*
X135230952Y-93019642D01*
X135373809Y-93019642D01*
X135564285Y-92972023D01*
X135659523Y-92924404D01*
X135754761Y-92829166D01*
X135802380Y-92686309D01*
X135802380Y-92448214D01*
X134802380Y-93352976D02*
X134802380Y-93972023D01*
X135183333Y-93638690D01*
X135183333Y-93781547D01*
X135230952Y-93876785D01*
X135278571Y-93924404D01*
X135373809Y-93972023D01*
X135611904Y-93972023D01*
X135707142Y-93924404D01*
X135754761Y-93876785D01*
X135802380Y-93781547D01*
X135802380Y-93495833D01*
X135754761Y-93400595D01*
X135707142Y-93352976D01*
X134802380Y-94829166D02*
X134802380Y-94638690D01*
X134850000Y-94543452D01*
X134897619Y-94495833D01*
X135040476Y-94400595D01*
X135230952Y-94352976D01*
X135611904Y-94352976D01*
X135707142Y-94400595D01*
X135754761Y-94448214D01*
X135802380Y-94543452D01*
X135802380Y-94733928D01*
X135754761Y-94829166D01*
X135707142Y-94876785D01*
X135611904Y-94924404D01*
X135373809Y-94924404D01*
X135278571Y-94876785D01*
X135230952Y-94829166D01*
X135183333Y-94733928D01*
X135183333Y-94543452D01*
X135230952Y-94448214D01*
X135278571Y-94400595D01*
X135373809Y-94352976D01*
%TO.C,D35*%
X154852380Y-92448214D02*
X153852380Y-92448214D01*
X153852380Y-92686309D01*
X153900000Y-92829166D01*
X153995238Y-92924404D01*
X154090476Y-92972023D01*
X154280952Y-93019642D01*
X154423809Y-93019642D01*
X154614285Y-92972023D01*
X154709523Y-92924404D01*
X154804761Y-92829166D01*
X154852380Y-92686309D01*
X154852380Y-92448214D01*
X153852380Y-93352976D02*
X153852380Y-93972023D01*
X154233333Y-93638690D01*
X154233333Y-93781547D01*
X154280952Y-93876785D01*
X154328571Y-93924404D01*
X154423809Y-93972023D01*
X154661904Y-93972023D01*
X154757142Y-93924404D01*
X154804761Y-93876785D01*
X154852380Y-93781547D01*
X154852380Y-93495833D01*
X154804761Y-93400595D01*
X154757142Y-93352976D01*
X153852380Y-94876785D02*
X153852380Y-94400595D01*
X154328571Y-94352976D01*
X154280952Y-94400595D01*
X154233333Y-94495833D01*
X154233333Y-94733928D01*
X154280952Y-94829166D01*
X154328571Y-94876785D01*
X154423809Y-94924404D01*
X154661904Y-94924404D01*
X154757142Y-94876785D01*
X154804761Y-94829166D01*
X154852380Y-94733928D01*
X154852380Y-94495833D01*
X154804761Y-94400595D01*
X154757142Y-94352976D01*
%TO.C,D34*%
X173902380Y-89273214D02*
X172902380Y-89273214D01*
X172902380Y-89511309D01*
X172950000Y-89654166D01*
X173045238Y-89749404D01*
X173140476Y-89797023D01*
X173330952Y-89844642D01*
X173473809Y-89844642D01*
X173664285Y-89797023D01*
X173759523Y-89749404D01*
X173854761Y-89654166D01*
X173902380Y-89511309D01*
X173902380Y-89273214D01*
X172902380Y-90177976D02*
X172902380Y-90797023D01*
X173283333Y-90463690D01*
X173283333Y-90606547D01*
X173330952Y-90701785D01*
X173378571Y-90749404D01*
X173473809Y-90797023D01*
X173711904Y-90797023D01*
X173807142Y-90749404D01*
X173854761Y-90701785D01*
X173902380Y-90606547D01*
X173902380Y-90320833D01*
X173854761Y-90225595D01*
X173807142Y-90177976D01*
X173235714Y-91654166D02*
X173902380Y-91654166D01*
X172854761Y-91416071D02*
X173569047Y-91177976D01*
X173569047Y-91797023D01*
%TO.C,D33*%
X192952380Y-86891964D02*
X191952380Y-86891964D01*
X191952380Y-87130059D01*
X192000000Y-87272916D01*
X192095238Y-87368154D01*
X192190476Y-87415773D01*
X192380952Y-87463392D01*
X192523809Y-87463392D01*
X192714285Y-87415773D01*
X192809523Y-87368154D01*
X192904761Y-87272916D01*
X192952380Y-87130059D01*
X192952380Y-86891964D01*
X191952380Y-87796726D02*
X191952380Y-88415773D01*
X192333333Y-88082440D01*
X192333333Y-88225297D01*
X192380952Y-88320535D01*
X192428571Y-88368154D01*
X192523809Y-88415773D01*
X192761904Y-88415773D01*
X192857142Y-88368154D01*
X192904761Y-88320535D01*
X192952380Y-88225297D01*
X192952380Y-87939583D01*
X192904761Y-87844345D01*
X192857142Y-87796726D01*
X191952380Y-88749107D02*
X191952380Y-89368154D01*
X192333333Y-89034821D01*
X192333333Y-89177678D01*
X192380952Y-89272916D01*
X192428571Y-89320535D01*
X192523809Y-89368154D01*
X192761904Y-89368154D01*
X192857142Y-89320535D01*
X192904761Y-89272916D01*
X192952380Y-89177678D01*
X192952380Y-88891964D01*
X192904761Y-88796726D01*
X192857142Y-88749107D01*
%TO.C,D32*%
X212002380Y-89273214D02*
X211002380Y-89273214D01*
X211002380Y-89511309D01*
X211050000Y-89654166D01*
X211145238Y-89749404D01*
X211240476Y-89797023D01*
X211430952Y-89844642D01*
X211573809Y-89844642D01*
X211764285Y-89797023D01*
X211859523Y-89749404D01*
X211954761Y-89654166D01*
X212002380Y-89511309D01*
X212002380Y-89273214D01*
X211002380Y-90177976D02*
X211002380Y-90797023D01*
X211383333Y-90463690D01*
X211383333Y-90606547D01*
X211430952Y-90701785D01*
X211478571Y-90749404D01*
X211573809Y-90797023D01*
X211811904Y-90797023D01*
X211907142Y-90749404D01*
X211954761Y-90701785D01*
X212002380Y-90606547D01*
X212002380Y-90320833D01*
X211954761Y-90225595D01*
X211907142Y-90177976D01*
X211097619Y-91177976D02*
X211050000Y-91225595D01*
X211002380Y-91320833D01*
X211002380Y-91558928D01*
X211050000Y-91654166D01*
X211097619Y-91701785D01*
X211192857Y-91749404D01*
X211288095Y-91749404D01*
X211430952Y-91701785D01*
X212002380Y-91130357D01*
X212002380Y-91749404D01*
%TO.C,D31*%
X231052380Y-91654464D02*
X230052380Y-91654464D01*
X230052380Y-91892559D01*
X230100000Y-92035416D01*
X230195238Y-92130654D01*
X230290476Y-92178273D01*
X230480952Y-92225892D01*
X230623809Y-92225892D01*
X230814285Y-92178273D01*
X230909523Y-92130654D01*
X231004761Y-92035416D01*
X231052380Y-91892559D01*
X231052380Y-91654464D01*
X230052380Y-92559226D02*
X230052380Y-93178273D01*
X230433333Y-92844940D01*
X230433333Y-92987797D01*
X230480952Y-93083035D01*
X230528571Y-93130654D01*
X230623809Y-93178273D01*
X230861904Y-93178273D01*
X230957142Y-93130654D01*
X231004761Y-93083035D01*
X231052380Y-92987797D01*
X231052380Y-92702083D01*
X231004761Y-92606845D01*
X230957142Y-92559226D01*
X231052380Y-94130654D02*
X231052380Y-93559226D01*
X231052380Y-93844940D02*
X230052380Y-93844940D01*
X230195238Y-93749702D01*
X230290476Y-93654464D01*
X230338095Y-93559226D01*
%TO.C,D30*%
X57221130Y-73398214D02*
X56221130Y-73398214D01*
X56221130Y-73636309D01*
X56268750Y-73779166D01*
X56363988Y-73874404D01*
X56459226Y-73922023D01*
X56649702Y-73969642D01*
X56792559Y-73969642D01*
X56983035Y-73922023D01*
X57078273Y-73874404D01*
X57173511Y-73779166D01*
X57221130Y-73636309D01*
X57221130Y-73398214D01*
X56221130Y-74302976D02*
X56221130Y-74922023D01*
X56602083Y-74588690D01*
X56602083Y-74731547D01*
X56649702Y-74826785D01*
X56697321Y-74874404D01*
X56792559Y-74922023D01*
X57030654Y-74922023D01*
X57125892Y-74874404D01*
X57173511Y-74826785D01*
X57221130Y-74731547D01*
X57221130Y-74445833D01*
X57173511Y-74350595D01*
X57125892Y-74302976D01*
X56221130Y-75541071D02*
X56221130Y-75636309D01*
X56268750Y-75731547D01*
X56316369Y-75779166D01*
X56411607Y-75826785D01*
X56602083Y-75874404D01*
X56840178Y-75874404D01*
X57030654Y-75826785D01*
X57125892Y-75779166D01*
X57173511Y-75731547D01*
X57221130Y-75636309D01*
X57221130Y-75541071D01*
X57173511Y-75445833D01*
X57125892Y-75398214D01*
X57030654Y-75350595D01*
X56840178Y-75302976D01*
X56602083Y-75302976D01*
X56411607Y-75350595D01*
X56316369Y-75398214D01*
X56268750Y-75445833D01*
X56221130Y-75541071D01*
%TO.C,D29*%
X76271130Y-73398214D02*
X75271130Y-73398214D01*
X75271130Y-73636309D01*
X75318750Y-73779166D01*
X75413988Y-73874404D01*
X75509226Y-73922023D01*
X75699702Y-73969642D01*
X75842559Y-73969642D01*
X76033035Y-73922023D01*
X76128273Y-73874404D01*
X76223511Y-73779166D01*
X76271130Y-73636309D01*
X76271130Y-73398214D01*
X75366369Y-74350595D02*
X75318750Y-74398214D01*
X75271130Y-74493452D01*
X75271130Y-74731547D01*
X75318750Y-74826785D01*
X75366369Y-74874404D01*
X75461607Y-74922023D01*
X75556845Y-74922023D01*
X75699702Y-74874404D01*
X76271130Y-74302976D01*
X76271130Y-74922023D01*
X76271130Y-75398214D02*
X76271130Y-75588690D01*
X76223511Y-75683928D01*
X76175892Y-75731547D01*
X76033035Y-75826785D01*
X75842559Y-75874404D01*
X75461607Y-75874404D01*
X75366369Y-75826785D01*
X75318750Y-75779166D01*
X75271130Y-75683928D01*
X75271130Y-75493452D01*
X75318750Y-75398214D01*
X75366369Y-75350595D01*
X75461607Y-75302976D01*
X75699702Y-75302976D01*
X75794940Y-75350595D01*
X75842559Y-75398214D01*
X75890178Y-75493452D01*
X75890178Y-75683928D01*
X75842559Y-75779166D01*
X75794940Y-75826785D01*
X75699702Y-75874404D01*
%TO.C,D28*%
X95321130Y-73398214D02*
X94321130Y-73398214D01*
X94321130Y-73636309D01*
X94368750Y-73779166D01*
X94463988Y-73874404D01*
X94559226Y-73922023D01*
X94749702Y-73969642D01*
X94892559Y-73969642D01*
X95083035Y-73922023D01*
X95178273Y-73874404D01*
X95273511Y-73779166D01*
X95321130Y-73636309D01*
X95321130Y-73398214D01*
X94416369Y-74350595D02*
X94368750Y-74398214D01*
X94321130Y-74493452D01*
X94321130Y-74731547D01*
X94368750Y-74826785D01*
X94416369Y-74874404D01*
X94511607Y-74922023D01*
X94606845Y-74922023D01*
X94749702Y-74874404D01*
X95321130Y-74302976D01*
X95321130Y-74922023D01*
X94749702Y-75493452D02*
X94702083Y-75398214D01*
X94654464Y-75350595D01*
X94559226Y-75302976D01*
X94511607Y-75302976D01*
X94416369Y-75350595D01*
X94368750Y-75398214D01*
X94321130Y-75493452D01*
X94321130Y-75683928D01*
X94368750Y-75779166D01*
X94416369Y-75826785D01*
X94511607Y-75874404D01*
X94559226Y-75874404D01*
X94654464Y-75826785D01*
X94702083Y-75779166D01*
X94749702Y-75683928D01*
X94749702Y-75493452D01*
X94797321Y-75398214D01*
X94844940Y-75350595D01*
X94940178Y-75302976D01*
X95130654Y-75302976D01*
X95225892Y-75350595D01*
X95273511Y-75398214D01*
X95321130Y-75493452D01*
X95321130Y-75683928D01*
X95273511Y-75779166D01*
X95225892Y-75826785D01*
X95130654Y-75874404D01*
X94940178Y-75874404D01*
X94844940Y-75826785D01*
X94797321Y-75779166D01*
X94749702Y-75683928D01*
%TO.C,D27*%
X114371130Y-73398214D02*
X113371130Y-73398214D01*
X113371130Y-73636309D01*
X113418750Y-73779166D01*
X113513988Y-73874404D01*
X113609226Y-73922023D01*
X113799702Y-73969642D01*
X113942559Y-73969642D01*
X114133035Y-73922023D01*
X114228273Y-73874404D01*
X114323511Y-73779166D01*
X114371130Y-73636309D01*
X114371130Y-73398214D01*
X113466369Y-74350595D02*
X113418750Y-74398214D01*
X113371130Y-74493452D01*
X113371130Y-74731547D01*
X113418750Y-74826785D01*
X113466369Y-74874404D01*
X113561607Y-74922023D01*
X113656845Y-74922023D01*
X113799702Y-74874404D01*
X114371130Y-74302976D01*
X114371130Y-74922023D01*
X113371130Y-75255357D02*
X113371130Y-75922023D01*
X114371130Y-75493452D01*
%TO.C,D26*%
X135802380Y-73398214D02*
X134802380Y-73398214D01*
X134802380Y-73636309D01*
X134850000Y-73779166D01*
X134945238Y-73874404D01*
X135040476Y-73922023D01*
X135230952Y-73969642D01*
X135373809Y-73969642D01*
X135564285Y-73922023D01*
X135659523Y-73874404D01*
X135754761Y-73779166D01*
X135802380Y-73636309D01*
X135802380Y-73398214D01*
X134897619Y-74350595D02*
X134850000Y-74398214D01*
X134802380Y-74493452D01*
X134802380Y-74731547D01*
X134850000Y-74826785D01*
X134897619Y-74874404D01*
X134992857Y-74922023D01*
X135088095Y-74922023D01*
X135230952Y-74874404D01*
X135802380Y-74302976D01*
X135802380Y-74922023D01*
X134802380Y-75779166D02*
X134802380Y-75588690D01*
X134850000Y-75493452D01*
X134897619Y-75445833D01*
X135040476Y-75350595D01*
X135230952Y-75302976D01*
X135611904Y-75302976D01*
X135707142Y-75350595D01*
X135754761Y-75398214D01*
X135802380Y-75493452D01*
X135802380Y-75683928D01*
X135754761Y-75779166D01*
X135707142Y-75826785D01*
X135611904Y-75874404D01*
X135373809Y-75874404D01*
X135278571Y-75826785D01*
X135230952Y-75779166D01*
X135183333Y-75683928D01*
X135183333Y-75493452D01*
X135230952Y-75398214D01*
X135278571Y-75350595D01*
X135373809Y-75302976D01*
%TO.C,D25*%
X154852380Y-73398214D02*
X153852380Y-73398214D01*
X153852380Y-73636309D01*
X153900000Y-73779166D01*
X153995238Y-73874404D01*
X154090476Y-73922023D01*
X154280952Y-73969642D01*
X154423809Y-73969642D01*
X154614285Y-73922023D01*
X154709523Y-73874404D01*
X154804761Y-73779166D01*
X154852380Y-73636309D01*
X154852380Y-73398214D01*
X153947619Y-74350595D02*
X153900000Y-74398214D01*
X153852380Y-74493452D01*
X153852380Y-74731547D01*
X153900000Y-74826785D01*
X153947619Y-74874404D01*
X154042857Y-74922023D01*
X154138095Y-74922023D01*
X154280952Y-74874404D01*
X154852380Y-74302976D01*
X154852380Y-74922023D01*
X153852380Y-75826785D02*
X153852380Y-75350595D01*
X154328571Y-75302976D01*
X154280952Y-75350595D01*
X154233333Y-75445833D01*
X154233333Y-75683928D01*
X154280952Y-75779166D01*
X154328571Y-75826785D01*
X154423809Y-75874404D01*
X154661904Y-75874404D01*
X154757142Y-75826785D01*
X154804761Y-75779166D01*
X154852380Y-75683928D01*
X154852380Y-75445833D01*
X154804761Y-75350595D01*
X154757142Y-75302976D01*
%TO.C,D24*%
X173902380Y-70223214D02*
X172902380Y-70223214D01*
X172902380Y-70461309D01*
X172950000Y-70604166D01*
X173045238Y-70699404D01*
X173140476Y-70747023D01*
X173330952Y-70794642D01*
X173473809Y-70794642D01*
X173664285Y-70747023D01*
X173759523Y-70699404D01*
X173854761Y-70604166D01*
X173902380Y-70461309D01*
X173902380Y-70223214D01*
X172997619Y-71175595D02*
X172950000Y-71223214D01*
X172902380Y-71318452D01*
X172902380Y-71556547D01*
X172950000Y-71651785D01*
X172997619Y-71699404D01*
X173092857Y-71747023D01*
X173188095Y-71747023D01*
X173330952Y-71699404D01*
X173902380Y-71127976D01*
X173902380Y-71747023D01*
X173235714Y-72604166D02*
X173902380Y-72604166D01*
X172854761Y-72366071D02*
X173569047Y-72127976D01*
X173569047Y-72747023D01*
%TO.C,D23*%
X192952380Y-67841964D02*
X191952380Y-67841964D01*
X191952380Y-68080059D01*
X192000000Y-68222916D01*
X192095238Y-68318154D01*
X192190476Y-68365773D01*
X192380952Y-68413392D01*
X192523809Y-68413392D01*
X192714285Y-68365773D01*
X192809523Y-68318154D01*
X192904761Y-68222916D01*
X192952380Y-68080059D01*
X192952380Y-67841964D01*
X192047619Y-68794345D02*
X192000000Y-68841964D01*
X191952380Y-68937202D01*
X191952380Y-69175297D01*
X192000000Y-69270535D01*
X192047619Y-69318154D01*
X192142857Y-69365773D01*
X192238095Y-69365773D01*
X192380952Y-69318154D01*
X192952380Y-68746726D01*
X192952380Y-69365773D01*
X191952380Y-69699107D02*
X191952380Y-70318154D01*
X192333333Y-69984821D01*
X192333333Y-70127678D01*
X192380952Y-70222916D01*
X192428571Y-70270535D01*
X192523809Y-70318154D01*
X192761904Y-70318154D01*
X192857142Y-70270535D01*
X192904761Y-70222916D01*
X192952380Y-70127678D01*
X192952380Y-69841964D01*
X192904761Y-69746726D01*
X192857142Y-69699107D01*
%TO.C,D22*%
X212002380Y-70223214D02*
X211002380Y-70223214D01*
X211002380Y-70461309D01*
X211050000Y-70604166D01*
X211145238Y-70699404D01*
X211240476Y-70747023D01*
X211430952Y-70794642D01*
X211573809Y-70794642D01*
X211764285Y-70747023D01*
X211859523Y-70699404D01*
X211954761Y-70604166D01*
X212002380Y-70461309D01*
X212002380Y-70223214D01*
X211097619Y-71175595D02*
X211050000Y-71223214D01*
X211002380Y-71318452D01*
X211002380Y-71556547D01*
X211050000Y-71651785D01*
X211097619Y-71699404D01*
X211192857Y-71747023D01*
X211288095Y-71747023D01*
X211430952Y-71699404D01*
X212002380Y-71127976D01*
X212002380Y-71747023D01*
X211097619Y-72127976D02*
X211050000Y-72175595D01*
X211002380Y-72270833D01*
X211002380Y-72508928D01*
X211050000Y-72604166D01*
X211097619Y-72651785D01*
X211192857Y-72699404D01*
X211288095Y-72699404D01*
X211430952Y-72651785D01*
X212002380Y-72080357D01*
X212002380Y-72699404D01*
%TO.C,D21*%
X231052380Y-72604464D02*
X230052380Y-72604464D01*
X230052380Y-72842559D01*
X230100000Y-72985416D01*
X230195238Y-73080654D01*
X230290476Y-73128273D01*
X230480952Y-73175892D01*
X230623809Y-73175892D01*
X230814285Y-73128273D01*
X230909523Y-73080654D01*
X231004761Y-72985416D01*
X231052380Y-72842559D01*
X231052380Y-72604464D01*
X230147619Y-73556845D02*
X230100000Y-73604464D01*
X230052380Y-73699702D01*
X230052380Y-73937797D01*
X230100000Y-74033035D01*
X230147619Y-74080654D01*
X230242857Y-74128273D01*
X230338095Y-74128273D01*
X230480952Y-74080654D01*
X231052380Y-73509226D01*
X231052380Y-74128273D01*
X231052380Y-75080654D02*
X231052380Y-74509226D01*
X231052380Y-74794940D02*
X230052380Y-74794940D01*
X230195238Y-74699702D01*
X230290476Y-74604464D01*
X230338095Y-74509226D01*
%TO.C,D20*%
X57221130Y-54348214D02*
X56221130Y-54348214D01*
X56221130Y-54586309D01*
X56268750Y-54729166D01*
X56363988Y-54824404D01*
X56459226Y-54872023D01*
X56649702Y-54919642D01*
X56792559Y-54919642D01*
X56983035Y-54872023D01*
X57078273Y-54824404D01*
X57173511Y-54729166D01*
X57221130Y-54586309D01*
X57221130Y-54348214D01*
X56316369Y-55300595D02*
X56268750Y-55348214D01*
X56221130Y-55443452D01*
X56221130Y-55681547D01*
X56268750Y-55776785D01*
X56316369Y-55824404D01*
X56411607Y-55872023D01*
X56506845Y-55872023D01*
X56649702Y-55824404D01*
X57221130Y-55252976D01*
X57221130Y-55872023D01*
X56221130Y-56491071D02*
X56221130Y-56586309D01*
X56268750Y-56681547D01*
X56316369Y-56729166D01*
X56411607Y-56776785D01*
X56602083Y-56824404D01*
X56840178Y-56824404D01*
X57030654Y-56776785D01*
X57125892Y-56729166D01*
X57173511Y-56681547D01*
X57221130Y-56586309D01*
X57221130Y-56491071D01*
X57173511Y-56395833D01*
X57125892Y-56348214D01*
X57030654Y-56300595D01*
X56840178Y-56252976D01*
X56602083Y-56252976D01*
X56411607Y-56300595D01*
X56316369Y-56348214D01*
X56268750Y-56395833D01*
X56221130Y-56491071D01*
%TO.C,D19*%
X76271130Y-54348214D02*
X75271130Y-54348214D01*
X75271130Y-54586309D01*
X75318750Y-54729166D01*
X75413988Y-54824404D01*
X75509226Y-54872023D01*
X75699702Y-54919642D01*
X75842559Y-54919642D01*
X76033035Y-54872023D01*
X76128273Y-54824404D01*
X76223511Y-54729166D01*
X76271130Y-54586309D01*
X76271130Y-54348214D01*
X76271130Y-55872023D02*
X76271130Y-55300595D01*
X76271130Y-55586309D02*
X75271130Y-55586309D01*
X75413988Y-55491071D01*
X75509226Y-55395833D01*
X75556845Y-55300595D01*
X76271130Y-56348214D02*
X76271130Y-56538690D01*
X76223511Y-56633928D01*
X76175892Y-56681547D01*
X76033035Y-56776785D01*
X75842559Y-56824404D01*
X75461607Y-56824404D01*
X75366369Y-56776785D01*
X75318750Y-56729166D01*
X75271130Y-56633928D01*
X75271130Y-56443452D01*
X75318750Y-56348214D01*
X75366369Y-56300595D01*
X75461607Y-56252976D01*
X75699702Y-56252976D01*
X75794940Y-56300595D01*
X75842559Y-56348214D01*
X75890178Y-56443452D01*
X75890178Y-56633928D01*
X75842559Y-56729166D01*
X75794940Y-56776785D01*
X75699702Y-56824404D01*
%TO.C,D18*%
X95321130Y-54348214D02*
X94321130Y-54348214D01*
X94321130Y-54586309D01*
X94368750Y-54729166D01*
X94463988Y-54824404D01*
X94559226Y-54872023D01*
X94749702Y-54919642D01*
X94892559Y-54919642D01*
X95083035Y-54872023D01*
X95178273Y-54824404D01*
X95273511Y-54729166D01*
X95321130Y-54586309D01*
X95321130Y-54348214D01*
X95321130Y-55872023D02*
X95321130Y-55300595D01*
X95321130Y-55586309D02*
X94321130Y-55586309D01*
X94463988Y-55491071D01*
X94559226Y-55395833D01*
X94606845Y-55300595D01*
X94749702Y-56443452D02*
X94702083Y-56348214D01*
X94654464Y-56300595D01*
X94559226Y-56252976D01*
X94511607Y-56252976D01*
X94416369Y-56300595D01*
X94368750Y-56348214D01*
X94321130Y-56443452D01*
X94321130Y-56633928D01*
X94368750Y-56729166D01*
X94416369Y-56776785D01*
X94511607Y-56824404D01*
X94559226Y-56824404D01*
X94654464Y-56776785D01*
X94702083Y-56729166D01*
X94749702Y-56633928D01*
X94749702Y-56443452D01*
X94797321Y-56348214D01*
X94844940Y-56300595D01*
X94940178Y-56252976D01*
X95130654Y-56252976D01*
X95225892Y-56300595D01*
X95273511Y-56348214D01*
X95321130Y-56443452D01*
X95321130Y-56633928D01*
X95273511Y-56729166D01*
X95225892Y-56776785D01*
X95130654Y-56824404D01*
X94940178Y-56824404D01*
X94844940Y-56776785D01*
X94797321Y-56729166D01*
X94749702Y-56633928D01*
%TO.C,D17*%
X114371130Y-54348214D02*
X113371130Y-54348214D01*
X113371130Y-54586309D01*
X113418750Y-54729166D01*
X113513988Y-54824404D01*
X113609226Y-54872023D01*
X113799702Y-54919642D01*
X113942559Y-54919642D01*
X114133035Y-54872023D01*
X114228273Y-54824404D01*
X114323511Y-54729166D01*
X114371130Y-54586309D01*
X114371130Y-54348214D01*
X114371130Y-55872023D02*
X114371130Y-55300595D01*
X114371130Y-55586309D02*
X113371130Y-55586309D01*
X113513988Y-55491071D01*
X113609226Y-55395833D01*
X113656845Y-55300595D01*
X113371130Y-56205357D02*
X113371130Y-56872023D01*
X114371130Y-56443452D01*
%TO.C,D16*%
X134897619Y-56776785D02*
X135897619Y-56776785D01*
X135897619Y-56538690D01*
X135850000Y-56395833D01*
X135754761Y-56300595D01*
X135659523Y-56252976D01*
X135469047Y-56205357D01*
X135326190Y-56205357D01*
X135135714Y-56252976D01*
X135040476Y-56300595D01*
X134945238Y-56395833D01*
X134897619Y-56538690D01*
X134897619Y-56776785D01*
X134897619Y-55252976D02*
X134897619Y-55824404D01*
X134897619Y-55538690D02*
X135897619Y-55538690D01*
X135754761Y-55633928D01*
X135659523Y-55729166D01*
X135611904Y-55824404D01*
X135897619Y-54395833D02*
X135897619Y-54586309D01*
X135850000Y-54681547D01*
X135802380Y-54729166D01*
X135659523Y-54824404D01*
X135469047Y-54872023D01*
X135088095Y-54872023D01*
X134992857Y-54824404D01*
X134945238Y-54776785D01*
X134897619Y-54681547D01*
X134897619Y-54491071D01*
X134945238Y-54395833D01*
X134992857Y-54348214D01*
X135088095Y-54300595D01*
X135326190Y-54300595D01*
X135421428Y-54348214D01*
X135469047Y-54395833D01*
X135516666Y-54491071D01*
X135516666Y-54681547D01*
X135469047Y-54776785D01*
X135421428Y-54824404D01*
X135326190Y-54872023D01*
%TO.C,D15*%
X154852380Y-54348214D02*
X153852380Y-54348214D01*
X153852380Y-54586309D01*
X153900000Y-54729166D01*
X153995238Y-54824404D01*
X154090476Y-54872023D01*
X154280952Y-54919642D01*
X154423809Y-54919642D01*
X154614285Y-54872023D01*
X154709523Y-54824404D01*
X154804761Y-54729166D01*
X154852380Y-54586309D01*
X154852380Y-54348214D01*
X154852380Y-55872023D02*
X154852380Y-55300595D01*
X154852380Y-55586309D02*
X153852380Y-55586309D01*
X153995238Y-55491071D01*
X154090476Y-55395833D01*
X154138095Y-55300595D01*
X153852380Y-56776785D02*
X153852380Y-56300595D01*
X154328571Y-56252976D01*
X154280952Y-56300595D01*
X154233333Y-56395833D01*
X154233333Y-56633928D01*
X154280952Y-56729166D01*
X154328571Y-56776785D01*
X154423809Y-56824404D01*
X154661904Y-56824404D01*
X154757142Y-56776785D01*
X154804761Y-56729166D01*
X154852380Y-56633928D01*
X154852380Y-56395833D01*
X154804761Y-56300595D01*
X154757142Y-56252976D01*
%TO.C,D14*%
X173902380Y-51173214D02*
X172902380Y-51173214D01*
X172902380Y-51411309D01*
X172950000Y-51554166D01*
X173045238Y-51649404D01*
X173140476Y-51697023D01*
X173330952Y-51744642D01*
X173473809Y-51744642D01*
X173664285Y-51697023D01*
X173759523Y-51649404D01*
X173854761Y-51554166D01*
X173902380Y-51411309D01*
X173902380Y-51173214D01*
X173902380Y-52697023D02*
X173902380Y-52125595D01*
X173902380Y-52411309D02*
X172902380Y-52411309D01*
X173045238Y-52316071D01*
X173140476Y-52220833D01*
X173188095Y-52125595D01*
X173235714Y-53554166D02*
X173902380Y-53554166D01*
X172854761Y-53316071D02*
X173569047Y-53077976D01*
X173569047Y-53697023D01*
%TO.C,D13*%
X192952380Y-48791964D02*
X191952380Y-48791964D01*
X191952380Y-49030059D01*
X192000000Y-49172916D01*
X192095238Y-49268154D01*
X192190476Y-49315773D01*
X192380952Y-49363392D01*
X192523809Y-49363392D01*
X192714285Y-49315773D01*
X192809523Y-49268154D01*
X192904761Y-49172916D01*
X192952380Y-49030059D01*
X192952380Y-48791964D01*
X192952380Y-50315773D02*
X192952380Y-49744345D01*
X192952380Y-50030059D02*
X191952380Y-50030059D01*
X192095238Y-49934821D01*
X192190476Y-49839583D01*
X192238095Y-49744345D01*
X191952380Y-50649107D02*
X191952380Y-51268154D01*
X192333333Y-50934821D01*
X192333333Y-51077678D01*
X192380952Y-51172916D01*
X192428571Y-51220535D01*
X192523809Y-51268154D01*
X192761904Y-51268154D01*
X192857142Y-51220535D01*
X192904761Y-51172916D01*
X192952380Y-51077678D01*
X192952380Y-50791964D01*
X192904761Y-50696726D01*
X192857142Y-50649107D01*
%TO.C,D12*%
X212002380Y-51173214D02*
X211002380Y-51173214D01*
X211002380Y-51411309D01*
X211050000Y-51554166D01*
X211145238Y-51649404D01*
X211240476Y-51697023D01*
X211430952Y-51744642D01*
X211573809Y-51744642D01*
X211764285Y-51697023D01*
X211859523Y-51649404D01*
X211954761Y-51554166D01*
X212002380Y-51411309D01*
X212002380Y-51173214D01*
X212002380Y-52697023D02*
X212002380Y-52125595D01*
X212002380Y-52411309D02*
X211002380Y-52411309D01*
X211145238Y-52316071D01*
X211240476Y-52220833D01*
X211288095Y-52125595D01*
X211097619Y-53077976D02*
X211050000Y-53125595D01*
X211002380Y-53220833D01*
X211002380Y-53458928D01*
X211050000Y-53554166D01*
X211097619Y-53601785D01*
X211192857Y-53649404D01*
X211288095Y-53649404D01*
X211430952Y-53601785D01*
X212002380Y-53030357D01*
X212002380Y-53649404D01*
%TO.C,D11*%
X231052380Y-53554464D02*
X230052380Y-53554464D01*
X230052380Y-53792559D01*
X230100000Y-53935416D01*
X230195238Y-54030654D01*
X230290476Y-54078273D01*
X230480952Y-54125892D01*
X230623809Y-54125892D01*
X230814285Y-54078273D01*
X230909523Y-54030654D01*
X231004761Y-53935416D01*
X231052380Y-53792559D01*
X231052380Y-53554464D01*
X231052380Y-55078273D02*
X231052380Y-54506845D01*
X231052380Y-54792559D02*
X230052380Y-54792559D01*
X230195238Y-54697321D01*
X230290476Y-54602083D01*
X230338095Y-54506845D01*
X231052380Y-56030654D02*
X231052380Y-55459226D01*
X231052380Y-55744940D02*
X230052380Y-55744940D01*
X230195238Y-55649702D01*
X230290476Y-55554464D01*
X230338095Y-55459226D01*
%TO.C,D10*%
X57221130Y-35298214D02*
X56221130Y-35298214D01*
X56221130Y-35536309D01*
X56268750Y-35679166D01*
X56363988Y-35774404D01*
X56459226Y-35822023D01*
X56649702Y-35869642D01*
X56792559Y-35869642D01*
X56983035Y-35822023D01*
X57078273Y-35774404D01*
X57173511Y-35679166D01*
X57221130Y-35536309D01*
X57221130Y-35298214D01*
X57221130Y-36822023D02*
X57221130Y-36250595D01*
X57221130Y-36536309D02*
X56221130Y-36536309D01*
X56363988Y-36441071D01*
X56459226Y-36345833D01*
X56506845Y-36250595D01*
X56221130Y-37441071D02*
X56221130Y-37536309D01*
X56268750Y-37631547D01*
X56316369Y-37679166D01*
X56411607Y-37726785D01*
X56602083Y-37774404D01*
X56840178Y-37774404D01*
X57030654Y-37726785D01*
X57125892Y-37679166D01*
X57173511Y-37631547D01*
X57221130Y-37536309D01*
X57221130Y-37441071D01*
X57173511Y-37345833D01*
X57125892Y-37298214D01*
X57030654Y-37250595D01*
X56840178Y-37202976D01*
X56602083Y-37202976D01*
X56411607Y-37250595D01*
X56316369Y-37298214D01*
X56268750Y-37345833D01*
X56221130Y-37441071D01*
%TO.C,D9*%
X76271130Y-35774404D02*
X75271130Y-35774404D01*
X75271130Y-36012500D01*
X75318750Y-36155357D01*
X75413988Y-36250595D01*
X75509226Y-36298214D01*
X75699702Y-36345833D01*
X75842559Y-36345833D01*
X76033035Y-36298214D01*
X76128273Y-36250595D01*
X76223511Y-36155357D01*
X76271130Y-36012500D01*
X76271130Y-35774404D01*
X76271130Y-36822023D02*
X76271130Y-37012500D01*
X76223511Y-37107738D01*
X76175892Y-37155357D01*
X76033035Y-37250595D01*
X75842559Y-37298214D01*
X75461607Y-37298214D01*
X75366369Y-37250595D01*
X75318750Y-37202976D01*
X75271130Y-37107738D01*
X75271130Y-36917261D01*
X75318750Y-36822023D01*
X75366369Y-36774404D01*
X75461607Y-36726785D01*
X75699702Y-36726785D01*
X75794940Y-36774404D01*
X75842559Y-36822023D01*
X75890178Y-36917261D01*
X75890178Y-37107738D01*
X75842559Y-37202976D01*
X75794940Y-37250595D01*
X75699702Y-37298214D01*
%TO.C,D8*%
X95321130Y-35774404D02*
X94321130Y-35774404D01*
X94321130Y-36012500D01*
X94368750Y-36155357D01*
X94463988Y-36250595D01*
X94559226Y-36298214D01*
X94749702Y-36345833D01*
X94892559Y-36345833D01*
X95083035Y-36298214D01*
X95178273Y-36250595D01*
X95273511Y-36155357D01*
X95321130Y-36012500D01*
X95321130Y-35774404D01*
X94749702Y-36917261D02*
X94702083Y-36822023D01*
X94654464Y-36774404D01*
X94559226Y-36726785D01*
X94511607Y-36726785D01*
X94416369Y-36774404D01*
X94368750Y-36822023D01*
X94321130Y-36917261D01*
X94321130Y-37107738D01*
X94368750Y-37202976D01*
X94416369Y-37250595D01*
X94511607Y-37298214D01*
X94559226Y-37298214D01*
X94654464Y-37250595D01*
X94702083Y-37202976D01*
X94749702Y-37107738D01*
X94749702Y-36917261D01*
X94797321Y-36822023D01*
X94844940Y-36774404D01*
X94940178Y-36726785D01*
X95130654Y-36726785D01*
X95225892Y-36774404D01*
X95273511Y-36822023D01*
X95321130Y-36917261D01*
X95321130Y-37107738D01*
X95273511Y-37202976D01*
X95225892Y-37250595D01*
X95130654Y-37298214D01*
X94940178Y-37298214D01*
X94844940Y-37250595D01*
X94797321Y-37202976D01*
X94749702Y-37107738D01*
%TO.C,D7*%
X114371130Y-35774404D02*
X113371130Y-35774404D01*
X113371130Y-36012500D01*
X113418750Y-36155357D01*
X113513988Y-36250595D01*
X113609226Y-36298214D01*
X113799702Y-36345833D01*
X113942559Y-36345833D01*
X114133035Y-36298214D01*
X114228273Y-36250595D01*
X114323511Y-36155357D01*
X114371130Y-36012500D01*
X114371130Y-35774404D01*
X113371130Y-36679166D02*
X113371130Y-37345833D01*
X114371130Y-36917261D01*
%TO.C,D6*%
X135802380Y-35774404D02*
X134802380Y-35774404D01*
X134802380Y-36012500D01*
X134850000Y-36155357D01*
X134945238Y-36250595D01*
X135040476Y-36298214D01*
X135230952Y-36345833D01*
X135373809Y-36345833D01*
X135564285Y-36298214D01*
X135659523Y-36250595D01*
X135754761Y-36155357D01*
X135802380Y-36012500D01*
X135802380Y-35774404D01*
X134802380Y-37202976D02*
X134802380Y-37012500D01*
X134850000Y-36917261D01*
X134897619Y-36869642D01*
X135040476Y-36774404D01*
X135230952Y-36726785D01*
X135611904Y-36726785D01*
X135707142Y-36774404D01*
X135754761Y-36822023D01*
X135802380Y-36917261D01*
X135802380Y-37107738D01*
X135754761Y-37202976D01*
X135707142Y-37250595D01*
X135611904Y-37298214D01*
X135373809Y-37298214D01*
X135278571Y-37250595D01*
X135230952Y-37202976D01*
X135183333Y-37107738D01*
X135183333Y-36917261D01*
X135230952Y-36822023D01*
X135278571Y-36774404D01*
X135373809Y-36726785D01*
%TO.C,D5*%
X154852380Y-35774404D02*
X153852380Y-35774404D01*
X153852380Y-36012500D01*
X153900000Y-36155357D01*
X153995238Y-36250595D01*
X154090476Y-36298214D01*
X154280952Y-36345833D01*
X154423809Y-36345833D01*
X154614285Y-36298214D01*
X154709523Y-36250595D01*
X154804761Y-36155357D01*
X154852380Y-36012500D01*
X154852380Y-35774404D01*
X153852380Y-37250595D02*
X153852380Y-36774404D01*
X154328571Y-36726785D01*
X154280952Y-36774404D01*
X154233333Y-36869642D01*
X154233333Y-37107738D01*
X154280952Y-37202976D01*
X154328571Y-37250595D01*
X154423809Y-37298214D01*
X154661904Y-37298214D01*
X154757142Y-37250595D01*
X154804761Y-37202976D01*
X154852380Y-37107738D01*
X154852380Y-36869642D01*
X154804761Y-36774404D01*
X154757142Y-36726785D01*
%TO.C,D4*%
X173902380Y-32599404D02*
X172902380Y-32599404D01*
X172902380Y-32837500D01*
X172950000Y-32980357D01*
X173045238Y-33075595D01*
X173140476Y-33123214D01*
X173330952Y-33170833D01*
X173473809Y-33170833D01*
X173664285Y-33123214D01*
X173759523Y-33075595D01*
X173854761Y-32980357D01*
X173902380Y-32837500D01*
X173902380Y-32599404D01*
X173235714Y-34027976D02*
X173902380Y-34027976D01*
X172854761Y-33789880D02*
X173569047Y-33551785D01*
X173569047Y-34170833D01*
%TO.C,D3*%
X192952380Y-30218154D02*
X191952380Y-30218154D01*
X191952380Y-30456250D01*
X192000000Y-30599107D01*
X192095238Y-30694345D01*
X192190476Y-30741964D01*
X192380952Y-30789583D01*
X192523809Y-30789583D01*
X192714285Y-30741964D01*
X192809523Y-30694345D01*
X192904761Y-30599107D01*
X192952380Y-30456250D01*
X192952380Y-30218154D01*
X191952380Y-31122916D02*
X191952380Y-31741964D01*
X192333333Y-31408630D01*
X192333333Y-31551488D01*
X192380952Y-31646726D01*
X192428571Y-31694345D01*
X192523809Y-31741964D01*
X192761904Y-31741964D01*
X192857142Y-31694345D01*
X192904761Y-31646726D01*
X192952380Y-31551488D01*
X192952380Y-31265773D01*
X192904761Y-31170535D01*
X192857142Y-31122916D01*
%TO.C,D2*%
X212002380Y-32599404D02*
X211002380Y-32599404D01*
X211002380Y-32837500D01*
X211050000Y-32980357D01*
X211145238Y-33075595D01*
X211240476Y-33123214D01*
X211430952Y-33170833D01*
X211573809Y-33170833D01*
X211764285Y-33123214D01*
X211859523Y-33075595D01*
X211954761Y-32980357D01*
X212002380Y-32837500D01*
X212002380Y-32599404D01*
X211097619Y-33551785D02*
X211050000Y-33599404D01*
X211002380Y-33694642D01*
X211002380Y-33932738D01*
X211050000Y-34027976D01*
X211097619Y-34075595D01*
X211192857Y-34123214D01*
X211288095Y-34123214D01*
X211430952Y-34075595D01*
X212002380Y-33504166D01*
X212002380Y-34123214D01*
%TO.C,D1*%
X231052380Y-34918154D02*
X230052380Y-34918154D01*
X230052380Y-35156250D01*
X230100000Y-35299107D01*
X230195238Y-35394345D01*
X230290476Y-35441964D01*
X230480952Y-35489583D01*
X230623809Y-35489583D01*
X230814285Y-35441964D01*
X230909523Y-35394345D01*
X231004761Y-35299107D01*
X231052380Y-35156250D01*
X231052380Y-34918154D01*
X231052380Y-36441964D02*
X231052380Y-35870535D01*
X231052380Y-36156250D02*
X230052380Y-36156250D01*
X230195238Y-36061011D01*
X230290476Y-35965773D01*
X230338095Y-35870535D01*
%TD*%
M02*
