M48
; DRILL file {KiCad (5.1.9-0-10_14)} date Saturday, April 10, 2021 at 10:09:58 PM
; FORMAT={-:-/ absolute / inch / decimal}
; #@! TF.CreationDate,2021-04-10T22:09:58-05:00
; #@! TF.GenerationSoftware,Kicad,Pcbnew,(5.1.9-0-10_14)
; #@! TF.FileFunction,NonPlated,1,2,NPTH
FMAT,2
INCH
T1C0.0472
T2C0.0689
T3C0.1200
T4C0.1570
%
G90
G05
T1
X10.1153Y-3.9333
X10.2531Y-3.6947
T2
X1.6438Y-1.4375
X1.6438Y-2.1875
X1.6438Y-2.9375
X1.6438Y-3.6875
X2.0437Y-1.4375
X2.0437Y-2.1875
X2.0437Y-2.9375
X2.0437Y-3.6875
X2.3937Y-1.4375
X2.3937Y-2.1875
X2.3937Y-2.9375
X2.3937Y-3.6875
X2.7937Y-1.4375
X2.7937Y-2.1875
X2.7937Y-2.9375
X2.7937Y-3.6875
X3.1437Y-1.4375
X3.1437Y-2.1875
X3.1437Y-2.9375
X3.1437Y-3.6875
X3.5437Y-1.4375
X3.5437Y-2.1875
X3.5437Y-2.9375
X3.5437Y-3.6875
X3.8937Y-1.4375
X3.8937Y-2.1875
X3.8937Y-2.9375
X3.8937Y-3.6875
X4.2938Y-1.4375
X4.2938Y-2.1875
X4.2938Y-2.9375
X4.2938Y-3.6875
X4.7375Y-1.4375
X4.7375Y-2.1875
X4.7375Y-2.9375
X4.7375Y-3.6875
X5.1375Y-1.4375
X5.1375Y-2.1875
X5.1375Y-2.9375
X5.1375Y-3.6875
X5.4875Y-1.4375
X5.4875Y-2.1875
X5.4875Y-2.9375
X5.4875Y-3.6875
X5.8875Y-1.4375
X5.8875Y-2.1875
X5.8875Y-2.9375
X5.8875Y-3.6875
X6.2375Y-1.3125
X6.2375Y-2.0625
X6.2375Y-2.8125
X6.2375Y-3.5625
X6.6375Y-1.3125
X6.6375Y-2.0625
X6.6375Y-2.8125
X6.6375Y-3.5625
X6.6437Y-4.5938
X6.9875Y-1.2188
X6.9875Y-1.9688
X6.9875Y-2.7188
X6.9875Y-3.4688
X7.0438Y-4.5938
X7.3875Y-1.2188
X7.3875Y-1.9688
X7.3875Y-2.7188
X7.3875Y-3.4688
X7.3937Y-4.5938
X7.7375Y-1.3125
X7.7375Y-2.0625
X7.7375Y-2.8125
X7.7375Y-3.5625
X7.7938Y-4.5938
X8.1375Y-1.3125
X8.1375Y-2.0625
X8.1375Y-2.8125
X8.1375Y-3.5625
X8.1437Y-4.6875
X8.4875Y-1.4062
X8.4875Y-2.1562
X8.4875Y-2.9062
X8.4875Y-3.6562
X8.5437Y-4.6875
X8.8875Y-1.4062
X8.8875Y-2.1562
X8.8875Y-2.9062
X8.8875Y-3.6562
X9.4Y-4.767
X9.6Y-4.4205
T3
X9.5032Y-5.1383
X9.9732Y-4.3242
T4
X1.8438Y-1.4375
X1.8438Y-2.1875
X1.8438Y-2.9375
X1.8438Y-3.6875
X2.5938Y-1.4375
X2.5938Y-2.1875
X2.5938Y-2.9375
X2.5938Y-3.6875
X3.3438Y-1.4375
X3.3438Y-2.1875
X3.3438Y-2.9375
X3.3438Y-3.6875
X4.0938Y-1.4375
X4.0938Y-2.1875
X4.0938Y-2.9375
X4.0938Y-3.6875
X4.9375Y-1.4375
X4.9375Y-2.1875
X4.9375Y-2.9375
X4.9375Y-3.6875
X5.6875Y-1.4375
X5.6875Y-2.1875
X5.6875Y-2.9375
X5.6875Y-3.6875
X6.4375Y-1.3125
X6.4375Y-2.0625
X6.4375Y-2.8125
X6.4375Y-3.5625
X6.8438Y-4.5938
X7.1875Y-1.2188
X7.1875Y-1.9688
X7.1875Y-2.7188
X7.1875Y-3.4688
X7.5938Y-4.5938
X7.9375Y-1.3125
X7.9375Y-2.0625
X7.9375Y-2.8125
X7.9375Y-3.5625
X8.3438Y-4.6875
X8.6875Y-1.4062
X8.6875Y-2.1562
X8.6875Y-2.9062
X8.6875Y-3.6562
X8.9835Y-4.8383
X9.4535Y-4.0242
X9.5Y-4.5938
T0
M30
