%TF.GenerationSoftware,KiCad,Pcbnew,(5.1.9-0-10_14)*%
%TF.CreationDate,2021-04-10T22:10:23-05:00*%
%TF.ProjectId,wren-left,7772656e-2d6c-4656-9674-2e6b69636164,rev?*%
%TF.SameCoordinates,Original*%
%TF.FileFunction,Soldermask,Top*%
%TF.FilePolarity,Negative*%
%FSLAX46Y46*%
G04 Gerber Fmt 4.6, Leading zero omitted, Abs format (unit mm)*
G04 Created by KiCad (PCBNEW (5.1.9-0-10_14)) date 2021-04-10 22:10:23*
%MOMM*%
%LPD*%
G01*
G04 APERTURE LIST*
%ADD10C,1.752600*%
%ADD11R,1.752600X1.752600*%
%ADD12C,2.000000*%
%ADD13C,3.987800*%
%ADD14C,3.048000*%
%ADD15C,1.750000*%
%ADD16C,1.200000*%
%ADD17C,0.100000*%
G04 APERTURE END LIST*
D10*
%TO.C,U1*%
X233680000Y-28098750D03*
X248920000Y-56038750D03*
X233680000Y-30638750D03*
X233680000Y-33178750D03*
X233680000Y-35718750D03*
X233680000Y-38258750D03*
X233680000Y-40798750D03*
X233680000Y-43338750D03*
X233680000Y-45878750D03*
X233680000Y-48418750D03*
X233680000Y-50958750D03*
X233680000Y-53498750D03*
X233680000Y-56038750D03*
X248920000Y-53498750D03*
X248920000Y-50958750D03*
X248920000Y-48418750D03*
X248920000Y-45878750D03*
X248920000Y-43338750D03*
X248920000Y-40798750D03*
X248920000Y-38258750D03*
X248920000Y-35718750D03*
X248920000Y-33178750D03*
X248920000Y-30638750D03*
D11*
X248920000Y-28098750D03*
%TD*%
D12*
%TO.C,SW0*%
X244625000Y-60325000D03*
X244625000Y-64825000D03*
X238125000Y-60325000D03*
X238125000Y-64825000D03*
%TD*%
D13*
%TO.C,MX41*%
X240119960Y-102215139D03*
X228181960Y-122892361D03*
D14*
X253318187Y-109835139D03*
X241380187Y-130512361D03*
D15*
X243840000Y-112281841D03*
X238760000Y-121080659D03*
D13*
X241300000Y-116681250D03*
%TD*%
D16*
%TO.C,J1*%
X256929358Y-99907083D03*
X260429358Y-93844905D03*
G36*
G01*
X259587500Y-90703046D02*
X259587500Y-90703046D01*
G75*
G02*
X259843718Y-91659264I-350000J-606218D01*
G01*
X259543718Y-92178880D01*
G75*
G02*
X258587500Y-92435098I-606218J350000D01*
G01*
X258587500Y-92435098D01*
G75*
G02*
X258331282Y-91478880I350000J606218D01*
G01*
X258631282Y-90959264D01*
G75*
G02*
X259587500Y-90703046I606218J-350000D01*
G01*
G37*
G36*
G01*
X258087500Y-93301122D02*
X258087500Y-93301122D01*
G75*
G02*
X258343718Y-94257340I-350000J-606218D01*
G01*
X258043718Y-94776956D01*
G75*
G02*
X257087500Y-95033174I-606218J350000D01*
G01*
X257087500Y-95033174D01*
G75*
G02*
X256831282Y-94076956I350000J606218D01*
G01*
X257131282Y-93557340D01*
G75*
G02*
X258087500Y-93301122I606218J-350000D01*
G01*
G37*
D17*
G36*
X255481282Y-96415225D02*
G01*
X256693718Y-97115225D01*
X255693718Y-98847275D01*
X254481282Y-98147275D01*
X255481282Y-96415225D01*
G37*
G36*
G01*
X259234614Y-100314262D02*
X259234614Y-100314262D01*
G75*
G02*
X259490832Y-101270480I-350000J-606218D01*
G01*
X259190832Y-101790096D01*
G75*
G02*
X258234614Y-102046314I-606218J350000D01*
G01*
X258234614Y-102046314D01*
G75*
G02*
X257978396Y-101090096I350000J606218D01*
G01*
X258278396Y-100570480D01*
G75*
G02*
X259234614Y-100314262I606218J-350000D01*
G01*
G37*
G36*
G01*
X264350640Y-93453046D02*
X264350640Y-93453046D01*
G75*
G02*
X264606858Y-94409264I-350000J-606218D01*
G01*
X264306858Y-94928880D01*
G75*
G02*
X263350640Y-95185098I-606218J350000D01*
G01*
X263350640Y-95185098D01*
G75*
G02*
X263094422Y-94228880I350000J606218D01*
G01*
X263394422Y-93709264D01*
G75*
G02*
X264350640Y-93453046I606218J-350000D01*
G01*
G37*
%TD*%
D15*
%TO.C,MX44*%
X178911250Y-116681250D03*
X168751250Y-116681250D03*
D13*
X173831250Y-116681250D03*
%TD*%
D15*
%TO.C,MX43*%
X197961250Y-116681250D03*
X187801250Y-116681250D03*
D13*
X192881250Y-116681250D03*
%TD*%
D15*
%TO.C,MX42*%
X217011250Y-119062500D03*
X206851250Y-119062500D03*
D13*
X211931250Y-119062500D03*
%TD*%
D15*
%TO.C,MX40*%
X51911250Y-93662500D03*
X41751250Y-93662500D03*
D13*
X46831250Y-93662500D03*
%TD*%
D15*
%TO.C,MX39*%
X70961250Y-93662500D03*
X60801250Y-93662500D03*
D13*
X65881250Y-93662500D03*
%TD*%
D15*
%TO.C,MX38*%
X90011250Y-93662500D03*
X79851250Y-93662500D03*
D13*
X84931250Y-93662500D03*
%TD*%
D15*
%TO.C,MX37*%
X109061250Y-93662500D03*
X98901250Y-93662500D03*
D13*
X103981250Y-93662500D03*
%TD*%
D15*
%TO.C,MX36*%
X130492500Y-93662500D03*
X120332500Y-93662500D03*
D13*
X125412500Y-93662500D03*
%TD*%
D15*
%TO.C,MX35*%
X149542500Y-93662500D03*
X139382500Y-93662500D03*
D13*
X144462500Y-93662500D03*
%TD*%
D15*
%TO.C,MX34*%
X168592500Y-90487500D03*
X158432500Y-90487500D03*
D13*
X163512500Y-90487500D03*
%TD*%
D15*
%TO.C,MX33*%
X187642500Y-88106250D03*
X177482500Y-88106250D03*
D13*
X182562500Y-88106250D03*
%TD*%
D15*
%TO.C,MX32*%
X206692500Y-90487500D03*
X196532500Y-90487500D03*
D13*
X201612500Y-90487500D03*
%TD*%
D15*
%TO.C,MX31*%
X225742500Y-92868750D03*
X215582500Y-92868750D03*
D13*
X220662500Y-92868750D03*
%TD*%
D15*
%TO.C,MX30*%
X51911250Y-74612500D03*
X41751250Y-74612500D03*
D13*
X46831250Y-74612500D03*
%TD*%
D15*
%TO.C,MX29*%
X70961250Y-74612500D03*
X60801250Y-74612500D03*
D13*
X65881250Y-74612500D03*
%TD*%
D15*
%TO.C,MX28*%
X90011250Y-74612500D03*
X79851250Y-74612500D03*
D13*
X84931250Y-74612500D03*
%TD*%
D15*
%TO.C,MX27*%
X109061250Y-74612500D03*
X98901250Y-74612500D03*
D13*
X103981250Y-74612500D03*
%TD*%
D15*
%TO.C,MX26*%
X130492500Y-74612500D03*
X120332500Y-74612500D03*
D13*
X125412500Y-74612500D03*
%TD*%
D15*
%TO.C,MX25*%
X149542500Y-74612500D03*
X139382500Y-74612500D03*
D13*
X144462500Y-74612500D03*
%TD*%
D15*
%TO.C,MX24*%
X168592500Y-71437500D03*
X158432500Y-71437500D03*
D13*
X163512500Y-71437500D03*
%TD*%
D15*
%TO.C,MX23*%
X187642500Y-69056250D03*
X177482500Y-69056250D03*
D13*
X182562500Y-69056250D03*
%TD*%
D15*
%TO.C,MX22*%
X206692500Y-71437500D03*
X196532500Y-71437500D03*
D13*
X201612500Y-71437500D03*
%TD*%
D15*
%TO.C,MX21*%
X225742500Y-73818750D03*
X215582500Y-73818750D03*
D13*
X220662500Y-73818750D03*
%TD*%
D15*
%TO.C,MX20*%
X51911250Y-55562500D03*
X41751250Y-55562500D03*
D13*
X46831250Y-55562500D03*
%TD*%
D15*
%TO.C,MX19*%
X70961250Y-55562500D03*
X60801250Y-55562500D03*
D13*
X65881250Y-55562500D03*
%TD*%
D15*
%TO.C,MX18*%
X90011250Y-55562500D03*
X79851250Y-55562500D03*
D13*
X84931250Y-55562500D03*
%TD*%
D15*
%TO.C,MX17*%
X109061250Y-55562500D03*
X98901250Y-55562500D03*
D13*
X103981250Y-55562500D03*
%TD*%
D15*
%TO.C,MX16*%
X130492500Y-55562500D03*
X120332500Y-55562500D03*
D13*
X125412500Y-55562500D03*
%TD*%
D15*
%TO.C,MX15*%
X149542500Y-55562500D03*
X139382500Y-55562500D03*
D13*
X144462500Y-55562500D03*
%TD*%
D15*
%TO.C,MX14*%
X168592500Y-52387500D03*
X158432500Y-52387500D03*
D13*
X163512500Y-52387500D03*
%TD*%
D15*
%TO.C,MX13*%
X187642500Y-50006250D03*
X177482500Y-50006250D03*
D13*
X182562500Y-50006250D03*
%TD*%
D15*
%TO.C,MX12*%
X206692500Y-52387500D03*
X196532500Y-52387500D03*
D13*
X201612500Y-52387500D03*
%TD*%
D15*
%TO.C,MX11*%
X225742500Y-54768750D03*
X215582500Y-54768750D03*
D13*
X220662500Y-54768750D03*
%TD*%
D15*
%TO.C,MX10*%
X51911250Y-36512500D03*
X41751250Y-36512500D03*
D13*
X46831250Y-36512500D03*
%TD*%
D15*
%TO.C,MX9*%
X70961250Y-36512500D03*
X60801250Y-36512500D03*
D13*
X65881250Y-36512500D03*
%TD*%
D15*
%TO.C,MX8*%
X90011250Y-36512500D03*
X79851250Y-36512500D03*
D13*
X84931250Y-36512500D03*
%TD*%
D15*
%TO.C,MX7*%
X109061250Y-36512500D03*
X98901250Y-36512500D03*
D13*
X103981250Y-36512500D03*
%TD*%
D15*
%TO.C,MX6*%
X130492500Y-36512500D03*
X120332500Y-36512500D03*
D13*
X125412500Y-36512500D03*
%TD*%
D15*
%TO.C,MX5*%
X149542500Y-36512500D03*
X139382500Y-36512500D03*
D13*
X144462500Y-36512500D03*
%TD*%
D15*
%TO.C,MX4*%
X168592500Y-33337500D03*
X158432500Y-33337500D03*
D13*
X163512500Y-33337500D03*
%TD*%
D15*
%TO.C,MX3*%
X187642500Y-30956250D03*
X177482500Y-30956250D03*
D13*
X182562500Y-30956250D03*
%TD*%
D15*
%TO.C,MX2*%
X206692500Y-33337500D03*
X196532500Y-33337500D03*
D13*
X201612500Y-33337500D03*
%TD*%
D15*
%TO.C,MX1*%
X225742500Y-35718750D03*
X215582500Y-35718750D03*
D13*
X220662500Y-35718750D03*
%TD*%
M02*
