M48
; DRILL file {KiCad (5.1.9-0-10_14)} date Saturday, April 10, 2021 at 10:09:58 PM
; FORMAT={-:-/ absolute / inch / decimal}
; #@! TF.CreationDate,2021-04-10T22:09:58-05:00
; #@! TF.GenerationSoftware,Kicad,Pcbnew,(5.1.9-0-10_14)
; #@! TF.FileFunction,Plated,1,2,PTH
FMAT,2
INCH
T1C0.0157
T2C0.0236
T3C0.0409
T4C0.0430
T5C0.0433
T6C0.0579
%
G90
G05
T1
X1.6937Y-1.9163
X2.4438Y-1.8687
X3.1938Y-1.5987
X3.1938Y-2.6612
X3.9438Y-1.6963
X4.7875Y-1.7275
X5.5375Y-1.7625
X7.0375Y-2.3425
X7.7875Y-2.4225
X8.265Y-2.355
X8.455Y-2.01
X8.5375Y-2.4925
X9.055Y-1.7348
X9.08Y-1.395
X9.085Y-2.915
X9.09Y-2.17
X9.095Y-3.72
X9.12Y-1.8
X9.345Y-1.72
X9.345Y-2.095
X9.3493Y-1.6
X9.395Y-1.72
X9.395Y-1.805
X9.395Y-2.025
X9.49Y-1.655
X9.49Y-1.955
X9.58Y-2.155
X9.615Y-1.815
X9.63Y-1.7
X9.7233Y-1.9233
X9.735Y-1.97
X9.77Y-3.415
X9.8Y-4.225
T3
X1.7937Y-1.6375
X1.7937Y-2.3875
X1.7937Y-3.1375
X1.7937Y-3.8875
X1.8938Y-1.6375
X1.8938Y-2.3875
X1.8938Y-3.1375
X1.8938Y-3.8875
X2.5437Y-1.6375
X2.5437Y-2.3875
X2.5437Y-3.1375
X2.5437Y-3.8875
X2.6437Y-1.6375
X2.6437Y-2.3875
X2.6437Y-3.1375
X2.6437Y-3.8875
X3.2937Y-1.6375
X3.2937Y-2.3875
X3.2937Y-3.1375
X3.2937Y-3.8875
X3.3937Y-1.6375
X3.3937Y-2.3875
X3.3937Y-3.1375
X3.3937Y-3.8875
X4.0438Y-1.6375
X4.0438Y-2.3875
X4.0438Y-3.1375
X4.0438Y-3.8875
X4.1437Y-1.6375
X4.1437Y-2.3875
X4.1437Y-3.1375
X4.1437Y-3.8875
X4.8875Y-1.6375
X4.8875Y-2.3875
X4.8875Y-3.1375
X4.8875Y-3.8875
X4.9875Y-1.6375
X4.9875Y-2.3875
X4.9875Y-3.1375
X4.9875Y-3.8875
X5.6375Y-1.6375
X5.6375Y-2.3875
X5.6375Y-3.1375
X5.6375Y-3.8875
X5.7375Y-1.6375
X5.7375Y-2.3875
X5.7375Y-3.1375
X5.7375Y-3.8875
X6.3875Y-1.5125
X6.3875Y-2.2625
X6.3875Y-3.0125
X6.3875Y-3.7625
X6.4875Y-1.5125
X6.4875Y-2.2625
X6.4875Y-3.0125
X6.4875Y-3.7625
X6.7938Y-4.7938
X6.8937Y-4.7938
X7.1375Y-1.4187
X7.1375Y-2.1687
X7.1375Y-2.9187
X7.1375Y-3.6687
X7.2375Y-1.4187
X7.2375Y-2.1687
X7.2375Y-2.9187
X7.2375Y-3.6687
X7.5438Y-4.7938
X7.6437Y-4.7938
X7.8875Y-1.5125
X7.8875Y-2.2625
X7.8875Y-3.0125
X7.8875Y-3.7625
X7.9875Y-1.5125
X7.9875Y-2.2625
X7.9875Y-3.0125
X7.9875Y-3.7625
X8.2937Y-4.8875
X8.3937Y-4.8875
X8.6375Y-1.6062
X8.6375Y-2.3562
X8.6375Y-3.1062
X8.6375Y-3.8562
X8.7375Y-1.6062
X8.7375Y-2.3562
X8.7375Y-3.1062
X8.7375Y-3.8562
X9.6482Y-4.7371
X9.6982Y-4.6504
T4
X9.2Y-1.1062
X9.2Y-1.2063
X9.2Y-1.3062
X9.2Y-1.4062
X9.2Y-1.5062
X9.2Y-1.6062
X9.2Y-1.7063
X9.2Y-1.8062
X9.2Y-1.9062
X9.2Y-2.0063
X9.2Y-2.1062
X9.2Y-2.2062
X9.8Y-1.1062
X9.8Y-1.2063
X9.8Y-1.3062
X9.8Y-1.4062
X9.8Y-1.5062
X9.8Y-1.6062
X9.8Y-1.7063
X9.8Y-1.8062
X9.8Y-1.9062
X9.8Y-2.0063
X9.8Y-2.1062
X9.8Y-2.2062
T5
X9.375Y-2.375
X9.375Y-2.5522
X9.6309Y-2.375
X9.6309Y-2.5522
T6
X1.6937Y-1.3375
X1.6937Y-2.0875
X1.6937Y-2.8375
X1.6937Y-3.5875
X1.7453Y-1.28
X1.7453Y-2.03
X1.7453Y-2.78
X1.7453Y-3.53
X1.9422Y-1.2603
X1.9422Y-2.0103
X1.9422Y-2.7603
X1.9422Y-3.5103
X1.9437Y-1.2375
X1.9437Y-1.9875
X1.9437Y-2.7375
X1.9437Y-3.4875
X2.4438Y-1.3375
X2.4438Y-2.0875
X2.4438Y-2.8375
X2.4438Y-3.5875
X2.4953Y-1.28
X2.4953Y-2.03
X2.4953Y-2.78
X2.4953Y-3.53
X2.6922Y-1.2603
X2.6922Y-2.0103
X2.6922Y-2.7603
X2.6922Y-3.5103
X2.6938Y-1.2375
X2.6938Y-1.9875
X2.6938Y-2.7375
X2.6938Y-3.4875
X3.1938Y-1.3375
X3.1938Y-2.0875
X3.1938Y-2.8375
X3.1938Y-3.5875
X3.2453Y-1.28
X3.2453Y-2.03
X3.2453Y-2.78
X3.2453Y-3.53
X3.4422Y-1.2603
X3.4422Y-2.0103
X3.4422Y-2.7603
X3.4422Y-3.5103
X3.4438Y-1.2375
X3.4438Y-1.9875
X3.4438Y-2.7375
X3.4438Y-3.4875
X3.9438Y-1.3375
X3.9438Y-2.0875
X3.9438Y-2.8375
X3.9438Y-3.5875
X3.9953Y-1.28
X3.9953Y-2.03
X3.9953Y-2.78
X3.9953Y-3.53
X4.1922Y-1.2603
X4.1922Y-2.0103
X4.1922Y-2.7603
X4.1922Y-3.5103
X4.1937Y-1.2375
X4.1937Y-1.9875
X4.1937Y-2.7375
X4.1937Y-3.4875
X4.7875Y-1.3375
X4.7875Y-2.0875
X4.7875Y-2.8375
X4.7875Y-3.5875
X4.8391Y-1.28
X4.8391Y-2.03
X4.8391Y-2.78
X4.8391Y-3.53
X5.0359Y-1.2603
X5.0359Y-2.0103
X5.0359Y-2.7603
X5.0359Y-3.5103
X5.0375Y-1.2375
X5.0375Y-1.9875
X5.0375Y-2.7375
X5.0375Y-3.4875
X5.5375Y-1.3375
X5.5375Y-2.0875
X5.5375Y-2.8375
X5.5375Y-3.5875
X5.5891Y-1.28
X5.5891Y-2.03
X5.5891Y-2.78
X5.5891Y-3.53
X5.7859Y-1.2603
X5.7859Y-2.0103
X5.7859Y-2.7603
X5.7859Y-3.5103
X5.7875Y-1.2375
X5.7875Y-1.9875
X5.7875Y-2.7375
X5.7875Y-3.4875
X6.2875Y-1.2125
X6.2875Y-1.9625
X6.2875Y-2.7125
X6.2875Y-3.4625
X6.3391Y-1.155
X6.3391Y-1.905
X6.3391Y-2.655
X6.3391Y-3.405
X6.5359Y-1.1353
X6.5359Y-1.8853
X6.5359Y-2.6353
X6.5359Y-3.3853
X6.5375Y-1.1125
X6.5375Y-1.8625
X6.5375Y-2.6125
X6.5375Y-3.3625
X6.6937Y-4.4937
X6.7453Y-4.4363
X6.9422Y-4.4166
X6.9437Y-4.3937
X7.0375Y-1.1187
X7.0375Y-1.8687
X7.0375Y-2.6187
X7.0375Y-3.3687
X7.0891Y-1.0613
X7.0891Y-1.8113
X7.0891Y-2.5613
X7.0891Y-3.3113
X7.2859Y-1.0416
X7.2859Y-1.7916
X7.2859Y-2.5416
X7.2859Y-3.2916
X7.2875Y-1.0188
X7.2875Y-1.7688
X7.2875Y-2.5187
X7.2875Y-3.2687
X7.4437Y-4.4937
X7.4953Y-4.4363
X7.6922Y-4.4166
X7.6937Y-4.3937
X7.7875Y-1.2125
X7.7875Y-1.9625
X7.7875Y-2.7125
X7.7875Y-3.4625
X7.8391Y-1.155
X7.8391Y-1.905
X7.8391Y-2.655
X7.8391Y-3.405
X8.0359Y-1.1353
X8.0359Y-1.8853
X8.0359Y-2.6353
X8.0359Y-3.3853
X8.0375Y-1.1125
X8.0375Y-1.8625
X8.0375Y-2.6125
X8.0375Y-3.3625
X8.1937Y-4.5875
X8.2453Y-4.53
X8.4422Y-4.5103
X8.4437Y-4.4875
X8.5375Y-1.3062
X8.5375Y-2.0562
X8.5375Y-2.8062
X8.5375Y-3.5562
X8.5891Y-1.2488
X8.5891Y-1.9988
X8.5891Y-2.7488
X8.5891Y-3.4988
X8.7859Y-1.2291
X8.7859Y-1.9791
X8.7859Y-2.7291
X8.7859Y-3.4791
X8.7875Y-1.2063
X8.7875Y-1.9563
X8.7875Y-2.7062
X8.7875Y-3.4562
X9.3144Y-4.6002
X9.3384Y-4.6737
X9.3768Y-4.4071
X9.3958Y-4.4199
T2
G00X10.0684Y-3.8335
M15
G01X10.0566Y-3.854
M16
G05
G00X10.1471Y-3.6971
M15
G01X10.1353Y-3.7176
M16
G05
G00X10.1923Y-3.9732
M15
G01X10.1805Y-3.9937
M16
G05
G00X10.2062Y-3.5949
M15
G01X10.1944Y-3.6153
M16
G05
G00X10.3937Y-3.7031
M15
G01X10.3819Y-3.7236
M16
G05
T0
M30
