%TF.GenerationSoftware,KiCad,Pcbnew,(5.1.9-0-10_14)*%
%TF.CreationDate,2021-04-10T22:10:23-05:00*%
%TF.ProjectId,wren-left,7772656e-2d6c-4656-9674-2e6b69636164,rev?*%
%TF.SameCoordinates,Original*%
%TF.FileFunction,Copper,L2,Bot*%
%TF.FilePolarity,Positive*%
%FSLAX46Y46*%
G04 Gerber Fmt 4.6, Leading zero omitted, Abs format (unit mm)*
G04 Created by KiCad (PCBNEW (5.1.9-0-10_14)) date 2021-04-10 22:10:23*
%MOMM*%
%LPD*%
G01*
G04 APERTURE LIST*
%TA.AperFunction,ComponentPad*%
%ADD10C,1.752600*%
%TD*%
%TA.AperFunction,ComponentPad*%
%ADD11R,1.752600X1.752600*%
%TD*%
%TA.AperFunction,ComponentPad*%
%ADD12C,2.000000*%
%TD*%
%TA.AperFunction,ComponentPad*%
%ADD13C,0.100000*%
%TD*%
%TA.AperFunction,ComponentPad*%
%ADD14C,1.905000*%
%TD*%
%TA.AperFunction,ComponentPad*%
%ADD15C,2.250000*%
%TD*%
%TA.AperFunction,ComponentPad*%
%ADD16R,1.905000X1.905000*%
%TD*%
%TA.AperFunction,SMDPad,CuDef*%
%ADD17R,1.200000X0.900000*%
%TD*%
%TA.AperFunction,SMDPad,CuDef*%
%ADD18C,0.100000*%
%TD*%
%TA.AperFunction,ViaPad*%
%ADD19C,0.800000*%
%TD*%
%TA.AperFunction,Conductor*%
%ADD20C,0.250000*%
%TD*%
G04 APERTURE END LIST*
D10*
%TO.P,U1,24*%
%TO.N,Net-(U1-Pad24)*%
X233680000Y-28098750D03*
%TO.P,U1,12*%
%TO.N,ROW4*%
X248920000Y-56038750D03*
%TO.P,U1,23*%
%TO.N,GND*%
X233680000Y-30638750D03*
%TO.P,U1,22*%
%TO.N,Net-(SW0-Pad1)*%
X233680000Y-33178750D03*
%TO.P,U1,21*%
%TO.N,VCC*%
X233680000Y-35718750D03*
%TO.P,U1,20*%
%TO.N,COL7*%
X233680000Y-38258750D03*
%TO.P,U1,19*%
%TO.N,COL6*%
X233680000Y-40798750D03*
%TO.P,U1,18*%
%TO.N,COL5*%
X233680000Y-43338750D03*
%TO.P,U1,17*%
%TO.N,COL4*%
X233680000Y-45878750D03*
%TO.P,U1,16*%
%TO.N,COL3*%
X233680000Y-48418750D03*
%TO.P,U1,15*%
%TO.N,COL2*%
X233680000Y-50958750D03*
%TO.P,U1,14*%
%TO.N,COL1*%
X233680000Y-53498750D03*
%TO.P,U1,13*%
%TO.N,COL0*%
X233680000Y-56038750D03*
%TO.P,U1,11*%
%TO.N,Net-(U1-Pad11)*%
X248920000Y-53498750D03*
%TO.P,U1,10*%
%TO.N,COL9*%
X248920000Y-50958750D03*
%TO.P,U1,9*%
%TO.N,COL8*%
X248920000Y-48418750D03*
%TO.P,U1,8*%
%TO.N,ROW3*%
X248920000Y-45878750D03*
%TO.P,U1,7*%
%TO.N,ROW2*%
X248920000Y-43338750D03*
%TO.P,U1,6*%
%TO.N,SCL*%
X248920000Y-40798750D03*
%TO.P,U1,5*%
%TO.N,SDA*%
X248920000Y-38258750D03*
%TO.P,U1,4*%
%TO.N,Net-(U1-Pad4)*%
X248920000Y-35718750D03*
%TO.P,U1,3*%
%TO.N,Net-(U1-Pad3)*%
X248920000Y-33178750D03*
%TO.P,U1,2*%
%TO.N,ROW1*%
X248920000Y-30638750D03*
D11*
%TO.P,U1,1*%
%TO.N,ROW0*%
X248920000Y-28098750D03*
%TD*%
D12*
%TO.P,SW0,1*%
%TO.N,Net-(SW0-Pad1)*%
X244625000Y-60325000D03*
%TO.P,SW0,2*%
%TO.N,GND*%
X244625000Y-64825000D03*
%TO.P,SW0,1*%
%TO.N,Net-(SW0-Pad1)*%
X238125000Y-60325000D03*
%TO.P,SW0,2*%
%TO.N,GND*%
X238125000Y-64825000D03*
%TD*%
%TA.AperFunction,ComponentPad*%
D13*
%TO.P,MX41,4*%
%TO.N,N/C*%
G36*
X245413048Y-121622241D02*
G01*
X243763270Y-120669741D01*
X244715770Y-119019963D01*
X246365548Y-119972463D01*
X245413048Y-121622241D01*
G37*
%TD.AperFunction*%
D14*
%TO.P,MX41,3*%
X246334409Y-118121398D03*
D15*
%TO.P,MX41,1*%
%TO.N,COL0*%
X236585898Y-116846314D03*
%TA.AperFunction,ComponentPad*%
G36*
G01*
X237544806Y-119780137D02*
X237544799Y-119780140D01*
G75*
G02*
X236125962Y-119060311I-349504J1069333D01*
G01*
X235516566Y-117195817D01*
G75*
G02*
X236236395Y-115776980I1069333J349504D01*
G01*
X236236395Y-115776980D01*
G75*
G02*
X237655232Y-116496809I349504J-1069333D01*
G01*
X238264628Y-118361303D01*
G75*
G02*
X237544799Y-119780140I-1069333J-349504D01*
G01*
G37*
%TD.AperFunction*%
%TO.P,MX41,2*%
%TO.N,Net-(D41-Pad2)*%
X238170591Y-111941545D03*
%TA.AperFunction,ComponentPad*%
G36*
G01*
X239586650Y-112893649D02*
X239586155Y-112894386D01*
G75*
G02*
X238024686Y-113199455I-933269J628200D01*
G01*
X237542392Y-112874813D01*
G75*
G02*
X237237323Y-111313344I628200J933269D01*
G01*
X237237323Y-111313344D01*
G75*
G02*
X238798792Y-111008275I933269J-628200D01*
G01*
X239281086Y-111332917D01*
G75*
G02*
X239586155Y-112894386I-628200J-933269D01*
G01*
G37*
%TD.AperFunction*%
%TD*%
%TO.P,J1,R2*%
%TO.N,SCL*%
%TA.AperFunction,ComponentPad*%
G36*
G01*
X259587500Y-90703046D02*
X259587500Y-90703046D01*
G75*
G02*
X259843718Y-91659264I-350000J-606218D01*
G01*
X259543718Y-92178880D01*
G75*
G02*
X258587500Y-92435098I-606218J350000D01*
G01*
X258587500Y-92435098D01*
G75*
G02*
X258331282Y-91478880I350000J606218D01*
G01*
X258631282Y-90959264D01*
G75*
G02*
X259587500Y-90703046I606218J-350000D01*
G01*
G37*
%TD.AperFunction*%
%TO.P,J1,R1*%
%TO.N,VCC*%
%TA.AperFunction,ComponentPad*%
G36*
G01*
X258087500Y-93301122D02*
X258087500Y-93301122D01*
G75*
G02*
X258343718Y-94257340I-350000J-606218D01*
G01*
X258043718Y-94776956D01*
G75*
G02*
X257087500Y-95033174I-606218J350000D01*
G01*
X257087500Y-95033174D01*
G75*
G02*
X256831282Y-94076956I350000J606218D01*
G01*
X257131282Y-93557340D01*
G75*
G02*
X258087500Y-93301122I606218J-350000D01*
G01*
G37*
%TD.AperFunction*%
%TA.AperFunction,ComponentPad*%
D13*
%TO.P,J1,T*%
%TO.N,GND*%
G36*
X255481282Y-96415225D02*
G01*
X256693718Y-97115225D01*
X255693718Y-98847275D01*
X254481282Y-98147275D01*
X255481282Y-96415225D01*
G37*
%TD.AperFunction*%
%TO.P,J1,S*%
%TO.N,SDA*%
%TA.AperFunction,ComponentPad*%
G36*
G01*
X259234614Y-100314262D02*
X259234614Y-100314262D01*
G75*
G02*
X259490832Y-101270480I-350000J-606218D01*
G01*
X259190832Y-101790096D01*
G75*
G02*
X258234614Y-102046314I-606218J350000D01*
G01*
X258234614Y-102046314D01*
G75*
G02*
X257978396Y-101090096I350000J606218D01*
G01*
X258278396Y-100570480D01*
G75*
G02*
X259234614Y-100314262I606218J-350000D01*
G01*
G37*
%TD.AperFunction*%
%TO.P,J1,*%
%TO.N,*%
%TA.AperFunction,ComponentPad*%
G36*
G01*
X264350640Y-93453046D02*
X264350640Y-93453046D01*
G75*
G02*
X264606858Y-94409264I-350000J-606218D01*
G01*
X264306858Y-94928880D01*
G75*
G02*
X263350640Y-95185098I-606218J350000D01*
G01*
X263350640Y-95185098D01*
G75*
G02*
X263094422Y-94228880I350000J606218D01*
G01*
X263394422Y-93709264D01*
G75*
G02*
X264350640Y-93453046I606218J-350000D01*
G01*
G37*
%TD.AperFunction*%
%TD*%
%TO.P,R2,2*%
%TO.N,VCC*%
%TA.AperFunction,SMDPad,CuDef*%
G36*
G01*
X240773000Y-45523999D02*
X240773000Y-46424001D01*
G75*
G02*
X240523001Y-46674000I-249999J0D01*
G01*
X239997999Y-46674000D01*
G75*
G02*
X239748000Y-46424001I0J249999D01*
G01*
X239748000Y-45523999D01*
G75*
G02*
X239997999Y-45274000I249999J0D01*
G01*
X240523001Y-45274000D01*
G75*
G02*
X240773000Y-45523999I0J-249999D01*
G01*
G37*
%TD.AperFunction*%
%TO.P,R2,1*%
%TO.N,SCL*%
%TA.AperFunction,SMDPad,CuDef*%
G36*
G01*
X242598000Y-45523999D02*
X242598000Y-46424001D01*
G75*
G02*
X242348001Y-46674000I-249999J0D01*
G01*
X241822999Y-46674000D01*
G75*
G02*
X241573000Y-46424001I0J249999D01*
G01*
X241573000Y-45523999D01*
G75*
G02*
X241822999Y-45274000I249999J0D01*
G01*
X242348001Y-45274000D01*
G75*
G02*
X242598000Y-45523999I0J-249999D01*
G01*
G37*
%TD.AperFunction*%
%TD*%
%TO.P,R1,2*%
%TO.N,VCC*%
%TA.AperFunction,SMDPad,CuDef*%
G36*
G01*
X240646000Y-33331999D02*
X240646000Y-34232001D01*
G75*
G02*
X240396001Y-34482000I-249999J0D01*
G01*
X239870999Y-34482000D01*
G75*
G02*
X239621000Y-34232001I0J249999D01*
G01*
X239621000Y-33331999D01*
G75*
G02*
X239870999Y-33082000I249999J0D01*
G01*
X240396001Y-33082000D01*
G75*
G02*
X240646000Y-33331999I0J-249999D01*
G01*
G37*
%TD.AperFunction*%
%TO.P,R1,1*%
%TO.N,SDA*%
%TA.AperFunction,SMDPad,CuDef*%
G36*
G01*
X242471000Y-33331999D02*
X242471000Y-34232001D01*
G75*
G02*
X242221001Y-34482000I-249999J0D01*
G01*
X241695999Y-34482000D01*
G75*
G02*
X241446000Y-34232001I0J249999D01*
G01*
X241446000Y-33331999D01*
G75*
G02*
X241695999Y-33082000I249999J0D01*
G01*
X242221001Y-33082000D01*
G75*
G02*
X242471000Y-33331999I0J-249999D01*
G01*
G37*
%TD.AperFunction*%
%TD*%
D16*
%TO.P,MX44,4*%
%TO.N,N/C*%
X175101250Y-121761250D03*
D14*
%TO.P,MX44,3*%
X172561250Y-121761250D03*
D15*
%TO.P,MX44,1*%
%TO.N,COL3*%
X171331250Y-112681250D03*
%TA.AperFunction,ComponentPad*%
G36*
G01*
X169269938Y-114978600D02*
X169269933Y-114978595D01*
G75*
G02*
X169183905Y-113389933I751317J837345D01*
G01*
X170493907Y-111929933D01*
G75*
G02*
X172082569Y-111843905I837345J-751317D01*
G01*
X172082569Y-111843905D01*
G75*
G02*
X172168597Y-113432567I-751317J-837345D01*
G01*
X170858595Y-114892567D01*
G75*
G02*
X169269933Y-114978595I-837345J751317D01*
G01*
G37*
%TD.AperFunction*%
%TO.P,MX44,2*%
%TO.N,Net-(D44-Pad2)*%
X176371250Y-111601250D03*
%TA.AperFunction,ComponentPad*%
G36*
G01*
X176254733Y-113303645D02*
X176253847Y-113303584D01*
G75*
G02*
X175208916Y-112103847I77403J1122334D01*
G01*
X175248916Y-111523847D01*
G75*
G02*
X176448653Y-110478916I1122334J-77403D01*
G01*
X176448653Y-110478916D01*
G75*
G02*
X177493584Y-111678653I-77403J-1122334D01*
G01*
X177453584Y-112258653D01*
G75*
G02*
X176253847Y-113303584I-1122334J77403D01*
G01*
G37*
%TD.AperFunction*%
%TD*%
D16*
%TO.P,MX43,4*%
%TO.N,N/C*%
X194151250Y-121761250D03*
D14*
%TO.P,MX43,3*%
X191611250Y-121761250D03*
D15*
%TO.P,MX43,1*%
%TO.N,COL2*%
X190381250Y-112681250D03*
%TA.AperFunction,ComponentPad*%
G36*
G01*
X188319938Y-114978600D02*
X188319933Y-114978595D01*
G75*
G02*
X188233905Y-113389933I751317J837345D01*
G01*
X189543907Y-111929933D01*
G75*
G02*
X191132569Y-111843905I837345J-751317D01*
G01*
X191132569Y-111843905D01*
G75*
G02*
X191218597Y-113432567I-751317J-837345D01*
G01*
X189908595Y-114892567D01*
G75*
G02*
X188319933Y-114978595I-837345J751317D01*
G01*
G37*
%TD.AperFunction*%
%TO.P,MX43,2*%
%TO.N,Net-(D43-Pad2)*%
X195421250Y-111601250D03*
%TA.AperFunction,ComponentPad*%
G36*
G01*
X195304733Y-113303645D02*
X195303847Y-113303584D01*
G75*
G02*
X194258916Y-112103847I77403J1122334D01*
G01*
X194298916Y-111523847D01*
G75*
G02*
X195498653Y-110478916I1122334J-77403D01*
G01*
X195498653Y-110478916D01*
G75*
G02*
X196543584Y-111678653I-77403J-1122334D01*
G01*
X196503584Y-112258653D01*
G75*
G02*
X195303847Y-113303584I-1122334J77403D01*
G01*
G37*
%TD.AperFunction*%
%TD*%
D16*
%TO.P,MX42,4*%
%TO.N,N/C*%
X213201250Y-124142500D03*
D14*
%TO.P,MX42,3*%
X210661250Y-124142500D03*
D15*
%TO.P,MX42,1*%
%TO.N,COL1*%
X209431250Y-115062500D03*
%TA.AperFunction,ComponentPad*%
G36*
G01*
X207369938Y-117359850D02*
X207369933Y-117359845D01*
G75*
G02*
X207283905Y-115771183I751317J837345D01*
G01*
X208593907Y-114311183D01*
G75*
G02*
X210182569Y-114225155I837345J-751317D01*
G01*
X210182569Y-114225155D01*
G75*
G02*
X210268597Y-115813817I-751317J-837345D01*
G01*
X208958595Y-117273817D01*
G75*
G02*
X207369933Y-117359845I-837345J751317D01*
G01*
G37*
%TD.AperFunction*%
%TO.P,MX42,2*%
%TO.N,Net-(D42-Pad2)*%
X214471250Y-113982500D03*
%TA.AperFunction,ComponentPad*%
G36*
G01*
X214354733Y-115684895D02*
X214353847Y-115684834D01*
G75*
G02*
X213308916Y-114485097I77403J1122334D01*
G01*
X213348916Y-113905097D01*
G75*
G02*
X214548653Y-112860166I1122334J-77403D01*
G01*
X214548653Y-112860166D01*
G75*
G02*
X215593584Y-114059903I-77403J-1122334D01*
G01*
X215553584Y-114639903D01*
G75*
G02*
X214353847Y-115684834I-1122334J77403D01*
G01*
G37*
%TD.AperFunction*%
%TD*%
D16*
%TO.P,MX40,4*%
%TO.N,N/C*%
X48101250Y-98742500D03*
D14*
%TO.P,MX40,3*%
X45561250Y-98742500D03*
D15*
%TO.P,MX40,1*%
%TO.N,COL9*%
X44331250Y-89662500D03*
%TA.AperFunction,ComponentPad*%
G36*
G01*
X42269938Y-91959850D02*
X42269933Y-91959845D01*
G75*
G02*
X42183905Y-90371183I751317J837345D01*
G01*
X43493907Y-88911183D01*
G75*
G02*
X45082569Y-88825155I837345J-751317D01*
G01*
X45082569Y-88825155D01*
G75*
G02*
X45168597Y-90413817I-751317J-837345D01*
G01*
X43858595Y-91873817D01*
G75*
G02*
X42269933Y-91959845I-837345J751317D01*
G01*
G37*
%TD.AperFunction*%
%TO.P,MX40,2*%
%TO.N,Net-(D40-Pad2)*%
X49371250Y-88582500D03*
%TA.AperFunction,ComponentPad*%
G36*
G01*
X49254733Y-90284895D02*
X49253847Y-90284834D01*
G75*
G02*
X48208916Y-89085097I77403J1122334D01*
G01*
X48248916Y-88505097D01*
G75*
G02*
X49448653Y-87460166I1122334J-77403D01*
G01*
X49448653Y-87460166D01*
G75*
G02*
X50493584Y-88659903I-77403J-1122334D01*
G01*
X50453584Y-89239903D01*
G75*
G02*
X49253847Y-90284834I-1122334J77403D01*
G01*
G37*
%TD.AperFunction*%
%TD*%
D16*
%TO.P,MX39,4*%
%TO.N,N/C*%
X67151250Y-98742500D03*
D14*
%TO.P,MX39,3*%
X64611250Y-98742500D03*
D15*
%TO.P,MX39,1*%
%TO.N,COL8*%
X63381250Y-89662500D03*
%TA.AperFunction,ComponentPad*%
G36*
G01*
X61319938Y-91959850D02*
X61319933Y-91959845D01*
G75*
G02*
X61233905Y-90371183I751317J837345D01*
G01*
X62543907Y-88911183D01*
G75*
G02*
X64132569Y-88825155I837345J-751317D01*
G01*
X64132569Y-88825155D01*
G75*
G02*
X64218597Y-90413817I-751317J-837345D01*
G01*
X62908595Y-91873817D01*
G75*
G02*
X61319933Y-91959845I-837345J751317D01*
G01*
G37*
%TD.AperFunction*%
%TO.P,MX39,2*%
%TO.N,Net-(D39-Pad2)*%
X68421250Y-88582500D03*
%TA.AperFunction,ComponentPad*%
G36*
G01*
X68304733Y-90284895D02*
X68303847Y-90284834D01*
G75*
G02*
X67258916Y-89085097I77403J1122334D01*
G01*
X67298916Y-88505097D01*
G75*
G02*
X68498653Y-87460166I1122334J-77403D01*
G01*
X68498653Y-87460166D01*
G75*
G02*
X69543584Y-88659903I-77403J-1122334D01*
G01*
X69503584Y-89239903D01*
G75*
G02*
X68303847Y-90284834I-1122334J77403D01*
G01*
G37*
%TD.AperFunction*%
%TD*%
D16*
%TO.P,MX38,4*%
%TO.N,N/C*%
X86201250Y-98742500D03*
D14*
%TO.P,MX38,3*%
X83661250Y-98742500D03*
D15*
%TO.P,MX38,1*%
%TO.N,COL7*%
X82431250Y-89662500D03*
%TA.AperFunction,ComponentPad*%
G36*
G01*
X80369938Y-91959850D02*
X80369933Y-91959845D01*
G75*
G02*
X80283905Y-90371183I751317J837345D01*
G01*
X81593907Y-88911183D01*
G75*
G02*
X83182569Y-88825155I837345J-751317D01*
G01*
X83182569Y-88825155D01*
G75*
G02*
X83268597Y-90413817I-751317J-837345D01*
G01*
X81958595Y-91873817D01*
G75*
G02*
X80369933Y-91959845I-837345J751317D01*
G01*
G37*
%TD.AperFunction*%
%TO.P,MX38,2*%
%TO.N,Net-(D38-Pad2)*%
X87471250Y-88582500D03*
%TA.AperFunction,ComponentPad*%
G36*
G01*
X87354733Y-90284895D02*
X87353847Y-90284834D01*
G75*
G02*
X86308916Y-89085097I77403J1122334D01*
G01*
X86348916Y-88505097D01*
G75*
G02*
X87548653Y-87460166I1122334J-77403D01*
G01*
X87548653Y-87460166D01*
G75*
G02*
X88593584Y-88659903I-77403J-1122334D01*
G01*
X88553584Y-89239903D01*
G75*
G02*
X87353847Y-90284834I-1122334J77403D01*
G01*
G37*
%TD.AperFunction*%
%TD*%
D16*
%TO.P,MX37,4*%
%TO.N,N/C*%
X105251250Y-98742500D03*
D14*
%TO.P,MX37,3*%
X102711250Y-98742500D03*
D15*
%TO.P,MX37,1*%
%TO.N,COL6*%
X101481250Y-89662500D03*
%TA.AperFunction,ComponentPad*%
G36*
G01*
X99419938Y-91959850D02*
X99419933Y-91959845D01*
G75*
G02*
X99333905Y-90371183I751317J837345D01*
G01*
X100643907Y-88911183D01*
G75*
G02*
X102232569Y-88825155I837345J-751317D01*
G01*
X102232569Y-88825155D01*
G75*
G02*
X102318597Y-90413817I-751317J-837345D01*
G01*
X101008595Y-91873817D01*
G75*
G02*
X99419933Y-91959845I-837345J751317D01*
G01*
G37*
%TD.AperFunction*%
%TO.P,MX37,2*%
%TO.N,Net-(D37-Pad2)*%
X106521250Y-88582500D03*
%TA.AperFunction,ComponentPad*%
G36*
G01*
X106404733Y-90284895D02*
X106403847Y-90284834D01*
G75*
G02*
X105358916Y-89085097I77403J1122334D01*
G01*
X105398916Y-88505097D01*
G75*
G02*
X106598653Y-87460166I1122334J-77403D01*
G01*
X106598653Y-87460166D01*
G75*
G02*
X107643584Y-88659903I-77403J-1122334D01*
G01*
X107603584Y-89239903D01*
G75*
G02*
X106403847Y-90284834I-1122334J77403D01*
G01*
G37*
%TD.AperFunction*%
%TD*%
D16*
%TO.P,MX36,4*%
%TO.N,N/C*%
X126682500Y-98742500D03*
D14*
%TO.P,MX36,3*%
X124142500Y-98742500D03*
D15*
%TO.P,MX36,1*%
%TO.N,COL5*%
X122912500Y-89662500D03*
%TA.AperFunction,ComponentPad*%
G36*
G01*
X120851188Y-91959850D02*
X120851183Y-91959845D01*
G75*
G02*
X120765155Y-90371183I751317J837345D01*
G01*
X122075157Y-88911183D01*
G75*
G02*
X123663819Y-88825155I837345J-751317D01*
G01*
X123663819Y-88825155D01*
G75*
G02*
X123749847Y-90413817I-751317J-837345D01*
G01*
X122439845Y-91873817D01*
G75*
G02*
X120851183Y-91959845I-837345J751317D01*
G01*
G37*
%TD.AperFunction*%
%TO.P,MX36,2*%
%TO.N,Net-(D36-Pad2)*%
X127952500Y-88582500D03*
%TA.AperFunction,ComponentPad*%
G36*
G01*
X127835983Y-90284895D02*
X127835097Y-90284834D01*
G75*
G02*
X126790166Y-89085097I77403J1122334D01*
G01*
X126830166Y-88505097D01*
G75*
G02*
X128029903Y-87460166I1122334J-77403D01*
G01*
X128029903Y-87460166D01*
G75*
G02*
X129074834Y-88659903I-77403J-1122334D01*
G01*
X129034834Y-89239903D01*
G75*
G02*
X127835097Y-90284834I-1122334J77403D01*
G01*
G37*
%TD.AperFunction*%
%TD*%
D16*
%TO.P,MX35,4*%
%TO.N,N/C*%
X145732500Y-98742500D03*
D14*
%TO.P,MX35,3*%
X143192500Y-98742500D03*
D15*
%TO.P,MX35,1*%
%TO.N,COL4*%
X141962500Y-89662500D03*
%TA.AperFunction,ComponentPad*%
G36*
G01*
X139901188Y-91959850D02*
X139901183Y-91959845D01*
G75*
G02*
X139815155Y-90371183I751317J837345D01*
G01*
X141125157Y-88911183D01*
G75*
G02*
X142713819Y-88825155I837345J-751317D01*
G01*
X142713819Y-88825155D01*
G75*
G02*
X142799847Y-90413817I-751317J-837345D01*
G01*
X141489845Y-91873817D01*
G75*
G02*
X139901183Y-91959845I-837345J751317D01*
G01*
G37*
%TD.AperFunction*%
%TO.P,MX35,2*%
%TO.N,Net-(D35-Pad2)*%
X147002500Y-88582500D03*
%TA.AperFunction,ComponentPad*%
G36*
G01*
X146885983Y-90284895D02*
X146885097Y-90284834D01*
G75*
G02*
X145840166Y-89085097I77403J1122334D01*
G01*
X145880166Y-88505097D01*
G75*
G02*
X147079903Y-87460166I1122334J-77403D01*
G01*
X147079903Y-87460166D01*
G75*
G02*
X148124834Y-88659903I-77403J-1122334D01*
G01*
X148084834Y-89239903D01*
G75*
G02*
X146885097Y-90284834I-1122334J77403D01*
G01*
G37*
%TD.AperFunction*%
%TD*%
D16*
%TO.P,MX34,4*%
%TO.N,N/C*%
X164782500Y-95567500D03*
D14*
%TO.P,MX34,3*%
X162242500Y-95567500D03*
D15*
%TO.P,MX34,1*%
%TO.N,COL3*%
X161012500Y-86487500D03*
%TA.AperFunction,ComponentPad*%
G36*
G01*
X158951188Y-88784850D02*
X158951183Y-88784845D01*
G75*
G02*
X158865155Y-87196183I751317J837345D01*
G01*
X160175157Y-85736183D01*
G75*
G02*
X161763819Y-85650155I837345J-751317D01*
G01*
X161763819Y-85650155D01*
G75*
G02*
X161849847Y-87238817I-751317J-837345D01*
G01*
X160539845Y-88698817D01*
G75*
G02*
X158951183Y-88784845I-837345J751317D01*
G01*
G37*
%TD.AperFunction*%
%TO.P,MX34,2*%
%TO.N,Net-(D34-Pad2)*%
X166052500Y-85407500D03*
%TA.AperFunction,ComponentPad*%
G36*
G01*
X165935983Y-87109895D02*
X165935097Y-87109834D01*
G75*
G02*
X164890166Y-85910097I77403J1122334D01*
G01*
X164930166Y-85330097D01*
G75*
G02*
X166129903Y-84285166I1122334J-77403D01*
G01*
X166129903Y-84285166D01*
G75*
G02*
X167174834Y-85484903I-77403J-1122334D01*
G01*
X167134834Y-86064903D01*
G75*
G02*
X165935097Y-87109834I-1122334J77403D01*
G01*
G37*
%TD.AperFunction*%
%TD*%
D16*
%TO.P,MX33,4*%
%TO.N,N/C*%
X183832500Y-93186250D03*
D14*
%TO.P,MX33,3*%
X181292500Y-93186250D03*
D15*
%TO.P,MX33,1*%
%TO.N,COL2*%
X180062500Y-84106250D03*
%TA.AperFunction,ComponentPad*%
G36*
G01*
X178001188Y-86403600D02*
X178001183Y-86403595D01*
G75*
G02*
X177915155Y-84814933I751317J837345D01*
G01*
X179225157Y-83354933D01*
G75*
G02*
X180813819Y-83268905I837345J-751317D01*
G01*
X180813819Y-83268905D01*
G75*
G02*
X180899847Y-84857567I-751317J-837345D01*
G01*
X179589845Y-86317567D01*
G75*
G02*
X178001183Y-86403595I-837345J751317D01*
G01*
G37*
%TD.AperFunction*%
%TO.P,MX33,2*%
%TO.N,Net-(D33-Pad2)*%
X185102500Y-83026250D03*
%TA.AperFunction,ComponentPad*%
G36*
G01*
X184985983Y-84728645D02*
X184985097Y-84728584D01*
G75*
G02*
X183940166Y-83528847I77403J1122334D01*
G01*
X183980166Y-82948847D01*
G75*
G02*
X185179903Y-81903916I1122334J-77403D01*
G01*
X185179903Y-81903916D01*
G75*
G02*
X186224834Y-83103653I-77403J-1122334D01*
G01*
X186184834Y-83683653D01*
G75*
G02*
X184985097Y-84728584I-1122334J77403D01*
G01*
G37*
%TD.AperFunction*%
%TD*%
D16*
%TO.P,MX32,4*%
%TO.N,N/C*%
X202882500Y-95567500D03*
D14*
%TO.P,MX32,3*%
X200342500Y-95567500D03*
D15*
%TO.P,MX32,1*%
%TO.N,COL1*%
X199112500Y-86487500D03*
%TA.AperFunction,ComponentPad*%
G36*
G01*
X197051188Y-88784850D02*
X197051183Y-88784845D01*
G75*
G02*
X196965155Y-87196183I751317J837345D01*
G01*
X198275157Y-85736183D01*
G75*
G02*
X199863819Y-85650155I837345J-751317D01*
G01*
X199863819Y-85650155D01*
G75*
G02*
X199949847Y-87238817I-751317J-837345D01*
G01*
X198639845Y-88698817D01*
G75*
G02*
X197051183Y-88784845I-837345J751317D01*
G01*
G37*
%TD.AperFunction*%
%TO.P,MX32,2*%
%TO.N,Net-(D32-Pad2)*%
X204152500Y-85407500D03*
%TA.AperFunction,ComponentPad*%
G36*
G01*
X204035983Y-87109895D02*
X204035097Y-87109834D01*
G75*
G02*
X202990166Y-85910097I77403J1122334D01*
G01*
X203030166Y-85330097D01*
G75*
G02*
X204229903Y-84285166I1122334J-77403D01*
G01*
X204229903Y-84285166D01*
G75*
G02*
X205274834Y-85484903I-77403J-1122334D01*
G01*
X205234834Y-86064903D01*
G75*
G02*
X204035097Y-87109834I-1122334J77403D01*
G01*
G37*
%TD.AperFunction*%
%TD*%
D16*
%TO.P,MX31,4*%
%TO.N,N/C*%
X221932500Y-97948750D03*
D14*
%TO.P,MX31,3*%
X219392500Y-97948750D03*
D15*
%TO.P,MX31,1*%
%TO.N,COL0*%
X218162500Y-88868750D03*
%TA.AperFunction,ComponentPad*%
G36*
G01*
X216101188Y-91166100D02*
X216101183Y-91166095D01*
G75*
G02*
X216015155Y-89577433I751317J837345D01*
G01*
X217325157Y-88117433D01*
G75*
G02*
X218913819Y-88031405I837345J-751317D01*
G01*
X218913819Y-88031405D01*
G75*
G02*
X218999847Y-89620067I-751317J-837345D01*
G01*
X217689845Y-91080067D01*
G75*
G02*
X216101183Y-91166095I-837345J751317D01*
G01*
G37*
%TD.AperFunction*%
%TO.P,MX31,2*%
%TO.N,Net-(D31-Pad2)*%
X223202500Y-87788750D03*
%TA.AperFunction,ComponentPad*%
G36*
G01*
X223085983Y-89491145D02*
X223085097Y-89491084D01*
G75*
G02*
X222040166Y-88291347I77403J1122334D01*
G01*
X222080166Y-87711347D01*
G75*
G02*
X223279903Y-86666416I1122334J-77403D01*
G01*
X223279903Y-86666416D01*
G75*
G02*
X224324834Y-87866153I-77403J-1122334D01*
G01*
X224284834Y-88446153D01*
G75*
G02*
X223085097Y-89491084I-1122334J77403D01*
G01*
G37*
%TD.AperFunction*%
%TD*%
D16*
%TO.P,MX30,4*%
%TO.N,N/C*%
X48101250Y-79692500D03*
D14*
%TO.P,MX30,3*%
X45561250Y-79692500D03*
D15*
%TO.P,MX30,1*%
%TO.N,COL9*%
X44331250Y-70612500D03*
%TA.AperFunction,ComponentPad*%
G36*
G01*
X42269938Y-72909850D02*
X42269933Y-72909845D01*
G75*
G02*
X42183905Y-71321183I751317J837345D01*
G01*
X43493907Y-69861183D01*
G75*
G02*
X45082569Y-69775155I837345J-751317D01*
G01*
X45082569Y-69775155D01*
G75*
G02*
X45168597Y-71363817I-751317J-837345D01*
G01*
X43858595Y-72823817D01*
G75*
G02*
X42269933Y-72909845I-837345J751317D01*
G01*
G37*
%TD.AperFunction*%
%TO.P,MX30,2*%
%TO.N,Net-(D30-Pad2)*%
X49371250Y-69532500D03*
%TA.AperFunction,ComponentPad*%
G36*
G01*
X49254733Y-71234895D02*
X49253847Y-71234834D01*
G75*
G02*
X48208916Y-70035097I77403J1122334D01*
G01*
X48248916Y-69455097D01*
G75*
G02*
X49448653Y-68410166I1122334J-77403D01*
G01*
X49448653Y-68410166D01*
G75*
G02*
X50493584Y-69609903I-77403J-1122334D01*
G01*
X50453584Y-70189903D01*
G75*
G02*
X49253847Y-71234834I-1122334J77403D01*
G01*
G37*
%TD.AperFunction*%
%TD*%
D16*
%TO.P,MX29,4*%
%TO.N,N/C*%
X67151250Y-79692500D03*
D14*
%TO.P,MX29,3*%
X64611250Y-79692500D03*
D15*
%TO.P,MX29,1*%
%TO.N,COL8*%
X63381250Y-70612500D03*
%TA.AperFunction,ComponentPad*%
G36*
G01*
X61319938Y-72909850D02*
X61319933Y-72909845D01*
G75*
G02*
X61233905Y-71321183I751317J837345D01*
G01*
X62543907Y-69861183D01*
G75*
G02*
X64132569Y-69775155I837345J-751317D01*
G01*
X64132569Y-69775155D01*
G75*
G02*
X64218597Y-71363817I-751317J-837345D01*
G01*
X62908595Y-72823817D01*
G75*
G02*
X61319933Y-72909845I-837345J751317D01*
G01*
G37*
%TD.AperFunction*%
%TO.P,MX29,2*%
%TO.N,Net-(D29-Pad2)*%
X68421250Y-69532500D03*
%TA.AperFunction,ComponentPad*%
G36*
G01*
X68304733Y-71234895D02*
X68303847Y-71234834D01*
G75*
G02*
X67258916Y-70035097I77403J1122334D01*
G01*
X67298916Y-69455097D01*
G75*
G02*
X68498653Y-68410166I1122334J-77403D01*
G01*
X68498653Y-68410166D01*
G75*
G02*
X69543584Y-69609903I-77403J-1122334D01*
G01*
X69503584Y-70189903D01*
G75*
G02*
X68303847Y-71234834I-1122334J77403D01*
G01*
G37*
%TD.AperFunction*%
%TD*%
D16*
%TO.P,MX28,4*%
%TO.N,N/C*%
X86201250Y-79692500D03*
D14*
%TO.P,MX28,3*%
X83661250Y-79692500D03*
D15*
%TO.P,MX28,1*%
%TO.N,COL7*%
X82431250Y-70612500D03*
%TA.AperFunction,ComponentPad*%
G36*
G01*
X80369938Y-72909850D02*
X80369933Y-72909845D01*
G75*
G02*
X80283905Y-71321183I751317J837345D01*
G01*
X81593907Y-69861183D01*
G75*
G02*
X83182569Y-69775155I837345J-751317D01*
G01*
X83182569Y-69775155D01*
G75*
G02*
X83268597Y-71363817I-751317J-837345D01*
G01*
X81958595Y-72823817D01*
G75*
G02*
X80369933Y-72909845I-837345J751317D01*
G01*
G37*
%TD.AperFunction*%
%TO.P,MX28,2*%
%TO.N,Net-(D28-Pad2)*%
X87471250Y-69532500D03*
%TA.AperFunction,ComponentPad*%
G36*
G01*
X87354733Y-71234895D02*
X87353847Y-71234834D01*
G75*
G02*
X86308916Y-70035097I77403J1122334D01*
G01*
X86348916Y-69455097D01*
G75*
G02*
X87548653Y-68410166I1122334J-77403D01*
G01*
X87548653Y-68410166D01*
G75*
G02*
X88593584Y-69609903I-77403J-1122334D01*
G01*
X88553584Y-70189903D01*
G75*
G02*
X87353847Y-71234834I-1122334J77403D01*
G01*
G37*
%TD.AperFunction*%
%TD*%
D16*
%TO.P,MX27,4*%
%TO.N,N/C*%
X105251250Y-79692500D03*
D14*
%TO.P,MX27,3*%
X102711250Y-79692500D03*
D15*
%TO.P,MX27,1*%
%TO.N,COL6*%
X101481250Y-70612500D03*
%TA.AperFunction,ComponentPad*%
G36*
G01*
X99419938Y-72909850D02*
X99419933Y-72909845D01*
G75*
G02*
X99333905Y-71321183I751317J837345D01*
G01*
X100643907Y-69861183D01*
G75*
G02*
X102232569Y-69775155I837345J-751317D01*
G01*
X102232569Y-69775155D01*
G75*
G02*
X102318597Y-71363817I-751317J-837345D01*
G01*
X101008595Y-72823817D01*
G75*
G02*
X99419933Y-72909845I-837345J751317D01*
G01*
G37*
%TD.AperFunction*%
%TO.P,MX27,2*%
%TO.N,Net-(D27-Pad2)*%
X106521250Y-69532500D03*
%TA.AperFunction,ComponentPad*%
G36*
G01*
X106404733Y-71234895D02*
X106403847Y-71234834D01*
G75*
G02*
X105358916Y-70035097I77403J1122334D01*
G01*
X105398916Y-69455097D01*
G75*
G02*
X106598653Y-68410166I1122334J-77403D01*
G01*
X106598653Y-68410166D01*
G75*
G02*
X107643584Y-69609903I-77403J-1122334D01*
G01*
X107603584Y-70189903D01*
G75*
G02*
X106403847Y-71234834I-1122334J77403D01*
G01*
G37*
%TD.AperFunction*%
%TD*%
D16*
%TO.P,MX26,4*%
%TO.N,N/C*%
X126682500Y-79692500D03*
D14*
%TO.P,MX26,3*%
X124142500Y-79692500D03*
D15*
%TO.P,MX26,1*%
%TO.N,COL5*%
X122912500Y-70612500D03*
%TA.AperFunction,ComponentPad*%
G36*
G01*
X120851188Y-72909850D02*
X120851183Y-72909845D01*
G75*
G02*
X120765155Y-71321183I751317J837345D01*
G01*
X122075157Y-69861183D01*
G75*
G02*
X123663819Y-69775155I837345J-751317D01*
G01*
X123663819Y-69775155D01*
G75*
G02*
X123749847Y-71363817I-751317J-837345D01*
G01*
X122439845Y-72823817D01*
G75*
G02*
X120851183Y-72909845I-837345J751317D01*
G01*
G37*
%TD.AperFunction*%
%TO.P,MX26,2*%
%TO.N,Net-(D26-Pad2)*%
X127952500Y-69532500D03*
%TA.AperFunction,ComponentPad*%
G36*
G01*
X127835983Y-71234895D02*
X127835097Y-71234834D01*
G75*
G02*
X126790166Y-70035097I77403J1122334D01*
G01*
X126830166Y-69455097D01*
G75*
G02*
X128029903Y-68410166I1122334J-77403D01*
G01*
X128029903Y-68410166D01*
G75*
G02*
X129074834Y-69609903I-77403J-1122334D01*
G01*
X129034834Y-70189903D01*
G75*
G02*
X127835097Y-71234834I-1122334J77403D01*
G01*
G37*
%TD.AperFunction*%
%TD*%
D16*
%TO.P,MX25,4*%
%TO.N,N/C*%
X145732500Y-79692500D03*
D14*
%TO.P,MX25,3*%
X143192500Y-79692500D03*
D15*
%TO.P,MX25,1*%
%TO.N,COL4*%
X141962500Y-70612500D03*
%TA.AperFunction,ComponentPad*%
G36*
G01*
X139901188Y-72909850D02*
X139901183Y-72909845D01*
G75*
G02*
X139815155Y-71321183I751317J837345D01*
G01*
X141125157Y-69861183D01*
G75*
G02*
X142713819Y-69775155I837345J-751317D01*
G01*
X142713819Y-69775155D01*
G75*
G02*
X142799847Y-71363817I-751317J-837345D01*
G01*
X141489845Y-72823817D01*
G75*
G02*
X139901183Y-72909845I-837345J751317D01*
G01*
G37*
%TD.AperFunction*%
%TO.P,MX25,2*%
%TO.N,Net-(D25-Pad2)*%
X147002500Y-69532500D03*
%TA.AperFunction,ComponentPad*%
G36*
G01*
X146885983Y-71234895D02*
X146885097Y-71234834D01*
G75*
G02*
X145840166Y-70035097I77403J1122334D01*
G01*
X145880166Y-69455097D01*
G75*
G02*
X147079903Y-68410166I1122334J-77403D01*
G01*
X147079903Y-68410166D01*
G75*
G02*
X148124834Y-69609903I-77403J-1122334D01*
G01*
X148084834Y-70189903D01*
G75*
G02*
X146885097Y-71234834I-1122334J77403D01*
G01*
G37*
%TD.AperFunction*%
%TD*%
D16*
%TO.P,MX24,4*%
%TO.N,N/C*%
X164782500Y-76517500D03*
D14*
%TO.P,MX24,3*%
X162242500Y-76517500D03*
D15*
%TO.P,MX24,1*%
%TO.N,COL3*%
X161012500Y-67437500D03*
%TA.AperFunction,ComponentPad*%
G36*
G01*
X158951188Y-69734850D02*
X158951183Y-69734845D01*
G75*
G02*
X158865155Y-68146183I751317J837345D01*
G01*
X160175157Y-66686183D01*
G75*
G02*
X161763819Y-66600155I837345J-751317D01*
G01*
X161763819Y-66600155D01*
G75*
G02*
X161849847Y-68188817I-751317J-837345D01*
G01*
X160539845Y-69648817D01*
G75*
G02*
X158951183Y-69734845I-837345J751317D01*
G01*
G37*
%TD.AperFunction*%
%TO.P,MX24,2*%
%TO.N,Net-(D24-Pad2)*%
X166052500Y-66357500D03*
%TA.AperFunction,ComponentPad*%
G36*
G01*
X165935983Y-68059895D02*
X165935097Y-68059834D01*
G75*
G02*
X164890166Y-66860097I77403J1122334D01*
G01*
X164930166Y-66280097D01*
G75*
G02*
X166129903Y-65235166I1122334J-77403D01*
G01*
X166129903Y-65235166D01*
G75*
G02*
X167174834Y-66434903I-77403J-1122334D01*
G01*
X167134834Y-67014903D01*
G75*
G02*
X165935097Y-68059834I-1122334J77403D01*
G01*
G37*
%TD.AperFunction*%
%TD*%
D16*
%TO.P,MX23,4*%
%TO.N,N/C*%
X183832500Y-74136250D03*
D14*
%TO.P,MX23,3*%
X181292500Y-74136250D03*
D15*
%TO.P,MX23,1*%
%TO.N,COL2*%
X180062500Y-65056250D03*
%TA.AperFunction,ComponentPad*%
G36*
G01*
X178001188Y-67353600D02*
X178001183Y-67353595D01*
G75*
G02*
X177915155Y-65764933I751317J837345D01*
G01*
X179225157Y-64304933D01*
G75*
G02*
X180813819Y-64218905I837345J-751317D01*
G01*
X180813819Y-64218905D01*
G75*
G02*
X180899847Y-65807567I-751317J-837345D01*
G01*
X179589845Y-67267567D01*
G75*
G02*
X178001183Y-67353595I-837345J751317D01*
G01*
G37*
%TD.AperFunction*%
%TO.P,MX23,2*%
%TO.N,Net-(D23-Pad2)*%
X185102500Y-63976250D03*
%TA.AperFunction,ComponentPad*%
G36*
G01*
X184985983Y-65678645D02*
X184985097Y-65678584D01*
G75*
G02*
X183940166Y-64478847I77403J1122334D01*
G01*
X183980166Y-63898847D01*
G75*
G02*
X185179903Y-62853916I1122334J-77403D01*
G01*
X185179903Y-62853916D01*
G75*
G02*
X186224834Y-64053653I-77403J-1122334D01*
G01*
X186184834Y-64633653D01*
G75*
G02*
X184985097Y-65678584I-1122334J77403D01*
G01*
G37*
%TD.AperFunction*%
%TD*%
D16*
%TO.P,MX22,4*%
%TO.N,N/C*%
X202882500Y-76517500D03*
D14*
%TO.P,MX22,3*%
X200342500Y-76517500D03*
D15*
%TO.P,MX22,1*%
%TO.N,COL1*%
X199112500Y-67437500D03*
%TA.AperFunction,ComponentPad*%
G36*
G01*
X197051188Y-69734850D02*
X197051183Y-69734845D01*
G75*
G02*
X196965155Y-68146183I751317J837345D01*
G01*
X198275157Y-66686183D01*
G75*
G02*
X199863819Y-66600155I837345J-751317D01*
G01*
X199863819Y-66600155D01*
G75*
G02*
X199949847Y-68188817I-751317J-837345D01*
G01*
X198639845Y-69648817D01*
G75*
G02*
X197051183Y-69734845I-837345J751317D01*
G01*
G37*
%TD.AperFunction*%
%TO.P,MX22,2*%
%TO.N,Net-(D22-Pad2)*%
X204152500Y-66357500D03*
%TA.AperFunction,ComponentPad*%
G36*
G01*
X204035983Y-68059895D02*
X204035097Y-68059834D01*
G75*
G02*
X202990166Y-66860097I77403J1122334D01*
G01*
X203030166Y-66280097D01*
G75*
G02*
X204229903Y-65235166I1122334J-77403D01*
G01*
X204229903Y-65235166D01*
G75*
G02*
X205274834Y-66434903I-77403J-1122334D01*
G01*
X205234834Y-67014903D01*
G75*
G02*
X204035097Y-68059834I-1122334J77403D01*
G01*
G37*
%TD.AperFunction*%
%TD*%
D16*
%TO.P,MX21,4*%
%TO.N,N/C*%
X221932500Y-78898750D03*
D14*
%TO.P,MX21,3*%
X219392500Y-78898750D03*
D15*
%TO.P,MX21,1*%
%TO.N,COL0*%
X218162500Y-69818750D03*
%TA.AperFunction,ComponentPad*%
G36*
G01*
X216101188Y-72116100D02*
X216101183Y-72116095D01*
G75*
G02*
X216015155Y-70527433I751317J837345D01*
G01*
X217325157Y-69067433D01*
G75*
G02*
X218913819Y-68981405I837345J-751317D01*
G01*
X218913819Y-68981405D01*
G75*
G02*
X218999847Y-70570067I-751317J-837345D01*
G01*
X217689845Y-72030067D01*
G75*
G02*
X216101183Y-72116095I-837345J751317D01*
G01*
G37*
%TD.AperFunction*%
%TO.P,MX21,2*%
%TO.N,Net-(D21-Pad2)*%
X223202500Y-68738750D03*
%TA.AperFunction,ComponentPad*%
G36*
G01*
X223085983Y-70441145D02*
X223085097Y-70441084D01*
G75*
G02*
X222040166Y-69241347I77403J1122334D01*
G01*
X222080166Y-68661347D01*
G75*
G02*
X223279903Y-67616416I1122334J-77403D01*
G01*
X223279903Y-67616416D01*
G75*
G02*
X224324834Y-68816153I-77403J-1122334D01*
G01*
X224284834Y-69396153D01*
G75*
G02*
X223085097Y-70441084I-1122334J77403D01*
G01*
G37*
%TD.AperFunction*%
%TD*%
D16*
%TO.P,MX20,4*%
%TO.N,N/C*%
X48101250Y-60642500D03*
D14*
%TO.P,MX20,3*%
X45561250Y-60642500D03*
D15*
%TO.P,MX20,1*%
%TO.N,COL9*%
X44331250Y-51562500D03*
%TA.AperFunction,ComponentPad*%
G36*
G01*
X42269938Y-53859850D02*
X42269933Y-53859845D01*
G75*
G02*
X42183905Y-52271183I751317J837345D01*
G01*
X43493907Y-50811183D01*
G75*
G02*
X45082569Y-50725155I837345J-751317D01*
G01*
X45082569Y-50725155D01*
G75*
G02*
X45168597Y-52313817I-751317J-837345D01*
G01*
X43858595Y-53773817D01*
G75*
G02*
X42269933Y-53859845I-837345J751317D01*
G01*
G37*
%TD.AperFunction*%
%TO.P,MX20,2*%
%TO.N,Net-(D20-Pad2)*%
X49371250Y-50482500D03*
%TA.AperFunction,ComponentPad*%
G36*
G01*
X49254733Y-52184895D02*
X49253847Y-52184834D01*
G75*
G02*
X48208916Y-50985097I77403J1122334D01*
G01*
X48248916Y-50405097D01*
G75*
G02*
X49448653Y-49360166I1122334J-77403D01*
G01*
X49448653Y-49360166D01*
G75*
G02*
X50493584Y-50559903I-77403J-1122334D01*
G01*
X50453584Y-51139903D01*
G75*
G02*
X49253847Y-52184834I-1122334J77403D01*
G01*
G37*
%TD.AperFunction*%
%TD*%
D16*
%TO.P,MX19,4*%
%TO.N,N/C*%
X67151250Y-60642500D03*
D14*
%TO.P,MX19,3*%
X64611250Y-60642500D03*
D15*
%TO.P,MX19,1*%
%TO.N,COL8*%
X63381250Y-51562500D03*
%TA.AperFunction,ComponentPad*%
G36*
G01*
X61319938Y-53859850D02*
X61319933Y-53859845D01*
G75*
G02*
X61233905Y-52271183I751317J837345D01*
G01*
X62543907Y-50811183D01*
G75*
G02*
X64132569Y-50725155I837345J-751317D01*
G01*
X64132569Y-50725155D01*
G75*
G02*
X64218597Y-52313817I-751317J-837345D01*
G01*
X62908595Y-53773817D01*
G75*
G02*
X61319933Y-53859845I-837345J751317D01*
G01*
G37*
%TD.AperFunction*%
%TO.P,MX19,2*%
%TO.N,Net-(D19-Pad2)*%
X68421250Y-50482500D03*
%TA.AperFunction,ComponentPad*%
G36*
G01*
X68304733Y-52184895D02*
X68303847Y-52184834D01*
G75*
G02*
X67258916Y-50985097I77403J1122334D01*
G01*
X67298916Y-50405097D01*
G75*
G02*
X68498653Y-49360166I1122334J-77403D01*
G01*
X68498653Y-49360166D01*
G75*
G02*
X69543584Y-50559903I-77403J-1122334D01*
G01*
X69503584Y-51139903D01*
G75*
G02*
X68303847Y-52184834I-1122334J77403D01*
G01*
G37*
%TD.AperFunction*%
%TD*%
D16*
%TO.P,MX18,4*%
%TO.N,N/C*%
X86201250Y-60642500D03*
D14*
%TO.P,MX18,3*%
X83661250Y-60642500D03*
D15*
%TO.P,MX18,1*%
%TO.N,COL7*%
X82431250Y-51562500D03*
%TA.AperFunction,ComponentPad*%
G36*
G01*
X80369938Y-53859850D02*
X80369933Y-53859845D01*
G75*
G02*
X80283905Y-52271183I751317J837345D01*
G01*
X81593907Y-50811183D01*
G75*
G02*
X83182569Y-50725155I837345J-751317D01*
G01*
X83182569Y-50725155D01*
G75*
G02*
X83268597Y-52313817I-751317J-837345D01*
G01*
X81958595Y-53773817D01*
G75*
G02*
X80369933Y-53859845I-837345J751317D01*
G01*
G37*
%TD.AperFunction*%
%TO.P,MX18,2*%
%TO.N,Net-(D18-Pad2)*%
X87471250Y-50482500D03*
%TA.AperFunction,ComponentPad*%
G36*
G01*
X87354733Y-52184895D02*
X87353847Y-52184834D01*
G75*
G02*
X86308916Y-50985097I77403J1122334D01*
G01*
X86348916Y-50405097D01*
G75*
G02*
X87548653Y-49360166I1122334J-77403D01*
G01*
X87548653Y-49360166D01*
G75*
G02*
X88593584Y-50559903I-77403J-1122334D01*
G01*
X88553584Y-51139903D01*
G75*
G02*
X87353847Y-52184834I-1122334J77403D01*
G01*
G37*
%TD.AperFunction*%
%TD*%
D16*
%TO.P,MX17,4*%
%TO.N,N/C*%
X105251250Y-60642500D03*
D14*
%TO.P,MX17,3*%
X102711250Y-60642500D03*
D15*
%TO.P,MX17,1*%
%TO.N,COL6*%
X101481250Y-51562500D03*
%TA.AperFunction,ComponentPad*%
G36*
G01*
X99419938Y-53859850D02*
X99419933Y-53859845D01*
G75*
G02*
X99333905Y-52271183I751317J837345D01*
G01*
X100643907Y-50811183D01*
G75*
G02*
X102232569Y-50725155I837345J-751317D01*
G01*
X102232569Y-50725155D01*
G75*
G02*
X102318597Y-52313817I-751317J-837345D01*
G01*
X101008595Y-53773817D01*
G75*
G02*
X99419933Y-53859845I-837345J751317D01*
G01*
G37*
%TD.AperFunction*%
%TO.P,MX17,2*%
%TO.N,Net-(D17-Pad2)*%
X106521250Y-50482500D03*
%TA.AperFunction,ComponentPad*%
G36*
G01*
X106404733Y-52184895D02*
X106403847Y-52184834D01*
G75*
G02*
X105358916Y-50985097I77403J1122334D01*
G01*
X105398916Y-50405097D01*
G75*
G02*
X106598653Y-49360166I1122334J-77403D01*
G01*
X106598653Y-49360166D01*
G75*
G02*
X107643584Y-50559903I-77403J-1122334D01*
G01*
X107603584Y-51139903D01*
G75*
G02*
X106403847Y-52184834I-1122334J77403D01*
G01*
G37*
%TD.AperFunction*%
%TD*%
D16*
%TO.P,MX16,4*%
%TO.N,N/C*%
X126682500Y-60642500D03*
D14*
%TO.P,MX16,3*%
X124142500Y-60642500D03*
D15*
%TO.P,MX16,1*%
%TO.N,COL5*%
X122912500Y-51562500D03*
%TA.AperFunction,ComponentPad*%
G36*
G01*
X120851188Y-53859850D02*
X120851183Y-53859845D01*
G75*
G02*
X120765155Y-52271183I751317J837345D01*
G01*
X122075157Y-50811183D01*
G75*
G02*
X123663819Y-50725155I837345J-751317D01*
G01*
X123663819Y-50725155D01*
G75*
G02*
X123749847Y-52313817I-751317J-837345D01*
G01*
X122439845Y-53773817D01*
G75*
G02*
X120851183Y-53859845I-837345J751317D01*
G01*
G37*
%TD.AperFunction*%
%TO.P,MX16,2*%
%TO.N,Net-(D16-Pad2)*%
X127952500Y-50482500D03*
%TA.AperFunction,ComponentPad*%
G36*
G01*
X127835983Y-52184895D02*
X127835097Y-52184834D01*
G75*
G02*
X126790166Y-50985097I77403J1122334D01*
G01*
X126830166Y-50405097D01*
G75*
G02*
X128029903Y-49360166I1122334J-77403D01*
G01*
X128029903Y-49360166D01*
G75*
G02*
X129074834Y-50559903I-77403J-1122334D01*
G01*
X129034834Y-51139903D01*
G75*
G02*
X127835097Y-52184834I-1122334J77403D01*
G01*
G37*
%TD.AperFunction*%
%TD*%
D16*
%TO.P,MX15,4*%
%TO.N,N/C*%
X145732500Y-60642500D03*
D14*
%TO.P,MX15,3*%
X143192500Y-60642500D03*
D15*
%TO.P,MX15,1*%
%TO.N,COL4*%
X141962500Y-51562500D03*
%TA.AperFunction,ComponentPad*%
G36*
G01*
X139901188Y-53859850D02*
X139901183Y-53859845D01*
G75*
G02*
X139815155Y-52271183I751317J837345D01*
G01*
X141125157Y-50811183D01*
G75*
G02*
X142713819Y-50725155I837345J-751317D01*
G01*
X142713819Y-50725155D01*
G75*
G02*
X142799847Y-52313817I-751317J-837345D01*
G01*
X141489845Y-53773817D01*
G75*
G02*
X139901183Y-53859845I-837345J751317D01*
G01*
G37*
%TD.AperFunction*%
%TO.P,MX15,2*%
%TO.N,Net-(D15-Pad2)*%
X147002500Y-50482500D03*
%TA.AperFunction,ComponentPad*%
G36*
G01*
X146885983Y-52184895D02*
X146885097Y-52184834D01*
G75*
G02*
X145840166Y-50985097I77403J1122334D01*
G01*
X145880166Y-50405097D01*
G75*
G02*
X147079903Y-49360166I1122334J-77403D01*
G01*
X147079903Y-49360166D01*
G75*
G02*
X148124834Y-50559903I-77403J-1122334D01*
G01*
X148084834Y-51139903D01*
G75*
G02*
X146885097Y-52184834I-1122334J77403D01*
G01*
G37*
%TD.AperFunction*%
%TD*%
D16*
%TO.P,MX14,4*%
%TO.N,N/C*%
X164782500Y-57467500D03*
D14*
%TO.P,MX14,3*%
X162242500Y-57467500D03*
D15*
%TO.P,MX14,1*%
%TO.N,COL3*%
X161012500Y-48387500D03*
%TA.AperFunction,ComponentPad*%
G36*
G01*
X158951188Y-50684850D02*
X158951183Y-50684845D01*
G75*
G02*
X158865155Y-49096183I751317J837345D01*
G01*
X160175157Y-47636183D01*
G75*
G02*
X161763819Y-47550155I837345J-751317D01*
G01*
X161763819Y-47550155D01*
G75*
G02*
X161849847Y-49138817I-751317J-837345D01*
G01*
X160539845Y-50598817D01*
G75*
G02*
X158951183Y-50684845I-837345J751317D01*
G01*
G37*
%TD.AperFunction*%
%TO.P,MX14,2*%
%TO.N,Net-(D14-Pad2)*%
X166052500Y-47307500D03*
%TA.AperFunction,ComponentPad*%
G36*
G01*
X165935983Y-49009895D02*
X165935097Y-49009834D01*
G75*
G02*
X164890166Y-47810097I77403J1122334D01*
G01*
X164930166Y-47230097D01*
G75*
G02*
X166129903Y-46185166I1122334J-77403D01*
G01*
X166129903Y-46185166D01*
G75*
G02*
X167174834Y-47384903I-77403J-1122334D01*
G01*
X167134834Y-47964903D01*
G75*
G02*
X165935097Y-49009834I-1122334J77403D01*
G01*
G37*
%TD.AperFunction*%
%TD*%
D16*
%TO.P,MX13,4*%
%TO.N,N/C*%
X183832500Y-55086250D03*
D14*
%TO.P,MX13,3*%
X181292500Y-55086250D03*
D15*
%TO.P,MX13,1*%
%TO.N,COL2*%
X180062500Y-46006250D03*
%TA.AperFunction,ComponentPad*%
G36*
G01*
X178001188Y-48303600D02*
X178001183Y-48303595D01*
G75*
G02*
X177915155Y-46714933I751317J837345D01*
G01*
X179225157Y-45254933D01*
G75*
G02*
X180813819Y-45168905I837345J-751317D01*
G01*
X180813819Y-45168905D01*
G75*
G02*
X180899847Y-46757567I-751317J-837345D01*
G01*
X179589845Y-48217567D01*
G75*
G02*
X178001183Y-48303595I-837345J751317D01*
G01*
G37*
%TD.AperFunction*%
%TO.P,MX13,2*%
%TO.N,Net-(D13-Pad2)*%
X185102500Y-44926250D03*
%TA.AperFunction,ComponentPad*%
G36*
G01*
X184985983Y-46628645D02*
X184985097Y-46628584D01*
G75*
G02*
X183940166Y-45428847I77403J1122334D01*
G01*
X183980166Y-44848847D01*
G75*
G02*
X185179903Y-43803916I1122334J-77403D01*
G01*
X185179903Y-43803916D01*
G75*
G02*
X186224834Y-45003653I-77403J-1122334D01*
G01*
X186184834Y-45583653D01*
G75*
G02*
X184985097Y-46628584I-1122334J77403D01*
G01*
G37*
%TD.AperFunction*%
%TD*%
D16*
%TO.P,MX12,4*%
%TO.N,N/C*%
X202882500Y-57467500D03*
D14*
%TO.P,MX12,3*%
X200342500Y-57467500D03*
D15*
%TO.P,MX12,1*%
%TO.N,COL1*%
X199112500Y-48387500D03*
%TA.AperFunction,ComponentPad*%
G36*
G01*
X197051188Y-50684850D02*
X197051183Y-50684845D01*
G75*
G02*
X196965155Y-49096183I751317J837345D01*
G01*
X198275157Y-47636183D01*
G75*
G02*
X199863819Y-47550155I837345J-751317D01*
G01*
X199863819Y-47550155D01*
G75*
G02*
X199949847Y-49138817I-751317J-837345D01*
G01*
X198639845Y-50598817D01*
G75*
G02*
X197051183Y-50684845I-837345J751317D01*
G01*
G37*
%TD.AperFunction*%
%TO.P,MX12,2*%
%TO.N,Net-(D12-Pad2)*%
X204152500Y-47307500D03*
%TA.AperFunction,ComponentPad*%
G36*
G01*
X204035983Y-49009895D02*
X204035097Y-49009834D01*
G75*
G02*
X202990166Y-47810097I77403J1122334D01*
G01*
X203030166Y-47230097D01*
G75*
G02*
X204229903Y-46185166I1122334J-77403D01*
G01*
X204229903Y-46185166D01*
G75*
G02*
X205274834Y-47384903I-77403J-1122334D01*
G01*
X205234834Y-47964903D01*
G75*
G02*
X204035097Y-49009834I-1122334J77403D01*
G01*
G37*
%TD.AperFunction*%
%TD*%
D16*
%TO.P,MX11,4*%
%TO.N,N/C*%
X221932500Y-59848750D03*
D14*
%TO.P,MX11,3*%
X219392500Y-59848750D03*
D15*
%TO.P,MX11,1*%
%TO.N,COL0*%
X218162500Y-50768750D03*
%TA.AperFunction,ComponentPad*%
G36*
G01*
X216101188Y-53066100D02*
X216101183Y-53066095D01*
G75*
G02*
X216015155Y-51477433I751317J837345D01*
G01*
X217325157Y-50017433D01*
G75*
G02*
X218913819Y-49931405I837345J-751317D01*
G01*
X218913819Y-49931405D01*
G75*
G02*
X218999847Y-51520067I-751317J-837345D01*
G01*
X217689845Y-52980067D01*
G75*
G02*
X216101183Y-53066095I-837345J751317D01*
G01*
G37*
%TD.AperFunction*%
%TO.P,MX11,2*%
%TO.N,Net-(D11-Pad2)*%
X223202500Y-49688750D03*
%TA.AperFunction,ComponentPad*%
G36*
G01*
X223085983Y-51391145D02*
X223085097Y-51391084D01*
G75*
G02*
X222040166Y-50191347I77403J1122334D01*
G01*
X222080166Y-49611347D01*
G75*
G02*
X223279903Y-48566416I1122334J-77403D01*
G01*
X223279903Y-48566416D01*
G75*
G02*
X224324834Y-49766153I-77403J-1122334D01*
G01*
X224284834Y-50346153D01*
G75*
G02*
X223085097Y-51391084I-1122334J77403D01*
G01*
G37*
%TD.AperFunction*%
%TD*%
D16*
%TO.P,MX10,4*%
%TO.N,N/C*%
X48101250Y-41592500D03*
D14*
%TO.P,MX10,3*%
X45561250Y-41592500D03*
D15*
%TO.P,MX10,1*%
%TO.N,COL9*%
X44331250Y-32512500D03*
%TA.AperFunction,ComponentPad*%
G36*
G01*
X42269938Y-34809850D02*
X42269933Y-34809845D01*
G75*
G02*
X42183905Y-33221183I751317J837345D01*
G01*
X43493907Y-31761183D01*
G75*
G02*
X45082569Y-31675155I837345J-751317D01*
G01*
X45082569Y-31675155D01*
G75*
G02*
X45168597Y-33263817I-751317J-837345D01*
G01*
X43858595Y-34723817D01*
G75*
G02*
X42269933Y-34809845I-837345J751317D01*
G01*
G37*
%TD.AperFunction*%
%TO.P,MX10,2*%
%TO.N,Net-(D10-Pad2)*%
X49371250Y-31432500D03*
%TA.AperFunction,ComponentPad*%
G36*
G01*
X49254733Y-33134895D02*
X49253847Y-33134834D01*
G75*
G02*
X48208916Y-31935097I77403J1122334D01*
G01*
X48248916Y-31355097D01*
G75*
G02*
X49448653Y-30310166I1122334J-77403D01*
G01*
X49448653Y-30310166D01*
G75*
G02*
X50493584Y-31509903I-77403J-1122334D01*
G01*
X50453584Y-32089903D01*
G75*
G02*
X49253847Y-33134834I-1122334J77403D01*
G01*
G37*
%TD.AperFunction*%
%TD*%
D16*
%TO.P,MX9,4*%
%TO.N,N/C*%
X67151250Y-41592500D03*
D14*
%TO.P,MX9,3*%
X64611250Y-41592500D03*
D15*
%TO.P,MX9,1*%
%TO.N,COL8*%
X63381250Y-32512500D03*
%TA.AperFunction,ComponentPad*%
G36*
G01*
X61319938Y-34809850D02*
X61319933Y-34809845D01*
G75*
G02*
X61233905Y-33221183I751317J837345D01*
G01*
X62543907Y-31761183D01*
G75*
G02*
X64132569Y-31675155I837345J-751317D01*
G01*
X64132569Y-31675155D01*
G75*
G02*
X64218597Y-33263817I-751317J-837345D01*
G01*
X62908595Y-34723817D01*
G75*
G02*
X61319933Y-34809845I-837345J751317D01*
G01*
G37*
%TD.AperFunction*%
%TO.P,MX9,2*%
%TO.N,Net-(D9-Pad2)*%
X68421250Y-31432500D03*
%TA.AperFunction,ComponentPad*%
G36*
G01*
X68304733Y-33134895D02*
X68303847Y-33134834D01*
G75*
G02*
X67258916Y-31935097I77403J1122334D01*
G01*
X67298916Y-31355097D01*
G75*
G02*
X68498653Y-30310166I1122334J-77403D01*
G01*
X68498653Y-30310166D01*
G75*
G02*
X69543584Y-31509903I-77403J-1122334D01*
G01*
X69503584Y-32089903D01*
G75*
G02*
X68303847Y-33134834I-1122334J77403D01*
G01*
G37*
%TD.AperFunction*%
%TD*%
D16*
%TO.P,MX8,4*%
%TO.N,N/C*%
X86201250Y-41592500D03*
D14*
%TO.P,MX8,3*%
X83661250Y-41592500D03*
D15*
%TO.P,MX8,1*%
%TO.N,COL7*%
X82431250Y-32512500D03*
%TA.AperFunction,ComponentPad*%
G36*
G01*
X80369938Y-34809850D02*
X80369933Y-34809845D01*
G75*
G02*
X80283905Y-33221183I751317J837345D01*
G01*
X81593907Y-31761183D01*
G75*
G02*
X83182569Y-31675155I837345J-751317D01*
G01*
X83182569Y-31675155D01*
G75*
G02*
X83268597Y-33263817I-751317J-837345D01*
G01*
X81958595Y-34723817D01*
G75*
G02*
X80369933Y-34809845I-837345J751317D01*
G01*
G37*
%TD.AperFunction*%
%TO.P,MX8,2*%
%TO.N,Net-(D8-Pad2)*%
X87471250Y-31432500D03*
%TA.AperFunction,ComponentPad*%
G36*
G01*
X87354733Y-33134895D02*
X87353847Y-33134834D01*
G75*
G02*
X86308916Y-31935097I77403J1122334D01*
G01*
X86348916Y-31355097D01*
G75*
G02*
X87548653Y-30310166I1122334J-77403D01*
G01*
X87548653Y-30310166D01*
G75*
G02*
X88593584Y-31509903I-77403J-1122334D01*
G01*
X88553584Y-32089903D01*
G75*
G02*
X87353847Y-33134834I-1122334J77403D01*
G01*
G37*
%TD.AperFunction*%
%TD*%
D16*
%TO.P,MX7,4*%
%TO.N,N/C*%
X105251250Y-41592500D03*
D14*
%TO.P,MX7,3*%
X102711250Y-41592500D03*
D15*
%TO.P,MX7,1*%
%TO.N,COL6*%
X101481250Y-32512500D03*
%TA.AperFunction,ComponentPad*%
G36*
G01*
X99419938Y-34809850D02*
X99419933Y-34809845D01*
G75*
G02*
X99333905Y-33221183I751317J837345D01*
G01*
X100643907Y-31761183D01*
G75*
G02*
X102232569Y-31675155I837345J-751317D01*
G01*
X102232569Y-31675155D01*
G75*
G02*
X102318597Y-33263817I-751317J-837345D01*
G01*
X101008595Y-34723817D01*
G75*
G02*
X99419933Y-34809845I-837345J751317D01*
G01*
G37*
%TD.AperFunction*%
%TO.P,MX7,2*%
%TO.N,Net-(D7-Pad2)*%
X106521250Y-31432500D03*
%TA.AperFunction,ComponentPad*%
G36*
G01*
X106404733Y-33134895D02*
X106403847Y-33134834D01*
G75*
G02*
X105358916Y-31935097I77403J1122334D01*
G01*
X105398916Y-31355097D01*
G75*
G02*
X106598653Y-30310166I1122334J-77403D01*
G01*
X106598653Y-30310166D01*
G75*
G02*
X107643584Y-31509903I-77403J-1122334D01*
G01*
X107603584Y-32089903D01*
G75*
G02*
X106403847Y-33134834I-1122334J77403D01*
G01*
G37*
%TD.AperFunction*%
%TD*%
D16*
%TO.P,MX6,4*%
%TO.N,N/C*%
X126682500Y-41592500D03*
D14*
%TO.P,MX6,3*%
X124142500Y-41592500D03*
D15*
%TO.P,MX6,1*%
%TO.N,COL5*%
X122912500Y-32512500D03*
%TA.AperFunction,ComponentPad*%
G36*
G01*
X120851188Y-34809850D02*
X120851183Y-34809845D01*
G75*
G02*
X120765155Y-33221183I751317J837345D01*
G01*
X122075157Y-31761183D01*
G75*
G02*
X123663819Y-31675155I837345J-751317D01*
G01*
X123663819Y-31675155D01*
G75*
G02*
X123749847Y-33263817I-751317J-837345D01*
G01*
X122439845Y-34723817D01*
G75*
G02*
X120851183Y-34809845I-837345J751317D01*
G01*
G37*
%TD.AperFunction*%
%TO.P,MX6,2*%
%TO.N,Net-(D6-Pad2)*%
X127952500Y-31432500D03*
%TA.AperFunction,ComponentPad*%
G36*
G01*
X127835983Y-33134895D02*
X127835097Y-33134834D01*
G75*
G02*
X126790166Y-31935097I77403J1122334D01*
G01*
X126830166Y-31355097D01*
G75*
G02*
X128029903Y-30310166I1122334J-77403D01*
G01*
X128029903Y-30310166D01*
G75*
G02*
X129074834Y-31509903I-77403J-1122334D01*
G01*
X129034834Y-32089903D01*
G75*
G02*
X127835097Y-33134834I-1122334J77403D01*
G01*
G37*
%TD.AperFunction*%
%TD*%
D16*
%TO.P,MX5,4*%
%TO.N,N/C*%
X145732500Y-41592500D03*
D14*
%TO.P,MX5,3*%
X143192500Y-41592500D03*
D15*
%TO.P,MX5,1*%
%TO.N,COL4*%
X141962500Y-32512500D03*
%TA.AperFunction,ComponentPad*%
G36*
G01*
X139901188Y-34809850D02*
X139901183Y-34809845D01*
G75*
G02*
X139815155Y-33221183I751317J837345D01*
G01*
X141125157Y-31761183D01*
G75*
G02*
X142713819Y-31675155I837345J-751317D01*
G01*
X142713819Y-31675155D01*
G75*
G02*
X142799847Y-33263817I-751317J-837345D01*
G01*
X141489845Y-34723817D01*
G75*
G02*
X139901183Y-34809845I-837345J751317D01*
G01*
G37*
%TD.AperFunction*%
%TO.P,MX5,2*%
%TO.N,Net-(D5-Pad2)*%
X147002500Y-31432500D03*
%TA.AperFunction,ComponentPad*%
G36*
G01*
X146885983Y-33134895D02*
X146885097Y-33134834D01*
G75*
G02*
X145840166Y-31935097I77403J1122334D01*
G01*
X145880166Y-31355097D01*
G75*
G02*
X147079903Y-30310166I1122334J-77403D01*
G01*
X147079903Y-30310166D01*
G75*
G02*
X148124834Y-31509903I-77403J-1122334D01*
G01*
X148084834Y-32089903D01*
G75*
G02*
X146885097Y-33134834I-1122334J77403D01*
G01*
G37*
%TD.AperFunction*%
%TD*%
D16*
%TO.P,MX4,4*%
%TO.N,N/C*%
X164782500Y-38417500D03*
D14*
%TO.P,MX4,3*%
X162242500Y-38417500D03*
D15*
%TO.P,MX4,1*%
%TO.N,COL3*%
X161012500Y-29337500D03*
%TA.AperFunction,ComponentPad*%
G36*
G01*
X158951188Y-31634850D02*
X158951183Y-31634845D01*
G75*
G02*
X158865155Y-30046183I751317J837345D01*
G01*
X160175157Y-28586183D01*
G75*
G02*
X161763819Y-28500155I837345J-751317D01*
G01*
X161763819Y-28500155D01*
G75*
G02*
X161849847Y-30088817I-751317J-837345D01*
G01*
X160539845Y-31548817D01*
G75*
G02*
X158951183Y-31634845I-837345J751317D01*
G01*
G37*
%TD.AperFunction*%
%TO.P,MX4,2*%
%TO.N,Net-(D4-Pad2)*%
X166052500Y-28257500D03*
%TA.AperFunction,ComponentPad*%
G36*
G01*
X165935983Y-29959895D02*
X165935097Y-29959834D01*
G75*
G02*
X164890166Y-28760097I77403J1122334D01*
G01*
X164930166Y-28180097D01*
G75*
G02*
X166129903Y-27135166I1122334J-77403D01*
G01*
X166129903Y-27135166D01*
G75*
G02*
X167174834Y-28334903I-77403J-1122334D01*
G01*
X167134834Y-28914903D01*
G75*
G02*
X165935097Y-29959834I-1122334J77403D01*
G01*
G37*
%TD.AperFunction*%
%TD*%
D16*
%TO.P,MX3,4*%
%TO.N,N/C*%
X183832500Y-36036250D03*
D14*
%TO.P,MX3,3*%
X181292500Y-36036250D03*
D15*
%TO.P,MX3,1*%
%TO.N,COL2*%
X180062500Y-26956250D03*
%TA.AperFunction,ComponentPad*%
G36*
G01*
X178001188Y-29253600D02*
X178001183Y-29253595D01*
G75*
G02*
X177915155Y-27664933I751317J837345D01*
G01*
X179225157Y-26204933D01*
G75*
G02*
X180813819Y-26118905I837345J-751317D01*
G01*
X180813819Y-26118905D01*
G75*
G02*
X180899847Y-27707567I-751317J-837345D01*
G01*
X179589845Y-29167567D01*
G75*
G02*
X178001183Y-29253595I-837345J751317D01*
G01*
G37*
%TD.AperFunction*%
%TO.P,MX3,2*%
%TO.N,Net-(D3-Pad2)*%
X185102500Y-25876250D03*
%TA.AperFunction,ComponentPad*%
G36*
G01*
X184985983Y-27578645D02*
X184985097Y-27578584D01*
G75*
G02*
X183940166Y-26378847I77403J1122334D01*
G01*
X183980166Y-25798847D01*
G75*
G02*
X185179903Y-24753916I1122334J-77403D01*
G01*
X185179903Y-24753916D01*
G75*
G02*
X186224834Y-25953653I-77403J-1122334D01*
G01*
X186184834Y-26533653D01*
G75*
G02*
X184985097Y-27578584I-1122334J77403D01*
G01*
G37*
%TD.AperFunction*%
%TD*%
D16*
%TO.P,MX2,4*%
%TO.N,N/C*%
X202882500Y-38417500D03*
D14*
%TO.P,MX2,3*%
X200342500Y-38417500D03*
D15*
%TO.P,MX2,1*%
%TO.N,COL1*%
X199112500Y-29337500D03*
%TA.AperFunction,ComponentPad*%
G36*
G01*
X197051188Y-31634850D02*
X197051183Y-31634845D01*
G75*
G02*
X196965155Y-30046183I751317J837345D01*
G01*
X198275157Y-28586183D01*
G75*
G02*
X199863819Y-28500155I837345J-751317D01*
G01*
X199863819Y-28500155D01*
G75*
G02*
X199949847Y-30088817I-751317J-837345D01*
G01*
X198639845Y-31548817D01*
G75*
G02*
X197051183Y-31634845I-837345J751317D01*
G01*
G37*
%TD.AperFunction*%
%TO.P,MX2,2*%
%TO.N,Net-(D2-Pad2)*%
X204152500Y-28257500D03*
%TA.AperFunction,ComponentPad*%
G36*
G01*
X204035983Y-29959895D02*
X204035097Y-29959834D01*
G75*
G02*
X202990166Y-28760097I77403J1122334D01*
G01*
X203030166Y-28180097D01*
G75*
G02*
X204229903Y-27135166I1122334J-77403D01*
G01*
X204229903Y-27135166D01*
G75*
G02*
X205274834Y-28334903I-77403J-1122334D01*
G01*
X205234834Y-28914903D01*
G75*
G02*
X204035097Y-29959834I-1122334J77403D01*
G01*
G37*
%TD.AperFunction*%
%TD*%
D16*
%TO.P,MX1,4*%
%TO.N,N/C*%
X221932500Y-40798750D03*
D14*
%TO.P,MX1,3*%
X219392500Y-40798750D03*
D15*
%TO.P,MX1,1*%
%TO.N,COL0*%
X218162500Y-31718750D03*
%TA.AperFunction,ComponentPad*%
G36*
G01*
X216101188Y-34016100D02*
X216101183Y-34016095D01*
G75*
G02*
X216015155Y-32427433I751317J837345D01*
G01*
X217325157Y-30967433D01*
G75*
G02*
X218913819Y-30881405I837345J-751317D01*
G01*
X218913819Y-30881405D01*
G75*
G02*
X218999847Y-32470067I-751317J-837345D01*
G01*
X217689845Y-33930067D01*
G75*
G02*
X216101183Y-34016095I-837345J751317D01*
G01*
G37*
%TD.AperFunction*%
%TO.P,MX1,2*%
%TO.N,Net-(D1-Pad2)*%
X223202500Y-30638750D03*
%TA.AperFunction,ComponentPad*%
G36*
G01*
X223085983Y-32341145D02*
X223085097Y-32341084D01*
G75*
G02*
X222040166Y-31141347I77403J1122334D01*
G01*
X222080166Y-30561347D01*
G75*
G02*
X223279903Y-29516416I1122334J-77403D01*
G01*
X223279903Y-29516416D01*
G75*
G02*
X224324834Y-30716153I-77403J-1122334D01*
G01*
X224284834Y-31296153D01*
G75*
G02*
X223085097Y-32341084I-1122334J77403D01*
G01*
G37*
%TD.AperFunction*%
%TD*%
D17*
%TO.P,D44,2*%
%TO.N,Net-(D44-Pad2)*%
X181768750Y-115031250D03*
%TO.P,D44,1*%
%TO.N,ROW4*%
X181768750Y-118331250D03*
%TD*%
%TO.P,D43,2*%
%TO.N,Net-(D43-Pad2)*%
X200818750Y-115031250D03*
%TO.P,D43,1*%
%TO.N,ROW4*%
X200818750Y-118331250D03*
%TD*%
%TO.P,D42,2*%
%TO.N,Net-(D42-Pad2)*%
X219868750Y-117412500D03*
%TO.P,D42,1*%
%TO.N,ROW4*%
X219868750Y-120712500D03*
%TD*%
%TA.AperFunction,SMDPad,CuDef*%
D18*
%TO.P,D41,2*%
%TO.N,Net-(D41-Pad2)*%
G36*
X244529519Y-108417885D02*
G01*
X243929519Y-109457115D01*
X243150097Y-109007115D01*
X243750097Y-107967885D01*
X244529519Y-108417885D01*
G37*
%TD.AperFunction*%
%TA.AperFunction,SMDPad,CuDef*%
%TO.P,D41,1*%
%TO.N,ROW4*%
G36*
X247387403Y-110067885D02*
G01*
X246787403Y-111107115D01*
X246007981Y-110657115D01*
X246607981Y-109617885D01*
X247387403Y-110067885D01*
G37*
%TD.AperFunction*%
%TD*%
D17*
%TO.P,D40,2*%
%TO.N,Net-(D40-Pad2)*%
X54768750Y-92012500D03*
%TO.P,D40,1*%
%TO.N,ROW3*%
X54768750Y-95312500D03*
%TD*%
%TO.P,D39,2*%
%TO.N,Net-(D39-Pad2)*%
X73818750Y-92012500D03*
%TO.P,D39,1*%
%TO.N,ROW3*%
X73818750Y-95312500D03*
%TD*%
%TO.P,D38,2*%
%TO.N,Net-(D38-Pad2)*%
X92868750Y-92012500D03*
%TO.P,D38,1*%
%TO.N,ROW3*%
X92868750Y-95312500D03*
%TD*%
%TO.P,D37,2*%
%TO.N,Net-(D37-Pad2)*%
X111918750Y-92012500D03*
%TO.P,D37,1*%
%TO.N,ROW3*%
X111918750Y-95312500D03*
%TD*%
%TO.P,D36,2*%
%TO.N,Net-(D36-Pad2)*%
X133350000Y-92012500D03*
%TO.P,D36,1*%
%TO.N,ROW3*%
X133350000Y-95312500D03*
%TD*%
%TO.P,D35,2*%
%TO.N,Net-(D35-Pad2)*%
X152400000Y-92012500D03*
%TO.P,D35,1*%
%TO.N,ROW3*%
X152400000Y-95312500D03*
%TD*%
%TO.P,D34,2*%
%TO.N,Net-(D34-Pad2)*%
X171450000Y-88837500D03*
%TO.P,D34,1*%
%TO.N,ROW3*%
X171450000Y-92137500D03*
%TD*%
%TO.P,D33,2*%
%TO.N,Net-(D33-Pad2)*%
X190500000Y-86456250D03*
%TO.P,D33,1*%
%TO.N,ROW3*%
X190500000Y-89756250D03*
%TD*%
%TO.P,D32,2*%
%TO.N,Net-(D32-Pad2)*%
X209550000Y-88837500D03*
%TO.P,D32,1*%
%TO.N,ROW3*%
X209550000Y-92137500D03*
%TD*%
%TO.P,D31,2*%
%TO.N,Net-(D31-Pad2)*%
X228600000Y-91218750D03*
%TO.P,D31,1*%
%TO.N,ROW3*%
X228600000Y-94518750D03*
%TD*%
%TO.P,D30,2*%
%TO.N,Net-(D30-Pad2)*%
X54768750Y-72962500D03*
%TO.P,D30,1*%
%TO.N,ROW2*%
X54768750Y-76262500D03*
%TD*%
%TO.P,D29,2*%
%TO.N,Net-(D29-Pad2)*%
X73818750Y-72962500D03*
%TO.P,D29,1*%
%TO.N,ROW2*%
X73818750Y-76262500D03*
%TD*%
%TO.P,D28,2*%
%TO.N,Net-(D28-Pad2)*%
X92868750Y-72962500D03*
%TO.P,D28,1*%
%TO.N,ROW2*%
X92868750Y-76262500D03*
%TD*%
%TO.P,D27,2*%
%TO.N,Net-(D27-Pad2)*%
X111918750Y-72962500D03*
%TO.P,D27,1*%
%TO.N,ROW2*%
X111918750Y-76262500D03*
%TD*%
%TO.P,D26,2*%
%TO.N,Net-(D26-Pad2)*%
X133350000Y-72962500D03*
%TO.P,D26,1*%
%TO.N,ROW2*%
X133350000Y-76262500D03*
%TD*%
%TO.P,D25,2*%
%TO.N,Net-(D25-Pad2)*%
X152400000Y-72962500D03*
%TO.P,D25,1*%
%TO.N,ROW2*%
X152400000Y-76262500D03*
%TD*%
%TO.P,D24,2*%
%TO.N,Net-(D24-Pad2)*%
X171450000Y-69787500D03*
%TO.P,D24,1*%
%TO.N,ROW2*%
X171450000Y-73087500D03*
%TD*%
%TO.P,D23,2*%
%TO.N,Net-(D23-Pad2)*%
X190500000Y-67406250D03*
%TO.P,D23,1*%
%TO.N,ROW2*%
X190500000Y-70706250D03*
%TD*%
%TO.P,D22,2*%
%TO.N,Net-(D22-Pad2)*%
X209550000Y-69787500D03*
%TO.P,D22,1*%
%TO.N,ROW2*%
X209550000Y-73087500D03*
%TD*%
%TO.P,D21,2*%
%TO.N,Net-(D21-Pad2)*%
X228600000Y-72168750D03*
%TO.P,D21,1*%
%TO.N,ROW2*%
X228600000Y-75468750D03*
%TD*%
%TO.P,D20,2*%
%TO.N,Net-(D20-Pad2)*%
X54768750Y-53912500D03*
%TO.P,D20,1*%
%TO.N,ROW1*%
X54768750Y-57212500D03*
%TD*%
%TO.P,D19,2*%
%TO.N,Net-(D19-Pad2)*%
X73818750Y-53912500D03*
%TO.P,D19,1*%
%TO.N,ROW1*%
X73818750Y-57212500D03*
%TD*%
%TO.P,D18,2*%
%TO.N,Net-(D18-Pad2)*%
X92868750Y-53912500D03*
%TO.P,D18,1*%
%TO.N,ROW1*%
X92868750Y-57212500D03*
%TD*%
%TO.P,D17,2*%
%TO.N,Net-(D17-Pad2)*%
X111918750Y-53912500D03*
%TO.P,D17,1*%
%TO.N,ROW1*%
X111918750Y-57212500D03*
%TD*%
%TO.P,D16,2*%
%TO.N,Net-(D16-Pad2)*%
X133350000Y-53912500D03*
%TO.P,D16,1*%
%TO.N,ROW1*%
X133350000Y-57212500D03*
%TD*%
%TO.P,D15,2*%
%TO.N,Net-(D15-Pad2)*%
X152400000Y-53912500D03*
%TO.P,D15,1*%
%TO.N,ROW1*%
X152400000Y-57212500D03*
%TD*%
%TO.P,D14,2*%
%TO.N,Net-(D14-Pad2)*%
X171450000Y-50737500D03*
%TO.P,D14,1*%
%TO.N,ROW1*%
X171450000Y-54037500D03*
%TD*%
%TO.P,D13,2*%
%TO.N,Net-(D13-Pad2)*%
X190500000Y-48356250D03*
%TO.P,D13,1*%
%TO.N,ROW1*%
X190500000Y-51656250D03*
%TD*%
%TO.P,D12,2*%
%TO.N,Net-(D12-Pad2)*%
X209550000Y-50737500D03*
%TO.P,D12,1*%
%TO.N,ROW1*%
X209550000Y-54037500D03*
%TD*%
%TO.P,D11,2*%
%TO.N,Net-(D11-Pad2)*%
X228600000Y-53118750D03*
%TO.P,D11,1*%
%TO.N,ROW1*%
X228600000Y-56418750D03*
%TD*%
%TO.P,D10,2*%
%TO.N,Net-(D10-Pad2)*%
X54768750Y-34862500D03*
%TO.P,D10,1*%
%TO.N,ROW0*%
X54768750Y-38162500D03*
%TD*%
%TO.P,D9,2*%
%TO.N,Net-(D9-Pad2)*%
X73818750Y-34862500D03*
%TO.P,D9,1*%
%TO.N,ROW0*%
X73818750Y-38162500D03*
%TD*%
%TO.P,D8,2*%
%TO.N,Net-(D8-Pad2)*%
X92868750Y-34862500D03*
%TO.P,D8,1*%
%TO.N,ROW0*%
X92868750Y-38162500D03*
%TD*%
%TO.P,D7,2*%
%TO.N,Net-(D7-Pad2)*%
X111918750Y-34862500D03*
%TO.P,D7,1*%
%TO.N,ROW0*%
X111918750Y-38162500D03*
%TD*%
%TO.P,D6,2*%
%TO.N,Net-(D6-Pad2)*%
X133350000Y-34862500D03*
%TO.P,D6,1*%
%TO.N,ROW0*%
X133350000Y-38162500D03*
%TD*%
%TO.P,D5,2*%
%TO.N,Net-(D5-Pad2)*%
X152400000Y-34862500D03*
%TO.P,D5,1*%
%TO.N,ROW0*%
X152400000Y-38162500D03*
%TD*%
%TO.P,D4,2*%
%TO.N,Net-(D4-Pad2)*%
X171450000Y-31687500D03*
%TO.P,D4,1*%
%TO.N,ROW0*%
X171450000Y-34987500D03*
%TD*%
%TO.P,D3,2*%
%TO.N,Net-(D3-Pad2)*%
X190500000Y-29306250D03*
%TO.P,D3,1*%
%TO.N,ROW0*%
X190500000Y-32606250D03*
%TD*%
%TO.P,D2,2*%
%TO.N,Net-(D2-Pad2)*%
X209550000Y-31687500D03*
%TO.P,D2,1*%
%TO.N,ROW0*%
X209550000Y-34987500D03*
%TD*%
%TO.P,D1,2*%
%TO.N,Net-(D1-Pad2)*%
X228600000Y-34006250D03*
%TO.P,D1,1*%
%TO.N,ROW0*%
X228600000Y-37306250D03*
%TD*%
D19*
%TO.N,ROW0*%
X230632000Y-35433000D03*
%TO.N,ROW1*%
X230886000Y-55118000D03*
%TO.N,ROW2*%
X230759000Y-74041000D03*
%TO.N,ROW3*%
X231013000Y-94488000D03*
%TO.N,ROW4*%
X248920000Y-107315000D03*
%TO.N,COL0*%
X216852500Y-63309500D03*
%TO.N,COL1*%
X197802500Y-61531500D03*
%TO.N,COL2*%
X214757000Y-51054000D03*
X209931000Y-59817000D03*
X178752500Y-59499500D03*
%TO.N,COL4*%
X231648000Y-45720000D03*
X229997000Y-44063750D03*
X140652500Y-44767500D03*
%TO.N,COL5*%
X121602500Y-43878500D03*
%TO.N,COL6*%
X100171250Y-43084750D03*
%TO.N,COL7*%
X81121250Y-67595750D03*
X81121250Y-40608250D03*
%TO.N,COL8*%
X62071250Y-47466250D03*
%TO.N,COL9*%
X43021250Y-48672750D03*
%TO.N,VCC*%
X238633000Y-43688000D03*
X238633000Y-45847000D03*
X238633000Y-51435000D03*
%TO.N,SCL*%
X244602000Y-43180000D03*
X244221000Y-46101000D03*
X246972028Y-48852028D03*
X243332000Y-54737000D03*
%TO.N,GND*%
X241046000Y-42037000D03*
X241046000Y-49657000D03*
X247269000Y-50038000D03*
X248158000Y-86741000D03*
%TO.N,Net-(SW0-Pad1)*%
X237471750Y-40640000D03*
X237363000Y-43688000D03*
X237363000Y-53213000D03*
%TD*%
D20*
%TO.N,Net-(D1-Pad2)*%
X225812500Y-31218750D02*
X228600000Y-34006250D01*
X223162500Y-31218750D02*
X225812500Y-31218750D01*
%TO.N,ROW0*%
X54768750Y-38162500D02*
X58006250Y-38162500D01*
X58006250Y-38162500D02*
X59531250Y-39687500D01*
X72293750Y-39687500D02*
X73818750Y-38162500D01*
X59531250Y-39687500D02*
X72293750Y-39687500D01*
X73818750Y-38162500D02*
X77056250Y-38162500D01*
X77056250Y-38162500D02*
X78581250Y-39687500D01*
X91343750Y-39687500D02*
X92868750Y-38162500D01*
X78581250Y-39687500D02*
X91343750Y-39687500D01*
X92868750Y-38162500D02*
X96106250Y-38162500D01*
X96106250Y-38162500D02*
X97631250Y-39687500D01*
X110393750Y-39687500D02*
X111918750Y-38162500D01*
X97631250Y-39687500D02*
X110393750Y-39687500D01*
X131825000Y-39687500D02*
X133350000Y-38162500D01*
X118937500Y-39687500D02*
X131825000Y-39687500D01*
X117412500Y-38162500D02*
X118937500Y-39687500D01*
X111918750Y-38162500D02*
X117412500Y-38162500D01*
X138112500Y-39687500D02*
X150875000Y-39687500D01*
X150875000Y-39687500D02*
X152400000Y-38162500D01*
X136587500Y-38162500D02*
X138112500Y-39687500D01*
X133350000Y-38162500D02*
X136587500Y-38162500D01*
X159543750Y-36512500D02*
X169925000Y-36512500D01*
X169925000Y-36512500D02*
X171450000Y-34987500D01*
X157893750Y-38162500D02*
X159543750Y-36512500D01*
X152400000Y-38162500D02*
X157893750Y-38162500D01*
X171450000Y-34987500D02*
X176943750Y-34987500D01*
X176943750Y-34987500D02*
X177800000Y-34131250D01*
X188125000Y-34131250D02*
X189650000Y-32606250D01*
X189650000Y-32606250D02*
X190500000Y-32606250D01*
X177800000Y-34131250D02*
X188125000Y-34131250D01*
X190500000Y-32606250D02*
X192943750Y-32606250D01*
X192943750Y-32606250D02*
X196850000Y-36512500D01*
X208025000Y-36512500D02*
X209550000Y-34987500D01*
X196850000Y-36512500D02*
X208025000Y-36512500D01*
X209550000Y-34987500D02*
X209612500Y-34987500D01*
X209612500Y-34987500D02*
X213518750Y-38893750D01*
X227012500Y-38893750D02*
X228600000Y-37306250D01*
X213518750Y-38893750D02*
X227012500Y-38893750D01*
X228758750Y-37306250D02*
X228600000Y-37306250D01*
X230632000Y-35433000D02*
X228758750Y-37306250D01*
%TO.N,Net-(D2-Pad2)*%
X206700000Y-28837500D02*
X209550000Y-31687500D01*
X204112500Y-28837500D02*
X206700000Y-28837500D01*
%TO.N,Net-(D3-Pad2)*%
X185062500Y-26456250D02*
X185268750Y-26456250D01*
X187650000Y-26456250D02*
X190500000Y-29306250D01*
X185062500Y-26456250D02*
X187650000Y-26456250D01*
%TO.N,Net-(D4-Pad2)*%
X168600000Y-28837500D02*
X171450000Y-31687500D01*
X166012500Y-28837500D02*
X168600000Y-28837500D01*
%TO.N,Net-(D5-Pad2)*%
X149550000Y-32012500D02*
X152400000Y-34862500D01*
X146962500Y-32012500D02*
X149550000Y-32012500D01*
%TO.N,Net-(D6-Pad2)*%
X130500000Y-32012500D02*
X133350000Y-34862500D01*
X127912500Y-32012500D02*
X130500000Y-32012500D01*
%TO.N,Net-(D7-Pad2)*%
X109068750Y-32012500D02*
X111918750Y-34862500D01*
X106481250Y-32012500D02*
X109068750Y-32012500D01*
%TO.N,Net-(D8-Pad2)*%
X90018750Y-32012500D02*
X92868750Y-34862500D01*
X87431250Y-32012500D02*
X90018750Y-32012500D01*
%TO.N,Net-(D9-Pad2)*%
X70968750Y-32012500D02*
X73818750Y-34862500D01*
X68381250Y-32012500D02*
X70968750Y-32012500D01*
%TO.N,Net-(D10-Pad2)*%
X51918750Y-32012500D02*
X54768750Y-34862500D01*
X49331250Y-32012500D02*
X51918750Y-32012500D01*
%TO.N,Net-(D11-Pad2)*%
X225750000Y-50268750D02*
X228600000Y-53118750D01*
X223162500Y-50268750D02*
X225750000Y-50268750D01*
%TO.N,ROW1*%
X54768750Y-57212500D02*
X58006250Y-57212500D01*
X58006250Y-57212500D02*
X59531250Y-58737500D01*
X72293750Y-58737500D02*
X73818750Y-57212500D01*
X59531250Y-58737500D02*
X72293750Y-58737500D01*
X73818750Y-57212500D02*
X77056250Y-57212500D01*
X77056250Y-57212500D02*
X78581250Y-58737500D01*
X91343750Y-58737500D02*
X92868750Y-57212500D01*
X78581250Y-58737500D02*
X91343750Y-58737500D01*
X92868750Y-57212500D02*
X96106250Y-57212500D01*
X96106250Y-57212500D02*
X97631250Y-58737500D01*
X110393750Y-58737500D02*
X111918750Y-57212500D01*
X97631250Y-58737500D02*
X110393750Y-58737500D01*
X111918750Y-57212500D02*
X117537500Y-57212500D01*
X117537500Y-57212500D02*
X119062500Y-58737500D01*
X131825000Y-58737500D02*
X133350000Y-57212500D01*
X119062500Y-58737500D02*
X131825000Y-58737500D01*
X133350000Y-57212500D02*
X136587500Y-57212500D01*
X136587500Y-57212500D02*
X138112500Y-58737500D01*
X150875000Y-58737500D02*
X152400000Y-57212500D01*
X138112500Y-58737500D02*
X150875000Y-58737500D01*
X152400000Y-57212500D02*
X157893750Y-57212500D01*
X157893750Y-57212500D02*
X159543750Y-55562500D01*
X169925000Y-55562500D02*
X171450000Y-54037500D01*
X159543750Y-55562500D02*
X169925000Y-55562500D01*
X171450000Y-54037500D02*
X176943750Y-54037500D01*
X176943750Y-54037500D02*
X177800000Y-53181250D01*
X188975000Y-53181250D02*
X190500000Y-51656250D01*
X177800000Y-53181250D02*
X188975000Y-53181250D01*
X190500000Y-51656250D02*
X192943750Y-51656250D01*
X192943750Y-51656250D02*
X196850000Y-55562500D01*
X208025000Y-55562500D02*
X209550000Y-54037500D01*
X196850000Y-55562500D02*
X208025000Y-55562500D01*
X209550000Y-54037500D02*
X210406250Y-54037500D01*
X210406250Y-54037500D02*
X214312500Y-57943750D01*
X227075000Y-57943750D02*
X228600000Y-56418750D01*
X214312500Y-57943750D02*
X227075000Y-57943750D01*
X229900750Y-55118000D02*
X228600000Y-56418750D01*
X230886000Y-55118000D02*
X229900750Y-55118000D01*
%TO.N,Net-(D12-Pad2)*%
X206700000Y-47887500D02*
X209550000Y-50737500D01*
X204112500Y-47887500D02*
X206700000Y-47887500D01*
%TO.N,Net-(D13-Pad2)*%
X185062500Y-45506250D02*
X185268750Y-45506250D01*
X187650000Y-45506250D02*
X190500000Y-48356250D01*
X185062500Y-45506250D02*
X187650000Y-45506250D01*
%TO.N,Net-(D14-Pad2)*%
X168600000Y-47887500D02*
X171450000Y-50737500D01*
X166012500Y-47887500D02*
X168600000Y-47887500D01*
%TO.N,Net-(D15-Pad2)*%
X149550000Y-51062500D02*
X152400000Y-53912500D01*
X146962500Y-51062500D02*
X149550000Y-51062500D01*
%TO.N,Net-(D16-Pad2)*%
X130500000Y-51062500D02*
X133350000Y-53912500D01*
X127912500Y-51062500D02*
X130500000Y-51062500D01*
%TO.N,Net-(D17-Pad2)*%
X109068750Y-51062500D02*
X111918750Y-53912500D01*
X106481250Y-51062500D02*
X109068750Y-51062500D01*
%TO.N,Net-(D18-Pad2)*%
X90018750Y-51062500D02*
X92868750Y-53912500D01*
X87431250Y-51062500D02*
X90018750Y-51062500D01*
%TO.N,Net-(D19-Pad2)*%
X70968750Y-51062500D02*
X73818750Y-53912500D01*
X68381250Y-51062500D02*
X70968750Y-51062500D01*
%TO.N,Net-(D20-Pad2)*%
X51918750Y-51062500D02*
X54768750Y-53912500D01*
X49331250Y-51062500D02*
X51918750Y-51062500D01*
%TO.N,Net-(D21-Pad2)*%
X225750000Y-69318750D02*
X228600000Y-72168750D01*
X223162500Y-69318750D02*
X225750000Y-69318750D01*
%TO.N,ROW2*%
X54768750Y-76262500D02*
X58800000Y-76262500D01*
X58800000Y-76262500D02*
X60325000Y-77787500D01*
X72293750Y-77787500D02*
X73818750Y-76262500D01*
X60325000Y-77787500D02*
X72293750Y-77787500D01*
X73818750Y-76262500D02*
X77056250Y-76262500D01*
X77056250Y-76262500D02*
X78581250Y-77787500D01*
X91343750Y-77787500D02*
X92868750Y-76262500D01*
X78581250Y-77787500D02*
X91343750Y-77787500D01*
X92868750Y-76262500D02*
X96900000Y-76262500D01*
X96900000Y-76262500D02*
X98425000Y-77787500D01*
X110393750Y-77787500D02*
X111918750Y-76262500D01*
X98425000Y-77787500D02*
X110393750Y-77787500D01*
X111918750Y-76262500D02*
X118331250Y-76262500D01*
X118331250Y-76262500D02*
X119856250Y-77787500D01*
X131825000Y-77787500D02*
X133350000Y-76262500D01*
X119856250Y-77787500D02*
X131825000Y-77787500D01*
X133350000Y-76262500D02*
X139762500Y-76262500D01*
X139762500Y-76262500D02*
X141287500Y-77787500D01*
X150875000Y-77787500D02*
X152400000Y-76262500D01*
X141287500Y-77787500D02*
X150875000Y-77787500D01*
X152400000Y-76262500D02*
X157893750Y-76262500D01*
X157893750Y-76262500D02*
X159543750Y-74612500D01*
X169925000Y-74612500D02*
X171450000Y-73087500D01*
X159543750Y-74612500D02*
X169925000Y-74612500D01*
X171450000Y-73087500D02*
X178531250Y-73087500D01*
X178531250Y-73087500D02*
X179387500Y-72231250D01*
X188975000Y-72231250D02*
X190500000Y-70706250D01*
X179387500Y-72231250D02*
X188975000Y-72231250D01*
X208025000Y-74612500D02*
X209550000Y-73087500D01*
X194406250Y-74612500D02*
X208025000Y-74612500D01*
X190500000Y-70706250D02*
X194406250Y-74612500D01*
X209550000Y-73087500D02*
X211200000Y-73087500D01*
X211200000Y-73087500D02*
X215106250Y-76993750D01*
X227075000Y-76993750D02*
X228600000Y-75468750D01*
X215106250Y-76993750D02*
X227075000Y-76993750D01*
X230027750Y-74041000D02*
X228600000Y-75468750D01*
X230759000Y-74041000D02*
X230027750Y-74041000D01*
%TO.N,Net-(D22-Pad2)*%
X206700000Y-66937500D02*
X209550000Y-69787500D01*
X204112500Y-66937500D02*
X206700000Y-66937500D01*
%TO.N,Net-(D23-Pad2)*%
X185062500Y-64556250D02*
X185714250Y-64556250D01*
X185062500Y-64556250D02*
X185268750Y-64556250D01*
X187650000Y-64556250D02*
X190500000Y-67406250D01*
X185062500Y-64556250D02*
X187650000Y-64556250D01*
%TO.N,Net-(D24-Pad2)*%
X168600000Y-66937500D02*
X171450000Y-69787500D01*
X166012500Y-66937500D02*
X168600000Y-66937500D01*
%TO.N,Net-(D25-Pad2)*%
X149550000Y-70112500D02*
X152400000Y-72962500D01*
X146962500Y-70112500D02*
X149550000Y-70112500D01*
%TO.N,Net-(D26-Pad2)*%
X130500000Y-70112500D02*
X133350000Y-72962500D01*
X127912500Y-70112500D02*
X130500000Y-70112500D01*
%TO.N,Net-(D27-Pad2)*%
X109068750Y-70112500D02*
X111918750Y-72962500D01*
X106481250Y-70112500D02*
X109068750Y-70112500D01*
%TO.N,Net-(D28-Pad2)*%
X90018750Y-70112500D02*
X92868750Y-72962500D01*
X87431250Y-70112500D02*
X90018750Y-70112500D01*
%TO.N,Net-(D29-Pad2)*%
X70968750Y-70112500D02*
X73818750Y-72962500D01*
X68381250Y-70112500D02*
X70968750Y-70112500D01*
%TO.N,Net-(D30-Pad2)*%
X51918750Y-70112500D02*
X54768750Y-72962500D01*
X49331250Y-70112500D02*
X51918750Y-70112500D01*
%TO.N,Net-(D31-Pad2)*%
X225750000Y-88368750D02*
X228600000Y-91218750D01*
X223162500Y-88368750D02*
X225750000Y-88368750D01*
%TO.N,ROW3*%
X54768750Y-95312500D02*
X58863500Y-95312500D01*
X58863500Y-95312500D02*
X60198000Y-96647000D01*
X72484250Y-96647000D02*
X73818750Y-95312500D01*
X60198000Y-96647000D02*
X72484250Y-96647000D01*
X73818750Y-95312500D02*
X78421500Y-95312500D01*
X78421500Y-95312500D02*
X79502000Y-96393000D01*
X91788250Y-96393000D02*
X92868750Y-95312500D01*
X79502000Y-96393000D02*
X91788250Y-96393000D01*
X92868750Y-95312500D02*
X96900000Y-95312500D01*
X96900000Y-95312500D02*
X98425000Y-96837500D01*
X110393750Y-96837500D02*
X111918750Y-95312500D01*
X98425000Y-96837500D02*
X110393750Y-96837500D01*
X111918750Y-95312500D02*
X117537500Y-95312500D01*
X117537500Y-95312500D02*
X119062500Y-96837500D01*
X131825000Y-96837500D02*
X133350000Y-95312500D01*
X119062500Y-96837500D02*
X131825000Y-96837500D01*
X133350000Y-95312500D02*
X138050000Y-95312500D01*
X138050000Y-95312500D02*
X139575000Y-96837500D01*
X150875000Y-96837500D02*
X152400000Y-95312500D01*
X139575000Y-96837500D02*
X150875000Y-96837500D01*
X152400000Y-95312500D02*
X157893750Y-95312500D01*
X157893750Y-95312500D02*
X159543750Y-93662500D01*
X169925000Y-93662500D02*
X171450000Y-92137500D01*
X159543750Y-93662500D02*
X169925000Y-93662500D01*
X171450000Y-92137500D02*
X176943750Y-92137500D01*
X176943750Y-92137500D02*
X177800000Y-91281250D01*
X188975000Y-91281250D02*
X190500000Y-89756250D01*
X177800000Y-91281250D02*
X188975000Y-91281250D01*
X190500000Y-89756250D02*
X191356250Y-89756250D01*
X191356250Y-89756250D02*
X195262500Y-93662500D01*
X208025000Y-93662500D02*
X209550000Y-92137500D01*
X195262500Y-93662500D02*
X208025000Y-93662500D01*
X209550000Y-92137500D02*
X211200000Y-92137500D01*
X211200000Y-92137500D02*
X215106250Y-96043750D01*
X227075000Y-96043750D02*
X228600000Y-94518750D01*
X215106250Y-96043750D02*
X227075000Y-96043750D01*
X228630750Y-94488000D02*
X228600000Y-94518750D01*
X231013000Y-94488000D02*
X228630750Y-94488000D01*
%TO.N,Net-(D32-Pad2)*%
X206700000Y-85987500D02*
X209550000Y-88837500D01*
X204112500Y-85987500D02*
X206700000Y-85987500D01*
%TO.N,Net-(D33-Pad2)*%
X185062500Y-83606250D02*
X185268750Y-83606250D01*
X187650000Y-83606250D02*
X190500000Y-86456250D01*
X185062500Y-83606250D02*
X187650000Y-83606250D01*
%TO.N,Net-(D34-Pad2)*%
X168600000Y-85987500D02*
X171450000Y-88837500D01*
X166012500Y-85987500D02*
X168600000Y-85987500D01*
%TO.N,Net-(D35-Pad2)*%
X149550000Y-89162500D02*
X152400000Y-92012500D01*
X146962500Y-89162500D02*
X149550000Y-89162500D01*
%TO.N,Net-(D36-Pad2)*%
X130500000Y-89162500D02*
X133350000Y-92012500D01*
X127912500Y-89162500D02*
X130500000Y-89162500D01*
%TO.N,Net-(D37-Pad2)*%
X109068750Y-89162500D02*
X111918750Y-92012500D01*
X106481250Y-89162500D02*
X109068750Y-89162500D01*
%TO.N,Net-(D38-Pad2)*%
X90018750Y-89162500D02*
X92868750Y-92012500D01*
X87431250Y-89162500D02*
X90018750Y-89162500D01*
%TO.N,Net-(D39-Pad2)*%
X70968750Y-89162500D02*
X73818750Y-92012500D01*
X68381250Y-89162500D02*
X70968750Y-89162500D01*
%TO.N,Net-(D40-Pad2)*%
X51918750Y-89162500D02*
X54768750Y-92012500D01*
X49331250Y-89162500D02*
X51918750Y-89162500D01*
%TO.N,Net-(D41-Pad2)*%
X240286122Y-112266186D02*
X243839808Y-108712500D01*
X238652886Y-112266186D02*
X240286122Y-112266186D01*
%TO.N,ROW4*%
X200149849Y-119000151D02*
X200818750Y-118331250D01*
X182437651Y-119000151D02*
X200149849Y-119000151D01*
X181768750Y-118331250D02*
X182437651Y-119000151D01*
X200818750Y-118331250D02*
X202405250Y-118331250D01*
X202405250Y-118331250D02*
X205867000Y-121793000D01*
X218788250Y-121793000D02*
X219868750Y-120712500D01*
X205867000Y-121793000D02*
X218788250Y-121793000D01*
X248539000Y-114046000D02*
X248539000Y-112203808D01*
X248539000Y-112203808D02*
X246697692Y-110362500D01*
X219868750Y-120712500D02*
X226535250Y-114046000D01*
X226535250Y-114046000D02*
X248539000Y-114046000D01*
X248920000Y-108140192D02*
X246697692Y-110362500D01*
X248920000Y-107315000D02*
X248920000Y-108140192D01*
%TO.N,Net-(D42-Pad2)*%
X217018750Y-114562500D02*
X219868750Y-117412500D01*
X214431250Y-114562500D02*
X217018750Y-114562500D01*
%TO.N,Net-(D43-Pad2)*%
X197968750Y-112181250D02*
X200818750Y-115031250D01*
X195381250Y-112181250D02*
X197968750Y-112181250D01*
%TO.N,Net-(D44-Pad2)*%
X178918750Y-112181250D02*
X181768750Y-115031250D01*
X176331250Y-112181250D02*
X178918750Y-112181250D01*
%TO.N,COL0*%
X233680000Y-56038750D02*
X226409250Y-63309500D01*
X226409250Y-63309500D02*
X216852500Y-63309500D01*
%TO.N,COL1*%
X225647250Y-61531500D02*
X197802500Y-61531500D01*
X233680000Y-53498750D02*
X225647250Y-61531500D01*
%TO.N,COL2*%
X233680000Y-50958750D02*
X230854250Y-48133000D01*
X230854250Y-48133000D02*
X217551000Y-48133000D01*
X214757000Y-50927000D02*
X214757000Y-51054000D01*
X217551000Y-48133000D02*
X214757000Y-50927000D01*
X179070000Y-59817000D02*
X178752500Y-59499500D01*
X209931000Y-59817000D02*
X179070000Y-59817000D01*
%TO.N,COL3*%
X206991361Y-47542451D02*
X202951920Y-43503010D01*
X232803701Y-47542451D02*
X206991361Y-47542451D01*
X233680000Y-48418750D02*
X232803701Y-47542451D01*
X171402649Y-52325151D02*
X188196097Y-52325151D01*
X188196097Y-52325151D02*
X197018238Y-43503010D01*
X168924998Y-49847500D02*
X171402649Y-52325151D01*
X159702500Y-49847500D02*
X168924998Y-49847500D01*
X197018238Y-43503010D02*
X202951920Y-43503010D01*
%TO.N,COL4*%
X231806750Y-45878750D02*
X231648000Y-45720000D01*
X233680000Y-45878750D02*
X231806750Y-45878750D01*
X146878320Y-44767500D02*
X140652500Y-44767500D01*
X196788202Y-38746020D02*
X169282800Y-38746020D01*
X150116820Y-41529000D02*
X146878320Y-44767500D01*
X214248295Y-40693789D02*
X198735970Y-40693788D01*
X217618256Y-44063750D02*
X214248295Y-40693789D01*
X166499820Y-41529000D02*
X150116820Y-41529000D01*
X169282800Y-38746020D02*
X166499820Y-41529000D01*
X229997000Y-44063750D02*
X217618256Y-44063750D01*
X198735970Y-40693788D02*
X196788202Y-38746020D01*
%TO.N,COL5*%
X147130910Y-43878500D02*
X121602500Y-43878500D01*
X166354880Y-41037530D02*
X149971880Y-41037530D01*
X198922371Y-40243779D02*
X196974602Y-38296010D01*
X169096400Y-38296010D02*
X166354880Y-41037530D01*
X196974602Y-38296010D02*
X169096400Y-38296010D01*
X214487780Y-40243780D02*
X198922371Y-40243779D01*
X217582750Y-43338750D02*
X214487780Y-40243780D01*
X233680000Y-43338750D02*
X217582750Y-43338750D01*
X149971880Y-41037530D02*
X147130910Y-43878500D01*
%TO.N,COL6*%
X217717251Y-42076251D02*
X232402499Y-42076251D01*
X232402499Y-42076251D02*
X233680000Y-40798750D01*
X215434770Y-39793770D02*
X217717251Y-42076251D01*
X199108772Y-39793770D02*
X215434770Y-39793770D01*
X166168480Y-40587520D02*
X168910000Y-37846000D01*
X168910000Y-37846000D02*
X197161002Y-37846000D01*
X149785480Y-40587520D02*
X166168480Y-40587520D01*
X197161002Y-37846000D02*
X199108772Y-39793770D01*
X147288250Y-43084750D02*
X149785480Y-40587520D01*
X100171250Y-43084750D02*
X147288250Y-43084750D01*
%TO.N,COL7*%
X203917512Y-36962510D02*
X196601510Y-36962510D01*
X206298762Y-39343760D02*
X203917512Y-36962510D01*
X232594990Y-39343760D02*
X206298762Y-39343760D01*
X233680000Y-38258750D02*
X232594990Y-39343760D01*
X180679299Y-37313751D02*
X180328058Y-36962510D01*
X196250269Y-37313751D02*
X180679299Y-37313751D01*
X196601510Y-36962510D02*
X196250269Y-37313751D01*
X159730150Y-36962510D02*
X156555150Y-40137510D01*
X180328058Y-36962510D02*
X159730150Y-36962510D01*
X156555150Y-40137510D02*
X81591990Y-40137510D01*
X81591990Y-40137510D02*
X81121250Y-40608250D01*
%TO.N,COL8*%
X151546850Y-48222740D02*
X62827740Y-48222740D01*
X154372599Y-45396991D02*
X151546850Y-48222740D01*
X170755599Y-42602991D02*
X167961600Y-45396990D01*
X245178699Y-44677449D02*
X231039551Y-44677449D01*
X207667451Y-46630041D02*
X203640400Y-42602990D01*
X229086959Y-46630041D02*
X207667451Y-46630041D01*
X231039551Y-44677449D02*
X229086959Y-46630041D01*
X167961600Y-45396990D02*
X154372599Y-45396991D01*
X203640400Y-42602990D02*
X170755599Y-42602991D01*
X62827740Y-48222740D02*
X62071250Y-47466250D01*
X248920000Y-48418750D02*
X245178699Y-44677449D01*
%TO.N,COL9*%
X168148000Y-45847000D02*
X154559000Y-45847000D01*
X170942000Y-43053000D02*
X168148000Y-45847000D01*
X203454000Y-43053000D02*
X170942000Y-43053000D01*
X151733250Y-48672750D02*
X43021250Y-48672750D01*
X207481051Y-47080051D02*
X203454000Y-43053000D01*
X154559000Y-45847000D02*
X151733250Y-48672750D01*
X248920000Y-50958750D02*
X240188750Y-50958750D01*
X240188750Y-50958750D02*
X236310051Y-47080051D01*
X235294051Y-47080051D02*
X207481051Y-47080051D01*
X236310051Y-47080051D02*
X235294051Y-47080051D01*
%TO.N,VCC*%
X238196750Y-35718750D02*
X240133500Y-33782000D01*
X233680000Y-35718750D02*
X238196750Y-35718750D01*
X238196750Y-43251750D02*
X238633000Y-43688000D01*
X238196750Y-35718750D02*
X238196750Y-43251750D01*
X240133500Y-45847000D02*
X240260500Y-45974000D01*
X238633000Y-45847000D02*
X240133500Y-45847000D01*
X239450001Y-76029649D02*
X257587500Y-94167148D01*
X239450001Y-52252001D02*
X239450001Y-76029649D01*
X238633000Y-51435000D02*
X239450001Y-52252001D01*
%TO.N,SDA*%
X244443250Y-33782000D02*
X248920000Y-38258750D01*
X241958500Y-33782000D02*
X244443250Y-33782000D01*
X250121301Y-80629350D02*
X261354359Y-91862408D01*
X250121301Y-39460051D02*
X250121301Y-80629350D01*
X261354359Y-98560543D02*
X258734614Y-101180288D01*
X261354359Y-91862408D02*
X261354359Y-98560543D01*
X248920000Y-38258750D02*
X250121301Y-39460051D01*
%TO.N,SCL*%
X242212500Y-45847000D02*
X242085500Y-45974000D01*
X246983250Y-40798750D02*
X244602000Y-43180000D01*
X248920000Y-40798750D02*
X246983250Y-40798750D01*
X242212500Y-46101000D02*
X242085500Y-45974000D01*
X244221000Y-46101000D02*
X242212500Y-46101000D01*
X244221000Y-46101000D02*
X246972028Y-48852028D01*
X256923072Y-91569072D02*
X259087500Y-91569072D01*
X242932001Y-55136999D02*
X242932001Y-77578001D01*
X243332000Y-54737000D02*
X242932001Y-55136999D01*
X242932001Y-77578001D02*
X256923072Y-91569072D01*
%TO.N,GND*%
X238197000Y-64897000D02*
X238125000Y-64825000D01*
X238665920Y-30638750D02*
X241046000Y-33018830D01*
X233680000Y-30638750D02*
X238665920Y-30638750D01*
X241046000Y-33018830D02*
X241046000Y-42037000D01*
X246888000Y-49657000D02*
X247269000Y-50038000D01*
X241046000Y-49657000D02*
X246888000Y-49657000D01*
X255587500Y-94170500D02*
X255587500Y-97631250D01*
X248158000Y-86741000D02*
X255587500Y-94170500D01*
%TO.N,Net-(SW0-Pad1)*%
X237471750Y-43579250D02*
X237363000Y-43688000D01*
X237471750Y-40640000D02*
X237471750Y-43579250D01*
X237363000Y-59563000D02*
X238125000Y-60325000D01*
X237363000Y-53213000D02*
X237363000Y-59563000D01*
%TD*%
M02*
