<?xml version="1.0" standalone="no"?>
 <!DOCTYPE svg PUBLIC "-//W3C//DTD SVG 1.1//EN" 
 "http://www.w3.org/Graphics/SVG/1.1/DTD/svg11.dtd"> 
<svg
  xmlns:svg="http://www.w3.org/2000/svg"
  xmlns="http://www.w3.org/2000/svg"
  xmlns:xlink="http://www.w3.org/1999/xlink"
  version="1.1"
  width="15.001240cm" height="11.280140cm" viewBox="0 0 59060 44410">
<title>SVG Picture created as wren-right-bottom-brd.svg date 2021/04/18 00:59:03 </title>
  <desc>Picture generated by PCBNEW </desc>
<g style="fill:#000000; fill-opacity:1;stroke:#000000; stroke-opacity:1;
stroke-linecap:round; stroke-linejoin:round;"
 transform="translate(0 0) scale(1 1)">
</g>
<g style="fill:#000000; fill-opacity:0.0; 
stroke:#000000; stroke-width:-0.000393701; stroke-opacity:1; 
stroke-linecap:round; stroke-linejoin:round;">
</g>
<g style="fill:#000000; fill-opacity:0.0; 
stroke:#000000; stroke-width:59.0551; stroke-opacity:1; 
stroke-linecap:round; stroke-linejoin:round;">
<circle cx="15622.3" cy="35322.3" r="866.142" /> 
<circle cx="21559.8" cy="24384.8" r="866.142" /> 
<circle cx="21559.8" cy="9384.84" r="866.142" /> 
<circle cx="51559.8" cy="9697.34" r="866.142" /> 
<circle cx="51552.8" cy="24697.3" r="866.142" /> 
<g >
</g>
<g >
</g>
<g >
</g>
<g >
</g>
<g >
</g>
<g >
</g>
<g >
</g>
</g>
<g style="fill:#000000; fill-opacity:0.0; 
stroke:#000000; stroke-width:59.0551; stroke-opacity:1; 
stroke-linecap:round; stroke-linejoin:round;">
</g>
<g style="fill:#000000; fill-opacity:0.0; 
stroke:#000000; stroke-width:19.685; stroke-opacity:1; 
stroke-linecap:round; stroke-linejoin:round;">
<path d="M59059 31259
L59059 3134
" />
<path d="M58122.3 32197.3 A937.5 937.5 0.0 0 0 59059.8 31259.8" />
<path d="M58122 2197
L44372 2197
" />
<path d="M59059.8 3134.84 A937.5 937.5 0.0 0 0 58122.3 2197.34" />
<path d="M9 26109
L5609 22909
" />
<path d="M10609 44409
L9 26109
" />
<path d="M17184 40634
L10609 44409
" />
<path d="M5955 22350
L5934 2197
" />
<path d="M48122 32197
L58122 32197
" />
<path d="M48122.3 32197.3 A625 625 0.0 0 0 47497.3 32822.3" />
<path d="M47497 39384
L47497 32822
" />
<path d="M47184 39697
L39684 39697
" />
<path d="M36559 322
L36559 634
" />
<path d="M24684 40634
L17184 40634
" />
<path d="M24997 40009
L24997 40322
" />
<path d="M24684.8 40634.8 A312.5 312.5 0.0 0 0 24997.3 40322.3" />
<path d="M25309.8 39697.3 A312.5 312.5 0.0 0 0 24997.3 40009.8" />
<path d="M39684 39697
L25309 39697
" />
<path d="M47184.8 39697.3 A312.5 312.5 0.0 0 0 47497.3 39384.8" />
<path d="M5609.84 22909.8 A625 625 0.0 0 0 5955.33 22350.8" />
<path d="M21247 1884
L6247 1884
" />
<path d="M21559 1259
L21559 1572
" />
<path d="M28747 947
L21872 947
" />
<path d="M29059 322
L29059 634
" />
<path d="M36247 9
L29372 9
" />
<path d="M43747 947
L36872 947
" />
<path d="M44059 1884
L44059 1259
" />
<path d="M6247.34 1884.84 A312.5 312.5 0.0 0 0 5934.84 2197.34" />
<path d="M21247.3 1884.84 A312.5 312.5 0.0 0 0 21559.8 1572.34" />
<path d="M21872.3 947.343 A312.5 312.5 0.0 0 0 21559.8 1259.84" />
<path d="M28747.3 947.343 A312.5 312.5 0.0 0 0 29059.8 634.843" />
<path d="M29372.3 9.84291 A312.5 312.5 0.0 0 0 29059.8 322.343" />
<path d="M44059.8 1259.84 A312.5 312.5 0.0 0 0 43747.3 947.343" />
<path d="M44059.8 1884.84 A312.5 312.5 0.0 0 0 44372.3 2197.34" />
<path d="M36559.8 322.343 A312.5 312.5 0.0 0 0 36247.3 9.84291" />
<path d="M36559.8 634.843 A312.5 312.5 0.0 0 0 36872.3 947.343" />
<g >
</g>
<g >
</g>
<g >
</g>
<g >
</g>
<g >
</g>
<g >
</g>
<g >
</g>
</g> 
</svg>
