<?xml version="1.0" standalone="no"?>
 <!DOCTYPE svg PUBLIC "-//W3C//DTD SVG 1.1//EN" 
 "http://www.w3.org/Graphics/SVG/1.1/DTD/svg11.dtd"> 
<svg
  xmlns:svg="http://www.w3.org/2000/svg"
  xmlns="http://www.w3.org/2000/svg"
  xmlns:xlink="http://www.w3.org/1999/xlink"
  version="1.1"
  width="22.860000cm" height="11.280140cm" viewBox="0 0 90000 44410">
<title>SVG Picture created as wren-left-bottom-brd.svg date 2021/04/18 00:58:21 </title>
  <desc>Picture generated by PCBNEW </desc>
<g style="fill:#000000; fill-opacity:1;stroke:#000000; stroke-opacity:1;
stroke-linecap:round; stroke-linejoin:round;"
 transform="translate(0 0) scale(1 1)">
</g>
<g style="fill:#000000; fill-opacity:0.0; 
stroke:#000000; stroke-width:-0.000393701; stroke-opacity:1; 
stroke-linecap:round; stroke-linejoin:round;">
</g>
<g style="fill:#000000; fill-opacity:0.0; 
stroke:#000000; stroke-width:59.0551; stroke-opacity:1; 
stroke-linecap:round; stroke-linejoin:round;">
<circle cx="74384.8" cy="35322.3" r="866.142" /> 
<circle cx="68445" cy="24384.8" r="866.142" /> 
<circle cx="38447.3" cy="24697.3" r="866.142" /> 
<circle cx="7509.84" cy="24697.3" r="866.142" /> 
<circle cx="68447.3" cy="9384.84" r="866.142" /> 
<circle cx="38447.3" cy="9697.34" r="866.142" /> 
<circle cx="7509.84" cy="9697.34" r="866.142" /> 
<g >
</g>
<g >
</g>
<g >
</g>
<g >
</g>
<g >
</g>
<g >
</g>
<g >
</g>
<g >
</g>
<g >
</g>
</g>
<g style="fill:#000000; fill-opacity:0.0; 
stroke:#000000; stroke-width:59.0551; stroke-opacity:1; 
stroke-linecap:round; stroke-linejoin:round;">
</g>
<g style="fill:#000000; fill-opacity:0.0; 
stroke:#000000; stroke-width:19.685; stroke-opacity:1; 
stroke-linecap:round; stroke-linejoin:round;">
<path d="M89997 26109
L84397 22909
" />
<path d="M79397 44409
L89997 26109
" />
<path d="M72822 40634
L79397 44409
" />
<path d="M84051 22350
L84072 2197
" />
<path d="M41884 32197
L31884 32197
" />
<path d="M42509.8 32822.3 A625 625 0.0 0 0 41884.8 32197.3" />
<path d="M42509 39384
L42509 32822
" />
<path d="M31884 32197
L947 32197
" />
<path d="M42822 39697
L50322 39697
" />
<path d="M53447 322
L53447 634
" />
<path d="M65322 40634
L72822 40634
" />
<path d="M65009 40009
L65009 40322
" />
<path d="M65009.8 40322.3 A312.5 312.5 0.0 0 0 65322.3 40634.8" />
<path d="M65009.8 40009.8 A312.5 312.5 0.0 0 0 64697.3 39697.3" />
<path d="M50322 39697
L64697 39697
" />
<path d="M42509.8 39384.8 A312.5 312.5 0.0 0 0 42822.3 39697.3" />
<path d="M84051.9 22350.8 A625 625 0.0 0 0 84397.3 22909.8" />
<path d="M68759 1884
L83759 1884
" />
<path d="M68447 1259
L68447 1572
" />
<path d="M61259 947
L68134 947
" />
<path d="M60947 322
L60947 634
" />
<path d="M53759 9
L60634 9
" />
<path d="M46259 947
L53134 947
" />
<path d="M45947 1884
L45947 1259
" />
<path d="M947 2197
L45634 2197
" />
<path d="M84072.3 2197.34 A312.5 312.5 0.0 0 0 83759.8 1884.84" />
<path d="M68447.3 1572.34 A312.5 312.5 0.0 0 0 68759.8 1884.84" />
<path d="M68447.3 1259.84 A312.5 312.5 0.0 0 0 68134.8 947.343" />
<path d="M60947.3 634.843 A312.5 312.5 0.0 0 0 61259.8 947.343" />
<path d="M60947.3 322.343 A312.5 312.5 0.0 0 0 60634.8 9.84291" />
<path d="M46259.8 947.343 A312.5 312.5 0.0 0 0 45947.3 1259.84" />
<path d="M45634.8 2197.34 A312.5 312.5 0.0 0 0 45947.3 1884.84" />
<path d="M53759.8 9.84291 A312.5 312.5 0.0 0 0 53447.3 322.343" />
<path d="M53134.8 947.343 A312.5 312.5 0.0 0 0 53447.3 634.843" />
<path d="M9 31259
L9 3134
" />
<path d="M9.84291 31259.8 A937.5 937.5 0.0 0 0 947.343 32197.3" />
<path d="M947.343 2197.34 A937.5 937.5 0.0 0 0 9.84291 3134.84" />
<g >
</g>
<g >
</g>
<g >
</g>
<g >
</g>
<g >
</g>
<g >
</g>
<g >
</g>
<g >
</g>
<g >
</g>
</g> 
</svg>
