%TF.GenerationSoftware,KiCad,Pcbnew,(5.1.9-0-10_14)*%
%TF.CreationDate,2021-04-15T22:48:35-05:00*%
%TF.ProjectId,wren-plate-left,7772656e-2d70-46c6-9174-652d6c656674,rev?*%
%TF.SameCoordinates,Original*%
%TF.FileFunction,OtherDrawing,Comment*%
%FSLAX46Y46*%
G04 Gerber Fmt 4.6, Leading zero omitted, Abs format (unit mm)*
G04 Created by KiCad (PCBNEW (5.1.9-0-10_14)) date 2021-04-15 22:48:35*
%MOMM*%
%LPD*%
G01*
G04 APERTURE LIST*
%ADD10C,0.150000*%
G04 APERTURE END LIST*
D10*
%TO.C,MX41*%
X223560259Y-128407383D02*
X233060259Y-111952901D01*
X240014741Y-137907383D02*
X223560259Y-128407383D01*
X249514741Y-121452901D02*
X240014741Y-137907383D01*
X233060259Y-111952901D02*
X249514741Y-121452901D01*
X259039741Y-104955117D02*
X249539741Y-121409599D01*
X233085259Y-111909599D02*
X242585259Y-95455117D01*
X249539741Y-121409599D02*
X233085259Y-111909599D01*
X242585259Y-95455117D02*
X259039741Y-104955117D01*
%TO.C,MX30*%
X37331250Y-65112500D02*
X56331250Y-65112500D01*
X37331250Y-84112500D02*
X37331250Y-65112500D01*
X56331250Y-84112500D02*
X37331250Y-84112500D01*
X56331250Y-65112500D02*
X56331250Y-84112500D01*
%TO.C,MX44*%
X164331250Y-107181250D02*
X183331250Y-107181250D01*
X164331250Y-126181250D02*
X164331250Y-107181250D01*
X183331250Y-126181250D02*
X164331250Y-126181250D01*
X183331250Y-107181250D02*
X183331250Y-126181250D01*
%TO.C,MX43*%
X183381250Y-107181250D02*
X202381250Y-107181250D01*
X183381250Y-126181250D02*
X183381250Y-107181250D01*
X202381250Y-126181250D02*
X183381250Y-126181250D01*
X202381250Y-107181250D02*
X202381250Y-126181250D01*
%TO.C,MX42*%
X202431250Y-109562500D02*
X221431250Y-109562500D01*
X202431250Y-128562500D02*
X202431250Y-109562500D01*
X221431250Y-128562500D02*
X202431250Y-128562500D01*
X221431250Y-109562500D02*
X221431250Y-128562500D01*
%TO.C,MX40*%
X37331250Y-84162500D02*
X56331250Y-84162500D01*
X37331250Y-103162500D02*
X37331250Y-84162500D01*
X56331250Y-103162500D02*
X37331250Y-103162500D01*
X56331250Y-84162500D02*
X56331250Y-103162500D01*
%TO.C,MX39*%
X56381250Y-84162500D02*
X75381250Y-84162500D01*
X56381250Y-103162500D02*
X56381250Y-84162500D01*
X75381250Y-103162500D02*
X56381250Y-103162500D01*
X75381250Y-84162500D02*
X75381250Y-103162500D01*
%TO.C,MX38*%
X75431250Y-84162500D02*
X94431250Y-84162500D01*
X75431250Y-103162500D02*
X75431250Y-84162500D01*
X94431250Y-103162500D02*
X75431250Y-103162500D01*
X94431250Y-84162500D02*
X94431250Y-103162500D01*
%TO.C,MX37*%
X94481250Y-84162500D02*
X113481250Y-84162500D01*
X94481250Y-103162500D02*
X94481250Y-84162500D01*
X113481250Y-103162500D02*
X94481250Y-103162500D01*
X113481250Y-84162500D02*
X113481250Y-103162500D01*
%TO.C,MX36*%
X115912500Y-84162500D02*
X134912500Y-84162500D01*
X115912500Y-103162500D02*
X115912500Y-84162500D01*
X134912500Y-103162500D02*
X115912500Y-103162500D01*
X134912500Y-84162500D02*
X134912500Y-103162500D01*
%TO.C,MX35*%
X134962500Y-84162500D02*
X153962500Y-84162500D01*
X134962500Y-103162500D02*
X134962500Y-84162500D01*
X153962500Y-103162500D02*
X134962500Y-103162500D01*
X153962500Y-84162500D02*
X153962500Y-103162500D01*
%TO.C,MX34*%
X154012500Y-80987500D02*
X173012500Y-80987500D01*
X154012500Y-99987500D02*
X154012500Y-80987500D01*
X173012500Y-99987500D02*
X154012500Y-99987500D01*
X173012500Y-80987500D02*
X173012500Y-99987500D01*
%TO.C,MX33*%
X173062500Y-78606250D02*
X192062500Y-78606250D01*
X173062500Y-97606250D02*
X173062500Y-78606250D01*
X192062500Y-97606250D02*
X173062500Y-97606250D01*
X192062500Y-78606250D02*
X192062500Y-97606250D01*
%TO.C,MX32*%
X192112500Y-80987500D02*
X211112500Y-80987500D01*
X192112500Y-99987500D02*
X192112500Y-80987500D01*
X211112500Y-99987500D02*
X192112500Y-99987500D01*
X211112500Y-80987500D02*
X211112500Y-99987500D01*
%TO.C,MX31*%
X211162500Y-83368750D02*
X230162500Y-83368750D01*
X211162500Y-102368750D02*
X211162500Y-83368750D01*
X230162500Y-102368750D02*
X211162500Y-102368750D01*
X230162500Y-83368750D02*
X230162500Y-102368750D01*
%TO.C,MX29*%
X56381250Y-65112500D02*
X75381250Y-65112500D01*
X56381250Y-84112500D02*
X56381250Y-65112500D01*
X75381250Y-84112500D02*
X56381250Y-84112500D01*
X75381250Y-65112500D02*
X75381250Y-84112500D01*
%TO.C,MX28*%
X75431250Y-65112500D02*
X94431250Y-65112500D01*
X75431250Y-84112500D02*
X75431250Y-65112500D01*
X94431250Y-84112500D02*
X75431250Y-84112500D01*
X94431250Y-65112500D02*
X94431250Y-84112500D01*
%TO.C,MX27*%
X94481250Y-65112500D02*
X113481250Y-65112500D01*
X94481250Y-84112500D02*
X94481250Y-65112500D01*
X113481250Y-84112500D02*
X94481250Y-84112500D01*
X113481250Y-65112500D02*
X113481250Y-84112500D01*
%TO.C,MX26*%
X115912500Y-65112500D02*
X134912500Y-65112500D01*
X115912500Y-84112500D02*
X115912500Y-65112500D01*
X134912500Y-84112500D02*
X115912500Y-84112500D01*
X134912500Y-65112500D02*
X134912500Y-84112500D01*
%TO.C,MX25*%
X134962500Y-65112500D02*
X153962500Y-65112500D01*
X134962500Y-84112500D02*
X134962500Y-65112500D01*
X153962500Y-84112500D02*
X134962500Y-84112500D01*
X153962500Y-65112500D02*
X153962500Y-84112500D01*
%TO.C,MX24*%
X154012500Y-61937500D02*
X173012500Y-61937500D01*
X154012500Y-80937500D02*
X154012500Y-61937500D01*
X173012500Y-80937500D02*
X154012500Y-80937500D01*
X173012500Y-61937500D02*
X173012500Y-80937500D01*
%TO.C,MX23*%
X173062500Y-59556250D02*
X192062500Y-59556250D01*
X173062500Y-78556250D02*
X173062500Y-59556250D01*
X192062500Y-78556250D02*
X173062500Y-78556250D01*
X192062500Y-59556250D02*
X192062500Y-78556250D01*
%TO.C,MX22*%
X192112500Y-61937500D02*
X211112500Y-61937500D01*
X192112500Y-80937500D02*
X192112500Y-61937500D01*
X211112500Y-80937500D02*
X192112500Y-80937500D01*
X211112500Y-61937500D02*
X211112500Y-80937500D01*
%TO.C,MX21*%
X211162500Y-64318750D02*
X230162500Y-64318750D01*
X211162500Y-83318750D02*
X211162500Y-64318750D01*
X230162500Y-83318750D02*
X211162500Y-83318750D01*
X230162500Y-64318750D02*
X230162500Y-83318750D01*
%TO.C,MX20*%
X37331250Y-46062500D02*
X56331250Y-46062500D01*
X37331250Y-65062500D02*
X37331250Y-46062500D01*
X56331250Y-65062500D02*
X37331250Y-65062500D01*
X56331250Y-46062500D02*
X56331250Y-65062500D01*
%TO.C,MX19*%
X56381250Y-46062500D02*
X75381250Y-46062500D01*
X56381250Y-65062500D02*
X56381250Y-46062500D01*
X75381250Y-65062500D02*
X56381250Y-65062500D01*
X75381250Y-46062500D02*
X75381250Y-65062500D01*
%TO.C,MX18*%
X75431250Y-46062500D02*
X94431250Y-46062500D01*
X75431250Y-65062500D02*
X75431250Y-46062500D01*
X94431250Y-65062500D02*
X75431250Y-65062500D01*
X94431250Y-46062500D02*
X94431250Y-65062500D01*
%TO.C,MX17*%
X94481250Y-46062500D02*
X113481250Y-46062500D01*
X94481250Y-65062500D02*
X94481250Y-46062500D01*
X113481250Y-65062500D02*
X94481250Y-65062500D01*
X113481250Y-46062500D02*
X113481250Y-65062500D01*
%TO.C,MX16*%
X115912500Y-46062500D02*
X134912500Y-46062500D01*
X115912500Y-65062500D02*
X115912500Y-46062500D01*
X134912500Y-65062500D02*
X115912500Y-65062500D01*
X134912500Y-46062500D02*
X134912500Y-65062500D01*
%TO.C,MX15*%
X134962500Y-46062500D02*
X153962500Y-46062500D01*
X134962500Y-65062500D02*
X134962500Y-46062500D01*
X153962500Y-65062500D02*
X134962500Y-65062500D01*
X153962500Y-46062500D02*
X153962500Y-65062500D01*
%TO.C,MX14*%
X154012500Y-42887500D02*
X173012500Y-42887500D01*
X154012500Y-61887500D02*
X154012500Y-42887500D01*
X173012500Y-61887500D02*
X154012500Y-61887500D01*
X173012500Y-42887500D02*
X173012500Y-61887500D01*
%TO.C,MX13*%
X173062500Y-40506250D02*
X192062500Y-40506250D01*
X173062500Y-59506250D02*
X173062500Y-40506250D01*
X192062500Y-59506250D02*
X173062500Y-59506250D01*
X192062500Y-40506250D02*
X192062500Y-59506250D01*
%TO.C,MX12*%
X192112500Y-42887500D02*
X211112500Y-42887500D01*
X192112500Y-61887500D02*
X192112500Y-42887500D01*
X211112500Y-61887500D02*
X192112500Y-61887500D01*
X211112500Y-42887500D02*
X211112500Y-61887500D01*
%TO.C,MX11*%
X211162500Y-45268750D02*
X230162500Y-45268750D01*
X211162500Y-64268750D02*
X211162500Y-45268750D01*
X230162500Y-64268750D02*
X211162500Y-64268750D01*
X230162500Y-45268750D02*
X230162500Y-64268750D01*
%TO.C,MX10*%
X37331250Y-27012500D02*
X56331250Y-27012500D01*
X37331250Y-46012500D02*
X37331250Y-27012500D01*
X56331250Y-46012500D02*
X37331250Y-46012500D01*
X56331250Y-27012500D02*
X56331250Y-46012500D01*
%TO.C,MX9*%
X56381250Y-27012500D02*
X75381250Y-27012500D01*
X56381250Y-46012500D02*
X56381250Y-27012500D01*
X75381250Y-46012500D02*
X56381250Y-46012500D01*
X75381250Y-27012500D02*
X75381250Y-46012500D01*
%TO.C,MX8*%
X75431250Y-27012500D02*
X94431250Y-27012500D01*
X75431250Y-46012500D02*
X75431250Y-27012500D01*
X94431250Y-46012500D02*
X75431250Y-46012500D01*
X94431250Y-27012500D02*
X94431250Y-46012500D01*
%TO.C,MX7*%
X94481250Y-27012500D02*
X113481250Y-27012500D01*
X94481250Y-46012500D02*
X94481250Y-27012500D01*
X113481250Y-46012500D02*
X94481250Y-46012500D01*
X113481250Y-27012500D02*
X113481250Y-46012500D01*
%TO.C,MX6*%
X115912500Y-27012500D02*
X134912500Y-27012500D01*
X115912500Y-46012500D02*
X115912500Y-27012500D01*
X134912500Y-46012500D02*
X115912500Y-46012500D01*
X134912500Y-27012500D02*
X134912500Y-46012500D01*
%TO.C,MX5*%
X134962500Y-27012500D02*
X153962500Y-27012500D01*
X134962500Y-46012500D02*
X134962500Y-27012500D01*
X153962500Y-46012500D02*
X134962500Y-46012500D01*
X153962500Y-27012500D02*
X153962500Y-46012500D01*
%TO.C,MX4*%
X154012500Y-23837500D02*
X173012500Y-23837500D01*
X154012500Y-42837500D02*
X154012500Y-23837500D01*
X173012500Y-42837500D02*
X154012500Y-42837500D01*
X173012500Y-23837500D02*
X173012500Y-42837500D01*
%TO.C,MX3*%
X173062500Y-21456250D02*
X192062500Y-21456250D01*
X173062500Y-40456250D02*
X173062500Y-21456250D01*
X192062500Y-40456250D02*
X173062500Y-40456250D01*
X192062500Y-21456250D02*
X192062500Y-40456250D01*
%TO.C,MX2*%
X192112500Y-23837500D02*
X211112500Y-23837500D01*
X192112500Y-42837500D02*
X192112500Y-23837500D01*
X211112500Y-42837500D02*
X192112500Y-42837500D01*
X211112500Y-23837500D02*
X211112500Y-42837500D01*
%TO.C,MX1*%
X211162500Y-26218750D02*
X230162500Y-26218750D01*
X211162500Y-45218750D02*
X211162500Y-26218750D01*
X230162500Y-45218750D02*
X211162500Y-45218750D01*
X230162500Y-26218750D02*
X230162500Y-45218750D01*
%TD*%
%TO.C,MX41*%
X243560452Y-120020794D02*
X242694426Y-119520794D01*
X243479682Y-119589262D01*
X243027759Y-118943444D01*
X243893785Y-119443444D01*
X243218236Y-118613530D02*
X244417594Y-118536179D01*
X243551569Y-118036179D02*
X244084261Y-119113530D01*
X244245006Y-117501778D02*
X244822356Y-117835111D01*
X243796044Y-117517498D02*
X244295586Y-118080837D01*
X244605110Y-117544727D01*
X245346166Y-116927846D02*
X245060452Y-117422718D01*
X245203309Y-117175282D02*
X244337283Y-116675282D01*
X244413382Y-116829189D01*
X244448242Y-116959287D01*
X244441862Y-117065575D01*
X232936744Y-116196595D02*
X232070718Y-115696595D01*
X232855974Y-115765063D01*
X232404051Y-115119245D01*
X233270077Y-115619245D01*
X232594528Y-114789330D02*
X233793886Y-114711980D01*
X232927861Y-114211980D02*
X233460553Y-115289330D01*
X233654448Y-114191589D02*
X234035401Y-113531761D01*
X234603410Y-113309844D02*
X233737385Y-112809844D01*
X234889124Y-112814972D01*
X234023099Y-112314972D01*
X235198648Y-112278861D02*
X235109790Y-112337530D01*
X235044741Y-112354960D01*
X234938453Y-112348580D01*
X234691017Y-112205723D01*
X234632348Y-112116865D01*
X234614918Y-112051816D01*
X234621298Y-111945528D01*
X234692727Y-111821810D01*
X234781585Y-111763141D01*
X234846634Y-111745711D01*
X234952922Y-111752091D01*
X235200358Y-111894948D01*
X235259027Y-111983806D01*
X235276457Y-112048855D01*
X235270077Y-112155143D01*
X235198648Y-112278861D01*
X235817696Y-111206639D02*
X235579601Y-111619032D01*
X234713575Y-111119032D01*
X235530730Y-110656059D02*
X235697397Y-110367384D01*
X236222458Y-110505571D02*
X235984363Y-110917964D01*
X235118337Y-110417964D01*
X235356432Y-110005571D01*
X236436744Y-110134417D02*
X235570718Y-109634417D01*
X235689766Y-109428221D01*
X235802434Y-109328312D01*
X235932531Y-109293453D01*
X236038819Y-109299833D01*
X236227586Y-109353831D01*
X236351304Y-109425260D01*
X236492452Y-109561737D01*
X236551121Y-109650596D01*
X236585980Y-109780693D01*
X236555791Y-109928221D01*
X236436744Y-110134417D01*
%TO.C,MX30*%
X45069345Y-78239880D02*
X45069345Y-77239880D01*
X45402678Y-77954166D01*
X45736011Y-77239880D01*
X45736011Y-78239880D01*
X46116964Y-77239880D02*
X46783630Y-78239880D01*
X46783630Y-77239880D02*
X46116964Y-78239880D01*
X47069345Y-77239880D02*
X47688392Y-77239880D01*
X47355059Y-77620833D01*
X47497916Y-77620833D01*
X47593154Y-77668452D01*
X47640773Y-77716071D01*
X47688392Y-77811309D01*
X47688392Y-78049404D01*
X47640773Y-78144642D01*
X47593154Y-78192261D01*
X47497916Y-78239880D01*
X47212202Y-78239880D01*
X47116964Y-78192261D01*
X47069345Y-78144642D01*
X48307440Y-77239880D02*
X48402678Y-77239880D01*
X48497916Y-77287500D01*
X48545535Y-77335119D01*
X48593154Y-77430357D01*
X48640773Y-77620833D01*
X48640773Y-77858928D01*
X48593154Y-78049404D01*
X48545535Y-78144642D01*
X48497916Y-78192261D01*
X48402678Y-78239880D01*
X48307440Y-78239880D01*
X48212202Y-78192261D01*
X48164583Y-78144642D01*
X48116964Y-78049404D01*
X48069345Y-77858928D01*
X48069345Y-77620833D01*
X48116964Y-77430357D01*
X48164583Y-77335119D01*
X48212202Y-77287500D01*
X48307440Y-77239880D01*
X43069345Y-67127380D02*
X43069345Y-66127380D01*
X43402678Y-66841666D01*
X43736011Y-66127380D01*
X43736011Y-67127380D01*
X44116964Y-66127380D02*
X44783630Y-67127380D01*
X44783630Y-66127380D02*
X44116964Y-67127380D01*
X45164583Y-66746428D02*
X45926488Y-66746428D01*
X46402678Y-67127380D02*
X46402678Y-66127380D01*
X46974107Y-67127380D01*
X46974107Y-66127380D01*
X47593154Y-67127380D02*
X47497916Y-67079761D01*
X47450297Y-67032142D01*
X47402678Y-66936904D01*
X47402678Y-66651190D01*
X47450297Y-66555952D01*
X47497916Y-66508333D01*
X47593154Y-66460714D01*
X47736011Y-66460714D01*
X47831250Y-66508333D01*
X47878869Y-66555952D01*
X47926488Y-66651190D01*
X47926488Y-66936904D01*
X47878869Y-67032142D01*
X47831250Y-67079761D01*
X47736011Y-67127380D01*
X47593154Y-67127380D01*
X48831250Y-67127380D02*
X48355059Y-67127380D01*
X48355059Y-66127380D01*
X49164583Y-66603571D02*
X49497916Y-66603571D01*
X49640773Y-67127380D02*
X49164583Y-67127380D01*
X49164583Y-66127380D01*
X49640773Y-66127380D01*
X50069345Y-67127380D02*
X50069345Y-66127380D01*
X50307440Y-66127380D01*
X50450297Y-66175000D01*
X50545535Y-66270238D01*
X50593154Y-66365476D01*
X50640773Y-66555952D01*
X50640773Y-66698809D01*
X50593154Y-66889285D01*
X50545535Y-66984523D01*
X50450297Y-67079761D01*
X50307440Y-67127380D01*
X50069345Y-67127380D01*
%TO.C,MX44*%
X172069345Y-120308630D02*
X172069345Y-119308630D01*
X172402678Y-120022916D01*
X172736011Y-119308630D01*
X172736011Y-120308630D01*
X173116964Y-119308630D02*
X173783630Y-120308630D01*
X173783630Y-119308630D02*
X173116964Y-120308630D01*
X174593154Y-119641964D02*
X174593154Y-120308630D01*
X174355059Y-119261011D02*
X174116964Y-119975297D01*
X174736011Y-119975297D01*
X175545535Y-119641964D02*
X175545535Y-120308630D01*
X175307440Y-119261011D02*
X175069345Y-119975297D01*
X175688392Y-119975297D01*
X170069345Y-109196130D02*
X170069345Y-108196130D01*
X170402678Y-108910416D01*
X170736011Y-108196130D01*
X170736011Y-109196130D01*
X171116964Y-108196130D02*
X171783630Y-109196130D01*
X171783630Y-108196130D02*
X171116964Y-109196130D01*
X172164583Y-108815178D02*
X172926488Y-108815178D01*
X173402678Y-109196130D02*
X173402678Y-108196130D01*
X173974107Y-109196130D01*
X173974107Y-108196130D01*
X174593154Y-109196130D02*
X174497916Y-109148511D01*
X174450297Y-109100892D01*
X174402678Y-109005654D01*
X174402678Y-108719940D01*
X174450297Y-108624702D01*
X174497916Y-108577083D01*
X174593154Y-108529464D01*
X174736011Y-108529464D01*
X174831250Y-108577083D01*
X174878869Y-108624702D01*
X174926488Y-108719940D01*
X174926488Y-109005654D01*
X174878869Y-109100892D01*
X174831250Y-109148511D01*
X174736011Y-109196130D01*
X174593154Y-109196130D01*
X175831250Y-109196130D02*
X175355059Y-109196130D01*
X175355059Y-108196130D01*
X176164583Y-108672321D02*
X176497916Y-108672321D01*
X176640773Y-109196130D02*
X176164583Y-109196130D01*
X176164583Y-108196130D01*
X176640773Y-108196130D01*
X177069345Y-109196130D02*
X177069345Y-108196130D01*
X177307440Y-108196130D01*
X177450297Y-108243750D01*
X177545535Y-108338988D01*
X177593154Y-108434226D01*
X177640773Y-108624702D01*
X177640773Y-108767559D01*
X177593154Y-108958035D01*
X177545535Y-109053273D01*
X177450297Y-109148511D01*
X177307440Y-109196130D01*
X177069345Y-109196130D01*
%TO.C,MX43*%
X191119345Y-120308630D02*
X191119345Y-119308630D01*
X191452678Y-120022916D01*
X191786011Y-119308630D01*
X191786011Y-120308630D01*
X192166964Y-119308630D02*
X192833630Y-120308630D01*
X192833630Y-119308630D02*
X192166964Y-120308630D01*
X193643154Y-119641964D02*
X193643154Y-120308630D01*
X193405059Y-119261011D02*
X193166964Y-119975297D01*
X193786011Y-119975297D01*
X194071726Y-119308630D02*
X194690773Y-119308630D01*
X194357440Y-119689583D01*
X194500297Y-119689583D01*
X194595535Y-119737202D01*
X194643154Y-119784821D01*
X194690773Y-119880059D01*
X194690773Y-120118154D01*
X194643154Y-120213392D01*
X194595535Y-120261011D01*
X194500297Y-120308630D01*
X194214583Y-120308630D01*
X194119345Y-120261011D01*
X194071726Y-120213392D01*
X189119345Y-109196130D02*
X189119345Y-108196130D01*
X189452678Y-108910416D01*
X189786011Y-108196130D01*
X189786011Y-109196130D01*
X190166964Y-108196130D02*
X190833630Y-109196130D01*
X190833630Y-108196130D02*
X190166964Y-109196130D01*
X191214583Y-108815178D02*
X191976488Y-108815178D01*
X192452678Y-109196130D02*
X192452678Y-108196130D01*
X193024107Y-109196130D01*
X193024107Y-108196130D01*
X193643154Y-109196130D02*
X193547916Y-109148511D01*
X193500297Y-109100892D01*
X193452678Y-109005654D01*
X193452678Y-108719940D01*
X193500297Y-108624702D01*
X193547916Y-108577083D01*
X193643154Y-108529464D01*
X193786011Y-108529464D01*
X193881250Y-108577083D01*
X193928869Y-108624702D01*
X193976488Y-108719940D01*
X193976488Y-109005654D01*
X193928869Y-109100892D01*
X193881250Y-109148511D01*
X193786011Y-109196130D01*
X193643154Y-109196130D01*
X194881250Y-109196130D02*
X194405059Y-109196130D01*
X194405059Y-108196130D01*
X195214583Y-108672321D02*
X195547916Y-108672321D01*
X195690773Y-109196130D02*
X195214583Y-109196130D01*
X195214583Y-108196130D01*
X195690773Y-108196130D01*
X196119345Y-109196130D02*
X196119345Y-108196130D01*
X196357440Y-108196130D01*
X196500297Y-108243750D01*
X196595535Y-108338988D01*
X196643154Y-108434226D01*
X196690773Y-108624702D01*
X196690773Y-108767559D01*
X196643154Y-108958035D01*
X196595535Y-109053273D01*
X196500297Y-109148511D01*
X196357440Y-109196130D01*
X196119345Y-109196130D01*
%TO.C,MX42*%
X210169345Y-122689880D02*
X210169345Y-121689880D01*
X210502678Y-122404166D01*
X210836011Y-121689880D01*
X210836011Y-122689880D01*
X211216964Y-121689880D02*
X211883630Y-122689880D01*
X211883630Y-121689880D02*
X211216964Y-122689880D01*
X212693154Y-122023214D02*
X212693154Y-122689880D01*
X212455059Y-121642261D02*
X212216964Y-122356547D01*
X212836011Y-122356547D01*
X213169345Y-121785119D02*
X213216964Y-121737500D01*
X213312202Y-121689880D01*
X213550297Y-121689880D01*
X213645535Y-121737500D01*
X213693154Y-121785119D01*
X213740773Y-121880357D01*
X213740773Y-121975595D01*
X213693154Y-122118452D01*
X213121726Y-122689880D01*
X213740773Y-122689880D01*
X208169345Y-111577380D02*
X208169345Y-110577380D01*
X208502678Y-111291666D01*
X208836011Y-110577380D01*
X208836011Y-111577380D01*
X209216964Y-110577380D02*
X209883630Y-111577380D01*
X209883630Y-110577380D02*
X209216964Y-111577380D01*
X210264583Y-111196428D02*
X211026488Y-111196428D01*
X211502678Y-111577380D02*
X211502678Y-110577380D01*
X212074107Y-111577380D01*
X212074107Y-110577380D01*
X212693154Y-111577380D02*
X212597916Y-111529761D01*
X212550297Y-111482142D01*
X212502678Y-111386904D01*
X212502678Y-111101190D01*
X212550297Y-111005952D01*
X212597916Y-110958333D01*
X212693154Y-110910714D01*
X212836011Y-110910714D01*
X212931250Y-110958333D01*
X212978869Y-111005952D01*
X213026488Y-111101190D01*
X213026488Y-111386904D01*
X212978869Y-111482142D01*
X212931250Y-111529761D01*
X212836011Y-111577380D01*
X212693154Y-111577380D01*
X213931250Y-111577380D02*
X213455059Y-111577380D01*
X213455059Y-110577380D01*
X214264583Y-111053571D02*
X214597916Y-111053571D01*
X214740773Y-111577380D02*
X214264583Y-111577380D01*
X214264583Y-110577380D01*
X214740773Y-110577380D01*
X215169345Y-111577380D02*
X215169345Y-110577380D01*
X215407440Y-110577380D01*
X215550297Y-110625000D01*
X215645535Y-110720238D01*
X215693154Y-110815476D01*
X215740773Y-111005952D01*
X215740773Y-111148809D01*
X215693154Y-111339285D01*
X215645535Y-111434523D01*
X215550297Y-111529761D01*
X215407440Y-111577380D01*
X215169345Y-111577380D01*
%TO.C,MX40*%
X45069345Y-97289880D02*
X45069345Y-96289880D01*
X45402678Y-97004166D01*
X45736011Y-96289880D01*
X45736011Y-97289880D01*
X46116964Y-96289880D02*
X46783630Y-97289880D01*
X46783630Y-96289880D02*
X46116964Y-97289880D01*
X47593154Y-96623214D02*
X47593154Y-97289880D01*
X47355059Y-96242261D02*
X47116964Y-96956547D01*
X47736011Y-96956547D01*
X48307440Y-96289880D02*
X48402678Y-96289880D01*
X48497916Y-96337500D01*
X48545535Y-96385119D01*
X48593154Y-96480357D01*
X48640773Y-96670833D01*
X48640773Y-96908928D01*
X48593154Y-97099404D01*
X48545535Y-97194642D01*
X48497916Y-97242261D01*
X48402678Y-97289880D01*
X48307440Y-97289880D01*
X48212202Y-97242261D01*
X48164583Y-97194642D01*
X48116964Y-97099404D01*
X48069345Y-96908928D01*
X48069345Y-96670833D01*
X48116964Y-96480357D01*
X48164583Y-96385119D01*
X48212202Y-96337500D01*
X48307440Y-96289880D01*
X43069345Y-86177380D02*
X43069345Y-85177380D01*
X43402678Y-85891666D01*
X43736011Y-85177380D01*
X43736011Y-86177380D01*
X44116964Y-85177380D02*
X44783630Y-86177380D01*
X44783630Y-85177380D02*
X44116964Y-86177380D01*
X45164583Y-85796428D02*
X45926488Y-85796428D01*
X46402678Y-86177380D02*
X46402678Y-85177380D01*
X46974107Y-86177380D01*
X46974107Y-85177380D01*
X47593154Y-86177380D02*
X47497916Y-86129761D01*
X47450297Y-86082142D01*
X47402678Y-85986904D01*
X47402678Y-85701190D01*
X47450297Y-85605952D01*
X47497916Y-85558333D01*
X47593154Y-85510714D01*
X47736011Y-85510714D01*
X47831250Y-85558333D01*
X47878869Y-85605952D01*
X47926488Y-85701190D01*
X47926488Y-85986904D01*
X47878869Y-86082142D01*
X47831250Y-86129761D01*
X47736011Y-86177380D01*
X47593154Y-86177380D01*
X48831250Y-86177380D02*
X48355059Y-86177380D01*
X48355059Y-85177380D01*
X49164583Y-85653571D02*
X49497916Y-85653571D01*
X49640773Y-86177380D02*
X49164583Y-86177380D01*
X49164583Y-85177380D01*
X49640773Y-85177380D01*
X50069345Y-86177380D02*
X50069345Y-85177380D01*
X50307440Y-85177380D01*
X50450297Y-85225000D01*
X50545535Y-85320238D01*
X50593154Y-85415476D01*
X50640773Y-85605952D01*
X50640773Y-85748809D01*
X50593154Y-85939285D01*
X50545535Y-86034523D01*
X50450297Y-86129761D01*
X50307440Y-86177380D01*
X50069345Y-86177380D01*
%TO.C,MX39*%
X64119345Y-97289880D02*
X64119345Y-96289880D01*
X64452678Y-97004166D01*
X64786011Y-96289880D01*
X64786011Y-97289880D01*
X65166964Y-96289880D02*
X65833630Y-97289880D01*
X65833630Y-96289880D02*
X65166964Y-97289880D01*
X66119345Y-96289880D02*
X66738392Y-96289880D01*
X66405059Y-96670833D01*
X66547916Y-96670833D01*
X66643154Y-96718452D01*
X66690773Y-96766071D01*
X66738392Y-96861309D01*
X66738392Y-97099404D01*
X66690773Y-97194642D01*
X66643154Y-97242261D01*
X66547916Y-97289880D01*
X66262202Y-97289880D01*
X66166964Y-97242261D01*
X66119345Y-97194642D01*
X67214583Y-97289880D02*
X67405059Y-97289880D01*
X67500297Y-97242261D01*
X67547916Y-97194642D01*
X67643154Y-97051785D01*
X67690773Y-96861309D01*
X67690773Y-96480357D01*
X67643154Y-96385119D01*
X67595535Y-96337500D01*
X67500297Y-96289880D01*
X67309821Y-96289880D01*
X67214583Y-96337500D01*
X67166964Y-96385119D01*
X67119345Y-96480357D01*
X67119345Y-96718452D01*
X67166964Y-96813690D01*
X67214583Y-96861309D01*
X67309821Y-96908928D01*
X67500297Y-96908928D01*
X67595535Y-96861309D01*
X67643154Y-96813690D01*
X67690773Y-96718452D01*
X62119345Y-86177380D02*
X62119345Y-85177380D01*
X62452678Y-85891666D01*
X62786011Y-85177380D01*
X62786011Y-86177380D01*
X63166964Y-85177380D02*
X63833630Y-86177380D01*
X63833630Y-85177380D02*
X63166964Y-86177380D01*
X64214583Y-85796428D02*
X64976488Y-85796428D01*
X65452678Y-86177380D02*
X65452678Y-85177380D01*
X66024107Y-86177380D01*
X66024107Y-85177380D01*
X66643154Y-86177380D02*
X66547916Y-86129761D01*
X66500297Y-86082142D01*
X66452678Y-85986904D01*
X66452678Y-85701190D01*
X66500297Y-85605952D01*
X66547916Y-85558333D01*
X66643154Y-85510714D01*
X66786011Y-85510714D01*
X66881250Y-85558333D01*
X66928869Y-85605952D01*
X66976488Y-85701190D01*
X66976488Y-85986904D01*
X66928869Y-86082142D01*
X66881250Y-86129761D01*
X66786011Y-86177380D01*
X66643154Y-86177380D01*
X67881250Y-86177380D02*
X67405059Y-86177380D01*
X67405059Y-85177380D01*
X68214583Y-85653571D02*
X68547916Y-85653571D01*
X68690773Y-86177380D02*
X68214583Y-86177380D01*
X68214583Y-85177380D01*
X68690773Y-85177380D01*
X69119345Y-86177380D02*
X69119345Y-85177380D01*
X69357440Y-85177380D01*
X69500297Y-85225000D01*
X69595535Y-85320238D01*
X69643154Y-85415476D01*
X69690773Y-85605952D01*
X69690773Y-85748809D01*
X69643154Y-85939285D01*
X69595535Y-86034523D01*
X69500297Y-86129761D01*
X69357440Y-86177380D01*
X69119345Y-86177380D01*
%TO.C,MX38*%
X83169345Y-97289880D02*
X83169345Y-96289880D01*
X83502678Y-97004166D01*
X83836011Y-96289880D01*
X83836011Y-97289880D01*
X84216964Y-96289880D02*
X84883630Y-97289880D01*
X84883630Y-96289880D02*
X84216964Y-97289880D01*
X85169345Y-96289880D02*
X85788392Y-96289880D01*
X85455059Y-96670833D01*
X85597916Y-96670833D01*
X85693154Y-96718452D01*
X85740773Y-96766071D01*
X85788392Y-96861309D01*
X85788392Y-97099404D01*
X85740773Y-97194642D01*
X85693154Y-97242261D01*
X85597916Y-97289880D01*
X85312202Y-97289880D01*
X85216964Y-97242261D01*
X85169345Y-97194642D01*
X86359821Y-96718452D02*
X86264583Y-96670833D01*
X86216964Y-96623214D01*
X86169345Y-96527976D01*
X86169345Y-96480357D01*
X86216964Y-96385119D01*
X86264583Y-96337500D01*
X86359821Y-96289880D01*
X86550297Y-96289880D01*
X86645535Y-96337500D01*
X86693154Y-96385119D01*
X86740773Y-96480357D01*
X86740773Y-96527976D01*
X86693154Y-96623214D01*
X86645535Y-96670833D01*
X86550297Y-96718452D01*
X86359821Y-96718452D01*
X86264583Y-96766071D01*
X86216964Y-96813690D01*
X86169345Y-96908928D01*
X86169345Y-97099404D01*
X86216964Y-97194642D01*
X86264583Y-97242261D01*
X86359821Y-97289880D01*
X86550297Y-97289880D01*
X86645535Y-97242261D01*
X86693154Y-97194642D01*
X86740773Y-97099404D01*
X86740773Y-96908928D01*
X86693154Y-96813690D01*
X86645535Y-96766071D01*
X86550297Y-96718452D01*
X81169345Y-86177380D02*
X81169345Y-85177380D01*
X81502678Y-85891666D01*
X81836011Y-85177380D01*
X81836011Y-86177380D01*
X82216964Y-85177380D02*
X82883630Y-86177380D01*
X82883630Y-85177380D02*
X82216964Y-86177380D01*
X83264583Y-85796428D02*
X84026488Y-85796428D01*
X84502678Y-86177380D02*
X84502678Y-85177380D01*
X85074107Y-86177380D01*
X85074107Y-85177380D01*
X85693154Y-86177380D02*
X85597916Y-86129761D01*
X85550297Y-86082142D01*
X85502678Y-85986904D01*
X85502678Y-85701190D01*
X85550297Y-85605952D01*
X85597916Y-85558333D01*
X85693154Y-85510714D01*
X85836011Y-85510714D01*
X85931250Y-85558333D01*
X85978869Y-85605952D01*
X86026488Y-85701190D01*
X86026488Y-85986904D01*
X85978869Y-86082142D01*
X85931250Y-86129761D01*
X85836011Y-86177380D01*
X85693154Y-86177380D01*
X86931250Y-86177380D02*
X86455059Y-86177380D01*
X86455059Y-85177380D01*
X87264583Y-85653571D02*
X87597916Y-85653571D01*
X87740773Y-86177380D02*
X87264583Y-86177380D01*
X87264583Y-85177380D01*
X87740773Y-85177380D01*
X88169345Y-86177380D02*
X88169345Y-85177380D01*
X88407440Y-85177380D01*
X88550297Y-85225000D01*
X88645535Y-85320238D01*
X88693154Y-85415476D01*
X88740773Y-85605952D01*
X88740773Y-85748809D01*
X88693154Y-85939285D01*
X88645535Y-86034523D01*
X88550297Y-86129761D01*
X88407440Y-86177380D01*
X88169345Y-86177380D01*
%TO.C,MX37*%
X102219345Y-97289880D02*
X102219345Y-96289880D01*
X102552678Y-97004166D01*
X102886011Y-96289880D01*
X102886011Y-97289880D01*
X103266964Y-96289880D02*
X103933630Y-97289880D01*
X103933630Y-96289880D02*
X103266964Y-97289880D01*
X104219345Y-96289880D02*
X104838392Y-96289880D01*
X104505059Y-96670833D01*
X104647916Y-96670833D01*
X104743154Y-96718452D01*
X104790773Y-96766071D01*
X104838392Y-96861309D01*
X104838392Y-97099404D01*
X104790773Y-97194642D01*
X104743154Y-97242261D01*
X104647916Y-97289880D01*
X104362202Y-97289880D01*
X104266964Y-97242261D01*
X104219345Y-97194642D01*
X105171726Y-96289880D02*
X105838392Y-96289880D01*
X105409821Y-97289880D01*
X100219345Y-86177380D02*
X100219345Y-85177380D01*
X100552678Y-85891666D01*
X100886011Y-85177380D01*
X100886011Y-86177380D01*
X101266964Y-85177380D02*
X101933630Y-86177380D01*
X101933630Y-85177380D02*
X101266964Y-86177380D01*
X102314583Y-85796428D02*
X103076488Y-85796428D01*
X103552678Y-86177380D02*
X103552678Y-85177380D01*
X104124107Y-86177380D01*
X104124107Y-85177380D01*
X104743154Y-86177380D02*
X104647916Y-86129761D01*
X104600297Y-86082142D01*
X104552678Y-85986904D01*
X104552678Y-85701190D01*
X104600297Y-85605952D01*
X104647916Y-85558333D01*
X104743154Y-85510714D01*
X104886011Y-85510714D01*
X104981250Y-85558333D01*
X105028869Y-85605952D01*
X105076488Y-85701190D01*
X105076488Y-85986904D01*
X105028869Y-86082142D01*
X104981250Y-86129761D01*
X104886011Y-86177380D01*
X104743154Y-86177380D01*
X105981250Y-86177380D02*
X105505059Y-86177380D01*
X105505059Y-85177380D01*
X106314583Y-85653571D02*
X106647916Y-85653571D01*
X106790773Y-86177380D02*
X106314583Y-86177380D01*
X106314583Y-85177380D01*
X106790773Y-85177380D01*
X107219345Y-86177380D02*
X107219345Y-85177380D01*
X107457440Y-85177380D01*
X107600297Y-85225000D01*
X107695535Y-85320238D01*
X107743154Y-85415476D01*
X107790773Y-85605952D01*
X107790773Y-85748809D01*
X107743154Y-85939285D01*
X107695535Y-86034523D01*
X107600297Y-86129761D01*
X107457440Y-86177380D01*
X107219345Y-86177380D01*
%TO.C,MX36*%
X123650595Y-97289880D02*
X123650595Y-96289880D01*
X123983928Y-97004166D01*
X124317261Y-96289880D01*
X124317261Y-97289880D01*
X124698214Y-96289880D02*
X125364880Y-97289880D01*
X125364880Y-96289880D02*
X124698214Y-97289880D01*
X125650595Y-96289880D02*
X126269642Y-96289880D01*
X125936309Y-96670833D01*
X126079166Y-96670833D01*
X126174404Y-96718452D01*
X126222023Y-96766071D01*
X126269642Y-96861309D01*
X126269642Y-97099404D01*
X126222023Y-97194642D01*
X126174404Y-97242261D01*
X126079166Y-97289880D01*
X125793452Y-97289880D01*
X125698214Y-97242261D01*
X125650595Y-97194642D01*
X127126785Y-96289880D02*
X126936309Y-96289880D01*
X126841071Y-96337500D01*
X126793452Y-96385119D01*
X126698214Y-96527976D01*
X126650595Y-96718452D01*
X126650595Y-97099404D01*
X126698214Y-97194642D01*
X126745833Y-97242261D01*
X126841071Y-97289880D01*
X127031547Y-97289880D01*
X127126785Y-97242261D01*
X127174404Y-97194642D01*
X127222023Y-97099404D01*
X127222023Y-96861309D01*
X127174404Y-96766071D01*
X127126785Y-96718452D01*
X127031547Y-96670833D01*
X126841071Y-96670833D01*
X126745833Y-96718452D01*
X126698214Y-96766071D01*
X126650595Y-96861309D01*
X121650595Y-86177380D02*
X121650595Y-85177380D01*
X121983928Y-85891666D01*
X122317261Y-85177380D01*
X122317261Y-86177380D01*
X122698214Y-85177380D02*
X123364880Y-86177380D01*
X123364880Y-85177380D02*
X122698214Y-86177380D01*
X123745833Y-85796428D02*
X124507738Y-85796428D01*
X124983928Y-86177380D02*
X124983928Y-85177380D01*
X125555357Y-86177380D01*
X125555357Y-85177380D01*
X126174404Y-86177380D02*
X126079166Y-86129761D01*
X126031547Y-86082142D01*
X125983928Y-85986904D01*
X125983928Y-85701190D01*
X126031547Y-85605952D01*
X126079166Y-85558333D01*
X126174404Y-85510714D01*
X126317261Y-85510714D01*
X126412500Y-85558333D01*
X126460119Y-85605952D01*
X126507738Y-85701190D01*
X126507738Y-85986904D01*
X126460119Y-86082142D01*
X126412500Y-86129761D01*
X126317261Y-86177380D01*
X126174404Y-86177380D01*
X127412500Y-86177380D02*
X126936309Y-86177380D01*
X126936309Y-85177380D01*
X127745833Y-85653571D02*
X128079166Y-85653571D01*
X128222023Y-86177380D02*
X127745833Y-86177380D01*
X127745833Y-85177380D01*
X128222023Y-85177380D01*
X128650595Y-86177380D02*
X128650595Y-85177380D01*
X128888690Y-85177380D01*
X129031547Y-85225000D01*
X129126785Y-85320238D01*
X129174404Y-85415476D01*
X129222023Y-85605952D01*
X129222023Y-85748809D01*
X129174404Y-85939285D01*
X129126785Y-86034523D01*
X129031547Y-86129761D01*
X128888690Y-86177380D01*
X128650595Y-86177380D01*
%TO.C,MX35*%
X142700595Y-97289880D02*
X142700595Y-96289880D01*
X143033928Y-97004166D01*
X143367261Y-96289880D01*
X143367261Y-97289880D01*
X143748214Y-96289880D02*
X144414880Y-97289880D01*
X144414880Y-96289880D02*
X143748214Y-97289880D01*
X144700595Y-96289880D02*
X145319642Y-96289880D01*
X144986309Y-96670833D01*
X145129166Y-96670833D01*
X145224404Y-96718452D01*
X145272023Y-96766071D01*
X145319642Y-96861309D01*
X145319642Y-97099404D01*
X145272023Y-97194642D01*
X145224404Y-97242261D01*
X145129166Y-97289880D01*
X144843452Y-97289880D01*
X144748214Y-97242261D01*
X144700595Y-97194642D01*
X146224404Y-96289880D02*
X145748214Y-96289880D01*
X145700595Y-96766071D01*
X145748214Y-96718452D01*
X145843452Y-96670833D01*
X146081547Y-96670833D01*
X146176785Y-96718452D01*
X146224404Y-96766071D01*
X146272023Y-96861309D01*
X146272023Y-97099404D01*
X146224404Y-97194642D01*
X146176785Y-97242261D01*
X146081547Y-97289880D01*
X145843452Y-97289880D01*
X145748214Y-97242261D01*
X145700595Y-97194642D01*
X140700595Y-86177380D02*
X140700595Y-85177380D01*
X141033928Y-85891666D01*
X141367261Y-85177380D01*
X141367261Y-86177380D01*
X141748214Y-85177380D02*
X142414880Y-86177380D01*
X142414880Y-85177380D02*
X141748214Y-86177380D01*
X142795833Y-85796428D02*
X143557738Y-85796428D01*
X144033928Y-86177380D02*
X144033928Y-85177380D01*
X144605357Y-86177380D01*
X144605357Y-85177380D01*
X145224404Y-86177380D02*
X145129166Y-86129761D01*
X145081547Y-86082142D01*
X145033928Y-85986904D01*
X145033928Y-85701190D01*
X145081547Y-85605952D01*
X145129166Y-85558333D01*
X145224404Y-85510714D01*
X145367261Y-85510714D01*
X145462500Y-85558333D01*
X145510119Y-85605952D01*
X145557738Y-85701190D01*
X145557738Y-85986904D01*
X145510119Y-86082142D01*
X145462500Y-86129761D01*
X145367261Y-86177380D01*
X145224404Y-86177380D01*
X146462500Y-86177380D02*
X145986309Y-86177380D01*
X145986309Y-85177380D01*
X146795833Y-85653571D02*
X147129166Y-85653571D01*
X147272023Y-86177380D02*
X146795833Y-86177380D01*
X146795833Y-85177380D01*
X147272023Y-85177380D01*
X147700595Y-86177380D02*
X147700595Y-85177380D01*
X147938690Y-85177380D01*
X148081547Y-85225000D01*
X148176785Y-85320238D01*
X148224404Y-85415476D01*
X148272023Y-85605952D01*
X148272023Y-85748809D01*
X148224404Y-85939285D01*
X148176785Y-86034523D01*
X148081547Y-86129761D01*
X147938690Y-86177380D01*
X147700595Y-86177380D01*
%TO.C,MX34*%
X161750595Y-94114880D02*
X161750595Y-93114880D01*
X162083928Y-93829166D01*
X162417261Y-93114880D01*
X162417261Y-94114880D01*
X162798214Y-93114880D02*
X163464880Y-94114880D01*
X163464880Y-93114880D02*
X162798214Y-94114880D01*
X163750595Y-93114880D02*
X164369642Y-93114880D01*
X164036309Y-93495833D01*
X164179166Y-93495833D01*
X164274404Y-93543452D01*
X164322023Y-93591071D01*
X164369642Y-93686309D01*
X164369642Y-93924404D01*
X164322023Y-94019642D01*
X164274404Y-94067261D01*
X164179166Y-94114880D01*
X163893452Y-94114880D01*
X163798214Y-94067261D01*
X163750595Y-94019642D01*
X165226785Y-93448214D02*
X165226785Y-94114880D01*
X164988690Y-93067261D02*
X164750595Y-93781547D01*
X165369642Y-93781547D01*
X159750595Y-83002380D02*
X159750595Y-82002380D01*
X160083928Y-82716666D01*
X160417261Y-82002380D01*
X160417261Y-83002380D01*
X160798214Y-82002380D02*
X161464880Y-83002380D01*
X161464880Y-82002380D02*
X160798214Y-83002380D01*
X161845833Y-82621428D02*
X162607738Y-82621428D01*
X163083928Y-83002380D02*
X163083928Y-82002380D01*
X163655357Y-83002380D01*
X163655357Y-82002380D01*
X164274404Y-83002380D02*
X164179166Y-82954761D01*
X164131547Y-82907142D01*
X164083928Y-82811904D01*
X164083928Y-82526190D01*
X164131547Y-82430952D01*
X164179166Y-82383333D01*
X164274404Y-82335714D01*
X164417261Y-82335714D01*
X164512500Y-82383333D01*
X164560119Y-82430952D01*
X164607738Y-82526190D01*
X164607738Y-82811904D01*
X164560119Y-82907142D01*
X164512500Y-82954761D01*
X164417261Y-83002380D01*
X164274404Y-83002380D01*
X165512500Y-83002380D02*
X165036309Y-83002380D01*
X165036309Y-82002380D01*
X165845833Y-82478571D02*
X166179166Y-82478571D01*
X166322023Y-83002380D02*
X165845833Y-83002380D01*
X165845833Y-82002380D01*
X166322023Y-82002380D01*
X166750595Y-83002380D02*
X166750595Y-82002380D01*
X166988690Y-82002380D01*
X167131547Y-82050000D01*
X167226785Y-82145238D01*
X167274404Y-82240476D01*
X167322023Y-82430952D01*
X167322023Y-82573809D01*
X167274404Y-82764285D01*
X167226785Y-82859523D01*
X167131547Y-82954761D01*
X166988690Y-83002380D01*
X166750595Y-83002380D01*
%TO.C,MX33*%
X180800595Y-91733630D02*
X180800595Y-90733630D01*
X181133928Y-91447916D01*
X181467261Y-90733630D01*
X181467261Y-91733630D01*
X181848214Y-90733630D02*
X182514880Y-91733630D01*
X182514880Y-90733630D02*
X181848214Y-91733630D01*
X182800595Y-90733630D02*
X183419642Y-90733630D01*
X183086309Y-91114583D01*
X183229166Y-91114583D01*
X183324404Y-91162202D01*
X183372023Y-91209821D01*
X183419642Y-91305059D01*
X183419642Y-91543154D01*
X183372023Y-91638392D01*
X183324404Y-91686011D01*
X183229166Y-91733630D01*
X182943452Y-91733630D01*
X182848214Y-91686011D01*
X182800595Y-91638392D01*
X183752976Y-90733630D02*
X184372023Y-90733630D01*
X184038690Y-91114583D01*
X184181547Y-91114583D01*
X184276785Y-91162202D01*
X184324404Y-91209821D01*
X184372023Y-91305059D01*
X184372023Y-91543154D01*
X184324404Y-91638392D01*
X184276785Y-91686011D01*
X184181547Y-91733630D01*
X183895833Y-91733630D01*
X183800595Y-91686011D01*
X183752976Y-91638392D01*
X178800595Y-80621130D02*
X178800595Y-79621130D01*
X179133928Y-80335416D01*
X179467261Y-79621130D01*
X179467261Y-80621130D01*
X179848214Y-79621130D02*
X180514880Y-80621130D01*
X180514880Y-79621130D02*
X179848214Y-80621130D01*
X180895833Y-80240178D02*
X181657738Y-80240178D01*
X182133928Y-80621130D02*
X182133928Y-79621130D01*
X182705357Y-80621130D01*
X182705357Y-79621130D01*
X183324404Y-80621130D02*
X183229166Y-80573511D01*
X183181547Y-80525892D01*
X183133928Y-80430654D01*
X183133928Y-80144940D01*
X183181547Y-80049702D01*
X183229166Y-80002083D01*
X183324404Y-79954464D01*
X183467261Y-79954464D01*
X183562500Y-80002083D01*
X183610119Y-80049702D01*
X183657738Y-80144940D01*
X183657738Y-80430654D01*
X183610119Y-80525892D01*
X183562500Y-80573511D01*
X183467261Y-80621130D01*
X183324404Y-80621130D01*
X184562500Y-80621130D02*
X184086309Y-80621130D01*
X184086309Y-79621130D01*
X184895833Y-80097321D02*
X185229166Y-80097321D01*
X185372023Y-80621130D02*
X184895833Y-80621130D01*
X184895833Y-79621130D01*
X185372023Y-79621130D01*
X185800595Y-80621130D02*
X185800595Y-79621130D01*
X186038690Y-79621130D01*
X186181547Y-79668750D01*
X186276785Y-79763988D01*
X186324404Y-79859226D01*
X186372023Y-80049702D01*
X186372023Y-80192559D01*
X186324404Y-80383035D01*
X186276785Y-80478273D01*
X186181547Y-80573511D01*
X186038690Y-80621130D01*
X185800595Y-80621130D01*
%TO.C,MX32*%
X199850595Y-94114880D02*
X199850595Y-93114880D01*
X200183928Y-93829166D01*
X200517261Y-93114880D01*
X200517261Y-94114880D01*
X200898214Y-93114880D02*
X201564880Y-94114880D01*
X201564880Y-93114880D02*
X200898214Y-94114880D01*
X201850595Y-93114880D02*
X202469642Y-93114880D01*
X202136309Y-93495833D01*
X202279166Y-93495833D01*
X202374404Y-93543452D01*
X202422023Y-93591071D01*
X202469642Y-93686309D01*
X202469642Y-93924404D01*
X202422023Y-94019642D01*
X202374404Y-94067261D01*
X202279166Y-94114880D01*
X201993452Y-94114880D01*
X201898214Y-94067261D01*
X201850595Y-94019642D01*
X202850595Y-93210119D02*
X202898214Y-93162500D01*
X202993452Y-93114880D01*
X203231547Y-93114880D01*
X203326785Y-93162500D01*
X203374404Y-93210119D01*
X203422023Y-93305357D01*
X203422023Y-93400595D01*
X203374404Y-93543452D01*
X202802976Y-94114880D01*
X203422023Y-94114880D01*
X197850595Y-83002380D02*
X197850595Y-82002380D01*
X198183928Y-82716666D01*
X198517261Y-82002380D01*
X198517261Y-83002380D01*
X198898214Y-82002380D02*
X199564880Y-83002380D01*
X199564880Y-82002380D02*
X198898214Y-83002380D01*
X199945833Y-82621428D02*
X200707738Y-82621428D01*
X201183928Y-83002380D02*
X201183928Y-82002380D01*
X201755357Y-83002380D01*
X201755357Y-82002380D01*
X202374404Y-83002380D02*
X202279166Y-82954761D01*
X202231547Y-82907142D01*
X202183928Y-82811904D01*
X202183928Y-82526190D01*
X202231547Y-82430952D01*
X202279166Y-82383333D01*
X202374404Y-82335714D01*
X202517261Y-82335714D01*
X202612500Y-82383333D01*
X202660119Y-82430952D01*
X202707738Y-82526190D01*
X202707738Y-82811904D01*
X202660119Y-82907142D01*
X202612500Y-82954761D01*
X202517261Y-83002380D01*
X202374404Y-83002380D01*
X203612500Y-83002380D02*
X203136309Y-83002380D01*
X203136309Y-82002380D01*
X203945833Y-82478571D02*
X204279166Y-82478571D01*
X204422023Y-83002380D02*
X203945833Y-83002380D01*
X203945833Y-82002380D01*
X204422023Y-82002380D01*
X204850595Y-83002380D02*
X204850595Y-82002380D01*
X205088690Y-82002380D01*
X205231547Y-82050000D01*
X205326785Y-82145238D01*
X205374404Y-82240476D01*
X205422023Y-82430952D01*
X205422023Y-82573809D01*
X205374404Y-82764285D01*
X205326785Y-82859523D01*
X205231547Y-82954761D01*
X205088690Y-83002380D01*
X204850595Y-83002380D01*
%TO.C,MX31*%
X218900595Y-96496130D02*
X218900595Y-95496130D01*
X219233928Y-96210416D01*
X219567261Y-95496130D01*
X219567261Y-96496130D01*
X219948214Y-95496130D02*
X220614880Y-96496130D01*
X220614880Y-95496130D02*
X219948214Y-96496130D01*
X220900595Y-95496130D02*
X221519642Y-95496130D01*
X221186309Y-95877083D01*
X221329166Y-95877083D01*
X221424404Y-95924702D01*
X221472023Y-95972321D01*
X221519642Y-96067559D01*
X221519642Y-96305654D01*
X221472023Y-96400892D01*
X221424404Y-96448511D01*
X221329166Y-96496130D01*
X221043452Y-96496130D01*
X220948214Y-96448511D01*
X220900595Y-96400892D01*
X222472023Y-96496130D02*
X221900595Y-96496130D01*
X222186309Y-96496130D02*
X222186309Y-95496130D01*
X222091071Y-95638988D01*
X221995833Y-95734226D01*
X221900595Y-95781845D01*
X216900595Y-85383630D02*
X216900595Y-84383630D01*
X217233928Y-85097916D01*
X217567261Y-84383630D01*
X217567261Y-85383630D01*
X217948214Y-84383630D02*
X218614880Y-85383630D01*
X218614880Y-84383630D02*
X217948214Y-85383630D01*
X218995833Y-85002678D02*
X219757738Y-85002678D01*
X220233928Y-85383630D02*
X220233928Y-84383630D01*
X220805357Y-85383630D01*
X220805357Y-84383630D01*
X221424404Y-85383630D02*
X221329166Y-85336011D01*
X221281547Y-85288392D01*
X221233928Y-85193154D01*
X221233928Y-84907440D01*
X221281547Y-84812202D01*
X221329166Y-84764583D01*
X221424404Y-84716964D01*
X221567261Y-84716964D01*
X221662500Y-84764583D01*
X221710119Y-84812202D01*
X221757738Y-84907440D01*
X221757738Y-85193154D01*
X221710119Y-85288392D01*
X221662500Y-85336011D01*
X221567261Y-85383630D01*
X221424404Y-85383630D01*
X222662500Y-85383630D02*
X222186309Y-85383630D01*
X222186309Y-84383630D01*
X222995833Y-84859821D02*
X223329166Y-84859821D01*
X223472023Y-85383630D02*
X222995833Y-85383630D01*
X222995833Y-84383630D01*
X223472023Y-84383630D01*
X223900595Y-85383630D02*
X223900595Y-84383630D01*
X224138690Y-84383630D01*
X224281547Y-84431250D01*
X224376785Y-84526488D01*
X224424404Y-84621726D01*
X224472023Y-84812202D01*
X224472023Y-84955059D01*
X224424404Y-85145535D01*
X224376785Y-85240773D01*
X224281547Y-85336011D01*
X224138690Y-85383630D01*
X223900595Y-85383630D01*
%TO.C,MX29*%
X64119345Y-78239880D02*
X64119345Y-77239880D01*
X64452678Y-77954166D01*
X64786011Y-77239880D01*
X64786011Y-78239880D01*
X65166964Y-77239880D02*
X65833630Y-78239880D01*
X65833630Y-77239880D02*
X65166964Y-78239880D01*
X66166964Y-77335119D02*
X66214583Y-77287500D01*
X66309821Y-77239880D01*
X66547916Y-77239880D01*
X66643154Y-77287500D01*
X66690773Y-77335119D01*
X66738392Y-77430357D01*
X66738392Y-77525595D01*
X66690773Y-77668452D01*
X66119345Y-78239880D01*
X66738392Y-78239880D01*
X67214583Y-78239880D02*
X67405059Y-78239880D01*
X67500297Y-78192261D01*
X67547916Y-78144642D01*
X67643154Y-78001785D01*
X67690773Y-77811309D01*
X67690773Y-77430357D01*
X67643154Y-77335119D01*
X67595535Y-77287500D01*
X67500297Y-77239880D01*
X67309821Y-77239880D01*
X67214583Y-77287500D01*
X67166964Y-77335119D01*
X67119345Y-77430357D01*
X67119345Y-77668452D01*
X67166964Y-77763690D01*
X67214583Y-77811309D01*
X67309821Y-77858928D01*
X67500297Y-77858928D01*
X67595535Y-77811309D01*
X67643154Y-77763690D01*
X67690773Y-77668452D01*
X62119345Y-67127380D02*
X62119345Y-66127380D01*
X62452678Y-66841666D01*
X62786011Y-66127380D01*
X62786011Y-67127380D01*
X63166964Y-66127380D02*
X63833630Y-67127380D01*
X63833630Y-66127380D02*
X63166964Y-67127380D01*
X64214583Y-66746428D02*
X64976488Y-66746428D01*
X65452678Y-67127380D02*
X65452678Y-66127380D01*
X66024107Y-67127380D01*
X66024107Y-66127380D01*
X66643154Y-67127380D02*
X66547916Y-67079761D01*
X66500297Y-67032142D01*
X66452678Y-66936904D01*
X66452678Y-66651190D01*
X66500297Y-66555952D01*
X66547916Y-66508333D01*
X66643154Y-66460714D01*
X66786011Y-66460714D01*
X66881250Y-66508333D01*
X66928869Y-66555952D01*
X66976488Y-66651190D01*
X66976488Y-66936904D01*
X66928869Y-67032142D01*
X66881250Y-67079761D01*
X66786011Y-67127380D01*
X66643154Y-67127380D01*
X67881250Y-67127380D02*
X67405059Y-67127380D01*
X67405059Y-66127380D01*
X68214583Y-66603571D02*
X68547916Y-66603571D01*
X68690773Y-67127380D02*
X68214583Y-67127380D01*
X68214583Y-66127380D01*
X68690773Y-66127380D01*
X69119345Y-67127380D02*
X69119345Y-66127380D01*
X69357440Y-66127380D01*
X69500297Y-66175000D01*
X69595535Y-66270238D01*
X69643154Y-66365476D01*
X69690773Y-66555952D01*
X69690773Y-66698809D01*
X69643154Y-66889285D01*
X69595535Y-66984523D01*
X69500297Y-67079761D01*
X69357440Y-67127380D01*
X69119345Y-67127380D01*
%TO.C,MX28*%
X83169345Y-78239880D02*
X83169345Y-77239880D01*
X83502678Y-77954166D01*
X83836011Y-77239880D01*
X83836011Y-78239880D01*
X84216964Y-77239880D02*
X84883630Y-78239880D01*
X84883630Y-77239880D02*
X84216964Y-78239880D01*
X85216964Y-77335119D02*
X85264583Y-77287500D01*
X85359821Y-77239880D01*
X85597916Y-77239880D01*
X85693154Y-77287500D01*
X85740773Y-77335119D01*
X85788392Y-77430357D01*
X85788392Y-77525595D01*
X85740773Y-77668452D01*
X85169345Y-78239880D01*
X85788392Y-78239880D01*
X86359821Y-77668452D02*
X86264583Y-77620833D01*
X86216964Y-77573214D01*
X86169345Y-77477976D01*
X86169345Y-77430357D01*
X86216964Y-77335119D01*
X86264583Y-77287500D01*
X86359821Y-77239880D01*
X86550297Y-77239880D01*
X86645535Y-77287500D01*
X86693154Y-77335119D01*
X86740773Y-77430357D01*
X86740773Y-77477976D01*
X86693154Y-77573214D01*
X86645535Y-77620833D01*
X86550297Y-77668452D01*
X86359821Y-77668452D01*
X86264583Y-77716071D01*
X86216964Y-77763690D01*
X86169345Y-77858928D01*
X86169345Y-78049404D01*
X86216964Y-78144642D01*
X86264583Y-78192261D01*
X86359821Y-78239880D01*
X86550297Y-78239880D01*
X86645535Y-78192261D01*
X86693154Y-78144642D01*
X86740773Y-78049404D01*
X86740773Y-77858928D01*
X86693154Y-77763690D01*
X86645535Y-77716071D01*
X86550297Y-77668452D01*
X81169345Y-67127380D02*
X81169345Y-66127380D01*
X81502678Y-66841666D01*
X81836011Y-66127380D01*
X81836011Y-67127380D01*
X82216964Y-66127380D02*
X82883630Y-67127380D01*
X82883630Y-66127380D02*
X82216964Y-67127380D01*
X83264583Y-66746428D02*
X84026488Y-66746428D01*
X84502678Y-67127380D02*
X84502678Y-66127380D01*
X85074107Y-67127380D01*
X85074107Y-66127380D01*
X85693154Y-67127380D02*
X85597916Y-67079761D01*
X85550297Y-67032142D01*
X85502678Y-66936904D01*
X85502678Y-66651190D01*
X85550297Y-66555952D01*
X85597916Y-66508333D01*
X85693154Y-66460714D01*
X85836011Y-66460714D01*
X85931250Y-66508333D01*
X85978869Y-66555952D01*
X86026488Y-66651190D01*
X86026488Y-66936904D01*
X85978869Y-67032142D01*
X85931250Y-67079761D01*
X85836011Y-67127380D01*
X85693154Y-67127380D01*
X86931250Y-67127380D02*
X86455059Y-67127380D01*
X86455059Y-66127380D01*
X87264583Y-66603571D02*
X87597916Y-66603571D01*
X87740773Y-67127380D02*
X87264583Y-67127380D01*
X87264583Y-66127380D01*
X87740773Y-66127380D01*
X88169345Y-67127380D02*
X88169345Y-66127380D01*
X88407440Y-66127380D01*
X88550297Y-66175000D01*
X88645535Y-66270238D01*
X88693154Y-66365476D01*
X88740773Y-66555952D01*
X88740773Y-66698809D01*
X88693154Y-66889285D01*
X88645535Y-66984523D01*
X88550297Y-67079761D01*
X88407440Y-67127380D01*
X88169345Y-67127380D01*
%TO.C,MX27*%
X102219345Y-78239880D02*
X102219345Y-77239880D01*
X102552678Y-77954166D01*
X102886011Y-77239880D01*
X102886011Y-78239880D01*
X103266964Y-77239880D02*
X103933630Y-78239880D01*
X103933630Y-77239880D02*
X103266964Y-78239880D01*
X104266964Y-77335119D02*
X104314583Y-77287500D01*
X104409821Y-77239880D01*
X104647916Y-77239880D01*
X104743154Y-77287500D01*
X104790773Y-77335119D01*
X104838392Y-77430357D01*
X104838392Y-77525595D01*
X104790773Y-77668452D01*
X104219345Y-78239880D01*
X104838392Y-78239880D01*
X105171726Y-77239880D02*
X105838392Y-77239880D01*
X105409821Y-78239880D01*
X100219345Y-67127380D02*
X100219345Y-66127380D01*
X100552678Y-66841666D01*
X100886011Y-66127380D01*
X100886011Y-67127380D01*
X101266964Y-66127380D02*
X101933630Y-67127380D01*
X101933630Y-66127380D02*
X101266964Y-67127380D01*
X102314583Y-66746428D02*
X103076488Y-66746428D01*
X103552678Y-67127380D02*
X103552678Y-66127380D01*
X104124107Y-67127380D01*
X104124107Y-66127380D01*
X104743154Y-67127380D02*
X104647916Y-67079761D01*
X104600297Y-67032142D01*
X104552678Y-66936904D01*
X104552678Y-66651190D01*
X104600297Y-66555952D01*
X104647916Y-66508333D01*
X104743154Y-66460714D01*
X104886011Y-66460714D01*
X104981250Y-66508333D01*
X105028869Y-66555952D01*
X105076488Y-66651190D01*
X105076488Y-66936904D01*
X105028869Y-67032142D01*
X104981250Y-67079761D01*
X104886011Y-67127380D01*
X104743154Y-67127380D01*
X105981250Y-67127380D02*
X105505059Y-67127380D01*
X105505059Y-66127380D01*
X106314583Y-66603571D02*
X106647916Y-66603571D01*
X106790773Y-67127380D02*
X106314583Y-67127380D01*
X106314583Y-66127380D01*
X106790773Y-66127380D01*
X107219345Y-67127380D02*
X107219345Y-66127380D01*
X107457440Y-66127380D01*
X107600297Y-66175000D01*
X107695535Y-66270238D01*
X107743154Y-66365476D01*
X107790773Y-66555952D01*
X107790773Y-66698809D01*
X107743154Y-66889285D01*
X107695535Y-66984523D01*
X107600297Y-67079761D01*
X107457440Y-67127380D01*
X107219345Y-67127380D01*
%TO.C,MX26*%
X123650595Y-78239880D02*
X123650595Y-77239880D01*
X123983928Y-77954166D01*
X124317261Y-77239880D01*
X124317261Y-78239880D01*
X124698214Y-77239880D02*
X125364880Y-78239880D01*
X125364880Y-77239880D02*
X124698214Y-78239880D01*
X125698214Y-77335119D02*
X125745833Y-77287500D01*
X125841071Y-77239880D01*
X126079166Y-77239880D01*
X126174404Y-77287500D01*
X126222023Y-77335119D01*
X126269642Y-77430357D01*
X126269642Y-77525595D01*
X126222023Y-77668452D01*
X125650595Y-78239880D01*
X126269642Y-78239880D01*
X127126785Y-77239880D02*
X126936309Y-77239880D01*
X126841071Y-77287500D01*
X126793452Y-77335119D01*
X126698214Y-77477976D01*
X126650595Y-77668452D01*
X126650595Y-78049404D01*
X126698214Y-78144642D01*
X126745833Y-78192261D01*
X126841071Y-78239880D01*
X127031547Y-78239880D01*
X127126785Y-78192261D01*
X127174404Y-78144642D01*
X127222023Y-78049404D01*
X127222023Y-77811309D01*
X127174404Y-77716071D01*
X127126785Y-77668452D01*
X127031547Y-77620833D01*
X126841071Y-77620833D01*
X126745833Y-77668452D01*
X126698214Y-77716071D01*
X126650595Y-77811309D01*
X121650595Y-67127380D02*
X121650595Y-66127380D01*
X121983928Y-66841666D01*
X122317261Y-66127380D01*
X122317261Y-67127380D01*
X122698214Y-66127380D02*
X123364880Y-67127380D01*
X123364880Y-66127380D02*
X122698214Y-67127380D01*
X123745833Y-66746428D02*
X124507738Y-66746428D01*
X124983928Y-67127380D02*
X124983928Y-66127380D01*
X125555357Y-67127380D01*
X125555357Y-66127380D01*
X126174404Y-67127380D02*
X126079166Y-67079761D01*
X126031547Y-67032142D01*
X125983928Y-66936904D01*
X125983928Y-66651190D01*
X126031547Y-66555952D01*
X126079166Y-66508333D01*
X126174404Y-66460714D01*
X126317261Y-66460714D01*
X126412500Y-66508333D01*
X126460119Y-66555952D01*
X126507738Y-66651190D01*
X126507738Y-66936904D01*
X126460119Y-67032142D01*
X126412500Y-67079761D01*
X126317261Y-67127380D01*
X126174404Y-67127380D01*
X127412500Y-67127380D02*
X126936309Y-67127380D01*
X126936309Y-66127380D01*
X127745833Y-66603571D02*
X128079166Y-66603571D01*
X128222023Y-67127380D02*
X127745833Y-67127380D01*
X127745833Y-66127380D01*
X128222023Y-66127380D01*
X128650595Y-67127380D02*
X128650595Y-66127380D01*
X128888690Y-66127380D01*
X129031547Y-66175000D01*
X129126785Y-66270238D01*
X129174404Y-66365476D01*
X129222023Y-66555952D01*
X129222023Y-66698809D01*
X129174404Y-66889285D01*
X129126785Y-66984523D01*
X129031547Y-67079761D01*
X128888690Y-67127380D01*
X128650595Y-67127380D01*
%TO.C,MX25*%
X142700595Y-78239880D02*
X142700595Y-77239880D01*
X143033928Y-77954166D01*
X143367261Y-77239880D01*
X143367261Y-78239880D01*
X143748214Y-77239880D02*
X144414880Y-78239880D01*
X144414880Y-77239880D02*
X143748214Y-78239880D01*
X144748214Y-77335119D02*
X144795833Y-77287500D01*
X144891071Y-77239880D01*
X145129166Y-77239880D01*
X145224404Y-77287500D01*
X145272023Y-77335119D01*
X145319642Y-77430357D01*
X145319642Y-77525595D01*
X145272023Y-77668452D01*
X144700595Y-78239880D01*
X145319642Y-78239880D01*
X146224404Y-77239880D02*
X145748214Y-77239880D01*
X145700595Y-77716071D01*
X145748214Y-77668452D01*
X145843452Y-77620833D01*
X146081547Y-77620833D01*
X146176785Y-77668452D01*
X146224404Y-77716071D01*
X146272023Y-77811309D01*
X146272023Y-78049404D01*
X146224404Y-78144642D01*
X146176785Y-78192261D01*
X146081547Y-78239880D01*
X145843452Y-78239880D01*
X145748214Y-78192261D01*
X145700595Y-78144642D01*
X140700595Y-67127380D02*
X140700595Y-66127380D01*
X141033928Y-66841666D01*
X141367261Y-66127380D01*
X141367261Y-67127380D01*
X141748214Y-66127380D02*
X142414880Y-67127380D01*
X142414880Y-66127380D02*
X141748214Y-67127380D01*
X142795833Y-66746428D02*
X143557738Y-66746428D01*
X144033928Y-67127380D02*
X144033928Y-66127380D01*
X144605357Y-67127380D01*
X144605357Y-66127380D01*
X145224404Y-67127380D02*
X145129166Y-67079761D01*
X145081547Y-67032142D01*
X145033928Y-66936904D01*
X145033928Y-66651190D01*
X145081547Y-66555952D01*
X145129166Y-66508333D01*
X145224404Y-66460714D01*
X145367261Y-66460714D01*
X145462500Y-66508333D01*
X145510119Y-66555952D01*
X145557738Y-66651190D01*
X145557738Y-66936904D01*
X145510119Y-67032142D01*
X145462500Y-67079761D01*
X145367261Y-67127380D01*
X145224404Y-67127380D01*
X146462500Y-67127380D02*
X145986309Y-67127380D01*
X145986309Y-66127380D01*
X146795833Y-66603571D02*
X147129166Y-66603571D01*
X147272023Y-67127380D02*
X146795833Y-67127380D01*
X146795833Y-66127380D01*
X147272023Y-66127380D01*
X147700595Y-67127380D02*
X147700595Y-66127380D01*
X147938690Y-66127380D01*
X148081547Y-66175000D01*
X148176785Y-66270238D01*
X148224404Y-66365476D01*
X148272023Y-66555952D01*
X148272023Y-66698809D01*
X148224404Y-66889285D01*
X148176785Y-66984523D01*
X148081547Y-67079761D01*
X147938690Y-67127380D01*
X147700595Y-67127380D01*
%TO.C,MX24*%
X161750595Y-75064880D02*
X161750595Y-74064880D01*
X162083928Y-74779166D01*
X162417261Y-74064880D01*
X162417261Y-75064880D01*
X162798214Y-74064880D02*
X163464880Y-75064880D01*
X163464880Y-74064880D02*
X162798214Y-75064880D01*
X163798214Y-74160119D02*
X163845833Y-74112500D01*
X163941071Y-74064880D01*
X164179166Y-74064880D01*
X164274404Y-74112500D01*
X164322023Y-74160119D01*
X164369642Y-74255357D01*
X164369642Y-74350595D01*
X164322023Y-74493452D01*
X163750595Y-75064880D01*
X164369642Y-75064880D01*
X165226785Y-74398214D02*
X165226785Y-75064880D01*
X164988690Y-74017261D02*
X164750595Y-74731547D01*
X165369642Y-74731547D01*
X159750595Y-63952380D02*
X159750595Y-62952380D01*
X160083928Y-63666666D01*
X160417261Y-62952380D01*
X160417261Y-63952380D01*
X160798214Y-62952380D02*
X161464880Y-63952380D01*
X161464880Y-62952380D02*
X160798214Y-63952380D01*
X161845833Y-63571428D02*
X162607738Y-63571428D01*
X163083928Y-63952380D02*
X163083928Y-62952380D01*
X163655357Y-63952380D01*
X163655357Y-62952380D01*
X164274404Y-63952380D02*
X164179166Y-63904761D01*
X164131547Y-63857142D01*
X164083928Y-63761904D01*
X164083928Y-63476190D01*
X164131547Y-63380952D01*
X164179166Y-63333333D01*
X164274404Y-63285714D01*
X164417261Y-63285714D01*
X164512500Y-63333333D01*
X164560119Y-63380952D01*
X164607738Y-63476190D01*
X164607738Y-63761904D01*
X164560119Y-63857142D01*
X164512500Y-63904761D01*
X164417261Y-63952380D01*
X164274404Y-63952380D01*
X165512500Y-63952380D02*
X165036309Y-63952380D01*
X165036309Y-62952380D01*
X165845833Y-63428571D02*
X166179166Y-63428571D01*
X166322023Y-63952380D02*
X165845833Y-63952380D01*
X165845833Y-62952380D01*
X166322023Y-62952380D01*
X166750595Y-63952380D02*
X166750595Y-62952380D01*
X166988690Y-62952380D01*
X167131547Y-63000000D01*
X167226785Y-63095238D01*
X167274404Y-63190476D01*
X167322023Y-63380952D01*
X167322023Y-63523809D01*
X167274404Y-63714285D01*
X167226785Y-63809523D01*
X167131547Y-63904761D01*
X166988690Y-63952380D01*
X166750595Y-63952380D01*
%TO.C,MX23*%
X180800595Y-72683630D02*
X180800595Y-71683630D01*
X181133928Y-72397916D01*
X181467261Y-71683630D01*
X181467261Y-72683630D01*
X181848214Y-71683630D02*
X182514880Y-72683630D01*
X182514880Y-71683630D02*
X181848214Y-72683630D01*
X182848214Y-71778869D02*
X182895833Y-71731250D01*
X182991071Y-71683630D01*
X183229166Y-71683630D01*
X183324404Y-71731250D01*
X183372023Y-71778869D01*
X183419642Y-71874107D01*
X183419642Y-71969345D01*
X183372023Y-72112202D01*
X182800595Y-72683630D01*
X183419642Y-72683630D01*
X183752976Y-71683630D02*
X184372023Y-71683630D01*
X184038690Y-72064583D01*
X184181547Y-72064583D01*
X184276785Y-72112202D01*
X184324404Y-72159821D01*
X184372023Y-72255059D01*
X184372023Y-72493154D01*
X184324404Y-72588392D01*
X184276785Y-72636011D01*
X184181547Y-72683630D01*
X183895833Y-72683630D01*
X183800595Y-72636011D01*
X183752976Y-72588392D01*
X178800595Y-61571130D02*
X178800595Y-60571130D01*
X179133928Y-61285416D01*
X179467261Y-60571130D01*
X179467261Y-61571130D01*
X179848214Y-60571130D02*
X180514880Y-61571130D01*
X180514880Y-60571130D02*
X179848214Y-61571130D01*
X180895833Y-61190178D02*
X181657738Y-61190178D01*
X182133928Y-61571130D02*
X182133928Y-60571130D01*
X182705357Y-61571130D01*
X182705357Y-60571130D01*
X183324404Y-61571130D02*
X183229166Y-61523511D01*
X183181547Y-61475892D01*
X183133928Y-61380654D01*
X183133928Y-61094940D01*
X183181547Y-60999702D01*
X183229166Y-60952083D01*
X183324404Y-60904464D01*
X183467261Y-60904464D01*
X183562500Y-60952083D01*
X183610119Y-60999702D01*
X183657738Y-61094940D01*
X183657738Y-61380654D01*
X183610119Y-61475892D01*
X183562500Y-61523511D01*
X183467261Y-61571130D01*
X183324404Y-61571130D01*
X184562500Y-61571130D02*
X184086309Y-61571130D01*
X184086309Y-60571130D01*
X184895833Y-61047321D02*
X185229166Y-61047321D01*
X185372023Y-61571130D02*
X184895833Y-61571130D01*
X184895833Y-60571130D01*
X185372023Y-60571130D01*
X185800595Y-61571130D02*
X185800595Y-60571130D01*
X186038690Y-60571130D01*
X186181547Y-60618750D01*
X186276785Y-60713988D01*
X186324404Y-60809226D01*
X186372023Y-60999702D01*
X186372023Y-61142559D01*
X186324404Y-61333035D01*
X186276785Y-61428273D01*
X186181547Y-61523511D01*
X186038690Y-61571130D01*
X185800595Y-61571130D01*
%TO.C,MX22*%
X199850595Y-75064880D02*
X199850595Y-74064880D01*
X200183928Y-74779166D01*
X200517261Y-74064880D01*
X200517261Y-75064880D01*
X200898214Y-74064880D02*
X201564880Y-75064880D01*
X201564880Y-74064880D02*
X200898214Y-75064880D01*
X201898214Y-74160119D02*
X201945833Y-74112500D01*
X202041071Y-74064880D01*
X202279166Y-74064880D01*
X202374404Y-74112500D01*
X202422023Y-74160119D01*
X202469642Y-74255357D01*
X202469642Y-74350595D01*
X202422023Y-74493452D01*
X201850595Y-75064880D01*
X202469642Y-75064880D01*
X202850595Y-74160119D02*
X202898214Y-74112500D01*
X202993452Y-74064880D01*
X203231547Y-74064880D01*
X203326785Y-74112500D01*
X203374404Y-74160119D01*
X203422023Y-74255357D01*
X203422023Y-74350595D01*
X203374404Y-74493452D01*
X202802976Y-75064880D01*
X203422023Y-75064880D01*
X197850595Y-63952380D02*
X197850595Y-62952380D01*
X198183928Y-63666666D01*
X198517261Y-62952380D01*
X198517261Y-63952380D01*
X198898214Y-62952380D02*
X199564880Y-63952380D01*
X199564880Y-62952380D02*
X198898214Y-63952380D01*
X199945833Y-63571428D02*
X200707738Y-63571428D01*
X201183928Y-63952380D02*
X201183928Y-62952380D01*
X201755357Y-63952380D01*
X201755357Y-62952380D01*
X202374404Y-63952380D02*
X202279166Y-63904761D01*
X202231547Y-63857142D01*
X202183928Y-63761904D01*
X202183928Y-63476190D01*
X202231547Y-63380952D01*
X202279166Y-63333333D01*
X202374404Y-63285714D01*
X202517261Y-63285714D01*
X202612500Y-63333333D01*
X202660119Y-63380952D01*
X202707738Y-63476190D01*
X202707738Y-63761904D01*
X202660119Y-63857142D01*
X202612500Y-63904761D01*
X202517261Y-63952380D01*
X202374404Y-63952380D01*
X203612500Y-63952380D02*
X203136309Y-63952380D01*
X203136309Y-62952380D01*
X203945833Y-63428571D02*
X204279166Y-63428571D01*
X204422023Y-63952380D02*
X203945833Y-63952380D01*
X203945833Y-62952380D01*
X204422023Y-62952380D01*
X204850595Y-63952380D02*
X204850595Y-62952380D01*
X205088690Y-62952380D01*
X205231547Y-63000000D01*
X205326785Y-63095238D01*
X205374404Y-63190476D01*
X205422023Y-63380952D01*
X205422023Y-63523809D01*
X205374404Y-63714285D01*
X205326785Y-63809523D01*
X205231547Y-63904761D01*
X205088690Y-63952380D01*
X204850595Y-63952380D01*
%TO.C,MX21*%
X218900595Y-77446130D02*
X218900595Y-76446130D01*
X219233928Y-77160416D01*
X219567261Y-76446130D01*
X219567261Y-77446130D01*
X219948214Y-76446130D02*
X220614880Y-77446130D01*
X220614880Y-76446130D02*
X219948214Y-77446130D01*
X220948214Y-76541369D02*
X220995833Y-76493750D01*
X221091071Y-76446130D01*
X221329166Y-76446130D01*
X221424404Y-76493750D01*
X221472023Y-76541369D01*
X221519642Y-76636607D01*
X221519642Y-76731845D01*
X221472023Y-76874702D01*
X220900595Y-77446130D01*
X221519642Y-77446130D01*
X222472023Y-77446130D02*
X221900595Y-77446130D01*
X222186309Y-77446130D02*
X222186309Y-76446130D01*
X222091071Y-76588988D01*
X221995833Y-76684226D01*
X221900595Y-76731845D01*
X216900595Y-66333630D02*
X216900595Y-65333630D01*
X217233928Y-66047916D01*
X217567261Y-65333630D01*
X217567261Y-66333630D01*
X217948214Y-65333630D02*
X218614880Y-66333630D01*
X218614880Y-65333630D02*
X217948214Y-66333630D01*
X218995833Y-65952678D02*
X219757738Y-65952678D01*
X220233928Y-66333630D02*
X220233928Y-65333630D01*
X220805357Y-66333630D01*
X220805357Y-65333630D01*
X221424404Y-66333630D02*
X221329166Y-66286011D01*
X221281547Y-66238392D01*
X221233928Y-66143154D01*
X221233928Y-65857440D01*
X221281547Y-65762202D01*
X221329166Y-65714583D01*
X221424404Y-65666964D01*
X221567261Y-65666964D01*
X221662500Y-65714583D01*
X221710119Y-65762202D01*
X221757738Y-65857440D01*
X221757738Y-66143154D01*
X221710119Y-66238392D01*
X221662500Y-66286011D01*
X221567261Y-66333630D01*
X221424404Y-66333630D01*
X222662500Y-66333630D02*
X222186309Y-66333630D01*
X222186309Y-65333630D01*
X222995833Y-65809821D02*
X223329166Y-65809821D01*
X223472023Y-66333630D02*
X222995833Y-66333630D01*
X222995833Y-65333630D01*
X223472023Y-65333630D01*
X223900595Y-66333630D02*
X223900595Y-65333630D01*
X224138690Y-65333630D01*
X224281547Y-65381250D01*
X224376785Y-65476488D01*
X224424404Y-65571726D01*
X224472023Y-65762202D01*
X224472023Y-65905059D01*
X224424404Y-66095535D01*
X224376785Y-66190773D01*
X224281547Y-66286011D01*
X224138690Y-66333630D01*
X223900595Y-66333630D01*
%TO.C,MX20*%
X45069345Y-59189880D02*
X45069345Y-58189880D01*
X45402678Y-58904166D01*
X45736011Y-58189880D01*
X45736011Y-59189880D01*
X46116964Y-58189880D02*
X46783630Y-59189880D01*
X46783630Y-58189880D02*
X46116964Y-59189880D01*
X47116964Y-58285119D02*
X47164583Y-58237500D01*
X47259821Y-58189880D01*
X47497916Y-58189880D01*
X47593154Y-58237500D01*
X47640773Y-58285119D01*
X47688392Y-58380357D01*
X47688392Y-58475595D01*
X47640773Y-58618452D01*
X47069345Y-59189880D01*
X47688392Y-59189880D01*
X48307440Y-58189880D02*
X48402678Y-58189880D01*
X48497916Y-58237500D01*
X48545535Y-58285119D01*
X48593154Y-58380357D01*
X48640773Y-58570833D01*
X48640773Y-58808928D01*
X48593154Y-58999404D01*
X48545535Y-59094642D01*
X48497916Y-59142261D01*
X48402678Y-59189880D01*
X48307440Y-59189880D01*
X48212202Y-59142261D01*
X48164583Y-59094642D01*
X48116964Y-58999404D01*
X48069345Y-58808928D01*
X48069345Y-58570833D01*
X48116964Y-58380357D01*
X48164583Y-58285119D01*
X48212202Y-58237500D01*
X48307440Y-58189880D01*
X43069345Y-48077380D02*
X43069345Y-47077380D01*
X43402678Y-47791666D01*
X43736011Y-47077380D01*
X43736011Y-48077380D01*
X44116964Y-47077380D02*
X44783630Y-48077380D01*
X44783630Y-47077380D02*
X44116964Y-48077380D01*
X45164583Y-47696428D02*
X45926488Y-47696428D01*
X46402678Y-48077380D02*
X46402678Y-47077380D01*
X46974107Y-48077380D01*
X46974107Y-47077380D01*
X47593154Y-48077380D02*
X47497916Y-48029761D01*
X47450297Y-47982142D01*
X47402678Y-47886904D01*
X47402678Y-47601190D01*
X47450297Y-47505952D01*
X47497916Y-47458333D01*
X47593154Y-47410714D01*
X47736011Y-47410714D01*
X47831250Y-47458333D01*
X47878869Y-47505952D01*
X47926488Y-47601190D01*
X47926488Y-47886904D01*
X47878869Y-47982142D01*
X47831250Y-48029761D01*
X47736011Y-48077380D01*
X47593154Y-48077380D01*
X48831250Y-48077380D02*
X48355059Y-48077380D01*
X48355059Y-47077380D01*
X49164583Y-47553571D02*
X49497916Y-47553571D01*
X49640773Y-48077380D02*
X49164583Y-48077380D01*
X49164583Y-47077380D01*
X49640773Y-47077380D01*
X50069345Y-48077380D02*
X50069345Y-47077380D01*
X50307440Y-47077380D01*
X50450297Y-47125000D01*
X50545535Y-47220238D01*
X50593154Y-47315476D01*
X50640773Y-47505952D01*
X50640773Y-47648809D01*
X50593154Y-47839285D01*
X50545535Y-47934523D01*
X50450297Y-48029761D01*
X50307440Y-48077380D01*
X50069345Y-48077380D01*
%TO.C,MX19*%
X64119345Y-59189880D02*
X64119345Y-58189880D01*
X64452678Y-58904166D01*
X64786011Y-58189880D01*
X64786011Y-59189880D01*
X65166964Y-58189880D02*
X65833630Y-59189880D01*
X65833630Y-58189880D02*
X65166964Y-59189880D01*
X66738392Y-59189880D02*
X66166964Y-59189880D01*
X66452678Y-59189880D02*
X66452678Y-58189880D01*
X66357440Y-58332738D01*
X66262202Y-58427976D01*
X66166964Y-58475595D01*
X67214583Y-59189880D02*
X67405059Y-59189880D01*
X67500297Y-59142261D01*
X67547916Y-59094642D01*
X67643154Y-58951785D01*
X67690773Y-58761309D01*
X67690773Y-58380357D01*
X67643154Y-58285119D01*
X67595535Y-58237500D01*
X67500297Y-58189880D01*
X67309821Y-58189880D01*
X67214583Y-58237500D01*
X67166964Y-58285119D01*
X67119345Y-58380357D01*
X67119345Y-58618452D01*
X67166964Y-58713690D01*
X67214583Y-58761309D01*
X67309821Y-58808928D01*
X67500297Y-58808928D01*
X67595535Y-58761309D01*
X67643154Y-58713690D01*
X67690773Y-58618452D01*
X62119345Y-48077380D02*
X62119345Y-47077380D01*
X62452678Y-47791666D01*
X62786011Y-47077380D01*
X62786011Y-48077380D01*
X63166964Y-47077380D02*
X63833630Y-48077380D01*
X63833630Y-47077380D02*
X63166964Y-48077380D01*
X64214583Y-47696428D02*
X64976488Y-47696428D01*
X65452678Y-48077380D02*
X65452678Y-47077380D01*
X66024107Y-48077380D01*
X66024107Y-47077380D01*
X66643154Y-48077380D02*
X66547916Y-48029761D01*
X66500297Y-47982142D01*
X66452678Y-47886904D01*
X66452678Y-47601190D01*
X66500297Y-47505952D01*
X66547916Y-47458333D01*
X66643154Y-47410714D01*
X66786011Y-47410714D01*
X66881250Y-47458333D01*
X66928869Y-47505952D01*
X66976488Y-47601190D01*
X66976488Y-47886904D01*
X66928869Y-47982142D01*
X66881250Y-48029761D01*
X66786011Y-48077380D01*
X66643154Y-48077380D01*
X67881250Y-48077380D02*
X67405059Y-48077380D01*
X67405059Y-47077380D01*
X68214583Y-47553571D02*
X68547916Y-47553571D01*
X68690773Y-48077380D02*
X68214583Y-48077380D01*
X68214583Y-47077380D01*
X68690773Y-47077380D01*
X69119345Y-48077380D02*
X69119345Y-47077380D01*
X69357440Y-47077380D01*
X69500297Y-47125000D01*
X69595535Y-47220238D01*
X69643154Y-47315476D01*
X69690773Y-47505952D01*
X69690773Y-47648809D01*
X69643154Y-47839285D01*
X69595535Y-47934523D01*
X69500297Y-48029761D01*
X69357440Y-48077380D01*
X69119345Y-48077380D01*
%TO.C,MX18*%
X83169345Y-59189880D02*
X83169345Y-58189880D01*
X83502678Y-58904166D01*
X83836011Y-58189880D01*
X83836011Y-59189880D01*
X84216964Y-58189880D02*
X84883630Y-59189880D01*
X84883630Y-58189880D02*
X84216964Y-59189880D01*
X85788392Y-59189880D02*
X85216964Y-59189880D01*
X85502678Y-59189880D02*
X85502678Y-58189880D01*
X85407440Y-58332738D01*
X85312202Y-58427976D01*
X85216964Y-58475595D01*
X86359821Y-58618452D02*
X86264583Y-58570833D01*
X86216964Y-58523214D01*
X86169345Y-58427976D01*
X86169345Y-58380357D01*
X86216964Y-58285119D01*
X86264583Y-58237500D01*
X86359821Y-58189880D01*
X86550297Y-58189880D01*
X86645535Y-58237500D01*
X86693154Y-58285119D01*
X86740773Y-58380357D01*
X86740773Y-58427976D01*
X86693154Y-58523214D01*
X86645535Y-58570833D01*
X86550297Y-58618452D01*
X86359821Y-58618452D01*
X86264583Y-58666071D01*
X86216964Y-58713690D01*
X86169345Y-58808928D01*
X86169345Y-58999404D01*
X86216964Y-59094642D01*
X86264583Y-59142261D01*
X86359821Y-59189880D01*
X86550297Y-59189880D01*
X86645535Y-59142261D01*
X86693154Y-59094642D01*
X86740773Y-58999404D01*
X86740773Y-58808928D01*
X86693154Y-58713690D01*
X86645535Y-58666071D01*
X86550297Y-58618452D01*
X81169345Y-48077380D02*
X81169345Y-47077380D01*
X81502678Y-47791666D01*
X81836011Y-47077380D01*
X81836011Y-48077380D01*
X82216964Y-47077380D02*
X82883630Y-48077380D01*
X82883630Y-47077380D02*
X82216964Y-48077380D01*
X83264583Y-47696428D02*
X84026488Y-47696428D01*
X84502678Y-48077380D02*
X84502678Y-47077380D01*
X85074107Y-48077380D01*
X85074107Y-47077380D01*
X85693154Y-48077380D02*
X85597916Y-48029761D01*
X85550297Y-47982142D01*
X85502678Y-47886904D01*
X85502678Y-47601190D01*
X85550297Y-47505952D01*
X85597916Y-47458333D01*
X85693154Y-47410714D01*
X85836011Y-47410714D01*
X85931250Y-47458333D01*
X85978869Y-47505952D01*
X86026488Y-47601190D01*
X86026488Y-47886904D01*
X85978869Y-47982142D01*
X85931250Y-48029761D01*
X85836011Y-48077380D01*
X85693154Y-48077380D01*
X86931250Y-48077380D02*
X86455059Y-48077380D01*
X86455059Y-47077380D01*
X87264583Y-47553571D02*
X87597916Y-47553571D01*
X87740773Y-48077380D02*
X87264583Y-48077380D01*
X87264583Y-47077380D01*
X87740773Y-47077380D01*
X88169345Y-48077380D02*
X88169345Y-47077380D01*
X88407440Y-47077380D01*
X88550297Y-47125000D01*
X88645535Y-47220238D01*
X88693154Y-47315476D01*
X88740773Y-47505952D01*
X88740773Y-47648809D01*
X88693154Y-47839285D01*
X88645535Y-47934523D01*
X88550297Y-48029761D01*
X88407440Y-48077380D01*
X88169345Y-48077380D01*
%TO.C,MX17*%
X102219345Y-59189880D02*
X102219345Y-58189880D01*
X102552678Y-58904166D01*
X102886011Y-58189880D01*
X102886011Y-59189880D01*
X103266964Y-58189880D02*
X103933630Y-59189880D01*
X103933630Y-58189880D02*
X103266964Y-59189880D01*
X104838392Y-59189880D02*
X104266964Y-59189880D01*
X104552678Y-59189880D02*
X104552678Y-58189880D01*
X104457440Y-58332738D01*
X104362202Y-58427976D01*
X104266964Y-58475595D01*
X105171726Y-58189880D02*
X105838392Y-58189880D01*
X105409821Y-59189880D01*
X100219345Y-48077380D02*
X100219345Y-47077380D01*
X100552678Y-47791666D01*
X100886011Y-47077380D01*
X100886011Y-48077380D01*
X101266964Y-47077380D02*
X101933630Y-48077380D01*
X101933630Y-47077380D02*
X101266964Y-48077380D01*
X102314583Y-47696428D02*
X103076488Y-47696428D01*
X103552678Y-48077380D02*
X103552678Y-47077380D01*
X104124107Y-48077380D01*
X104124107Y-47077380D01*
X104743154Y-48077380D02*
X104647916Y-48029761D01*
X104600297Y-47982142D01*
X104552678Y-47886904D01*
X104552678Y-47601190D01*
X104600297Y-47505952D01*
X104647916Y-47458333D01*
X104743154Y-47410714D01*
X104886011Y-47410714D01*
X104981250Y-47458333D01*
X105028869Y-47505952D01*
X105076488Y-47601190D01*
X105076488Y-47886904D01*
X105028869Y-47982142D01*
X104981250Y-48029761D01*
X104886011Y-48077380D01*
X104743154Y-48077380D01*
X105981250Y-48077380D02*
X105505059Y-48077380D01*
X105505059Y-47077380D01*
X106314583Y-47553571D02*
X106647916Y-47553571D01*
X106790773Y-48077380D02*
X106314583Y-48077380D01*
X106314583Y-47077380D01*
X106790773Y-47077380D01*
X107219345Y-48077380D02*
X107219345Y-47077380D01*
X107457440Y-47077380D01*
X107600297Y-47125000D01*
X107695535Y-47220238D01*
X107743154Y-47315476D01*
X107790773Y-47505952D01*
X107790773Y-47648809D01*
X107743154Y-47839285D01*
X107695535Y-47934523D01*
X107600297Y-48029761D01*
X107457440Y-48077380D01*
X107219345Y-48077380D01*
%TO.C,MX16*%
X123650595Y-59189880D02*
X123650595Y-58189880D01*
X123983928Y-58904166D01*
X124317261Y-58189880D01*
X124317261Y-59189880D01*
X124698214Y-58189880D02*
X125364880Y-59189880D01*
X125364880Y-58189880D02*
X124698214Y-59189880D01*
X126269642Y-59189880D02*
X125698214Y-59189880D01*
X125983928Y-59189880D02*
X125983928Y-58189880D01*
X125888690Y-58332738D01*
X125793452Y-58427976D01*
X125698214Y-58475595D01*
X127126785Y-58189880D02*
X126936309Y-58189880D01*
X126841071Y-58237500D01*
X126793452Y-58285119D01*
X126698214Y-58427976D01*
X126650595Y-58618452D01*
X126650595Y-58999404D01*
X126698214Y-59094642D01*
X126745833Y-59142261D01*
X126841071Y-59189880D01*
X127031547Y-59189880D01*
X127126785Y-59142261D01*
X127174404Y-59094642D01*
X127222023Y-58999404D01*
X127222023Y-58761309D01*
X127174404Y-58666071D01*
X127126785Y-58618452D01*
X127031547Y-58570833D01*
X126841071Y-58570833D01*
X126745833Y-58618452D01*
X126698214Y-58666071D01*
X126650595Y-58761309D01*
X121650595Y-48077380D02*
X121650595Y-47077380D01*
X121983928Y-47791666D01*
X122317261Y-47077380D01*
X122317261Y-48077380D01*
X122698214Y-47077380D02*
X123364880Y-48077380D01*
X123364880Y-47077380D02*
X122698214Y-48077380D01*
X123745833Y-47696428D02*
X124507738Y-47696428D01*
X124983928Y-48077380D02*
X124983928Y-47077380D01*
X125555357Y-48077380D01*
X125555357Y-47077380D01*
X126174404Y-48077380D02*
X126079166Y-48029761D01*
X126031547Y-47982142D01*
X125983928Y-47886904D01*
X125983928Y-47601190D01*
X126031547Y-47505952D01*
X126079166Y-47458333D01*
X126174404Y-47410714D01*
X126317261Y-47410714D01*
X126412500Y-47458333D01*
X126460119Y-47505952D01*
X126507738Y-47601190D01*
X126507738Y-47886904D01*
X126460119Y-47982142D01*
X126412500Y-48029761D01*
X126317261Y-48077380D01*
X126174404Y-48077380D01*
X127412500Y-48077380D02*
X126936309Y-48077380D01*
X126936309Y-47077380D01*
X127745833Y-47553571D02*
X128079166Y-47553571D01*
X128222023Y-48077380D02*
X127745833Y-48077380D01*
X127745833Y-47077380D01*
X128222023Y-47077380D01*
X128650595Y-48077380D02*
X128650595Y-47077380D01*
X128888690Y-47077380D01*
X129031547Y-47125000D01*
X129126785Y-47220238D01*
X129174404Y-47315476D01*
X129222023Y-47505952D01*
X129222023Y-47648809D01*
X129174404Y-47839285D01*
X129126785Y-47934523D01*
X129031547Y-48029761D01*
X128888690Y-48077380D01*
X128650595Y-48077380D01*
%TO.C,MX15*%
X142700595Y-59189880D02*
X142700595Y-58189880D01*
X143033928Y-58904166D01*
X143367261Y-58189880D01*
X143367261Y-59189880D01*
X143748214Y-58189880D02*
X144414880Y-59189880D01*
X144414880Y-58189880D02*
X143748214Y-59189880D01*
X145319642Y-59189880D02*
X144748214Y-59189880D01*
X145033928Y-59189880D02*
X145033928Y-58189880D01*
X144938690Y-58332738D01*
X144843452Y-58427976D01*
X144748214Y-58475595D01*
X146224404Y-58189880D02*
X145748214Y-58189880D01*
X145700595Y-58666071D01*
X145748214Y-58618452D01*
X145843452Y-58570833D01*
X146081547Y-58570833D01*
X146176785Y-58618452D01*
X146224404Y-58666071D01*
X146272023Y-58761309D01*
X146272023Y-58999404D01*
X146224404Y-59094642D01*
X146176785Y-59142261D01*
X146081547Y-59189880D01*
X145843452Y-59189880D01*
X145748214Y-59142261D01*
X145700595Y-59094642D01*
X140700595Y-48077380D02*
X140700595Y-47077380D01*
X141033928Y-47791666D01*
X141367261Y-47077380D01*
X141367261Y-48077380D01*
X141748214Y-47077380D02*
X142414880Y-48077380D01*
X142414880Y-47077380D02*
X141748214Y-48077380D01*
X142795833Y-47696428D02*
X143557738Y-47696428D01*
X144033928Y-48077380D02*
X144033928Y-47077380D01*
X144605357Y-48077380D01*
X144605357Y-47077380D01*
X145224404Y-48077380D02*
X145129166Y-48029761D01*
X145081547Y-47982142D01*
X145033928Y-47886904D01*
X145033928Y-47601190D01*
X145081547Y-47505952D01*
X145129166Y-47458333D01*
X145224404Y-47410714D01*
X145367261Y-47410714D01*
X145462500Y-47458333D01*
X145510119Y-47505952D01*
X145557738Y-47601190D01*
X145557738Y-47886904D01*
X145510119Y-47982142D01*
X145462500Y-48029761D01*
X145367261Y-48077380D01*
X145224404Y-48077380D01*
X146462500Y-48077380D02*
X145986309Y-48077380D01*
X145986309Y-47077380D01*
X146795833Y-47553571D02*
X147129166Y-47553571D01*
X147272023Y-48077380D02*
X146795833Y-48077380D01*
X146795833Y-47077380D01*
X147272023Y-47077380D01*
X147700595Y-48077380D02*
X147700595Y-47077380D01*
X147938690Y-47077380D01*
X148081547Y-47125000D01*
X148176785Y-47220238D01*
X148224404Y-47315476D01*
X148272023Y-47505952D01*
X148272023Y-47648809D01*
X148224404Y-47839285D01*
X148176785Y-47934523D01*
X148081547Y-48029761D01*
X147938690Y-48077380D01*
X147700595Y-48077380D01*
%TO.C,MX14*%
X161750595Y-56014880D02*
X161750595Y-55014880D01*
X162083928Y-55729166D01*
X162417261Y-55014880D01*
X162417261Y-56014880D01*
X162798214Y-55014880D02*
X163464880Y-56014880D01*
X163464880Y-55014880D02*
X162798214Y-56014880D01*
X164369642Y-56014880D02*
X163798214Y-56014880D01*
X164083928Y-56014880D02*
X164083928Y-55014880D01*
X163988690Y-55157738D01*
X163893452Y-55252976D01*
X163798214Y-55300595D01*
X165226785Y-55348214D02*
X165226785Y-56014880D01*
X164988690Y-54967261D02*
X164750595Y-55681547D01*
X165369642Y-55681547D01*
X159750595Y-44902380D02*
X159750595Y-43902380D01*
X160083928Y-44616666D01*
X160417261Y-43902380D01*
X160417261Y-44902380D01*
X160798214Y-43902380D02*
X161464880Y-44902380D01*
X161464880Y-43902380D02*
X160798214Y-44902380D01*
X161845833Y-44521428D02*
X162607738Y-44521428D01*
X163083928Y-44902380D02*
X163083928Y-43902380D01*
X163655357Y-44902380D01*
X163655357Y-43902380D01*
X164274404Y-44902380D02*
X164179166Y-44854761D01*
X164131547Y-44807142D01*
X164083928Y-44711904D01*
X164083928Y-44426190D01*
X164131547Y-44330952D01*
X164179166Y-44283333D01*
X164274404Y-44235714D01*
X164417261Y-44235714D01*
X164512500Y-44283333D01*
X164560119Y-44330952D01*
X164607738Y-44426190D01*
X164607738Y-44711904D01*
X164560119Y-44807142D01*
X164512500Y-44854761D01*
X164417261Y-44902380D01*
X164274404Y-44902380D01*
X165512500Y-44902380D02*
X165036309Y-44902380D01*
X165036309Y-43902380D01*
X165845833Y-44378571D02*
X166179166Y-44378571D01*
X166322023Y-44902380D02*
X165845833Y-44902380D01*
X165845833Y-43902380D01*
X166322023Y-43902380D01*
X166750595Y-44902380D02*
X166750595Y-43902380D01*
X166988690Y-43902380D01*
X167131547Y-43950000D01*
X167226785Y-44045238D01*
X167274404Y-44140476D01*
X167322023Y-44330952D01*
X167322023Y-44473809D01*
X167274404Y-44664285D01*
X167226785Y-44759523D01*
X167131547Y-44854761D01*
X166988690Y-44902380D01*
X166750595Y-44902380D01*
%TO.C,MX13*%
X180800595Y-53633630D02*
X180800595Y-52633630D01*
X181133928Y-53347916D01*
X181467261Y-52633630D01*
X181467261Y-53633630D01*
X181848214Y-52633630D02*
X182514880Y-53633630D01*
X182514880Y-52633630D02*
X181848214Y-53633630D01*
X183419642Y-53633630D02*
X182848214Y-53633630D01*
X183133928Y-53633630D02*
X183133928Y-52633630D01*
X183038690Y-52776488D01*
X182943452Y-52871726D01*
X182848214Y-52919345D01*
X183752976Y-52633630D02*
X184372023Y-52633630D01*
X184038690Y-53014583D01*
X184181547Y-53014583D01*
X184276785Y-53062202D01*
X184324404Y-53109821D01*
X184372023Y-53205059D01*
X184372023Y-53443154D01*
X184324404Y-53538392D01*
X184276785Y-53586011D01*
X184181547Y-53633630D01*
X183895833Y-53633630D01*
X183800595Y-53586011D01*
X183752976Y-53538392D01*
X178800595Y-42521130D02*
X178800595Y-41521130D01*
X179133928Y-42235416D01*
X179467261Y-41521130D01*
X179467261Y-42521130D01*
X179848214Y-41521130D02*
X180514880Y-42521130D01*
X180514880Y-41521130D02*
X179848214Y-42521130D01*
X180895833Y-42140178D02*
X181657738Y-42140178D01*
X182133928Y-42521130D02*
X182133928Y-41521130D01*
X182705357Y-42521130D01*
X182705357Y-41521130D01*
X183324404Y-42521130D02*
X183229166Y-42473511D01*
X183181547Y-42425892D01*
X183133928Y-42330654D01*
X183133928Y-42044940D01*
X183181547Y-41949702D01*
X183229166Y-41902083D01*
X183324404Y-41854464D01*
X183467261Y-41854464D01*
X183562500Y-41902083D01*
X183610119Y-41949702D01*
X183657738Y-42044940D01*
X183657738Y-42330654D01*
X183610119Y-42425892D01*
X183562500Y-42473511D01*
X183467261Y-42521130D01*
X183324404Y-42521130D01*
X184562500Y-42521130D02*
X184086309Y-42521130D01*
X184086309Y-41521130D01*
X184895833Y-41997321D02*
X185229166Y-41997321D01*
X185372023Y-42521130D02*
X184895833Y-42521130D01*
X184895833Y-41521130D01*
X185372023Y-41521130D01*
X185800595Y-42521130D02*
X185800595Y-41521130D01*
X186038690Y-41521130D01*
X186181547Y-41568750D01*
X186276785Y-41663988D01*
X186324404Y-41759226D01*
X186372023Y-41949702D01*
X186372023Y-42092559D01*
X186324404Y-42283035D01*
X186276785Y-42378273D01*
X186181547Y-42473511D01*
X186038690Y-42521130D01*
X185800595Y-42521130D01*
%TO.C,MX12*%
X199850595Y-56014880D02*
X199850595Y-55014880D01*
X200183928Y-55729166D01*
X200517261Y-55014880D01*
X200517261Y-56014880D01*
X200898214Y-55014880D02*
X201564880Y-56014880D01*
X201564880Y-55014880D02*
X200898214Y-56014880D01*
X202469642Y-56014880D02*
X201898214Y-56014880D01*
X202183928Y-56014880D02*
X202183928Y-55014880D01*
X202088690Y-55157738D01*
X201993452Y-55252976D01*
X201898214Y-55300595D01*
X202850595Y-55110119D02*
X202898214Y-55062500D01*
X202993452Y-55014880D01*
X203231547Y-55014880D01*
X203326785Y-55062500D01*
X203374404Y-55110119D01*
X203422023Y-55205357D01*
X203422023Y-55300595D01*
X203374404Y-55443452D01*
X202802976Y-56014880D01*
X203422023Y-56014880D01*
X197850595Y-44902380D02*
X197850595Y-43902380D01*
X198183928Y-44616666D01*
X198517261Y-43902380D01*
X198517261Y-44902380D01*
X198898214Y-43902380D02*
X199564880Y-44902380D01*
X199564880Y-43902380D02*
X198898214Y-44902380D01*
X199945833Y-44521428D02*
X200707738Y-44521428D01*
X201183928Y-44902380D02*
X201183928Y-43902380D01*
X201755357Y-44902380D01*
X201755357Y-43902380D01*
X202374404Y-44902380D02*
X202279166Y-44854761D01*
X202231547Y-44807142D01*
X202183928Y-44711904D01*
X202183928Y-44426190D01*
X202231547Y-44330952D01*
X202279166Y-44283333D01*
X202374404Y-44235714D01*
X202517261Y-44235714D01*
X202612500Y-44283333D01*
X202660119Y-44330952D01*
X202707738Y-44426190D01*
X202707738Y-44711904D01*
X202660119Y-44807142D01*
X202612500Y-44854761D01*
X202517261Y-44902380D01*
X202374404Y-44902380D01*
X203612500Y-44902380D02*
X203136309Y-44902380D01*
X203136309Y-43902380D01*
X203945833Y-44378571D02*
X204279166Y-44378571D01*
X204422023Y-44902380D02*
X203945833Y-44902380D01*
X203945833Y-43902380D01*
X204422023Y-43902380D01*
X204850595Y-44902380D02*
X204850595Y-43902380D01*
X205088690Y-43902380D01*
X205231547Y-43950000D01*
X205326785Y-44045238D01*
X205374404Y-44140476D01*
X205422023Y-44330952D01*
X205422023Y-44473809D01*
X205374404Y-44664285D01*
X205326785Y-44759523D01*
X205231547Y-44854761D01*
X205088690Y-44902380D01*
X204850595Y-44902380D01*
%TO.C,MX11*%
X218900595Y-58396130D02*
X218900595Y-57396130D01*
X219233928Y-58110416D01*
X219567261Y-57396130D01*
X219567261Y-58396130D01*
X219948214Y-57396130D02*
X220614880Y-58396130D01*
X220614880Y-57396130D02*
X219948214Y-58396130D01*
X221519642Y-58396130D02*
X220948214Y-58396130D01*
X221233928Y-58396130D02*
X221233928Y-57396130D01*
X221138690Y-57538988D01*
X221043452Y-57634226D01*
X220948214Y-57681845D01*
X222472023Y-58396130D02*
X221900595Y-58396130D01*
X222186309Y-58396130D02*
X222186309Y-57396130D01*
X222091071Y-57538988D01*
X221995833Y-57634226D01*
X221900595Y-57681845D01*
X216900595Y-47283630D02*
X216900595Y-46283630D01*
X217233928Y-46997916D01*
X217567261Y-46283630D01*
X217567261Y-47283630D01*
X217948214Y-46283630D02*
X218614880Y-47283630D01*
X218614880Y-46283630D02*
X217948214Y-47283630D01*
X218995833Y-46902678D02*
X219757738Y-46902678D01*
X220233928Y-47283630D02*
X220233928Y-46283630D01*
X220805357Y-47283630D01*
X220805357Y-46283630D01*
X221424404Y-47283630D02*
X221329166Y-47236011D01*
X221281547Y-47188392D01*
X221233928Y-47093154D01*
X221233928Y-46807440D01*
X221281547Y-46712202D01*
X221329166Y-46664583D01*
X221424404Y-46616964D01*
X221567261Y-46616964D01*
X221662500Y-46664583D01*
X221710119Y-46712202D01*
X221757738Y-46807440D01*
X221757738Y-47093154D01*
X221710119Y-47188392D01*
X221662500Y-47236011D01*
X221567261Y-47283630D01*
X221424404Y-47283630D01*
X222662500Y-47283630D02*
X222186309Y-47283630D01*
X222186309Y-46283630D01*
X222995833Y-46759821D02*
X223329166Y-46759821D01*
X223472023Y-47283630D02*
X222995833Y-47283630D01*
X222995833Y-46283630D01*
X223472023Y-46283630D01*
X223900595Y-47283630D02*
X223900595Y-46283630D01*
X224138690Y-46283630D01*
X224281547Y-46331250D01*
X224376785Y-46426488D01*
X224424404Y-46521726D01*
X224472023Y-46712202D01*
X224472023Y-46855059D01*
X224424404Y-47045535D01*
X224376785Y-47140773D01*
X224281547Y-47236011D01*
X224138690Y-47283630D01*
X223900595Y-47283630D01*
%TO.C,MX10*%
X45069345Y-40139880D02*
X45069345Y-39139880D01*
X45402678Y-39854166D01*
X45736011Y-39139880D01*
X45736011Y-40139880D01*
X46116964Y-39139880D02*
X46783630Y-40139880D01*
X46783630Y-39139880D02*
X46116964Y-40139880D01*
X47688392Y-40139880D02*
X47116964Y-40139880D01*
X47402678Y-40139880D02*
X47402678Y-39139880D01*
X47307440Y-39282738D01*
X47212202Y-39377976D01*
X47116964Y-39425595D01*
X48307440Y-39139880D02*
X48402678Y-39139880D01*
X48497916Y-39187500D01*
X48545535Y-39235119D01*
X48593154Y-39330357D01*
X48640773Y-39520833D01*
X48640773Y-39758928D01*
X48593154Y-39949404D01*
X48545535Y-40044642D01*
X48497916Y-40092261D01*
X48402678Y-40139880D01*
X48307440Y-40139880D01*
X48212202Y-40092261D01*
X48164583Y-40044642D01*
X48116964Y-39949404D01*
X48069345Y-39758928D01*
X48069345Y-39520833D01*
X48116964Y-39330357D01*
X48164583Y-39235119D01*
X48212202Y-39187500D01*
X48307440Y-39139880D01*
X43069345Y-29027380D02*
X43069345Y-28027380D01*
X43402678Y-28741666D01*
X43736011Y-28027380D01*
X43736011Y-29027380D01*
X44116964Y-28027380D02*
X44783630Y-29027380D01*
X44783630Y-28027380D02*
X44116964Y-29027380D01*
X45164583Y-28646428D02*
X45926488Y-28646428D01*
X46402678Y-29027380D02*
X46402678Y-28027380D01*
X46974107Y-29027380D01*
X46974107Y-28027380D01*
X47593154Y-29027380D02*
X47497916Y-28979761D01*
X47450297Y-28932142D01*
X47402678Y-28836904D01*
X47402678Y-28551190D01*
X47450297Y-28455952D01*
X47497916Y-28408333D01*
X47593154Y-28360714D01*
X47736011Y-28360714D01*
X47831250Y-28408333D01*
X47878869Y-28455952D01*
X47926488Y-28551190D01*
X47926488Y-28836904D01*
X47878869Y-28932142D01*
X47831250Y-28979761D01*
X47736011Y-29027380D01*
X47593154Y-29027380D01*
X48831250Y-29027380D02*
X48355059Y-29027380D01*
X48355059Y-28027380D01*
X49164583Y-28503571D02*
X49497916Y-28503571D01*
X49640773Y-29027380D02*
X49164583Y-29027380D01*
X49164583Y-28027380D01*
X49640773Y-28027380D01*
X50069345Y-29027380D02*
X50069345Y-28027380D01*
X50307440Y-28027380D01*
X50450297Y-28075000D01*
X50545535Y-28170238D01*
X50593154Y-28265476D01*
X50640773Y-28455952D01*
X50640773Y-28598809D01*
X50593154Y-28789285D01*
X50545535Y-28884523D01*
X50450297Y-28979761D01*
X50307440Y-29027380D01*
X50069345Y-29027380D01*
%TO.C,MX9*%
X64595535Y-40139880D02*
X64595535Y-39139880D01*
X64928869Y-39854166D01*
X65262202Y-39139880D01*
X65262202Y-40139880D01*
X65643154Y-39139880D02*
X66309821Y-40139880D01*
X66309821Y-39139880D02*
X65643154Y-40139880D01*
X66738392Y-40139880D02*
X66928869Y-40139880D01*
X67024107Y-40092261D01*
X67071726Y-40044642D01*
X67166964Y-39901785D01*
X67214583Y-39711309D01*
X67214583Y-39330357D01*
X67166964Y-39235119D01*
X67119345Y-39187500D01*
X67024107Y-39139880D01*
X66833630Y-39139880D01*
X66738392Y-39187500D01*
X66690773Y-39235119D01*
X66643154Y-39330357D01*
X66643154Y-39568452D01*
X66690773Y-39663690D01*
X66738392Y-39711309D01*
X66833630Y-39758928D01*
X67024107Y-39758928D01*
X67119345Y-39711309D01*
X67166964Y-39663690D01*
X67214583Y-39568452D01*
X62119345Y-29027380D02*
X62119345Y-28027380D01*
X62452678Y-28741666D01*
X62786011Y-28027380D01*
X62786011Y-29027380D01*
X63166964Y-28027380D02*
X63833630Y-29027380D01*
X63833630Y-28027380D02*
X63166964Y-29027380D01*
X64214583Y-28646428D02*
X64976488Y-28646428D01*
X65452678Y-29027380D02*
X65452678Y-28027380D01*
X66024107Y-29027380D01*
X66024107Y-28027380D01*
X66643154Y-29027380D02*
X66547916Y-28979761D01*
X66500297Y-28932142D01*
X66452678Y-28836904D01*
X66452678Y-28551190D01*
X66500297Y-28455952D01*
X66547916Y-28408333D01*
X66643154Y-28360714D01*
X66786011Y-28360714D01*
X66881250Y-28408333D01*
X66928869Y-28455952D01*
X66976488Y-28551190D01*
X66976488Y-28836904D01*
X66928869Y-28932142D01*
X66881250Y-28979761D01*
X66786011Y-29027380D01*
X66643154Y-29027380D01*
X67881250Y-29027380D02*
X67405059Y-29027380D01*
X67405059Y-28027380D01*
X68214583Y-28503571D02*
X68547916Y-28503571D01*
X68690773Y-29027380D02*
X68214583Y-29027380D01*
X68214583Y-28027380D01*
X68690773Y-28027380D01*
X69119345Y-29027380D02*
X69119345Y-28027380D01*
X69357440Y-28027380D01*
X69500297Y-28075000D01*
X69595535Y-28170238D01*
X69643154Y-28265476D01*
X69690773Y-28455952D01*
X69690773Y-28598809D01*
X69643154Y-28789285D01*
X69595535Y-28884523D01*
X69500297Y-28979761D01*
X69357440Y-29027380D01*
X69119345Y-29027380D01*
%TO.C,MX8*%
X83645535Y-40139880D02*
X83645535Y-39139880D01*
X83978869Y-39854166D01*
X84312202Y-39139880D01*
X84312202Y-40139880D01*
X84693154Y-39139880D02*
X85359821Y-40139880D01*
X85359821Y-39139880D02*
X84693154Y-40139880D01*
X85883630Y-39568452D02*
X85788392Y-39520833D01*
X85740773Y-39473214D01*
X85693154Y-39377976D01*
X85693154Y-39330357D01*
X85740773Y-39235119D01*
X85788392Y-39187500D01*
X85883630Y-39139880D01*
X86074107Y-39139880D01*
X86169345Y-39187500D01*
X86216964Y-39235119D01*
X86264583Y-39330357D01*
X86264583Y-39377976D01*
X86216964Y-39473214D01*
X86169345Y-39520833D01*
X86074107Y-39568452D01*
X85883630Y-39568452D01*
X85788392Y-39616071D01*
X85740773Y-39663690D01*
X85693154Y-39758928D01*
X85693154Y-39949404D01*
X85740773Y-40044642D01*
X85788392Y-40092261D01*
X85883630Y-40139880D01*
X86074107Y-40139880D01*
X86169345Y-40092261D01*
X86216964Y-40044642D01*
X86264583Y-39949404D01*
X86264583Y-39758928D01*
X86216964Y-39663690D01*
X86169345Y-39616071D01*
X86074107Y-39568452D01*
X81169345Y-29027380D02*
X81169345Y-28027380D01*
X81502678Y-28741666D01*
X81836011Y-28027380D01*
X81836011Y-29027380D01*
X82216964Y-28027380D02*
X82883630Y-29027380D01*
X82883630Y-28027380D02*
X82216964Y-29027380D01*
X83264583Y-28646428D02*
X84026488Y-28646428D01*
X84502678Y-29027380D02*
X84502678Y-28027380D01*
X85074107Y-29027380D01*
X85074107Y-28027380D01*
X85693154Y-29027380D02*
X85597916Y-28979761D01*
X85550297Y-28932142D01*
X85502678Y-28836904D01*
X85502678Y-28551190D01*
X85550297Y-28455952D01*
X85597916Y-28408333D01*
X85693154Y-28360714D01*
X85836011Y-28360714D01*
X85931250Y-28408333D01*
X85978869Y-28455952D01*
X86026488Y-28551190D01*
X86026488Y-28836904D01*
X85978869Y-28932142D01*
X85931250Y-28979761D01*
X85836011Y-29027380D01*
X85693154Y-29027380D01*
X86931250Y-29027380D02*
X86455059Y-29027380D01*
X86455059Y-28027380D01*
X87264583Y-28503571D02*
X87597916Y-28503571D01*
X87740773Y-29027380D02*
X87264583Y-29027380D01*
X87264583Y-28027380D01*
X87740773Y-28027380D01*
X88169345Y-29027380D02*
X88169345Y-28027380D01*
X88407440Y-28027380D01*
X88550297Y-28075000D01*
X88645535Y-28170238D01*
X88693154Y-28265476D01*
X88740773Y-28455952D01*
X88740773Y-28598809D01*
X88693154Y-28789285D01*
X88645535Y-28884523D01*
X88550297Y-28979761D01*
X88407440Y-29027380D01*
X88169345Y-29027380D01*
%TO.C,MX7*%
X102695535Y-40139880D02*
X102695535Y-39139880D01*
X103028869Y-39854166D01*
X103362202Y-39139880D01*
X103362202Y-40139880D01*
X103743154Y-39139880D02*
X104409821Y-40139880D01*
X104409821Y-39139880D02*
X103743154Y-40139880D01*
X104695535Y-39139880D02*
X105362202Y-39139880D01*
X104933630Y-40139880D01*
X100219345Y-29027380D02*
X100219345Y-28027380D01*
X100552678Y-28741666D01*
X100886011Y-28027380D01*
X100886011Y-29027380D01*
X101266964Y-28027380D02*
X101933630Y-29027380D01*
X101933630Y-28027380D02*
X101266964Y-29027380D01*
X102314583Y-28646428D02*
X103076488Y-28646428D01*
X103552678Y-29027380D02*
X103552678Y-28027380D01*
X104124107Y-29027380D01*
X104124107Y-28027380D01*
X104743154Y-29027380D02*
X104647916Y-28979761D01*
X104600297Y-28932142D01*
X104552678Y-28836904D01*
X104552678Y-28551190D01*
X104600297Y-28455952D01*
X104647916Y-28408333D01*
X104743154Y-28360714D01*
X104886011Y-28360714D01*
X104981250Y-28408333D01*
X105028869Y-28455952D01*
X105076488Y-28551190D01*
X105076488Y-28836904D01*
X105028869Y-28932142D01*
X104981250Y-28979761D01*
X104886011Y-29027380D01*
X104743154Y-29027380D01*
X105981250Y-29027380D02*
X105505059Y-29027380D01*
X105505059Y-28027380D01*
X106314583Y-28503571D02*
X106647916Y-28503571D01*
X106790773Y-29027380D02*
X106314583Y-29027380D01*
X106314583Y-28027380D01*
X106790773Y-28027380D01*
X107219345Y-29027380D02*
X107219345Y-28027380D01*
X107457440Y-28027380D01*
X107600297Y-28075000D01*
X107695535Y-28170238D01*
X107743154Y-28265476D01*
X107790773Y-28455952D01*
X107790773Y-28598809D01*
X107743154Y-28789285D01*
X107695535Y-28884523D01*
X107600297Y-28979761D01*
X107457440Y-29027380D01*
X107219345Y-29027380D01*
%TO.C,MX6*%
X124126785Y-40139880D02*
X124126785Y-39139880D01*
X124460119Y-39854166D01*
X124793452Y-39139880D01*
X124793452Y-40139880D01*
X125174404Y-39139880D02*
X125841071Y-40139880D01*
X125841071Y-39139880D02*
X125174404Y-40139880D01*
X126650595Y-39139880D02*
X126460119Y-39139880D01*
X126364880Y-39187500D01*
X126317261Y-39235119D01*
X126222023Y-39377976D01*
X126174404Y-39568452D01*
X126174404Y-39949404D01*
X126222023Y-40044642D01*
X126269642Y-40092261D01*
X126364880Y-40139880D01*
X126555357Y-40139880D01*
X126650595Y-40092261D01*
X126698214Y-40044642D01*
X126745833Y-39949404D01*
X126745833Y-39711309D01*
X126698214Y-39616071D01*
X126650595Y-39568452D01*
X126555357Y-39520833D01*
X126364880Y-39520833D01*
X126269642Y-39568452D01*
X126222023Y-39616071D01*
X126174404Y-39711309D01*
X121650595Y-29027380D02*
X121650595Y-28027380D01*
X121983928Y-28741666D01*
X122317261Y-28027380D01*
X122317261Y-29027380D01*
X122698214Y-28027380D02*
X123364880Y-29027380D01*
X123364880Y-28027380D02*
X122698214Y-29027380D01*
X123745833Y-28646428D02*
X124507738Y-28646428D01*
X124983928Y-29027380D02*
X124983928Y-28027380D01*
X125555357Y-29027380D01*
X125555357Y-28027380D01*
X126174404Y-29027380D02*
X126079166Y-28979761D01*
X126031547Y-28932142D01*
X125983928Y-28836904D01*
X125983928Y-28551190D01*
X126031547Y-28455952D01*
X126079166Y-28408333D01*
X126174404Y-28360714D01*
X126317261Y-28360714D01*
X126412500Y-28408333D01*
X126460119Y-28455952D01*
X126507738Y-28551190D01*
X126507738Y-28836904D01*
X126460119Y-28932142D01*
X126412500Y-28979761D01*
X126317261Y-29027380D01*
X126174404Y-29027380D01*
X127412500Y-29027380D02*
X126936309Y-29027380D01*
X126936309Y-28027380D01*
X127745833Y-28503571D02*
X128079166Y-28503571D01*
X128222023Y-29027380D02*
X127745833Y-29027380D01*
X127745833Y-28027380D01*
X128222023Y-28027380D01*
X128650595Y-29027380D02*
X128650595Y-28027380D01*
X128888690Y-28027380D01*
X129031547Y-28075000D01*
X129126785Y-28170238D01*
X129174404Y-28265476D01*
X129222023Y-28455952D01*
X129222023Y-28598809D01*
X129174404Y-28789285D01*
X129126785Y-28884523D01*
X129031547Y-28979761D01*
X128888690Y-29027380D01*
X128650595Y-29027380D01*
%TO.C,MX5*%
X143176785Y-40139880D02*
X143176785Y-39139880D01*
X143510119Y-39854166D01*
X143843452Y-39139880D01*
X143843452Y-40139880D01*
X144224404Y-39139880D02*
X144891071Y-40139880D01*
X144891071Y-39139880D02*
X144224404Y-40139880D01*
X145748214Y-39139880D02*
X145272023Y-39139880D01*
X145224404Y-39616071D01*
X145272023Y-39568452D01*
X145367261Y-39520833D01*
X145605357Y-39520833D01*
X145700595Y-39568452D01*
X145748214Y-39616071D01*
X145795833Y-39711309D01*
X145795833Y-39949404D01*
X145748214Y-40044642D01*
X145700595Y-40092261D01*
X145605357Y-40139880D01*
X145367261Y-40139880D01*
X145272023Y-40092261D01*
X145224404Y-40044642D01*
X140700595Y-29027380D02*
X140700595Y-28027380D01*
X141033928Y-28741666D01*
X141367261Y-28027380D01*
X141367261Y-29027380D01*
X141748214Y-28027380D02*
X142414880Y-29027380D01*
X142414880Y-28027380D02*
X141748214Y-29027380D01*
X142795833Y-28646428D02*
X143557738Y-28646428D01*
X144033928Y-29027380D02*
X144033928Y-28027380D01*
X144605357Y-29027380D01*
X144605357Y-28027380D01*
X145224404Y-29027380D02*
X145129166Y-28979761D01*
X145081547Y-28932142D01*
X145033928Y-28836904D01*
X145033928Y-28551190D01*
X145081547Y-28455952D01*
X145129166Y-28408333D01*
X145224404Y-28360714D01*
X145367261Y-28360714D01*
X145462500Y-28408333D01*
X145510119Y-28455952D01*
X145557738Y-28551190D01*
X145557738Y-28836904D01*
X145510119Y-28932142D01*
X145462500Y-28979761D01*
X145367261Y-29027380D01*
X145224404Y-29027380D01*
X146462500Y-29027380D02*
X145986309Y-29027380D01*
X145986309Y-28027380D01*
X146795833Y-28503571D02*
X147129166Y-28503571D01*
X147272023Y-29027380D02*
X146795833Y-29027380D01*
X146795833Y-28027380D01*
X147272023Y-28027380D01*
X147700595Y-29027380D02*
X147700595Y-28027380D01*
X147938690Y-28027380D01*
X148081547Y-28075000D01*
X148176785Y-28170238D01*
X148224404Y-28265476D01*
X148272023Y-28455952D01*
X148272023Y-28598809D01*
X148224404Y-28789285D01*
X148176785Y-28884523D01*
X148081547Y-28979761D01*
X147938690Y-29027380D01*
X147700595Y-29027380D01*
%TO.C,MX4*%
X162226785Y-36964880D02*
X162226785Y-35964880D01*
X162560119Y-36679166D01*
X162893452Y-35964880D01*
X162893452Y-36964880D01*
X163274404Y-35964880D02*
X163941071Y-36964880D01*
X163941071Y-35964880D02*
X163274404Y-36964880D01*
X164750595Y-36298214D02*
X164750595Y-36964880D01*
X164512500Y-35917261D02*
X164274404Y-36631547D01*
X164893452Y-36631547D01*
X159750595Y-25852380D02*
X159750595Y-24852380D01*
X160083928Y-25566666D01*
X160417261Y-24852380D01*
X160417261Y-25852380D01*
X160798214Y-24852380D02*
X161464880Y-25852380D01*
X161464880Y-24852380D02*
X160798214Y-25852380D01*
X161845833Y-25471428D02*
X162607738Y-25471428D01*
X163083928Y-25852380D02*
X163083928Y-24852380D01*
X163655357Y-25852380D01*
X163655357Y-24852380D01*
X164274404Y-25852380D02*
X164179166Y-25804761D01*
X164131547Y-25757142D01*
X164083928Y-25661904D01*
X164083928Y-25376190D01*
X164131547Y-25280952D01*
X164179166Y-25233333D01*
X164274404Y-25185714D01*
X164417261Y-25185714D01*
X164512500Y-25233333D01*
X164560119Y-25280952D01*
X164607738Y-25376190D01*
X164607738Y-25661904D01*
X164560119Y-25757142D01*
X164512500Y-25804761D01*
X164417261Y-25852380D01*
X164274404Y-25852380D01*
X165512500Y-25852380D02*
X165036309Y-25852380D01*
X165036309Y-24852380D01*
X165845833Y-25328571D02*
X166179166Y-25328571D01*
X166322023Y-25852380D02*
X165845833Y-25852380D01*
X165845833Y-24852380D01*
X166322023Y-24852380D01*
X166750595Y-25852380D02*
X166750595Y-24852380D01*
X166988690Y-24852380D01*
X167131547Y-24900000D01*
X167226785Y-24995238D01*
X167274404Y-25090476D01*
X167322023Y-25280952D01*
X167322023Y-25423809D01*
X167274404Y-25614285D01*
X167226785Y-25709523D01*
X167131547Y-25804761D01*
X166988690Y-25852380D01*
X166750595Y-25852380D01*
%TO.C,MX3*%
X181276785Y-34583630D02*
X181276785Y-33583630D01*
X181610119Y-34297916D01*
X181943452Y-33583630D01*
X181943452Y-34583630D01*
X182324404Y-33583630D02*
X182991071Y-34583630D01*
X182991071Y-33583630D02*
X182324404Y-34583630D01*
X183276785Y-33583630D02*
X183895833Y-33583630D01*
X183562500Y-33964583D01*
X183705357Y-33964583D01*
X183800595Y-34012202D01*
X183848214Y-34059821D01*
X183895833Y-34155059D01*
X183895833Y-34393154D01*
X183848214Y-34488392D01*
X183800595Y-34536011D01*
X183705357Y-34583630D01*
X183419642Y-34583630D01*
X183324404Y-34536011D01*
X183276785Y-34488392D01*
X178800595Y-23471130D02*
X178800595Y-22471130D01*
X179133928Y-23185416D01*
X179467261Y-22471130D01*
X179467261Y-23471130D01*
X179848214Y-22471130D02*
X180514880Y-23471130D01*
X180514880Y-22471130D02*
X179848214Y-23471130D01*
X180895833Y-23090178D02*
X181657738Y-23090178D01*
X182133928Y-23471130D02*
X182133928Y-22471130D01*
X182705357Y-23471130D01*
X182705357Y-22471130D01*
X183324404Y-23471130D02*
X183229166Y-23423511D01*
X183181547Y-23375892D01*
X183133928Y-23280654D01*
X183133928Y-22994940D01*
X183181547Y-22899702D01*
X183229166Y-22852083D01*
X183324404Y-22804464D01*
X183467261Y-22804464D01*
X183562500Y-22852083D01*
X183610119Y-22899702D01*
X183657738Y-22994940D01*
X183657738Y-23280654D01*
X183610119Y-23375892D01*
X183562500Y-23423511D01*
X183467261Y-23471130D01*
X183324404Y-23471130D01*
X184562500Y-23471130D02*
X184086309Y-23471130D01*
X184086309Y-22471130D01*
X184895833Y-22947321D02*
X185229166Y-22947321D01*
X185372023Y-23471130D02*
X184895833Y-23471130D01*
X184895833Y-22471130D01*
X185372023Y-22471130D01*
X185800595Y-23471130D02*
X185800595Y-22471130D01*
X186038690Y-22471130D01*
X186181547Y-22518750D01*
X186276785Y-22613988D01*
X186324404Y-22709226D01*
X186372023Y-22899702D01*
X186372023Y-23042559D01*
X186324404Y-23233035D01*
X186276785Y-23328273D01*
X186181547Y-23423511D01*
X186038690Y-23471130D01*
X185800595Y-23471130D01*
%TO.C,MX2*%
X200326785Y-36964880D02*
X200326785Y-35964880D01*
X200660119Y-36679166D01*
X200993452Y-35964880D01*
X200993452Y-36964880D01*
X201374404Y-35964880D02*
X202041071Y-36964880D01*
X202041071Y-35964880D02*
X201374404Y-36964880D01*
X202374404Y-36060119D02*
X202422023Y-36012500D01*
X202517261Y-35964880D01*
X202755357Y-35964880D01*
X202850595Y-36012500D01*
X202898214Y-36060119D01*
X202945833Y-36155357D01*
X202945833Y-36250595D01*
X202898214Y-36393452D01*
X202326785Y-36964880D01*
X202945833Y-36964880D01*
X197850595Y-25852380D02*
X197850595Y-24852380D01*
X198183928Y-25566666D01*
X198517261Y-24852380D01*
X198517261Y-25852380D01*
X198898214Y-24852380D02*
X199564880Y-25852380D01*
X199564880Y-24852380D02*
X198898214Y-25852380D01*
X199945833Y-25471428D02*
X200707738Y-25471428D01*
X201183928Y-25852380D02*
X201183928Y-24852380D01*
X201755357Y-25852380D01*
X201755357Y-24852380D01*
X202374404Y-25852380D02*
X202279166Y-25804761D01*
X202231547Y-25757142D01*
X202183928Y-25661904D01*
X202183928Y-25376190D01*
X202231547Y-25280952D01*
X202279166Y-25233333D01*
X202374404Y-25185714D01*
X202517261Y-25185714D01*
X202612500Y-25233333D01*
X202660119Y-25280952D01*
X202707738Y-25376190D01*
X202707738Y-25661904D01*
X202660119Y-25757142D01*
X202612500Y-25804761D01*
X202517261Y-25852380D01*
X202374404Y-25852380D01*
X203612500Y-25852380D02*
X203136309Y-25852380D01*
X203136309Y-24852380D01*
X203945833Y-25328571D02*
X204279166Y-25328571D01*
X204422023Y-25852380D02*
X203945833Y-25852380D01*
X203945833Y-24852380D01*
X204422023Y-24852380D01*
X204850595Y-25852380D02*
X204850595Y-24852380D01*
X205088690Y-24852380D01*
X205231547Y-24900000D01*
X205326785Y-24995238D01*
X205374404Y-25090476D01*
X205422023Y-25280952D01*
X205422023Y-25423809D01*
X205374404Y-25614285D01*
X205326785Y-25709523D01*
X205231547Y-25804761D01*
X205088690Y-25852380D01*
X204850595Y-25852380D01*
%TO.C,MX1*%
X219376785Y-39346130D02*
X219376785Y-38346130D01*
X219710119Y-39060416D01*
X220043452Y-38346130D01*
X220043452Y-39346130D01*
X220424404Y-38346130D02*
X221091071Y-39346130D01*
X221091071Y-38346130D02*
X220424404Y-39346130D01*
X221995833Y-39346130D02*
X221424404Y-39346130D01*
X221710119Y-39346130D02*
X221710119Y-38346130D01*
X221614880Y-38488988D01*
X221519642Y-38584226D01*
X221424404Y-38631845D01*
X216900595Y-28233630D02*
X216900595Y-27233630D01*
X217233928Y-27947916D01*
X217567261Y-27233630D01*
X217567261Y-28233630D01*
X217948214Y-27233630D02*
X218614880Y-28233630D01*
X218614880Y-27233630D02*
X217948214Y-28233630D01*
X218995833Y-27852678D02*
X219757738Y-27852678D01*
X220233928Y-28233630D02*
X220233928Y-27233630D01*
X220805357Y-28233630D01*
X220805357Y-27233630D01*
X221424404Y-28233630D02*
X221329166Y-28186011D01*
X221281547Y-28138392D01*
X221233928Y-28043154D01*
X221233928Y-27757440D01*
X221281547Y-27662202D01*
X221329166Y-27614583D01*
X221424404Y-27566964D01*
X221567261Y-27566964D01*
X221662500Y-27614583D01*
X221710119Y-27662202D01*
X221757738Y-27757440D01*
X221757738Y-28043154D01*
X221710119Y-28138392D01*
X221662500Y-28186011D01*
X221567261Y-28233630D01*
X221424404Y-28233630D01*
X222662500Y-28233630D02*
X222186309Y-28233630D01*
X222186309Y-27233630D01*
X222995833Y-27709821D02*
X223329166Y-27709821D01*
X223472023Y-28233630D02*
X222995833Y-28233630D01*
X222995833Y-27233630D01*
X223472023Y-27233630D01*
X223900595Y-28233630D02*
X223900595Y-27233630D01*
X224138690Y-27233630D01*
X224281547Y-27281250D01*
X224376785Y-27376488D01*
X224424404Y-27471726D01*
X224472023Y-27662202D01*
X224472023Y-27805059D01*
X224424404Y-27995535D01*
X224376785Y-28090773D01*
X224281547Y-28186011D01*
X224138690Y-28233630D01*
X223900595Y-28233630D01*
%TD*%
M02*
