M48
; DRILL file {KiCad (5.1.9-0-10_14)} date Thursday, April 15, 2021 at 10:48:32 PM
; FORMAT={-:-/ absolute / inch / decimal}
; #@! TF.CreationDate,2021-04-15T22:48:32-05:00
; #@! TF.GenerationSoftware,Kicad,Pcbnew,(5.1.9-0-10_14)
; #@! TF.FileFunction,NonPlated,1,2,NPTH
FMAT,2
INCH
T1C0.0118
T2C0.0120
T3C0.0866
%
G90
G05
T3
X2.2204Y-1.8125
X2.2204Y-3.3125
X5.3132Y-1.8125
X5.3132Y-3.3125
X8.3123Y-1.7812
X8.3123Y-3.2812
X8.9371Y-4.4062
T1
G00X1.5367Y-1.1914
M15
G01X1.5367Y-1.6836
M16
G05
G00X1.5367Y-1.9414
M15
G01X1.5367Y-2.4336
M16
G05
G00X1.5367Y-2.6914
M15
G01X1.5367Y-3.1836
M16
G05
G00X1.5367Y-3.4414
M15
G01X1.5367Y-3.9336
M16
G05
G00X1.5367Y-1.1914
M15
G01X1.5741Y-1.1914
M16
G05
G00X1.5367Y-1.6836
M15
G01X1.5741Y-1.6836
M16
G05
G00X1.5367Y-1.9414
M15
G01X1.5741Y-1.9414
M16
G05
G00X1.5367Y-2.4336
M15
G01X1.5741Y-2.4336
M16
G05
G00X1.5367Y-2.6914
M15
G01X1.5741Y-2.6914
M16
G05
G00X1.5367Y-3.1836
M15
G01X1.5741Y-3.1836
M16
G05
G00X1.5367Y-3.4414
M15
G01X1.5741Y-3.4414
M16
G05
G00X1.5367Y-3.9336
M15
G01X1.5741Y-3.9336
M16
G05
G00X1.5741Y-1.1619
M15
G01X1.5741Y-1.1914
M16
G05
G00X1.5741Y-1.6836
M15
G01X1.5741Y-1.7131
M16
G05
G00X1.5741Y-1.9119
M15
G01X1.5741Y-1.9414
M16
G05
G00X1.5741Y-2.4336
M15
G01X1.5741Y-2.4631
M16
G05
G00X1.5741Y-2.6619
M15
G01X1.5741Y-2.6914
M16
G05
G00X1.5741Y-3.1836
M15
G01X1.5741Y-3.2131
M16
G05
G00X1.5741Y-3.4119
M15
G01X1.5741Y-3.4414
M16
G05
G00X1.5741Y-3.9336
M15
G01X1.5741Y-3.9631
M16
G05
G00X1.5741Y-1.1619
M15
G01X2.1134Y-1.1619
M16
G05
G00X1.5741Y-1.7131
M15
G01X2.1134Y-1.7131
M16
G05
G00X1.5741Y-1.9119
M15
G01X2.1134Y-1.9119
M16
G05
G00X1.5741Y-2.4631
M15
G01X2.1134Y-2.4631
M16
G05
G00X1.5741Y-2.6619
M15
G01X2.1134Y-2.6619
M16
G05
G00X1.5741Y-3.2131
M15
G01X2.1134Y-3.2131
M16
G05
G00X1.5741Y-3.4119
M15
G01X2.1134Y-3.4119
M16
G05
G00X1.5741Y-3.9631
M15
G01X2.1134Y-3.9631
M16
G05
G00X2.1134Y-1.1619
M15
G01X2.1134Y-1.1914
M16
G05
G00X2.1134Y-1.6836
M15
G01X2.1134Y-1.7131
M16
G05
G00X2.1134Y-1.9119
M15
G01X2.1134Y-1.9414
M16
G05
G00X2.1134Y-2.4336
M15
G01X2.1134Y-2.4631
M16
G05
G00X2.1134Y-2.6619
M15
G01X2.1134Y-2.6914
M16
G05
G00X2.1134Y-3.1836
M15
G01X2.1134Y-3.2131
M16
G05
G00X2.1134Y-3.4119
M15
G01X2.1134Y-3.4414
M16
G05
G00X2.1134Y-3.9336
M15
G01X2.1134Y-3.9631
M16
G05
G00X2.1134Y-1.1914
M15
G01X2.1508Y-1.1914
M16
G05
G00X2.1134Y-1.6836
M15
G01X2.1508Y-1.6836
M16
G05
G00X2.1134Y-1.9414
M15
G01X2.1508Y-1.9414
M16
G05
G00X2.1134Y-2.4336
M15
G01X2.1508Y-2.4336
M16
G05
G00X2.1134Y-2.6914
M15
G01X2.1508Y-2.6914
M16
G05
G00X2.1134Y-3.1836
M15
G01X2.1508Y-3.1836
M16
G05
G00X2.1134Y-3.4414
M15
G01X2.1508Y-3.4414
M16
G05
G00X2.1134Y-3.9336
M15
G01X2.1508Y-3.9336
M16
G05
G00X2.1508Y-1.1914
M15
G01X2.1508Y-1.6836
M16
G05
G00X2.1508Y-1.9414
M15
G01X2.1508Y-2.4336
M16
G05
G00X2.1508Y-2.6914
M15
G01X2.1508Y-3.1836
M16
G05
G00X2.1508Y-3.4414
M15
G01X2.1508Y-3.9336
M16
G05
G00X2.2867Y-1.1914
M15
G01X2.2867Y-1.6836
M16
G05
G00X2.2867Y-1.9414
M15
G01X2.2867Y-2.4336
M16
G05
G00X2.2867Y-2.6914
M15
G01X2.2867Y-3.1836
M16
G05
G00X2.2867Y-3.4414
M15
G01X2.2867Y-3.9336
M16
G05
G00X2.2867Y-1.1914
M15
G01X2.3241Y-1.1914
M16
G05
G00X2.2867Y-1.6836
M15
G01X2.3241Y-1.6836
M16
G05
G00X2.2867Y-1.9414
M15
G01X2.3241Y-1.9414
M16
G05
G00X2.2867Y-2.4336
M15
G01X2.3241Y-2.4336
M16
G05
G00X2.2867Y-2.6914
M15
G01X2.3241Y-2.6914
M16
G05
G00X2.2867Y-3.1836
M15
G01X2.3241Y-3.1836
M16
G05
G00X2.2867Y-3.4414
M15
G01X2.3241Y-3.4414
M16
G05
G00X2.2867Y-3.9336
M15
G01X2.3241Y-3.9336
M16
G05
G00X2.3241Y-1.1619
M15
G01X2.3241Y-1.1914
M16
G05
G00X2.3241Y-1.6836
M15
G01X2.3241Y-1.7131
M16
G05
G00X2.3241Y-1.9119
M15
G01X2.3241Y-1.9414
M16
G05
G00X2.3241Y-2.4336
M15
G01X2.3241Y-2.4631
M16
G05
G00X2.3241Y-2.6619
M15
G01X2.3241Y-2.6914
M16
G05
G00X2.3241Y-3.1836
M15
G01X2.3241Y-3.2131
M16
G05
G00X2.3241Y-3.4119
M15
G01X2.3241Y-3.4414
M16
G05
G00X2.3241Y-3.9336
M15
G01X2.3241Y-3.9631
M16
G05
G00X2.3241Y-1.1619
M15
G01X2.8634Y-1.1619
M16
G05
G00X2.3241Y-1.7131
M15
G01X2.8634Y-1.7131
M16
G05
G00X2.3241Y-1.9119
M15
G01X2.8634Y-1.9119
M16
G05
G00X2.3241Y-2.4631
M15
G01X2.8634Y-2.4631
M16
G05
G00X2.3241Y-2.6619
M15
G01X2.8634Y-2.6619
M16
G05
G00X2.3241Y-3.2131
M15
G01X2.8634Y-3.2131
M16
G05
G00X2.3241Y-3.4119
M15
G01X2.8634Y-3.4119
M16
G05
G00X2.3241Y-3.9631
M15
G01X2.8634Y-3.9631
M16
G05
G00X2.8634Y-1.1619
M15
G01X2.8634Y-1.1914
M16
G05
G00X2.8634Y-1.6836
M15
G01X2.8634Y-1.7131
M16
G05
G00X2.8634Y-1.9119
M15
G01X2.8634Y-1.9414
M16
G05
G00X2.8634Y-2.4336
M15
G01X2.8634Y-2.4631
M16
G05
G00X2.8634Y-2.6619
M15
G01X2.8634Y-2.6914
M16
G05
G00X2.8634Y-3.1836
M15
G01X2.8634Y-3.2131
M16
G05
G00X2.8634Y-3.4119
M15
G01X2.8634Y-3.4414
M16
G05
G00X2.8634Y-3.9336
M15
G01X2.8634Y-3.9631
M16
G05
G00X2.8634Y-1.1914
M15
G01X2.9008Y-1.1914
M16
G05
G00X2.8634Y-1.6836
M15
G01X2.9008Y-1.6836
M16
G05
G00X2.8634Y-1.9414
M15
G01X2.9008Y-1.9414
M16
G05
G00X2.8634Y-2.4336
M15
G01X2.9008Y-2.4336
M16
G05
G00X2.8634Y-2.6914
M15
G01X2.9008Y-2.6914
M16
G05
G00X2.8634Y-3.1836
M15
G01X2.9008Y-3.1836
M16
G05
G00X2.8634Y-3.4414
M15
G01X2.9008Y-3.4414
M16
G05
G00X2.8634Y-3.9336
M15
G01X2.9008Y-3.9336
M16
G05
G00X2.9008Y-1.1914
M15
G01X2.9008Y-1.6836
M16
G05
G00X2.9008Y-1.9414
M15
G01X2.9008Y-2.4336
M16
G05
G00X2.9008Y-2.6914
M15
G01X2.9008Y-3.1836
M16
G05
G00X2.9008Y-3.4414
M15
G01X2.9008Y-3.9336
M16
G05
G00X3.0367Y-1.1914
M15
G01X3.0367Y-1.6836
M16
G05
G00X3.0367Y-1.9414
M15
G01X3.0367Y-2.4336
M16
G05
G00X3.0367Y-2.6914
M15
G01X3.0367Y-3.1836
M16
G05
G00X3.0367Y-3.4414
M15
G01X3.0367Y-3.9336
M16
G05
G00X3.0367Y-1.1914
M15
G01X3.0741Y-1.1914
M16
G05
G00X3.0367Y-1.6836
M15
G01X3.0741Y-1.6836
M16
G05
G00X3.0367Y-1.9414
M15
G01X3.0741Y-1.9414
M16
G05
G00X3.0367Y-2.4336
M15
G01X3.0741Y-2.4336
M16
G05
G00X3.0367Y-2.6914
M15
G01X3.0741Y-2.6914
M16
G05
G00X3.0367Y-3.1836
M15
G01X3.0741Y-3.1836
M16
G05
G00X3.0367Y-3.4414
M15
G01X3.0741Y-3.4414
M16
G05
G00X3.0367Y-3.9336
M15
G01X3.0741Y-3.9336
M16
G05
G00X3.0741Y-1.1619
M15
G01X3.0741Y-1.1914
M16
G05
G00X3.0741Y-1.6836
M15
G01X3.0741Y-1.7131
M16
G05
G00X3.0741Y-1.9119
M15
G01X3.0741Y-1.9414
M16
G05
G00X3.0741Y-2.4336
M15
G01X3.0741Y-2.4631
M16
G05
G00X3.0741Y-2.6619
M15
G01X3.0741Y-2.6914
M16
G05
G00X3.0741Y-3.1836
M15
G01X3.0741Y-3.2131
M16
G05
G00X3.0741Y-3.4119
M15
G01X3.0741Y-3.4414
M16
G05
G00X3.0741Y-3.9336
M15
G01X3.0741Y-3.9631
M16
G05
G00X3.0741Y-1.1619
M15
G01X3.6134Y-1.1619
M16
G05
G00X3.0741Y-1.7131
M15
G01X3.6134Y-1.7131
M16
G05
G00X3.0741Y-1.9119
M15
G01X3.6134Y-1.9119
M16
G05
G00X3.0741Y-2.4631
M15
G01X3.6134Y-2.4631
M16
G05
G00X3.0741Y-2.6619
M15
G01X3.6134Y-2.6619
M16
G05
G00X3.0741Y-3.2131
M15
G01X3.6134Y-3.2131
M16
G05
G00X3.0741Y-3.4119
M15
G01X3.6134Y-3.4119
M16
G05
G00X3.0741Y-3.9631
M15
G01X3.6134Y-3.9631
M16
G05
G00X3.6134Y-1.1619
M15
G01X3.6134Y-1.1914
M16
G05
G00X3.6134Y-1.6836
M15
G01X3.6134Y-1.7131
M16
G05
G00X3.6134Y-1.9119
M15
G01X3.6134Y-1.9414
M16
G05
G00X3.6134Y-2.4336
M15
G01X3.6134Y-2.4631
M16
G05
G00X3.6134Y-2.6619
M15
G01X3.6134Y-2.6914
M16
G05
G00X3.6134Y-3.1836
M15
G01X3.6134Y-3.2131
M16
G05
G00X3.6134Y-3.4119
M15
G01X3.6134Y-3.4414
M16
G05
G00X3.6134Y-3.9336
M15
G01X3.6134Y-3.9631
M16
G05
G00X3.6134Y-1.1914
M15
G01X3.6508Y-1.1914
M16
G05
G00X3.6134Y-1.6836
M15
G01X3.6508Y-1.6836
M16
G05
G00X3.6134Y-1.9414
M15
G01X3.6508Y-1.9414
M16
G05
G00X3.6134Y-2.4336
M15
G01X3.6508Y-2.4336
M16
G05
G00X3.6134Y-2.6914
M15
G01X3.6508Y-2.6914
M16
G05
G00X3.6134Y-3.1836
M15
G01X3.6508Y-3.1836
M16
G05
G00X3.6134Y-3.4414
M15
G01X3.6508Y-3.4414
M16
G05
G00X3.6134Y-3.9336
M15
G01X3.6508Y-3.9336
M16
G05
G00X3.6508Y-1.1914
M15
G01X3.6508Y-1.6836
M16
G05
G00X3.6508Y-1.9414
M15
G01X3.6508Y-2.4336
M16
G05
G00X3.6508Y-2.6914
M15
G01X3.6508Y-3.1836
M16
G05
G00X3.6508Y-3.4414
M15
G01X3.6508Y-3.9336
M16
G05
G00X3.7867Y-1.1914
M15
G01X3.7867Y-1.6836
M16
G05
G00X3.7867Y-1.9414
M15
G01X3.7867Y-2.4336
M16
G05
G00X3.7867Y-2.6914
M15
G01X3.7867Y-3.1836
M16
G05
G00X3.7867Y-3.4414
M15
G01X3.7867Y-3.9336
M16
G05
G00X3.7867Y-1.1914
M15
G01X3.8241Y-1.1914
M16
G05
G00X3.7867Y-1.6836
M15
G01X3.8241Y-1.6836
M16
G05
G00X3.7867Y-1.9414
M15
G01X3.8241Y-1.9414
M16
G05
G00X3.7867Y-2.4336
M15
G01X3.8241Y-2.4336
M16
G05
G00X3.7867Y-2.6914
M15
G01X3.8241Y-2.6914
M16
G05
G00X3.7867Y-3.1836
M15
G01X3.8241Y-3.1836
M16
G05
G00X3.7867Y-3.4414
M15
G01X3.8241Y-3.4414
M16
G05
G00X3.7867Y-3.9336
M15
G01X3.8241Y-3.9336
M16
G05
G00X3.8241Y-1.1619
M15
G01X3.8241Y-1.1914
M16
G05
G00X3.8241Y-1.6836
M15
G01X3.8241Y-1.7131
M16
G05
G00X3.8241Y-1.9119
M15
G01X3.8241Y-1.9414
M16
G05
G00X3.8241Y-2.4336
M15
G01X3.8241Y-2.4631
M16
G05
G00X3.8241Y-2.6619
M15
G01X3.8241Y-2.6914
M16
G05
G00X3.8241Y-3.1836
M15
G01X3.8241Y-3.2131
M16
G05
G00X3.8241Y-3.4119
M15
G01X3.8241Y-3.4414
M16
G05
G00X3.8241Y-3.9336
M15
G01X3.8241Y-3.9631
M16
G05
G00X3.8241Y-1.1619
M15
G01X4.3634Y-1.1619
M16
G05
G00X3.8241Y-1.7131
M15
G01X4.3634Y-1.7131
M16
G05
G00X3.8241Y-1.9119
M15
G01X4.3634Y-1.9119
M16
G05
G00X3.8241Y-2.4631
M15
G01X4.3634Y-2.4631
M16
G05
G00X3.8241Y-2.6619
M15
G01X4.3634Y-2.6619
M16
G05
G00X3.8241Y-3.2131
M15
G01X4.3634Y-3.2131
M16
G05
G00X3.8241Y-3.4119
M15
G01X4.3634Y-3.4119
M16
G05
G00X3.8241Y-3.9631
M15
G01X4.3634Y-3.9631
M16
G05
G00X4.3634Y-1.1619
M15
G01X4.3634Y-1.1914
M16
G05
G00X4.3634Y-1.6836
M15
G01X4.3634Y-1.7131
M16
G05
G00X4.3634Y-1.9119
M15
G01X4.3634Y-1.9414
M16
G05
G00X4.3634Y-2.4336
M15
G01X4.3634Y-2.4631
M16
G05
G00X4.3634Y-2.6619
M15
G01X4.3634Y-2.6914
M16
G05
G00X4.3634Y-3.1836
M15
G01X4.3634Y-3.2131
M16
G05
G00X4.3634Y-3.4119
M15
G01X4.3634Y-3.4414
M16
G05
G00X4.3634Y-3.9336
M15
G01X4.3634Y-3.9631
M16
G05
G00X4.3634Y-1.1914
M15
G01X4.4008Y-1.1914
M16
G05
G00X4.3634Y-1.6836
M15
G01X4.4008Y-1.6836
M16
G05
G00X4.3634Y-1.9414
M15
G01X4.4008Y-1.9414
M16
G05
G00X4.3634Y-2.4336
M15
G01X4.4008Y-2.4336
M16
G05
G00X4.3634Y-2.6914
M15
G01X4.4008Y-2.6914
M16
G05
G00X4.3634Y-3.1836
M15
G01X4.4008Y-3.1836
M16
G05
G00X4.3634Y-3.4414
M15
G01X4.4008Y-3.4414
M16
G05
G00X4.3634Y-3.9336
M15
G01X4.4008Y-3.9336
M16
G05
G00X4.4008Y-1.1914
M15
G01X4.4008Y-1.6836
M16
G05
G00X4.4008Y-1.9414
M15
G01X4.4008Y-2.4336
M16
G05
G00X4.4008Y-2.6914
M15
G01X4.4008Y-3.1836
M16
G05
G00X4.4008Y-3.4414
M15
G01X4.4008Y-3.9336
M16
G05
G00X4.6304Y-1.1914
M15
G01X4.6304Y-1.6836
M16
G05
G00X4.6304Y-1.9414
M15
G01X4.6304Y-2.4336
M16
G05
G00X4.6304Y-2.6914
M15
G01X4.6304Y-3.1836
M16
G05
G00X4.6304Y-3.4414
M15
G01X4.6304Y-3.9336
M16
G05
G00X4.6304Y-1.1914
M15
G01X4.6678Y-1.1914
M16
G05
G00X4.6304Y-1.6836
M15
G01X4.6678Y-1.6836
M16
G05
G00X4.6304Y-1.9414
M15
G01X4.6678Y-1.9414
M16
G05
G00X4.6304Y-2.4336
M15
G01X4.6678Y-2.4336
M16
G05
G00X4.6304Y-2.6914
M15
G01X4.6678Y-2.6914
M16
G05
G00X4.6304Y-3.1836
M15
G01X4.6678Y-3.1836
M16
G05
G00X4.6304Y-3.4414
M15
G01X4.6678Y-3.4414
M16
G05
G00X4.6304Y-3.9336
M15
G01X4.6678Y-3.9336
M16
G05
G00X4.6678Y-1.1619
M15
G01X4.6678Y-1.1914
M16
G05
G00X4.6678Y-1.6836
M15
G01X4.6678Y-1.7131
M16
G05
G00X4.6678Y-1.9119
M15
G01X4.6678Y-1.9414
M16
G05
G00X4.6678Y-2.4336
M15
G01X4.6678Y-2.4631
M16
G05
G00X4.6678Y-2.6619
M15
G01X4.6678Y-2.6914
M16
G05
G00X4.6678Y-3.1836
M15
G01X4.6678Y-3.2131
M16
G05
G00X4.6678Y-3.4119
M15
G01X4.6678Y-3.4414
M16
G05
G00X4.6678Y-3.9336
M15
G01X4.6678Y-3.9631
M16
G05
G00X4.6678Y-1.1619
M15
G01X5.2072Y-1.1619
M16
G05
G00X4.6678Y-1.7131
M15
G01X5.2072Y-1.7131
M16
G05
G00X4.6678Y-1.9119
M15
G01X5.2072Y-1.9119
M16
G05
G00X4.6678Y-2.4631
M15
G01X5.2072Y-2.4631
M16
G05
G00X4.6678Y-2.6619
M15
G01X5.2072Y-2.6619
M16
G05
G00X4.6678Y-3.2131
M15
G01X5.2072Y-3.2131
M16
G05
G00X4.6678Y-3.4119
M15
G01X5.2072Y-3.4119
M16
G05
G00X4.6678Y-3.9631
M15
G01X5.2072Y-3.9631
M16
G05
G00X5.2072Y-1.1619
M15
G01X5.2072Y-1.1914
M16
G05
G00X5.2072Y-1.6836
M15
G01X5.2072Y-1.7131
M16
G05
G00X5.2072Y-1.9119
M15
G01X5.2072Y-1.9414
M16
G05
G00X5.2072Y-2.4336
M15
G01X5.2072Y-2.4631
M16
G05
G00X5.2072Y-2.6619
M15
G01X5.2072Y-2.6914
M16
G05
G00X5.2072Y-3.1836
M15
G01X5.2072Y-3.2131
M16
G05
G00X5.2072Y-3.4119
M15
G01X5.2072Y-3.4414
M16
G05
G00X5.2072Y-3.9336
M15
G01X5.2072Y-3.9631
M16
G05
G00X5.2072Y-1.1914
M15
G01X5.2446Y-1.1914
M16
G05
G00X5.2072Y-1.6836
M15
G01X5.2446Y-1.6836
M16
G05
G00X5.2072Y-1.9414
M15
G01X5.2446Y-1.9414
M16
G05
G00X5.2072Y-2.4336
M15
G01X5.2446Y-2.4336
M16
G05
G00X5.2072Y-2.6914
M15
G01X5.2446Y-2.6914
M16
G05
G00X5.2072Y-3.1836
M15
G01X5.2446Y-3.1836
M16
G05
G00X5.2072Y-3.4414
M15
G01X5.2446Y-3.4414
M16
G05
G00X5.2072Y-3.9336
M15
G01X5.2446Y-3.9336
M16
G05
G00X5.2446Y-1.1914
M15
G01X5.2446Y-1.6836
M16
G05
G00X5.2446Y-1.9414
M15
G01X5.2446Y-2.4336
M16
G05
G00X5.2446Y-2.6914
M15
G01X5.2446Y-3.1836
M16
G05
G00X5.2446Y-3.4414
M15
G01X5.2446Y-3.9336
M16
G05
G00X5.3804Y-1.1914
M15
G01X5.3804Y-1.6836
M16
G05
G00X5.3804Y-1.9414
M15
G01X5.3804Y-2.4336
M16
G05
G00X5.3804Y-2.6914
M15
G01X5.3804Y-3.1836
M16
G05
G00X5.3804Y-3.4414
M15
G01X5.3804Y-3.9336
M16
G05
G00X5.3804Y-1.1914
M15
G01X5.4178Y-1.1914
M16
G05
G00X5.3804Y-1.6836
M15
G01X5.4178Y-1.6836
M16
G05
G00X5.3804Y-1.9414
M15
G01X5.4178Y-1.9414
M16
G05
G00X5.3804Y-2.4336
M15
G01X5.4178Y-2.4336
M16
G05
G00X5.3804Y-2.6914
M15
G01X5.4178Y-2.6914
M16
G05
G00X5.3804Y-3.1836
M15
G01X5.4178Y-3.1836
M16
G05
G00X5.3804Y-3.4414
M15
G01X5.4178Y-3.4414
M16
G05
G00X5.3804Y-3.9336
M15
G01X5.4178Y-3.9336
M16
G05
G00X5.4178Y-1.1619
M15
G01X5.4178Y-1.1914
M16
G05
G00X5.4178Y-1.6836
M15
G01X5.4178Y-1.7131
M16
G05
G00X5.4178Y-1.9119
M15
G01X5.4178Y-1.9414
M16
G05
G00X5.4178Y-2.4336
M15
G01X5.4178Y-2.4631
M16
G05
G00X5.4178Y-2.6619
M15
G01X5.4178Y-2.6914
M16
G05
G00X5.4178Y-3.1836
M15
G01X5.4178Y-3.2131
M16
G05
G00X5.4178Y-3.4119
M15
G01X5.4178Y-3.4414
M16
G05
G00X5.4178Y-3.9336
M15
G01X5.4178Y-3.9631
M16
G05
G00X5.4178Y-1.1619
M15
G01X5.9572Y-1.1619
M16
G05
G00X5.4178Y-1.7131
M15
G01X5.9572Y-1.7131
M16
G05
G00X5.4178Y-1.9119
M15
G01X5.9572Y-1.9119
M16
G05
G00X5.4178Y-2.4631
M15
G01X5.9572Y-2.4631
M16
G05
G00X5.4178Y-2.6619
M15
G01X5.9572Y-2.6619
M16
G05
G00X5.4178Y-3.2131
M15
G01X5.9572Y-3.2131
M16
G05
G00X5.4178Y-3.4119
M15
G01X5.9572Y-3.4119
M16
G05
G00X5.4178Y-3.9631
M15
G01X5.9572Y-3.9631
M16
G05
G00X5.9572Y-1.1619
M15
G01X5.9572Y-1.1914
M16
G05
G00X5.9572Y-1.6836
M15
G01X5.9572Y-1.7131
M16
G05
G00X5.9572Y-1.9119
M15
G01X5.9572Y-1.9414
M16
G05
G00X5.9572Y-2.4336
M15
G01X5.9572Y-2.4631
M16
G05
G00X5.9572Y-2.6619
M15
G01X5.9572Y-2.6914
M16
G05
G00X5.9572Y-3.1836
M15
G01X5.9572Y-3.2131
M16
G05
G00X5.9572Y-3.4119
M15
G01X5.9572Y-3.4414
M16
G05
G00X5.9572Y-3.9336
M15
G01X5.9572Y-3.9631
M16
G05
G00X5.9572Y-1.1914
M15
G01X5.9946Y-1.1914
M16
G05
G00X5.9572Y-1.6836
M15
G01X5.9946Y-1.6836
M16
G05
G00X5.9572Y-1.9414
M15
G01X5.9946Y-1.9414
M16
G05
G00X5.9572Y-2.4336
M15
G01X5.9946Y-2.4336
M16
G05
G00X5.9572Y-2.6914
M15
G01X5.9946Y-2.6914
M16
G05
G00X5.9572Y-3.1836
M15
G01X5.9946Y-3.1836
M16
G05
G00X5.9572Y-3.4414
M15
G01X5.9946Y-3.4414
M16
G05
G00X5.9572Y-3.9336
M15
G01X5.9946Y-3.9336
M16
G05
G00X5.9946Y-1.1914
M15
G01X5.9946Y-1.6836
M16
G05
G00X5.9946Y-1.9414
M15
G01X5.9946Y-2.4336
M16
G05
G00X5.9946Y-2.6914
M15
G01X5.9946Y-3.1836
M16
G05
G00X5.9946Y-3.4414
M15
G01X5.9946Y-3.9336
M16
G05
G00X6.1304Y-1.0664
M15
G01X6.1304Y-1.5586
M16
G05
G00X6.1304Y-1.8164
M15
G01X6.1304Y-2.3086
M16
G05
G00X6.1304Y-2.5664
M15
G01X6.1304Y-3.0586
M16
G05
G00X6.1304Y-3.3164
M15
G01X6.1304Y-3.8086
M16
G05
G00X6.1304Y-1.0664
M15
G01X6.1678Y-1.0664
M16
G05
G00X6.1304Y-1.5586
M15
G01X6.1678Y-1.5586
M16
G05
G00X6.1304Y-1.8164
M15
G01X6.1678Y-1.8164
M16
G05
G00X6.1304Y-2.3086
M15
G01X6.1678Y-2.3086
M16
G05
G00X6.1304Y-2.5664
M15
G01X6.1678Y-2.5664
M16
G05
G00X6.1304Y-3.0586
M15
G01X6.1678Y-3.0586
M16
G05
G00X6.1304Y-3.3164
M15
G01X6.1678Y-3.3164
M16
G05
G00X6.1304Y-3.8086
M15
G01X6.1678Y-3.8086
M16
G05
G00X6.1678Y-1.0369
M15
G01X6.1678Y-1.0664
M16
G05
G00X6.1678Y-1.5586
M15
G01X6.1678Y-1.5881
M16
G05
G00X6.1678Y-1.7869
M15
G01X6.1678Y-1.8164
M16
G05
G00X6.1678Y-2.3086
M15
G01X6.1678Y-2.3381
M16
G05
G00X6.1678Y-2.5369
M15
G01X6.1678Y-2.5664
M16
G05
G00X6.1678Y-3.0586
M15
G01X6.1678Y-3.0881
M16
G05
G00X6.1678Y-3.2869
M15
G01X6.1678Y-3.3164
M16
G05
G00X6.1678Y-3.8086
M15
G01X6.1678Y-3.8381
M16
G05
G00X6.1678Y-1.0369
M15
G01X6.7072Y-1.0369
M16
G05
G00X6.1678Y-1.5881
M15
G01X6.7072Y-1.5881
M16
G05
G00X6.1678Y-1.7869
M15
G01X6.7072Y-1.7869
M16
G05
G00X6.1678Y-2.3381
M15
G01X6.7072Y-2.3381
M16
G05
G00X6.1678Y-2.5369
M15
G01X6.7072Y-2.5369
M16
G05
G00X6.1678Y-3.0881
M15
G01X6.7072Y-3.0881
M16
G05
G00X6.1678Y-3.2869
M15
G01X6.7072Y-3.2869
M16
G05
G00X6.1678Y-3.8381
M15
G01X6.7072Y-3.8381
M16
G05
G00X6.5367Y-4.3477
M15
G01X6.5367Y-4.8398
M16
G05
G00X6.5367Y-4.3477
M15
G01X6.5741Y-4.3477
M16
G05
G00X6.5367Y-4.8398
M15
G01X6.5741Y-4.8398
M16
G05
G00X6.5741Y-4.3182
M15
G01X6.5741Y-4.3477
M16
G05
G00X6.5741Y-4.8398
M15
G01X6.5741Y-4.8693
M16
G05
G00X6.7072Y-1.0369
M15
G01X6.7072Y-1.0664
M16
G05
G00X6.7072Y-1.5586
M15
G01X6.7072Y-1.5881
M16
G05
G00X6.7072Y-1.7869
M15
G01X6.7072Y-1.8164
M16
G05
G00X6.7072Y-2.3086
M15
G01X6.7072Y-2.3381
M16
G05
G00X6.7072Y-2.5369
M15
G01X6.7072Y-2.5664
M16
G05
G00X6.7072Y-3.0586
M15
G01X6.7072Y-3.0881
M16
G05
G00X6.7072Y-3.2869
M15
G01X6.7072Y-3.3164
M16
G05
G00X6.7072Y-3.8086
M15
G01X6.7072Y-3.8381
M16
G05
G00X6.7072Y-1.0664
M15
G01X6.7446Y-1.0664
M16
G05
G00X6.7072Y-1.5586
M15
G01X6.7446Y-1.5586
M16
G05
G00X6.7072Y-1.8164
M15
G01X6.7446Y-1.8164
M16
G05
G00X6.7072Y-2.3086
M15
G01X6.7446Y-2.3086
M16
G05
G00X6.7072Y-2.5664
M15
G01X6.7446Y-2.5664
M16
G05
G00X6.7072Y-3.0586
M15
G01X6.7446Y-3.0586
M16
G05
G00X6.7072Y-3.3164
M15
G01X6.7446Y-3.3164
M16
G05
G00X6.7072Y-3.8086
M15
G01X6.7446Y-3.8086
M16
G05
G00X6.7446Y-1.0664
M15
G01X6.7446Y-1.5586
M16
G05
G00X6.7446Y-1.8164
M15
G01X6.7446Y-2.3086
M16
G05
G00X6.7446Y-2.5664
M15
G01X6.7446Y-3.0586
M16
G05
G00X6.7446Y-3.3164
M15
G01X6.7446Y-3.8086
M16
G05
G00X6.5741Y-4.3182
M15
G01X7.1134Y-4.3182
M16
G05
G00X6.5741Y-4.8693
M15
G01X7.1134Y-4.8693
M16
G05
G00X6.8804Y-0.9727
M15
G01X6.8804Y-1.4648
M16
G05
G00X6.8804Y-1.7227
M15
G01X6.8804Y-2.2148
M16
G05
G00X6.8804Y-2.4727
M15
G01X6.8804Y-2.9648
M16
G05
G00X6.8804Y-3.2227
M15
G01X6.8804Y-3.7148
M16
G05
G00X6.8804Y-0.9727
M15
G01X6.9178Y-0.9727
M16
G05
G00X6.8804Y-1.4648
M15
G01X6.9178Y-1.4648
M16
G05
G00X6.8804Y-1.7227
M15
G01X6.9178Y-1.7227
M16
G05
G00X6.8804Y-2.2148
M15
G01X6.9178Y-2.2148
M16
G05
G00X6.8804Y-2.4727
M15
G01X6.9178Y-2.4727
M16
G05
G00X6.8804Y-2.9648
M15
G01X6.9178Y-2.9648
M16
G05
G00X6.8804Y-3.2227
M15
G01X6.9178Y-3.2227
M16
G05
G00X6.8804Y-3.7148
M15
G01X6.9178Y-3.7148
M16
G05
G00X6.9178Y-0.9432
M15
G01X6.9178Y-0.9727
M16
G05
G00X6.9178Y-1.4648
M15
G01X6.9178Y-1.4943
M16
G05
G00X6.9178Y-1.6932
M15
G01X6.9178Y-1.7227
M16
G05
G00X6.9178Y-2.2148
M15
G01X6.9178Y-2.2443
M16
G05
G00X6.9178Y-2.4432
M15
G01X6.9178Y-2.4727
M16
G05
G00X6.9178Y-2.9648
M15
G01X6.9178Y-2.9943
M16
G05
G00X6.9178Y-3.1932
M15
G01X6.9178Y-3.2227
M16
G05
G00X6.9178Y-3.7148
M15
G01X6.9178Y-3.7443
M16
G05
G00X7.1134Y-4.3182
M15
G01X7.1134Y-4.3477
M16
G05
G00X7.1134Y-4.8398
M15
G01X7.1134Y-4.8693
M16
G05
G00X7.1134Y-4.3477
M15
G01X7.1508Y-4.3477
M16
G05
G00X7.1134Y-4.8398
M15
G01X7.1508Y-4.8398
M16
G05
G00X7.1508Y-4.3477
M15
G01X7.1508Y-4.8398
M16
G05
G00X6.9178Y-0.9432
M15
G01X7.4572Y-0.9432
M16
G05
G00X6.9178Y-1.4943
M15
G01X7.4572Y-1.4943
M16
G05
G00X6.9178Y-1.6932
M15
G01X7.4572Y-1.6932
M16
G05
G00X6.9178Y-2.2443
M15
G01X7.4572Y-2.2443
M16
G05
G00X6.9178Y-2.4432
M15
G01X7.4572Y-2.4432
M16
G05
G00X6.9178Y-2.9943
M15
G01X7.4572Y-2.9943
M16
G05
G00X6.9178Y-3.1932
M15
G01X7.4572Y-3.1932
M16
G05
G00X6.9178Y-3.7443
M15
G01X7.4572Y-3.7443
M16
G05
G00X7.2867Y-4.3477
M15
G01X7.2867Y-4.8398
M16
G05
G00X7.2867Y-4.3477
M15
G01X7.3241Y-4.3477
M16
G05
G00X7.2867Y-4.8398
M15
G01X7.3241Y-4.8398
M16
G05
G00X7.3241Y-4.3182
M15
G01X7.3241Y-4.3477
M16
G05
G00X7.3241Y-4.8398
M15
G01X7.3241Y-4.8693
M16
G05
G00X7.4572Y-0.9432
M15
G01X7.4572Y-0.9727
M16
G05
G00X7.4572Y-1.4648
M15
G01X7.4572Y-1.4943
M16
G05
G00X7.4572Y-1.6932
M15
G01X7.4572Y-1.7227
M16
G05
G00X7.4572Y-2.2148
M15
G01X7.4572Y-2.2443
M16
G05
G00X7.4572Y-2.4432
M15
G01X7.4572Y-2.4727
M16
G05
G00X7.4572Y-2.9648
M15
G01X7.4572Y-2.9943
M16
G05
G00X7.4572Y-3.1932
M15
G01X7.4572Y-3.2227
M16
G05
G00X7.4572Y-3.7148
M15
G01X7.4572Y-3.7443
M16
G05
G00X7.4572Y-0.9727
M15
G01X7.4946Y-0.9727
M16
G05
G00X7.4572Y-1.4648
M15
G01X7.4946Y-1.4648
M16
G05
G00X7.4572Y-1.7227
M15
G01X7.4946Y-1.7227
M16
G05
G00X7.4572Y-2.2148
M15
G01X7.4946Y-2.2148
M16
G05
G00X7.4572Y-2.4727
M15
G01X7.4946Y-2.4727
M16
G05
G00X7.4572Y-2.9648
M15
G01X7.4946Y-2.9648
M16
G05
G00X7.4572Y-3.2227
M15
G01X7.4946Y-3.2227
M16
G05
G00X7.4572Y-3.7148
M15
G01X7.4946Y-3.7148
M16
G05
G00X7.4946Y-0.9727
M15
G01X7.4946Y-1.4648
M16
G05
G00X7.4946Y-1.7227
M15
G01X7.4946Y-2.2148
M16
G05
G00X7.4946Y-2.4727
M15
G01X7.4946Y-2.9648
M16
G05
G00X7.4946Y-3.2227
M15
G01X7.4946Y-3.7148
M16
G05
G00X7.3241Y-4.3182
M15
G01X7.8634Y-4.3182
M16
G05
G00X7.3241Y-4.8693
M15
G01X7.8634Y-4.8693
M16
G05
G00X7.6304Y-1.0664
M15
G01X7.6304Y-1.5586
M16
G05
G00X7.6304Y-1.8164
M15
G01X7.6304Y-2.3086
M16
G05
G00X7.6304Y-2.5664
M15
G01X7.6304Y-3.0586
M16
G05
G00X7.6304Y-3.3164
M15
G01X7.6304Y-3.8086
M16
G05
G00X7.6304Y-1.0664
M15
G01X7.6678Y-1.0664
M16
G05
G00X7.6304Y-1.5586
M15
G01X7.6678Y-1.5586
M16
G05
G00X7.6304Y-1.8164
M15
G01X7.6678Y-1.8164
M16
G05
G00X7.6304Y-2.3086
M15
G01X7.6678Y-2.3086
M16
G05
G00X7.6304Y-2.5664
M15
G01X7.6678Y-2.5664
M16
G05
G00X7.6304Y-3.0586
M15
G01X7.6678Y-3.0586
M16
G05
G00X7.6304Y-3.3164
M15
G01X7.6678Y-3.3164
M16
G05
G00X7.6304Y-3.8086
M15
G01X7.6678Y-3.8086
M16
G05
G00X7.6678Y-1.0369
M15
G01X7.6678Y-1.0664
M16
G05
G00X7.6678Y-1.5586
M15
G01X7.6678Y-1.5881
M16
G05
G00X7.6678Y-1.7869
M15
G01X7.6678Y-1.8164
M16
G05
G00X7.6678Y-2.3086
M15
G01X7.6678Y-2.3381
M16
G05
G00X7.6678Y-2.5369
M15
G01X7.6678Y-2.5664
M16
G05
G00X7.6678Y-3.0586
M15
G01X7.6678Y-3.0881
M16
G05
G00X7.6678Y-3.2869
M15
G01X7.6678Y-3.3164
M16
G05
G00X7.6678Y-3.8086
M15
G01X7.6678Y-3.8381
M16
G05
G00X7.8634Y-4.3182
M15
G01X7.8634Y-4.3477
M16
G05
G00X7.8634Y-4.8398
M15
G01X7.8634Y-4.8693
M16
G05
G00X7.8634Y-4.3477
M15
G01X7.9008Y-4.3477
M16
G05
G00X7.8634Y-4.8398
M15
G01X7.9008Y-4.8398
M16
G05
G00X7.9008Y-4.3477
M15
G01X7.9008Y-4.8398
M16
G05
G00X7.6678Y-1.0369
M15
G01X8.2072Y-1.0369
M16
G05
G00X7.6678Y-1.5881
M15
G01X8.2072Y-1.5881
M16
G05
G00X7.6678Y-1.7869
M15
G01X8.2072Y-1.7869
M16
G05
G00X7.6678Y-2.3381
M15
G01X8.2072Y-2.3381
M16
G05
G00X7.6678Y-2.5369
M15
G01X8.2072Y-2.5369
M16
G05
G00X7.6678Y-3.0881
M15
G01X8.2072Y-3.0881
M16
G05
G00X7.6678Y-3.2869
M15
G01X8.2072Y-3.2869
M16
G05
G00X7.6678Y-3.8381
M15
G01X8.2072Y-3.8381
M16
G05
G00X8.0367Y-4.4414
M15
G01X8.0367Y-4.9336
M16
G05
G00X8.0367Y-4.4414
M15
G01X8.0741Y-4.4414
M16
G05
G00X8.0367Y-4.9336
M15
G01X8.0741Y-4.9336
M16
G05
G00X8.0741Y-4.4119
M15
G01X8.0741Y-4.4414
M16
G05
G00X8.0741Y-4.9336
M15
G01X8.0741Y-4.9631
M16
G05
G00X8.2072Y-1.0369
M15
G01X8.2072Y-1.0664
M16
G05
G00X8.2072Y-1.5586
M15
G01X8.2072Y-1.5881
M16
G05
G00X8.2072Y-1.7869
M15
G01X8.2072Y-1.8164
M16
G05
G00X8.2072Y-2.3086
M15
G01X8.2072Y-2.3381
M16
G05
G00X8.2072Y-2.5369
M15
G01X8.2072Y-2.5664
M16
G05
G00X8.2072Y-3.0586
M15
G01X8.2072Y-3.0881
M16
G05
G00X8.2072Y-3.2869
M15
G01X8.2072Y-3.3164
M16
G05
G00X8.2072Y-3.8086
M15
G01X8.2072Y-3.8381
M16
G05
G00X8.2072Y-1.0664
M15
G01X8.2446Y-1.0664
M16
G05
G00X8.2072Y-1.5586
M15
G01X8.2446Y-1.5586
M16
G05
G00X8.2072Y-1.8164
M15
G01X8.2446Y-1.8164
M16
G05
G00X8.2072Y-2.3086
M15
G01X8.2446Y-2.3086
M16
G05
G00X8.2072Y-2.5664
M15
G01X8.2446Y-2.5664
M16
G05
G00X8.2072Y-3.0586
M15
G01X8.2446Y-3.0586
M16
G05
G00X8.2072Y-3.3164
M15
G01X8.2446Y-3.3164
M16
G05
G00X8.2072Y-3.8086
M15
G01X8.2446Y-3.8086
M16
G05
G00X8.2446Y-1.0664
M15
G01X8.2446Y-1.5586
M16
G05
G00X8.2446Y-1.8164
M15
G01X8.2446Y-2.3086
M16
G05
G00X8.2446Y-2.5664
M15
G01X8.2446Y-3.0586
M16
G05
G00X8.2446Y-3.3164
M15
G01X8.2446Y-3.8086
M16
G05
G00X8.0741Y-4.4119
M15
G01X8.6134Y-4.4119
M16
G05
G00X8.0741Y-4.9631
M15
G01X8.6134Y-4.9631
M16
G05
G00X8.3804Y-1.1602
M15
G01X8.3804Y-1.6523
M16
G05
G00X8.3804Y-1.9102
M15
G01X8.3804Y-2.4023
M16
G05
G00X8.3804Y-2.6602
M15
G01X8.3804Y-3.1523
M16
G05
G00X8.3804Y-3.4102
M15
G01X8.3804Y-3.9023
M16
G05
G00X8.3804Y-1.1602
M15
G01X8.4178Y-1.1602
M16
G05
G00X8.3804Y-1.6523
M15
G01X8.4178Y-1.6523
M16
G05
G00X8.3804Y-1.9102
M15
G01X8.4178Y-1.9102
M16
G05
G00X8.3804Y-2.4023
M15
G01X8.4178Y-2.4023
M16
G05
G00X8.3804Y-2.6602
M15
G01X8.4178Y-2.6602
M16
G05
G00X8.3804Y-3.1523
M15
G01X8.4178Y-3.1523
M16
G05
G00X8.3804Y-3.4102
M15
G01X8.4178Y-3.4102
M16
G05
G00X8.3804Y-3.9023
M15
G01X8.4178Y-3.9023
M16
G05
G00X8.4178Y-1.1307
M15
G01X8.4178Y-1.1602
M16
G05
G00X8.4178Y-1.6523
M15
G01X8.4178Y-1.6818
M16
G05
G00X8.4178Y-1.8807
M15
G01X8.4178Y-1.9102
M16
G05
G00X8.4178Y-2.4023
M15
G01X8.4178Y-2.4318
M16
G05
G00X8.4178Y-2.6307
M15
G01X8.4178Y-2.6602
M16
G05
G00X8.4178Y-3.1523
M15
G01X8.4178Y-3.1818
M16
G05
G00X8.4178Y-3.3807
M15
G01X8.4178Y-3.4102
M16
G05
G00X8.4178Y-3.9023
M15
G01X8.4178Y-3.9318
M16
G05
G00X8.6134Y-4.4119
M15
G01X8.6134Y-4.4414
M16
G05
G00X8.6134Y-4.9336
M15
G01X8.6134Y-4.9631
M16
G05
G00X8.6134Y-4.4414
M15
G01X8.6508Y-4.4414
M16
G05
G00X8.6134Y-4.9336
M15
G01X8.6508Y-4.9336
M16
G05
G00X8.6508Y-4.4414
M15
G01X8.6508Y-4.9336
M16
G05
G00X8.4178Y-1.1307
M15
G01X8.9572Y-1.1307
M16
G05
G00X8.4178Y-1.6818
M15
G01X8.9572Y-1.6818
M16
G05
G00X8.4178Y-1.8807
M15
G01X8.9572Y-1.8807
M16
G05
G00X8.4178Y-2.4318
M15
G01X8.9572Y-2.4318
M16
G05
G00X8.4178Y-2.6307
M15
G01X8.9572Y-2.6307
M16
G05
G00X8.4178Y-3.1818
M15
G01X8.9572Y-3.1818
M16
G05
G00X8.4178Y-3.3807
M15
G01X8.9572Y-3.3807
M16
G05
G00X8.4178Y-3.9318
M15
G01X8.9572Y-3.9318
M16
G05
G00X8.939Y-5.0143
M15
G01X8.9646Y-5.029
M16
G05
G00X8.9459Y-5.0614
M15
G01X8.9646Y-5.029
M16
G05
G00X8.9572Y-1.1307
M15
G01X8.9572Y-1.1602
M16
G05
G00X8.9572Y-1.6523
M15
G01X8.9572Y-1.6818
M16
G05
G00X8.9572Y-1.8807
M15
G01X8.9572Y-1.9102
M16
G05
G00X8.9572Y-2.4023
M15
G01X8.9572Y-2.4318
M16
G05
G00X8.9572Y-2.6307
M15
G01X8.9572Y-2.6602
M16
G05
G00X8.9572Y-3.1523
M15
G01X8.9572Y-3.1818
M16
G05
G00X8.9572Y-3.3807
M15
G01X8.9572Y-3.4102
M16
G05
G00X8.9572Y-3.9023
M15
G01X8.9572Y-3.9318
M16
G05
G00X8.9572Y-1.1602
M15
G01X8.9946Y-1.1602
M16
G05
G00X8.9572Y-1.6523
M15
G01X8.9946Y-1.6523
M16
G05
G00X8.9572Y-1.9102
M15
G01X8.9946Y-1.9102
M16
G05
G00X8.9572Y-2.4023
M15
G01X8.9946Y-2.4023
M16
G05
G00X8.9572Y-2.6602
M15
G01X8.9946Y-2.6602
M16
G05
G00X8.9572Y-3.1523
M15
G01X8.9946Y-3.1523
M16
G05
G00X8.9572Y-3.4102
M15
G01X8.9946Y-3.4102
M16
G05
G00X8.9572Y-3.9023
M15
G01X8.9946Y-3.9023
M16
G05
G00X8.9946Y-1.1602
M15
G01X8.9946Y-1.6523
M16
G05
G00X8.9946Y-1.9102
M15
G01X8.9946Y-2.4023
M16
G05
G00X8.9946Y-2.6602
M15
G01X8.9946Y-3.1523
M16
G05
G00X8.9946Y-3.4102
M15
G01X8.9946Y-3.9023
M16
G05
G00X8.9459Y-5.0614
M15
G01X9.3721Y-5.3075
M16
G05
G00X8.939Y-5.0143
M15
G01X9.5837Y-3.8976
M16
G05
G00X9.3721Y-5.3075
M15
G01X9.3908Y-5.2751
M16
G05
G00X9.3908Y-5.2751
M15
G01X9.4163Y-5.2899
M16
G05
G00X9.5837Y-3.8976
M15
G01X9.6092Y-3.9124
M16
G05
G00X9.6092Y-3.9124
M15
G01X9.6279Y-3.88
M16
G05
G00X9.4163Y-5.2899
M15
G01X10.061Y-4.1732
M16
G05
G00X9.6279Y-3.88
M15
G01X10.0541Y-4.1261
M16
G05
G00X10.0354Y-4.1585
M15
G01X10.0541Y-4.1261
M16
G05
G00X10.0354Y-4.1585
M15
G01X10.061Y-4.1732
M16
G05
T2
G00X9.4769Y-5.1855
M15
G01X9.5081Y-5.2035
M16
G05
G00X9.5081Y-5.2035
M15
G01X9.5621Y-5.11
M16
G05
G00X9.5309Y-5.092
M15
G01X9.5621Y-5.11
M16
G05
G00X9.9469Y-4.3714
M15
G01X9.9781Y-4.3894
M16
G05
G00X9.9781Y-4.3894
M15
G01X10.0321Y-4.2959
M16
G05
G00X10.0009Y-4.2779
M15
G01X10.0321Y-4.2959
M16
G05
T0
M30
