%TF.GenerationSoftware,KiCad,Pcbnew,(5.1.9-0-10_14)*%
%TF.CreationDate,2021-04-25T18:41:16-05:00*%
%TF.ProjectId,wren-numpad,7772656e-2d6e-4756-9d70-61642e6b6963,rev?*%
%TF.SameCoordinates,Original*%
%TF.FileFunction,Paste,Bot*%
%TF.FilePolarity,Positive*%
%FSLAX46Y46*%
G04 Gerber Fmt 4.6, Leading zero omitted, Abs format (unit mm)*
G04 Created by KiCad (PCBNEW (5.1.9-0-10_14)) date 2021-04-25 18:41:16*
%MOMM*%
%LPD*%
G01*
G04 APERTURE LIST*
%ADD10R,1.200000X1.200000*%
%ADD11C,0.100000*%
G04 APERTURE END LIST*
D10*
%TO.C,D43*%
X201609500Y-111112500D03*
X201609500Y-107962500D03*
%TD*%
%TO.C,D45*%
X155867000Y-105822750D03*
X159017000Y-105822750D03*
%TD*%
%TO.C,D44*%
X182562500Y-111112500D03*
X182562500Y-107962500D03*
%TD*%
%TO.C,D42*%
X220653500Y-113493750D03*
X220653500Y-110343750D03*
%TD*%
D11*
%TO.C,D41*%
G36*
X245851605Y-102961635D02*
G01*
X245251605Y-104000865D01*
X244212375Y-103400865D01*
X244812375Y-102361635D01*
X245851605Y-102961635D01*
G37*
G36*
X243123625Y-101386635D02*
G01*
X242523625Y-102425865D01*
X241484395Y-101825865D01*
X242084395Y-100786635D01*
X243123625Y-101386635D01*
G37*
%TD*%
D10*
%TO.C,D40*%
X55605500Y-95237500D03*
X55605500Y-92087500D03*
%TD*%
%TO.C,D39*%
X74649500Y-95237500D03*
X74649500Y-92087500D03*
%TD*%
%TO.C,D38*%
X93693500Y-95225000D03*
X93693500Y-92075000D03*
%TD*%
%TO.C,D37*%
X112737500Y-95237500D03*
X112737500Y-92087500D03*
%TD*%
%TO.C,D36*%
X134162000Y-95237500D03*
X134162000Y-92087500D03*
%TD*%
%TO.C,D35*%
X153206000Y-95237500D03*
X153206000Y-92087500D03*
%TD*%
%TO.C,D34*%
X172250000Y-88887500D03*
X172250000Y-85737500D03*
%TD*%
%TO.C,D33*%
X191294000Y-86506250D03*
X191294000Y-83356250D03*
%TD*%
%TO.C,D32*%
X210338000Y-89681250D03*
X210338000Y-86531250D03*
%TD*%
%TO.C,D31*%
X229382000Y-91268750D03*
X229382000Y-88118750D03*
%TD*%
%TO.C,D30*%
X55605500Y-76187500D03*
X55605500Y-73037500D03*
%TD*%
%TO.C,D29*%
X74649500Y-76187500D03*
X74649500Y-73037500D03*
%TD*%
%TO.C,D28*%
X93693500Y-76187500D03*
X93693500Y-73037500D03*
%TD*%
%TO.C,D27*%
X112737500Y-76187500D03*
X112737500Y-73037500D03*
%TD*%
%TO.C,D26*%
X134162000Y-76187500D03*
X134162000Y-73037500D03*
%TD*%
%TO.C,D25*%
X153206000Y-76187500D03*
X153206000Y-73037500D03*
%TD*%
%TO.C,D24*%
X172250000Y-69837500D03*
X172250000Y-66687500D03*
%TD*%
%TO.C,D23*%
X191294000Y-67456250D03*
X191294000Y-64306250D03*
%TD*%
%TO.C,D22*%
X210338000Y-69837500D03*
X210338000Y-66687500D03*
%TD*%
%TO.C,D21*%
X229382000Y-72218750D03*
X229382000Y-69068750D03*
%TD*%
%TO.C,D20*%
X55605500Y-57137500D03*
X55605500Y-53987500D03*
%TD*%
%TO.C,D19*%
X74649500Y-57137500D03*
X74649500Y-53987500D03*
%TD*%
%TO.C,D18*%
X93693500Y-57137500D03*
X93693500Y-53987500D03*
%TD*%
%TO.C,D17*%
X112737500Y-57137500D03*
X112737500Y-53987500D03*
%TD*%
%TO.C,D16*%
X134162000Y-57137500D03*
X134162000Y-53987500D03*
%TD*%
%TO.C,D15*%
X153206000Y-57137500D03*
X153206000Y-53987500D03*
%TD*%
%TO.C,D14*%
X172250000Y-50787500D03*
X172250000Y-47637500D03*
%TD*%
%TO.C,D13*%
X191294000Y-48406250D03*
X191294000Y-45256250D03*
%TD*%
%TO.C,D12*%
X210338000Y-51581250D03*
X210338000Y-48431250D03*
%TD*%
%TO.C,D11*%
X229382000Y-53168750D03*
X229382000Y-50018750D03*
%TD*%
%TO.C,D10*%
X55605500Y-38087500D03*
X55605500Y-34937500D03*
%TD*%
%TO.C,D9*%
X74649500Y-38087500D03*
X74649500Y-34937500D03*
%TD*%
%TO.C,D8*%
X93693500Y-38087500D03*
X93693500Y-34937500D03*
%TD*%
%TO.C,D7*%
X112737500Y-38087500D03*
X112737500Y-34937500D03*
%TD*%
%TO.C,D6*%
X134162000Y-38087500D03*
X134162000Y-34937500D03*
%TD*%
%TO.C,D5*%
X153206000Y-37293750D03*
X153206000Y-34143750D03*
%TD*%
%TO.C,D4*%
X172250000Y-31737500D03*
X172250000Y-28587500D03*
%TD*%
%TO.C,D3*%
X191294000Y-29356250D03*
X191294000Y-26206250D03*
%TD*%
%TO.C,D2*%
X210338000Y-31737500D03*
X210338000Y-28587500D03*
%TD*%
%TO.C,D1*%
X229382000Y-34056250D03*
X229382000Y-30906250D03*
%TD*%
M02*
