<?xml version="1.0" standalone="no"?>
 <!DOCTYPE svg PUBLIC "-//W3C//DTD SVG 1.1//EN" 
 "http://www.w3.org/Graphics/SVG/1.1/DTD/svg11.dtd"> 
<svg
  xmlns:svg="http://www.w3.org/2000/svg"
  xmlns="http://www.w3.org/2000/svg"
  xmlns:xlink="http://www.w3.org/1999/xlink"
  version="1.1"
  width="20.109180cm" height="11.290300cm" viewBox="0 0 79170 44450">
<title>SVG Picture created as wren-nav-brd.svg date 2021/09/08 23:26:35 </title>
  <desc>Picture generated by PCBNEW </desc>
<g style="fill:#000000; fill-opacity:1;stroke:#000000; stroke-opacity:1;
stroke-linecap:round; stroke-linejoin:round;"
 transform="translate(0 0) scale(1 1)">
</g>
<g style="fill:#000000; fill-opacity:0.0; 
stroke:#000000; stroke-width:-0.000393701; stroke-opacity:1; 
stroke-linecap:round; stroke-linejoin:round;">
<g >
</g>
<g style="fill:#000000; fill-opacity:0.0; 
stroke:#000000; stroke-width:120; stroke-opacity:1; 
stroke-linecap:round; stroke-linejoin:round;">
<path d="M71807 31062
L71496 30882
" />
<path d="M72347 30127
L72036 29947
" />
<path d="M67647 38267
L67336 38087
" />
</g>
<g style="fill:#000000; fill-opacity:0.0; 
stroke:#000000; stroke-width:118.11; stroke-opacity:1; 
stroke-linecap:round; stroke-linejoin:round;">
<path d="M73209 29231
L72953 29083
" />
</g>
<g style="fill:#000000; fill-opacity:0.0; 
stroke:#000000; stroke-width:120; stroke-opacity:1; 
stroke-linecap:round; stroke-linejoin:round;">
<path d="M67336 38087
L66796 39023
" />
<path d="M72036 29947
L71496 30882
" />
</g>
<g style="fill:#000000; fill-opacity:0.0; 
stroke:#000000; stroke-width:118.11; stroke-opacity:1; 
stroke-linecap:round; stroke-linejoin:round;">
<path d="M77727 31839
L71280 43005
" />
<path d="M71024 42858
L70837 43182
" />
<path d="M66762 40397
L66575 40721
" />
<path d="M66762 40397
L66507 40249
" />
<path d="M71280 43005
L71024 42858
" />
<path d="M70837 43182
L66575 40721
" />
<path d="M72953 29083
L66507 40249
" />
<path d="M77658 31367
L73396 28907
" />
</g>
<g style="fill:#000000; fill-opacity:0.0; 
stroke:#000000; stroke-width:120; stroke-opacity:1; 
stroke-linecap:round; stroke-linejoin:round;">
<path d="M67107 39203
L66796 39023
" />
</g>
<g style="fill:#000000; fill-opacity:0.0; 
stroke:#000000; stroke-width:118.11; stroke-opacity:1; 
stroke-linecap:round; stroke-linejoin:round;">
<path d="M73396 28907
L73209 29231
" />
<path d="M77658 31367
L77471 31691
" />
<path d="M77727 31839
L77471 31691
" />
</g>
<g >
</g>
<g style="fill:#000000; fill-opacity:0.0; 
stroke:#000000; stroke-width:118.11; stroke-opacity:1; 
stroke-linecap:round; stroke-linejoin:round;">
<path d="M1072 4451
L6466 4451
" />
<path d="M1072 9963
L6466 9963
" />
<path d="M698 4746
L698 9667
" />
<path d="M6840 4746
L6840 9667
" />
<path d="M1072 9667
L1072 9963
" />
<path d="M698 9667
L1072 9667
" />
<path d="M698 4746
L1072 4746
" />
<path d="M1072 4451
L1072 4746
" />
<path d="M6466 4451
L6466 4746
" />
<path d="M6466 4746
L6840 4746
" />
<path d="M6466 9667
L6840 9667
" />
<path d="M6466 9667
L6466 9963
" />
</g>
<g >
</g>
<g style="fill:#000000; fill-opacity:0.0; 
stroke:#000000; stroke-width:118.11; stroke-opacity:1; 
stroke-linecap:round; stroke-linejoin:round;">
<path d="M1072 26951
L6466 26951
" />
<path d="M1072 32463
L6466 32463
" />
<path d="M698 27246
L698 32167
" />
<path d="M6840 27246
L6840 32167
" />
<path d="M1072 32167
L1072 32463
" />
<path d="M698 32167
L1072 32167
" />
<path d="M698 27246
L1072 27246
" />
<path d="M1072 26951
L1072 27246
" />
<path d="M6466 26951
L6466 27246
" />
<path d="M6466 27246
L6840 27246
" />
<path d="M6466 32167
L6840 32167
" />
<path d="M6466 32167
L6466 32463
" />
</g>
<g >
</g>
<g style="fill:#000000; fill-opacity:0.0; 
stroke:#000000; stroke-width:118.11; stroke-opacity:1; 
stroke-linecap:round; stroke-linejoin:round;">
<path d="M32010 11951
L37404 11951
" />
<path d="M32010 17463
L37404 17463
" />
<path d="M31636 12246
L31636 17167
" />
<path d="M37778 12246
L37778 17167
" />
<path d="M32010 17167
L32010 17463
" />
<path d="M31636 17167
L32010 17167
" />
<path d="M31636 12246
L32010 12246
" />
<path d="M32010 11951
L32010 12246
" />
<path d="M37404 11951
L37404 12246
" />
<path d="M37404 12246
L37778 12246
" />
<path d="M37404 17167
L37778 17167
" />
<path d="M37404 17167
L37404 17463
" />
</g>
<g >
</g>
<g style="fill:#000000; fill-opacity:0.0; 
stroke:#000000; stroke-width:118.11; stroke-opacity:1; 
stroke-linecap:round; stroke-linejoin:round;">
<path d="M43570 33088
L48964 33088
" />
<path d="M43570 38600
L48964 38600
" />
<path d="M43196 33384
L43196 38305
" />
<path d="M49338 33384
L49338 38305
" />
<path d="M43570 38305
L43570 38600
" />
<path d="M43196 38305
L43570 38305
" />
<path d="M43196 33384
L43570 33384
" />
<path d="M43570 33088
L43570 33384
" />
<path d="M48964 33088
L48964 33384
" />
<path d="M48964 33384
L49338 33384
" />
<path d="M48964 38305
L49338 38305
" />
<path d="M48964 38305
L48964 38600
" />
</g>
<g >
</g>
<g style="fill:#000000; fill-opacity:0.0; 
stroke:#000000; stroke-width:118.11; stroke-opacity:1; 
stroke-linecap:round; stroke-linejoin:round;">
<path d="M51070 33088
L56464 33088
" />
<path d="M51070 38600
L56464 38600
" />
<path d="M50696 33384
L50696 38305
" />
<path d="M56838 33384
L56838 38305
" />
<path d="M51070 38305
L51070 38600
" />
<path d="M50696 38305
L51070 38305
" />
<path d="M50696 33384
L51070 33384
" />
<path d="M51070 33088
L51070 33384
" />
<path d="M56464 33088
L56464 33384
" />
<path d="M56464 33384
L56838 33384
" />
<path d="M56464 38305
L56838 38305
" />
<path d="M56464 38305
L56464 38600
" />
</g>
<g >
</g>
<g style="fill:#000000; fill-opacity:0.0; 
stroke:#000000; stroke-width:118.11; stroke-opacity:1; 
stroke-linecap:round; stroke-linejoin:round;">
<path d="M58570 34138
L63964 34138
" />
<path d="M58570 39650
L63964 39650
" />
<path d="M58196 34434
L58196 39355
" />
<path d="M64338 34434
L64338 39355
" />
<path d="M58570 39355
L58570 39650
" />
<path d="M58196 39355
L58570 39355
" />
<path d="M58196 34434
L58570 34434
" />
<path d="M58570 34138
L58570 34434
" />
<path d="M63964 34138
L63964 34434
" />
<path d="M63964 34434
L64338 34434
" />
<path d="M63964 39355
L64338 39355
" />
<path d="M63964 39355
L63964 39650
" />
</g>
<g >
</g>
<g style="fill:#000000; fill-opacity:0.0; 
stroke:#000000; stroke-width:118.11; stroke-opacity:1; 
stroke-linecap:round; stroke-linejoin:round;">
<path d="M8572 26951
L13966 26951
" />
<path d="M8572 32463
L13966 32463
" />
<path d="M8198 27246
L8198 32167
" />
<path d="M14340 27246
L14340 32167
" />
<path d="M8572 32167
L8572 32463
" />
<path d="M8198 32167
L8572 32167
" />
<path d="M8198 27246
L8572 27246
" />
<path d="M8572 26951
L8572 27246
" />
<path d="M13966 26951
L13966 27246
" />
<path d="M13966 27246
L14340 27246
" />
<path d="M13966 32167
L14340 32167
" />
<path d="M13966 32167
L13966 32463
" />
</g>
<g >
</g>
<g style="fill:#000000; fill-opacity:0.0; 
stroke:#000000; stroke-width:118.11; stroke-opacity:1; 
stroke-linecap:round; stroke-linejoin:round;">
<path d="M16072 26951
L21466 26951
" />
<path d="M16072 32463
L21466 32463
" />
<path d="M15698 27246
L15698 32167
" />
<path d="M21840 27246
L21840 32167
" />
<path d="M16072 32167
L16072 32463
" />
<path d="M15698 32167
L16072 32167
" />
<path d="M15698 27246
L16072 27246
" />
<path d="M16072 26951
L16072 27246
" />
<path d="M21466 26951
L21466 27246
" />
<path d="M21466 27246
L21840 27246
" />
<path d="M21466 32167
L21840 32167
" />
<path d="M21466 32167
L21466 32463
" />
</g>
<g >
</g>
<g style="fill:#000000; fill-opacity:0.0; 
stroke:#000000; stroke-width:118.11; stroke-opacity:1; 
stroke-linecap:round; stroke-linejoin:round;">
<path d="M24510 26951
L29904 26951
" />
<path d="M24510 32463
L29904 32463
" />
<path d="M24136 27246
L24136 32167
" />
<path d="M30278 27246
L30278 32167
" />
<path d="M24510 32167
L24510 32463
" />
<path d="M24136 32167
L24510 32167
" />
<path d="M24136 27246
L24510 27246
" />
<path d="M24510 26951
L24510 27246
" />
<path d="M29904 26951
L29904 27246
" />
<path d="M29904 27246
L30278 27246
" />
<path d="M29904 32167
L30278 32167
" />
<path d="M29904 32167
L29904 32463
" />
</g>
<g >
</g>
<g style="fill:#000000; fill-opacity:0.0; 
stroke:#000000; stroke-width:118.11; stroke-opacity:1; 
stroke-linecap:round; stroke-linejoin:round;">
<path d="M32010 26951
L37404 26951
" />
<path d="M32010 32463
L37404 32463
" />
<path d="M31636 27246
L31636 32167
" />
<path d="M37778 27246
L37778 32167
" />
<path d="M32010 32167
L32010 32463
" />
<path d="M31636 32167
L32010 32167
" />
<path d="M31636 27246
L32010 27246
" />
<path d="M32010 26951
L32010 27246
" />
<path d="M37404 26951
L37404 27246
" />
<path d="M37404 27246
L37778 27246
" />
<path d="M37404 32167
L37778 32167
" />
<path d="M37404 32167
L37404 32463
" />
</g>
<g >
</g>
<g style="fill:#000000; fill-opacity:0.0; 
stroke:#000000; stroke-width:118.11; stroke-opacity:1; 
stroke-linecap:round; stroke-linejoin:round;">
<path d="M39510 24451
L44904 24451
" />
<path d="M39510 29963
L44904 29963
" />
<path d="M39136 24746
L39136 29667
" />
<path d="M45278 24746
L45278 29667
" />
<path d="M39510 29667
L39510 29963
" />
<path d="M39136 29667
L39510 29667
" />
<path d="M39136 24746
L39510 24746
" />
<path d="M39510 24451
L39510 24746
" />
<path d="M44904 24451
L44904 24746
" />
<path d="M44904 24746
L45278 24746
" />
<path d="M44904 29667
L45278 29667
" />
<path d="M44904 29667
L44904 29963
" />
</g>
<g >
</g>
<g style="fill:#000000; fill-opacity:0.0; 
stroke:#000000; stroke-width:118.11; stroke-opacity:1; 
stroke-linecap:round; stroke-linejoin:round;">
<path d="M47010 23513
L52404 23513
" />
<path d="M47010 29025
L52404 29025
" />
<path d="M46636 23809
L46636 28730
" />
<path d="M52778 23809
L52778 28730
" />
<path d="M47010 28730
L47010 29025
" />
<path d="M46636 28730
L47010 28730
" />
<path d="M46636 23809
L47010 23809
" />
<path d="M47010 23513
L47010 23809
" />
<path d="M52404 23513
L52404 23809
" />
<path d="M52404 23809
L52778 23809
" />
<path d="M52404 28730
L52778 28730
" />
<path d="M52404 28730
L52404 29025
" />
</g>
<g >
</g>
<g style="fill:#000000; fill-opacity:0.0; 
stroke:#000000; stroke-width:118.11; stroke-opacity:1; 
stroke-linecap:round; stroke-linejoin:round;">
<path d="M54510 24451
L59904 24451
" />
<path d="M54510 29963
L59904 29963
" />
<path d="M54136 24746
L54136 29667
" />
<path d="M60278 24746
L60278 29667
" />
<path d="M54510 29667
L54510 29963
" />
<path d="M54136 29667
L54510 29667
" />
<path d="M54136 24746
L54510 24746
" />
<path d="M54510 24451
L54510 24746
" />
<path d="M59904 24451
L59904 24746
" />
<path d="M59904 24746
L60278 24746
" />
<path d="M59904 29667
L60278 29667
" />
<path d="M59904 29667
L59904 29963
" />
</g>
<g >
</g>
<g style="fill:#000000; fill-opacity:0.0; 
stroke:#000000; stroke-width:118.11; stroke-opacity:1; 
stroke-linecap:round; stroke-linejoin:round;">
<path d="M62010 25388
L67404 25388
" />
<path d="M62010 30900
L67404 30900
" />
<path d="M61636 25684
L61636 30605
" />
<path d="M67778 25684
L67778 30605
" />
<path d="M62010 30605
L62010 30900
" />
<path d="M61636 30605
L62010 30605
" />
<path d="M61636 25684
L62010 25684
" />
<path d="M62010 25388
L62010 25684
" />
<path d="M67404 25388
L67404 25684
" />
<path d="M67404 25684
L67778 25684
" />
<path d="M67404 30605
L67778 30605
" />
<path d="M67404 30605
L67404 30900
" />
</g>
<g >
</g>
<g style="fill:#000000; fill-opacity:0.0; 
stroke:#000000; stroke-width:118.11; stroke-opacity:1; 
stroke-linecap:round; stroke-linejoin:round;">
<path d="M8572 19451
L13966 19451
" />
<path d="M8572 24963
L13966 24963
" />
<path d="M8198 19746
L8198 24667
" />
<path d="M14340 19746
L14340 24667
" />
<path d="M8572 24667
L8572 24963
" />
<path d="M8198 24667
L8572 24667
" />
<path d="M8198 19746
L8572 19746
" />
<path d="M8572 19451
L8572 19746
" />
<path d="M13966 19451
L13966 19746
" />
<path d="M13966 19746
L14340 19746
" />
<path d="M13966 24667
L14340 24667
" />
<path d="M13966 24667
L13966 24963
" />
</g>
<g >
</g>
<g style="fill:#000000; fill-opacity:0.0; 
stroke:#000000; stroke-width:118.11; stroke-opacity:1; 
stroke-linecap:round; stroke-linejoin:round;">
<path d="M24510 19451
L29904 19451
" />
<path d="M24510 24963
L29904 24963
" />
<path d="M24136 19746
L24136 24667
" />
<path d="M30278 19746
L30278 24667
" />
<path d="M24510 24667
L24510 24963
" />
<path d="M24136 24667
L24510 24667
" />
<path d="M24136 19746
L24510 19746
" />
<path d="M24510 19451
L24510 19746
" />
<path d="M29904 19451
L29904 19746
" />
<path d="M29904 19746
L30278 19746
" />
<path d="M29904 24667
L30278 24667
" />
<path d="M29904 24667
L29904 24963
" />
</g>
<g >
</g>
<g style="fill:#000000; fill-opacity:0.0; 
stroke:#000000; stroke-width:118.11; stroke-opacity:1; 
stroke-linecap:round; stroke-linejoin:round;">
<path d="M32010 19451
L37404 19451
" />
<path d="M32010 24963
L37404 24963
" />
<path d="M31636 19746
L31636 24667
" />
<path d="M37778 19746
L37778 24667
" />
<path d="M32010 24667
L32010 24963
" />
<path d="M31636 24667
L32010 24667
" />
<path d="M31636 19746
L32010 19746
" />
<path d="M32010 19451
L32010 19746
" />
<path d="M37404 19451
L37404 19746
" />
<path d="M37404 19746
L37778 19746
" />
<path d="M37404 24667
L37778 24667
" />
<path d="M37404 24667
L37404 24963
" />
</g>
<g >
</g>
<g style="fill:#000000; fill-opacity:0.0; 
stroke:#000000; stroke-width:118.11; stroke-opacity:1; 
stroke-linecap:round; stroke-linejoin:round;">
<path d="M39510 16951
L44904 16951
" />
<path d="M39510 22463
L44904 22463
" />
<path d="M39136 17246
L39136 22167
" />
<path d="M45278 17246
L45278 22167
" />
<path d="M39510 22167
L39510 22463
" />
<path d="M39136 22167
L39510 22167
" />
<path d="M39136 17246
L39510 17246
" />
<path d="M39510 16951
L39510 17246
" />
<path d="M44904 16951
L44904 17246
" />
<path d="M44904 17246
L45278 17246
" />
<path d="M44904 22167
L45278 22167
" />
<path d="M44904 22167
L44904 22463
" />
</g>
<g >
</g>
<g style="fill:#000000; fill-opacity:0.0; 
stroke:#000000; stroke-width:118.11; stroke-opacity:1; 
stroke-linecap:round; stroke-linejoin:round;">
<path d="M47010 16013
L52404 16013
" />
<path d="M47010 21525
L52404 21525
" />
<path d="M46636 16309
L46636 21230
" />
<path d="M52778 16309
L52778 21230
" />
<path d="M47010 21230
L47010 21525
" />
<path d="M46636 21230
L47010 21230
" />
<path d="M46636 16309
L47010 16309
" />
<path d="M47010 16013
L47010 16309
" />
<path d="M52404 16013
L52404 16309
" />
<path d="M52404 16309
L52778 16309
" />
<path d="M52404 21230
L52778 21230
" />
<path d="M52404 21230
L52404 21525
" />
</g>
<g >
</g>
<g style="fill:#000000; fill-opacity:0.0; 
stroke:#000000; stroke-width:118.11; stroke-opacity:1; 
stroke-linecap:round; stroke-linejoin:round;">
<path d="M54510 16951
L59904 16951
" />
<path d="M54510 22463
L59904 22463
" />
<path d="M54136 17246
L54136 22167
" />
<path d="M60278 17246
L60278 22167
" />
<path d="M54510 22167
L54510 22463
" />
<path d="M54136 22167
L54510 22167
" />
<path d="M54136 17246
L54510 17246
" />
<path d="M54510 16951
L54510 17246
" />
<path d="M59904 16951
L59904 17246
" />
<path d="M59904 17246
L60278 17246
" />
<path d="M59904 22167
L60278 22167
" />
<path d="M59904 22167
L59904 22463
" />
</g>
<g >
</g>
<g style="fill:#000000; fill-opacity:0.0; 
stroke:#000000; stroke-width:118.11; stroke-opacity:1; 
stroke-linecap:round; stroke-linejoin:round;">
<path d="M62010 17888
L67404 17888
" />
<path d="M62010 23400
L67404 23400
" />
<path d="M61636 18184
L61636 23105
" />
<path d="M67778 18184
L67778 23105
" />
<path d="M62010 23105
L62010 23400
" />
<path d="M61636 23105
L62010 23105
" />
<path d="M61636 18184
L62010 18184
" />
<path d="M62010 17888
L62010 18184
" />
<path d="M67404 17888
L67404 18184
" />
<path d="M67404 18184
L67778 18184
" />
<path d="M67404 23105
L67778 23105
" />
<path d="M67404 23105
L67404 23400
" />
</g>
<g >
</g>
<g style="fill:#000000; fill-opacity:0.0; 
stroke:#000000; stroke-width:118.11; stroke-opacity:1; 
stroke-linecap:round; stroke-linejoin:round;">
<path d="M1072 11951
L6466 11951
" />
<path d="M1072 17463
L6466 17463
" />
<path d="M698 12246
L698 17167
" />
<path d="M6840 12246
L6840 17167
" />
<path d="M1072 17167
L1072 17463
" />
<path d="M698 17167
L1072 17167
" />
<path d="M698 12246
L1072 12246
" />
<path d="M1072 11951
L1072 12246
" />
<path d="M6466 11951
L6466 12246
" />
<path d="M6466 12246
L6840 12246
" />
<path d="M6466 17167
L6840 17167
" />
<path d="M6466 17167
L6466 17463
" />
</g>
<g >
</g>
<g style="fill:#000000; fill-opacity:0.0; 
stroke:#000000; stroke-width:118.11; stroke-opacity:1; 
stroke-linecap:round; stroke-linejoin:round;">
<path d="M8572 11951
L13966 11951
" />
<path d="M8572 17463
L13966 17463
" />
<path d="M8198 12246
L8198 17167
" />
<path d="M14340 12246
L14340 17167
" />
<path d="M8572 17167
L8572 17463
" />
<path d="M8198 17167
L8572 17167
" />
<path d="M8198 12246
L8572 12246
" />
<path d="M8572 11951
L8572 12246
" />
<path d="M13966 11951
L13966 12246
" />
<path d="M13966 12246
L14340 12246
" />
<path d="M13966 17167
L14340 17167
" />
<path d="M13966 17167
L13966 17463
" />
</g>
<g >
</g>
<g style="fill:#000000; fill-opacity:0.0; 
stroke:#000000; stroke-width:118.11; stroke-opacity:1; 
stroke-linecap:round; stroke-linejoin:round;">
<path d="M16072 11951
L21466 11951
" />
<path d="M16072 17463
L21466 17463
" />
<path d="M15698 12246
L15698 17167
" />
<path d="M21840 12246
L21840 17167
" />
<path d="M16072 17167
L16072 17463
" />
<path d="M15698 17167
L16072 17167
" />
<path d="M15698 12246
L16072 12246
" />
<path d="M16072 11951
L16072 12246
" />
<path d="M21466 11951
L21466 12246
" />
<path d="M21466 12246
L21840 12246
" />
<path d="M21466 17167
L21840 17167
" />
<path d="M21466 17167
L21466 17463
" />
</g>
<g >
</g>
<g style="fill:#000000; fill-opacity:0.0; 
stroke:#000000; stroke-width:118.11; stroke-opacity:1; 
stroke-linecap:round; stroke-linejoin:round;">
<path d="M24510 11951
L29904 11951
" />
<path d="M24510 17463
L29904 17463
" />
<path d="M24136 12246
L24136 17167
" />
<path d="M30278 12246
L30278 17167
" />
<path d="M24510 17167
L24510 17463
" />
<path d="M24136 17167
L24510 17167
" />
<path d="M24136 12246
L24510 12246
" />
<path d="M24510 11951
L24510 12246
" />
<path d="M29904 11951
L29904 12246
" />
<path d="M29904 12246
L30278 12246
" />
<path d="M29904 17167
L30278 17167
" />
<path d="M29904 17167
L29904 17463
" />
</g>
<g >
</g>
<g style="fill:#000000; fill-opacity:0.0; 
stroke:#000000; stroke-width:118.11; stroke-opacity:1; 
stroke-linecap:round; stroke-linejoin:round;">
<path d="M39510 9451
L44904 9451
" />
<path d="M39510 14963
L44904 14963
" />
<path d="M39136 9746
L39136 14667
" />
<path d="M45278 9746
L45278 14667
" />
<path d="M39510 14667
L39510 14963
" />
<path d="M39136 14667
L39510 14667
" />
<path d="M39136 9746
L39510 9746
" />
<path d="M39510 9451
L39510 9746
" />
<path d="M44904 9451
L44904 9746
" />
<path d="M44904 9746
L45278 9746
" />
<path d="M44904 14667
L45278 14667
" />
<path d="M44904 14667
L44904 14963
" />
</g>
<g >
</g>
<g style="fill:#000000; fill-opacity:0.0; 
stroke:#000000; stroke-width:118.11; stroke-opacity:1; 
stroke-linecap:round; stroke-linejoin:round;">
<path d="M47010 8513
L52404 8513
" />
<path d="M47010 14025
L52404 14025
" />
<path d="M46636 8809
L46636 13730
" />
<path d="M52778 8809
L52778 13730
" />
<path d="M47010 13730
L47010 14025
" />
<path d="M46636 13730
L47010 13730
" />
<path d="M46636 8809
L47010 8809
" />
<path d="M47010 8513
L47010 8809
" />
<path d="M52404 8513
L52404 8809
" />
<path d="M52404 8809
L52778 8809
" />
<path d="M52404 13730
L52778 13730
" />
<path d="M52404 13730
L52404 14025
" />
</g>
<g >
</g>
<g style="fill:#000000; fill-opacity:0.0; 
stroke:#000000; stroke-width:118.11; stroke-opacity:1; 
stroke-linecap:round; stroke-linejoin:round;">
<path d="M54510 9451
L59904 9451
" />
<path d="M54510 14963
L59904 14963
" />
<path d="M54136 9746
L54136 14667
" />
<path d="M60278 9746
L60278 14667
" />
<path d="M54510 14667
L54510 14963
" />
<path d="M54136 14667
L54510 14667
" />
<path d="M54136 9746
L54510 9746
" />
<path d="M54510 9451
L54510 9746
" />
<path d="M59904 9451
L59904 9746
" />
<path d="M59904 9746
L60278 9746
" />
<path d="M59904 14667
L60278 14667
" />
<path d="M59904 14667
L59904 14963
" />
</g>
<g >
</g>
<g style="fill:#000000; fill-opacity:0.0; 
stroke:#000000; stroke-width:118.11; stroke-opacity:1; 
stroke-linecap:round; stroke-linejoin:round;">
<path d="M62010 10388
L67404 10388
" />
<path d="M62010 15900
L67404 15900
" />
<path d="M61636 10684
L61636 15605
" />
<path d="M67778 10684
L67778 15605
" />
<path d="M62010 15605
L62010 15900
" />
<path d="M61636 15605
L62010 15605
" />
<path d="M61636 10684
L62010 10684
" />
<path d="M62010 10388
L62010 10684
" />
<path d="M67404 10388
L67404 10684
" />
<path d="M67404 10684
L67778 10684
" />
<path d="M67404 15605
L67778 15605
" />
<path d="M67404 15605
L67404 15900
" />
</g>
<g >
</g>
<g style="fill:#000000; fill-opacity:0.0; 
stroke:#000000; stroke-width:118.11; stroke-opacity:1; 
stroke-linecap:round; stroke-linejoin:round;">
<path d="M8572 4451
L13966 4451
" />
<path d="M8572 9963
L13966 9963
" />
<path d="M8198 4746
L8198 9667
" />
<path d="M14340 4746
L14340 9667
" />
<path d="M8572 9667
L8572 9963
" />
<path d="M8198 9667
L8572 9667
" />
<path d="M8198 4746
L8572 4746
" />
<path d="M8572 4451
L8572 4746
" />
<path d="M13966 4451
L13966 4746
" />
<path d="M13966 4746
L14340 4746
" />
<path d="M13966 9667
L14340 9667
" />
<path d="M13966 9667
L13966 9963
" />
</g>
<g >
</g>
<g style="fill:#000000; fill-opacity:0.0; 
stroke:#000000; stroke-width:118.11; stroke-opacity:1; 
stroke-linecap:round; stroke-linejoin:round;">
<path d="M16072 4451
L21466 4451
" />
<path d="M16072 9963
L21466 9963
" />
<path d="M15698 4746
L15698 9667
" />
<path d="M21840 4746
L21840 9667
" />
<path d="M16072 9667
L16072 9963
" />
<path d="M15698 9667
L16072 9667
" />
<path d="M15698 4746
L16072 4746
" />
<path d="M16072 4451
L16072 4746
" />
<path d="M21466 4451
L21466 4746
" />
<path d="M21466 4746
L21840 4746
" />
<path d="M21466 9667
L21840 9667
" />
<path d="M21466 9667
L21466 9963
" />
</g>
<g >
</g>
<g style="fill:#000000; fill-opacity:0.0; 
stroke:#000000; stroke-width:118.11; stroke-opacity:1; 
stroke-linecap:round; stroke-linejoin:round;">
<path d="M24510 4451
L29904 4451
" />
<path d="M24510 9963
L29904 9963
" />
<path d="M24136 4746
L24136 9667
" />
<path d="M30278 4746
L30278 9667
" />
<path d="M24510 9667
L24510 9963
" />
<path d="M24136 9667
L24510 9667
" />
<path d="M24136 4746
L24510 4746
" />
<path d="M24510 4451
L24510 4746
" />
<path d="M29904 4451
L29904 4746
" />
<path d="M29904 4746
L30278 4746
" />
<path d="M29904 9667
L30278 9667
" />
<path d="M29904 9667
L29904 9963
" />
</g>
<g >
</g>
<g style="fill:#000000; fill-opacity:0.0; 
stroke:#000000; stroke-width:118.11; stroke-opacity:1; 
stroke-linecap:round; stroke-linejoin:round;">
<path d="M32010 4451
L37404 4451
" />
<path d="M32010 9963
L37404 9963
" />
<path d="M31636 4746
L31636 9667
" />
<path d="M37778 4746
L37778 9667
" />
<path d="M32010 9667
L32010 9963
" />
<path d="M31636 9667
L32010 9667
" />
<path d="M31636 4746
L32010 4746
" />
<path d="M32010 4451
L32010 4746
" />
<path d="M37404 4451
L37404 4746
" />
<path d="M37404 4746
L37778 4746
" />
<path d="M37404 9667
L37778 9667
" />
<path d="M37404 9667
L37404 9963
" />
</g>
<g >
</g>
<g style="fill:#000000; fill-opacity:0.0; 
stroke:#000000; stroke-width:118.11; stroke-opacity:1; 
stroke-linecap:round; stroke-linejoin:round;">
<path d="M39510 1951
L44904 1951
" />
<path d="M39510 7463
L44904 7463
" />
<path d="M39136 2246
L39136 7167
" />
<path d="M45278 2246
L45278 7167
" />
<path d="M39510 7167
L39510 7463
" />
<path d="M39136 7167
L39510 7167
" />
<path d="M39136 2246
L39510 2246
" />
<path d="M39510 1951
L39510 2246
" />
<path d="M44904 1951
L44904 2246
" />
<path d="M44904 2246
L45278 2246
" />
<path d="M44904 7167
L45278 7167
" />
<path d="M44904 7167
L44904 7463
" />
</g>
<g >
</g>
<g style="fill:#000000; fill-opacity:0.0; 
stroke:#000000; stroke-width:118.11; stroke-opacity:1; 
stroke-linecap:round; stroke-linejoin:round;">
<path d="M47010 1013
L52404 1013
" />
<path d="M47010 6525
L52404 6525
" />
<path d="M46636 1309
L46636 6230
" />
<path d="M52778 1309
L52778 6230
" />
<path d="M47010 6230
L47010 6525
" />
<path d="M46636 6230
L47010 6230
" />
<path d="M46636 1309
L47010 1309
" />
<path d="M47010 1013
L47010 1309
" />
<path d="M52404 1013
L52404 1309
" />
<path d="M52404 1309
L52778 1309
" />
<path d="M52404 6230
L52778 6230
" />
<path d="M52404 6230
L52404 6525
" />
</g>
<g >
</g>
<g style="fill:#000000; fill-opacity:0.0; 
stroke:#000000; stroke-width:118.11; stroke-opacity:1; 
stroke-linecap:round; stroke-linejoin:round;">
<path d="M54510 1951
L59904 1951
" />
<path d="M54510 7463
L59904 7463
" />
<path d="M54136 2246
L54136 7167
" />
<path d="M60278 2246
L60278 7167
" />
<path d="M54510 7167
L54510 7463
" />
<path d="M54136 7167
L54510 7167
" />
<path d="M54136 2246
L54510 2246
" />
<path d="M54510 1951
L54510 2246
" />
<path d="M59904 1951
L59904 2246
" />
<path d="M59904 2246
L60278 2246
" />
<path d="M59904 7167
L60278 7167
" />
<path d="M59904 7167
L59904 7463
" />
</g>
<g >
</g>
<g style="fill:#000000; fill-opacity:0.0; 
stroke:#000000; stroke-width:118.11; stroke-opacity:1; 
stroke-linecap:round; stroke-linejoin:round;">
<path d="M62010 2888
L67404 2888
" />
<path d="M62010 8400
L67404 8400
" />
<path d="M61636 3184
L61636 8105
" />
<path d="M67778 3184
L67778 8105
" />
<path d="M62010 8105
L62010 8400
" />
<path d="M61636 8105
L62010 8105
" />
<path d="M61636 3184
L62010 3184
" />
<path d="M62010 2888
L62010 3184
" />
<path d="M67404 2888
L67404 3184
" />
<path d="M67404 3184
L67778 3184
" />
<path d="M67404 8105
L67778 8105
" />
<path d="M67404 8105
L67404 8400
" />
</g>
<g >
</g>
<g style="fill:#000000; fill-opacity:0.0; 
stroke:#000000; stroke-width:118.11; stroke-opacity:1; 
stroke-linecap:round; stroke-linejoin:round;">
</g>
<g style="fill:#000000; fill-opacity:1.0; 
stroke:#000000; stroke-width:0; stroke-opacity:1; 
stroke-linecap:round; stroke-linejoin:round;">
<circle cx="66907.2" cy="34569.7" r="433.071" /> 
</g>
<g style="fill:#000000; fill-opacity:1.0; 
stroke:#000000; stroke-width:39.3701; stroke-opacity:1; 
stroke-linecap:round; stroke-linejoin:round;">
</g>
<g >
</g>
<g style="fill:#000000; fill-opacity:1.0; 
stroke:#000000; stroke-width:39.3701; stroke-opacity:1; 
stroke-linecap:round; stroke-linejoin:round;">
</g>
<g style="fill:#000000; fill-opacity:1.0; 
stroke:#000000; stroke-width:0; stroke-opacity:1; 
stroke-linecap:round; stroke-linejoin:round;">
<circle cx="60957.2" cy="24394.7" r="433.071" /> 
</g>
<g style="fill:#000000; fill-opacity:1.0; 
stroke:#000000; stroke-width:39.3701; stroke-opacity:1; 
stroke-linecap:round; stroke-linejoin:round;">
</g>
<g >
</g>
<g style="fill:#000000; fill-opacity:1.0; 
stroke:#000000; stroke-width:39.3701; stroke-opacity:1; 
stroke-linecap:round; stroke-linejoin:round;">
</g>
<g style="fill:#000000; fill-opacity:1.0; 
stroke:#000000; stroke-width:0; stroke-opacity:1; 
stroke-linecap:round; stroke-linejoin:round;">
<circle cx="30957.2" cy="25957.2" r="433.071" /> 
</g>
<g style="fill:#000000; fill-opacity:1.0; 
stroke:#000000; stroke-width:39.3701; stroke-opacity:1; 
stroke-linecap:round; stroke-linejoin:round;">
</g>
<g >
</g>
<g style="fill:#000000; fill-opacity:1.0; 
stroke:#000000; stroke-width:39.3701; stroke-opacity:1; 
stroke-linecap:round; stroke-linejoin:round;">
</g>
<g style="fill:#000000; fill-opacity:1.0; 
stroke:#000000; stroke-width:0; stroke-opacity:1; 
stroke-linecap:round; stroke-linejoin:round;">
<circle cx="7517.22" cy="25957.2" r="433.071" /> 
</g>
<g style="fill:#000000; fill-opacity:1.0; 
stroke:#000000; stroke-width:39.3701; stroke-opacity:1; 
stroke-linecap:round; stroke-linejoin:round;">
</g>
<g >
</g>
<g style="fill:#000000; fill-opacity:1.0; 
stroke:#000000; stroke-width:39.3701; stroke-opacity:1; 
stroke-linecap:round; stroke-linejoin:round;">
</g>
<g style="fill:#000000; fill-opacity:1.0; 
stroke:#000000; stroke-width:0; stroke-opacity:1; 
stroke-linecap:round; stroke-linejoin:round;">
<circle cx="60957.2" cy="9394.69" r="433.071" /> 
</g>
<g style="fill:#000000; fill-opacity:1.0; 
stroke:#000000; stroke-width:39.3701; stroke-opacity:1; 
stroke-linecap:round; stroke-linejoin:round;">
</g>
<g >
</g>
<g style="fill:#000000; fill-opacity:1.0; 
stroke:#000000; stroke-width:39.3701; stroke-opacity:1; 
stroke-linecap:round; stroke-linejoin:round;">
</g>
<g style="fill:#000000; fill-opacity:1.0; 
stroke:#000000; stroke-width:0; stroke-opacity:1; 
stroke-linecap:round; stroke-linejoin:round;">
<circle cx="30957.2" cy="10957.2" r="433.071" /> 
</g>
<g style="fill:#000000; fill-opacity:1.0; 
stroke:#000000; stroke-width:39.3701; stroke-opacity:1; 
stroke-linecap:round; stroke-linejoin:round;">
</g>
<g >
</g>
<g style="fill:#000000; fill-opacity:1.0; 
stroke:#000000; stroke-width:39.3701; stroke-opacity:1; 
stroke-linecap:round; stroke-linejoin:round;">
</g>
<g style="fill:#000000; fill-opacity:1.0; 
stroke:#000000; stroke-width:0; stroke-opacity:1; 
stroke-linecap:round; stroke-linejoin:round;">
<circle cx="7517.22" cy="10957.2" r="433.071" /> 
</g>
<g style="fill:#000000; fill-opacity:1.0; 
stroke:#000000; stroke-width:39.3701; stroke-opacity:1; 
stroke-linecap:round; stroke-linejoin:round;">
</g>
<g >
</g>
<g >
</g>
<g >
</g>
</g>
<g style="fill:#000000; fill-opacity:1.0; 
stroke:#000000; stroke-width:39.3701; stroke-opacity:1; 
stroke-linecap:round; stroke-linejoin:round;">
</g>
<g style="fill:#000000; fill-opacity:1.0; 
stroke:#000000; stroke-width:19.685; stroke-opacity:1; 
stroke-linecap:round; stroke-linejoin:round;">
</g>
<g style="fill:#000000; fill-opacity:0.0; 
stroke:#000000; stroke-width:19.685; stroke-opacity:1; 
stroke-linecap:round; stroke-linejoin:round;">
<path d="M68467 25244
L68453 2519
" />
<path d="M79167 31394
L68467 25244
" />
<path d="M71617 44444
L79167 31394
" />
<path d="M37417 33394
L37417 38294
" />
<path d="M42167 33394
L37417 33394
" />
<path d="M42167 38294
L42167 33394
" />
<path d="M37417 38294
L42167 38294
" />
<path d="M17 3769
L17 33144
" />
<path d="M329 33457
L35026 33457
" />
<path d="M329 3457
L38150 3457
" />
<path d="M36504 33457
L35026 33457
" />
<path d="M36817 39282
L36817 33769
" />
<path d="M37129 39594
L57207 39594
" />
<path d="M57519 39907
L57519 40332
" />
<path d="M36817.2 39282.3 A312.402 312.402 0.0 0 0 37129.6 39594.7" />
<path d="M65017 40644
L71617 44444
" />
<path d="M57831 40644
L65017 40644
" />
<path d="M57519.6 40332.2 A312.402 312.402 0.0 0 0 57832 40644.6" />
<path d="M57519.6 39907.1 A312.402 312.402 0.0 0 0 57207.2 39594.7" />
<path d="M36817.2 33769.7 A312.402 312.402 0.0 0 0 36504.8 33457.3" />
<path d="M17.3232 33144.8 A312.402 312.402 0.0 0 0 329.725 33457.2" />
<path d="M329.725 3457.19 A312.5 312.5 0.0 0 0 17.2248 3769.69" />
<path d="M38150.7 3457.19 A312.5 312.5 0.0 0 0 38463.2 3144.69" />
<path d="M38462 1269
L38463 3144
" />
<path d="M38775.5 957.185 A312.5 312.5 0.0 0 0 38463 1269.69" />
<path d="M45648 957
L38775 957
" />
<path d="M45648.3 957.185 A312.5 312.5 0.0 0 0 45960.8 644.685" />
<path d="M45960 332
L45960 644
" />
<path d="M46273.1 19.6854 A312.5 312.5 0.0 0 0 45960.6 332.185" />
<path d="M53145 19
L46273 19
" />
<path d="M53458.4 332.185 A312.402 312.402 0.0 0 0 53146 19.7839" />
<path d="M53458 644
L53458 332
" />
<path d="M53458.4 644.685 A312.402 312.402 0.0 0 0 53770.8 957.087" />
<path d="M60643 957
L53770 957
" />
<path d="M60956 1269.69 A312.402 312.402 0.0 0 0 60643.6 957.284" />
<path d="M60956 1582
L60956 1269
" />
<path d="M60956 1582.19 A312.402 312.402 0.0 0 0 61268.4 1894.59" />
<path d="M68141 1894
L61268 1894
" />
<path d="M68453 2207
L68453 2519
" />
<path d="M68453.6 2207.19 A312.402 312.402 0.0 0 0 68141.2 1894.78" />
<g >
</g>
<g >
</g>
<g >
</g>
<g >
</g>
<g >
</g>
<g >
</g>
<g >
</g>
<g >
</g>
<g >
</g>
<g >
</g>
<g >
</g>
<g >
</g>
<g >
</g>
<g >
</g>
<g >
</g>
<g >
</g>
<g >
</g>
<g >
</g>
<g >
</g>
<g >
</g>
<g >
</g>
<g >
</g>
<g >
</g>
<g >
</g>
<g >
</g>
<g >
</g>
<g >
</g>
<g >
</g>
<g >
</g>
<g >
</g>
<g >
</g>
<g >
</g>
<g >
</g>
<g >
</g>
<g >
</g>
<g >
</g>
<g >
</g>
<g >
</g>
<g >
</g>
<g >
</g>
<g >
</g>
<g >
</g>
<g >
</g>
<g >
</g>
<g >
</g>
<g >
</g>
</g> 
</svg>
