<?xml version="1.0" standalone="no"?>
 <!DOCTYPE svg PUBLIC "-//W3C//DTD SVG 1.1//EN" 
 "http://www.w3.org/Graphics/SVG/1.1/DTD/svg11.dtd"> 
<svg
  xmlns:svg="http://www.w3.org/2000/svg"
  xmlns="http://www.w3.org/2000/svg"
  xmlns:xlink="http://www.w3.org/1999/xlink"
  version="1.1"
  width="22.014180cm" height="11.290300cm" viewBox="0 0 86670 44450">
<title>SVG Picture created as wren-numpad-top-brd.svg date 2021/09/08 23:28:29 </title>
  <desc>Picture generated by PCBNEW </desc>
<g style="fill:#000000; fill-opacity:1;stroke:#000000; stroke-opacity:1;
stroke-linecap:round; stroke-linejoin:round;"
 transform="translate(0 0) scale(1 1)">
</g>
<g style="fill:#000000; fill-opacity:0.0; 
stroke:#000000; stroke-width:-0.000393701; stroke-opacity:1; 
stroke-linecap:round; stroke-linejoin:round;">
<g >
</g>
<g style="fill:#000000; fill-opacity:0.0; 
stroke:#000000; stroke-width:120; stroke-opacity:1; 
stroke-linecap:round; stroke-linejoin:round;">
<path d="M79307 31062
L78996 30882
" />
<path d="M79847 30127
L79536 29947
" />
<path d="M75147 38267
L74836 38087
" />
</g>
<g style="fill:#000000; fill-opacity:0.0; 
stroke:#000000; stroke-width:118.11; stroke-opacity:1; 
stroke-linecap:round; stroke-linejoin:round;">
<path d="M80709 29231
L80453 29083
" />
</g>
<g style="fill:#000000; fill-opacity:0.0; 
stroke:#000000; stroke-width:120; stroke-opacity:1; 
stroke-linecap:round; stroke-linejoin:round;">
<path d="M74836 38087
L74296 39023
" />
<path d="M79536 29947
L78996 30882
" />
</g>
<g style="fill:#000000; fill-opacity:0.0; 
stroke:#000000; stroke-width:118.11; stroke-opacity:1; 
stroke-linecap:round; stroke-linejoin:round;">
<path d="M85227 31839
L78780 43005
" />
<path d="M78524 42858
L78337 43182
" />
<path d="M74262 40397
L74075 40721
" />
<path d="M74262 40397
L74007 40249
" />
<path d="M78780 43005
L78524 42858
" />
<path d="M78337 43182
L74075 40721
" />
<path d="M80453 29083
L74007 40249
" />
<path d="M85158 31367
L80896 28907
" />
</g>
<g style="fill:#000000; fill-opacity:0.0; 
stroke:#000000; stroke-width:120; stroke-opacity:1; 
stroke-linecap:round; stroke-linejoin:round;">
<path d="M74607 39203
L74296 39023
" />
</g>
<g style="fill:#000000; fill-opacity:0.0; 
stroke:#000000; stroke-width:118.11; stroke-opacity:1; 
stroke-linecap:round; stroke-linejoin:round;">
<path d="M80896 28907
L80709 29231
" />
<path d="M85158 31367
L84971 31691
" />
<path d="M85227 31839
L84971 31691
" />
</g>
<g >
</g>
<g style="fill:#000000; fill-opacity:0.0; 
stroke:#000000; stroke-width:118.11; stroke-opacity:1; 
stroke-linecap:round; stroke-linejoin:round;">
<path d="M69510 17888
L74904 17888
" />
<path d="M69510 23400
L74904 23400
" />
<path d="M69136 18184
L69136 23105
" />
<path d="M75278 18184
L75278 23105
" />
<path d="M69510 23105
L69510 23400
" />
<path d="M69136 23105
L69510 23105
" />
<path d="M69136 18184
L69510 18184
" />
<path d="M69510 17888
L69510 18184
" />
<path d="M74904 17888
L74904 18184
" />
<path d="M74904 18184
L75278 18184
" />
<path d="M74904 23105
L75278 23105
" />
<path d="M74904 23105
L74904 23400
" />
</g>
<g >
</g>
<g style="fill:#000000; fill-opacity:0.0; 
stroke:#000000; stroke-width:118.11; stroke-opacity:1; 
stroke-linecap:round; stroke-linejoin:round;">
<path d="M1072 4451
L6466 4451
" />
<path d="M1072 9963
L6466 9963
" />
<path d="M698 4746
L698 9667
" />
<path d="M6840 4746
L6840 9667
" />
<path d="M1072 9667
L1072 9963
" />
<path d="M698 9667
L1072 9667
" />
<path d="M698 4746
L1072 4746
" />
<path d="M1072 4451
L1072 4746
" />
<path d="M6466 4451
L6466 4746
" />
<path d="M6466 4746
L6840 4746
" />
<path d="M6466 9667
L6840 9667
" />
<path d="M6466 9667
L6466 9963
" />
</g>
<g >
</g>
<g style="fill:#000000; fill-opacity:0.0; 
stroke:#000000; stroke-width:118.11; stroke-opacity:1; 
stroke-linecap:round; stroke-linejoin:round;">
<path d="M39510 11951
L44904 11951
" />
<path d="M39510 17463
L44904 17463
" />
<path d="M39136 12246
L39136 17167
" />
<path d="M45278 12246
L45278 17167
" />
<path d="M39510 17167
L39510 17463
" />
<path d="M39136 17167
L39510 17167
" />
<path d="M39136 12246
L39510 12246
" />
<path d="M39510 11951
L39510 12246
" />
<path d="M44904 11951
L44904 12246
" />
<path d="M44904 12246
L45278 12246
" />
<path d="M44904 17167
L45278 17167
" />
<path d="M44904 17167
L44904 17463
" />
</g>
<g >
</g>
<g style="fill:#000000; fill-opacity:0.0; 
stroke:#000000; stroke-width:118.11; stroke-opacity:1; 
stroke-linecap:round; stroke-linejoin:round;">
<path d="M51070 33088
L56464 33088
" />
<path d="M51070 38600
L56464 38600
" />
<path d="M50696 33384
L50696 38305
" />
<path d="M56838 33384
L56838 38305
" />
<path d="M51070 38305
L51070 38600
" />
<path d="M50696 38305
L51070 38305
" />
<path d="M50696 33384
L51070 33384
" />
<path d="M51070 33088
L51070 33384
" />
<path d="M56464 33088
L56464 33384
" />
<path d="M56464 33384
L56838 33384
" />
<path d="M56464 38305
L56838 38305
" />
<path d="M56464 38305
L56464 38600
" />
</g>
<g >
</g>
<g style="fill:#000000; fill-opacity:0.0; 
stroke:#000000; stroke-width:118.11; stroke-opacity:1; 
stroke-linecap:round; stroke-linejoin:round;">
<path d="M58570 33088
L63964 33088
" />
<path d="M58570 38600
L63964 38600
" />
<path d="M58196 33384
L58196 38305
" />
<path d="M64338 33384
L64338 38305
" />
<path d="M58570 38305
L58570 38600
" />
<path d="M58196 38305
L58570 38305
" />
<path d="M58196 33384
L58570 33384
" />
<path d="M58570 33088
L58570 33384
" />
<path d="M63964 33088
L63964 33384
" />
<path d="M63964 33384
L64338 33384
" />
<path d="M63964 38305
L64338 38305
" />
<path d="M63964 38305
L63964 38600
" />
</g>
<g >
</g>
<g style="fill:#000000; fill-opacity:0.0; 
stroke:#000000; stroke-width:118.11; stroke-opacity:1; 
stroke-linecap:round; stroke-linejoin:round;">
<path d="M66070 34138
L71464 34138
" />
<path d="M66070 39650
L71464 39650
" />
<path d="M65696 34434
L65696 39355
" />
<path d="M71838 34434
L71838 39355
" />
<path d="M66070 39355
L66070 39650
" />
<path d="M65696 39355
L66070 39355
" />
<path d="M65696 34434
L66070 34434
" />
<path d="M66070 34138
L66070 34434
" />
<path d="M71464 34138
L71464 34434
" />
<path d="M71464 34434
L71838 34434
" />
<path d="M71464 39355
L71838 39355
" />
<path d="M71464 39355
L71464 39650
" />
</g>
<g >
</g>
<g style="fill:#000000; fill-opacity:0.0; 
stroke:#000000; stroke-width:118.11; stroke-opacity:1; 
stroke-linecap:round; stroke-linejoin:round;">
<path d="M1072 26951
L6466 26951
" />
<path d="M1072 32463
L6466 32463
" />
<path d="M698 27246
L698 32167
" />
<path d="M6840 27246
L6840 32167
" />
<path d="M1072 32167
L1072 32463
" />
<path d="M698 32167
L1072 32167
" />
<path d="M698 27246
L1072 27246
" />
<path d="M1072 26951
L1072 27246
" />
<path d="M6466 26951
L6466 27246
" />
<path d="M6466 27246
L6840 27246
" />
<path d="M6466 32167
L6840 32167
" />
<path d="M6466 32167
L6466 32463
" />
</g>
<g >
</g>
<g style="fill:#000000; fill-opacity:0.0; 
stroke:#000000; stroke-width:118.11; stroke-opacity:1; 
stroke-linecap:round; stroke-linejoin:round;">
<path d="M8572 26951
L13966 26951
" />
<path d="M8572 32463
L13966 32463
" />
<path d="M8198 27246
L8198 32167
" />
<path d="M14340 27246
L14340 32167
" />
<path d="M8572 32167
L8572 32463
" />
<path d="M8198 32167
L8572 32167
" />
<path d="M8198 27246
L8572 27246
" />
<path d="M8572 26951
L8572 27246
" />
<path d="M13966 26951
L13966 27246
" />
<path d="M13966 27246
L14340 27246
" />
<path d="M13966 32167
L14340 32167
" />
<path d="M13966 32167
L13966 32463
" />
</g>
<g >
</g>
<g style="fill:#000000; fill-opacity:0.0; 
stroke:#000000; stroke-width:118.11; stroke-opacity:1; 
stroke-linecap:round; stroke-linejoin:round;">
<path d="M16072 26951
L21466 26951
" />
<path d="M16072 32463
L21466 32463
" />
<path d="M15698 27246
L15698 32167
" />
<path d="M21840 27246
L21840 32167
" />
<path d="M16072 32167
L16072 32463
" />
<path d="M15698 32167
L16072 32167
" />
<path d="M15698 27246
L16072 27246
" />
<path d="M16072 26951
L16072 27246
" />
<path d="M21466 26951
L21466 27246
" />
<path d="M21466 27246
L21840 27246
" />
<path d="M21466 32167
L21840 32167
" />
<path d="M21466 32167
L21466 32463
" />
</g>
<g >
</g>
<g style="fill:#000000; fill-opacity:0.0; 
stroke:#000000; stroke-width:118.11; stroke-opacity:1; 
stroke-linecap:round; stroke-linejoin:round;">
<path d="M23572 26951
L28966 26951
" />
<path d="M23572 32463
L28966 32463
" />
<path d="M23198 27246
L23198 32167
" />
<path d="M29340 27246
L29340 32167
" />
<path d="M23572 32167
L23572 32463
" />
<path d="M23198 32167
L23572 32167
" />
<path d="M23198 27246
L23572 27246
" />
<path d="M23572 26951
L23572 27246
" />
<path d="M28966 26951
L28966 27246
" />
<path d="M28966 27246
L29340 27246
" />
<path d="M28966 32167
L29340 32167
" />
<path d="M28966 32167
L28966 32463
" />
</g>
<g >
</g>
<g style="fill:#000000; fill-opacity:0.0; 
stroke:#000000; stroke-width:118.11; stroke-opacity:1; 
stroke-linecap:round; stroke-linejoin:round;">
<path d="M32010 26951
L37404 26951
" />
<path d="M32010 32463
L37404 32463
" />
<path d="M31636 27246
L31636 32167
" />
<path d="M37778 27246
L37778 32167
" />
<path d="M32010 32167
L32010 32463
" />
<path d="M31636 32167
L32010 32167
" />
<path d="M31636 27246
L32010 27246
" />
<path d="M32010 26951
L32010 27246
" />
<path d="M37404 26951
L37404 27246
" />
<path d="M37404 27246
L37778 27246
" />
<path d="M37404 32167
L37778 32167
" />
<path d="M37404 32167
L37404 32463
" />
</g>
<g >
</g>
<g style="fill:#000000; fill-opacity:0.0; 
stroke:#000000; stroke-width:118.11; stroke-opacity:1; 
stroke-linecap:round; stroke-linejoin:round;">
<path d="M39510 26951
L44904 26951
" />
<path d="M39510 32463
L44904 32463
" />
<path d="M39136 27246
L39136 32167
" />
<path d="M45278 27246
L45278 32167
" />
<path d="M39510 32167
L39510 32463
" />
<path d="M39136 32167
L39510 32167
" />
<path d="M39136 27246
L39510 27246
" />
<path d="M39510 26951
L39510 27246
" />
<path d="M44904 26951
L44904 27246
" />
<path d="M44904 27246
L45278 27246
" />
<path d="M44904 32167
L45278 32167
" />
<path d="M44904 32167
L44904 32463
" />
</g>
<g >
</g>
<g style="fill:#000000; fill-opacity:0.0; 
stroke:#000000; stroke-width:118.11; stroke-opacity:1; 
stroke-linecap:round; stroke-linejoin:round;">
<path d="M47010 24451
L52404 24451
" />
<path d="M47010 29963
L52404 29963
" />
<path d="M46636 24746
L46636 29667
" />
<path d="M52778 24746
L52778 29667
" />
<path d="M47010 29667
L47010 29963
" />
<path d="M46636 29667
L47010 29667
" />
<path d="M46636 24746
L47010 24746
" />
<path d="M47010 24451
L47010 24746
" />
<path d="M52404 24451
L52404 24746
" />
<path d="M52404 24746
L52778 24746
" />
<path d="M52404 29667
L52778 29667
" />
<path d="M52404 29667
L52404 29963
" />
</g>
<g >
</g>
<g style="fill:#000000; fill-opacity:0.0; 
stroke:#000000; stroke-width:118.11; stroke-opacity:1; 
stroke-linecap:round; stroke-linejoin:round;">
<path d="M54510 23513
L59904 23513
" />
<path d="M54510 29025
L59904 29025
" />
<path d="M54136 23809
L54136 28730
" />
<path d="M60278 23809
L60278 28730
" />
<path d="M54510 28730
L54510 29025
" />
<path d="M54136 28730
L54510 28730
" />
<path d="M54136 23809
L54510 23809
" />
<path d="M54510 23513
L54510 23809
" />
<path d="M59904 23513
L59904 23809
" />
<path d="M59904 23809
L60278 23809
" />
<path d="M59904 28730
L60278 28730
" />
<path d="M59904 28730
L59904 29025
" />
</g>
<g >
</g>
<g style="fill:#000000; fill-opacity:0.0; 
stroke:#000000; stroke-width:118.11; stroke-opacity:1; 
stroke-linecap:round; stroke-linejoin:round;">
<path d="M62010 24451
L67404 24451
" />
<path d="M62010 29963
L67404 29963
" />
<path d="M61636 24746
L61636 29667
" />
<path d="M67778 24746
L67778 29667
" />
<path d="M62010 29667
L62010 29963
" />
<path d="M61636 29667
L62010 29667
" />
<path d="M61636 24746
L62010 24746
" />
<path d="M62010 24451
L62010 24746
" />
<path d="M67404 24451
L67404 24746
" />
<path d="M67404 24746
L67778 24746
" />
<path d="M67404 29667
L67778 29667
" />
<path d="M67404 29667
L67404 29963
" />
</g>
<g >
</g>
<g style="fill:#000000; fill-opacity:0.0; 
stroke:#000000; stroke-width:118.11; stroke-opacity:1; 
stroke-linecap:round; stroke-linejoin:round;">
<path d="M69510 25388
L74904 25388
" />
<path d="M69510 30900
L74904 30900
" />
<path d="M69136 25684
L69136 30605
" />
<path d="M75278 25684
L75278 30605
" />
<path d="M69510 30605
L69510 30900
" />
<path d="M69136 30605
L69510 30605
" />
<path d="M69136 25684
L69510 25684
" />
<path d="M69510 25388
L69510 25684
" />
<path d="M74904 25388
L74904 25684
" />
<path d="M74904 25684
L75278 25684
" />
<path d="M74904 30605
L75278 30605
" />
<path d="M74904 30605
L74904 30900
" />
</g>
<g >
</g>
<g style="fill:#000000; fill-opacity:0.0; 
stroke:#000000; stroke-width:118.11; stroke-opacity:1; 
stroke-linecap:round; stroke-linejoin:round;">
<path d="M1072 19451
L6466 19451
" />
<path d="M1072 24963
L6466 24963
" />
<path d="M698 19746
L698 24667
" />
<path d="M6840 19746
L6840 24667
" />
<path d="M1072 24667
L1072 24963
" />
<path d="M698 24667
L1072 24667
" />
<path d="M698 19746
L1072 19746
" />
<path d="M1072 19451
L1072 19746
" />
<path d="M6466 19451
L6466 19746
" />
<path d="M6466 19746
L6840 19746
" />
<path d="M6466 24667
L6840 24667
" />
<path d="M6466 24667
L6466 24963
" />
</g>
<g >
</g>
<g style="fill:#000000; fill-opacity:0.0; 
stroke:#000000; stroke-width:118.11; stroke-opacity:1; 
stroke-linecap:round; stroke-linejoin:round;">
<path d="M8572 19451
L13966 19451
" />
<path d="M8572 24963
L13966 24963
" />
<path d="M8198 19746
L8198 24667
" />
<path d="M14340 19746
L14340 24667
" />
<path d="M8572 24667
L8572 24963
" />
<path d="M8198 24667
L8572 24667
" />
<path d="M8198 19746
L8572 19746
" />
<path d="M8572 19451
L8572 19746
" />
<path d="M13966 19451
L13966 19746
" />
<path d="M13966 19746
L14340 19746
" />
<path d="M13966 24667
L14340 24667
" />
<path d="M13966 24667
L13966 24963
" />
</g>
<g >
</g>
<g style="fill:#000000; fill-opacity:0.0; 
stroke:#000000; stroke-width:118.11; stroke-opacity:1; 
stroke-linecap:round; stroke-linejoin:round;">
<path d="M16072 19451
L21466 19451
" />
<path d="M16072 24963
L21466 24963
" />
<path d="M15698 19746
L15698 24667
" />
<path d="M21840 19746
L21840 24667
" />
<path d="M16072 24667
L16072 24963
" />
<path d="M15698 24667
L16072 24667
" />
<path d="M15698 19746
L16072 19746
" />
<path d="M16072 19451
L16072 19746
" />
<path d="M21466 19451
L21466 19746
" />
<path d="M21466 19746
L21840 19746
" />
<path d="M21466 24667
L21840 24667
" />
<path d="M21466 24667
L21466 24963
" />
</g>
<g >
</g>
<g style="fill:#000000; fill-opacity:0.0; 
stroke:#000000; stroke-width:118.11; stroke-opacity:1; 
stroke-linecap:round; stroke-linejoin:round;">
<path d="M23572 19451
L28966 19451
" />
<path d="M23572 24963
L28966 24963
" />
<path d="M23198 19746
L23198 24667
" />
<path d="M29340 19746
L29340 24667
" />
<path d="M23572 24667
L23572 24963
" />
<path d="M23198 24667
L23572 24667
" />
<path d="M23198 19746
L23572 19746
" />
<path d="M23572 19451
L23572 19746
" />
<path d="M28966 19451
L28966 19746
" />
<path d="M28966 19746
L29340 19746
" />
<path d="M28966 24667
L29340 24667
" />
<path d="M28966 24667
L28966 24963
" />
</g>
<g >
</g>
<g style="fill:#000000; fill-opacity:0.0; 
stroke:#000000; stroke-width:118.11; stroke-opacity:1; 
stroke-linecap:round; stroke-linejoin:round;">
<path d="M32010 19451
L37404 19451
" />
<path d="M32010 24963
L37404 24963
" />
<path d="M31636 19746
L31636 24667
" />
<path d="M37778 19746
L37778 24667
" />
<path d="M32010 24667
L32010 24963
" />
<path d="M31636 24667
L32010 24667
" />
<path d="M31636 19746
L32010 19746
" />
<path d="M32010 19451
L32010 19746
" />
<path d="M37404 19451
L37404 19746
" />
<path d="M37404 19746
L37778 19746
" />
<path d="M37404 24667
L37778 24667
" />
<path d="M37404 24667
L37404 24963
" />
</g>
<g >
</g>
<g style="fill:#000000; fill-opacity:0.0; 
stroke:#000000; stroke-width:118.11; stroke-opacity:1; 
stroke-linecap:round; stroke-linejoin:round;">
<path d="M39510 19451
L44904 19451
" />
<path d="M39510 24963
L44904 24963
" />
<path d="M39136 19746
L39136 24667
" />
<path d="M45278 19746
L45278 24667
" />
<path d="M39510 24667
L39510 24963
" />
<path d="M39136 24667
L39510 24667
" />
<path d="M39136 19746
L39510 19746
" />
<path d="M39510 19451
L39510 19746
" />
<path d="M44904 19451
L44904 19746
" />
<path d="M44904 19746
L45278 19746
" />
<path d="M44904 24667
L45278 24667
" />
<path d="M44904 24667
L44904 24963
" />
</g>
<g >
</g>
<g style="fill:#000000; fill-opacity:0.0; 
stroke:#000000; stroke-width:118.11; stroke-opacity:1; 
stroke-linecap:round; stroke-linejoin:round;">
<path d="M47010 16951
L52404 16951
" />
<path d="M47010 22463
L52404 22463
" />
<path d="M46636 17246
L46636 22167
" />
<path d="M52778 17246
L52778 22167
" />
<path d="M47010 22167
L47010 22463
" />
<path d="M46636 22167
L47010 22167
" />
<path d="M46636 17246
L47010 17246
" />
<path d="M47010 16951
L47010 17246
" />
<path d="M52404 16951
L52404 17246
" />
<path d="M52404 17246
L52778 17246
" />
<path d="M52404 22167
L52778 22167
" />
<path d="M52404 22167
L52404 22463
" />
</g>
<g >
</g>
<g style="fill:#000000; fill-opacity:0.0; 
stroke:#000000; stroke-width:118.11; stroke-opacity:1; 
stroke-linecap:round; stroke-linejoin:round;">
<path d="M54510 16013
L59904 16013
" />
<path d="M54510 21525
L59904 21525
" />
<path d="M54136 16309
L54136 21230
" />
<path d="M60278 16309
L60278 21230
" />
<path d="M54510 21230
L54510 21525
" />
<path d="M54136 21230
L54510 21230
" />
<path d="M54136 16309
L54510 16309
" />
<path d="M54510 16013
L54510 16309
" />
<path d="M59904 16013
L59904 16309
" />
<path d="M59904 16309
L60278 16309
" />
<path d="M59904 21230
L60278 21230
" />
<path d="M59904 21230
L59904 21525
" />
</g>
<g >
</g>
<g style="fill:#000000; fill-opacity:0.0; 
stroke:#000000; stroke-width:118.11; stroke-opacity:1; 
stroke-linecap:round; stroke-linejoin:round;">
<path d="M62010 16951
L67404 16951
" />
<path d="M62010 22463
L67404 22463
" />
<path d="M61636 17246
L61636 22167
" />
<path d="M67778 17246
L67778 22167
" />
<path d="M62010 22167
L62010 22463
" />
<path d="M61636 22167
L62010 22167
" />
<path d="M61636 17246
L62010 17246
" />
<path d="M62010 16951
L62010 17246
" />
<path d="M67404 16951
L67404 17246
" />
<path d="M67404 17246
L67778 17246
" />
<path d="M67404 22167
L67778 22167
" />
<path d="M67404 22167
L67404 22463
" />
</g>
<g >
</g>
<g style="fill:#000000; fill-opacity:0.0; 
stroke:#000000; stroke-width:118.11; stroke-opacity:1; 
stroke-linecap:round; stroke-linejoin:round;">
<path d="M1072 11951
L6466 11951
" />
<path d="M1072 17463
L6466 17463
" />
<path d="M698 12246
L698 17167
" />
<path d="M6840 12246
L6840 17167
" />
<path d="M1072 17167
L1072 17463
" />
<path d="M698 17167
L1072 17167
" />
<path d="M698 12246
L1072 12246
" />
<path d="M1072 11951
L1072 12246
" />
<path d="M6466 11951
L6466 12246
" />
<path d="M6466 12246
L6840 12246
" />
<path d="M6466 17167
L6840 17167
" />
<path d="M6466 17167
L6466 17463
" />
</g>
<g >
</g>
<g style="fill:#000000; fill-opacity:0.0; 
stroke:#000000; stroke-width:118.11; stroke-opacity:1; 
stroke-linecap:round; stroke-linejoin:round;">
<path d="M8572 11951
L13966 11951
" />
<path d="M8572 17463
L13966 17463
" />
<path d="M8198 12246
L8198 17167
" />
<path d="M14340 12246
L14340 17167
" />
<path d="M8572 17167
L8572 17463
" />
<path d="M8198 17167
L8572 17167
" />
<path d="M8198 12246
L8572 12246
" />
<path d="M8572 11951
L8572 12246
" />
<path d="M13966 11951
L13966 12246
" />
<path d="M13966 12246
L14340 12246
" />
<path d="M13966 17167
L14340 17167
" />
<path d="M13966 17167
L13966 17463
" />
</g>
<g >
</g>
<g style="fill:#000000; fill-opacity:0.0; 
stroke:#000000; stroke-width:118.11; stroke-opacity:1; 
stroke-linecap:round; stroke-linejoin:round;">
<path d="M16072 11951
L21466 11951
" />
<path d="M16072 17463
L21466 17463
" />
<path d="M15698 12246
L15698 17167
" />
<path d="M21840 12246
L21840 17167
" />
<path d="M16072 17167
L16072 17463
" />
<path d="M15698 17167
L16072 17167
" />
<path d="M15698 12246
L16072 12246
" />
<path d="M16072 11951
L16072 12246
" />
<path d="M21466 11951
L21466 12246
" />
<path d="M21466 12246
L21840 12246
" />
<path d="M21466 17167
L21840 17167
" />
<path d="M21466 17167
L21466 17463
" />
</g>
<g >
</g>
<g style="fill:#000000; fill-opacity:0.0; 
stroke:#000000; stroke-width:118.11; stroke-opacity:1; 
stroke-linecap:round; stroke-linejoin:round;">
<path d="M23572 11951
L28966 11951
" />
<path d="M23572 17463
L28966 17463
" />
<path d="M23198 12246
L23198 17167
" />
<path d="M29340 12246
L29340 17167
" />
<path d="M23572 17167
L23572 17463
" />
<path d="M23198 17167
L23572 17167
" />
<path d="M23198 12246
L23572 12246
" />
<path d="M23572 11951
L23572 12246
" />
<path d="M28966 11951
L28966 12246
" />
<path d="M28966 12246
L29340 12246
" />
<path d="M28966 17167
L29340 17167
" />
<path d="M28966 17167
L28966 17463
" />
</g>
<g >
</g>
<g style="fill:#000000; fill-opacity:0.0; 
stroke:#000000; stroke-width:118.11; stroke-opacity:1; 
stroke-linecap:round; stroke-linejoin:round;">
<path d="M32010 11951
L37404 11951
" />
<path d="M32010 17463
L37404 17463
" />
<path d="M31636 12246
L31636 17167
" />
<path d="M37778 12246
L37778 17167
" />
<path d="M32010 17167
L32010 17463
" />
<path d="M31636 17167
L32010 17167
" />
<path d="M31636 12246
L32010 12246
" />
<path d="M32010 11951
L32010 12246
" />
<path d="M37404 11951
L37404 12246
" />
<path d="M37404 12246
L37778 12246
" />
<path d="M37404 17167
L37778 17167
" />
<path d="M37404 17167
L37404 17463
" />
</g>
<g >
</g>
<g style="fill:#000000; fill-opacity:0.0; 
stroke:#000000; stroke-width:118.11; stroke-opacity:1; 
stroke-linecap:round; stroke-linejoin:round;">
<path d="M47010 9451
L52404 9451
" />
<path d="M47010 14963
L52404 14963
" />
<path d="M46636 9746
L46636 14667
" />
<path d="M52778 9746
L52778 14667
" />
<path d="M47010 14667
L47010 14963
" />
<path d="M46636 14667
L47010 14667
" />
<path d="M46636 9746
L47010 9746
" />
<path d="M47010 9451
L47010 9746
" />
<path d="M52404 9451
L52404 9746
" />
<path d="M52404 9746
L52778 9746
" />
<path d="M52404 14667
L52778 14667
" />
<path d="M52404 14667
L52404 14963
" />
</g>
<g >
</g>
<g style="fill:#000000; fill-opacity:0.0; 
stroke:#000000; stroke-width:118.11; stroke-opacity:1; 
stroke-linecap:round; stroke-linejoin:round;">
<path d="M54510 8513
L59904 8513
" />
<path d="M54510 14025
L59904 14025
" />
<path d="M54136 8809
L54136 13730
" />
<path d="M60278 8809
L60278 13730
" />
<path d="M54510 13730
L54510 14025
" />
<path d="M54136 13730
L54510 13730
" />
<path d="M54136 8809
L54510 8809
" />
<path d="M54510 8513
L54510 8809
" />
<path d="M59904 8513
L59904 8809
" />
<path d="M59904 8809
L60278 8809
" />
<path d="M59904 13730
L60278 13730
" />
<path d="M59904 13730
L59904 14025
" />
</g>
<g >
</g>
<g style="fill:#000000; fill-opacity:0.0; 
stroke:#000000; stroke-width:118.11; stroke-opacity:1; 
stroke-linecap:round; stroke-linejoin:round;">
<path d="M62010 9451
L67404 9451
" />
<path d="M62010 14963
L67404 14963
" />
<path d="M61636 9746
L61636 14667
" />
<path d="M67778 9746
L67778 14667
" />
<path d="M62010 14667
L62010 14963
" />
<path d="M61636 14667
L62010 14667
" />
<path d="M61636 9746
L62010 9746
" />
<path d="M62010 9451
L62010 9746
" />
<path d="M67404 9451
L67404 9746
" />
<path d="M67404 9746
L67778 9746
" />
<path d="M67404 14667
L67778 14667
" />
<path d="M67404 14667
L67404 14963
" />
</g>
<g >
</g>
<g style="fill:#000000; fill-opacity:0.0; 
stroke:#000000; stroke-width:118.11; stroke-opacity:1; 
stroke-linecap:round; stroke-linejoin:round;">
<path d="M69510 10388
L74904 10388
" />
<path d="M69510 15900
L74904 15900
" />
<path d="M69136 10684
L69136 15605
" />
<path d="M75278 10684
L75278 15605
" />
<path d="M69510 15605
L69510 15900
" />
<path d="M69136 15605
L69510 15605
" />
<path d="M69136 10684
L69510 10684
" />
<path d="M69510 10388
L69510 10684
" />
<path d="M74904 10388
L74904 10684
" />
<path d="M74904 10684
L75278 10684
" />
<path d="M74904 15605
L75278 15605
" />
<path d="M74904 15605
L74904 15900
" />
</g>
<g >
</g>
<g style="fill:#000000; fill-opacity:0.0; 
stroke:#000000; stroke-width:118.11; stroke-opacity:1; 
stroke-linecap:round; stroke-linejoin:round;">
<path d="M8572 4451
L13966 4451
" />
<path d="M8572 9963
L13966 9963
" />
<path d="M8198 4746
L8198 9667
" />
<path d="M14340 4746
L14340 9667
" />
<path d="M8572 9667
L8572 9963
" />
<path d="M8198 9667
L8572 9667
" />
<path d="M8198 4746
L8572 4746
" />
<path d="M8572 4451
L8572 4746
" />
<path d="M13966 4451
L13966 4746
" />
<path d="M13966 4746
L14340 4746
" />
<path d="M13966 9667
L14340 9667
" />
<path d="M13966 9667
L13966 9963
" />
</g>
<g >
</g>
<g style="fill:#000000; fill-opacity:0.0; 
stroke:#000000; stroke-width:118.11; stroke-opacity:1; 
stroke-linecap:round; stroke-linejoin:round;">
<path d="M16072 4451
L21466 4451
" />
<path d="M16072 9963
L21466 9963
" />
<path d="M15698 4746
L15698 9667
" />
<path d="M21840 4746
L21840 9667
" />
<path d="M16072 9667
L16072 9963
" />
<path d="M15698 9667
L16072 9667
" />
<path d="M15698 4746
L16072 4746
" />
<path d="M16072 4451
L16072 4746
" />
<path d="M21466 4451
L21466 4746
" />
<path d="M21466 4746
L21840 4746
" />
<path d="M21466 9667
L21840 9667
" />
<path d="M21466 9667
L21466 9963
" />
</g>
<g >
</g>
<g style="fill:#000000; fill-opacity:0.0; 
stroke:#000000; stroke-width:118.11; stroke-opacity:1; 
stroke-linecap:round; stroke-linejoin:round;">
<path d="M23572 4451
L28966 4451
" />
<path d="M23572 9963
L28966 9963
" />
<path d="M23198 4746
L23198 9667
" />
<path d="M29340 4746
L29340 9667
" />
<path d="M23572 9667
L23572 9963
" />
<path d="M23198 9667
L23572 9667
" />
<path d="M23198 4746
L23572 4746
" />
<path d="M23572 4451
L23572 4746
" />
<path d="M28966 4451
L28966 4746
" />
<path d="M28966 4746
L29340 4746
" />
<path d="M28966 9667
L29340 9667
" />
<path d="M28966 9667
L28966 9963
" />
</g>
<g >
</g>
<g style="fill:#000000; fill-opacity:0.0; 
stroke:#000000; stroke-width:118.11; stroke-opacity:1; 
stroke-linecap:round; stroke-linejoin:round;">
<path d="M32010 4451
L37404 4451
" />
<path d="M32010 9963
L37404 9963
" />
<path d="M31636 4746
L31636 9667
" />
<path d="M37778 4746
L37778 9667
" />
<path d="M32010 9667
L32010 9963
" />
<path d="M31636 9667
L32010 9667
" />
<path d="M31636 4746
L32010 4746
" />
<path d="M32010 4451
L32010 4746
" />
<path d="M37404 4451
L37404 4746
" />
<path d="M37404 4746
L37778 4746
" />
<path d="M37404 9667
L37778 9667
" />
<path d="M37404 9667
L37404 9963
" />
</g>
<g >
</g>
<g style="fill:#000000; fill-opacity:0.0; 
stroke:#000000; stroke-width:118.11; stroke-opacity:1; 
stroke-linecap:round; stroke-linejoin:round;">
<path d="M39510 4451
L44904 4451
" />
<path d="M39510 9963
L44904 9963
" />
<path d="M39136 4746
L39136 9667
" />
<path d="M45278 4746
L45278 9667
" />
<path d="M39510 9667
L39510 9963
" />
<path d="M39136 9667
L39510 9667
" />
<path d="M39136 4746
L39510 4746
" />
<path d="M39510 4451
L39510 4746
" />
<path d="M44904 4451
L44904 4746
" />
<path d="M44904 4746
L45278 4746
" />
<path d="M44904 9667
L45278 9667
" />
<path d="M44904 9667
L44904 9963
" />
</g>
<g >
</g>
<g style="fill:#000000; fill-opacity:0.0; 
stroke:#000000; stroke-width:118.11; stroke-opacity:1; 
stroke-linecap:round; stroke-linejoin:round;">
<path d="M47010 1951
L52404 1951
" />
<path d="M47010 7463
L52404 7463
" />
<path d="M46636 2246
L46636 7167
" />
<path d="M52778 2246
L52778 7167
" />
<path d="M47010 7167
L47010 7463
" />
<path d="M46636 7167
L47010 7167
" />
<path d="M46636 2246
L47010 2246
" />
<path d="M47010 1951
L47010 2246
" />
<path d="M52404 1951
L52404 2246
" />
<path d="M52404 2246
L52778 2246
" />
<path d="M52404 7167
L52778 7167
" />
<path d="M52404 7167
L52404 7463
" />
</g>
<g >
</g>
<g style="fill:#000000; fill-opacity:0.0; 
stroke:#000000; stroke-width:118.11; stroke-opacity:1; 
stroke-linecap:round; stroke-linejoin:round;">
<path d="M54510 1013
L59904 1013
" />
<path d="M54510 6525
L59904 6525
" />
<path d="M54136 1309
L54136 6230
" />
<path d="M60278 1309
L60278 6230
" />
<path d="M54510 6230
L54510 6525
" />
<path d="M54136 6230
L54510 6230
" />
<path d="M54136 1309
L54510 1309
" />
<path d="M54510 1013
L54510 1309
" />
<path d="M59904 1013
L59904 1309
" />
<path d="M59904 1309
L60278 1309
" />
<path d="M59904 6230
L60278 6230
" />
<path d="M59904 6230
L59904 6525
" />
</g>
<g >
</g>
<g style="fill:#000000; fill-opacity:0.0; 
stroke:#000000; stroke-width:118.11; stroke-opacity:1; 
stroke-linecap:round; stroke-linejoin:round;">
<path d="M62010 1951
L67404 1951
" />
<path d="M62010 7463
L67404 7463
" />
<path d="M61636 2246
L61636 7167
" />
<path d="M67778 2246
L67778 7167
" />
<path d="M62010 7167
L62010 7463
" />
<path d="M61636 7167
L62010 7167
" />
<path d="M61636 2246
L62010 2246
" />
<path d="M62010 1951
L62010 2246
" />
<path d="M67404 1951
L67404 2246
" />
<path d="M67404 2246
L67778 2246
" />
<path d="M67404 7167
L67778 7167
" />
<path d="M67404 7167
L67404 7463
" />
</g>
<g >
</g>
<g style="fill:#000000; fill-opacity:0.0; 
stroke:#000000; stroke-width:118.11; stroke-opacity:1; 
stroke-linecap:round; stroke-linejoin:round;">
<path d="M69510 2888
L74904 2888
" />
<path d="M69510 8400
L74904 8400
" />
<path d="M69136 3184
L69136 8105
" />
<path d="M75278 3184
L75278 8105
" />
<path d="M69510 8105
L69510 8400
" />
<path d="M69136 8105
L69510 8105
" />
<path d="M69136 3184
L69510 3184
" />
<path d="M69510 2888
L69510 3184
" />
<path d="M74904 2888
L74904 3184
" />
<path d="M74904 3184
L75278 3184
" />
<path d="M74904 8105
L75278 8105
" />
<path d="M74904 8105
L74904 8400
" />
</g>
<g >
</g>
<g style="fill:#000000; fill-opacity:0.0; 
stroke:#000000; stroke-width:118.11; stroke-opacity:1; 
stroke-linecap:round; stroke-linejoin:round;">
</g>
<g style="fill:#000000; fill-opacity:1.0; 
stroke:#000000; stroke-width:0; stroke-opacity:1; 
stroke-linecap:round; stroke-linejoin:round;">
<circle cx="74407.2" cy="34569.7" r="433.071" /> 
</g>
<g style="fill:#000000; fill-opacity:1.0; 
stroke:#000000; stroke-width:39.3701; stroke-opacity:1; 
stroke-linecap:round; stroke-linejoin:round;">
</g>
<g >
</g>
<g style="fill:#000000; fill-opacity:1.0; 
stroke:#000000; stroke-width:39.3701; stroke-opacity:1; 
stroke-linecap:round; stroke-linejoin:round;">
</g>
<g style="fill:#000000; fill-opacity:1.0; 
stroke:#000000; stroke-width:0; stroke-opacity:1; 
stroke-linecap:round; stroke-linejoin:round;">
<circle cx="68457.2" cy="24394.7" r="433.071" /> 
</g>
<g style="fill:#000000; fill-opacity:1.0; 
stroke:#000000; stroke-width:39.3701; stroke-opacity:1; 
stroke-linecap:round; stroke-linejoin:round;">
</g>
<g >
</g>
<g style="fill:#000000; fill-opacity:1.0; 
stroke:#000000; stroke-width:39.3701; stroke-opacity:1; 
stroke-linecap:round; stroke-linejoin:round;">
</g>
<g style="fill:#000000; fill-opacity:1.0; 
stroke:#000000; stroke-width:0; stroke-opacity:1; 
stroke-linecap:round; stroke-linejoin:round;">
<circle cx="38457.2" cy="25957.2" r="433.071" /> 
</g>
<g style="fill:#000000; fill-opacity:1.0; 
stroke:#000000; stroke-width:39.3701; stroke-opacity:1; 
stroke-linecap:round; stroke-linejoin:round;">
</g>
<g >
</g>
<g style="fill:#000000; fill-opacity:1.0; 
stroke:#000000; stroke-width:39.3701; stroke-opacity:1; 
stroke-linecap:round; stroke-linejoin:round;">
</g>
<g style="fill:#000000; fill-opacity:1.0; 
stroke:#000000; stroke-width:0; stroke-opacity:1; 
stroke-linecap:round; stroke-linejoin:round;">
<circle cx="15035.3" cy="25957.2" r="433.071" /> 
</g>
<g style="fill:#000000; fill-opacity:1.0; 
stroke:#000000; stroke-width:39.3701; stroke-opacity:1; 
stroke-linecap:round; stroke-linejoin:round;">
</g>
<g >
</g>
<g style="fill:#000000; fill-opacity:1.0; 
stroke:#000000; stroke-width:39.3701; stroke-opacity:1; 
stroke-linecap:round; stroke-linejoin:round;">
</g>
<g style="fill:#000000; fill-opacity:1.0; 
stroke:#000000; stroke-width:0; stroke-opacity:1; 
stroke-linecap:round; stroke-linejoin:round;">
<circle cx="68457.2" cy="9394.69" r="433.071" /> 
</g>
<g style="fill:#000000; fill-opacity:1.0; 
stroke:#000000; stroke-width:39.3701; stroke-opacity:1; 
stroke-linecap:round; stroke-linejoin:round;">
</g>
<g >
</g>
<g style="fill:#000000; fill-opacity:1.0; 
stroke:#000000; stroke-width:39.3701; stroke-opacity:1; 
stroke-linecap:round; stroke-linejoin:round;">
</g>
<g style="fill:#000000; fill-opacity:1.0; 
stroke:#000000; stroke-width:0; stroke-opacity:1; 
stroke-linecap:round; stroke-linejoin:round;">
<circle cx="38457.2" cy="10957.2" r="433.071" /> 
</g>
<g style="fill:#000000; fill-opacity:1.0; 
stroke:#000000; stroke-width:39.3701; stroke-opacity:1; 
stroke-linecap:round; stroke-linejoin:round;">
</g>
<g >
</g>
<g style="fill:#000000; fill-opacity:1.0; 
stroke:#000000; stroke-width:39.3701; stroke-opacity:1; 
stroke-linecap:round; stroke-linejoin:round;">
</g>
<g style="fill:#000000; fill-opacity:1.0; 
stroke:#000000; stroke-width:0; stroke-opacity:1; 
stroke-linecap:round; stroke-linejoin:round;">
<circle cx="15035.3" cy="10957.2" r="433.071" /> 
</g>
<g style="fill:#000000; fill-opacity:1.0; 
stroke:#000000; stroke-width:39.3701; stroke-opacity:1; 
stroke-linecap:round; stroke-linejoin:round;">
</g>
<g >
</g>
<g >
</g>
<g >
</g>
</g>
<g style="fill:#000000; fill-opacity:1.0; 
stroke:#000000; stroke-width:39.3701; stroke-opacity:1; 
stroke-linecap:round; stroke-linejoin:round;">
</g>
<g style="fill:#000000; fill-opacity:1.0; 
stroke:#000000; stroke-width:19.685; stroke-opacity:1; 
stroke-linecap:round; stroke-linejoin:round;">
</g>
<g style="fill:#000000; fill-opacity:0.0; 
stroke:#000000; stroke-width:19.685; stroke-opacity:1; 
stroke-linecap:round; stroke-linejoin:round;">
<path d="M75953 2519
L75967 25244
" />
<path d="M75967 25244
L86667 31394
" />
<path d="M79117 44444
L86667 31394
" />
<path d="M44917 33394
L44917 38294
" />
<path d="M49667 33394
L44917 33394
" />
<path d="M49667 38294
L49667 33394
" />
<path d="M44917 38294
L49667 38294
" />
<path d="M44004 33457
L42526 33457
" />
<path d="M44317 39282
L44317 33769
" />
<path d="M44629 39594
L64707 39594
" />
<path d="M65019 39907
L65019 40332
" />
<path d="M44317.2 39282.3 A312.402 312.402 0.0 0 0 44629.6 39594.7" />
<path d="M72517 40644
L79117 44444
" />
<path d="M65331 40644
L72517 40644
" />
<path d="M65019.6 40332.2 A312.402 312.402 0.0 0 0 65332 40644.6" />
<path d="M65019.6 39907.1 A312.402 312.402 0.0 0 0 64707.2 39594.7" />
<path d="M44317.2 33769.7 A312.402 312.402 0.0 0 0 44004.8 33457.3" />
<path d="M352 33457
L42526 33457
" />
<path d="M40.0594 33144.7 A312.402 312.402 0.0 0 0 352.461 33457.1" />
<path d="M39 3769
L40 33144
" />
<path d="M352.461 3457.19 A312.5 312.5 0.0 0 0 39.961 3769.69" />
<path d="M45650 3457
L352 3457
" />
<path d="M45650.7 3457.19 A312.5 312.5 0.0 0 0 45963.2 3144.69" />
<path d="M45962 1269
L45963 3144
" />
<path d="M46275.5 957.185 A312.5 312.5 0.0 0 0 45963 1269.69" />
<path d="M53148 957
L46275 957
" />
<path d="M53148.3 957.185 A312.5 312.5 0.0 0 0 53460.8 644.685" />
<path d="M53460 332
L53460 644
" />
<path d="M53773.1 19.6854 A312.5 312.5 0.0 0 0 53460.6 332.185" />
<path d="M60645 19
L53773 19
" />
<path d="M60958.4 332.185 A312.402 312.402 0.0 0 0 60646 19.7839" />
<path d="M60958 644
L60958 332
" />
<path d="M60958.4 644.685 A312.402 312.402 0.0 0 0 61270.8 957.087" />
<path d="M68143 957
L61270 957
" />
<path d="M68456 1269.69 A312.402 312.402 0.0 0 0 68143.6 957.284" />
<path d="M68456 1582
L68456 1269
" />
<path d="M68456 1582.19 A312.402 312.402 0.0 0 0 68768.4 1894.59" />
<path d="M75641 1894
L68768 1894
" />
<path d="M75953 2207
L75953 2519
" />
<path d="M75953.6 2207.19 A312.402 312.402 0.0 0 0 75641.2 1894.78" />
<g >
</g>
<g >
</g>
<g >
</g>
<g >
</g>
<g >
</g>
<g >
</g>
<g >
</g>
<g >
</g>
<g >
</g>
<g >
</g>
<g >
</g>
<g >
</g>
<g >
</g>
<g >
</g>
<g >
</g>
<g >
</g>
<g >
</g>
<g >
</g>
<g >
</g>
<g >
</g>
<g >
</g>
<g >
</g>
<g >
</g>
<g >
</g>
<g >
</g>
<g >
</g>
<g >
</g>
<g >
</g>
<g >
</g>
<g >
</g>
<g >
</g>
<g >
</g>
<g >
</g>
<g >
</g>
<g >
</g>
<g >
</g>
<g >
</g>
<g >
</g>
<g >
</g>
<g >
</g>
<g >
</g>
<g >
</g>
<g >
</g>
<g >
</g>
<g >
</g>
<g >
</g>
<g >
</g>
<g >
</g>
<g >
</g>
<g >
</g>
<g >
</g>
<g >
</g>
</g> 
</svg>
