<?xml version="1.0" standalone="no"?>
 <!DOCTYPE svg PUBLIC "-//W3C//DTD SVG 1.1//EN" 
 "http://www.w3.org/Graphics/SVG/1.1/DTD/svg11.dtd"> 
<svg
  xmlns:svg="http://www.w3.org/2000/svg"
  xmlns="http://www.w3.org/2000/svg"
  xmlns:xlink="http://www.w3.org/1999/xlink"
  version="1.1"
  width="14.155420cm" height="11.290300cm" viewBox="0 0 55730 44450">
<title>SVG Picture created as wren-plain-brd.svg date 2021/09/08 23:32:13 </title>
  <desc>Picture generated by PCBNEW </desc>
<g style="fill:#000000; fill-opacity:1;stroke:#000000; stroke-opacity:1;
stroke-linecap:round; stroke-linejoin:round;"
 transform="translate(0 0) scale(1 1)">
</g>
<g style="fill:#000000; fill-opacity:0.0; 
stroke:#000000; stroke-width:-0.000393701; stroke-opacity:1; 
stroke-linecap:round; stroke-linejoin:round;">
<g >
</g>
<g style="fill:#000000; fill-opacity:0.0; 
stroke:#000000; stroke-width:118.11; stroke-opacity:1; 
stroke-linecap:round; stroke-linejoin:round;">
<path d="M1072 4451
L6466 4451
" />
<path d="M1072 9963
L6466 9963
" />
<path d="M698 4746
L698 9667
" />
<path d="M6840 4746
L6840 9667
" />
<path d="M1072 9667
L1072 9963
" />
<path d="M698 9667
L1072 9667
" />
<path d="M698 4746
L1072 4746
" />
<path d="M1072 4451
L1072 4746
" />
<path d="M6466 4451
L6466 4746
" />
<path d="M6466 4746
L6840 4746
" />
<path d="M6466 9667
L6840 9667
" />
<path d="M6466 9667
L6466 9963
" />
</g>
<g >
</g>
<g style="fill:#000000; fill-opacity:0.0; 
stroke:#000000; stroke-width:118.11; stroke-opacity:1; 
stroke-linecap:round; stroke-linejoin:round;">
<path d="M1072 26951
L6466 26951
" />
<path d="M1072 32463
L6466 32463
" />
<path d="M698 27246
L698 32167
" />
<path d="M6840 27246
L6840 32167
" />
<path d="M1072 32167
L1072 32463
" />
<path d="M698 32167
L1072 32167
" />
<path d="M698 27246
L1072 27246
" />
<path d="M1072 26951
L1072 27246
" />
<path d="M6466 26951
L6466 27246
" />
<path d="M6466 27246
L6840 27246
" />
<path d="M6466 32167
L6840 32167
" />
<path d="M6466 32167
L6466 32463
" />
</g>
<g >
</g>
<g style="fill:#000000; fill-opacity:0.0; 
stroke:#000000; stroke-width:118.11; stroke-opacity:1; 
stroke-linecap:round; stroke-linejoin:round;">
<path d="M8572 11951
L13966 11951
" />
<path d="M8572 17463
L13966 17463
" />
<path d="M8198 12246
L8198 17167
" />
<path d="M14340 12246
L14340 17167
" />
<path d="M8572 17167
L8572 17463
" />
<path d="M8198 17167
L8572 17167
" />
<path d="M8198 12246
L8572 12246
" />
<path d="M8572 11951
L8572 12246
" />
<path d="M13966 11951
L13966 12246
" />
<path d="M13966 12246
L14340 12246
" />
<path d="M13966 17167
L14340 17167
" />
<path d="M13966 17167
L13966 17463
" />
</g>
<g >
</g>
<g style="fill:#000000; fill-opacity:0.0; 
stroke:#000000; stroke-width:118.11; stroke-opacity:1; 
stroke-linecap:round; stroke-linejoin:round;">
<path d="M20132 33088
L25526 33088
" />
<path d="M20132 38600
L25526 38600
" />
<path d="M19758 33384
L19758 38305
" />
<path d="M25900 33384
L25900 38305
" />
<path d="M20132 38305
L20132 38600
" />
<path d="M19758 38305
L20132 38305
" />
<path d="M19758 33384
L20132 33384
" />
<path d="M20132 33088
L20132 33384
" />
<path d="M25526 33088
L25526 33384
" />
<path d="M25526 33384
L25900 33384
" />
<path d="M25526 38305
L25900 38305
" />
<path d="M25526 38305
L25526 38600
" />
</g>
<g >
</g>
<g style="fill:#000000; fill-opacity:0.0; 
stroke:#000000; stroke-width:118.11; stroke-opacity:1; 
stroke-linecap:round; stroke-linejoin:round;">
<path d="M27632 33088
L33026 33088
" />
<path d="M27632 38600
L33026 38600
" />
<path d="M27258 33384
L27258 38305
" />
<path d="M33400 33384
L33400 38305
" />
<path d="M27632 38305
L27632 38600
" />
<path d="M27258 38305
L27632 38305
" />
<path d="M27258 33384
L27632 33384
" />
<path d="M27632 33088
L27632 33384
" />
<path d="M33026 33088
L33026 33384
" />
<path d="M33026 33384
L33400 33384
" />
<path d="M33026 38305
L33400 38305
" />
<path d="M33026 38305
L33026 38600
" />
</g>
<g >
</g>
<g style="fill:#000000; fill-opacity:0.0; 
stroke:#000000; stroke-width:118.11; stroke-opacity:1; 
stroke-linecap:round; stroke-linejoin:round;">
<path d="M35132 34138
L40526 34138
" />
<path d="M35132 39650
L40526 39650
" />
<path d="M34758 34434
L34758 39355
" />
<path d="M40900 34434
L40900 39355
" />
<path d="M35132 39355
L35132 39650
" />
<path d="M34758 39355
L35132 39355
" />
<path d="M34758 34434
L35132 34434
" />
<path d="M35132 34138
L35132 34434
" />
<path d="M40526 34138
L40526 34434
" />
<path d="M40526 34434
L40900 34434
" />
<path d="M40526 39355
L40900 39355
" />
<path d="M40526 39355
L40526 39650
" />
</g>
<g >
</g>
<g style="fill:#000000; fill-opacity:0.0; 
stroke:#000000; stroke-width:118.11; stroke-opacity:1; 
stroke-linecap:round; stroke-linejoin:round;">
<path d="M8572 26951
L13966 26951
" />
<path d="M8572 32463
L13966 32463
" />
<path d="M8198 27246
L8198 32167
" />
<path d="M14340 27246
L14340 32167
" />
<path d="M8572 32167
L8572 32463
" />
<path d="M8198 32167
L8572 32167
" />
<path d="M8198 27246
L8572 27246
" />
<path d="M8572 26951
L8572 27246
" />
<path d="M13966 26951
L13966 27246
" />
<path d="M13966 27246
L14340 27246
" />
<path d="M13966 32167
L14340 32167
" />
<path d="M13966 32167
L13966 32463
" />
</g>
<g >
</g>
<g style="fill:#000000; fill-opacity:0.0; 
stroke:#000000; stroke-width:118.11; stroke-opacity:1; 
stroke-linecap:round; stroke-linejoin:round;">
<path d="M16072 24451
L21466 24451
" />
<path d="M16072 29963
L21466 29963
" />
<path d="M15698 24746
L15698 29667
" />
<path d="M21840 24746
L21840 29667
" />
<path d="M16072 29667
L16072 29963
" />
<path d="M15698 29667
L16072 29667
" />
<path d="M15698 24746
L16072 24746
" />
<path d="M16072 24451
L16072 24746
" />
<path d="M21466 24451
L21466 24746
" />
<path d="M21466 24746
L21840 24746
" />
<path d="M21466 29667
L21840 29667
" />
<path d="M21466 29667
L21466 29963
" />
</g>
<g >
</g>
<g style="fill:#000000; fill-opacity:0.0; 
stroke:#000000; stroke-width:118.11; stroke-opacity:1; 
stroke-linecap:round; stroke-linejoin:round;">
<path d="M23572 23513
L28966 23513
" />
<path d="M23572 29025
L28966 29025
" />
<path d="M23198 23809
L23198 28730
" />
<path d="M29340 23809
L29340 28730
" />
<path d="M23572 28730
L23572 29025
" />
<path d="M23198 28730
L23572 28730
" />
<path d="M23198 23809
L23572 23809
" />
<path d="M23572 23513
L23572 23809
" />
<path d="M28966 23513
L28966 23809
" />
<path d="M28966 23809
L29340 23809
" />
<path d="M28966 28730
L29340 28730
" />
<path d="M28966 28730
L28966 29025
" />
</g>
<g >
</g>
<g style="fill:#000000; fill-opacity:0.0; 
stroke:#000000; stroke-width:118.11; stroke-opacity:1; 
stroke-linecap:round; stroke-linejoin:round;">
<path d="M31072 24451
L36466 24451
" />
<path d="M31072 29963
L36466 29963
" />
<path d="M30698 24746
L30698 29667
" />
<path d="M36840 24746
L36840 29667
" />
<path d="M31072 29667
L31072 29963
" />
<path d="M30698 29667
L31072 29667
" />
<path d="M30698 24746
L31072 24746
" />
<path d="M31072 24451
L31072 24746
" />
<path d="M36466 24451
L36466 24746
" />
<path d="M36466 24746
L36840 24746
" />
<path d="M36466 29667
L36840 29667
" />
<path d="M36466 29667
L36466 29963
" />
</g>
<g >
</g>
<g style="fill:#000000; fill-opacity:0.0; 
stroke:#000000; stroke-width:118.11; stroke-opacity:1; 
stroke-linecap:round; stroke-linejoin:round;">
<path d="M38572 25388
L43966 25388
" />
<path d="M38572 30900
L43966 30900
" />
<path d="M38198 25684
L38198 30605
" />
<path d="M44340 25684
L44340 30605
" />
<path d="M38572 30605
L38572 30900
" />
<path d="M38198 30605
L38572 30605
" />
<path d="M38198 25684
L38572 25684
" />
<path d="M38572 25388
L38572 25684
" />
<path d="M43966 25388
L43966 25684
" />
<path d="M43966 25684
L44340 25684
" />
<path d="M43966 30605
L44340 30605
" />
<path d="M43966 30605
L43966 30900
" />
</g>
<g >
</g>
<g style="fill:#000000; fill-opacity:0.0; 
stroke:#000000; stroke-width:118.11; stroke-opacity:1; 
stroke-linecap:round; stroke-linejoin:round;">
<path d="M1072 19451
L6466 19451
" />
<path d="M1072 24963
L6466 24963
" />
<path d="M698 19746
L698 24667
" />
<path d="M6840 19746
L6840 24667
" />
<path d="M1072 24667
L1072 24963
" />
<path d="M698 24667
L1072 24667
" />
<path d="M698 19746
L1072 19746
" />
<path d="M1072 19451
L1072 19746
" />
<path d="M6466 19451
L6466 19746
" />
<path d="M6466 19746
L6840 19746
" />
<path d="M6466 24667
L6840 24667
" />
<path d="M6466 24667
L6466 24963
" />
</g>
<g >
</g>
<g style="fill:#000000; fill-opacity:0.0; 
stroke:#000000; stroke-width:118.11; stroke-opacity:1; 
stroke-linecap:round; stroke-linejoin:round;">
<path d="M8572 19451
L13966 19451
" />
<path d="M8572 24963
L13966 24963
" />
<path d="M8198 19746
L8198 24667
" />
<path d="M14340 19746
L14340 24667
" />
<path d="M8572 24667
L8572 24963
" />
<path d="M8198 24667
L8572 24667
" />
<path d="M8198 19746
L8572 19746
" />
<path d="M8572 19451
L8572 19746
" />
<path d="M13966 19451
L13966 19746
" />
<path d="M13966 19746
L14340 19746
" />
<path d="M13966 24667
L14340 24667
" />
<path d="M13966 24667
L13966 24963
" />
</g>
<g >
</g>
<g style="fill:#000000; fill-opacity:0.0; 
stroke:#000000; stroke-width:118.11; stroke-opacity:1; 
stroke-linecap:round; stroke-linejoin:round;">
<path d="M16072 16951
L21466 16951
" />
<path d="M16072 22463
L21466 22463
" />
<path d="M15698 17246
L15698 22167
" />
<path d="M21840 17246
L21840 22167
" />
<path d="M16072 22167
L16072 22463
" />
<path d="M15698 22167
L16072 22167
" />
<path d="M15698 17246
L16072 17246
" />
<path d="M16072 16951
L16072 17246
" />
<path d="M21466 16951
L21466 17246
" />
<path d="M21466 17246
L21840 17246
" />
<path d="M21466 22167
L21840 22167
" />
<path d="M21466 22167
L21466 22463
" />
</g>
<g >
</g>
<g style="fill:#000000; fill-opacity:0.0; 
stroke:#000000; stroke-width:118.11; stroke-opacity:1; 
stroke-linecap:round; stroke-linejoin:round;">
<path d="M23572 16013
L28966 16013
" />
<path d="M23572 21525
L28966 21525
" />
<path d="M23198 16309
L23198 21230
" />
<path d="M29340 16309
L29340 21230
" />
<path d="M23572 21230
L23572 21525
" />
<path d="M23198 21230
L23572 21230
" />
<path d="M23198 16309
L23572 16309
" />
<path d="M23572 16013
L23572 16309
" />
<path d="M28966 16013
L28966 16309
" />
<path d="M28966 16309
L29340 16309
" />
<path d="M28966 21230
L29340 21230
" />
<path d="M28966 21230
L28966 21525
" />
</g>
<g >
</g>
<g style="fill:#000000; fill-opacity:0.0; 
stroke:#000000; stroke-width:118.11; stroke-opacity:1; 
stroke-linecap:round; stroke-linejoin:round;">
<path d="M31072 16951
L36466 16951
" />
<path d="M31072 22463
L36466 22463
" />
<path d="M30698 17246
L30698 22167
" />
<path d="M36840 17246
L36840 22167
" />
<path d="M31072 22167
L31072 22463
" />
<path d="M30698 22167
L31072 22167
" />
<path d="M30698 17246
L31072 17246
" />
<path d="M31072 16951
L31072 17246
" />
<path d="M36466 16951
L36466 17246
" />
<path d="M36466 17246
L36840 17246
" />
<path d="M36466 22167
L36840 22167
" />
<path d="M36466 22167
L36466 22463
" />
</g>
<g >
</g>
<g style="fill:#000000; fill-opacity:0.0; 
stroke:#000000; stroke-width:118.11; stroke-opacity:1; 
stroke-linecap:round; stroke-linejoin:round;">
<path d="M38572 17888
L43966 17888
" />
<path d="M38572 23400
L43966 23400
" />
<path d="M38198 18184
L38198 23105
" />
<path d="M44340 18184
L44340 23105
" />
<path d="M38572 23105
L38572 23400
" />
<path d="M38198 23105
L38572 23105
" />
<path d="M38198 18184
L38572 18184
" />
<path d="M38572 17888
L38572 18184
" />
<path d="M43966 17888
L43966 18184
" />
<path d="M43966 18184
L44340 18184
" />
<path d="M43966 23105
L44340 23105
" />
<path d="M43966 23105
L43966 23400
" />
</g>
<g >
</g>
<g style="fill:#000000; fill-opacity:0.0; 
stroke:#000000; stroke-width:118.11; stroke-opacity:1; 
stroke-linecap:round; stroke-linejoin:round;">
<path d="M1072 11951
L6466 11951
" />
<path d="M1072 17463
L6466 17463
" />
<path d="M698 12246
L698 17167
" />
<path d="M6840 12246
L6840 17167
" />
<path d="M1072 17167
L1072 17463
" />
<path d="M698 17167
L1072 17167
" />
<path d="M698 12246
L1072 12246
" />
<path d="M1072 11951
L1072 12246
" />
<path d="M6466 11951
L6466 12246
" />
<path d="M6466 12246
L6840 12246
" />
<path d="M6466 17167
L6840 17167
" />
<path d="M6466 17167
L6466 17463
" />
</g>
<g >
</g>
<g style="fill:#000000; fill-opacity:0.0; 
stroke:#000000; stroke-width:118.11; stroke-opacity:1; 
stroke-linecap:round; stroke-linejoin:round;">
<path d="M16072 9451
L21466 9451
" />
<path d="M16072 14963
L21466 14963
" />
<path d="M15698 9746
L15698 14667
" />
<path d="M21840 9746
L21840 14667
" />
<path d="M16072 14667
L16072 14963
" />
<path d="M15698 14667
L16072 14667
" />
<path d="M15698 9746
L16072 9746
" />
<path d="M16072 9451
L16072 9746
" />
<path d="M21466 9451
L21466 9746
" />
<path d="M21466 9746
L21840 9746
" />
<path d="M21466 14667
L21840 14667
" />
<path d="M21466 14667
L21466 14963
" />
</g>
<g >
</g>
<g style="fill:#000000; fill-opacity:0.0; 
stroke:#000000; stroke-width:118.11; stroke-opacity:1; 
stroke-linecap:round; stroke-linejoin:round;">
<path d="M23572 8513
L28966 8513
" />
<path d="M23572 14025
L28966 14025
" />
<path d="M23198 8809
L23198 13730
" />
<path d="M29340 8809
L29340 13730
" />
<path d="M23572 13730
L23572 14025
" />
<path d="M23198 13730
L23572 13730
" />
<path d="M23198 8809
L23572 8809
" />
<path d="M23572 8513
L23572 8809
" />
<path d="M28966 8513
L28966 8809
" />
<path d="M28966 8809
L29340 8809
" />
<path d="M28966 13730
L29340 13730
" />
<path d="M28966 13730
L28966 14025
" />
</g>
<g >
</g>
<g style="fill:#000000; fill-opacity:0.0; 
stroke:#000000; stroke-width:118.11; stroke-opacity:1; 
stroke-linecap:round; stroke-linejoin:round;">
<path d="M31072 9451
L36466 9451
" />
<path d="M31072 14963
L36466 14963
" />
<path d="M30698 9746
L30698 14667
" />
<path d="M36840 9746
L36840 14667
" />
<path d="M31072 14667
L31072 14963
" />
<path d="M30698 14667
L31072 14667
" />
<path d="M30698 9746
L31072 9746
" />
<path d="M31072 9451
L31072 9746
" />
<path d="M36466 9451
L36466 9746
" />
<path d="M36466 9746
L36840 9746
" />
<path d="M36466 14667
L36840 14667
" />
<path d="M36466 14667
L36466 14963
" />
</g>
<g >
</g>
<g style="fill:#000000; fill-opacity:0.0; 
stroke:#000000; stroke-width:118.11; stroke-opacity:1; 
stroke-linecap:round; stroke-linejoin:round;">
<path d="M38572 10388
L43966 10388
" />
<path d="M38572 15900
L43966 15900
" />
<path d="M38198 10684
L38198 15605
" />
<path d="M44340 10684
L44340 15605
" />
<path d="M38572 15605
L38572 15900
" />
<path d="M38198 15605
L38572 15605
" />
<path d="M38198 10684
L38572 10684
" />
<path d="M38572 10388
L38572 10684
" />
<path d="M43966 10388
L43966 10684
" />
<path d="M43966 10684
L44340 10684
" />
<path d="M43966 15605
L44340 15605
" />
<path d="M43966 15605
L43966 15900
" />
</g>
<g >
</g>
<g style="fill:#000000; fill-opacity:0.0; 
stroke:#000000; stroke-width:118.11; stroke-opacity:1; 
stroke-linecap:round; stroke-linejoin:round;">
<path d="M8572 4451
L13966 4451
" />
<path d="M8572 9963
L13966 9963
" />
<path d="M8198 4746
L8198 9667
" />
<path d="M14340 4746
L14340 9667
" />
<path d="M8572 9667
L8572 9963
" />
<path d="M8198 9667
L8572 9667
" />
<path d="M8198 4746
L8572 4746
" />
<path d="M8572 4451
L8572 4746
" />
<path d="M13966 4451
L13966 4746
" />
<path d="M13966 4746
L14340 4746
" />
<path d="M13966 9667
L14340 9667
" />
<path d="M13966 9667
L13966 9963
" />
</g>
<g >
</g>
<g style="fill:#000000; fill-opacity:0.0; 
stroke:#000000; stroke-width:118.11; stroke-opacity:1; 
stroke-linecap:round; stroke-linejoin:round;">
<path d="M16072 1951
L21466 1951
" />
<path d="M16072 7463
L21466 7463
" />
<path d="M15698 2246
L15698 7167
" />
<path d="M21840 2246
L21840 7167
" />
<path d="M16072 7167
L16072 7463
" />
<path d="M15698 7167
L16072 7167
" />
<path d="M15698 2246
L16072 2246
" />
<path d="M16072 1951
L16072 2246
" />
<path d="M21466 1951
L21466 2246
" />
<path d="M21466 2246
L21840 2246
" />
<path d="M21466 7167
L21840 7167
" />
<path d="M21466 7167
L21466 7463
" />
</g>
<g >
</g>
<g style="fill:#000000; fill-opacity:0.0; 
stroke:#000000; stroke-width:118.11; stroke-opacity:1; 
stroke-linecap:round; stroke-linejoin:round;">
<path d="M23572 1013
L28966 1013
" />
<path d="M23572 6525
L28966 6525
" />
<path d="M23198 1309
L23198 6230
" />
<path d="M29340 1309
L29340 6230
" />
<path d="M23572 6230
L23572 6525
" />
<path d="M23198 6230
L23572 6230
" />
<path d="M23198 1309
L23572 1309
" />
<path d="M23572 1013
L23572 1309
" />
<path d="M28966 1013
L28966 1309
" />
<path d="M28966 1309
L29340 1309
" />
<path d="M28966 6230
L29340 6230
" />
<path d="M28966 6230
L28966 6525
" />
</g>
<g >
</g>
<g style="fill:#000000; fill-opacity:0.0; 
stroke:#000000; stroke-width:118.11; stroke-opacity:1; 
stroke-linecap:round; stroke-linejoin:round;">
<path d="M31072 1951
L36466 1951
" />
<path d="M31072 7463
L36466 7463
" />
<path d="M30698 2246
L30698 7167
" />
<path d="M36840 2246
L36840 7167
" />
<path d="M31072 7167
L31072 7463
" />
<path d="M30698 7167
L31072 7167
" />
<path d="M30698 2246
L31072 2246
" />
<path d="M31072 1951
L31072 2246
" />
<path d="M36466 1951
L36466 2246
" />
<path d="M36466 2246
L36840 2246
" />
<path d="M36466 7167
L36840 7167
" />
<path d="M36466 7167
L36466 7463
" />
</g>
<g >
</g>
<g style="fill:#000000; fill-opacity:0.0; 
stroke:#000000; stroke-width:118.11; stroke-opacity:1; 
stroke-linecap:round; stroke-linejoin:round;">
<path d="M38572 2888
L43966 2888
" />
<path d="M38572 8400
L43966 8400
" />
<path d="M38198 3184
L38198 8105
" />
<path d="M44340 3184
L44340 8105
" />
<path d="M38572 8105
L38572 8400
" />
<path d="M38198 8105
L38572 8105
" />
<path d="M38198 3184
L38572 3184
" />
<path d="M38572 2888
L38572 3184
" />
<path d="M43966 2888
L43966 3184
" />
<path d="M43966 3184
L44340 3184
" />
<path d="M43966 8105
L44340 8105
" />
<path d="M43966 8105
L43966 8400
" />
</g>
<g >
</g>
<g style="fill:#000000; fill-opacity:0.0; 
stroke:#000000; stroke-width:118.11; stroke-opacity:1; 
stroke-linecap:round; stroke-linejoin:round;">
</g>
<g style="fill:#000000; fill-opacity:0.0; 
stroke:#000000; stroke-width:120; stroke-opacity:1; 
stroke-linecap:round; stroke-linejoin:round;">
<path d="M48370 31062
L48058 30882
" />
<path d="M48910 30127
L48598 29947
" />
<path d="M44210 38267
L43898 38087
" />
</g>
<g style="fill:#000000; fill-opacity:0.0; 
stroke:#000000; stroke-width:118.11; stroke-opacity:1; 
stroke-linecap:round; stroke-linejoin:round;">
<path d="M49772 29231
L49516 29083
" />
</g>
<g style="fill:#000000; fill-opacity:0.0; 
stroke:#000000; stroke-width:120; stroke-opacity:1; 
stroke-linecap:round; stroke-linejoin:round;">
<path d="M43898 38087
L43358 39023
" />
<path d="M48598 29947
L48058 30882
" />
</g>
<g style="fill:#000000; fill-opacity:0.0; 
stroke:#000000; stroke-width:118.11; stroke-opacity:1; 
stroke-linecap:round; stroke-linejoin:round;">
<path d="M54289 31839
L47842 43005
" />
<path d="M47587 42858
L47400 43182
" />
<path d="M43325 40397
L43138 40721
" />
<path d="M43325 40397
L43069 40249
" />
<path d="M47842 43005
L47587 42858
" />
<path d="M47400 43182
L43138 40721
" />
<path d="M49516 29083
L43069 40249
" />
<path d="M54221 31367
L49959 28907
" />
</g>
<g style="fill:#000000; fill-opacity:0.0; 
stroke:#000000; stroke-width:120; stroke-opacity:1; 
stroke-linecap:round; stroke-linejoin:round;">
<path d="M43670 39203
L43358 39023
" />
</g>
<g style="fill:#000000; fill-opacity:0.0; 
stroke:#000000; stroke-width:118.11; stroke-opacity:1; 
stroke-linecap:round; stroke-linejoin:round;">
<path d="M49959 28907
L49772 29231
" />
<path d="M54221 31367
L54034 31691
" />
<path d="M54289 31839
L54034 31691
" />
</g>
<g >
</g>
<g style="fill:#000000; fill-opacity:0.0; 
stroke:#000000; stroke-width:118.11; stroke-opacity:1; 
stroke-linecap:round; stroke-linejoin:round;">
</g>
<g style="fill:#000000; fill-opacity:1.0; 
stroke:#000000; stroke-width:0; stroke-opacity:1; 
stroke-linecap:round; stroke-linejoin:round;">
<circle cx="7519.69" cy="25957.2" r="433.071" /> 
</g>
<g style="fill:#000000; fill-opacity:1.0; 
stroke:#000000; stroke-width:39.3701; stroke-opacity:1; 
stroke-linecap:round; stroke-linejoin:round;">
</g>
<g >
</g>
<g style="fill:#000000; fill-opacity:1.0; 
stroke:#000000; stroke-width:39.3701; stroke-opacity:1; 
stroke-linecap:round; stroke-linejoin:round;">
</g>
<g style="fill:#000000; fill-opacity:1.0; 
stroke:#000000; stroke-width:0; stroke-opacity:1; 
stroke-linecap:round; stroke-linejoin:round;">
<circle cx="43454.7" cy="34707.2" r="433.071" /> 
</g>
<g style="fill:#000000; fill-opacity:1.0; 
stroke:#000000; stroke-width:39.3701; stroke-opacity:1; 
stroke-linecap:round; stroke-linejoin:round;">
</g>
<g >
</g>
<g style="fill:#000000; fill-opacity:1.0; 
stroke:#000000; stroke-width:39.3701; stroke-opacity:1; 
stroke-linecap:round; stroke-linejoin:round;">
</g>
<g style="fill:#000000; fill-opacity:1.0; 
stroke:#000000; stroke-width:0; stroke-opacity:1; 
stroke-linecap:round; stroke-linejoin:round;">
<circle cx="37519.7" cy="9394.69" r="433.071" /> 
</g>
<g style="fill:#000000; fill-opacity:1.0; 
stroke:#000000; stroke-width:39.3701; stroke-opacity:1; 
stroke-linecap:round; stroke-linejoin:round;">
</g>
<g >
</g>
<g style="fill:#000000; fill-opacity:1.0; 
stroke:#000000; stroke-width:39.3701; stroke-opacity:1; 
stroke-linecap:round; stroke-linejoin:round;">
</g>
<g style="fill:#000000; fill-opacity:1.0; 
stroke:#000000; stroke-width:0; stroke-opacity:1; 
stroke-linecap:round; stroke-linejoin:round;">
<circle cx="7519.69" cy="10957.2" r="433.071" /> 
</g>
<g style="fill:#000000; fill-opacity:1.0; 
stroke:#000000; stroke-width:39.3701; stroke-opacity:1; 
stroke-linecap:round; stroke-linejoin:round;">
</g>
<g >
</g>
<g style="fill:#000000; fill-opacity:1.0; 
stroke:#000000; stroke-width:39.3701; stroke-opacity:1; 
stroke-linecap:round; stroke-linejoin:round;">
</g>
<g style="fill:#000000; fill-opacity:1.0; 
stroke:#000000; stroke-width:0; stroke-opacity:1; 
stroke-linecap:round; stroke-linejoin:round;">
<circle cx="37517.2" cy="24394.7" r="433.071" /> 
</g>
<g style="fill:#000000; fill-opacity:1.0; 
stroke:#000000; stroke-width:39.3701; stroke-opacity:1; 
stroke-linecap:round; stroke-linejoin:round;">
</g>
<g >
</g>
<g >
</g>
<g >
</g>
</g>
<g style="fill:#000000; fill-opacity:1.0; 
stroke:#000000; stroke-width:39.3701; stroke-opacity:1; 
stroke-linecap:round; stroke-linejoin:round;">
</g>
<g style="fill:#000000; fill-opacity:1.0; 
stroke:#000000; stroke-width:19.685; stroke-opacity:1; 
stroke-linecap:round; stroke-linejoin:round;">
</g>
<g style="fill:#000000; fill-opacity:0.0; 
stroke:#000000; stroke-width:19.685; stroke-opacity:1; 
stroke-linecap:round; stroke-linejoin:round;">
<path d="M45029 25244
L45016 2519
" />
<path d="M45029 25244
L55729 31394
" />
<path d="M48179 44444
L55729 31394
" />
<path d="M13979 33394
L13979 38294
" />
<path d="M18729 33394
L13979 33394
" />
<path d="M18729 38294
L18729 33394
" />
<path d="M13979 38294
L18729 38294
" />
<path d="M17 3769
L17 33144
" />
<path d="M329 3457
L14713 3457
" />
<path d="M329 33457
L11589 33457
" />
<path d="M13067 33457
L11589 33457
" />
<path d="M13379 39282
L13379 33769
" />
<path d="M13692 39594
L33769 39594
" />
<path d="M34082 39907
L34082 40332
" />
<path d="M13379.7 39282.3 A312.402 312.402 0.0 0 0 13692.1 39594.7" />
<path d="M41579 40644
L48179 44444
" />
<path d="M34394 40644
L41579 40644
" />
<path d="M34082.1 40332.2 A312.402 312.402 0.0 0 0 34394.5 40644.6" />
<path d="M34082.1 39907.1 A312.402 312.402 0.0 0 0 33769.7 39594.7" />
<path d="M13379.7 33769.7 A312.402 312.402 0.0 0 0 13067.3 33457.3" />
<path d="M17.2248 33144.7 A312.402 312.402 0.0 0 0 329.626 33457.1" />
<path d="M329.725 3457.19 A312.5 312.5 0.0 0 0 17.2248 3769.69" />
<path d="M14713.2 3457.19 A312.5 312.5 0.0 0 0 15025.7 3144.69" />
<path d="M15025 1269
L15025 3144
" />
<path d="M15338 957.185 A312.5 312.5 0.0 0 0 15025.5 1269.69" />
<path d="M22210 957
L15337 957
" />
<path d="M22210.8 957.185 A312.5 312.5 0.0 0 0 22523.3 644.685" />
<path d="M22523 332
L22523 644
" />
<path d="M22835.6 19.6854 A312.5 312.5 0.0 0 0 22523.1 332.185" />
<path d="M29708 19
L22835 19
" />
<path d="M30020.9 332.185 A312.402 312.402 0.0 0 0 29708.5 19.7839" />
<path d="M30020 644
L30020 332
" />
<path d="M30020.9 644.685 A312.402 312.402 0.0 0 0 30333.3 957.087" />
<path d="M37206 957
L30333 957
" />
<path d="M37518.5 1269.69 A312.402 312.402 0.0 0 0 37206.1 957.284" />
<path d="M37518 1582
L37518 1269
" />
<path d="M37518.5 1582.19 A312.402 312.402 0.0 0 0 37830.9 1894.59" />
<path d="M44703 1894
L37830 1894
" />
<path d="M45016 2207
L45016 2519
" />
<path d="M45016.1 2207.19 A312.402 312.402 0.0 0 0 44703.7 1894.78" />
<g >
</g>
<g >
</g>
<g >
</g>
<g >
</g>
<g >
</g>
<g >
</g>
<g >
</g>
<g >
</g>
<g >
</g>
<g >
</g>
<g >
</g>
<g >
</g>
<g >
</g>
<g >
</g>
<g >
</g>
<g >
</g>
<g >
</g>
<g >
</g>
<g >
</g>
<g >
</g>
<g >
</g>
<g >
</g>
<g >
</g>
<g >
</g>
<g >
</g>
<g >
</g>
<g >
</g>
<g >
</g>
<g >
</g>
<g >
</g>
<g >
</g>
<g >
</g>
<g >
</g>
<g >
</g>
</g> 
</svg>
