M48
; DRILL file {KiCad (5.1.9-0-10_14)} date Sunday, April 25, 2021 at 06:42:26 PM
; FORMAT={-:-/ absolute / inch / decimal}
; #@! TF.CreationDate,2021-04-25T18:42:26-05:00
; #@! TF.GenerationSoftware,Kicad,Pcbnew,(5.1.9-0-10_14)
; #@! TF.FileFunction,Plated,1,2,PTH
FMAT,2
INCH
T1C0.0157
T2C0.0236
T3C0.0276
T4C0.0394
T5C0.0430
T6C0.0433
T7C0.0590
T8C0.0591
%
G90
G05
T1
X2.4438Y-1.6715
X3.1938Y-1.6565
X3.9438Y-1.7341
X4.7875Y-1.8352
X5.5375Y-2.4073
X6.0785Y-1.7063
X6.107Y-2.4991
X6.1535Y-1.7562
X6.2875Y-2.2173
X7.0375Y-2.1452
X7.7875Y-2.2552
X8.5375Y-2.3632
X9.3729Y-2.3919
X9.4535Y-1.8413
X9.4537Y-2.0961
X9.4735Y-2.4362
X9.5485Y-2.2312
X9.5485Y-2.4362
T3
X2.939Y-1.284
X2.939Y-1.591
X2.939Y-2.034
X2.939Y-2.341
X2.939Y-3.534
X2.939Y-3.841
X3.6887Y-1.284
X3.6887Y-1.591
X3.6887Y-2.034
X3.6887Y-2.341
X3.6887Y-2.784
X3.6887Y-3.091
X3.6887Y-3.5335
X3.6887Y-3.8406
X4.4385Y-1.284
X4.4385Y-1.591
X4.4385Y-2.034
X4.4385Y-2.341
X4.4385Y-3.534
X4.4385Y-3.841
X5.282Y-1.284
X5.282Y-1.591
X5.282Y-2.034
X5.282Y-2.341
X5.282Y-2.784
X5.282Y-3.091
X5.282Y-3.534
X5.282Y-3.841
X6.0317Y-1.2527
X6.0317Y-1.5598
X6.0317Y-2.034
X6.0317Y-2.341
X6.0317Y-2.784
X6.0317Y-3.091
X6.0317Y-3.534
X6.0317Y-3.841
X6.045Y-4.1662
X6.352Y-4.1662
X6.7815Y-1.034
X6.7815Y-1.341
X6.7815Y-1.784
X6.7815Y-2.091
X6.7815Y-2.534
X6.7815Y-2.841
X6.7815Y-3.284
X6.7815Y-3.591
X7.1875Y-4.159
X7.1875Y-4.466
X7.5313Y-0.9402
X7.5313Y-1.2473
X7.5313Y-1.6902
X7.5313Y-1.9973
X7.5313Y-2.4402
X7.5313Y-2.7473
X7.5313Y-3.1902
X7.5313Y-3.4973
X7.9374Y-4.159
X7.9374Y-4.466
X8.281Y-1.034
X8.281Y-1.341
X8.281Y-1.8152
X8.281Y-2.1223
X8.281Y-2.534
X8.281Y-2.841
X8.281Y-3.3152
X8.281Y-3.6223
X8.6871Y-4.2527
X8.6871Y-4.5598
X9.0308Y-1.1252
X9.0308Y-1.4323
X9.0308Y-1.8777
X9.0308Y-2.1848
X9.0308Y-2.6277
X9.0308Y-2.9348
X9.0308Y-3.3777
X9.0308Y-3.6848
X9.3931Y-1.5
X9.3931Y-1.7188
X9.4603Y-3.9545
X9.5931Y-1.5
X9.5931Y-1.7188
X9.7262Y-4.108
T4
X6.0985Y-4.0263
X6.0985Y-4.5971
X6.1969Y-4.5971
X6.2954Y-4.0263
X6.2954Y-4.5971
T5
X9.2Y-1.2
X9.2Y-1.3
X9.2Y-1.4
X9.2Y-1.5
X9.2Y-1.6
X9.2Y-1.7
X9.2Y-1.8
X9.2Y-1.9
X9.2Y-2.0
X9.2Y-2.1
X9.2Y-2.2
X9.2Y-2.3
X9.3Y-2.3
X9.4Y-2.3
X9.5Y-2.3
X9.6Y-2.3
X9.7Y-2.3
X9.791Y-2.3
X9.8Y-1.2
X9.8Y-1.3
X9.8Y-1.4
X9.8Y-1.5
X9.8Y-1.6
X9.8Y-1.7
X9.8Y-1.8
X9.8Y-1.9
X9.8Y-2.0
X9.8Y-2.1
X9.8Y-2.2
T6
X9.3725Y-2.4688
X9.3725Y-2.6459
X9.6284Y-2.4688
X9.6284Y-2.6459
T7
X2.4438Y-1.3375
X2.4438Y-2.0875
X2.4438Y-3.5875
X2.4937Y-1.2375
X2.4937Y-1.9875
X2.4937Y-3.4875
X2.6938Y-1.2375
X2.6938Y-1.9875
X2.6938Y-3.4875
X2.7437Y-1.3375
X2.7437Y-2.0875
X2.7437Y-3.5875
X3.1938Y-1.3375
X3.1938Y-2.0875
X3.1938Y-2.8375
X3.1938Y-3.5875
X3.2437Y-1.2375
X3.2437Y-1.9875
X3.2437Y-2.7375
X3.2437Y-3.4875
X3.4438Y-1.2375
X3.4438Y-1.9875
X3.4438Y-2.7375
X3.4438Y-3.4875
X3.4937Y-1.3375
X3.4937Y-2.0875
X3.4937Y-2.8375
X3.4937Y-3.5875
X3.9438Y-1.3375
X3.9438Y-2.0875
X3.9438Y-3.5875
X3.9937Y-1.2375
X3.9937Y-1.9875
X3.9937Y-3.4875
X4.1937Y-1.2375
X4.1937Y-1.9875
X4.1937Y-3.4875
X4.2437Y-1.3375
X4.2437Y-2.0875
X4.2437Y-3.5875
X4.7875Y-1.3375
X4.7875Y-2.0875
X4.7875Y-2.8375
X4.7875Y-3.5875
X4.8375Y-1.2375
X4.8375Y-1.9875
X4.8375Y-2.7375
X4.8375Y-3.4875
X5.0375Y-1.2375
X5.0375Y-1.9875
X5.0375Y-2.7375
X5.0375Y-3.4875
X5.0875Y-1.3375
X5.0875Y-2.0875
X5.0875Y-2.8375
X5.0875Y-3.5875
X5.5375Y-1.3375
X5.5375Y-2.0875
X5.5375Y-2.8375
X5.5375Y-3.5875
X5.5875Y-1.2375
X5.5875Y-1.9875
X5.5875Y-2.7375
X5.5875Y-3.4875
X5.7875Y-1.2375
X5.7875Y-1.9875
X5.7875Y-2.7375
X5.7875Y-3.4875
X5.8375Y-1.3375
X5.8375Y-2.0875
X5.8375Y-2.8375
X5.8375Y-3.5875
X6.2875Y-1.0875
X6.2875Y-1.8375
X6.2875Y-2.5875
X6.2875Y-3.3375
X6.3375Y-0.9875
X6.3375Y-1.7375
X6.3375Y-2.4875
X6.3375Y-3.2375
X6.5375Y-0.9875
X6.5375Y-1.7375
X6.5375Y-2.4875
X6.5375Y-3.2375
X6.5875Y-1.0875
X6.5875Y-1.8375
X6.5875Y-2.5875
X6.5875Y-3.3375
X6.6935Y-4.2012
X6.7435Y-4.1013
X6.9435Y-4.1013
X6.9935Y-4.2012
X7.0375Y-0.9938
X7.0375Y-1.7437
X7.0375Y-2.4937
X7.0375Y-3.2437
X7.0875Y-0.8937
X7.0875Y-1.6438
X7.0875Y-2.3937
X7.0875Y-3.1437
X7.2875Y-0.8937
X7.2875Y-1.6438
X7.2875Y-2.3937
X7.2875Y-3.1437
X7.3375Y-0.9938
X7.3375Y-1.7437
X7.3375Y-2.4937
X7.3375Y-3.2437
X7.4435Y-4.2012
X7.4935Y-4.1013
X7.6935Y-4.1013
X7.7435Y-4.2012
X7.7875Y-1.0875
X7.7875Y-1.8375
X7.7875Y-2.5875
X7.7875Y-3.3375
X7.8375Y-0.9875
X7.8375Y-1.7375
X7.8375Y-2.4875
X7.8375Y-3.2375
X8.0375Y-0.9875
X8.0375Y-1.7375
X8.0375Y-2.4875
X8.0375Y-3.2375
X8.0875Y-1.0875
X8.0875Y-1.8375
X8.0875Y-2.5875
X8.0875Y-3.3375
X8.1935Y-4.3062
X8.2435Y-4.2062
X8.4435Y-4.2062
X8.4935Y-4.3062
X8.5375Y-1.1812
X8.5375Y-1.9312
X8.5375Y-2.6812
X8.5375Y-3.4312
X8.5875Y-1.0813
X8.5875Y-1.8313
X8.5875Y-2.5812
X8.5875Y-3.3312
X8.7875Y-1.0813
X8.7875Y-1.8313
X8.7875Y-2.5812
X8.7875Y-3.3312
X8.8375Y-1.1812
X8.8375Y-1.9312
X8.8375Y-2.6812
X8.8375Y-3.4312
X9.2053Y-4.3079
X9.2669Y-4.4012
X9.3053Y-4.1346
X9.4169Y-4.1413
T2
G00X9.9644Y-3.606
M15
G01X9.9526Y-3.6265
M16
G05
G00X10.0431Y-3.4696
M15
G01X10.0313Y-3.4901
M16
G05
G00X10.0883Y-3.7457
M15
G01X10.0765Y-3.7662
M16
G05
G00X10.1022Y-3.3674
M15
G01X10.0904Y-3.3878
M16
G05
G00X10.2897Y-3.4756
M15
G01X10.2779Y-3.4961
M16
G05
T8
G00X5.9765Y-4.3274
M15
G01X5.9765Y-4.2763
M16
G05
G00X6.4174Y-4.3274
M15
G01X6.4174Y-4.2763
M16
G05
T0
M30
