%TF.GenerationSoftware,KiCad,Pcbnew,(5.1.9-0-10_14)*%
%TF.CreationDate,2021-09-05T16:06:40-05:00*%
%TF.ProjectId,wren-nav,7772656e-2d6e-4617-962e-6b696361645f,rev?*%
%TF.SameCoordinates,Original*%
%TF.FileFunction,OtherDrawing,Comment*%
%FSLAX46Y46*%
G04 Gerber Fmt 4.6, Leading zero omitted, Abs format (unit mm)*
G04 Created by KiCad (PCBNEW (5.1.9-0-10_14)) date 2021-09-05 16:06:40*
%MOMM*%
%LPD*%
G01*
G04 APERTURE LIST*
%ADD10C,0.150000*%
G04 APERTURE END LIST*
D10*
%TO.C,REF\u002A\u002A*%
X257211241Y-98055267D02*
X238211241Y-130964233D01*
X240756759Y-88555267D02*
X257211241Y-98055267D01*
X221756759Y-121464233D02*
X240756759Y-88555267D01*
X238211241Y-130964233D02*
X221756759Y-121464233D01*
%TO.C,MX9*%
X56381250Y-27012500D02*
X75381250Y-27012500D01*
X56381250Y-46012500D02*
X56381250Y-27012500D01*
X75381250Y-46012500D02*
X56381250Y-46012500D01*
X75381250Y-27012500D02*
X75381250Y-46012500D01*
%TO.C,MX39*%
X56381250Y-84162500D02*
X75381250Y-84162500D01*
X56381250Y-103162500D02*
X56381250Y-84162500D01*
X75381250Y-103162500D02*
X56381250Y-103162500D01*
X75381250Y-84162500D02*
X75381250Y-103162500D01*
%TO.C,MX41*%
X226506759Y-113236991D02*
X236006759Y-96782509D01*
X242961241Y-122736991D02*
X226506759Y-113236991D01*
X252461241Y-106282509D02*
X242961241Y-122736991D01*
X236006759Y-96782509D02*
X252461241Y-106282509D01*
%TO.C,MX15*%
X134962500Y-46062500D02*
X153962500Y-46062500D01*
X134962500Y-65062500D02*
X134962500Y-46062500D01*
X153962500Y-65062500D02*
X134962500Y-65062500D01*
X153962500Y-46062500D02*
X153962500Y-65062500D01*
%TO.C,MX44*%
X164325000Y-99751750D02*
X183325000Y-99751750D01*
X164325000Y-118751750D02*
X164325000Y-99751750D01*
X183325000Y-118751750D02*
X164325000Y-118751750D01*
X183325000Y-99751750D02*
X183325000Y-118751750D01*
%TO.C,MX43*%
X183375000Y-99751750D02*
X202375000Y-99751750D01*
X183375000Y-118751750D02*
X183375000Y-99751750D01*
X202375000Y-118751750D02*
X183375000Y-118751750D01*
X202375000Y-99751750D02*
X202375000Y-118751750D01*
%TO.C,MX42*%
X202425000Y-102418750D02*
X221425000Y-102418750D01*
X202425000Y-121418750D02*
X202425000Y-102418750D01*
X221425000Y-121418750D02*
X202425000Y-121418750D01*
X221425000Y-102418750D02*
X221425000Y-121418750D01*
%TO.C,MX38*%
X75431250Y-84162500D02*
X94431250Y-84162500D01*
X75431250Y-103162500D02*
X75431250Y-84162500D01*
X94431250Y-103162500D02*
X75431250Y-103162500D01*
X94431250Y-84162500D02*
X94431250Y-103162500D01*
%TO.C,MX37*%
X94481250Y-84162500D02*
X113481250Y-84162500D01*
X94481250Y-103162500D02*
X94481250Y-84162500D01*
X113481250Y-103162500D02*
X94481250Y-103162500D01*
X113481250Y-84162500D02*
X113481250Y-103162500D01*
%TO.C,MX36*%
X115912500Y-84162500D02*
X134912500Y-84162500D01*
X115912500Y-103162500D02*
X115912500Y-84162500D01*
X134912500Y-103162500D02*
X115912500Y-103162500D01*
X134912500Y-84162500D02*
X134912500Y-103162500D01*
%TO.C,MX35*%
X134962500Y-84162500D02*
X153962500Y-84162500D01*
X134962500Y-103162500D02*
X134962500Y-84162500D01*
X153962500Y-103162500D02*
X134962500Y-103162500D01*
X153962500Y-84162500D02*
X153962500Y-103162500D01*
%TO.C,MX34*%
X154012500Y-77812500D02*
X173012500Y-77812500D01*
X154012500Y-96812500D02*
X154012500Y-77812500D01*
X173012500Y-96812500D02*
X154012500Y-96812500D01*
X173012500Y-77812500D02*
X173012500Y-96812500D01*
%TO.C,MX33*%
X173062500Y-75431250D02*
X192062500Y-75431250D01*
X173062500Y-94431250D02*
X173062500Y-75431250D01*
X192062500Y-94431250D02*
X173062500Y-94431250D01*
X192062500Y-75431250D02*
X192062500Y-94431250D01*
%TO.C,MX32*%
X192112500Y-77812500D02*
X211112500Y-77812500D01*
X192112500Y-96812500D02*
X192112500Y-77812500D01*
X211112500Y-96812500D02*
X192112500Y-96812500D01*
X211112500Y-77812500D02*
X211112500Y-96812500D01*
%TO.C,MX31*%
X211162500Y-80193750D02*
X230162500Y-80193750D01*
X211162500Y-99193750D02*
X211162500Y-80193750D01*
X230162500Y-99193750D02*
X211162500Y-99193750D01*
X230162500Y-80193750D02*
X230162500Y-99193750D01*
%TO.C,MX28*%
X75431250Y-65112500D02*
X94431250Y-65112500D01*
X75431250Y-84112500D02*
X75431250Y-65112500D01*
X94431250Y-84112500D02*
X75431250Y-84112500D01*
X94431250Y-65112500D02*
X94431250Y-84112500D01*
%TO.C,MX26*%
X115912500Y-65112500D02*
X134912500Y-65112500D01*
X115912500Y-84112500D02*
X115912500Y-65112500D01*
X134912500Y-84112500D02*
X115912500Y-84112500D01*
X134912500Y-65112500D02*
X134912500Y-84112500D01*
%TO.C,MX25*%
X134962500Y-65112500D02*
X153962500Y-65112500D01*
X134962500Y-84112500D02*
X134962500Y-65112500D01*
X153962500Y-84112500D02*
X134962500Y-84112500D01*
X153962500Y-65112500D02*
X153962500Y-84112500D01*
%TO.C,MX24*%
X154012500Y-58762500D02*
X173012500Y-58762500D01*
X154012500Y-77762500D02*
X154012500Y-58762500D01*
X173012500Y-77762500D02*
X154012500Y-77762500D01*
X173012500Y-58762500D02*
X173012500Y-77762500D01*
%TO.C,MX23*%
X173062500Y-56381250D02*
X192062500Y-56381250D01*
X173062500Y-75381250D02*
X173062500Y-56381250D01*
X192062500Y-75381250D02*
X173062500Y-75381250D01*
X192062500Y-56381250D02*
X192062500Y-75381250D01*
%TO.C,MX22*%
X192112500Y-58762500D02*
X211112500Y-58762500D01*
X192112500Y-77762500D02*
X192112500Y-58762500D01*
X211112500Y-77762500D02*
X192112500Y-77762500D01*
X211112500Y-58762500D02*
X211112500Y-77762500D01*
%TO.C,MX21*%
X211162500Y-61143750D02*
X230162500Y-61143750D01*
X211162500Y-80143750D02*
X211162500Y-61143750D01*
X230162500Y-80143750D02*
X211162500Y-80143750D01*
X230162500Y-61143750D02*
X230162500Y-80143750D01*
%TO.C,MX19*%
X56381250Y-46062500D02*
X75381250Y-46062500D01*
X56381250Y-65062500D02*
X56381250Y-46062500D01*
X75381250Y-65062500D02*
X56381250Y-65062500D01*
X75381250Y-46062500D02*
X75381250Y-65062500D01*
%TO.C,MX18*%
X75431250Y-46062500D02*
X94431250Y-46062500D01*
X75431250Y-65062500D02*
X75431250Y-46062500D01*
X94431250Y-65062500D02*
X75431250Y-65062500D01*
X94431250Y-46062500D02*
X94431250Y-65062500D01*
%TO.C,MX17*%
X94481250Y-46062500D02*
X113481250Y-46062500D01*
X94481250Y-65062500D02*
X94481250Y-46062500D01*
X113481250Y-65062500D02*
X94481250Y-65062500D01*
X113481250Y-46062500D02*
X113481250Y-65062500D01*
%TO.C,MX16*%
X115912500Y-46062500D02*
X134912500Y-46062500D01*
X115912500Y-65062500D02*
X115912500Y-46062500D01*
X134912500Y-65062500D02*
X115912500Y-65062500D01*
X134912500Y-46062500D02*
X134912500Y-65062500D01*
%TO.C,MX14*%
X154012500Y-39712500D02*
X173012500Y-39712500D01*
X154012500Y-58712500D02*
X154012500Y-39712500D01*
X173012500Y-58712500D02*
X154012500Y-58712500D01*
X173012500Y-39712500D02*
X173012500Y-58712500D01*
%TO.C,MX13*%
X173062500Y-37331250D02*
X192062500Y-37331250D01*
X173062500Y-56331250D02*
X173062500Y-37331250D01*
X192062500Y-56331250D02*
X173062500Y-56331250D01*
X192062500Y-37331250D02*
X192062500Y-56331250D01*
%TO.C,MX12*%
X192112500Y-39712500D02*
X211112500Y-39712500D01*
X192112500Y-58712500D02*
X192112500Y-39712500D01*
X211112500Y-58712500D02*
X192112500Y-58712500D01*
X211112500Y-39712500D02*
X211112500Y-58712500D01*
%TO.C,MX11*%
X211162500Y-42093750D02*
X230162500Y-42093750D01*
X211162500Y-61093750D02*
X211162500Y-42093750D01*
X230162500Y-61093750D02*
X211162500Y-61093750D01*
X230162500Y-42093750D02*
X230162500Y-61093750D01*
%TO.C,MX8*%
X75431250Y-27012500D02*
X94431250Y-27012500D01*
X75431250Y-46012500D02*
X75431250Y-27012500D01*
X94431250Y-46012500D02*
X75431250Y-46012500D01*
X94431250Y-27012500D02*
X94431250Y-46012500D01*
%TO.C,MX7*%
X94481250Y-27012500D02*
X113481250Y-27012500D01*
X94481250Y-46012500D02*
X94481250Y-27012500D01*
X113481250Y-46012500D02*
X94481250Y-46012500D01*
X113481250Y-27012500D02*
X113481250Y-46012500D01*
%TO.C,MX6*%
X115912500Y-27012500D02*
X134912500Y-27012500D01*
X115912500Y-46012500D02*
X115912500Y-27012500D01*
X134912500Y-46012500D02*
X115912500Y-46012500D01*
X134912500Y-27012500D02*
X134912500Y-46012500D01*
%TO.C,MX5*%
X134962500Y-27012500D02*
X153962500Y-27012500D01*
X134962500Y-46012500D02*
X134962500Y-27012500D01*
X153962500Y-46012500D02*
X134962500Y-46012500D01*
X153962500Y-27012500D02*
X153962500Y-46012500D01*
%TO.C,MX4*%
X154012500Y-20662500D02*
X173012500Y-20662500D01*
X154012500Y-39662500D02*
X154012500Y-20662500D01*
X173012500Y-39662500D02*
X154012500Y-39662500D01*
X173012500Y-20662500D02*
X173012500Y-39662500D01*
%TO.C,MX3*%
X173062500Y-18281250D02*
X192062500Y-18281250D01*
X173062500Y-37281250D02*
X173062500Y-18281250D01*
X192062500Y-37281250D02*
X173062500Y-37281250D01*
X192062500Y-18281250D02*
X192062500Y-37281250D01*
%TO.C,MX2*%
X192112500Y-20662500D02*
X211112500Y-20662500D01*
X192112500Y-39662500D02*
X192112500Y-20662500D01*
X211112500Y-39662500D02*
X192112500Y-39662500D01*
X211112500Y-20662500D02*
X211112500Y-39662500D01*
%TO.C,MX1*%
X211162500Y-23043750D02*
X230162500Y-23043750D01*
X211162500Y-42043750D02*
X211162500Y-23043750D01*
X230162500Y-42043750D02*
X211162500Y-42043750D01*
X230162500Y-23043750D02*
X230162500Y-42043750D01*
%TD*%
%TO.C,MX9*%
X64595535Y-40139880D02*
X64595535Y-39139880D01*
X64928869Y-39854166D01*
X65262202Y-39139880D01*
X65262202Y-40139880D01*
X65643154Y-39139880D02*
X66309821Y-40139880D01*
X66309821Y-39139880D02*
X65643154Y-40139880D01*
X66738392Y-40139880D02*
X66928869Y-40139880D01*
X67024107Y-40092261D01*
X67071726Y-40044642D01*
X67166964Y-39901785D01*
X67214583Y-39711309D01*
X67214583Y-39330357D01*
X67166964Y-39235119D01*
X67119345Y-39187500D01*
X67024107Y-39139880D01*
X66833630Y-39139880D01*
X66738392Y-39187500D01*
X66690773Y-39235119D01*
X66643154Y-39330357D01*
X66643154Y-39568452D01*
X66690773Y-39663690D01*
X66738392Y-39711309D01*
X66833630Y-39758928D01*
X67024107Y-39758928D01*
X67119345Y-39711309D01*
X67166964Y-39663690D01*
X67214583Y-39568452D01*
X62119345Y-29027380D02*
X62119345Y-28027380D01*
X62452678Y-28741666D01*
X62786011Y-28027380D01*
X62786011Y-29027380D01*
X63166964Y-28027380D02*
X63833630Y-29027380D01*
X63833630Y-28027380D02*
X63166964Y-29027380D01*
X64214583Y-28646428D02*
X64976488Y-28646428D01*
X65452678Y-29027380D02*
X65452678Y-28027380D01*
X66024107Y-29027380D01*
X66024107Y-28027380D01*
X66643154Y-29027380D02*
X66547916Y-28979761D01*
X66500297Y-28932142D01*
X66452678Y-28836904D01*
X66452678Y-28551190D01*
X66500297Y-28455952D01*
X66547916Y-28408333D01*
X66643154Y-28360714D01*
X66786011Y-28360714D01*
X66881250Y-28408333D01*
X66928869Y-28455952D01*
X66976488Y-28551190D01*
X66976488Y-28836904D01*
X66928869Y-28932142D01*
X66881250Y-28979761D01*
X66786011Y-29027380D01*
X66643154Y-29027380D01*
X67881250Y-29027380D02*
X67405059Y-29027380D01*
X67405059Y-28027380D01*
X68214583Y-28503571D02*
X68547916Y-28503571D01*
X68690773Y-29027380D02*
X68214583Y-29027380D01*
X68214583Y-28027380D01*
X68690773Y-28027380D01*
X69119345Y-29027380D02*
X69119345Y-28027380D01*
X69357440Y-28027380D01*
X69500297Y-28075000D01*
X69595535Y-28170238D01*
X69643154Y-28265476D01*
X69690773Y-28455952D01*
X69690773Y-28598809D01*
X69643154Y-28789285D01*
X69595535Y-28884523D01*
X69500297Y-28979761D01*
X69357440Y-29027380D01*
X69119345Y-29027380D01*
%TO.C,MX39*%
X64119345Y-97289880D02*
X64119345Y-96289880D01*
X64452678Y-97004166D01*
X64786011Y-96289880D01*
X64786011Y-97289880D01*
X65166964Y-96289880D02*
X65833630Y-97289880D01*
X65833630Y-96289880D02*
X65166964Y-97289880D01*
X66119345Y-96289880D02*
X66738392Y-96289880D01*
X66405059Y-96670833D01*
X66547916Y-96670833D01*
X66643154Y-96718452D01*
X66690773Y-96766071D01*
X66738392Y-96861309D01*
X66738392Y-97099404D01*
X66690773Y-97194642D01*
X66643154Y-97242261D01*
X66547916Y-97289880D01*
X66262202Y-97289880D01*
X66166964Y-97242261D01*
X66119345Y-97194642D01*
X67214583Y-97289880D02*
X67405059Y-97289880D01*
X67500297Y-97242261D01*
X67547916Y-97194642D01*
X67643154Y-97051785D01*
X67690773Y-96861309D01*
X67690773Y-96480357D01*
X67643154Y-96385119D01*
X67595535Y-96337500D01*
X67500297Y-96289880D01*
X67309821Y-96289880D01*
X67214583Y-96337500D01*
X67166964Y-96385119D01*
X67119345Y-96480357D01*
X67119345Y-96718452D01*
X67166964Y-96813690D01*
X67214583Y-96861309D01*
X67309821Y-96908928D01*
X67500297Y-96908928D01*
X67595535Y-96861309D01*
X67643154Y-96813690D01*
X67690773Y-96718452D01*
X62119345Y-86177380D02*
X62119345Y-85177380D01*
X62452678Y-85891666D01*
X62786011Y-85177380D01*
X62786011Y-86177380D01*
X63166964Y-85177380D02*
X63833630Y-86177380D01*
X63833630Y-85177380D02*
X63166964Y-86177380D01*
X64214583Y-85796428D02*
X64976488Y-85796428D01*
X65452678Y-86177380D02*
X65452678Y-85177380D01*
X66024107Y-86177380D01*
X66024107Y-85177380D01*
X66643154Y-86177380D02*
X66547916Y-86129761D01*
X66500297Y-86082142D01*
X66452678Y-85986904D01*
X66452678Y-85701190D01*
X66500297Y-85605952D01*
X66547916Y-85558333D01*
X66643154Y-85510714D01*
X66786011Y-85510714D01*
X66881250Y-85558333D01*
X66928869Y-85605952D01*
X66976488Y-85701190D01*
X66976488Y-85986904D01*
X66928869Y-86082142D01*
X66881250Y-86129761D01*
X66786011Y-86177380D01*
X66643154Y-86177380D01*
X67881250Y-86177380D02*
X67405059Y-86177380D01*
X67405059Y-85177380D01*
X68214583Y-85653571D02*
X68547916Y-85653571D01*
X68690773Y-86177380D02*
X68214583Y-86177380D01*
X68214583Y-85177380D01*
X68690773Y-85177380D01*
X69119345Y-86177380D02*
X69119345Y-85177380D01*
X69357440Y-85177380D01*
X69500297Y-85225000D01*
X69595535Y-85320238D01*
X69643154Y-85415476D01*
X69690773Y-85605952D01*
X69690773Y-85748809D01*
X69643154Y-85939285D01*
X69595535Y-86034523D01*
X69500297Y-86129761D01*
X69357440Y-86177380D01*
X69119345Y-86177380D01*
%TO.C,MX41*%
X241744452Y-113099294D02*
X240878426Y-112599294D01*
X241663682Y-112667762D01*
X241211759Y-112021944D01*
X242077785Y-112521944D01*
X241402236Y-111692030D02*
X242601594Y-111614679D01*
X241735569Y-111114679D02*
X242268261Y-112192030D01*
X242429006Y-110580278D02*
X243006356Y-110913611D01*
X241980044Y-110595998D02*
X242479586Y-111159337D01*
X242789110Y-110623227D01*
X243530166Y-110006346D02*
X243244452Y-110501218D01*
X243387309Y-110253782D02*
X242521283Y-109753782D01*
X242597382Y-109907689D01*
X242632242Y-110037787D01*
X242625862Y-110144075D01*
X231120744Y-109275095D02*
X230254718Y-108775095D01*
X231039974Y-108843563D01*
X230588051Y-108197745D01*
X231454077Y-108697745D01*
X230778528Y-107867830D02*
X231977886Y-107790480D01*
X231111861Y-107290480D02*
X231644553Y-108367830D01*
X231838448Y-107270089D02*
X232219401Y-106610261D01*
X232787410Y-106388344D02*
X231921385Y-105888344D01*
X233073124Y-105893472D01*
X232207099Y-105393472D01*
X233382648Y-105357361D02*
X233293790Y-105416030D01*
X233228741Y-105433460D01*
X233122453Y-105427080D01*
X232875017Y-105284223D01*
X232816348Y-105195365D01*
X232798918Y-105130316D01*
X232805298Y-105024028D01*
X232876727Y-104900310D01*
X232965585Y-104841641D01*
X233030634Y-104824211D01*
X233136922Y-104830591D01*
X233384358Y-104973448D01*
X233443027Y-105062306D01*
X233460457Y-105127355D01*
X233454077Y-105233643D01*
X233382648Y-105357361D01*
X234001696Y-104285139D02*
X233763601Y-104697532D01*
X232897575Y-104197532D01*
X233714730Y-103734559D02*
X233881397Y-103445884D01*
X234406458Y-103584071D02*
X234168363Y-103996464D01*
X233302337Y-103496464D01*
X233540432Y-103084071D01*
X234620744Y-103212917D02*
X233754718Y-102712917D01*
X233873766Y-102506721D01*
X233986434Y-102406812D01*
X234116531Y-102371953D01*
X234222819Y-102378333D01*
X234411586Y-102432331D01*
X234535304Y-102503760D01*
X234676452Y-102640237D01*
X234735121Y-102729096D01*
X234769980Y-102859193D01*
X234739791Y-103006721D01*
X234620744Y-103212917D01*
%TO.C,MX15*%
X142700595Y-59189880D02*
X142700595Y-58189880D01*
X143033928Y-58904166D01*
X143367261Y-58189880D01*
X143367261Y-59189880D01*
X143748214Y-58189880D02*
X144414880Y-59189880D01*
X144414880Y-58189880D02*
X143748214Y-59189880D01*
X145319642Y-59189880D02*
X144748214Y-59189880D01*
X145033928Y-59189880D02*
X145033928Y-58189880D01*
X144938690Y-58332738D01*
X144843452Y-58427976D01*
X144748214Y-58475595D01*
X146224404Y-58189880D02*
X145748214Y-58189880D01*
X145700595Y-58666071D01*
X145748214Y-58618452D01*
X145843452Y-58570833D01*
X146081547Y-58570833D01*
X146176785Y-58618452D01*
X146224404Y-58666071D01*
X146272023Y-58761309D01*
X146272023Y-58999404D01*
X146224404Y-59094642D01*
X146176785Y-59142261D01*
X146081547Y-59189880D01*
X145843452Y-59189880D01*
X145748214Y-59142261D01*
X145700595Y-59094642D01*
X140700595Y-48077380D02*
X140700595Y-47077380D01*
X141033928Y-47791666D01*
X141367261Y-47077380D01*
X141367261Y-48077380D01*
X141748214Y-47077380D02*
X142414880Y-48077380D01*
X142414880Y-47077380D02*
X141748214Y-48077380D01*
X142795833Y-47696428D02*
X143557738Y-47696428D01*
X144033928Y-48077380D02*
X144033928Y-47077380D01*
X144605357Y-48077380D01*
X144605357Y-47077380D01*
X145224404Y-48077380D02*
X145129166Y-48029761D01*
X145081547Y-47982142D01*
X145033928Y-47886904D01*
X145033928Y-47601190D01*
X145081547Y-47505952D01*
X145129166Y-47458333D01*
X145224404Y-47410714D01*
X145367261Y-47410714D01*
X145462500Y-47458333D01*
X145510119Y-47505952D01*
X145557738Y-47601190D01*
X145557738Y-47886904D01*
X145510119Y-47982142D01*
X145462500Y-48029761D01*
X145367261Y-48077380D01*
X145224404Y-48077380D01*
X146462500Y-48077380D02*
X145986309Y-48077380D01*
X145986309Y-47077380D01*
X146795833Y-47553571D02*
X147129166Y-47553571D01*
X147272023Y-48077380D02*
X146795833Y-48077380D01*
X146795833Y-47077380D01*
X147272023Y-47077380D01*
X147700595Y-48077380D02*
X147700595Y-47077380D01*
X147938690Y-47077380D01*
X148081547Y-47125000D01*
X148176785Y-47220238D01*
X148224404Y-47315476D01*
X148272023Y-47505952D01*
X148272023Y-47648809D01*
X148224404Y-47839285D01*
X148176785Y-47934523D01*
X148081547Y-48029761D01*
X147938690Y-48077380D01*
X147700595Y-48077380D01*
%TO.C,MX44*%
X172063095Y-112879130D02*
X172063095Y-111879130D01*
X172396428Y-112593416D01*
X172729761Y-111879130D01*
X172729761Y-112879130D01*
X173110714Y-111879130D02*
X173777380Y-112879130D01*
X173777380Y-111879130D02*
X173110714Y-112879130D01*
X174586904Y-112212464D02*
X174586904Y-112879130D01*
X174348809Y-111831511D02*
X174110714Y-112545797D01*
X174729761Y-112545797D01*
X175539285Y-112212464D02*
X175539285Y-112879130D01*
X175301190Y-111831511D02*
X175063095Y-112545797D01*
X175682142Y-112545797D01*
X170063095Y-101766630D02*
X170063095Y-100766630D01*
X170396428Y-101480916D01*
X170729761Y-100766630D01*
X170729761Y-101766630D01*
X171110714Y-100766630D02*
X171777380Y-101766630D01*
X171777380Y-100766630D02*
X171110714Y-101766630D01*
X172158333Y-101385678D02*
X172920238Y-101385678D01*
X173396428Y-101766630D02*
X173396428Y-100766630D01*
X173967857Y-101766630D01*
X173967857Y-100766630D01*
X174586904Y-101766630D02*
X174491666Y-101719011D01*
X174444047Y-101671392D01*
X174396428Y-101576154D01*
X174396428Y-101290440D01*
X174444047Y-101195202D01*
X174491666Y-101147583D01*
X174586904Y-101099964D01*
X174729761Y-101099964D01*
X174825000Y-101147583D01*
X174872619Y-101195202D01*
X174920238Y-101290440D01*
X174920238Y-101576154D01*
X174872619Y-101671392D01*
X174825000Y-101719011D01*
X174729761Y-101766630D01*
X174586904Y-101766630D01*
X175825000Y-101766630D02*
X175348809Y-101766630D01*
X175348809Y-100766630D01*
X176158333Y-101242821D02*
X176491666Y-101242821D01*
X176634523Y-101766630D02*
X176158333Y-101766630D01*
X176158333Y-100766630D01*
X176634523Y-100766630D01*
X177063095Y-101766630D02*
X177063095Y-100766630D01*
X177301190Y-100766630D01*
X177444047Y-100814250D01*
X177539285Y-100909488D01*
X177586904Y-101004726D01*
X177634523Y-101195202D01*
X177634523Y-101338059D01*
X177586904Y-101528535D01*
X177539285Y-101623773D01*
X177444047Y-101719011D01*
X177301190Y-101766630D01*
X177063095Y-101766630D01*
%TO.C,MX43*%
X191113095Y-112879130D02*
X191113095Y-111879130D01*
X191446428Y-112593416D01*
X191779761Y-111879130D01*
X191779761Y-112879130D01*
X192160714Y-111879130D02*
X192827380Y-112879130D01*
X192827380Y-111879130D02*
X192160714Y-112879130D01*
X193636904Y-112212464D02*
X193636904Y-112879130D01*
X193398809Y-111831511D02*
X193160714Y-112545797D01*
X193779761Y-112545797D01*
X194065476Y-111879130D02*
X194684523Y-111879130D01*
X194351190Y-112260083D01*
X194494047Y-112260083D01*
X194589285Y-112307702D01*
X194636904Y-112355321D01*
X194684523Y-112450559D01*
X194684523Y-112688654D01*
X194636904Y-112783892D01*
X194589285Y-112831511D01*
X194494047Y-112879130D01*
X194208333Y-112879130D01*
X194113095Y-112831511D01*
X194065476Y-112783892D01*
X189113095Y-101766630D02*
X189113095Y-100766630D01*
X189446428Y-101480916D01*
X189779761Y-100766630D01*
X189779761Y-101766630D01*
X190160714Y-100766630D02*
X190827380Y-101766630D01*
X190827380Y-100766630D02*
X190160714Y-101766630D01*
X191208333Y-101385678D02*
X191970238Y-101385678D01*
X192446428Y-101766630D02*
X192446428Y-100766630D01*
X193017857Y-101766630D01*
X193017857Y-100766630D01*
X193636904Y-101766630D02*
X193541666Y-101719011D01*
X193494047Y-101671392D01*
X193446428Y-101576154D01*
X193446428Y-101290440D01*
X193494047Y-101195202D01*
X193541666Y-101147583D01*
X193636904Y-101099964D01*
X193779761Y-101099964D01*
X193875000Y-101147583D01*
X193922619Y-101195202D01*
X193970238Y-101290440D01*
X193970238Y-101576154D01*
X193922619Y-101671392D01*
X193875000Y-101719011D01*
X193779761Y-101766630D01*
X193636904Y-101766630D01*
X194875000Y-101766630D02*
X194398809Y-101766630D01*
X194398809Y-100766630D01*
X195208333Y-101242821D02*
X195541666Y-101242821D01*
X195684523Y-101766630D02*
X195208333Y-101766630D01*
X195208333Y-100766630D01*
X195684523Y-100766630D01*
X196113095Y-101766630D02*
X196113095Y-100766630D01*
X196351190Y-100766630D01*
X196494047Y-100814250D01*
X196589285Y-100909488D01*
X196636904Y-101004726D01*
X196684523Y-101195202D01*
X196684523Y-101338059D01*
X196636904Y-101528535D01*
X196589285Y-101623773D01*
X196494047Y-101719011D01*
X196351190Y-101766630D01*
X196113095Y-101766630D01*
%TO.C,MX42*%
X210163095Y-115546130D02*
X210163095Y-114546130D01*
X210496428Y-115260416D01*
X210829761Y-114546130D01*
X210829761Y-115546130D01*
X211210714Y-114546130D02*
X211877380Y-115546130D01*
X211877380Y-114546130D02*
X211210714Y-115546130D01*
X212686904Y-114879464D02*
X212686904Y-115546130D01*
X212448809Y-114498511D02*
X212210714Y-115212797D01*
X212829761Y-115212797D01*
X213163095Y-114641369D02*
X213210714Y-114593750D01*
X213305952Y-114546130D01*
X213544047Y-114546130D01*
X213639285Y-114593750D01*
X213686904Y-114641369D01*
X213734523Y-114736607D01*
X213734523Y-114831845D01*
X213686904Y-114974702D01*
X213115476Y-115546130D01*
X213734523Y-115546130D01*
X208163095Y-104433630D02*
X208163095Y-103433630D01*
X208496428Y-104147916D01*
X208829761Y-103433630D01*
X208829761Y-104433630D01*
X209210714Y-103433630D02*
X209877380Y-104433630D01*
X209877380Y-103433630D02*
X209210714Y-104433630D01*
X210258333Y-104052678D02*
X211020238Y-104052678D01*
X211496428Y-104433630D02*
X211496428Y-103433630D01*
X212067857Y-104433630D01*
X212067857Y-103433630D01*
X212686904Y-104433630D02*
X212591666Y-104386011D01*
X212544047Y-104338392D01*
X212496428Y-104243154D01*
X212496428Y-103957440D01*
X212544047Y-103862202D01*
X212591666Y-103814583D01*
X212686904Y-103766964D01*
X212829761Y-103766964D01*
X212925000Y-103814583D01*
X212972619Y-103862202D01*
X213020238Y-103957440D01*
X213020238Y-104243154D01*
X212972619Y-104338392D01*
X212925000Y-104386011D01*
X212829761Y-104433630D01*
X212686904Y-104433630D01*
X213925000Y-104433630D02*
X213448809Y-104433630D01*
X213448809Y-103433630D01*
X214258333Y-103909821D02*
X214591666Y-103909821D01*
X214734523Y-104433630D02*
X214258333Y-104433630D01*
X214258333Y-103433630D01*
X214734523Y-103433630D01*
X215163095Y-104433630D02*
X215163095Y-103433630D01*
X215401190Y-103433630D01*
X215544047Y-103481250D01*
X215639285Y-103576488D01*
X215686904Y-103671726D01*
X215734523Y-103862202D01*
X215734523Y-104005059D01*
X215686904Y-104195535D01*
X215639285Y-104290773D01*
X215544047Y-104386011D01*
X215401190Y-104433630D01*
X215163095Y-104433630D01*
%TO.C,MX38*%
X83169345Y-97289880D02*
X83169345Y-96289880D01*
X83502678Y-97004166D01*
X83836011Y-96289880D01*
X83836011Y-97289880D01*
X84216964Y-96289880D02*
X84883630Y-97289880D01*
X84883630Y-96289880D02*
X84216964Y-97289880D01*
X85169345Y-96289880D02*
X85788392Y-96289880D01*
X85455059Y-96670833D01*
X85597916Y-96670833D01*
X85693154Y-96718452D01*
X85740773Y-96766071D01*
X85788392Y-96861309D01*
X85788392Y-97099404D01*
X85740773Y-97194642D01*
X85693154Y-97242261D01*
X85597916Y-97289880D01*
X85312202Y-97289880D01*
X85216964Y-97242261D01*
X85169345Y-97194642D01*
X86359821Y-96718452D02*
X86264583Y-96670833D01*
X86216964Y-96623214D01*
X86169345Y-96527976D01*
X86169345Y-96480357D01*
X86216964Y-96385119D01*
X86264583Y-96337500D01*
X86359821Y-96289880D01*
X86550297Y-96289880D01*
X86645535Y-96337500D01*
X86693154Y-96385119D01*
X86740773Y-96480357D01*
X86740773Y-96527976D01*
X86693154Y-96623214D01*
X86645535Y-96670833D01*
X86550297Y-96718452D01*
X86359821Y-96718452D01*
X86264583Y-96766071D01*
X86216964Y-96813690D01*
X86169345Y-96908928D01*
X86169345Y-97099404D01*
X86216964Y-97194642D01*
X86264583Y-97242261D01*
X86359821Y-97289880D01*
X86550297Y-97289880D01*
X86645535Y-97242261D01*
X86693154Y-97194642D01*
X86740773Y-97099404D01*
X86740773Y-96908928D01*
X86693154Y-96813690D01*
X86645535Y-96766071D01*
X86550297Y-96718452D01*
X81169345Y-86177380D02*
X81169345Y-85177380D01*
X81502678Y-85891666D01*
X81836011Y-85177380D01*
X81836011Y-86177380D01*
X82216964Y-85177380D02*
X82883630Y-86177380D01*
X82883630Y-85177380D02*
X82216964Y-86177380D01*
X83264583Y-85796428D02*
X84026488Y-85796428D01*
X84502678Y-86177380D02*
X84502678Y-85177380D01*
X85074107Y-86177380D01*
X85074107Y-85177380D01*
X85693154Y-86177380D02*
X85597916Y-86129761D01*
X85550297Y-86082142D01*
X85502678Y-85986904D01*
X85502678Y-85701190D01*
X85550297Y-85605952D01*
X85597916Y-85558333D01*
X85693154Y-85510714D01*
X85836011Y-85510714D01*
X85931250Y-85558333D01*
X85978869Y-85605952D01*
X86026488Y-85701190D01*
X86026488Y-85986904D01*
X85978869Y-86082142D01*
X85931250Y-86129761D01*
X85836011Y-86177380D01*
X85693154Y-86177380D01*
X86931250Y-86177380D02*
X86455059Y-86177380D01*
X86455059Y-85177380D01*
X87264583Y-85653571D02*
X87597916Y-85653571D01*
X87740773Y-86177380D02*
X87264583Y-86177380D01*
X87264583Y-85177380D01*
X87740773Y-85177380D01*
X88169345Y-86177380D02*
X88169345Y-85177380D01*
X88407440Y-85177380D01*
X88550297Y-85225000D01*
X88645535Y-85320238D01*
X88693154Y-85415476D01*
X88740773Y-85605952D01*
X88740773Y-85748809D01*
X88693154Y-85939285D01*
X88645535Y-86034523D01*
X88550297Y-86129761D01*
X88407440Y-86177380D01*
X88169345Y-86177380D01*
%TO.C,MX37*%
X102219345Y-97289880D02*
X102219345Y-96289880D01*
X102552678Y-97004166D01*
X102886011Y-96289880D01*
X102886011Y-97289880D01*
X103266964Y-96289880D02*
X103933630Y-97289880D01*
X103933630Y-96289880D02*
X103266964Y-97289880D01*
X104219345Y-96289880D02*
X104838392Y-96289880D01*
X104505059Y-96670833D01*
X104647916Y-96670833D01*
X104743154Y-96718452D01*
X104790773Y-96766071D01*
X104838392Y-96861309D01*
X104838392Y-97099404D01*
X104790773Y-97194642D01*
X104743154Y-97242261D01*
X104647916Y-97289880D01*
X104362202Y-97289880D01*
X104266964Y-97242261D01*
X104219345Y-97194642D01*
X105171726Y-96289880D02*
X105838392Y-96289880D01*
X105409821Y-97289880D01*
X100219345Y-86177380D02*
X100219345Y-85177380D01*
X100552678Y-85891666D01*
X100886011Y-85177380D01*
X100886011Y-86177380D01*
X101266964Y-85177380D02*
X101933630Y-86177380D01*
X101933630Y-85177380D02*
X101266964Y-86177380D01*
X102314583Y-85796428D02*
X103076488Y-85796428D01*
X103552678Y-86177380D02*
X103552678Y-85177380D01*
X104124107Y-86177380D01*
X104124107Y-85177380D01*
X104743154Y-86177380D02*
X104647916Y-86129761D01*
X104600297Y-86082142D01*
X104552678Y-85986904D01*
X104552678Y-85701190D01*
X104600297Y-85605952D01*
X104647916Y-85558333D01*
X104743154Y-85510714D01*
X104886011Y-85510714D01*
X104981250Y-85558333D01*
X105028869Y-85605952D01*
X105076488Y-85701190D01*
X105076488Y-85986904D01*
X105028869Y-86082142D01*
X104981250Y-86129761D01*
X104886011Y-86177380D01*
X104743154Y-86177380D01*
X105981250Y-86177380D02*
X105505059Y-86177380D01*
X105505059Y-85177380D01*
X106314583Y-85653571D02*
X106647916Y-85653571D01*
X106790773Y-86177380D02*
X106314583Y-86177380D01*
X106314583Y-85177380D01*
X106790773Y-85177380D01*
X107219345Y-86177380D02*
X107219345Y-85177380D01*
X107457440Y-85177380D01*
X107600297Y-85225000D01*
X107695535Y-85320238D01*
X107743154Y-85415476D01*
X107790773Y-85605952D01*
X107790773Y-85748809D01*
X107743154Y-85939285D01*
X107695535Y-86034523D01*
X107600297Y-86129761D01*
X107457440Y-86177380D01*
X107219345Y-86177380D01*
%TO.C,MX36*%
X123650595Y-97289880D02*
X123650595Y-96289880D01*
X123983928Y-97004166D01*
X124317261Y-96289880D01*
X124317261Y-97289880D01*
X124698214Y-96289880D02*
X125364880Y-97289880D01*
X125364880Y-96289880D02*
X124698214Y-97289880D01*
X125650595Y-96289880D02*
X126269642Y-96289880D01*
X125936309Y-96670833D01*
X126079166Y-96670833D01*
X126174404Y-96718452D01*
X126222023Y-96766071D01*
X126269642Y-96861309D01*
X126269642Y-97099404D01*
X126222023Y-97194642D01*
X126174404Y-97242261D01*
X126079166Y-97289880D01*
X125793452Y-97289880D01*
X125698214Y-97242261D01*
X125650595Y-97194642D01*
X127126785Y-96289880D02*
X126936309Y-96289880D01*
X126841071Y-96337500D01*
X126793452Y-96385119D01*
X126698214Y-96527976D01*
X126650595Y-96718452D01*
X126650595Y-97099404D01*
X126698214Y-97194642D01*
X126745833Y-97242261D01*
X126841071Y-97289880D01*
X127031547Y-97289880D01*
X127126785Y-97242261D01*
X127174404Y-97194642D01*
X127222023Y-97099404D01*
X127222023Y-96861309D01*
X127174404Y-96766071D01*
X127126785Y-96718452D01*
X127031547Y-96670833D01*
X126841071Y-96670833D01*
X126745833Y-96718452D01*
X126698214Y-96766071D01*
X126650595Y-96861309D01*
X121650595Y-86177380D02*
X121650595Y-85177380D01*
X121983928Y-85891666D01*
X122317261Y-85177380D01*
X122317261Y-86177380D01*
X122698214Y-85177380D02*
X123364880Y-86177380D01*
X123364880Y-85177380D02*
X122698214Y-86177380D01*
X123745833Y-85796428D02*
X124507738Y-85796428D01*
X124983928Y-86177380D02*
X124983928Y-85177380D01*
X125555357Y-86177380D01*
X125555357Y-85177380D01*
X126174404Y-86177380D02*
X126079166Y-86129761D01*
X126031547Y-86082142D01*
X125983928Y-85986904D01*
X125983928Y-85701190D01*
X126031547Y-85605952D01*
X126079166Y-85558333D01*
X126174404Y-85510714D01*
X126317261Y-85510714D01*
X126412500Y-85558333D01*
X126460119Y-85605952D01*
X126507738Y-85701190D01*
X126507738Y-85986904D01*
X126460119Y-86082142D01*
X126412500Y-86129761D01*
X126317261Y-86177380D01*
X126174404Y-86177380D01*
X127412500Y-86177380D02*
X126936309Y-86177380D01*
X126936309Y-85177380D01*
X127745833Y-85653571D02*
X128079166Y-85653571D01*
X128222023Y-86177380D02*
X127745833Y-86177380D01*
X127745833Y-85177380D01*
X128222023Y-85177380D01*
X128650595Y-86177380D02*
X128650595Y-85177380D01*
X128888690Y-85177380D01*
X129031547Y-85225000D01*
X129126785Y-85320238D01*
X129174404Y-85415476D01*
X129222023Y-85605952D01*
X129222023Y-85748809D01*
X129174404Y-85939285D01*
X129126785Y-86034523D01*
X129031547Y-86129761D01*
X128888690Y-86177380D01*
X128650595Y-86177380D01*
%TO.C,MX35*%
X142700595Y-97289880D02*
X142700595Y-96289880D01*
X143033928Y-97004166D01*
X143367261Y-96289880D01*
X143367261Y-97289880D01*
X143748214Y-96289880D02*
X144414880Y-97289880D01*
X144414880Y-96289880D02*
X143748214Y-97289880D01*
X144700595Y-96289880D02*
X145319642Y-96289880D01*
X144986309Y-96670833D01*
X145129166Y-96670833D01*
X145224404Y-96718452D01*
X145272023Y-96766071D01*
X145319642Y-96861309D01*
X145319642Y-97099404D01*
X145272023Y-97194642D01*
X145224404Y-97242261D01*
X145129166Y-97289880D01*
X144843452Y-97289880D01*
X144748214Y-97242261D01*
X144700595Y-97194642D01*
X146224404Y-96289880D02*
X145748214Y-96289880D01*
X145700595Y-96766071D01*
X145748214Y-96718452D01*
X145843452Y-96670833D01*
X146081547Y-96670833D01*
X146176785Y-96718452D01*
X146224404Y-96766071D01*
X146272023Y-96861309D01*
X146272023Y-97099404D01*
X146224404Y-97194642D01*
X146176785Y-97242261D01*
X146081547Y-97289880D01*
X145843452Y-97289880D01*
X145748214Y-97242261D01*
X145700595Y-97194642D01*
X140700595Y-86177380D02*
X140700595Y-85177380D01*
X141033928Y-85891666D01*
X141367261Y-85177380D01*
X141367261Y-86177380D01*
X141748214Y-85177380D02*
X142414880Y-86177380D01*
X142414880Y-85177380D02*
X141748214Y-86177380D01*
X142795833Y-85796428D02*
X143557738Y-85796428D01*
X144033928Y-86177380D02*
X144033928Y-85177380D01*
X144605357Y-86177380D01*
X144605357Y-85177380D01*
X145224404Y-86177380D02*
X145129166Y-86129761D01*
X145081547Y-86082142D01*
X145033928Y-85986904D01*
X145033928Y-85701190D01*
X145081547Y-85605952D01*
X145129166Y-85558333D01*
X145224404Y-85510714D01*
X145367261Y-85510714D01*
X145462500Y-85558333D01*
X145510119Y-85605952D01*
X145557738Y-85701190D01*
X145557738Y-85986904D01*
X145510119Y-86082142D01*
X145462500Y-86129761D01*
X145367261Y-86177380D01*
X145224404Y-86177380D01*
X146462500Y-86177380D02*
X145986309Y-86177380D01*
X145986309Y-85177380D01*
X146795833Y-85653571D02*
X147129166Y-85653571D01*
X147272023Y-86177380D02*
X146795833Y-86177380D01*
X146795833Y-85177380D01*
X147272023Y-85177380D01*
X147700595Y-86177380D02*
X147700595Y-85177380D01*
X147938690Y-85177380D01*
X148081547Y-85225000D01*
X148176785Y-85320238D01*
X148224404Y-85415476D01*
X148272023Y-85605952D01*
X148272023Y-85748809D01*
X148224404Y-85939285D01*
X148176785Y-86034523D01*
X148081547Y-86129761D01*
X147938690Y-86177380D01*
X147700595Y-86177380D01*
%TO.C,MX34*%
X161750595Y-90939880D02*
X161750595Y-89939880D01*
X162083928Y-90654166D01*
X162417261Y-89939880D01*
X162417261Y-90939880D01*
X162798214Y-89939880D02*
X163464880Y-90939880D01*
X163464880Y-89939880D02*
X162798214Y-90939880D01*
X163750595Y-89939880D02*
X164369642Y-89939880D01*
X164036309Y-90320833D01*
X164179166Y-90320833D01*
X164274404Y-90368452D01*
X164322023Y-90416071D01*
X164369642Y-90511309D01*
X164369642Y-90749404D01*
X164322023Y-90844642D01*
X164274404Y-90892261D01*
X164179166Y-90939880D01*
X163893452Y-90939880D01*
X163798214Y-90892261D01*
X163750595Y-90844642D01*
X165226785Y-90273214D02*
X165226785Y-90939880D01*
X164988690Y-89892261D02*
X164750595Y-90606547D01*
X165369642Y-90606547D01*
X159750595Y-79827380D02*
X159750595Y-78827380D01*
X160083928Y-79541666D01*
X160417261Y-78827380D01*
X160417261Y-79827380D01*
X160798214Y-78827380D02*
X161464880Y-79827380D01*
X161464880Y-78827380D02*
X160798214Y-79827380D01*
X161845833Y-79446428D02*
X162607738Y-79446428D01*
X163083928Y-79827380D02*
X163083928Y-78827380D01*
X163655357Y-79827380D01*
X163655357Y-78827380D01*
X164274404Y-79827380D02*
X164179166Y-79779761D01*
X164131547Y-79732142D01*
X164083928Y-79636904D01*
X164083928Y-79351190D01*
X164131547Y-79255952D01*
X164179166Y-79208333D01*
X164274404Y-79160714D01*
X164417261Y-79160714D01*
X164512500Y-79208333D01*
X164560119Y-79255952D01*
X164607738Y-79351190D01*
X164607738Y-79636904D01*
X164560119Y-79732142D01*
X164512500Y-79779761D01*
X164417261Y-79827380D01*
X164274404Y-79827380D01*
X165512500Y-79827380D02*
X165036309Y-79827380D01*
X165036309Y-78827380D01*
X165845833Y-79303571D02*
X166179166Y-79303571D01*
X166322023Y-79827380D02*
X165845833Y-79827380D01*
X165845833Y-78827380D01*
X166322023Y-78827380D01*
X166750595Y-79827380D02*
X166750595Y-78827380D01*
X166988690Y-78827380D01*
X167131547Y-78875000D01*
X167226785Y-78970238D01*
X167274404Y-79065476D01*
X167322023Y-79255952D01*
X167322023Y-79398809D01*
X167274404Y-79589285D01*
X167226785Y-79684523D01*
X167131547Y-79779761D01*
X166988690Y-79827380D01*
X166750595Y-79827380D01*
%TO.C,MX33*%
X180800595Y-88558630D02*
X180800595Y-87558630D01*
X181133928Y-88272916D01*
X181467261Y-87558630D01*
X181467261Y-88558630D01*
X181848214Y-87558630D02*
X182514880Y-88558630D01*
X182514880Y-87558630D02*
X181848214Y-88558630D01*
X182800595Y-87558630D02*
X183419642Y-87558630D01*
X183086309Y-87939583D01*
X183229166Y-87939583D01*
X183324404Y-87987202D01*
X183372023Y-88034821D01*
X183419642Y-88130059D01*
X183419642Y-88368154D01*
X183372023Y-88463392D01*
X183324404Y-88511011D01*
X183229166Y-88558630D01*
X182943452Y-88558630D01*
X182848214Y-88511011D01*
X182800595Y-88463392D01*
X183752976Y-87558630D02*
X184372023Y-87558630D01*
X184038690Y-87939583D01*
X184181547Y-87939583D01*
X184276785Y-87987202D01*
X184324404Y-88034821D01*
X184372023Y-88130059D01*
X184372023Y-88368154D01*
X184324404Y-88463392D01*
X184276785Y-88511011D01*
X184181547Y-88558630D01*
X183895833Y-88558630D01*
X183800595Y-88511011D01*
X183752976Y-88463392D01*
X178800595Y-77446130D02*
X178800595Y-76446130D01*
X179133928Y-77160416D01*
X179467261Y-76446130D01*
X179467261Y-77446130D01*
X179848214Y-76446130D02*
X180514880Y-77446130D01*
X180514880Y-76446130D02*
X179848214Y-77446130D01*
X180895833Y-77065178D02*
X181657738Y-77065178D01*
X182133928Y-77446130D02*
X182133928Y-76446130D01*
X182705357Y-77446130D01*
X182705357Y-76446130D01*
X183324404Y-77446130D02*
X183229166Y-77398511D01*
X183181547Y-77350892D01*
X183133928Y-77255654D01*
X183133928Y-76969940D01*
X183181547Y-76874702D01*
X183229166Y-76827083D01*
X183324404Y-76779464D01*
X183467261Y-76779464D01*
X183562500Y-76827083D01*
X183610119Y-76874702D01*
X183657738Y-76969940D01*
X183657738Y-77255654D01*
X183610119Y-77350892D01*
X183562500Y-77398511D01*
X183467261Y-77446130D01*
X183324404Y-77446130D01*
X184562500Y-77446130D02*
X184086309Y-77446130D01*
X184086309Y-76446130D01*
X184895833Y-76922321D02*
X185229166Y-76922321D01*
X185372023Y-77446130D02*
X184895833Y-77446130D01*
X184895833Y-76446130D01*
X185372023Y-76446130D01*
X185800595Y-77446130D02*
X185800595Y-76446130D01*
X186038690Y-76446130D01*
X186181547Y-76493750D01*
X186276785Y-76588988D01*
X186324404Y-76684226D01*
X186372023Y-76874702D01*
X186372023Y-77017559D01*
X186324404Y-77208035D01*
X186276785Y-77303273D01*
X186181547Y-77398511D01*
X186038690Y-77446130D01*
X185800595Y-77446130D01*
%TO.C,MX32*%
X199850595Y-90939880D02*
X199850595Y-89939880D01*
X200183928Y-90654166D01*
X200517261Y-89939880D01*
X200517261Y-90939880D01*
X200898214Y-89939880D02*
X201564880Y-90939880D01*
X201564880Y-89939880D02*
X200898214Y-90939880D01*
X201850595Y-89939880D02*
X202469642Y-89939880D01*
X202136309Y-90320833D01*
X202279166Y-90320833D01*
X202374404Y-90368452D01*
X202422023Y-90416071D01*
X202469642Y-90511309D01*
X202469642Y-90749404D01*
X202422023Y-90844642D01*
X202374404Y-90892261D01*
X202279166Y-90939880D01*
X201993452Y-90939880D01*
X201898214Y-90892261D01*
X201850595Y-90844642D01*
X202850595Y-90035119D02*
X202898214Y-89987500D01*
X202993452Y-89939880D01*
X203231547Y-89939880D01*
X203326785Y-89987500D01*
X203374404Y-90035119D01*
X203422023Y-90130357D01*
X203422023Y-90225595D01*
X203374404Y-90368452D01*
X202802976Y-90939880D01*
X203422023Y-90939880D01*
X197850595Y-79827380D02*
X197850595Y-78827380D01*
X198183928Y-79541666D01*
X198517261Y-78827380D01*
X198517261Y-79827380D01*
X198898214Y-78827380D02*
X199564880Y-79827380D01*
X199564880Y-78827380D02*
X198898214Y-79827380D01*
X199945833Y-79446428D02*
X200707738Y-79446428D01*
X201183928Y-79827380D02*
X201183928Y-78827380D01*
X201755357Y-79827380D01*
X201755357Y-78827380D01*
X202374404Y-79827380D02*
X202279166Y-79779761D01*
X202231547Y-79732142D01*
X202183928Y-79636904D01*
X202183928Y-79351190D01*
X202231547Y-79255952D01*
X202279166Y-79208333D01*
X202374404Y-79160714D01*
X202517261Y-79160714D01*
X202612500Y-79208333D01*
X202660119Y-79255952D01*
X202707738Y-79351190D01*
X202707738Y-79636904D01*
X202660119Y-79732142D01*
X202612500Y-79779761D01*
X202517261Y-79827380D01*
X202374404Y-79827380D01*
X203612500Y-79827380D02*
X203136309Y-79827380D01*
X203136309Y-78827380D01*
X203945833Y-79303571D02*
X204279166Y-79303571D01*
X204422023Y-79827380D02*
X203945833Y-79827380D01*
X203945833Y-78827380D01*
X204422023Y-78827380D01*
X204850595Y-79827380D02*
X204850595Y-78827380D01*
X205088690Y-78827380D01*
X205231547Y-78875000D01*
X205326785Y-78970238D01*
X205374404Y-79065476D01*
X205422023Y-79255952D01*
X205422023Y-79398809D01*
X205374404Y-79589285D01*
X205326785Y-79684523D01*
X205231547Y-79779761D01*
X205088690Y-79827380D01*
X204850595Y-79827380D01*
%TO.C,MX31*%
X218900595Y-93321130D02*
X218900595Y-92321130D01*
X219233928Y-93035416D01*
X219567261Y-92321130D01*
X219567261Y-93321130D01*
X219948214Y-92321130D02*
X220614880Y-93321130D01*
X220614880Y-92321130D02*
X219948214Y-93321130D01*
X220900595Y-92321130D02*
X221519642Y-92321130D01*
X221186309Y-92702083D01*
X221329166Y-92702083D01*
X221424404Y-92749702D01*
X221472023Y-92797321D01*
X221519642Y-92892559D01*
X221519642Y-93130654D01*
X221472023Y-93225892D01*
X221424404Y-93273511D01*
X221329166Y-93321130D01*
X221043452Y-93321130D01*
X220948214Y-93273511D01*
X220900595Y-93225892D01*
X222472023Y-93321130D02*
X221900595Y-93321130D01*
X222186309Y-93321130D02*
X222186309Y-92321130D01*
X222091071Y-92463988D01*
X221995833Y-92559226D01*
X221900595Y-92606845D01*
X216900595Y-82208630D02*
X216900595Y-81208630D01*
X217233928Y-81922916D01*
X217567261Y-81208630D01*
X217567261Y-82208630D01*
X217948214Y-81208630D02*
X218614880Y-82208630D01*
X218614880Y-81208630D02*
X217948214Y-82208630D01*
X218995833Y-81827678D02*
X219757738Y-81827678D01*
X220233928Y-82208630D02*
X220233928Y-81208630D01*
X220805357Y-82208630D01*
X220805357Y-81208630D01*
X221424404Y-82208630D02*
X221329166Y-82161011D01*
X221281547Y-82113392D01*
X221233928Y-82018154D01*
X221233928Y-81732440D01*
X221281547Y-81637202D01*
X221329166Y-81589583D01*
X221424404Y-81541964D01*
X221567261Y-81541964D01*
X221662500Y-81589583D01*
X221710119Y-81637202D01*
X221757738Y-81732440D01*
X221757738Y-82018154D01*
X221710119Y-82113392D01*
X221662500Y-82161011D01*
X221567261Y-82208630D01*
X221424404Y-82208630D01*
X222662500Y-82208630D02*
X222186309Y-82208630D01*
X222186309Y-81208630D01*
X222995833Y-81684821D02*
X223329166Y-81684821D01*
X223472023Y-82208630D02*
X222995833Y-82208630D01*
X222995833Y-81208630D01*
X223472023Y-81208630D01*
X223900595Y-82208630D02*
X223900595Y-81208630D01*
X224138690Y-81208630D01*
X224281547Y-81256250D01*
X224376785Y-81351488D01*
X224424404Y-81446726D01*
X224472023Y-81637202D01*
X224472023Y-81780059D01*
X224424404Y-81970535D01*
X224376785Y-82065773D01*
X224281547Y-82161011D01*
X224138690Y-82208630D01*
X223900595Y-82208630D01*
%TO.C,MX28*%
X83169345Y-78239880D02*
X83169345Y-77239880D01*
X83502678Y-77954166D01*
X83836011Y-77239880D01*
X83836011Y-78239880D01*
X84216964Y-77239880D02*
X84883630Y-78239880D01*
X84883630Y-77239880D02*
X84216964Y-78239880D01*
X85216964Y-77335119D02*
X85264583Y-77287500D01*
X85359821Y-77239880D01*
X85597916Y-77239880D01*
X85693154Y-77287500D01*
X85740773Y-77335119D01*
X85788392Y-77430357D01*
X85788392Y-77525595D01*
X85740773Y-77668452D01*
X85169345Y-78239880D01*
X85788392Y-78239880D01*
X86359821Y-77668452D02*
X86264583Y-77620833D01*
X86216964Y-77573214D01*
X86169345Y-77477976D01*
X86169345Y-77430357D01*
X86216964Y-77335119D01*
X86264583Y-77287500D01*
X86359821Y-77239880D01*
X86550297Y-77239880D01*
X86645535Y-77287500D01*
X86693154Y-77335119D01*
X86740773Y-77430357D01*
X86740773Y-77477976D01*
X86693154Y-77573214D01*
X86645535Y-77620833D01*
X86550297Y-77668452D01*
X86359821Y-77668452D01*
X86264583Y-77716071D01*
X86216964Y-77763690D01*
X86169345Y-77858928D01*
X86169345Y-78049404D01*
X86216964Y-78144642D01*
X86264583Y-78192261D01*
X86359821Y-78239880D01*
X86550297Y-78239880D01*
X86645535Y-78192261D01*
X86693154Y-78144642D01*
X86740773Y-78049404D01*
X86740773Y-77858928D01*
X86693154Y-77763690D01*
X86645535Y-77716071D01*
X86550297Y-77668452D01*
X81169345Y-67127380D02*
X81169345Y-66127380D01*
X81502678Y-66841666D01*
X81836011Y-66127380D01*
X81836011Y-67127380D01*
X82216964Y-66127380D02*
X82883630Y-67127380D01*
X82883630Y-66127380D02*
X82216964Y-67127380D01*
X83264583Y-66746428D02*
X84026488Y-66746428D01*
X84502678Y-67127380D02*
X84502678Y-66127380D01*
X85074107Y-67127380D01*
X85074107Y-66127380D01*
X85693154Y-67127380D02*
X85597916Y-67079761D01*
X85550297Y-67032142D01*
X85502678Y-66936904D01*
X85502678Y-66651190D01*
X85550297Y-66555952D01*
X85597916Y-66508333D01*
X85693154Y-66460714D01*
X85836011Y-66460714D01*
X85931250Y-66508333D01*
X85978869Y-66555952D01*
X86026488Y-66651190D01*
X86026488Y-66936904D01*
X85978869Y-67032142D01*
X85931250Y-67079761D01*
X85836011Y-67127380D01*
X85693154Y-67127380D01*
X86931250Y-67127380D02*
X86455059Y-67127380D01*
X86455059Y-66127380D01*
X87264583Y-66603571D02*
X87597916Y-66603571D01*
X87740773Y-67127380D02*
X87264583Y-67127380D01*
X87264583Y-66127380D01*
X87740773Y-66127380D01*
X88169345Y-67127380D02*
X88169345Y-66127380D01*
X88407440Y-66127380D01*
X88550297Y-66175000D01*
X88645535Y-66270238D01*
X88693154Y-66365476D01*
X88740773Y-66555952D01*
X88740773Y-66698809D01*
X88693154Y-66889285D01*
X88645535Y-66984523D01*
X88550297Y-67079761D01*
X88407440Y-67127380D01*
X88169345Y-67127380D01*
%TO.C,MX26*%
X123650595Y-78239880D02*
X123650595Y-77239880D01*
X123983928Y-77954166D01*
X124317261Y-77239880D01*
X124317261Y-78239880D01*
X124698214Y-77239880D02*
X125364880Y-78239880D01*
X125364880Y-77239880D02*
X124698214Y-78239880D01*
X125698214Y-77335119D02*
X125745833Y-77287500D01*
X125841071Y-77239880D01*
X126079166Y-77239880D01*
X126174404Y-77287500D01*
X126222023Y-77335119D01*
X126269642Y-77430357D01*
X126269642Y-77525595D01*
X126222023Y-77668452D01*
X125650595Y-78239880D01*
X126269642Y-78239880D01*
X127126785Y-77239880D02*
X126936309Y-77239880D01*
X126841071Y-77287500D01*
X126793452Y-77335119D01*
X126698214Y-77477976D01*
X126650595Y-77668452D01*
X126650595Y-78049404D01*
X126698214Y-78144642D01*
X126745833Y-78192261D01*
X126841071Y-78239880D01*
X127031547Y-78239880D01*
X127126785Y-78192261D01*
X127174404Y-78144642D01*
X127222023Y-78049404D01*
X127222023Y-77811309D01*
X127174404Y-77716071D01*
X127126785Y-77668452D01*
X127031547Y-77620833D01*
X126841071Y-77620833D01*
X126745833Y-77668452D01*
X126698214Y-77716071D01*
X126650595Y-77811309D01*
X121650595Y-67127380D02*
X121650595Y-66127380D01*
X121983928Y-66841666D01*
X122317261Y-66127380D01*
X122317261Y-67127380D01*
X122698214Y-66127380D02*
X123364880Y-67127380D01*
X123364880Y-66127380D02*
X122698214Y-67127380D01*
X123745833Y-66746428D02*
X124507738Y-66746428D01*
X124983928Y-67127380D02*
X124983928Y-66127380D01*
X125555357Y-67127380D01*
X125555357Y-66127380D01*
X126174404Y-67127380D02*
X126079166Y-67079761D01*
X126031547Y-67032142D01*
X125983928Y-66936904D01*
X125983928Y-66651190D01*
X126031547Y-66555952D01*
X126079166Y-66508333D01*
X126174404Y-66460714D01*
X126317261Y-66460714D01*
X126412500Y-66508333D01*
X126460119Y-66555952D01*
X126507738Y-66651190D01*
X126507738Y-66936904D01*
X126460119Y-67032142D01*
X126412500Y-67079761D01*
X126317261Y-67127380D01*
X126174404Y-67127380D01*
X127412500Y-67127380D02*
X126936309Y-67127380D01*
X126936309Y-66127380D01*
X127745833Y-66603571D02*
X128079166Y-66603571D01*
X128222023Y-67127380D02*
X127745833Y-67127380D01*
X127745833Y-66127380D01*
X128222023Y-66127380D01*
X128650595Y-67127380D02*
X128650595Y-66127380D01*
X128888690Y-66127380D01*
X129031547Y-66175000D01*
X129126785Y-66270238D01*
X129174404Y-66365476D01*
X129222023Y-66555952D01*
X129222023Y-66698809D01*
X129174404Y-66889285D01*
X129126785Y-66984523D01*
X129031547Y-67079761D01*
X128888690Y-67127380D01*
X128650595Y-67127380D01*
%TO.C,MX25*%
X142700595Y-78239880D02*
X142700595Y-77239880D01*
X143033928Y-77954166D01*
X143367261Y-77239880D01*
X143367261Y-78239880D01*
X143748214Y-77239880D02*
X144414880Y-78239880D01*
X144414880Y-77239880D02*
X143748214Y-78239880D01*
X144748214Y-77335119D02*
X144795833Y-77287500D01*
X144891071Y-77239880D01*
X145129166Y-77239880D01*
X145224404Y-77287500D01*
X145272023Y-77335119D01*
X145319642Y-77430357D01*
X145319642Y-77525595D01*
X145272023Y-77668452D01*
X144700595Y-78239880D01*
X145319642Y-78239880D01*
X146224404Y-77239880D02*
X145748214Y-77239880D01*
X145700595Y-77716071D01*
X145748214Y-77668452D01*
X145843452Y-77620833D01*
X146081547Y-77620833D01*
X146176785Y-77668452D01*
X146224404Y-77716071D01*
X146272023Y-77811309D01*
X146272023Y-78049404D01*
X146224404Y-78144642D01*
X146176785Y-78192261D01*
X146081547Y-78239880D01*
X145843452Y-78239880D01*
X145748214Y-78192261D01*
X145700595Y-78144642D01*
X140700595Y-67127380D02*
X140700595Y-66127380D01*
X141033928Y-66841666D01*
X141367261Y-66127380D01*
X141367261Y-67127380D01*
X141748214Y-66127380D02*
X142414880Y-67127380D01*
X142414880Y-66127380D02*
X141748214Y-67127380D01*
X142795833Y-66746428D02*
X143557738Y-66746428D01*
X144033928Y-67127380D02*
X144033928Y-66127380D01*
X144605357Y-67127380D01*
X144605357Y-66127380D01*
X145224404Y-67127380D02*
X145129166Y-67079761D01*
X145081547Y-67032142D01*
X145033928Y-66936904D01*
X145033928Y-66651190D01*
X145081547Y-66555952D01*
X145129166Y-66508333D01*
X145224404Y-66460714D01*
X145367261Y-66460714D01*
X145462500Y-66508333D01*
X145510119Y-66555952D01*
X145557738Y-66651190D01*
X145557738Y-66936904D01*
X145510119Y-67032142D01*
X145462500Y-67079761D01*
X145367261Y-67127380D01*
X145224404Y-67127380D01*
X146462500Y-67127380D02*
X145986309Y-67127380D01*
X145986309Y-66127380D01*
X146795833Y-66603571D02*
X147129166Y-66603571D01*
X147272023Y-67127380D02*
X146795833Y-67127380D01*
X146795833Y-66127380D01*
X147272023Y-66127380D01*
X147700595Y-67127380D02*
X147700595Y-66127380D01*
X147938690Y-66127380D01*
X148081547Y-66175000D01*
X148176785Y-66270238D01*
X148224404Y-66365476D01*
X148272023Y-66555952D01*
X148272023Y-66698809D01*
X148224404Y-66889285D01*
X148176785Y-66984523D01*
X148081547Y-67079761D01*
X147938690Y-67127380D01*
X147700595Y-67127380D01*
%TO.C,MX24*%
X161750595Y-71889880D02*
X161750595Y-70889880D01*
X162083928Y-71604166D01*
X162417261Y-70889880D01*
X162417261Y-71889880D01*
X162798214Y-70889880D02*
X163464880Y-71889880D01*
X163464880Y-70889880D02*
X162798214Y-71889880D01*
X163798214Y-70985119D02*
X163845833Y-70937500D01*
X163941071Y-70889880D01*
X164179166Y-70889880D01*
X164274404Y-70937500D01*
X164322023Y-70985119D01*
X164369642Y-71080357D01*
X164369642Y-71175595D01*
X164322023Y-71318452D01*
X163750595Y-71889880D01*
X164369642Y-71889880D01*
X165226785Y-71223214D02*
X165226785Y-71889880D01*
X164988690Y-70842261D02*
X164750595Y-71556547D01*
X165369642Y-71556547D01*
X159750595Y-60777380D02*
X159750595Y-59777380D01*
X160083928Y-60491666D01*
X160417261Y-59777380D01*
X160417261Y-60777380D01*
X160798214Y-59777380D02*
X161464880Y-60777380D01*
X161464880Y-59777380D02*
X160798214Y-60777380D01*
X161845833Y-60396428D02*
X162607738Y-60396428D01*
X163083928Y-60777380D02*
X163083928Y-59777380D01*
X163655357Y-60777380D01*
X163655357Y-59777380D01*
X164274404Y-60777380D02*
X164179166Y-60729761D01*
X164131547Y-60682142D01*
X164083928Y-60586904D01*
X164083928Y-60301190D01*
X164131547Y-60205952D01*
X164179166Y-60158333D01*
X164274404Y-60110714D01*
X164417261Y-60110714D01*
X164512500Y-60158333D01*
X164560119Y-60205952D01*
X164607738Y-60301190D01*
X164607738Y-60586904D01*
X164560119Y-60682142D01*
X164512500Y-60729761D01*
X164417261Y-60777380D01*
X164274404Y-60777380D01*
X165512500Y-60777380D02*
X165036309Y-60777380D01*
X165036309Y-59777380D01*
X165845833Y-60253571D02*
X166179166Y-60253571D01*
X166322023Y-60777380D02*
X165845833Y-60777380D01*
X165845833Y-59777380D01*
X166322023Y-59777380D01*
X166750595Y-60777380D02*
X166750595Y-59777380D01*
X166988690Y-59777380D01*
X167131547Y-59825000D01*
X167226785Y-59920238D01*
X167274404Y-60015476D01*
X167322023Y-60205952D01*
X167322023Y-60348809D01*
X167274404Y-60539285D01*
X167226785Y-60634523D01*
X167131547Y-60729761D01*
X166988690Y-60777380D01*
X166750595Y-60777380D01*
%TO.C,MX23*%
X180800595Y-69508630D02*
X180800595Y-68508630D01*
X181133928Y-69222916D01*
X181467261Y-68508630D01*
X181467261Y-69508630D01*
X181848214Y-68508630D02*
X182514880Y-69508630D01*
X182514880Y-68508630D02*
X181848214Y-69508630D01*
X182848214Y-68603869D02*
X182895833Y-68556250D01*
X182991071Y-68508630D01*
X183229166Y-68508630D01*
X183324404Y-68556250D01*
X183372023Y-68603869D01*
X183419642Y-68699107D01*
X183419642Y-68794345D01*
X183372023Y-68937202D01*
X182800595Y-69508630D01*
X183419642Y-69508630D01*
X183752976Y-68508630D02*
X184372023Y-68508630D01*
X184038690Y-68889583D01*
X184181547Y-68889583D01*
X184276785Y-68937202D01*
X184324404Y-68984821D01*
X184372023Y-69080059D01*
X184372023Y-69318154D01*
X184324404Y-69413392D01*
X184276785Y-69461011D01*
X184181547Y-69508630D01*
X183895833Y-69508630D01*
X183800595Y-69461011D01*
X183752976Y-69413392D01*
X178800595Y-58396130D02*
X178800595Y-57396130D01*
X179133928Y-58110416D01*
X179467261Y-57396130D01*
X179467261Y-58396130D01*
X179848214Y-57396130D02*
X180514880Y-58396130D01*
X180514880Y-57396130D02*
X179848214Y-58396130D01*
X180895833Y-58015178D02*
X181657738Y-58015178D01*
X182133928Y-58396130D02*
X182133928Y-57396130D01*
X182705357Y-58396130D01*
X182705357Y-57396130D01*
X183324404Y-58396130D02*
X183229166Y-58348511D01*
X183181547Y-58300892D01*
X183133928Y-58205654D01*
X183133928Y-57919940D01*
X183181547Y-57824702D01*
X183229166Y-57777083D01*
X183324404Y-57729464D01*
X183467261Y-57729464D01*
X183562500Y-57777083D01*
X183610119Y-57824702D01*
X183657738Y-57919940D01*
X183657738Y-58205654D01*
X183610119Y-58300892D01*
X183562500Y-58348511D01*
X183467261Y-58396130D01*
X183324404Y-58396130D01*
X184562500Y-58396130D02*
X184086309Y-58396130D01*
X184086309Y-57396130D01*
X184895833Y-57872321D02*
X185229166Y-57872321D01*
X185372023Y-58396130D02*
X184895833Y-58396130D01*
X184895833Y-57396130D01*
X185372023Y-57396130D01*
X185800595Y-58396130D02*
X185800595Y-57396130D01*
X186038690Y-57396130D01*
X186181547Y-57443750D01*
X186276785Y-57538988D01*
X186324404Y-57634226D01*
X186372023Y-57824702D01*
X186372023Y-57967559D01*
X186324404Y-58158035D01*
X186276785Y-58253273D01*
X186181547Y-58348511D01*
X186038690Y-58396130D01*
X185800595Y-58396130D01*
%TO.C,MX22*%
X199850595Y-71889880D02*
X199850595Y-70889880D01*
X200183928Y-71604166D01*
X200517261Y-70889880D01*
X200517261Y-71889880D01*
X200898214Y-70889880D02*
X201564880Y-71889880D01*
X201564880Y-70889880D02*
X200898214Y-71889880D01*
X201898214Y-70985119D02*
X201945833Y-70937500D01*
X202041071Y-70889880D01*
X202279166Y-70889880D01*
X202374404Y-70937500D01*
X202422023Y-70985119D01*
X202469642Y-71080357D01*
X202469642Y-71175595D01*
X202422023Y-71318452D01*
X201850595Y-71889880D01*
X202469642Y-71889880D01*
X202850595Y-70985119D02*
X202898214Y-70937500D01*
X202993452Y-70889880D01*
X203231547Y-70889880D01*
X203326785Y-70937500D01*
X203374404Y-70985119D01*
X203422023Y-71080357D01*
X203422023Y-71175595D01*
X203374404Y-71318452D01*
X202802976Y-71889880D01*
X203422023Y-71889880D01*
X197850595Y-60777380D02*
X197850595Y-59777380D01*
X198183928Y-60491666D01*
X198517261Y-59777380D01*
X198517261Y-60777380D01*
X198898214Y-59777380D02*
X199564880Y-60777380D01*
X199564880Y-59777380D02*
X198898214Y-60777380D01*
X199945833Y-60396428D02*
X200707738Y-60396428D01*
X201183928Y-60777380D02*
X201183928Y-59777380D01*
X201755357Y-60777380D01*
X201755357Y-59777380D01*
X202374404Y-60777380D02*
X202279166Y-60729761D01*
X202231547Y-60682142D01*
X202183928Y-60586904D01*
X202183928Y-60301190D01*
X202231547Y-60205952D01*
X202279166Y-60158333D01*
X202374404Y-60110714D01*
X202517261Y-60110714D01*
X202612500Y-60158333D01*
X202660119Y-60205952D01*
X202707738Y-60301190D01*
X202707738Y-60586904D01*
X202660119Y-60682142D01*
X202612500Y-60729761D01*
X202517261Y-60777380D01*
X202374404Y-60777380D01*
X203612500Y-60777380D02*
X203136309Y-60777380D01*
X203136309Y-59777380D01*
X203945833Y-60253571D02*
X204279166Y-60253571D01*
X204422023Y-60777380D02*
X203945833Y-60777380D01*
X203945833Y-59777380D01*
X204422023Y-59777380D01*
X204850595Y-60777380D02*
X204850595Y-59777380D01*
X205088690Y-59777380D01*
X205231547Y-59825000D01*
X205326785Y-59920238D01*
X205374404Y-60015476D01*
X205422023Y-60205952D01*
X205422023Y-60348809D01*
X205374404Y-60539285D01*
X205326785Y-60634523D01*
X205231547Y-60729761D01*
X205088690Y-60777380D01*
X204850595Y-60777380D01*
%TO.C,MX21*%
X218900595Y-74271130D02*
X218900595Y-73271130D01*
X219233928Y-73985416D01*
X219567261Y-73271130D01*
X219567261Y-74271130D01*
X219948214Y-73271130D02*
X220614880Y-74271130D01*
X220614880Y-73271130D02*
X219948214Y-74271130D01*
X220948214Y-73366369D02*
X220995833Y-73318750D01*
X221091071Y-73271130D01*
X221329166Y-73271130D01*
X221424404Y-73318750D01*
X221472023Y-73366369D01*
X221519642Y-73461607D01*
X221519642Y-73556845D01*
X221472023Y-73699702D01*
X220900595Y-74271130D01*
X221519642Y-74271130D01*
X222472023Y-74271130D02*
X221900595Y-74271130D01*
X222186309Y-74271130D02*
X222186309Y-73271130D01*
X222091071Y-73413988D01*
X221995833Y-73509226D01*
X221900595Y-73556845D01*
X216900595Y-63158630D02*
X216900595Y-62158630D01*
X217233928Y-62872916D01*
X217567261Y-62158630D01*
X217567261Y-63158630D01*
X217948214Y-62158630D02*
X218614880Y-63158630D01*
X218614880Y-62158630D02*
X217948214Y-63158630D01*
X218995833Y-62777678D02*
X219757738Y-62777678D01*
X220233928Y-63158630D02*
X220233928Y-62158630D01*
X220805357Y-63158630D01*
X220805357Y-62158630D01*
X221424404Y-63158630D02*
X221329166Y-63111011D01*
X221281547Y-63063392D01*
X221233928Y-62968154D01*
X221233928Y-62682440D01*
X221281547Y-62587202D01*
X221329166Y-62539583D01*
X221424404Y-62491964D01*
X221567261Y-62491964D01*
X221662500Y-62539583D01*
X221710119Y-62587202D01*
X221757738Y-62682440D01*
X221757738Y-62968154D01*
X221710119Y-63063392D01*
X221662500Y-63111011D01*
X221567261Y-63158630D01*
X221424404Y-63158630D01*
X222662500Y-63158630D02*
X222186309Y-63158630D01*
X222186309Y-62158630D01*
X222995833Y-62634821D02*
X223329166Y-62634821D01*
X223472023Y-63158630D02*
X222995833Y-63158630D01*
X222995833Y-62158630D01*
X223472023Y-62158630D01*
X223900595Y-63158630D02*
X223900595Y-62158630D01*
X224138690Y-62158630D01*
X224281547Y-62206250D01*
X224376785Y-62301488D01*
X224424404Y-62396726D01*
X224472023Y-62587202D01*
X224472023Y-62730059D01*
X224424404Y-62920535D01*
X224376785Y-63015773D01*
X224281547Y-63111011D01*
X224138690Y-63158630D01*
X223900595Y-63158630D01*
%TO.C,MX19*%
X64119345Y-59189880D02*
X64119345Y-58189880D01*
X64452678Y-58904166D01*
X64786011Y-58189880D01*
X64786011Y-59189880D01*
X65166964Y-58189880D02*
X65833630Y-59189880D01*
X65833630Y-58189880D02*
X65166964Y-59189880D01*
X66738392Y-59189880D02*
X66166964Y-59189880D01*
X66452678Y-59189880D02*
X66452678Y-58189880D01*
X66357440Y-58332738D01*
X66262202Y-58427976D01*
X66166964Y-58475595D01*
X67214583Y-59189880D02*
X67405059Y-59189880D01*
X67500297Y-59142261D01*
X67547916Y-59094642D01*
X67643154Y-58951785D01*
X67690773Y-58761309D01*
X67690773Y-58380357D01*
X67643154Y-58285119D01*
X67595535Y-58237500D01*
X67500297Y-58189880D01*
X67309821Y-58189880D01*
X67214583Y-58237500D01*
X67166964Y-58285119D01*
X67119345Y-58380357D01*
X67119345Y-58618452D01*
X67166964Y-58713690D01*
X67214583Y-58761309D01*
X67309821Y-58808928D01*
X67500297Y-58808928D01*
X67595535Y-58761309D01*
X67643154Y-58713690D01*
X67690773Y-58618452D01*
X62119345Y-48077380D02*
X62119345Y-47077380D01*
X62452678Y-47791666D01*
X62786011Y-47077380D01*
X62786011Y-48077380D01*
X63166964Y-47077380D02*
X63833630Y-48077380D01*
X63833630Y-47077380D02*
X63166964Y-48077380D01*
X64214583Y-47696428D02*
X64976488Y-47696428D01*
X65452678Y-48077380D02*
X65452678Y-47077380D01*
X66024107Y-48077380D01*
X66024107Y-47077380D01*
X66643154Y-48077380D02*
X66547916Y-48029761D01*
X66500297Y-47982142D01*
X66452678Y-47886904D01*
X66452678Y-47601190D01*
X66500297Y-47505952D01*
X66547916Y-47458333D01*
X66643154Y-47410714D01*
X66786011Y-47410714D01*
X66881250Y-47458333D01*
X66928869Y-47505952D01*
X66976488Y-47601190D01*
X66976488Y-47886904D01*
X66928869Y-47982142D01*
X66881250Y-48029761D01*
X66786011Y-48077380D01*
X66643154Y-48077380D01*
X67881250Y-48077380D02*
X67405059Y-48077380D01*
X67405059Y-47077380D01*
X68214583Y-47553571D02*
X68547916Y-47553571D01*
X68690773Y-48077380D02*
X68214583Y-48077380D01*
X68214583Y-47077380D01*
X68690773Y-47077380D01*
X69119345Y-48077380D02*
X69119345Y-47077380D01*
X69357440Y-47077380D01*
X69500297Y-47125000D01*
X69595535Y-47220238D01*
X69643154Y-47315476D01*
X69690773Y-47505952D01*
X69690773Y-47648809D01*
X69643154Y-47839285D01*
X69595535Y-47934523D01*
X69500297Y-48029761D01*
X69357440Y-48077380D01*
X69119345Y-48077380D01*
%TO.C,MX18*%
X83169345Y-59189880D02*
X83169345Y-58189880D01*
X83502678Y-58904166D01*
X83836011Y-58189880D01*
X83836011Y-59189880D01*
X84216964Y-58189880D02*
X84883630Y-59189880D01*
X84883630Y-58189880D02*
X84216964Y-59189880D01*
X85788392Y-59189880D02*
X85216964Y-59189880D01*
X85502678Y-59189880D02*
X85502678Y-58189880D01*
X85407440Y-58332738D01*
X85312202Y-58427976D01*
X85216964Y-58475595D01*
X86359821Y-58618452D02*
X86264583Y-58570833D01*
X86216964Y-58523214D01*
X86169345Y-58427976D01*
X86169345Y-58380357D01*
X86216964Y-58285119D01*
X86264583Y-58237500D01*
X86359821Y-58189880D01*
X86550297Y-58189880D01*
X86645535Y-58237500D01*
X86693154Y-58285119D01*
X86740773Y-58380357D01*
X86740773Y-58427976D01*
X86693154Y-58523214D01*
X86645535Y-58570833D01*
X86550297Y-58618452D01*
X86359821Y-58618452D01*
X86264583Y-58666071D01*
X86216964Y-58713690D01*
X86169345Y-58808928D01*
X86169345Y-58999404D01*
X86216964Y-59094642D01*
X86264583Y-59142261D01*
X86359821Y-59189880D01*
X86550297Y-59189880D01*
X86645535Y-59142261D01*
X86693154Y-59094642D01*
X86740773Y-58999404D01*
X86740773Y-58808928D01*
X86693154Y-58713690D01*
X86645535Y-58666071D01*
X86550297Y-58618452D01*
X81169345Y-48077380D02*
X81169345Y-47077380D01*
X81502678Y-47791666D01*
X81836011Y-47077380D01*
X81836011Y-48077380D01*
X82216964Y-47077380D02*
X82883630Y-48077380D01*
X82883630Y-47077380D02*
X82216964Y-48077380D01*
X83264583Y-47696428D02*
X84026488Y-47696428D01*
X84502678Y-48077380D02*
X84502678Y-47077380D01*
X85074107Y-48077380D01*
X85074107Y-47077380D01*
X85693154Y-48077380D02*
X85597916Y-48029761D01*
X85550297Y-47982142D01*
X85502678Y-47886904D01*
X85502678Y-47601190D01*
X85550297Y-47505952D01*
X85597916Y-47458333D01*
X85693154Y-47410714D01*
X85836011Y-47410714D01*
X85931250Y-47458333D01*
X85978869Y-47505952D01*
X86026488Y-47601190D01*
X86026488Y-47886904D01*
X85978869Y-47982142D01*
X85931250Y-48029761D01*
X85836011Y-48077380D01*
X85693154Y-48077380D01*
X86931250Y-48077380D02*
X86455059Y-48077380D01*
X86455059Y-47077380D01*
X87264583Y-47553571D02*
X87597916Y-47553571D01*
X87740773Y-48077380D02*
X87264583Y-48077380D01*
X87264583Y-47077380D01*
X87740773Y-47077380D01*
X88169345Y-48077380D02*
X88169345Y-47077380D01*
X88407440Y-47077380D01*
X88550297Y-47125000D01*
X88645535Y-47220238D01*
X88693154Y-47315476D01*
X88740773Y-47505952D01*
X88740773Y-47648809D01*
X88693154Y-47839285D01*
X88645535Y-47934523D01*
X88550297Y-48029761D01*
X88407440Y-48077380D01*
X88169345Y-48077380D01*
%TO.C,MX17*%
X102219345Y-59189880D02*
X102219345Y-58189880D01*
X102552678Y-58904166D01*
X102886011Y-58189880D01*
X102886011Y-59189880D01*
X103266964Y-58189880D02*
X103933630Y-59189880D01*
X103933630Y-58189880D02*
X103266964Y-59189880D01*
X104838392Y-59189880D02*
X104266964Y-59189880D01*
X104552678Y-59189880D02*
X104552678Y-58189880D01*
X104457440Y-58332738D01*
X104362202Y-58427976D01*
X104266964Y-58475595D01*
X105171726Y-58189880D02*
X105838392Y-58189880D01*
X105409821Y-59189880D01*
X100219345Y-48077380D02*
X100219345Y-47077380D01*
X100552678Y-47791666D01*
X100886011Y-47077380D01*
X100886011Y-48077380D01*
X101266964Y-47077380D02*
X101933630Y-48077380D01*
X101933630Y-47077380D02*
X101266964Y-48077380D01*
X102314583Y-47696428D02*
X103076488Y-47696428D01*
X103552678Y-48077380D02*
X103552678Y-47077380D01*
X104124107Y-48077380D01*
X104124107Y-47077380D01*
X104743154Y-48077380D02*
X104647916Y-48029761D01*
X104600297Y-47982142D01*
X104552678Y-47886904D01*
X104552678Y-47601190D01*
X104600297Y-47505952D01*
X104647916Y-47458333D01*
X104743154Y-47410714D01*
X104886011Y-47410714D01*
X104981250Y-47458333D01*
X105028869Y-47505952D01*
X105076488Y-47601190D01*
X105076488Y-47886904D01*
X105028869Y-47982142D01*
X104981250Y-48029761D01*
X104886011Y-48077380D01*
X104743154Y-48077380D01*
X105981250Y-48077380D02*
X105505059Y-48077380D01*
X105505059Y-47077380D01*
X106314583Y-47553571D02*
X106647916Y-47553571D01*
X106790773Y-48077380D02*
X106314583Y-48077380D01*
X106314583Y-47077380D01*
X106790773Y-47077380D01*
X107219345Y-48077380D02*
X107219345Y-47077380D01*
X107457440Y-47077380D01*
X107600297Y-47125000D01*
X107695535Y-47220238D01*
X107743154Y-47315476D01*
X107790773Y-47505952D01*
X107790773Y-47648809D01*
X107743154Y-47839285D01*
X107695535Y-47934523D01*
X107600297Y-48029761D01*
X107457440Y-48077380D01*
X107219345Y-48077380D01*
%TO.C,MX16*%
X123650595Y-59189880D02*
X123650595Y-58189880D01*
X123983928Y-58904166D01*
X124317261Y-58189880D01*
X124317261Y-59189880D01*
X124698214Y-58189880D02*
X125364880Y-59189880D01*
X125364880Y-58189880D02*
X124698214Y-59189880D01*
X126269642Y-59189880D02*
X125698214Y-59189880D01*
X125983928Y-59189880D02*
X125983928Y-58189880D01*
X125888690Y-58332738D01*
X125793452Y-58427976D01*
X125698214Y-58475595D01*
X127126785Y-58189880D02*
X126936309Y-58189880D01*
X126841071Y-58237500D01*
X126793452Y-58285119D01*
X126698214Y-58427976D01*
X126650595Y-58618452D01*
X126650595Y-58999404D01*
X126698214Y-59094642D01*
X126745833Y-59142261D01*
X126841071Y-59189880D01*
X127031547Y-59189880D01*
X127126785Y-59142261D01*
X127174404Y-59094642D01*
X127222023Y-58999404D01*
X127222023Y-58761309D01*
X127174404Y-58666071D01*
X127126785Y-58618452D01*
X127031547Y-58570833D01*
X126841071Y-58570833D01*
X126745833Y-58618452D01*
X126698214Y-58666071D01*
X126650595Y-58761309D01*
X121650595Y-48077380D02*
X121650595Y-47077380D01*
X121983928Y-47791666D01*
X122317261Y-47077380D01*
X122317261Y-48077380D01*
X122698214Y-47077380D02*
X123364880Y-48077380D01*
X123364880Y-47077380D02*
X122698214Y-48077380D01*
X123745833Y-47696428D02*
X124507738Y-47696428D01*
X124983928Y-48077380D02*
X124983928Y-47077380D01*
X125555357Y-48077380D01*
X125555357Y-47077380D01*
X126174404Y-48077380D02*
X126079166Y-48029761D01*
X126031547Y-47982142D01*
X125983928Y-47886904D01*
X125983928Y-47601190D01*
X126031547Y-47505952D01*
X126079166Y-47458333D01*
X126174404Y-47410714D01*
X126317261Y-47410714D01*
X126412500Y-47458333D01*
X126460119Y-47505952D01*
X126507738Y-47601190D01*
X126507738Y-47886904D01*
X126460119Y-47982142D01*
X126412500Y-48029761D01*
X126317261Y-48077380D01*
X126174404Y-48077380D01*
X127412500Y-48077380D02*
X126936309Y-48077380D01*
X126936309Y-47077380D01*
X127745833Y-47553571D02*
X128079166Y-47553571D01*
X128222023Y-48077380D02*
X127745833Y-48077380D01*
X127745833Y-47077380D01*
X128222023Y-47077380D01*
X128650595Y-48077380D02*
X128650595Y-47077380D01*
X128888690Y-47077380D01*
X129031547Y-47125000D01*
X129126785Y-47220238D01*
X129174404Y-47315476D01*
X129222023Y-47505952D01*
X129222023Y-47648809D01*
X129174404Y-47839285D01*
X129126785Y-47934523D01*
X129031547Y-48029761D01*
X128888690Y-48077380D01*
X128650595Y-48077380D01*
%TO.C,MX14*%
X161750595Y-52839880D02*
X161750595Y-51839880D01*
X162083928Y-52554166D01*
X162417261Y-51839880D01*
X162417261Y-52839880D01*
X162798214Y-51839880D02*
X163464880Y-52839880D01*
X163464880Y-51839880D02*
X162798214Y-52839880D01*
X164369642Y-52839880D02*
X163798214Y-52839880D01*
X164083928Y-52839880D02*
X164083928Y-51839880D01*
X163988690Y-51982738D01*
X163893452Y-52077976D01*
X163798214Y-52125595D01*
X165226785Y-52173214D02*
X165226785Y-52839880D01*
X164988690Y-51792261D02*
X164750595Y-52506547D01*
X165369642Y-52506547D01*
X159750595Y-41727380D02*
X159750595Y-40727380D01*
X160083928Y-41441666D01*
X160417261Y-40727380D01*
X160417261Y-41727380D01*
X160798214Y-40727380D02*
X161464880Y-41727380D01*
X161464880Y-40727380D02*
X160798214Y-41727380D01*
X161845833Y-41346428D02*
X162607738Y-41346428D01*
X163083928Y-41727380D02*
X163083928Y-40727380D01*
X163655357Y-41727380D01*
X163655357Y-40727380D01*
X164274404Y-41727380D02*
X164179166Y-41679761D01*
X164131547Y-41632142D01*
X164083928Y-41536904D01*
X164083928Y-41251190D01*
X164131547Y-41155952D01*
X164179166Y-41108333D01*
X164274404Y-41060714D01*
X164417261Y-41060714D01*
X164512500Y-41108333D01*
X164560119Y-41155952D01*
X164607738Y-41251190D01*
X164607738Y-41536904D01*
X164560119Y-41632142D01*
X164512500Y-41679761D01*
X164417261Y-41727380D01*
X164274404Y-41727380D01*
X165512500Y-41727380D02*
X165036309Y-41727380D01*
X165036309Y-40727380D01*
X165845833Y-41203571D02*
X166179166Y-41203571D01*
X166322023Y-41727380D02*
X165845833Y-41727380D01*
X165845833Y-40727380D01*
X166322023Y-40727380D01*
X166750595Y-41727380D02*
X166750595Y-40727380D01*
X166988690Y-40727380D01*
X167131547Y-40775000D01*
X167226785Y-40870238D01*
X167274404Y-40965476D01*
X167322023Y-41155952D01*
X167322023Y-41298809D01*
X167274404Y-41489285D01*
X167226785Y-41584523D01*
X167131547Y-41679761D01*
X166988690Y-41727380D01*
X166750595Y-41727380D01*
%TO.C,MX13*%
X180800595Y-50458630D02*
X180800595Y-49458630D01*
X181133928Y-50172916D01*
X181467261Y-49458630D01*
X181467261Y-50458630D01*
X181848214Y-49458630D02*
X182514880Y-50458630D01*
X182514880Y-49458630D02*
X181848214Y-50458630D01*
X183419642Y-50458630D02*
X182848214Y-50458630D01*
X183133928Y-50458630D02*
X183133928Y-49458630D01*
X183038690Y-49601488D01*
X182943452Y-49696726D01*
X182848214Y-49744345D01*
X183752976Y-49458630D02*
X184372023Y-49458630D01*
X184038690Y-49839583D01*
X184181547Y-49839583D01*
X184276785Y-49887202D01*
X184324404Y-49934821D01*
X184372023Y-50030059D01*
X184372023Y-50268154D01*
X184324404Y-50363392D01*
X184276785Y-50411011D01*
X184181547Y-50458630D01*
X183895833Y-50458630D01*
X183800595Y-50411011D01*
X183752976Y-50363392D01*
X178800595Y-39346130D02*
X178800595Y-38346130D01*
X179133928Y-39060416D01*
X179467261Y-38346130D01*
X179467261Y-39346130D01*
X179848214Y-38346130D02*
X180514880Y-39346130D01*
X180514880Y-38346130D02*
X179848214Y-39346130D01*
X180895833Y-38965178D02*
X181657738Y-38965178D01*
X182133928Y-39346130D02*
X182133928Y-38346130D01*
X182705357Y-39346130D01*
X182705357Y-38346130D01*
X183324404Y-39346130D02*
X183229166Y-39298511D01*
X183181547Y-39250892D01*
X183133928Y-39155654D01*
X183133928Y-38869940D01*
X183181547Y-38774702D01*
X183229166Y-38727083D01*
X183324404Y-38679464D01*
X183467261Y-38679464D01*
X183562500Y-38727083D01*
X183610119Y-38774702D01*
X183657738Y-38869940D01*
X183657738Y-39155654D01*
X183610119Y-39250892D01*
X183562500Y-39298511D01*
X183467261Y-39346130D01*
X183324404Y-39346130D01*
X184562500Y-39346130D02*
X184086309Y-39346130D01*
X184086309Y-38346130D01*
X184895833Y-38822321D02*
X185229166Y-38822321D01*
X185372023Y-39346130D02*
X184895833Y-39346130D01*
X184895833Y-38346130D01*
X185372023Y-38346130D01*
X185800595Y-39346130D02*
X185800595Y-38346130D01*
X186038690Y-38346130D01*
X186181547Y-38393750D01*
X186276785Y-38488988D01*
X186324404Y-38584226D01*
X186372023Y-38774702D01*
X186372023Y-38917559D01*
X186324404Y-39108035D01*
X186276785Y-39203273D01*
X186181547Y-39298511D01*
X186038690Y-39346130D01*
X185800595Y-39346130D01*
%TO.C,MX12*%
X199850595Y-52839880D02*
X199850595Y-51839880D01*
X200183928Y-52554166D01*
X200517261Y-51839880D01*
X200517261Y-52839880D01*
X200898214Y-51839880D02*
X201564880Y-52839880D01*
X201564880Y-51839880D02*
X200898214Y-52839880D01*
X202469642Y-52839880D02*
X201898214Y-52839880D01*
X202183928Y-52839880D02*
X202183928Y-51839880D01*
X202088690Y-51982738D01*
X201993452Y-52077976D01*
X201898214Y-52125595D01*
X202850595Y-51935119D02*
X202898214Y-51887500D01*
X202993452Y-51839880D01*
X203231547Y-51839880D01*
X203326785Y-51887500D01*
X203374404Y-51935119D01*
X203422023Y-52030357D01*
X203422023Y-52125595D01*
X203374404Y-52268452D01*
X202802976Y-52839880D01*
X203422023Y-52839880D01*
X197850595Y-41727380D02*
X197850595Y-40727380D01*
X198183928Y-41441666D01*
X198517261Y-40727380D01*
X198517261Y-41727380D01*
X198898214Y-40727380D02*
X199564880Y-41727380D01*
X199564880Y-40727380D02*
X198898214Y-41727380D01*
X199945833Y-41346428D02*
X200707738Y-41346428D01*
X201183928Y-41727380D02*
X201183928Y-40727380D01*
X201755357Y-41727380D01*
X201755357Y-40727380D01*
X202374404Y-41727380D02*
X202279166Y-41679761D01*
X202231547Y-41632142D01*
X202183928Y-41536904D01*
X202183928Y-41251190D01*
X202231547Y-41155952D01*
X202279166Y-41108333D01*
X202374404Y-41060714D01*
X202517261Y-41060714D01*
X202612500Y-41108333D01*
X202660119Y-41155952D01*
X202707738Y-41251190D01*
X202707738Y-41536904D01*
X202660119Y-41632142D01*
X202612500Y-41679761D01*
X202517261Y-41727380D01*
X202374404Y-41727380D01*
X203612500Y-41727380D02*
X203136309Y-41727380D01*
X203136309Y-40727380D01*
X203945833Y-41203571D02*
X204279166Y-41203571D01*
X204422023Y-41727380D02*
X203945833Y-41727380D01*
X203945833Y-40727380D01*
X204422023Y-40727380D01*
X204850595Y-41727380D02*
X204850595Y-40727380D01*
X205088690Y-40727380D01*
X205231547Y-40775000D01*
X205326785Y-40870238D01*
X205374404Y-40965476D01*
X205422023Y-41155952D01*
X205422023Y-41298809D01*
X205374404Y-41489285D01*
X205326785Y-41584523D01*
X205231547Y-41679761D01*
X205088690Y-41727380D01*
X204850595Y-41727380D01*
%TO.C,MX11*%
X218900595Y-55221130D02*
X218900595Y-54221130D01*
X219233928Y-54935416D01*
X219567261Y-54221130D01*
X219567261Y-55221130D01*
X219948214Y-54221130D02*
X220614880Y-55221130D01*
X220614880Y-54221130D02*
X219948214Y-55221130D01*
X221519642Y-55221130D02*
X220948214Y-55221130D01*
X221233928Y-55221130D02*
X221233928Y-54221130D01*
X221138690Y-54363988D01*
X221043452Y-54459226D01*
X220948214Y-54506845D01*
X222472023Y-55221130D02*
X221900595Y-55221130D01*
X222186309Y-55221130D02*
X222186309Y-54221130D01*
X222091071Y-54363988D01*
X221995833Y-54459226D01*
X221900595Y-54506845D01*
X216900595Y-44108630D02*
X216900595Y-43108630D01*
X217233928Y-43822916D01*
X217567261Y-43108630D01*
X217567261Y-44108630D01*
X217948214Y-43108630D02*
X218614880Y-44108630D01*
X218614880Y-43108630D02*
X217948214Y-44108630D01*
X218995833Y-43727678D02*
X219757738Y-43727678D01*
X220233928Y-44108630D02*
X220233928Y-43108630D01*
X220805357Y-44108630D01*
X220805357Y-43108630D01*
X221424404Y-44108630D02*
X221329166Y-44061011D01*
X221281547Y-44013392D01*
X221233928Y-43918154D01*
X221233928Y-43632440D01*
X221281547Y-43537202D01*
X221329166Y-43489583D01*
X221424404Y-43441964D01*
X221567261Y-43441964D01*
X221662500Y-43489583D01*
X221710119Y-43537202D01*
X221757738Y-43632440D01*
X221757738Y-43918154D01*
X221710119Y-44013392D01*
X221662500Y-44061011D01*
X221567261Y-44108630D01*
X221424404Y-44108630D01*
X222662500Y-44108630D02*
X222186309Y-44108630D01*
X222186309Y-43108630D01*
X222995833Y-43584821D02*
X223329166Y-43584821D01*
X223472023Y-44108630D02*
X222995833Y-44108630D01*
X222995833Y-43108630D01*
X223472023Y-43108630D01*
X223900595Y-44108630D02*
X223900595Y-43108630D01*
X224138690Y-43108630D01*
X224281547Y-43156250D01*
X224376785Y-43251488D01*
X224424404Y-43346726D01*
X224472023Y-43537202D01*
X224472023Y-43680059D01*
X224424404Y-43870535D01*
X224376785Y-43965773D01*
X224281547Y-44061011D01*
X224138690Y-44108630D01*
X223900595Y-44108630D01*
%TO.C,MX8*%
X83645535Y-40139880D02*
X83645535Y-39139880D01*
X83978869Y-39854166D01*
X84312202Y-39139880D01*
X84312202Y-40139880D01*
X84693154Y-39139880D02*
X85359821Y-40139880D01*
X85359821Y-39139880D02*
X84693154Y-40139880D01*
X85883630Y-39568452D02*
X85788392Y-39520833D01*
X85740773Y-39473214D01*
X85693154Y-39377976D01*
X85693154Y-39330357D01*
X85740773Y-39235119D01*
X85788392Y-39187500D01*
X85883630Y-39139880D01*
X86074107Y-39139880D01*
X86169345Y-39187500D01*
X86216964Y-39235119D01*
X86264583Y-39330357D01*
X86264583Y-39377976D01*
X86216964Y-39473214D01*
X86169345Y-39520833D01*
X86074107Y-39568452D01*
X85883630Y-39568452D01*
X85788392Y-39616071D01*
X85740773Y-39663690D01*
X85693154Y-39758928D01*
X85693154Y-39949404D01*
X85740773Y-40044642D01*
X85788392Y-40092261D01*
X85883630Y-40139880D01*
X86074107Y-40139880D01*
X86169345Y-40092261D01*
X86216964Y-40044642D01*
X86264583Y-39949404D01*
X86264583Y-39758928D01*
X86216964Y-39663690D01*
X86169345Y-39616071D01*
X86074107Y-39568452D01*
X81169345Y-29027380D02*
X81169345Y-28027380D01*
X81502678Y-28741666D01*
X81836011Y-28027380D01*
X81836011Y-29027380D01*
X82216964Y-28027380D02*
X82883630Y-29027380D01*
X82883630Y-28027380D02*
X82216964Y-29027380D01*
X83264583Y-28646428D02*
X84026488Y-28646428D01*
X84502678Y-29027380D02*
X84502678Y-28027380D01*
X85074107Y-29027380D01*
X85074107Y-28027380D01*
X85693154Y-29027380D02*
X85597916Y-28979761D01*
X85550297Y-28932142D01*
X85502678Y-28836904D01*
X85502678Y-28551190D01*
X85550297Y-28455952D01*
X85597916Y-28408333D01*
X85693154Y-28360714D01*
X85836011Y-28360714D01*
X85931250Y-28408333D01*
X85978869Y-28455952D01*
X86026488Y-28551190D01*
X86026488Y-28836904D01*
X85978869Y-28932142D01*
X85931250Y-28979761D01*
X85836011Y-29027380D01*
X85693154Y-29027380D01*
X86931250Y-29027380D02*
X86455059Y-29027380D01*
X86455059Y-28027380D01*
X87264583Y-28503571D02*
X87597916Y-28503571D01*
X87740773Y-29027380D02*
X87264583Y-29027380D01*
X87264583Y-28027380D01*
X87740773Y-28027380D01*
X88169345Y-29027380D02*
X88169345Y-28027380D01*
X88407440Y-28027380D01*
X88550297Y-28075000D01*
X88645535Y-28170238D01*
X88693154Y-28265476D01*
X88740773Y-28455952D01*
X88740773Y-28598809D01*
X88693154Y-28789285D01*
X88645535Y-28884523D01*
X88550297Y-28979761D01*
X88407440Y-29027380D01*
X88169345Y-29027380D01*
%TO.C,MX7*%
X102695535Y-40139880D02*
X102695535Y-39139880D01*
X103028869Y-39854166D01*
X103362202Y-39139880D01*
X103362202Y-40139880D01*
X103743154Y-39139880D02*
X104409821Y-40139880D01*
X104409821Y-39139880D02*
X103743154Y-40139880D01*
X104695535Y-39139880D02*
X105362202Y-39139880D01*
X104933630Y-40139880D01*
X100219345Y-29027380D02*
X100219345Y-28027380D01*
X100552678Y-28741666D01*
X100886011Y-28027380D01*
X100886011Y-29027380D01*
X101266964Y-28027380D02*
X101933630Y-29027380D01*
X101933630Y-28027380D02*
X101266964Y-29027380D01*
X102314583Y-28646428D02*
X103076488Y-28646428D01*
X103552678Y-29027380D02*
X103552678Y-28027380D01*
X104124107Y-29027380D01*
X104124107Y-28027380D01*
X104743154Y-29027380D02*
X104647916Y-28979761D01*
X104600297Y-28932142D01*
X104552678Y-28836904D01*
X104552678Y-28551190D01*
X104600297Y-28455952D01*
X104647916Y-28408333D01*
X104743154Y-28360714D01*
X104886011Y-28360714D01*
X104981250Y-28408333D01*
X105028869Y-28455952D01*
X105076488Y-28551190D01*
X105076488Y-28836904D01*
X105028869Y-28932142D01*
X104981250Y-28979761D01*
X104886011Y-29027380D01*
X104743154Y-29027380D01*
X105981250Y-29027380D02*
X105505059Y-29027380D01*
X105505059Y-28027380D01*
X106314583Y-28503571D02*
X106647916Y-28503571D01*
X106790773Y-29027380D02*
X106314583Y-29027380D01*
X106314583Y-28027380D01*
X106790773Y-28027380D01*
X107219345Y-29027380D02*
X107219345Y-28027380D01*
X107457440Y-28027380D01*
X107600297Y-28075000D01*
X107695535Y-28170238D01*
X107743154Y-28265476D01*
X107790773Y-28455952D01*
X107790773Y-28598809D01*
X107743154Y-28789285D01*
X107695535Y-28884523D01*
X107600297Y-28979761D01*
X107457440Y-29027380D01*
X107219345Y-29027380D01*
%TO.C,MX6*%
X124126785Y-40139880D02*
X124126785Y-39139880D01*
X124460119Y-39854166D01*
X124793452Y-39139880D01*
X124793452Y-40139880D01*
X125174404Y-39139880D02*
X125841071Y-40139880D01*
X125841071Y-39139880D02*
X125174404Y-40139880D01*
X126650595Y-39139880D02*
X126460119Y-39139880D01*
X126364880Y-39187500D01*
X126317261Y-39235119D01*
X126222023Y-39377976D01*
X126174404Y-39568452D01*
X126174404Y-39949404D01*
X126222023Y-40044642D01*
X126269642Y-40092261D01*
X126364880Y-40139880D01*
X126555357Y-40139880D01*
X126650595Y-40092261D01*
X126698214Y-40044642D01*
X126745833Y-39949404D01*
X126745833Y-39711309D01*
X126698214Y-39616071D01*
X126650595Y-39568452D01*
X126555357Y-39520833D01*
X126364880Y-39520833D01*
X126269642Y-39568452D01*
X126222023Y-39616071D01*
X126174404Y-39711309D01*
X121650595Y-29027380D02*
X121650595Y-28027380D01*
X121983928Y-28741666D01*
X122317261Y-28027380D01*
X122317261Y-29027380D01*
X122698214Y-28027380D02*
X123364880Y-29027380D01*
X123364880Y-28027380D02*
X122698214Y-29027380D01*
X123745833Y-28646428D02*
X124507738Y-28646428D01*
X124983928Y-29027380D02*
X124983928Y-28027380D01*
X125555357Y-29027380D01*
X125555357Y-28027380D01*
X126174404Y-29027380D02*
X126079166Y-28979761D01*
X126031547Y-28932142D01*
X125983928Y-28836904D01*
X125983928Y-28551190D01*
X126031547Y-28455952D01*
X126079166Y-28408333D01*
X126174404Y-28360714D01*
X126317261Y-28360714D01*
X126412500Y-28408333D01*
X126460119Y-28455952D01*
X126507738Y-28551190D01*
X126507738Y-28836904D01*
X126460119Y-28932142D01*
X126412500Y-28979761D01*
X126317261Y-29027380D01*
X126174404Y-29027380D01*
X127412500Y-29027380D02*
X126936309Y-29027380D01*
X126936309Y-28027380D01*
X127745833Y-28503571D02*
X128079166Y-28503571D01*
X128222023Y-29027380D02*
X127745833Y-29027380D01*
X127745833Y-28027380D01*
X128222023Y-28027380D01*
X128650595Y-29027380D02*
X128650595Y-28027380D01*
X128888690Y-28027380D01*
X129031547Y-28075000D01*
X129126785Y-28170238D01*
X129174404Y-28265476D01*
X129222023Y-28455952D01*
X129222023Y-28598809D01*
X129174404Y-28789285D01*
X129126785Y-28884523D01*
X129031547Y-28979761D01*
X128888690Y-29027380D01*
X128650595Y-29027380D01*
%TO.C,MX5*%
X143176785Y-40139880D02*
X143176785Y-39139880D01*
X143510119Y-39854166D01*
X143843452Y-39139880D01*
X143843452Y-40139880D01*
X144224404Y-39139880D02*
X144891071Y-40139880D01*
X144891071Y-39139880D02*
X144224404Y-40139880D01*
X145748214Y-39139880D02*
X145272023Y-39139880D01*
X145224404Y-39616071D01*
X145272023Y-39568452D01*
X145367261Y-39520833D01*
X145605357Y-39520833D01*
X145700595Y-39568452D01*
X145748214Y-39616071D01*
X145795833Y-39711309D01*
X145795833Y-39949404D01*
X145748214Y-40044642D01*
X145700595Y-40092261D01*
X145605357Y-40139880D01*
X145367261Y-40139880D01*
X145272023Y-40092261D01*
X145224404Y-40044642D01*
X140700595Y-29027380D02*
X140700595Y-28027380D01*
X141033928Y-28741666D01*
X141367261Y-28027380D01*
X141367261Y-29027380D01*
X141748214Y-28027380D02*
X142414880Y-29027380D01*
X142414880Y-28027380D02*
X141748214Y-29027380D01*
X142795833Y-28646428D02*
X143557738Y-28646428D01*
X144033928Y-29027380D02*
X144033928Y-28027380D01*
X144605357Y-29027380D01*
X144605357Y-28027380D01*
X145224404Y-29027380D02*
X145129166Y-28979761D01*
X145081547Y-28932142D01*
X145033928Y-28836904D01*
X145033928Y-28551190D01*
X145081547Y-28455952D01*
X145129166Y-28408333D01*
X145224404Y-28360714D01*
X145367261Y-28360714D01*
X145462500Y-28408333D01*
X145510119Y-28455952D01*
X145557738Y-28551190D01*
X145557738Y-28836904D01*
X145510119Y-28932142D01*
X145462500Y-28979761D01*
X145367261Y-29027380D01*
X145224404Y-29027380D01*
X146462500Y-29027380D02*
X145986309Y-29027380D01*
X145986309Y-28027380D01*
X146795833Y-28503571D02*
X147129166Y-28503571D01*
X147272023Y-29027380D02*
X146795833Y-29027380D01*
X146795833Y-28027380D01*
X147272023Y-28027380D01*
X147700595Y-29027380D02*
X147700595Y-28027380D01*
X147938690Y-28027380D01*
X148081547Y-28075000D01*
X148176785Y-28170238D01*
X148224404Y-28265476D01*
X148272023Y-28455952D01*
X148272023Y-28598809D01*
X148224404Y-28789285D01*
X148176785Y-28884523D01*
X148081547Y-28979761D01*
X147938690Y-29027380D01*
X147700595Y-29027380D01*
%TO.C,MX4*%
X162226785Y-33789880D02*
X162226785Y-32789880D01*
X162560119Y-33504166D01*
X162893452Y-32789880D01*
X162893452Y-33789880D01*
X163274404Y-32789880D02*
X163941071Y-33789880D01*
X163941071Y-32789880D02*
X163274404Y-33789880D01*
X164750595Y-33123214D02*
X164750595Y-33789880D01*
X164512500Y-32742261D02*
X164274404Y-33456547D01*
X164893452Y-33456547D01*
X159750595Y-22677380D02*
X159750595Y-21677380D01*
X160083928Y-22391666D01*
X160417261Y-21677380D01*
X160417261Y-22677380D01*
X160798214Y-21677380D02*
X161464880Y-22677380D01*
X161464880Y-21677380D02*
X160798214Y-22677380D01*
X161845833Y-22296428D02*
X162607738Y-22296428D01*
X163083928Y-22677380D02*
X163083928Y-21677380D01*
X163655357Y-22677380D01*
X163655357Y-21677380D01*
X164274404Y-22677380D02*
X164179166Y-22629761D01*
X164131547Y-22582142D01*
X164083928Y-22486904D01*
X164083928Y-22201190D01*
X164131547Y-22105952D01*
X164179166Y-22058333D01*
X164274404Y-22010714D01*
X164417261Y-22010714D01*
X164512500Y-22058333D01*
X164560119Y-22105952D01*
X164607738Y-22201190D01*
X164607738Y-22486904D01*
X164560119Y-22582142D01*
X164512500Y-22629761D01*
X164417261Y-22677380D01*
X164274404Y-22677380D01*
X165512500Y-22677380D02*
X165036309Y-22677380D01*
X165036309Y-21677380D01*
X165845833Y-22153571D02*
X166179166Y-22153571D01*
X166322023Y-22677380D02*
X165845833Y-22677380D01*
X165845833Y-21677380D01*
X166322023Y-21677380D01*
X166750595Y-22677380D02*
X166750595Y-21677380D01*
X166988690Y-21677380D01*
X167131547Y-21725000D01*
X167226785Y-21820238D01*
X167274404Y-21915476D01*
X167322023Y-22105952D01*
X167322023Y-22248809D01*
X167274404Y-22439285D01*
X167226785Y-22534523D01*
X167131547Y-22629761D01*
X166988690Y-22677380D01*
X166750595Y-22677380D01*
%TO.C,MX3*%
X181276785Y-31408630D02*
X181276785Y-30408630D01*
X181610119Y-31122916D01*
X181943452Y-30408630D01*
X181943452Y-31408630D01*
X182324404Y-30408630D02*
X182991071Y-31408630D01*
X182991071Y-30408630D02*
X182324404Y-31408630D01*
X183276785Y-30408630D02*
X183895833Y-30408630D01*
X183562500Y-30789583D01*
X183705357Y-30789583D01*
X183800595Y-30837202D01*
X183848214Y-30884821D01*
X183895833Y-30980059D01*
X183895833Y-31218154D01*
X183848214Y-31313392D01*
X183800595Y-31361011D01*
X183705357Y-31408630D01*
X183419642Y-31408630D01*
X183324404Y-31361011D01*
X183276785Y-31313392D01*
X178800595Y-20296130D02*
X178800595Y-19296130D01*
X179133928Y-20010416D01*
X179467261Y-19296130D01*
X179467261Y-20296130D01*
X179848214Y-19296130D02*
X180514880Y-20296130D01*
X180514880Y-19296130D02*
X179848214Y-20296130D01*
X180895833Y-19915178D02*
X181657738Y-19915178D01*
X182133928Y-20296130D02*
X182133928Y-19296130D01*
X182705357Y-20296130D01*
X182705357Y-19296130D01*
X183324404Y-20296130D02*
X183229166Y-20248511D01*
X183181547Y-20200892D01*
X183133928Y-20105654D01*
X183133928Y-19819940D01*
X183181547Y-19724702D01*
X183229166Y-19677083D01*
X183324404Y-19629464D01*
X183467261Y-19629464D01*
X183562500Y-19677083D01*
X183610119Y-19724702D01*
X183657738Y-19819940D01*
X183657738Y-20105654D01*
X183610119Y-20200892D01*
X183562500Y-20248511D01*
X183467261Y-20296130D01*
X183324404Y-20296130D01*
X184562500Y-20296130D02*
X184086309Y-20296130D01*
X184086309Y-19296130D01*
X184895833Y-19772321D02*
X185229166Y-19772321D01*
X185372023Y-20296130D02*
X184895833Y-20296130D01*
X184895833Y-19296130D01*
X185372023Y-19296130D01*
X185800595Y-20296130D02*
X185800595Y-19296130D01*
X186038690Y-19296130D01*
X186181547Y-19343750D01*
X186276785Y-19438988D01*
X186324404Y-19534226D01*
X186372023Y-19724702D01*
X186372023Y-19867559D01*
X186324404Y-20058035D01*
X186276785Y-20153273D01*
X186181547Y-20248511D01*
X186038690Y-20296130D01*
X185800595Y-20296130D01*
%TO.C,MX2*%
X200326785Y-33789880D02*
X200326785Y-32789880D01*
X200660119Y-33504166D01*
X200993452Y-32789880D01*
X200993452Y-33789880D01*
X201374404Y-32789880D02*
X202041071Y-33789880D01*
X202041071Y-32789880D02*
X201374404Y-33789880D01*
X202374404Y-32885119D02*
X202422023Y-32837500D01*
X202517261Y-32789880D01*
X202755357Y-32789880D01*
X202850595Y-32837500D01*
X202898214Y-32885119D01*
X202945833Y-32980357D01*
X202945833Y-33075595D01*
X202898214Y-33218452D01*
X202326785Y-33789880D01*
X202945833Y-33789880D01*
X197850595Y-22677380D02*
X197850595Y-21677380D01*
X198183928Y-22391666D01*
X198517261Y-21677380D01*
X198517261Y-22677380D01*
X198898214Y-21677380D02*
X199564880Y-22677380D01*
X199564880Y-21677380D02*
X198898214Y-22677380D01*
X199945833Y-22296428D02*
X200707738Y-22296428D01*
X201183928Y-22677380D02*
X201183928Y-21677380D01*
X201755357Y-22677380D01*
X201755357Y-21677380D01*
X202374404Y-22677380D02*
X202279166Y-22629761D01*
X202231547Y-22582142D01*
X202183928Y-22486904D01*
X202183928Y-22201190D01*
X202231547Y-22105952D01*
X202279166Y-22058333D01*
X202374404Y-22010714D01*
X202517261Y-22010714D01*
X202612500Y-22058333D01*
X202660119Y-22105952D01*
X202707738Y-22201190D01*
X202707738Y-22486904D01*
X202660119Y-22582142D01*
X202612500Y-22629761D01*
X202517261Y-22677380D01*
X202374404Y-22677380D01*
X203612500Y-22677380D02*
X203136309Y-22677380D01*
X203136309Y-21677380D01*
X203945833Y-22153571D02*
X204279166Y-22153571D01*
X204422023Y-22677380D02*
X203945833Y-22677380D01*
X203945833Y-21677380D01*
X204422023Y-21677380D01*
X204850595Y-22677380D02*
X204850595Y-21677380D01*
X205088690Y-21677380D01*
X205231547Y-21725000D01*
X205326785Y-21820238D01*
X205374404Y-21915476D01*
X205422023Y-22105952D01*
X205422023Y-22248809D01*
X205374404Y-22439285D01*
X205326785Y-22534523D01*
X205231547Y-22629761D01*
X205088690Y-22677380D01*
X204850595Y-22677380D01*
%TO.C,MX1*%
X219376785Y-36171130D02*
X219376785Y-35171130D01*
X219710119Y-35885416D01*
X220043452Y-35171130D01*
X220043452Y-36171130D01*
X220424404Y-35171130D02*
X221091071Y-36171130D01*
X221091071Y-35171130D02*
X220424404Y-36171130D01*
X221995833Y-36171130D02*
X221424404Y-36171130D01*
X221710119Y-36171130D02*
X221710119Y-35171130D01*
X221614880Y-35313988D01*
X221519642Y-35409226D01*
X221424404Y-35456845D01*
X216900595Y-25058630D02*
X216900595Y-24058630D01*
X217233928Y-24772916D01*
X217567261Y-24058630D01*
X217567261Y-25058630D01*
X217948214Y-24058630D02*
X218614880Y-25058630D01*
X218614880Y-24058630D02*
X217948214Y-25058630D01*
X218995833Y-24677678D02*
X219757738Y-24677678D01*
X220233928Y-25058630D02*
X220233928Y-24058630D01*
X220805357Y-25058630D01*
X220805357Y-24058630D01*
X221424404Y-25058630D02*
X221329166Y-25011011D01*
X221281547Y-24963392D01*
X221233928Y-24868154D01*
X221233928Y-24582440D01*
X221281547Y-24487202D01*
X221329166Y-24439583D01*
X221424404Y-24391964D01*
X221567261Y-24391964D01*
X221662500Y-24439583D01*
X221710119Y-24487202D01*
X221757738Y-24582440D01*
X221757738Y-24868154D01*
X221710119Y-24963392D01*
X221662500Y-25011011D01*
X221567261Y-25058630D01*
X221424404Y-25058630D01*
X222662500Y-25058630D02*
X222186309Y-25058630D01*
X222186309Y-24058630D01*
X222995833Y-24534821D02*
X223329166Y-24534821D01*
X223472023Y-25058630D02*
X222995833Y-25058630D01*
X222995833Y-24058630D01*
X223472023Y-24058630D01*
X223900595Y-25058630D02*
X223900595Y-24058630D01*
X224138690Y-24058630D01*
X224281547Y-24106250D01*
X224376785Y-24201488D01*
X224424404Y-24296726D01*
X224472023Y-24487202D01*
X224472023Y-24630059D01*
X224424404Y-24820535D01*
X224376785Y-24915773D01*
X224281547Y-25011011D01*
X224138690Y-25058630D01*
X223900595Y-25058630D01*
%TD*%
M02*
