M48
; DRILL file {KiCad (5.1.9-0-10_14)} date Monday, April 19, 2021 at 01:17:00 AM
; FORMAT={-:-/ absolute / inch / decimal}
; #@! TF.CreationDate,2021-04-19T01:17:00-05:00
; #@! TF.GenerationSoftware,Kicad,Pcbnew,(5.1.9-0-10_14)
; #@! TF.FileFunction,Plated,1,2,PTH
FMAT,2
INCH
T1C0.0157
T2C0.0236
T3C0.0276
T4C0.0394
T5C0.0409
T6C0.0430
T7C0.0433
T8C0.0579
T9C0.0591
%
G90
G05
T1
X1.6937Y-2.5356
X2.4438Y-2.4954
X3.1938Y-1.7139
X3.9438Y-1.7575
X4.7875Y-1.7688
X5.5375Y-1.7888
X6.0775Y-2.4038
X6.106Y-2.6037
X6.1063Y-2.4475
X6.2875Y-1.6837
X7.0375Y-1.6087
X7.7875Y-1.7137
X8.5375Y-1.8237
X9.0075Y-2.4287
X9.0475Y-2.4337
X9.1075Y-2.2687
X9.1075Y-2.4888
X9.1625Y-2.6437
X9.2925Y-2.2037
X9.3475Y-2.2087
X9.3975Y-2.1538
X9.4242Y-2.1938
X9.4527Y-2.6785
X9.6825Y-3.5737
X9.6921Y-1.9733
X9.6925Y-1.7473
X9.6925Y-2.0387
X9.6925Y-2.1738
X9.7025Y-2.4087
X9.7125Y-3.1837
X9.7475Y-2.3737
X9.7475Y-3.3788
T3
X2.1892Y-1.284
X2.1892Y-1.591
X2.1892Y-2.034
X2.1892Y-2.341
X2.1892Y-2.784
X2.1892Y-3.091
X2.1892Y-3.534
X2.1892Y-3.841
X2.939Y-1.284
X2.939Y-1.591
X2.939Y-2.034
X2.939Y-2.341
X2.939Y-2.784
X2.939Y-3.091
X2.939Y-3.534
X2.939Y-3.841
X3.6887Y-1.284
X3.6887Y-1.591
X3.6887Y-2.034
X3.6887Y-2.341
X3.6887Y-2.784
X3.6887Y-3.091
X3.6887Y-3.5335
X3.6887Y-3.8406
X4.4385Y-1.284
X4.4385Y-1.591
X4.4385Y-2.034
X4.4385Y-2.341
X4.4385Y-2.784
X4.4385Y-3.091
X4.4385Y-3.534
X4.4385Y-3.841
X5.282Y-1.284
X5.282Y-1.591
X5.282Y-2.034
X5.282Y-2.341
X5.282Y-2.784
X5.282Y-3.091
X5.282Y-3.534
X5.282Y-3.841
X6.0317Y-1.284
X6.0317Y-1.591
X6.0317Y-2.034
X6.0317Y-2.341
X6.0317Y-2.784
X6.0317Y-3.091
X6.0317Y-3.534
X6.0317Y-3.841
X6.4375Y-4.284
X6.4375Y-4.591
X6.7815Y-1.159
X6.7815Y-1.466
X6.7815Y-1.909
X6.7815Y-2.216
X6.7815Y-2.659
X6.7815Y-2.966
X6.7815Y-3.409
X6.7815Y-3.716
X7.1875Y-4.284
X7.1875Y-4.591
X7.5313Y-1.0652
X7.5313Y-1.3723
X7.5313Y-1.8152
X7.5313Y-2.1223
X7.5313Y-2.5652
X7.5313Y-2.8723
X7.5313Y-3.3152
X7.5313Y-3.6223
X7.9375Y-4.284
X7.9375Y-4.591
X8.281Y-1.159
X8.281Y-1.466
X8.281Y-1.9402
X8.281Y-2.2473
X8.281Y-2.659
X8.281Y-2.966
X8.281Y-3.4402
X8.281Y-3.7473
X8.6875Y-4.3777
X8.6875Y-4.6848
X9.0308Y-1.2502
X9.0308Y-1.5573
X9.0308Y-2.0027
X9.0308Y-2.3098
X9.0308Y-2.7527
X9.0308Y-3.0598
X9.0308Y-3.5027
X9.0308Y-3.8098
X9.3931Y-1.5
X9.3931Y-1.7188
X9.4945Y-4.072
X9.5931Y-1.5
X9.5931Y-1.7188
X9.7605Y-4.2255
T4
X5.9975Y-4.1629
X5.9975Y-4.7337
X6.0959Y-4.7337
X6.1944Y-4.1629
X6.1944Y-4.7337
T5
X1.7937Y-1.6375
X1.7937Y-2.3875
X1.7937Y-3.1375
X1.7937Y-3.8875
X1.8938Y-1.6375
X1.8938Y-2.3875
X1.8938Y-3.1375
X1.8938Y-3.8875
X2.5437Y-1.6375
X2.5437Y-2.3875
X2.5437Y-3.1375
X2.5437Y-3.8875
X2.6437Y-1.6375
X2.6437Y-2.3875
X2.6437Y-3.1375
X2.6437Y-3.8875
X3.2937Y-1.6375
X3.2937Y-2.3875
X3.2937Y-3.1375
X3.2937Y-3.8875
X3.3937Y-1.6375
X3.3937Y-2.3875
X3.3937Y-3.1375
X3.3937Y-3.8875
X4.0438Y-1.6375
X4.0438Y-2.3875
X4.0438Y-3.1375
X4.0438Y-3.8875
X4.1437Y-1.6375
X4.1437Y-2.3875
X4.1437Y-3.1375
X4.1437Y-3.8875
X4.8875Y-1.6375
X4.8875Y-2.3875
X4.8875Y-3.1375
X4.8875Y-3.8875
X4.9875Y-1.6375
X4.9875Y-2.3875
X4.9875Y-3.1375
X4.9875Y-3.8875
X5.6375Y-1.6375
X5.6375Y-2.3875
X5.6375Y-3.1375
X5.6375Y-3.8875
X5.7375Y-1.6375
X5.7375Y-2.3875
X5.7375Y-3.1375
X5.7375Y-3.8875
X6.3875Y-1.5125
X6.3875Y-2.2625
X6.3875Y-3.0125
X6.3875Y-3.7625
X6.4875Y-1.5125
X6.4875Y-2.2625
X6.4875Y-3.0125
X6.4875Y-3.7625
X6.7938Y-4.6375
X6.8937Y-4.6375
X7.1375Y-1.4187
X7.1375Y-2.1687
X7.1375Y-2.9187
X7.1375Y-3.6687
X7.2375Y-1.4187
X7.2375Y-2.1687
X7.2375Y-2.9187
X7.2375Y-3.6687
X7.5438Y-4.6375
X7.6437Y-4.6375
X7.8875Y-1.5125
X7.8875Y-2.2625
X7.8875Y-3.0125
X7.8875Y-3.7625
X7.9875Y-1.5125
X7.9875Y-2.2625
X7.9875Y-3.0125
X7.9875Y-3.7625
X8.2937Y-4.7313
X8.3937Y-4.7313
X8.6375Y-1.6062
X8.6375Y-2.3562
X8.6375Y-3.1062
X8.6375Y-3.8562
X8.7375Y-1.6062
X8.7375Y-2.3562
X8.7375Y-3.1062
X8.7375Y-3.8562
X9.6057Y-4.5871
X9.6557Y-4.5004
T6
X9.2Y-1.2
X9.2Y-1.3
X9.2Y-1.4
X9.2Y-1.5
X9.2Y-1.6
X9.2Y-1.7
X9.2Y-1.8
X9.2Y-1.9
X9.2Y-2.0
X9.2Y-2.1
X9.2Y-2.2
X9.2Y-2.3
X9.3Y-2.3
X9.4Y-2.3
X9.5Y-2.3
X9.6Y-2.3
X9.7Y-2.3
X9.791Y-2.3
X9.8Y-1.2
X9.8Y-1.3
X9.8Y-1.4
X9.8Y-1.5
X9.8Y-1.6
X9.8Y-1.7
X9.8Y-1.8
X9.8Y-1.9
X9.8Y-2.0
X9.8Y-2.1
X9.8Y-2.2
T7
X9.3725Y-2.4688
X9.3725Y-2.6459
X9.6284Y-2.4688
X9.6284Y-2.6459
T8
X1.6937Y-1.3375
X1.6937Y-2.0875
X1.6937Y-2.8375
X1.6937Y-3.5875
X1.7453Y-1.28
X1.7453Y-2.03
X1.7453Y-2.78
X1.7453Y-3.53
X1.9422Y-1.2603
X1.9422Y-2.0103
X1.9422Y-2.7603
X1.9422Y-3.5103
X1.9437Y-1.2375
X1.9437Y-1.9875
X1.9437Y-2.7375
X1.9437Y-3.4875
X2.4438Y-1.3375
X2.4438Y-2.0875
X2.4438Y-2.8375
X2.4438Y-3.5875
X2.4953Y-1.28
X2.4953Y-2.03
X2.4953Y-2.78
X2.4953Y-3.53
X2.6922Y-1.2603
X2.6922Y-2.0103
X2.6922Y-2.7603
X2.6922Y-3.5103
X2.6938Y-1.2375
X2.6938Y-1.9875
X2.6938Y-2.7375
X2.6938Y-3.4875
X3.1938Y-1.3375
X3.1938Y-2.0875
X3.1938Y-2.8375
X3.1938Y-3.5875
X3.2453Y-1.28
X3.2453Y-2.03
X3.2453Y-2.78
X3.2453Y-3.53
X3.4422Y-1.2603
X3.4422Y-2.0103
X3.4422Y-2.7603
X3.4422Y-3.5103
X3.4438Y-1.2375
X3.4438Y-1.9875
X3.4438Y-2.7375
X3.4438Y-3.4875
X3.9438Y-1.3375
X3.9438Y-2.0875
X3.9438Y-2.8375
X3.9438Y-3.5875
X3.9953Y-1.28
X3.9953Y-2.03
X3.9953Y-2.78
X3.9953Y-3.53
X4.1922Y-1.2603
X4.1922Y-2.0103
X4.1922Y-2.7603
X4.1922Y-3.5103
X4.1937Y-1.2375
X4.1937Y-1.9875
X4.1937Y-2.7375
X4.1937Y-3.4875
X4.7875Y-1.3375
X4.7875Y-2.0875
X4.7875Y-2.8375
X4.7875Y-3.5875
X4.8391Y-1.28
X4.8391Y-2.03
X4.8391Y-2.78
X4.8391Y-3.53
X5.0359Y-1.2603
X5.0359Y-2.0103
X5.0359Y-2.7603
X5.0359Y-3.5103
X5.0375Y-1.2375
X5.0375Y-1.9875
X5.0375Y-2.7375
X5.0375Y-3.4875
X5.5375Y-1.3375
X5.5375Y-2.0875
X5.5375Y-2.8375
X5.5375Y-3.5875
X5.5891Y-1.28
X5.5891Y-2.03
X5.5891Y-2.78
X5.5891Y-3.53
X5.7859Y-1.2603
X5.7859Y-2.0103
X5.7859Y-2.7603
X5.7859Y-3.5103
X5.7875Y-1.2375
X5.7875Y-1.9875
X5.7875Y-2.7375
X5.7875Y-3.4875
X6.2875Y-1.2125
X6.2875Y-1.9625
X6.2875Y-2.7125
X6.2875Y-3.4625
X6.3391Y-1.155
X6.3391Y-1.905
X6.3391Y-2.655
X6.3391Y-3.405
X6.5359Y-1.1353
X6.5359Y-1.8853
X6.5359Y-2.6353
X6.5359Y-3.3853
X6.5375Y-1.1125
X6.5375Y-1.8625
X6.5375Y-2.6125
X6.5375Y-3.3625
X6.6937Y-4.3375
X6.7453Y-4.28
X6.9422Y-4.2603
X6.9437Y-4.2375
X7.0375Y-1.1187
X7.0375Y-1.8687
X7.0375Y-2.6187
X7.0375Y-3.3687
X7.0891Y-1.0613
X7.0891Y-1.8113
X7.0891Y-2.5613
X7.0891Y-3.3113
X7.2859Y-1.0416
X7.2859Y-1.7916
X7.2859Y-2.5416
X7.2859Y-3.2916
X7.2875Y-1.0188
X7.2875Y-1.7688
X7.2875Y-2.5187
X7.2875Y-3.2687
X7.4437Y-4.3375
X7.4953Y-4.28
X7.6922Y-4.2603
X7.6937Y-4.2375
X7.7875Y-1.2125
X7.7875Y-1.9625
X7.7875Y-2.7125
X7.7875Y-3.4625
X7.8391Y-1.155
X7.8391Y-1.905
X7.8391Y-2.655
X7.8391Y-3.405
X8.0359Y-1.1353
X8.0359Y-1.8853
X8.0359Y-2.6353
X8.0359Y-3.3853
X8.0375Y-1.1125
X8.0375Y-1.8625
X8.0375Y-2.6125
X8.0375Y-3.3625
X8.1937Y-4.4312
X8.2453Y-4.3738
X8.4422Y-4.3541
X8.4437Y-4.3312
X8.5375Y-1.3062
X8.5375Y-2.0562
X8.5375Y-2.8062
X8.5375Y-3.5562
X8.5891Y-1.2488
X8.5891Y-1.9988
X8.5891Y-2.7488
X8.5891Y-3.4988
X8.7859Y-1.2291
X8.7859Y-1.9791
X8.7859Y-2.7291
X8.7859Y-3.4791
X8.7875Y-1.2063
X8.7875Y-1.9563
X8.7875Y-2.7062
X8.7875Y-3.4562
X9.2719Y-4.4502
X9.2959Y-4.5237
X9.3343Y-4.2571
X9.3533Y-4.2699
T2
G00X10.0034Y-3.7185
M15
G01X9.9916Y-3.739
M16
G05
G00X10.0821Y-3.5821
M15
G01X10.0703Y-3.6026
M16
G05
G00X10.1273Y-3.8582
M15
G01X10.1155Y-3.8787
M16
G05
G00X10.1412Y-3.4799
M15
G01X10.1294Y-3.5003
M16
G05
G00X10.3287Y-3.5881
M15
G01X10.3169Y-3.6086
M16
G05
T9
G00X5.8755Y-4.4641
M15
G01X5.8755Y-4.4129
M16
G05
G00X6.3164Y-4.4641
M15
G01X6.3164Y-4.4129
M16
G05
T0
M30
