%TF.GenerationSoftware,KiCad,Pcbnew,(5.1.9-0-10_14)*%
%TF.CreationDate,2021-04-19T01:17:04-05:00*%
%TF.ProjectId,wren-left,7772656e-2d6c-4656-9674-2e6b69636164,rev?*%
%TF.SameCoordinates,Original*%
%TF.FileFunction,Paste,Bot*%
%TF.FilePolarity,Positive*%
%FSLAX46Y46*%
G04 Gerber Fmt 4.6, Leading zero omitted, Abs format (unit mm)*
G04 Created by KiCad (PCBNEW (5.1.9-0-10_14)) date 2021-04-19 01:17:04*
%MOMM*%
%LPD*%
G01*
G04 APERTURE LIST*
%ADD10R,1.200000X1.200000*%
%ADD11C,0.100000*%
G04 APERTURE END LIST*
D10*
%TO.C,D45*%
X163512500Y-114287500D03*
X163512500Y-111137500D03*
%TD*%
%TO.C,D44*%
X182562500Y-114287500D03*
X182562500Y-111137500D03*
%TD*%
%TO.C,D43*%
X201612500Y-114287500D03*
X201612500Y-111137500D03*
%TD*%
%TO.C,D42*%
X220662500Y-116668750D03*
X220662500Y-113518750D03*
%TD*%
D11*
%TO.C,D41*%
G36*
X246722105Y-105946135D02*
G01*
X246122105Y-106985365D01*
X245082875Y-106385365D01*
X245682875Y-105346135D01*
X246722105Y-105946135D01*
G37*
G36*
X243994125Y-104371135D02*
G01*
X243394125Y-105410365D01*
X242354895Y-104810365D01*
X242954895Y-103771135D01*
X243994125Y-104371135D01*
G37*
%TD*%
D10*
%TO.C,D40*%
X55605500Y-95237500D03*
X55605500Y-92087500D03*
%TD*%
%TO.C,D39*%
X74649500Y-95237500D03*
X74649500Y-92087500D03*
%TD*%
%TO.C,D38*%
X93693500Y-95225000D03*
X93693500Y-92075000D03*
%TD*%
%TO.C,D37*%
X112737500Y-95237500D03*
X112737500Y-92087500D03*
%TD*%
%TO.C,D36*%
X134162000Y-95237500D03*
X134162000Y-92087500D03*
%TD*%
%TO.C,D35*%
X153206000Y-95237500D03*
X153206000Y-92087500D03*
%TD*%
%TO.C,D34*%
X172250000Y-92062500D03*
X172250000Y-88912500D03*
%TD*%
%TO.C,D33*%
X191294000Y-89681250D03*
X191294000Y-86531250D03*
%TD*%
%TO.C,D32*%
X210338000Y-92856250D03*
X210338000Y-89706250D03*
%TD*%
%TO.C,D31*%
X229382000Y-94443750D03*
X229382000Y-91293750D03*
%TD*%
%TO.C,D30*%
X55605500Y-76187500D03*
X55605500Y-73037500D03*
%TD*%
%TO.C,D29*%
X74649500Y-76187500D03*
X74649500Y-73037500D03*
%TD*%
%TO.C,D28*%
X93693500Y-76187500D03*
X93693500Y-73037500D03*
%TD*%
%TO.C,D27*%
X112737500Y-76187500D03*
X112737500Y-73037500D03*
%TD*%
%TO.C,D26*%
X134162000Y-76187500D03*
X134162000Y-73037500D03*
%TD*%
%TO.C,D25*%
X153206000Y-76187500D03*
X153206000Y-73037500D03*
%TD*%
%TO.C,D24*%
X172250000Y-73012500D03*
X172250000Y-69862500D03*
%TD*%
%TO.C,D23*%
X191294000Y-70631250D03*
X191294000Y-67481250D03*
%TD*%
%TO.C,D22*%
X210338000Y-73012500D03*
X210338000Y-69862500D03*
%TD*%
%TO.C,D21*%
X229382000Y-75393750D03*
X229382000Y-72243750D03*
%TD*%
%TO.C,D20*%
X55605500Y-57137500D03*
X55605500Y-53987500D03*
%TD*%
%TO.C,D19*%
X74649500Y-57137500D03*
X74649500Y-53987500D03*
%TD*%
%TO.C,D18*%
X93693500Y-57137500D03*
X93693500Y-53987500D03*
%TD*%
%TO.C,D17*%
X112737500Y-57137500D03*
X112737500Y-53987500D03*
%TD*%
%TO.C,D16*%
X134162000Y-57137500D03*
X134162000Y-53987500D03*
%TD*%
%TO.C,D15*%
X153206000Y-57137500D03*
X153206000Y-53987500D03*
%TD*%
%TO.C,D14*%
X172250000Y-53962500D03*
X172250000Y-50812500D03*
%TD*%
%TO.C,D13*%
X191294000Y-51581250D03*
X191294000Y-48431250D03*
%TD*%
%TO.C,D12*%
X210338000Y-54756250D03*
X210338000Y-51606250D03*
%TD*%
%TO.C,D11*%
X229382000Y-56343750D03*
X229382000Y-53193750D03*
%TD*%
%TO.C,D10*%
X55605500Y-38087500D03*
X55605500Y-34937500D03*
%TD*%
%TO.C,D9*%
X74649500Y-38087500D03*
X74649500Y-34937500D03*
%TD*%
%TO.C,D8*%
X93693500Y-38087500D03*
X93693500Y-34937500D03*
%TD*%
%TO.C,D7*%
X112737500Y-38087500D03*
X112737500Y-34937500D03*
%TD*%
%TO.C,D6*%
X134162000Y-38087500D03*
X134162000Y-34937500D03*
%TD*%
%TO.C,D5*%
X153206000Y-38087500D03*
X153206000Y-34937500D03*
%TD*%
%TO.C,D4*%
X172250000Y-34912500D03*
X172250000Y-31762500D03*
%TD*%
%TO.C,D3*%
X191294000Y-32531250D03*
X191294000Y-29381250D03*
%TD*%
%TO.C,D2*%
X210338000Y-34912500D03*
X210338000Y-31762500D03*
%TD*%
%TO.C,D1*%
X229382000Y-37231250D03*
X229382000Y-34081250D03*
%TD*%
M02*
