%TF.GenerationSoftware,KiCad,Pcbnew,(5.1.9-0-10_14)*%
%TF.CreationDate,2021-04-19T01:17:04-05:00*%
%TF.ProjectId,wren-left,7772656e-2d6c-4656-9674-2e6b69636164,rev?*%
%TF.SameCoordinates,Original*%
%TF.FileFunction,Copper,L2,Bot*%
%TF.FilePolarity,Positive*%
%FSLAX46Y46*%
G04 Gerber Fmt 4.6, Leading zero omitted, Abs format (unit mm)*
G04 Created by KiCad (PCBNEW (5.1.9-0-10_14)) date 2021-04-19 01:17:04*
%MOMM*%
%LPD*%
G01*
G04 APERTURE LIST*
%TA.AperFunction,ComponentPad*%
%ADD10C,0.100000*%
%TD*%
%TA.AperFunction,ComponentPad*%
%ADD11C,1.905000*%
%TD*%
%TA.AperFunction,ComponentPad*%
%ADD12C,2.250000*%
%TD*%
%TA.AperFunction,ComponentPad*%
%ADD13O,1.400000X1.400000*%
%TD*%
%TA.AperFunction,ComponentPad*%
%ADD14C,1.400000*%
%TD*%
%TA.AperFunction,SMDPad,CuDef*%
%ADD15R,0.500000X2.500000*%
%TD*%
%TA.AperFunction,ComponentPad*%
%ADD16C,1.600000*%
%TD*%
%TA.AperFunction,ComponentPad*%
%ADD17R,1.600000X1.600000*%
%TD*%
%TA.AperFunction,SMDPad,CuDef*%
%ADD18R,1.200000X1.200000*%
%TD*%
%TA.AperFunction,SMDPad,CuDef*%
%ADD19C,0.100000*%
%TD*%
%TA.AperFunction,ComponentPad*%
%ADD20R,2.000000X2.000000*%
%TD*%
%TA.AperFunction,ComponentPad*%
%ADD21C,2.000000*%
%TD*%
%TA.AperFunction,ComponentPad*%
%ADD22R,2.000000X3.200000*%
%TD*%
%TA.AperFunction,ComponentPad*%
%ADD23C,1.752600*%
%TD*%
%TA.AperFunction,ComponentPad*%
%ADD24R,1.752600X1.752600*%
%TD*%
%TA.AperFunction,ComponentPad*%
%ADD25R,1.905000X1.905000*%
%TD*%
%TA.AperFunction,ViaPad*%
%ADD26C,0.800000*%
%TD*%
%TA.AperFunction,Conductor*%
%ADD27C,0.250000*%
%TD*%
G04 APERTURE END LIST*
%TA.AperFunction,ComponentPad*%
D10*
%TO.P,MX41,4*%
%TO.N,N/C*%
G36*
X244333548Y-117812241D02*
G01*
X242683770Y-116859741D01*
X243636270Y-115209963D01*
X245286048Y-116162463D01*
X244333548Y-117812241D01*
G37*
%TD.AperFunction*%
D11*
%TO.P,MX41,3*%
X245254909Y-114311398D03*
D12*
%TO.P,MX41,1*%
%TO.N,COL0*%
X235506398Y-113036314D03*
%TA.AperFunction,ComponentPad*%
G36*
G01*
X236465306Y-115970137D02*
X236465299Y-115970140D01*
G75*
G02*
X235046462Y-115250311I-349504J1069333D01*
G01*
X234437066Y-113385817D01*
G75*
G02*
X235156895Y-111966980I1069333J349504D01*
G01*
X235156895Y-111966980D01*
G75*
G02*
X236575732Y-112686809I349504J-1069333D01*
G01*
X237185128Y-114551303D01*
G75*
G02*
X236465299Y-115970140I-1069333J-349504D01*
G01*
G37*
%TD.AperFunction*%
%TO.P,MX41,2*%
%TO.N,Net-(D41-Pad2)*%
X237091091Y-108131545D03*
%TA.AperFunction,ComponentPad*%
G36*
G01*
X238507150Y-109083649D02*
X238506655Y-109084386D01*
G75*
G02*
X236945186Y-109389455I-933269J628200D01*
G01*
X236462892Y-109064813D01*
G75*
G02*
X236157823Y-107503344I628200J933269D01*
G01*
X236157823Y-107503344D01*
G75*
G02*
X237719292Y-107198275I933269J-628200D01*
G01*
X238201586Y-107522917D01*
G75*
G02*
X238506655Y-109084386I-628200J-933269D01*
G01*
G37*
%TD.AperFunction*%
%TD*%
D13*
%TO.P,R2,2*%
%TO.N,VCC*%
X238585000Y-43656250D03*
D14*
%TO.P,R2,1*%
%TO.N,SCL*%
X243665000Y-43656250D03*
%TD*%
D13*
%TO.P,R1,2*%
%TO.N,VCC*%
X238585000Y-38100000D03*
D14*
%TO.P,R1,1*%
%TO.N,SDA*%
X243665000Y-38100000D03*
%TD*%
D15*
%TO.P,D45,2*%
%TO.N,ENC1-IN*%
X163512500Y-110012500D03*
%TO.P,D45,1*%
%TO.N,ROW4*%
X163512500Y-115412500D03*
D16*
%TO.P,D45,2*%
%TO.N,ENC1-IN*%
X163512500Y-108812500D03*
D17*
%TO.P,D45,1*%
%TO.N,ROW4*%
X163512500Y-116612500D03*
D18*
X163512500Y-114287500D03*
%TO.P,D45,2*%
%TO.N,ENC1-IN*%
X163512500Y-111137500D03*
%TD*%
D15*
%TO.P,D44,2*%
%TO.N,Net-(D44-Pad2)*%
X182562500Y-110012500D03*
%TO.P,D44,1*%
%TO.N,ROW4*%
X182562500Y-115412500D03*
D16*
%TO.P,D44,2*%
%TO.N,Net-(D44-Pad2)*%
X182562500Y-108812500D03*
D17*
%TO.P,D44,1*%
%TO.N,ROW4*%
X182562500Y-116612500D03*
D18*
X182562500Y-114287500D03*
%TO.P,D44,2*%
%TO.N,Net-(D44-Pad2)*%
X182562500Y-111137500D03*
%TD*%
D15*
%TO.P,D43,2*%
%TO.N,Net-(D43-Pad2)*%
X201612500Y-110012500D03*
%TO.P,D43,1*%
%TO.N,ROW4*%
X201612500Y-115412500D03*
D16*
%TO.P,D43,2*%
%TO.N,Net-(D43-Pad2)*%
X201612500Y-108812500D03*
D17*
%TO.P,D43,1*%
%TO.N,ROW4*%
X201612500Y-116612500D03*
D18*
X201612500Y-114287500D03*
%TO.P,D43,2*%
%TO.N,Net-(D43-Pad2)*%
X201612500Y-111137500D03*
%TD*%
D15*
%TO.P,D42,2*%
%TO.N,Net-(D42-Pad2)*%
X220662500Y-112393750D03*
%TO.P,D42,1*%
%TO.N,ROW4*%
X220662500Y-117793750D03*
D16*
%TO.P,D42,2*%
%TO.N,Net-(D42-Pad2)*%
X220662500Y-111193750D03*
D17*
%TO.P,D42,1*%
%TO.N,ROW4*%
X220662500Y-118993750D03*
D18*
X220662500Y-116668750D03*
%TO.P,D42,2*%
%TO.N,Net-(D42-Pad2)*%
X220662500Y-113518750D03*
%TD*%
%TA.AperFunction,SMDPad,CuDef*%
D19*
%TO.P,D41,2*%
%TO.N,Net-(D41-Pad2)*%
G36*
X243407763Y-104436744D02*
G01*
X243157763Y-104869756D01*
X240992699Y-103619756D01*
X241242699Y-103186744D01*
X243407763Y-104436744D01*
G37*
%TD.AperFunction*%
%TA.AperFunction,SMDPad,CuDef*%
%TO.P,D41,1*%
%TO.N,ROW4*%
G36*
X248084301Y-107136744D02*
G01*
X247834301Y-107569756D01*
X245669237Y-106319756D01*
X245919237Y-105886744D01*
X248084301Y-107136744D01*
G37*
%TD.AperFunction*%
D16*
%TO.P,D41,2*%
%TO.N,Net-(D41-Pad2)*%
X241161001Y-103428250D03*
%TA.AperFunction,ComponentPad*%
D10*
%TO.P,D41,1*%
%TO.N,ROW4*%
G36*
X249008819Y-107035430D02*
G01*
X248208819Y-108421070D01*
X246823179Y-107621070D01*
X247623179Y-106235430D01*
X249008819Y-107035430D01*
G37*
%TD.AperFunction*%
%TA.AperFunction,SMDPad,CuDef*%
D19*
G36*
X246722105Y-105946135D02*
G01*
X246122105Y-106985365D01*
X245082875Y-106385365D01*
X245682875Y-105346135D01*
X246722105Y-105946135D01*
G37*
%TD.AperFunction*%
%TA.AperFunction,SMDPad,CuDef*%
%TO.P,D41,2*%
%TO.N,Net-(D41-Pad2)*%
G36*
X243994125Y-104371135D02*
G01*
X243394125Y-105410365D01*
X242354895Y-104810365D01*
X242954895Y-103771135D01*
X243994125Y-104371135D01*
G37*
%TD.AperFunction*%
%TD*%
D15*
%TO.P,D40,2*%
%TO.N,Net-(D40-Pad2)*%
X55605500Y-90962500D03*
%TO.P,D40,1*%
%TO.N,ROW3*%
X55605500Y-96362500D03*
D16*
%TO.P,D40,2*%
%TO.N,Net-(D40-Pad2)*%
X55605500Y-89762500D03*
D17*
%TO.P,D40,1*%
%TO.N,ROW3*%
X55605500Y-97562500D03*
D18*
X55605500Y-95237500D03*
%TO.P,D40,2*%
%TO.N,Net-(D40-Pad2)*%
X55605500Y-92087500D03*
%TD*%
D15*
%TO.P,D39,2*%
%TO.N,Net-(D39-Pad2)*%
X74649500Y-90962500D03*
%TO.P,D39,1*%
%TO.N,ROW3*%
X74649500Y-96362500D03*
D16*
%TO.P,D39,2*%
%TO.N,Net-(D39-Pad2)*%
X74649500Y-89762500D03*
D17*
%TO.P,D39,1*%
%TO.N,ROW3*%
X74649500Y-97562500D03*
D18*
X74649500Y-95237500D03*
%TO.P,D39,2*%
%TO.N,Net-(D39-Pad2)*%
X74649500Y-92087500D03*
%TD*%
D15*
%TO.P,D38,2*%
%TO.N,Net-(D38-Pad2)*%
X93693500Y-90950000D03*
%TO.P,D38,1*%
%TO.N,ROW3*%
X93693500Y-96350000D03*
D16*
%TO.P,D38,2*%
%TO.N,Net-(D38-Pad2)*%
X93693500Y-89750000D03*
D17*
%TO.P,D38,1*%
%TO.N,ROW3*%
X93693500Y-97550000D03*
D18*
X93693500Y-95225000D03*
%TO.P,D38,2*%
%TO.N,Net-(D38-Pad2)*%
X93693500Y-92075000D03*
%TD*%
D15*
%TO.P,D37,2*%
%TO.N,Net-(D37-Pad2)*%
X112737500Y-90962500D03*
%TO.P,D37,1*%
%TO.N,ROW3*%
X112737500Y-96362500D03*
D16*
%TO.P,D37,2*%
%TO.N,Net-(D37-Pad2)*%
X112737500Y-89762500D03*
D17*
%TO.P,D37,1*%
%TO.N,ROW3*%
X112737500Y-97562500D03*
D18*
X112737500Y-95237500D03*
%TO.P,D37,2*%
%TO.N,Net-(D37-Pad2)*%
X112737500Y-92087500D03*
%TD*%
D15*
%TO.P,D36,2*%
%TO.N,Net-(D36-Pad2)*%
X134162000Y-90962500D03*
%TO.P,D36,1*%
%TO.N,ROW3*%
X134162000Y-96362500D03*
D16*
%TO.P,D36,2*%
%TO.N,Net-(D36-Pad2)*%
X134162000Y-89762500D03*
D17*
%TO.P,D36,1*%
%TO.N,ROW3*%
X134162000Y-97562500D03*
D18*
X134162000Y-95237500D03*
%TO.P,D36,2*%
%TO.N,Net-(D36-Pad2)*%
X134162000Y-92087500D03*
%TD*%
D15*
%TO.P,D35,2*%
%TO.N,Net-(D35-Pad2)*%
X153206000Y-90962500D03*
%TO.P,D35,1*%
%TO.N,ROW3*%
X153206000Y-96362500D03*
D16*
%TO.P,D35,2*%
%TO.N,Net-(D35-Pad2)*%
X153206000Y-89762500D03*
D17*
%TO.P,D35,1*%
%TO.N,ROW3*%
X153206000Y-97562500D03*
D18*
X153206000Y-95237500D03*
%TO.P,D35,2*%
%TO.N,Net-(D35-Pad2)*%
X153206000Y-92087500D03*
%TD*%
D15*
%TO.P,D34,2*%
%TO.N,Net-(D34-Pad2)*%
X172250000Y-87787500D03*
%TO.P,D34,1*%
%TO.N,ROW3*%
X172250000Y-93187500D03*
D16*
%TO.P,D34,2*%
%TO.N,Net-(D34-Pad2)*%
X172250000Y-86587500D03*
D17*
%TO.P,D34,1*%
%TO.N,ROW3*%
X172250000Y-94387500D03*
D18*
X172250000Y-92062500D03*
%TO.P,D34,2*%
%TO.N,Net-(D34-Pad2)*%
X172250000Y-88912500D03*
%TD*%
D15*
%TO.P,D33,2*%
%TO.N,Net-(D33-Pad2)*%
X191294000Y-85406250D03*
%TO.P,D33,1*%
%TO.N,ROW3*%
X191294000Y-90806250D03*
D16*
%TO.P,D33,2*%
%TO.N,Net-(D33-Pad2)*%
X191294000Y-84206250D03*
D17*
%TO.P,D33,1*%
%TO.N,ROW3*%
X191294000Y-92006250D03*
D18*
X191294000Y-89681250D03*
%TO.P,D33,2*%
%TO.N,Net-(D33-Pad2)*%
X191294000Y-86531250D03*
%TD*%
D15*
%TO.P,D32,2*%
%TO.N,Net-(D32-Pad2)*%
X210338000Y-88581250D03*
%TO.P,D32,1*%
%TO.N,ROW3*%
X210338000Y-93981250D03*
D16*
%TO.P,D32,2*%
%TO.N,Net-(D32-Pad2)*%
X210338000Y-87381250D03*
D17*
%TO.P,D32,1*%
%TO.N,ROW3*%
X210338000Y-95181250D03*
D18*
X210338000Y-92856250D03*
%TO.P,D32,2*%
%TO.N,Net-(D32-Pad2)*%
X210338000Y-89706250D03*
%TD*%
D15*
%TO.P,D31,2*%
%TO.N,Net-(D31-Pad2)*%
X229382000Y-90168750D03*
%TO.P,D31,1*%
%TO.N,ROW3*%
X229382000Y-95568750D03*
D16*
%TO.P,D31,2*%
%TO.N,Net-(D31-Pad2)*%
X229382000Y-88968750D03*
D17*
%TO.P,D31,1*%
%TO.N,ROW3*%
X229382000Y-96768750D03*
D18*
X229382000Y-94443750D03*
%TO.P,D31,2*%
%TO.N,Net-(D31-Pad2)*%
X229382000Y-91293750D03*
%TD*%
D15*
%TO.P,D30,2*%
%TO.N,Net-(D30-Pad2)*%
X55605500Y-71912500D03*
%TO.P,D30,1*%
%TO.N,ROW2*%
X55605500Y-77312500D03*
D16*
%TO.P,D30,2*%
%TO.N,Net-(D30-Pad2)*%
X55605500Y-70712500D03*
D17*
%TO.P,D30,1*%
%TO.N,ROW2*%
X55605500Y-78512500D03*
D18*
X55605500Y-76187500D03*
%TO.P,D30,2*%
%TO.N,Net-(D30-Pad2)*%
X55605500Y-73037500D03*
%TD*%
D15*
%TO.P,D29,2*%
%TO.N,Net-(D29-Pad2)*%
X74649500Y-71912500D03*
%TO.P,D29,1*%
%TO.N,ROW2*%
X74649500Y-77312500D03*
D16*
%TO.P,D29,2*%
%TO.N,Net-(D29-Pad2)*%
X74649500Y-70712500D03*
D17*
%TO.P,D29,1*%
%TO.N,ROW2*%
X74649500Y-78512500D03*
D18*
X74649500Y-76187500D03*
%TO.P,D29,2*%
%TO.N,Net-(D29-Pad2)*%
X74649500Y-73037500D03*
%TD*%
D15*
%TO.P,D28,2*%
%TO.N,Net-(D28-Pad2)*%
X93693500Y-71912500D03*
%TO.P,D28,1*%
%TO.N,ROW2*%
X93693500Y-77312500D03*
D16*
%TO.P,D28,2*%
%TO.N,Net-(D28-Pad2)*%
X93693500Y-70712500D03*
D17*
%TO.P,D28,1*%
%TO.N,ROW2*%
X93693500Y-78512500D03*
D18*
X93693500Y-76187500D03*
%TO.P,D28,2*%
%TO.N,Net-(D28-Pad2)*%
X93693500Y-73037500D03*
%TD*%
D15*
%TO.P,D27,2*%
%TO.N,Net-(D27-Pad2)*%
X112737500Y-71912500D03*
%TO.P,D27,1*%
%TO.N,ROW2*%
X112737500Y-77312500D03*
D16*
%TO.P,D27,2*%
%TO.N,Net-(D27-Pad2)*%
X112737500Y-70712500D03*
D17*
%TO.P,D27,1*%
%TO.N,ROW2*%
X112737500Y-78512500D03*
D18*
X112737500Y-76187500D03*
%TO.P,D27,2*%
%TO.N,Net-(D27-Pad2)*%
X112737500Y-73037500D03*
%TD*%
D15*
%TO.P,D26,2*%
%TO.N,Net-(D26-Pad2)*%
X134162000Y-71912500D03*
%TO.P,D26,1*%
%TO.N,ROW2*%
X134162000Y-77312500D03*
D16*
%TO.P,D26,2*%
%TO.N,Net-(D26-Pad2)*%
X134162000Y-70712500D03*
D17*
%TO.P,D26,1*%
%TO.N,ROW2*%
X134162000Y-78512500D03*
D18*
X134162000Y-76187500D03*
%TO.P,D26,2*%
%TO.N,Net-(D26-Pad2)*%
X134162000Y-73037500D03*
%TD*%
D15*
%TO.P,D25,2*%
%TO.N,Net-(D25-Pad2)*%
X153206000Y-71912500D03*
%TO.P,D25,1*%
%TO.N,ROW2*%
X153206000Y-77312500D03*
D16*
%TO.P,D25,2*%
%TO.N,Net-(D25-Pad2)*%
X153206000Y-70712500D03*
D17*
%TO.P,D25,1*%
%TO.N,ROW2*%
X153206000Y-78512500D03*
D18*
X153206000Y-76187500D03*
%TO.P,D25,2*%
%TO.N,Net-(D25-Pad2)*%
X153206000Y-73037500D03*
%TD*%
D15*
%TO.P,D24,2*%
%TO.N,Net-(D24-Pad2)*%
X172250000Y-68737500D03*
%TO.P,D24,1*%
%TO.N,ROW2*%
X172250000Y-74137500D03*
D16*
%TO.P,D24,2*%
%TO.N,Net-(D24-Pad2)*%
X172250000Y-67537500D03*
D17*
%TO.P,D24,1*%
%TO.N,ROW2*%
X172250000Y-75337500D03*
D18*
X172250000Y-73012500D03*
%TO.P,D24,2*%
%TO.N,Net-(D24-Pad2)*%
X172250000Y-69862500D03*
%TD*%
D15*
%TO.P,D23,2*%
%TO.N,Net-(D23-Pad2)*%
X191294000Y-66356250D03*
%TO.P,D23,1*%
%TO.N,ROW2*%
X191294000Y-71756250D03*
D16*
%TO.P,D23,2*%
%TO.N,Net-(D23-Pad2)*%
X191294000Y-65156250D03*
D17*
%TO.P,D23,1*%
%TO.N,ROW2*%
X191294000Y-72956250D03*
D18*
X191294000Y-70631250D03*
%TO.P,D23,2*%
%TO.N,Net-(D23-Pad2)*%
X191294000Y-67481250D03*
%TD*%
D15*
%TO.P,D22,2*%
%TO.N,Net-(D22-Pad2)*%
X210338000Y-68737500D03*
%TO.P,D22,1*%
%TO.N,ROW2*%
X210338000Y-74137500D03*
D16*
%TO.P,D22,2*%
%TO.N,Net-(D22-Pad2)*%
X210338000Y-67537500D03*
D17*
%TO.P,D22,1*%
%TO.N,ROW2*%
X210338000Y-75337500D03*
D18*
X210338000Y-73012500D03*
%TO.P,D22,2*%
%TO.N,Net-(D22-Pad2)*%
X210338000Y-69862500D03*
%TD*%
D15*
%TO.P,D21,2*%
%TO.N,Net-(D21-Pad2)*%
X229382000Y-71118750D03*
%TO.P,D21,1*%
%TO.N,ROW2*%
X229382000Y-76518750D03*
D16*
%TO.P,D21,2*%
%TO.N,Net-(D21-Pad2)*%
X229382000Y-69918750D03*
D17*
%TO.P,D21,1*%
%TO.N,ROW2*%
X229382000Y-77718750D03*
D18*
X229382000Y-75393750D03*
%TO.P,D21,2*%
%TO.N,Net-(D21-Pad2)*%
X229382000Y-72243750D03*
%TD*%
D15*
%TO.P,D20,2*%
%TO.N,Net-(D20-Pad2)*%
X55605500Y-52862500D03*
%TO.P,D20,1*%
%TO.N,ROW1*%
X55605500Y-58262500D03*
D16*
%TO.P,D20,2*%
%TO.N,Net-(D20-Pad2)*%
X55605500Y-51662500D03*
D17*
%TO.P,D20,1*%
%TO.N,ROW1*%
X55605500Y-59462500D03*
D18*
X55605500Y-57137500D03*
%TO.P,D20,2*%
%TO.N,Net-(D20-Pad2)*%
X55605500Y-53987500D03*
%TD*%
D15*
%TO.P,D19,2*%
%TO.N,Net-(D19-Pad2)*%
X74649500Y-52862500D03*
%TO.P,D19,1*%
%TO.N,ROW1*%
X74649500Y-58262500D03*
D16*
%TO.P,D19,2*%
%TO.N,Net-(D19-Pad2)*%
X74649500Y-51662500D03*
D17*
%TO.P,D19,1*%
%TO.N,ROW1*%
X74649500Y-59462500D03*
D18*
X74649500Y-57137500D03*
%TO.P,D19,2*%
%TO.N,Net-(D19-Pad2)*%
X74649500Y-53987500D03*
%TD*%
D15*
%TO.P,D18,2*%
%TO.N,Net-(D18-Pad2)*%
X93693500Y-52862500D03*
%TO.P,D18,1*%
%TO.N,ROW1*%
X93693500Y-58262500D03*
D16*
%TO.P,D18,2*%
%TO.N,Net-(D18-Pad2)*%
X93693500Y-51662500D03*
D17*
%TO.P,D18,1*%
%TO.N,ROW1*%
X93693500Y-59462500D03*
D18*
X93693500Y-57137500D03*
%TO.P,D18,2*%
%TO.N,Net-(D18-Pad2)*%
X93693500Y-53987500D03*
%TD*%
D15*
%TO.P,D17,2*%
%TO.N,Net-(D17-Pad2)*%
X112737500Y-52862500D03*
%TO.P,D17,1*%
%TO.N,ROW1*%
X112737500Y-58262500D03*
D16*
%TO.P,D17,2*%
%TO.N,Net-(D17-Pad2)*%
X112737500Y-51662500D03*
D17*
%TO.P,D17,1*%
%TO.N,ROW1*%
X112737500Y-59462500D03*
D18*
X112737500Y-57137500D03*
%TO.P,D17,2*%
%TO.N,Net-(D17-Pad2)*%
X112737500Y-53987500D03*
%TD*%
D15*
%TO.P,D16,2*%
%TO.N,Net-(D16-Pad2)*%
X134162000Y-52862500D03*
%TO.P,D16,1*%
%TO.N,ROW1*%
X134162000Y-58262500D03*
D16*
%TO.P,D16,2*%
%TO.N,Net-(D16-Pad2)*%
X134162000Y-51662500D03*
D17*
%TO.P,D16,1*%
%TO.N,ROW1*%
X134162000Y-59462500D03*
D18*
X134162000Y-57137500D03*
%TO.P,D16,2*%
%TO.N,Net-(D16-Pad2)*%
X134162000Y-53987500D03*
%TD*%
D15*
%TO.P,D15,2*%
%TO.N,Net-(D15-Pad2)*%
X153206000Y-52862500D03*
%TO.P,D15,1*%
%TO.N,ROW1*%
X153206000Y-58262500D03*
D16*
%TO.P,D15,2*%
%TO.N,Net-(D15-Pad2)*%
X153206000Y-51662500D03*
D17*
%TO.P,D15,1*%
%TO.N,ROW1*%
X153206000Y-59462500D03*
D18*
X153206000Y-57137500D03*
%TO.P,D15,2*%
%TO.N,Net-(D15-Pad2)*%
X153206000Y-53987500D03*
%TD*%
D15*
%TO.P,D14,2*%
%TO.N,Net-(D14-Pad2)*%
X172250000Y-49687500D03*
%TO.P,D14,1*%
%TO.N,ROW1*%
X172250000Y-55087500D03*
D16*
%TO.P,D14,2*%
%TO.N,Net-(D14-Pad2)*%
X172250000Y-48487500D03*
D17*
%TO.P,D14,1*%
%TO.N,ROW1*%
X172250000Y-56287500D03*
D18*
X172250000Y-53962500D03*
%TO.P,D14,2*%
%TO.N,Net-(D14-Pad2)*%
X172250000Y-50812500D03*
%TD*%
D15*
%TO.P,D13,2*%
%TO.N,Net-(D13-Pad2)*%
X191294000Y-47306250D03*
%TO.P,D13,1*%
%TO.N,ROW1*%
X191294000Y-52706250D03*
D16*
%TO.P,D13,2*%
%TO.N,Net-(D13-Pad2)*%
X191294000Y-46106250D03*
D17*
%TO.P,D13,1*%
%TO.N,ROW1*%
X191294000Y-53906250D03*
D18*
X191294000Y-51581250D03*
%TO.P,D13,2*%
%TO.N,Net-(D13-Pad2)*%
X191294000Y-48431250D03*
%TD*%
D15*
%TO.P,D12,2*%
%TO.N,Net-(D12-Pad2)*%
X210338000Y-50481250D03*
%TO.P,D12,1*%
%TO.N,ROW1*%
X210338000Y-55881250D03*
D16*
%TO.P,D12,2*%
%TO.N,Net-(D12-Pad2)*%
X210338000Y-49281250D03*
D17*
%TO.P,D12,1*%
%TO.N,ROW1*%
X210338000Y-57081250D03*
D18*
X210338000Y-54756250D03*
%TO.P,D12,2*%
%TO.N,Net-(D12-Pad2)*%
X210338000Y-51606250D03*
%TD*%
D15*
%TO.P,D11,2*%
%TO.N,Net-(D11-Pad2)*%
X229382000Y-52068750D03*
%TO.P,D11,1*%
%TO.N,ROW1*%
X229382000Y-57468750D03*
D16*
%TO.P,D11,2*%
%TO.N,Net-(D11-Pad2)*%
X229382000Y-50868750D03*
D17*
%TO.P,D11,1*%
%TO.N,ROW1*%
X229382000Y-58668750D03*
D18*
X229382000Y-56343750D03*
%TO.P,D11,2*%
%TO.N,Net-(D11-Pad2)*%
X229382000Y-53193750D03*
%TD*%
D15*
%TO.P,D10,2*%
%TO.N,Net-(D10-Pad2)*%
X55605500Y-33812500D03*
%TO.P,D10,1*%
%TO.N,ROW0*%
X55605500Y-39212500D03*
D16*
%TO.P,D10,2*%
%TO.N,Net-(D10-Pad2)*%
X55605500Y-32612500D03*
D17*
%TO.P,D10,1*%
%TO.N,ROW0*%
X55605500Y-40412500D03*
D18*
X55605500Y-38087500D03*
%TO.P,D10,2*%
%TO.N,Net-(D10-Pad2)*%
X55605500Y-34937500D03*
%TD*%
D15*
%TO.P,D9,2*%
%TO.N,Net-(D9-Pad2)*%
X74649500Y-33812500D03*
%TO.P,D9,1*%
%TO.N,ROW0*%
X74649500Y-39212500D03*
D16*
%TO.P,D9,2*%
%TO.N,Net-(D9-Pad2)*%
X74649500Y-32612500D03*
D17*
%TO.P,D9,1*%
%TO.N,ROW0*%
X74649500Y-40412500D03*
D18*
X74649500Y-38087500D03*
%TO.P,D9,2*%
%TO.N,Net-(D9-Pad2)*%
X74649500Y-34937500D03*
%TD*%
D15*
%TO.P,D8,2*%
%TO.N,Net-(D8-Pad2)*%
X93693500Y-33812500D03*
%TO.P,D8,1*%
%TO.N,ROW0*%
X93693500Y-39212500D03*
D16*
%TO.P,D8,2*%
%TO.N,Net-(D8-Pad2)*%
X93693500Y-32612500D03*
D17*
%TO.P,D8,1*%
%TO.N,ROW0*%
X93693500Y-40412500D03*
D18*
X93693500Y-38087500D03*
%TO.P,D8,2*%
%TO.N,Net-(D8-Pad2)*%
X93693500Y-34937500D03*
%TD*%
D15*
%TO.P,D7,2*%
%TO.N,Net-(D7-Pad2)*%
X112737500Y-33812500D03*
%TO.P,D7,1*%
%TO.N,ROW0*%
X112737500Y-39212500D03*
D16*
%TO.P,D7,2*%
%TO.N,Net-(D7-Pad2)*%
X112737500Y-32612500D03*
D17*
%TO.P,D7,1*%
%TO.N,ROW0*%
X112737500Y-40412500D03*
D18*
X112737500Y-38087500D03*
%TO.P,D7,2*%
%TO.N,Net-(D7-Pad2)*%
X112737500Y-34937500D03*
%TD*%
D15*
%TO.P,D6,2*%
%TO.N,Net-(D6-Pad2)*%
X134162000Y-33812500D03*
%TO.P,D6,1*%
%TO.N,ROW0*%
X134162000Y-39212500D03*
D16*
%TO.P,D6,2*%
%TO.N,Net-(D6-Pad2)*%
X134162000Y-32612500D03*
D17*
%TO.P,D6,1*%
%TO.N,ROW0*%
X134162000Y-40412500D03*
D18*
X134162000Y-38087500D03*
%TO.P,D6,2*%
%TO.N,Net-(D6-Pad2)*%
X134162000Y-34937500D03*
%TD*%
D15*
%TO.P,D5,2*%
%TO.N,Net-(D5-Pad2)*%
X153206000Y-33812500D03*
%TO.P,D5,1*%
%TO.N,ROW0*%
X153206000Y-39212500D03*
D16*
%TO.P,D5,2*%
%TO.N,Net-(D5-Pad2)*%
X153206000Y-32612500D03*
D17*
%TO.P,D5,1*%
%TO.N,ROW0*%
X153206000Y-40412500D03*
D18*
X153206000Y-38087500D03*
%TO.P,D5,2*%
%TO.N,Net-(D5-Pad2)*%
X153206000Y-34937500D03*
%TD*%
D15*
%TO.P,D4,2*%
%TO.N,Net-(D4-Pad2)*%
X172250000Y-30637500D03*
%TO.P,D4,1*%
%TO.N,ROW0*%
X172250000Y-36037500D03*
D16*
%TO.P,D4,2*%
%TO.N,Net-(D4-Pad2)*%
X172250000Y-29437500D03*
D17*
%TO.P,D4,1*%
%TO.N,ROW0*%
X172250000Y-37237500D03*
D18*
X172250000Y-34912500D03*
%TO.P,D4,2*%
%TO.N,Net-(D4-Pad2)*%
X172250000Y-31762500D03*
%TD*%
D15*
%TO.P,D3,2*%
%TO.N,Net-(D3-Pad2)*%
X191294000Y-28256250D03*
%TO.P,D3,1*%
%TO.N,ROW0*%
X191294000Y-33656250D03*
D16*
%TO.P,D3,2*%
%TO.N,Net-(D3-Pad2)*%
X191294000Y-27056250D03*
D17*
%TO.P,D3,1*%
%TO.N,ROW0*%
X191294000Y-34856250D03*
D18*
X191294000Y-32531250D03*
%TO.P,D3,2*%
%TO.N,Net-(D3-Pad2)*%
X191294000Y-29381250D03*
%TD*%
D15*
%TO.P,D2,2*%
%TO.N,Net-(D2-Pad2)*%
X210338000Y-30637500D03*
%TO.P,D2,1*%
%TO.N,ROW0*%
X210338000Y-36037500D03*
D16*
%TO.P,D2,2*%
%TO.N,Net-(D2-Pad2)*%
X210338000Y-29437500D03*
D17*
%TO.P,D2,1*%
%TO.N,ROW0*%
X210338000Y-37237500D03*
D18*
X210338000Y-34912500D03*
%TO.P,D2,2*%
%TO.N,Net-(D2-Pad2)*%
X210338000Y-31762500D03*
%TD*%
D15*
%TO.P,D1,2*%
%TO.N,Net-(D1-Pad2)*%
X229382000Y-32956250D03*
%TO.P,D1,1*%
%TO.N,ROW0*%
X229382000Y-38356250D03*
D16*
%TO.P,D1,2*%
%TO.N,Net-(D1-Pad2)*%
X229382000Y-31756250D03*
D17*
%TO.P,D1,1*%
%TO.N,ROW0*%
X229382000Y-39556250D03*
D18*
X229382000Y-37231250D03*
%TO.P,D1,2*%
%TO.N,Net-(D1-Pad2)*%
X229382000Y-34081250D03*
%TD*%
D20*
%TO.P,ENC1,A*%
%TO.N,LEFT*%
X152336500Y-120237250D03*
D21*
%TO.P,ENC1,C*%
%TO.N,GND*%
X154836500Y-120237250D03*
%TO.P,ENC1,B*%
%TO.N,RIGHT*%
X157336500Y-120237250D03*
D22*
%TO.P,ENC1,MP*%
%TO.N,N/C*%
X149236500Y-112737250D03*
X160436500Y-112737250D03*
D21*
%TO.P,ENC1,S2*%
%TO.N,COL4*%
X152336500Y-105737250D03*
%TO.P,ENC1,S1*%
%TO.N,ENC1-IN*%
X157336500Y-105737250D03*
%TD*%
D23*
%TO.P,U1,25*%
%TO.N,N/C*%
X246380000Y-58420000D03*
%TO.P,U1,26*%
X243840000Y-58420000D03*
%TO.P,U1,27*%
X241300000Y-58420000D03*
%TO.P,U1,28*%
%TO.N,RIGHT*%
X238760000Y-58420000D03*
%TO.P,U1,29*%
%TO.N,LEFT*%
X236220000Y-58420000D03*
%TO.P,U1,24*%
%TO.N,N/C*%
X233680000Y-30480000D03*
%TO.P,U1,12*%
%TO.N,ROW4*%
X248691400Y-58420000D03*
%TO.P,U1,23*%
%TO.N,GND*%
X233680000Y-33020000D03*
%TO.P,U1,22*%
%TO.N,Net-(SW0-Pad1)*%
X233680000Y-35560000D03*
%TO.P,U1,21*%
%TO.N,VCC*%
X233680000Y-38100000D03*
%TO.P,U1,20*%
%TO.N,COL7*%
X233680000Y-40640000D03*
%TO.P,U1,19*%
%TO.N,COL6*%
X233680000Y-43180000D03*
%TO.P,U1,18*%
%TO.N,COL5*%
X233680000Y-45720000D03*
%TO.P,U1,17*%
%TO.N,COL4*%
X233680000Y-48260000D03*
%TO.P,U1,16*%
%TO.N,COL3*%
X233680000Y-50800000D03*
%TO.P,U1,15*%
%TO.N,COL2*%
X233680000Y-53340000D03*
%TO.P,U1,14*%
%TO.N,COL1*%
X233680000Y-55880000D03*
%TO.P,U1,13*%
%TO.N,COL0*%
X233680000Y-58420000D03*
%TO.P,U1,11*%
%TO.N,N/C*%
X248920000Y-55880000D03*
%TO.P,U1,10*%
%TO.N,COL9*%
X248920000Y-53340000D03*
%TO.P,U1,9*%
%TO.N,COL8*%
X248920000Y-50800000D03*
%TO.P,U1,8*%
%TO.N,ROW3*%
X248920000Y-48260000D03*
%TO.P,U1,7*%
%TO.N,ROW2*%
X248920000Y-45720000D03*
%TO.P,U1,6*%
%TO.N,SCL*%
X248920000Y-43180000D03*
%TO.P,U1,5*%
%TO.N,SDA*%
X248920000Y-40640000D03*
%TO.P,U1,4*%
%TO.N,N/C*%
X248920000Y-38100000D03*
%TO.P,U1,3*%
X248920000Y-35560000D03*
%TO.P,U1,2*%
%TO.N,ROW1*%
X248920000Y-33020000D03*
D24*
%TO.P,U1,1*%
%TO.N,ROW0*%
X248920000Y-30480000D03*
%TD*%
D21*
%TO.P,SW0,1*%
%TO.N,Net-(SW0-Pad1)*%
X244561500Y-62706250D03*
%TO.P,SW0,2*%
%TO.N,GND*%
X244561500Y-67206250D03*
%TO.P,SW0,1*%
%TO.N,Net-(SW0-Pad1)*%
X238061500Y-62706250D03*
%TO.P,SW0,2*%
%TO.N,GND*%
X238061500Y-67206250D03*
%TD*%
%TO.P,J1,R2*%
%TO.N,SCL*%
%TA.AperFunction,ComponentPad*%
G36*
G01*
X257936500Y-87782046D02*
X257936500Y-87782046D01*
G75*
G02*
X258192718Y-88738264I-350000J-606218D01*
G01*
X257892718Y-89257880D01*
G75*
G02*
X256936500Y-89514098I-606218J350000D01*
G01*
X256936500Y-89514098D01*
G75*
G02*
X256680282Y-88557880I350000J606218D01*
G01*
X256980282Y-88038264D01*
G75*
G02*
X257936500Y-87782046I606218J-350000D01*
G01*
G37*
%TD.AperFunction*%
%TO.P,J1,R1*%
%TO.N,VCC*%
%TA.AperFunction,ComponentPad*%
G36*
G01*
X256436500Y-90380122D02*
X256436500Y-90380122D01*
G75*
G02*
X256692718Y-91336340I-350000J-606218D01*
G01*
X256392718Y-91855956D01*
G75*
G02*
X255436500Y-92112174I-606218J350000D01*
G01*
X255436500Y-92112174D01*
G75*
G02*
X255180282Y-91155956I350000J606218D01*
G01*
X255480282Y-90636340D01*
G75*
G02*
X256436500Y-90380122I606218J-350000D01*
G01*
G37*
%TD.AperFunction*%
%TA.AperFunction,ComponentPad*%
D10*
%TO.P,J1,T*%
%TO.N,GND*%
G36*
X253830282Y-93494225D02*
G01*
X255042718Y-94194225D01*
X254042718Y-95926275D01*
X252830282Y-95226275D01*
X253830282Y-93494225D01*
G37*
%TD.AperFunction*%
%TO.P,J1,S*%
%TO.N,SDA*%
%TA.AperFunction,ComponentPad*%
G36*
G01*
X257583614Y-97393262D02*
X257583614Y-97393262D01*
G75*
G02*
X257839832Y-98349480I-350000J-606218D01*
G01*
X257539832Y-98869096D01*
G75*
G02*
X256583614Y-99125314I-606218J350000D01*
G01*
X256583614Y-99125314D01*
G75*
G02*
X256327396Y-98169096I350000J606218D01*
G01*
X256627396Y-97649480D01*
G75*
G02*
X257583614Y-97393262I606218J-350000D01*
G01*
G37*
%TD.AperFunction*%
%TO.P,J1,*%
%TO.N,*%
%TA.AperFunction,ComponentPad*%
G36*
G01*
X262699640Y-90532046D02*
X262699640Y-90532046D01*
G75*
G02*
X262955858Y-91488264I-350000J-606218D01*
G01*
X262655858Y-92007880D01*
G75*
G02*
X261699640Y-92264098I-606218J350000D01*
G01*
X261699640Y-92264098D01*
G75*
G02*
X261443422Y-91307880I350000J606218D01*
G01*
X261743422Y-90788264D01*
G75*
G02*
X262699640Y-90532046I606218J-350000D01*
G01*
G37*
%TD.AperFunction*%
%TD*%
D25*
%TO.P,MX44,4*%
%TO.N,N/C*%
X175101250Y-117792500D03*
D11*
%TO.P,MX44,3*%
X172561250Y-117792500D03*
D12*
%TO.P,MX44,1*%
%TO.N,COL3*%
X171331250Y-108712500D03*
%TA.AperFunction,ComponentPad*%
G36*
G01*
X169269938Y-111009850D02*
X169269933Y-111009845D01*
G75*
G02*
X169183905Y-109421183I751317J837345D01*
G01*
X170493907Y-107961183D01*
G75*
G02*
X172082569Y-107875155I837345J-751317D01*
G01*
X172082569Y-107875155D01*
G75*
G02*
X172168597Y-109463817I-751317J-837345D01*
G01*
X170858595Y-110923817D01*
G75*
G02*
X169269933Y-111009845I-837345J751317D01*
G01*
G37*
%TD.AperFunction*%
%TO.P,MX44,2*%
%TO.N,Net-(D44-Pad2)*%
X176371250Y-107632500D03*
%TA.AperFunction,ComponentPad*%
G36*
G01*
X176254733Y-109334895D02*
X176253847Y-109334834D01*
G75*
G02*
X175208916Y-108135097I77403J1122334D01*
G01*
X175248916Y-107555097D01*
G75*
G02*
X176448653Y-106510166I1122334J-77403D01*
G01*
X176448653Y-106510166D01*
G75*
G02*
X177493584Y-107709903I-77403J-1122334D01*
G01*
X177453584Y-108289903D01*
G75*
G02*
X176253847Y-109334834I-1122334J77403D01*
G01*
G37*
%TD.AperFunction*%
%TD*%
D25*
%TO.P,MX43,4*%
%TO.N,N/C*%
X194151250Y-117792500D03*
D11*
%TO.P,MX43,3*%
X191611250Y-117792500D03*
D12*
%TO.P,MX43,1*%
%TO.N,COL2*%
X190381250Y-108712500D03*
%TA.AperFunction,ComponentPad*%
G36*
G01*
X188319938Y-111009850D02*
X188319933Y-111009845D01*
G75*
G02*
X188233905Y-109421183I751317J837345D01*
G01*
X189543907Y-107961183D01*
G75*
G02*
X191132569Y-107875155I837345J-751317D01*
G01*
X191132569Y-107875155D01*
G75*
G02*
X191218597Y-109463817I-751317J-837345D01*
G01*
X189908595Y-110923817D01*
G75*
G02*
X188319933Y-111009845I-837345J751317D01*
G01*
G37*
%TD.AperFunction*%
%TO.P,MX43,2*%
%TO.N,Net-(D43-Pad2)*%
X195421250Y-107632500D03*
%TA.AperFunction,ComponentPad*%
G36*
G01*
X195304733Y-109334895D02*
X195303847Y-109334834D01*
G75*
G02*
X194258916Y-108135097I77403J1122334D01*
G01*
X194298916Y-107555097D01*
G75*
G02*
X195498653Y-106510166I1122334J-77403D01*
G01*
X195498653Y-106510166D01*
G75*
G02*
X196543584Y-107709903I-77403J-1122334D01*
G01*
X196503584Y-108289903D01*
G75*
G02*
X195303847Y-109334834I-1122334J77403D01*
G01*
G37*
%TD.AperFunction*%
%TD*%
D25*
%TO.P,MX42,4*%
%TO.N,N/C*%
X213201250Y-120173750D03*
D11*
%TO.P,MX42,3*%
X210661250Y-120173750D03*
D12*
%TO.P,MX42,1*%
%TO.N,COL1*%
X209431250Y-111093750D03*
%TA.AperFunction,ComponentPad*%
G36*
G01*
X207369938Y-113391100D02*
X207369933Y-113391095D01*
G75*
G02*
X207283905Y-111802433I751317J837345D01*
G01*
X208593907Y-110342433D01*
G75*
G02*
X210182569Y-110256405I837345J-751317D01*
G01*
X210182569Y-110256405D01*
G75*
G02*
X210268597Y-111845067I-751317J-837345D01*
G01*
X208958595Y-113305067D01*
G75*
G02*
X207369933Y-113391095I-837345J751317D01*
G01*
G37*
%TD.AperFunction*%
%TO.P,MX42,2*%
%TO.N,Net-(D42-Pad2)*%
X214471250Y-110013750D03*
%TA.AperFunction,ComponentPad*%
G36*
G01*
X214354733Y-111716145D02*
X214353847Y-111716084D01*
G75*
G02*
X213308916Y-110516347I77403J1122334D01*
G01*
X213348916Y-109936347D01*
G75*
G02*
X214548653Y-108891416I1122334J-77403D01*
G01*
X214548653Y-108891416D01*
G75*
G02*
X215593584Y-110091153I-77403J-1122334D01*
G01*
X215553584Y-110671153D01*
G75*
G02*
X214353847Y-111716084I-1122334J77403D01*
G01*
G37*
%TD.AperFunction*%
%TD*%
D25*
%TO.P,MX40,4*%
%TO.N,N/C*%
X48101250Y-98742500D03*
D11*
%TO.P,MX40,3*%
X45561250Y-98742500D03*
D12*
%TO.P,MX40,1*%
%TO.N,COL9*%
X44331250Y-89662500D03*
%TA.AperFunction,ComponentPad*%
G36*
G01*
X42269938Y-91959850D02*
X42269933Y-91959845D01*
G75*
G02*
X42183905Y-90371183I751317J837345D01*
G01*
X43493907Y-88911183D01*
G75*
G02*
X45082569Y-88825155I837345J-751317D01*
G01*
X45082569Y-88825155D01*
G75*
G02*
X45168597Y-90413817I-751317J-837345D01*
G01*
X43858595Y-91873817D01*
G75*
G02*
X42269933Y-91959845I-837345J751317D01*
G01*
G37*
%TD.AperFunction*%
%TO.P,MX40,2*%
%TO.N,Net-(D40-Pad2)*%
X49371250Y-88582500D03*
%TA.AperFunction,ComponentPad*%
G36*
G01*
X49254733Y-90284895D02*
X49253847Y-90284834D01*
G75*
G02*
X48208916Y-89085097I77403J1122334D01*
G01*
X48248916Y-88505097D01*
G75*
G02*
X49448653Y-87460166I1122334J-77403D01*
G01*
X49448653Y-87460166D01*
G75*
G02*
X50493584Y-88659903I-77403J-1122334D01*
G01*
X50453584Y-89239903D01*
G75*
G02*
X49253847Y-90284834I-1122334J77403D01*
G01*
G37*
%TD.AperFunction*%
%TD*%
D25*
%TO.P,MX39,4*%
%TO.N,N/C*%
X67151250Y-98742500D03*
D11*
%TO.P,MX39,3*%
X64611250Y-98742500D03*
D12*
%TO.P,MX39,1*%
%TO.N,COL8*%
X63381250Y-89662500D03*
%TA.AperFunction,ComponentPad*%
G36*
G01*
X61319938Y-91959850D02*
X61319933Y-91959845D01*
G75*
G02*
X61233905Y-90371183I751317J837345D01*
G01*
X62543907Y-88911183D01*
G75*
G02*
X64132569Y-88825155I837345J-751317D01*
G01*
X64132569Y-88825155D01*
G75*
G02*
X64218597Y-90413817I-751317J-837345D01*
G01*
X62908595Y-91873817D01*
G75*
G02*
X61319933Y-91959845I-837345J751317D01*
G01*
G37*
%TD.AperFunction*%
%TO.P,MX39,2*%
%TO.N,Net-(D39-Pad2)*%
X68421250Y-88582500D03*
%TA.AperFunction,ComponentPad*%
G36*
G01*
X68304733Y-90284895D02*
X68303847Y-90284834D01*
G75*
G02*
X67258916Y-89085097I77403J1122334D01*
G01*
X67298916Y-88505097D01*
G75*
G02*
X68498653Y-87460166I1122334J-77403D01*
G01*
X68498653Y-87460166D01*
G75*
G02*
X69543584Y-88659903I-77403J-1122334D01*
G01*
X69503584Y-89239903D01*
G75*
G02*
X68303847Y-90284834I-1122334J77403D01*
G01*
G37*
%TD.AperFunction*%
%TD*%
D25*
%TO.P,MX38,4*%
%TO.N,N/C*%
X86201250Y-98742500D03*
D11*
%TO.P,MX38,3*%
X83661250Y-98742500D03*
D12*
%TO.P,MX38,1*%
%TO.N,COL7*%
X82431250Y-89662500D03*
%TA.AperFunction,ComponentPad*%
G36*
G01*
X80369938Y-91959850D02*
X80369933Y-91959845D01*
G75*
G02*
X80283905Y-90371183I751317J837345D01*
G01*
X81593907Y-88911183D01*
G75*
G02*
X83182569Y-88825155I837345J-751317D01*
G01*
X83182569Y-88825155D01*
G75*
G02*
X83268597Y-90413817I-751317J-837345D01*
G01*
X81958595Y-91873817D01*
G75*
G02*
X80369933Y-91959845I-837345J751317D01*
G01*
G37*
%TD.AperFunction*%
%TO.P,MX38,2*%
%TO.N,Net-(D38-Pad2)*%
X87471250Y-88582500D03*
%TA.AperFunction,ComponentPad*%
G36*
G01*
X87354733Y-90284895D02*
X87353847Y-90284834D01*
G75*
G02*
X86308916Y-89085097I77403J1122334D01*
G01*
X86348916Y-88505097D01*
G75*
G02*
X87548653Y-87460166I1122334J-77403D01*
G01*
X87548653Y-87460166D01*
G75*
G02*
X88593584Y-88659903I-77403J-1122334D01*
G01*
X88553584Y-89239903D01*
G75*
G02*
X87353847Y-90284834I-1122334J77403D01*
G01*
G37*
%TD.AperFunction*%
%TD*%
D25*
%TO.P,MX37,4*%
%TO.N,N/C*%
X105251250Y-98742500D03*
D11*
%TO.P,MX37,3*%
X102711250Y-98742500D03*
D12*
%TO.P,MX37,1*%
%TO.N,COL6*%
X101481250Y-89662500D03*
%TA.AperFunction,ComponentPad*%
G36*
G01*
X99419938Y-91959850D02*
X99419933Y-91959845D01*
G75*
G02*
X99333905Y-90371183I751317J837345D01*
G01*
X100643907Y-88911183D01*
G75*
G02*
X102232569Y-88825155I837345J-751317D01*
G01*
X102232569Y-88825155D01*
G75*
G02*
X102318597Y-90413817I-751317J-837345D01*
G01*
X101008595Y-91873817D01*
G75*
G02*
X99419933Y-91959845I-837345J751317D01*
G01*
G37*
%TD.AperFunction*%
%TO.P,MX37,2*%
%TO.N,Net-(D37-Pad2)*%
X106521250Y-88582500D03*
%TA.AperFunction,ComponentPad*%
G36*
G01*
X106404733Y-90284895D02*
X106403847Y-90284834D01*
G75*
G02*
X105358916Y-89085097I77403J1122334D01*
G01*
X105398916Y-88505097D01*
G75*
G02*
X106598653Y-87460166I1122334J-77403D01*
G01*
X106598653Y-87460166D01*
G75*
G02*
X107643584Y-88659903I-77403J-1122334D01*
G01*
X107603584Y-89239903D01*
G75*
G02*
X106403847Y-90284834I-1122334J77403D01*
G01*
G37*
%TD.AperFunction*%
%TD*%
D25*
%TO.P,MX36,4*%
%TO.N,N/C*%
X126682500Y-98742500D03*
D11*
%TO.P,MX36,3*%
X124142500Y-98742500D03*
D12*
%TO.P,MX36,1*%
%TO.N,COL5*%
X122912500Y-89662500D03*
%TA.AperFunction,ComponentPad*%
G36*
G01*
X120851188Y-91959850D02*
X120851183Y-91959845D01*
G75*
G02*
X120765155Y-90371183I751317J837345D01*
G01*
X122075157Y-88911183D01*
G75*
G02*
X123663819Y-88825155I837345J-751317D01*
G01*
X123663819Y-88825155D01*
G75*
G02*
X123749847Y-90413817I-751317J-837345D01*
G01*
X122439845Y-91873817D01*
G75*
G02*
X120851183Y-91959845I-837345J751317D01*
G01*
G37*
%TD.AperFunction*%
%TO.P,MX36,2*%
%TO.N,Net-(D36-Pad2)*%
X127952500Y-88582500D03*
%TA.AperFunction,ComponentPad*%
G36*
G01*
X127835983Y-90284895D02*
X127835097Y-90284834D01*
G75*
G02*
X126790166Y-89085097I77403J1122334D01*
G01*
X126830166Y-88505097D01*
G75*
G02*
X128029903Y-87460166I1122334J-77403D01*
G01*
X128029903Y-87460166D01*
G75*
G02*
X129074834Y-88659903I-77403J-1122334D01*
G01*
X129034834Y-89239903D01*
G75*
G02*
X127835097Y-90284834I-1122334J77403D01*
G01*
G37*
%TD.AperFunction*%
%TD*%
D25*
%TO.P,MX35,4*%
%TO.N,N/C*%
X145732500Y-98742500D03*
D11*
%TO.P,MX35,3*%
X143192500Y-98742500D03*
D12*
%TO.P,MX35,1*%
%TO.N,COL4*%
X141962500Y-89662500D03*
%TA.AperFunction,ComponentPad*%
G36*
G01*
X139901188Y-91959850D02*
X139901183Y-91959845D01*
G75*
G02*
X139815155Y-90371183I751317J837345D01*
G01*
X141125157Y-88911183D01*
G75*
G02*
X142713819Y-88825155I837345J-751317D01*
G01*
X142713819Y-88825155D01*
G75*
G02*
X142799847Y-90413817I-751317J-837345D01*
G01*
X141489845Y-91873817D01*
G75*
G02*
X139901183Y-91959845I-837345J751317D01*
G01*
G37*
%TD.AperFunction*%
%TO.P,MX35,2*%
%TO.N,Net-(D35-Pad2)*%
X147002500Y-88582500D03*
%TA.AperFunction,ComponentPad*%
G36*
G01*
X146885983Y-90284895D02*
X146885097Y-90284834D01*
G75*
G02*
X145840166Y-89085097I77403J1122334D01*
G01*
X145880166Y-88505097D01*
G75*
G02*
X147079903Y-87460166I1122334J-77403D01*
G01*
X147079903Y-87460166D01*
G75*
G02*
X148124834Y-88659903I-77403J-1122334D01*
G01*
X148084834Y-89239903D01*
G75*
G02*
X146885097Y-90284834I-1122334J77403D01*
G01*
G37*
%TD.AperFunction*%
%TD*%
D25*
%TO.P,MX34,4*%
%TO.N,N/C*%
X164782500Y-95567500D03*
D11*
%TO.P,MX34,3*%
X162242500Y-95567500D03*
D12*
%TO.P,MX34,1*%
%TO.N,COL3*%
X161012500Y-86487500D03*
%TA.AperFunction,ComponentPad*%
G36*
G01*
X158951188Y-88784850D02*
X158951183Y-88784845D01*
G75*
G02*
X158865155Y-87196183I751317J837345D01*
G01*
X160175157Y-85736183D01*
G75*
G02*
X161763819Y-85650155I837345J-751317D01*
G01*
X161763819Y-85650155D01*
G75*
G02*
X161849847Y-87238817I-751317J-837345D01*
G01*
X160539845Y-88698817D01*
G75*
G02*
X158951183Y-88784845I-837345J751317D01*
G01*
G37*
%TD.AperFunction*%
%TO.P,MX34,2*%
%TO.N,Net-(D34-Pad2)*%
X166052500Y-85407500D03*
%TA.AperFunction,ComponentPad*%
G36*
G01*
X165935983Y-87109895D02*
X165935097Y-87109834D01*
G75*
G02*
X164890166Y-85910097I77403J1122334D01*
G01*
X164930166Y-85330097D01*
G75*
G02*
X166129903Y-84285166I1122334J-77403D01*
G01*
X166129903Y-84285166D01*
G75*
G02*
X167174834Y-85484903I-77403J-1122334D01*
G01*
X167134834Y-86064903D01*
G75*
G02*
X165935097Y-87109834I-1122334J77403D01*
G01*
G37*
%TD.AperFunction*%
%TD*%
D25*
%TO.P,MX33,4*%
%TO.N,N/C*%
X183832500Y-93186250D03*
D11*
%TO.P,MX33,3*%
X181292500Y-93186250D03*
D12*
%TO.P,MX33,1*%
%TO.N,COL2*%
X180062500Y-84106250D03*
%TA.AperFunction,ComponentPad*%
G36*
G01*
X178001188Y-86403600D02*
X178001183Y-86403595D01*
G75*
G02*
X177915155Y-84814933I751317J837345D01*
G01*
X179225157Y-83354933D01*
G75*
G02*
X180813819Y-83268905I837345J-751317D01*
G01*
X180813819Y-83268905D01*
G75*
G02*
X180899847Y-84857567I-751317J-837345D01*
G01*
X179589845Y-86317567D01*
G75*
G02*
X178001183Y-86403595I-837345J751317D01*
G01*
G37*
%TD.AperFunction*%
%TO.P,MX33,2*%
%TO.N,Net-(D33-Pad2)*%
X185102500Y-83026250D03*
%TA.AperFunction,ComponentPad*%
G36*
G01*
X184985983Y-84728645D02*
X184985097Y-84728584D01*
G75*
G02*
X183940166Y-83528847I77403J1122334D01*
G01*
X183980166Y-82948847D01*
G75*
G02*
X185179903Y-81903916I1122334J-77403D01*
G01*
X185179903Y-81903916D01*
G75*
G02*
X186224834Y-83103653I-77403J-1122334D01*
G01*
X186184834Y-83683653D01*
G75*
G02*
X184985097Y-84728584I-1122334J77403D01*
G01*
G37*
%TD.AperFunction*%
%TD*%
D25*
%TO.P,MX32,4*%
%TO.N,N/C*%
X202882500Y-95567500D03*
D11*
%TO.P,MX32,3*%
X200342500Y-95567500D03*
D12*
%TO.P,MX32,1*%
%TO.N,COL1*%
X199112500Y-86487500D03*
%TA.AperFunction,ComponentPad*%
G36*
G01*
X197051188Y-88784850D02*
X197051183Y-88784845D01*
G75*
G02*
X196965155Y-87196183I751317J837345D01*
G01*
X198275157Y-85736183D01*
G75*
G02*
X199863819Y-85650155I837345J-751317D01*
G01*
X199863819Y-85650155D01*
G75*
G02*
X199949847Y-87238817I-751317J-837345D01*
G01*
X198639845Y-88698817D01*
G75*
G02*
X197051183Y-88784845I-837345J751317D01*
G01*
G37*
%TD.AperFunction*%
%TO.P,MX32,2*%
%TO.N,Net-(D32-Pad2)*%
X204152500Y-85407500D03*
%TA.AperFunction,ComponentPad*%
G36*
G01*
X204035983Y-87109895D02*
X204035097Y-87109834D01*
G75*
G02*
X202990166Y-85910097I77403J1122334D01*
G01*
X203030166Y-85330097D01*
G75*
G02*
X204229903Y-84285166I1122334J-77403D01*
G01*
X204229903Y-84285166D01*
G75*
G02*
X205274834Y-85484903I-77403J-1122334D01*
G01*
X205234834Y-86064903D01*
G75*
G02*
X204035097Y-87109834I-1122334J77403D01*
G01*
G37*
%TD.AperFunction*%
%TD*%
D25*
%TO.P,MX31,4*%
%TO.N,N/C*%
X221932500Y-97948750D03*
D11*
%TO.P,MX31,3*%
X219392500Y-97948750D03*
D12*
%TO.P,MX31,1*%
%TO.N,COL0*%
X218162500Y-88868750D03*
%TA.AperFunction,ComponentPad*%
G36*
G01*
X216101188Y-91166100D02*
X216101183Y-91166095D01*
G75*
G02*
X216015155Y-89577433I751317J837345D01*
G01*
X217325157Y-88117433D01*
G75*
G02*
X218913819Y-88031405I837345J-751317D01*
G01*
X218913819Y-88031405D01*
G75*
G02*
X218999847Y-89620067I-751317J-837345D01*
G01*
X217689845Y-91080067D01*
G75*
G02*
X216101183Y-91166095I-837345J751317D01*
G01*
G37*
%TD.AperFunction*%
%TO.P,MX31,2*%
%TO.N,Net-(D31-Pad2)*%
X223202500Y-87788750D03*
%TA.AperFunction,ComponentPad*%
G36*
G01*
X223085983Y-89491145D02*
X223085097Y-89491084D01*
G75*
G02*
X222040166Y-88291347I77403J1122334D01*
G01*
X222080166Y-87711347D01*
G75*
G02*
X223279903Y-86666416I1122334J-77403D01*
G01*
X223279903Y-86666416D01*
G75*
G02*
X224324834Y-87866153I-77403J-1122334D01*
G01*
X224284834Y-88446153D01*
G75*
G02*
X223085097Y-89491084I-1122334J77403D01*
G01*
G37*
%TD.AperFunction*%
%TD*%
D25*
%TO.P,MX30,4*%
%TO.N,N/C*%
X48101250Y-79692500D03*
D11*
%TO.P,MX30,3*%
X45561250Y-79692500D03*
D12*
%TO.P,MX30,1*%
%TO.N,COL9*%
X44331250Y-70612500D03*
%TA.AperFunction,ComponentPad*%
G36*
G01*
X42269938Y-72909850D02*
X42269933Y-72909845D01*
G75*
G02*
X42183905Y-71321183I751317J837345D01*
G01*
X43493907Y-69861183D01*
G75*
G02*
X45082569Y-69775155I837345J-751317D01*
G01*
X45082569Y-69775155D01*
G75*
G02*
X45168597Y-71363817I-751317J-837345D01*
G01*
X43858595Y-72823817D01*
G75*
G02*
X42269933Y-72909845I-837345J751317D01*
G01*
G37*
%TD.AperFunction*%
%TO.P,MX30,2*%
%TO.N,Net-(D30-Pad2)*%
X49371250Y-69532500D03*
%TA.AperFunction,ComponentPad*%
G36*
G01*
X49254733Y-71234895D02*
X49253847Y-71234834D01*
G75*
G02*
X48208916Y-70035097I77403J1122334D01*
G01*
X48248916Y-69455097D01*
G75*
G02*
X49448653Y-68410166I1122334J-77403D01*
G01*
X49448653Y-68410166D01*
G75*
G02*
X50493584Y-69609903I-77403J-1122334D01*
G01*
X50453584Y-70189903D01*
G75*
G02*
X49253847Y-71234834I-1122334J77403D01*
G01*
G37*
%TD.AperFunction*%
%TD*%
D25*
%TO.P,MX29,4*%
%TO.N,N/C*%
X67151250Y-79692500D03*
D11*
%TO.P,MX29,3*%
X64611250Y-79692500D03*
D12*
%TO.P,MX29,1*%
%TO.N,COL8*%
X63381250Y-70612500D03*
%TA.AperFunction,ComponentPad*%
G36*
G01*
X61319938Y-72909850D02*
X61319933Y-72909845D01*
G75*
G02*
X61233905Y-71321183I751317J837345D01*
G01*
X62543907Y-69861183D01*
G75*
G02*
X64132569Y-69775155I837345J-751317D01*
G01*
X64132569Y-69775155D01*
G75*
G02*
X64218597Y-71363817I-751317J-837345D01*
G01*
X62908595Y-72823817D01*
G75*
G02*
X61319933Y-72909845I-837345J751317D01*
G01*
G37*
%TD.AperFunction*%
%TO.P,MX29,2*%
%TO.N,Net-(D29-Pad2)*%
X68421250Y-69532500D03*
%TA.AperFunction,ComponentPad*%
G36*
G01*
X68304733Y-71234895D02*
X68303847Y-71234834D01*
G75*
G02*
X67258916Y-70035097I77403J1122334D01*
G01*
X67298916Y-69455097D01*
G75*
G02*
X68498653Y-68410166I1122334J-77403D01*
G01*
X68498653Y-68410166D01*
G75*
G02*
X69543584Y-69609903I-77403J-1122334D01*
G01*
X69503584Y-70189903D01*
G75*
G02*
X68303847Y-71234834I-1122334J77403D01*
G01*
G37*
%TD.AperFunction*%
%TD*%
D25*
%TO.P,MX28,4*%
%TO.N,N/C*%
X86201250Y-79692500D03*
D11*
%TO.P,MX28,3*%
X83661250Y-79692500D03*
D12*
%TO.P,MX28,1*%
%TO.N,COL7*%
X82431250Y-70612500D03*
%TA.AperFunction,ComponentPad*%
G36*
G01*
X80369938Y-72909850D02*
X80369933Y-72909845D01*
G75*
G02*
X80283905Y-71321183I751317J837345D01*
G01*
X81593907Y-69861183D01*
G75*
G02*
X83182569Y-69775155I837345J-751317D01*
G01*
X83182569Y-69775155D01*
G75*
G02*
X83268597Y-71363817I-751317J-837345D01*
G01*
X81958595Y-72823817D01*
G75*
G02*
X80369933Y-72909845I-837345J751317D01*
G01*
G37*
%TD.AperFunction*%
%TO.P,MX28,2*%
%TO.N,Net-(D28-Pad2)*%
X87471250Y-69532500D03*
%TA.AperFunction,ComponentPad*%
G36*
G01*
X87354733Y-71234895D02*
X87353847Y-71234834D01*
G75*
G02*
X86308916Y-70035097I77403J1122334D01*
G01*
X86348916Y-69455097D01*
G75*
G02*
X87548653Y-68410166I1122334J-77403D01*
G01*
X87548653Y-68410166D01*
G75*
G02*
X88593584Y-69609903I-77403J-1122334D01*
G01*
X88553584Y-70189903D01*
G75*
G02*
X87353847Y-71234834I-1122334J77403D01*
G01*
G37*
%TD.AperFunction*%
%TD*%
D25*
%TO.P,MX27,4*%
%TO.N,N/C*%
X105251250Y-79692500D03*
D11*
%TO.P,MX27,3*%
X102711250Y-79692500D03*
D12*
%TO.P,MX27,1*%
%TO.N,COL6*%
X101481250Y-70612500D03*
%TA.AperFunction,ComponentPad*%
G36*
G01*
X99419938Y-72909850D02*
X99419933Y-72909845D01*
G75*
G02*
X99333905Y-71321183I751317J837345D01*
G01*
X100643907Y-69861183D01*
G75*
G02*
X102232569Y-69775155I837345J-751317D01*
G01*
X102232569Y-69775155D01*
G75*
G02*
X102318597Y-71363817I-751317J-837345D01*
G01*
X101008595Y-72823817D01*
G75*
G02*
X99419933Y-72909845I-837345J751317D01*
G01*
G37*
%TD.AperFunction*%
%TO.P,MX27,2*%
%TO.N,Net-(D27-Pad2)*%
X106521250Y-69532500D03*
%TA.AperFunction,ComponentPad*%
G36*
G01*
X106404733Y-71234895D02*
X106403847Y-71234834D01*
G75*
G02*
X105358916Y-70035097I77403J1122334D01*
G01*
X105398916Y-69455097D01*
G75*
G02*
X106598653Y-68410166I1122334J-77403D01*
G01*
X106598653Y-68410166D01*
G75*
G02*
X107643584Y-69609903I-77403J-1122334D01*
G01*
X107603584Y-70189903D01*
G75*
G02*
X106403847Y-71234834I-1122334J77403D01*
G01*
G37*
%TD.AperFunction*%
%TD*%
D25*
%TO.P,MX26,4*%
%TO.N,N/C*%
X126682500Y-79692500D03*
D11*
%TO.P,MX26,3*%
X124142500Y-79692500D03*
D12*
%TO.P,MX26,1*%
%TO.N,COL5*%
X122912500Y-70612500D03*
%TA.AperFunction,ComponentPad*%
G36*
G01*
X120851188Y-72909850D02*
X120851183Y-72909845D01*
G75*
G02*
X120765155Y-71321183I751317J837345D01*
G01*
X122075157Y-69861183D01*
G75*
G02*
X123663819Y-69775155I837345J-751317D01*
G01*
X123663819Y-69775155D01*
G75*
G02*
X123749847Y-71363817I-751317J-837345D01*
G01*
X122439845Y-72823817D01*
G75*
G02*
X120851183Y-72909845I-837345J751317D01*
G01*
G37*
%TD.AperFunction*%
%TO.P,MX26,2*%
%TO.N,Net-(D26-Pad2)*%
X127952500Y-69532500D03*
%TA.AperFunction,ComponentPad*%
G36*
G01*
X127835983Y-71234895D02*
X127835097Y-71234834D01*
G75*
G02*
X126790166Y-70035097I77403J1122334D01*
G01*
X126830166Y-69455097D01*
G75*
G02*
X128029903Y-68410166I1122334J-77403D01*
G01*
X128029903Y-68410166D01*
G75*
G02*
X129074834Y-69609903I-77403J-1122334D01*
G01*
X129034834Y-70189903D01*
G75*
G02*
X127835097Y-71234834I-1122334J77403D01*
G01*
G37*
%TD.AperFunction*%
%TD*%
D25*
%TO.P,MX25,4*%
%TO.N,N/C*%
X145732500Y-79692500D03*
D11*
%TO.P,MX25,3*%
X143192500Y-79692500D03*
D12*
%TO.P,MX25,1*%
%TO.N,COL4*%
X141962500Y-70612500D03*
%TA.AperFunction,ComponentPad*%
G36*
G01*
X139901188Y-72909850D02*
X139901183Y-72909845D01*
G75*
G02*
X139815155Y-71321183I751317J837345D01*
G01*
X141125157Y-69861183D01*
G75*
G02*
X142713819Y-69775155I837345J-751317D01*
G01*
X142713819Y-69775155D01*
G75*
G02*
X142799847Y-71363817I-751317J-837345D01*
G01*
X141489845Y-72823817D01*
G75*
G02*
X139901183Y-72909845I-837345J751317D01*
G01*
G37*
%TD.AperFunction*%
%TO.P,MX25,2*%
%TO.N,Net-(D25-Pad2)*%
X147002500Y-69532500D03*
%TA.AperFunction,ComponentPad*%
G36*
G01*
X146885983Y-71234895D02*
X146885097Y-71234834D01*
G75*
G02*
X145840166Y-70035097I77403J1122334D01*
G01*
X145880166Y-69455097D01*
G75*
G02*
X147079903Y-68410166I1122334J-77403D01*
G01*
X147079903Y-68410166D01*
G75*
G02*
X148124834Y-69609903I-77403J-1122334D01*
G01*
X148084834Y-70189903D01*
G75*
G02*
X146885097Y-71234834I-1122334J77403D01*
G01*
G37*
%TD.AperFunction*%
%TD*%
D25*
%TO.P,MX24,4*%
%TO.N,N/C*%
X164782500Y-76517500D03*
D11*
%TO.P,MX24,3*%
X162242500Y-76517500D03*
D12*
%TO.P,MX24,1*%
%TO.N,COL3*%
X161012500Y-67437500D03*
%TA.AperFunction,ComponentPad*%
G36*
G01*
X158951188Y-69734850D02*
X158951183Y-69734845D01*
G75*
G02*
X158865155Y-68146183I751317J837345D01*
G01*
X160175157Y-66686183D01*
G75*
G02*
X161763819Y-66600155I837345J-751317D01*
G01*
X161763819Y-66600155D01*
G75*
G02*
X161849847Y-68188817I-751317J-837345D01*
G01*
X160539845Y-69648817D01*
G75*
G02*
X158951183Y-69734845I-837345J751317D01*
G01*
G37*
%TD.AperFunction*%
%TO.P,MX24,2*%
%TO.N,Net-(D24-Pad2)*%
X166052500Y-66357500D03*
%TA.AperFunction,ComponentPad*%
G36*
G01*
X165935983Y-68059895D02*
X165935097Y-68059834D01*
G75*
G02*
X164890166Y-66860097I77403J1122334D01*
G01*
X164930166Y-66280097D01*
G75*
G02*
X166129903Y-65235166I1122334J-77403D01*
G01*
X166129903Y-65235166D01*
G75*
G02*
X167174834Y-66434903I-77403J-1122334D01*
G01*
X167134834Y-67014903D01*
G75*
G02*
X165935097Y-68059834I-1122334J77403D01*
G01*
G37*
%TD.AperFunction*%
%TD*%
D25*
%TO.P,MX23,4*%
%TO.N,N/C*%
X183832500Y-74136250D03*
D11*
%TO.P,MX23,3*%
X181292500Y-74136250D03*
D12*
%TO.P,MX23,1*%
%TO.N,COL2*%
X180062500Y-65056250D03*
%TA.AperFunction,ComponentPad*%
G36*
G01*
X178001188Y-67353600D02*
X178001183Y-67353595D01*
G75*
G02*
X177915155Y-65764933I751317J837345D01*
G01*
X179225157Y-64304933D01*
G75*
G02*
X180813819Y-64218905I837345J-751317D01*
G01*
X180813819Y-64218905D01*
G75*
G02*
X180899847Y-65807567I-751317J-837345D01*
G01*
X179589845Y-67267567D01*
G75*
G02*
X178001183Y-67353595I-837345J751317D01*
G01*
G37*
%TD.AperFunction*%
%TO.P,MX23,2*%
%TO.N,Net-(D23-Pad2)*%
X185102500Y-63976250D03*
%TA.AperFunction,ComponentPad*%
G36*
G01*
X184985983Y-65678645D02*
X184985097Y-65678584D01*
G75*
G02*
X183940166Y-64478847I77403J1122334D01*
G01*
X183980166Y-63898847D01*
G75*
G02*
X185179903Y-62853916I1122334J-77403D01*
G01*
X185179903Y-62853916D01*
G75*
G02*
X186224834Y-64053653I-77403J-1122334D01*
G01*
X186184834Y-64633653D01*
G75*
G02*
X184985097Y-65678584I-1122334J77403D01*
G01*
G37*
%TD.AperFunction*%
%TD*%
D25*
%TO.P,MX22,4*%
%TO.N,N/C*%
X202882500Y-76517500D03*
D11*
%TO.P,MX22,3*%
X200342500Y-76517500D03*
D12*
%TO.P,MX22,1*%
%TO.N,COL1*%
X199112500Y-67437500D03*
%TA.AperFunction,ComponentPad*%
G36*
G01*
X197051188Y-69734850D02*
X197051183Y-69734845D01*
G75*
G02*
X196965155Y-68146183I751317J837345D01*
G01*
X198275157Y-66686183D01*
G75*
G02*
X199863819Y-66600155I837345J-751317D01*
G01*
X199863819Y-66600155D01*
G75*
G02*
X199949847Y-68188817I-751317J-837345D01*
G01*
X198639845Y-69648817D01*
G75*
G02*
X197051183Y-69734845I-837345J751317D01*
G01*
G37*
%TD.AperFunction*%
%TO.P,MX22,2*%
%TO.N,Net-(D22-Pad2)*%
X204152500Y-66357500D03*
%TA.AperFunction,ComponentPad*%
G36*
G01*
X204035983Y-68059895D02*
X204035097Y-68059834D01*
G75*
G02*
X202990166Y-66860097I77403J1122334D01*
G01*
X203030166Y-66280097D01*
G75*
G02*
X204229903Y-65235166I1122334J-77403D01*
G01*
X204229903Y-65235166D01*
G75*
G02*
X205274834Y-66434903I-77403J-1122334D01*
G01*
X205234834Y-67014903D01*
G75*
G02*
X204035097Y-68059834I-1122334J77403D01*
G01*
G37*
%TD.AperFunction*%
%TD*%
D25*
%TO.P,MX21,4*%
%TO.N,N/C*%
X221932500Y-78898750D03*
D11*
%TO.P,MX21,3*%
X219392500Y-78898750D03*
D12*
%TO.P,MX21,1*%
%TO.N,COL0*%
X218162500Y-69818750D03*
%TA.AperFunction,ComponentPad*%
G36*
G01*
X216101188Y-72116100D02*
X216101183Y-72116095D01*
G75*
G02*
X216015155Y-70527433I751317J837345D01*
G01*
X217325157Y-69067433D01*
G75*
G02*
X218913819Y-68981405I837345J-751317D01*
G01*
X218913819Y-68981405D01*
G75*
G02*
X218999847Y-70570067I-751317J-837345D01*
G01*
X217689845Y-72030067D01*
G75*
G02*
X216101183Y-72116095I-837345J751317D01*
G01*
G37*
%TD.AperFunction*%
%TO.P,MX21,2*%
%TO.N,Net-(D21-Pad2)*%
X223202500Y-68738750D03*
%TA.AperFunction,ComponentPad*%
G36*
G01*
X223085983Y-70441145D02*
X223085097Y-70441084D01*
G75*
G02*
X222040166Y-69241347I77403J1122334D01*
G01*
X222080166Y-68661347D01*
G75*
G02*
X223279903Y-67616416I1122334J-77403D01*
G01*
X223279903Y-67616416D01*
G75*
G02*
X224324834Y-68816153I-77403J-1122334D01*
G01*
X224284834Y-69396153D01*
G75*
G02*
X223085097Y-70441084I-1122334J77403D01*
G01*
G37*
%TD.AperFunction*%
%TD*%
D25*
%TO.P,MX20,4*%
%TO.N,N/C*%
X48101250Y-60642500D03*
D11*
%TO.P,MX20,3*%
X45561250Y-60642500D03*
D12*
%TO.P,MX20,1*%
%TO.N,COL9*%
X44331250Y-51562500D03*
%TA.AperFunction,ComponentPad*%
G36*
G01*
X42269938Y-53859850D02*
X42269933Y-53859845D01*
G75*
G02*
X42183905Y-52271183I751317J837345D01*
G01*
X43493907Y-50811183D01*
G75*
G02*
X45082569Y-50725155I837345J-751317D01*
G01*
X45082569Y-50725155D01*
G75*
G02*
X45168597Y-52313817I-751317J-837345D01*
G01*
X43858595Y-53773817D01*
G75*
G02*
X42269933Y-53859845I-837345J751317D01*
G01*
G37*
%TD.AperFunction*%
%TO.P,MX20,2*%
%TO.N,Net-(D20-Pad2)*%
X49371250Y-50482500D03*
%TA.AperFunction,ComponentPad*%
G36*
G01*
X49254733Y-52184895D02*
X49253847Y-52184834D01*
G75*
G02*
X48208916Y-50985097I77403J1122334D01*
G01*
X48248916Y-50405097D01*
G75*
G02*
X49448653Y-49360166I1122334J-77403D01*
G01*
X49448653Y-49360166D01*
G75*
G02*
X50493584Y-50559903I-77403J-1122334D01*
G01*
X50453584Y-51139903D01*
G75*
G02*
X49253847Y-52184834I-1122334J77403D01*
G01*
G37*
%TD.AperFunction*%
%TD*%
D25*
%TO.P,MX19,4*%
%TO.N,N/C*%
X67151250Y-60642500D03*
D11*
%TO.P,MX19,3*%
X64611250Y-60642500D03*
D12*
%TO.P,MX19,1*%
%TO.N,COL8*%
X63381250Y-51562500D03*
%TA.AperFunction,ComponentPad*%
G36*
G01*
X61319938Y-53859850D02*
X61319933Y-53859845D01*
G75*
G02*
X61233905Y-52271183I751317J837345D01*
G01*
X62543907Y-50811183D01*
G75*
G02*
X64132569Y-50725155I837345J-751317D01*
G01*
X64132569Y-50725155D01*
G75*
G02*
X64218597Y-52313817I-751317J-837345D01*
G01*
X62908595Y-53773817D01*
G75*
G02*
X61319933Y-53859845I-837345J751317D01*
G01*
G37*
%TD.AperFunction*%
%TO.P,MX19,2*%
%TO.N,Net-(D19-Pad2)*%
X68421250Y-50482500D03*
%TA.AperFunction,ComponentPad*%
G36*
G01*
X68304733Y-52184895D02*
X68303847Y-52184834D01*
G75*
G02*
X67258916Y-50985097I77403J1122334D01*
G01*
X67298916Y-50405097D01*
G75*
G02*
X68498653Y-49360166I1122334J-77403D01*
G01*
X68498653Y-49360166D01*
G75*
G02*
X69543584Y-50559903I-77403J-1122334D01*
G01*
X69503584Y-51139903D01*
G75*
G02*
X68303847Y-52184834I-1122334J77403D01*
G01*
G37*
%TD.AperFunction*%
%TD*%
D25*
%TO.P,MX18,4*%
%TO.N,N/C*%
X86201250Y-60642500D03*
D11*
%TO.P,MX18,3*%
X83661250Y-60642500D03*
D12*
%TO.P,MX18,1*%
%TO.N,COL7*%
X82431250Y-51562500D03*
%TA.AperFunction,ComponentPad*%
G36*
G01*
X80369938Y-53859850D02*
X80369933Y-53859845D01*
G75*
G02*
X80283905Y-52271183I751317J837345D01*
G01*
X81593907Y-50811183D01*
G75*
G02*
X83182569Y-50725155I837345J-751317D01*
G01*
X83182569Y-50725155D01*
G75*
G02*
X83268597Y-52313817I-751317J-837345D01*
G01*
X81958595Y-53773817D01*
G75*
G02*
X80369933Y-53859845I-837345J751317D01*
G01*
G37*
%TD.AperFunction*%
%TO.P,MX18,2*%
%TO.N,Net-(D18-Pad2)*%
X87471250Y-50482500D03*
%TA.AperFunction,ComponentPad*%
G36*
G01*
X87354733Y-52184895D02*
X87353847Y-52184834D01*
G75*
G02*
X86308916Y-50985097I77403J1122334D01*
G01*
X86348916Y-50405097D01*
G75*
G02*
X87548653Y-49360166I1122334J-77403D01*
G01*
X87548653Y-49360166D01*
G75*
G02*
X88593584Y-50559903I-77403J-1122334D01*
G01*
X88553584Y-51139903D01*
G75*
G02*
X87353847Y-52184834I-1122334J77403D01*
G01*
G37*
%TD.AperFunction*%
%TD*%
D25*
%TO.P,MX17,4*%
%TO.N,N/C*%
X105251250Y-60642500D03*
D11*
%TO.P,MX17,3*%
X102711250Y-60642500D03*
D12*
%TO.P,MX17,1*%
%TO.N,COL6*%
X101481250Y-51562500D03*
%TA.AperFunction,ComponentPad*%
G36*
G01*
X99419938Y-53859850D02*
X99419933Y-53859845D01*
G75*
G02*
X99333905Y-52271183I751317J837345D01*
G01*
X100643907Y-50811183D01*
G75*
G02*
X102232569Y-50725155I837345J-751317D01*
G01*
X102232569Y-50725155D01*
G75*
G02*
X102318597Y-52313817I-751317J-837345D01*
G01*
X101008595Y-53773817D01*
G75*
G02*
X99419933Y-53859845I-837345J751317D01*
G01*
G37*
%TD.AperFunction*%
%TO.P,MX17,2*%
%TO.N,Net-(D17-Pad2)*%
X106521250Y-50482500D03*
%TA.AperFunction,ComponentPad*%
G36*
G01*
X106404733Y-52184895D02*
X106403847Y-52184834D01*
G75*
G02*
X105358916Y-50985097I77403J1122334D01*
G01*
X105398916Y-50405097D01*
G75*
G02*
X106598653Y-49360166I1122334J-77403D01*
G01*
X106598653Y-49360166D01*
G75*
G02*
X107643584Y-50559903I-77403J-1122334D01*
G01*
X107603584Y-51139903D01*
G75*
G02*
X106403847Y-52184834I-1122334J77403D01*
G01*
G37*
%TD.AperFunction*%
%TD*%
D25*
%TO.P,MX16,4*%
%TO.N,N/C*%
X126682500Y-60642500D03*
D11*
%TO.P,MX16,3*%
X124142500Y-60642500D03*
D12*
%TO.P,MX16,1*%
%TO.N,COL5*%
X122912500Y-51562500D03*
%TA.AperFunction,ComponentPad*%
G36*
G01*
X120851188Y-53859850D02*
X120851183Y-53859845D01*
G75*
G02*
X120765155Y-52271183I751317J837345D01*
G01*
X122075157Y-50811183D01*
G75*
G02*
X123663819Y-50725155I837345J-751317D01*
G01*
X123663819Y-50725155D01*
G75*
G02*
X123749847Y-52313817I-751317J-837345D01*
G01*
X122439845Y-53773817D01*
G75*
G02*
X120851183Y-53859845I-837345J751317D01*
G01*
G37*
%TD.AperFunction*%
%TO.P,MX16,2*%
%TO.N,Net-(D16-Pad2)*%
X127952500Y-50482500D03*
%TA.AperFunction,ComponentPad*%
G36*
G01*
X127835983Y-52184895D02*
X127835097Y-52184834D01*
G75*
G02*
X126790166Y-50985097I77403J1122334D01*
G01*
X126830166Y-50405097D01*
G75*
G02*
X128029903Y-49360166I1122334J-77403D01*
G01*
X128029903Y-49360166D01*
G75*
G02*
X129074834Y-50559903I-77403J-1122334D01*
G01*
X129034834Y-51139903D01*
G75*
G02*
X127835097Y-52184834I-1122334J77403D01*
G01*
G37*
%TD.AperFunction*%
%TD*%
D25*
%TO.P,MX15,4*%
%TO.N,N/C*%
X145732500Y-60642500D03*
D11*
%TO.P,MX15,3*%
X143192500Y-60642500D03*
D12*
%TO.P,MX15,1*%
%TO.N,COL4*%
X141962500Y-51562500D03*
%TA.AperFunction,ComponentPad*%
G36*
G01*
X139901188Y-53859850D02*
X139901183Y-53859845D01*
G75*
G02*
X139815155Y-52271183I751317J837345D01*
G01*
X141125157Y-50811183D01*
G75*
G02*
X142713819Y-50725155I837345J-751317D01*
G01*
X142713819Y-50725155D01*
G75*
G02*
X142799847Y-52313817I-751317J-837345D01*
G01*
X141489845Y-53773817D01*
G75*
G02*
X139901183Y-53859845I-837345J751317D01*
G01*
G37*
%TD.AperFunction*%
%TO.P,MX15,2*%
%TO.N,Net-(D15-Pad2)*%
X147002500Y-50482500D03*
%TA.AperFunction,ComponentPad*%
G36*
G01*
X146885983Y-52184895D02*
X146885097Y-52184834D01*
G75*
G02*
X145840166Y-50985097I77403J1122334D01*
G01*
X145880166Y-50405097D01*
G75*
G02*
X147079903Y-49360166I1122334J-77403D01*
G01*
X147079903Y-49360166D01*
G75*
G02*
X148124834Y-50559903I-77403J-1122334D01*
G01*
X148084834Y-51139903D01*
G75*
G02*
X146885097Y-52184834I-1122334J77403D01*
G01*
G37*
%TD.AperFunction*%
%TD*%
D25*
%TO.P,MX14,4*%
%TO.N,N/C*%
X164782500Y-57467500D03*
D11*
%TO.P,MX14,3*%
X162242500Y-57467500D03*
D12*
%TO.P,MX14,1*%
%TO.N,COL3*%
X161012500Y-48387500D03*
%TA.AperFunction,ComponentPad*%
G36*
G01*
X158951188Y-50684850D02*
X158951183Y-50684845D01*
G75*
G02*
X158865155Y-49096183I751317J837345D01*
G01*
X160175157Y-47636183D01*
G75*
G02*
X161763819Y-47550155I837345J-751317D01*
G01*
X161763819Y-47550155D01*
G75*
G02*
X161849847Y-49138817I-751317J-837345D01*
G01*
X160539845Y-50598817D01*
G75*
G02*
X158951183Y-50684845I-837345J751317D01*
G01*
G37*
%TD.AperFunction*%
%TO.P,MX14,2*%
%TO.N,Net-(D14-Pad2)*%
X166052500Y-47307500D03*
%TA.AperFunction,ComponentPad*%
G36*
G01*
X165935983Y-49009895D02*
X165935097Y-49009834D01*
G75*
G02*
X164890166Y-47810097I77403J1122334D01*
G01*
X164930166Y-47230097D01*
G75*
G02*
X166129903Y-46185166I1122334J-77403D01*
G01*
X166129903Y-46185166D01*
G75*
G02*
X167174834Y-47384903I-77403J-1122334D01*
G01*
X167134834Y-47964903D01*
G75*
G02*
X165935097Y-49009834I-1122334J77403D01*
G01*
G37*
%TD.AperFunction*%
%TD*%
D25*
%TO.P,MX13,4*%
%TO.N,N/C*%
X183832500Y-55086250D03*
D11*
%TO.P,MX13,3*%
X181292500Y-55086250D03*
D12*
%TO.P,MX13,1*%
%TO.N,COL2*%
X180062500Y-46006250D03*
%TA.AperFunction,ComponentPad*%
G36*
G01*
X178001188Y-48303600D02*
X178001183Y-48303595D01*
G75*
G02*
X177915155Y-46714933I751317J837345D01*
G01*
X179225157Y-45254933D01*
G75*
G02*
X180813819Y-45168905I837345J-751317D01*
G01*
X180813819Y-45168905D01*
G75*
G02*
X180899847Y-46757567I-751317J-837345D01*
G01*
X179589845Y-48217567D01*
G75*
G02*
X178001183Y-48303595I-837345J751317D01*
G01*
G37*
%TD.AperFunction*%
%TO.P,MX13,2*%
%TO.N,Net-(D13-Pad2)*%
X185102500Y-44926250D03*
%TA.AperFunction,ComponentPad*%
G36*
G01*
X184985983Y-46628645D02*
X184985097Y-46628584D01*
G75*
G02*
X183940166Y-45428847I77403J1122334D01*
G01*
X183980166Y-44848847D01*
G75*
G02*
X185179903Y-43803916I1122334J-77403D01*
G01*
X185179903Y-43803916D01*
G75*
G02*
X186224834Y-45003653I-77403J-1122334D01*
G01*
X186184834Y-45583653D01*
G75*
G02*
X184985097Y-46628584I-1122334J77403D01*
G01*
G37*
%TD.AperFunction*%
%TD*%
D25*
%TO.P,MX12,4*%
%TO.N,N/C*%
X202882500Y-57467500D03*
D11*
%TO.P,MX12,3*%
X200342500Y-57467500D03*
D12*
%TO.P,MX12,1*%
%TO.N,COL1*%
X199112500Y-48387500D03*
%TA.AperFunction,ComponentPad*%
G36*
G01*
X197051188Y-50684850D02*
X197051183Y-50684845D01*
G75*
G02*
X196965155Y-49096183I751317J837345D01*
G01*
X198275157Y-47636183D01*
G75*
G02*
X199863819Y-47550155I837345J-751317D01*
G01*
X199863819Y-47550155D01*
G75*
G02*
X199949847Y-49138817I-751317J-837345D01*
G01*
X198639845Y-50598817D01*
G75*
G02*
X197051183Y-50684845I-837345J751317D01*
G01*
G37*
%TD.AperFunction*%
%TO.P,MX12,2*%
%TO.N,Net-(D12-Pad2)*%
X204152500Y-47307500D03*
%TA.AperFunction,ComponentPad*%
G36*
G01*
X204035983Y-49009895D02*
X204035097Y-49009834D01*
G75*
G02*
X202990166Y-47810097I77403J1122334D01*
G01*
X203030166Y-47230097D01*
G75*
G02*
X204229903Y-46185166I1122334J-77403D01*
G01*
X204229903Y-46185166D01*
G75*
G02*
X205274834Y-47384903I-77403J-1122334D01*
G01*
X205234834Y-47964903D01*
G75*
G02*
X204035097Y-49009834I-1122334J77403D01*
G01*
G37*
%TD.AperFunction*%
%TD*%
D25*
%TO.P,MX11,4*%
%TO.N,N/C*%
X221932500Y-59848750D03*
D11*
%TO.P,MX11,3*%
X219392500Y-59848750D03*
D12*
%TO.P,MX11,1*%
%TO.N,COL0*%
X218162500Y-50768750D03*
%TA.AperFunction,ComponentPad*%
G36*
G01*
X216101188Y-53066100D02*
X216101183Y-53066095D01*
G75*
G02*
X216015155Y-51477433I751317J837345D01*
G01*
X217325157Y-50017433D01*
G75*
G02*
X218913819Y-49931405I837345J-751317D01*
G01*
X218913819Y-49931405D01*
G75*
G02*
X218999847Y-51520067I-751317J-837345D01*
G01*
X217689845Y-52980067D01*
G75*
G02*
X216101183Y-53066095I-837345J751317D01*
G01*
G37*
%TD.AperFunction*%
%TO.P,MX11,2*%
%TO.N,Net-(D11-Pad2)*%
X223202500Y-49688750D03*
%TA.AperFunction,ComponentPad*%
G36*
G01*
X223085983Y-51391145D02*
X223085097Y-51391084D01*
G75*
G02*
X222040166Y-50191347I77403J1122334D01*
G01*
X222080166Y-49611347D01*
G75*
G02*
X223279903Y-48566416I1122334J-77403D01*
G01*
X223279903Y-48566416D01*
G75*
G02*
X224324834Y-49766153I-77403J-1122334D01*
G01*
X224284834Y-50346153D01*
G75*
G02*
X223085097Y-51391084I-1122334J77403D01*
G01*
G37*
%TD.AperFunction*%
%TD*%
D25*
%TO.P,MX10,4*%
%TO.N,N/C*%
X48101250Y-41592500D03*
D11*
%TO.P,MX10,3*%
X45561250Y-41592500D03*
D12*
%TO.P,MX10,1*%
%TO.N,COL9*%
X44331250Y-32512500D03*
%TA.AperFunction,ComponentPad*%
G36*
G01*
X42269938Y-34809850D02*
X42269933Y-34809845D01*
G75*
G02*
X42183905Y-33221183I751317J837345D01*
G01*
X43493907Y-31761183D01*
G75*
G02*
X45082569Y-31675155I837345J-751317D01*
G01*
X45082569Y-31675155D01*
G75*
G02*
X45168597Y-33263817I-751317J-837345D01*
G01*
X43858595Y-34723817D01*
G75*
G02*
X42269933Y-34809845I-837345J751317D01*
G01*
G37*
%TD.AperFunction*%
%TO.P,MX10,2*%
%TO.N,Net-(D10-Pad2)*%
X49371250Y-31432500D03*
%TA.AperFunction,ComponentPad*%
G36*
G01*
X49254733Y-33134895D02*
X49253847Y-33134834D01*
G75*
G02*
X48208916Y-31935097I77403J1122334D01*
G01*
X48248916Y-31355097D01*
G75*
G02*
X49448653Y-30310166I1122334J-77403D01*
G01*
X49448653Y-30310166D01*
G75*
G02*
X50493584Y-31509903I-77403J-1122334D01*
G01*
X50453584Y-32089903D01*
G75*
G02*
X49253847Y-33134834I-1122334J77403D01*
G01*
G37*
%TD.AperFunction*%
%TD*%
D25*
%TO.P,MX9,4*%
%TO.N,N/C*%
X67151250Y-41592500D03*
D11*
%TO.P,MX9,3*%
X64611250Y-41592500D03*
D12*
%TO.P,MX9,1*%
%TO.N,COL8*%
X63381250Y-32512500D03*
%TA.AperFunction,ComponentPad*%
G36*
G01*
X61319938Y-34809850D02*
X61319933Y-34809845D01*
G75*
G02*
X61233905Y-33221183I751317J837345D01*
G01*
X62543907Y-31761183D01*
G75*
G02*
X64132569Y-31675155I837345J-751317D01*
G01*
X64132569Y-31675155D01*
G75*
G02*
X64218597Y-33263817I-751317J-837345D01*
G01*
X62908595Y-34723817D01*
G75*
G02*
X61319933Y-34809845I-837345J751317D01*
G01*
G37*
%TD.AperFunction*%
%TO.P,MX9,2*%
%TO.N,Net-(D9-Pad2)*%
X68421250Y-31432500D03*
%TA.AperFunction,ComponentPad*%
G36*
G01*
X68304733Y-33134895D02*
X68303847Y-33134834D01*
G75*
G02*
X67258916Y-31935097I77403J1122334D01*
G01*
X67298916Y-31355097D01*
G75*
G02*
X68498653Y-30310166I1122334J-77403D01*
G01*
X68498653Y-30310166D01*
G75*
G02*
X69543584Y-31509903I-77403J-1122334D01*
G01*
X69503584Y-32089903D01*
G75*
G02*
X68303847Y-33134834I-1122334J77403D01*
G01*
G37*
%TD.AperFunction*%
%TD*%
D25*
%TO.P,MX8,4*%
%TO.N,N/C*%
X86201250Y-41592500D03*
D11*
%TO.P,MX8,3*%
X83661250Y-41592500D03*
D12*
%TO.P,MX8,1*%
%TO.N,COL7*%
X82431250Y-32512500D03*
%TA.AperFunction,ComponentPad*%
G36*
G01*
X80369938Y-34809850D02*
X80369933Y-34809845D01*
G75*
G02*
X80283905Y-33221183I751317J837345D01*
G01*
X81593907Y-31761183D01*
G75*
G02*
X83182569Y-31675155I837345J-751317D01*
G01*
X83182569Y-31675155D01*
G75*
G02*
X83268597Y-33263817I-751317J-837345D01*
G01*
X81958595Y-34723817D01*
G75*
G02*
X80369933Y-34809845I-837345J751317D01*
G01*
G37*
%TD.AperFunction*%
%TO.P,MX8,2*%
%TO.N,Net-(D8-Pad2)*%
X87471250Y-31432500D03*
%TA.AperFunction,ComponentPad*%
G36*
G01*
X87354733Y-33134895D02*
X87353847Y-33134834D01*
G75*
G02*
X86308916Y-31935097I77403J1122334D01*
G01*
X86348916Y-31355097D01*
G75*
G02*
X87548653Y-30310166I1122334J-77403D01*
G01*
X87548653Y-30310166D01*
G75*
G02*
X88593584Y-31509903I-77403J-1122334D01*
G01*
X88553584Y-32089903D01*
G75*
G02*
X87353847Y-33134834I-1122334J77403D01*
G01*
G37*
%TD.AperFunction*%
%TD*%
D25*
%TO.P,MX7,4*%
%TO.N,N/C*%
X105251250Y-41592500D03*
D11*
%TO.P,MX7,3*%
X102711250Y-41592500D03*
D12*
%TO.P,MX7,1*%
%TO.N,COL6*%
X101481250Y-32512500D03*
%TA.AperFunction,ComponentPad*%
G36*
G01*
X99419938Y-34809850D02*
X99419933Y-34809845D01*
G75*
G02*
X99333905Y-33221183I751317J837345D01*
G01*
X100643907Y-31761183D01*
G75*
G02*
X102232569Y-31675155I837345J-751317D01*
G01*
X102232569Y-31675155D01*
G75*
G02*
X102318597Y-33263817I-751317J-837345D01*
G01*
X101008595Y-34723817D01*
G75*
G02*
X99419933Y-34809845I-837345J751317D01*
G01*
G37*
%TD.AperFunction*%
%TO.P,MX7,2*%
%TO.N,Net-(D7-Pad2)*%
X106521250Y-31432500D03*
%TA.AperFunction,ComponentPad*%
G36*
G01*
X106404733Y-33134895D02*
X106403847Y-33134834D01*
G75*
G02*
X105358916Y-31935097I77403J1122334D01*
G01*
X105398916Y-31355097D01*
G75*
G02*
X106598653Y-30310166I1122334J-77403D01*
G01*
X106598653Y-30310166D01*
G75*
G02*
X107643584Y-31509903I-77403J-1122334D01*
G01*
X107603584Y-32089903D01*
G75*
G02*
X106403847Y-33134834I-1122334J77403D01*
G01*
G37*
%TD.AperFunction*%
%TD*%
D25*
%TO.P,MX6,4*%
%TO.N,N/C*%
X126682500Y-41592500D03*
D11*
%TO.P,MX6,3*%
X124142500Y-41592500D03*
D12*
%TO.P,MX6,1*%
%TO.N,COL5*%
X122912500Y-32512500D03*
%TA.AperFunction,ComponentPad*%
G36*
G01*
X120851188Y-34809850D02*
X120851183Y-34809845D01*
G75*
G02*
X120765155Y-33221183I751317J837345D01*
G01*
X122075157Y-31761183D01*
G75*
G02*
X123663819Y-31675155I837345J-751317D01*
G01*
X123663819Y-31675155D01*
G75*
G02*
X123749847Y-33263817I-751317J-837345D01*
G01*
X122439845Y-34723817D01*
G75*
G02*
X120851183Y-34809845I-837345J751317D01*
G01*
G37*
%TD.AperFunction*%
%TO.P,MX6,2*%
%TO.N,Net-(D6-Pad2)*%
X127952500Y-31432500D03*
%TA.AperFunction,ComponentPad*%
G36*
G01*
X127835983Y-33134895D02*
X127835097Y-33134834D01*
G75*
G02*
X126790166Y-31935097I77403J1122334D01*
G01*
X126830166Y-31355097D01*
G75*
G02*
X128029903Y-30310166I1122334J-77403D01*
G01*
X128029903Y-30310166D01*
G75*
G02*
X129074834Y-31509903I-77403J-1122334D01*
G01*
X129034834Y-32089903D01*
G75*
G02*
X127835097Y-33134834I-1122334J77403D01*
G01*
G37*
%TD.AperFunction*%
%TD*%
D25*
%TO.P,MX5,4*%
%TO.N,N/C*%
X145732500Y-41592500D03*
D11*
%TO.P,MX5,3*%
X143192500Y-41592500D03*
D12*
%TO.P,MX5,1*%
%TO.N,COL4*%
X141962500Y-32512500D03*
%TA.AperFunction,ComponentPad*%
G36*
G01*
X139901188Y-34809850D02*
X139901183Y-34809845D01*
G75*
G02*
X139815155Y-33221183I751317J837345D01*
G01*
X141125157Y-31761183D01*
G75*
G02*
X142713819Y-31675155I837345J-751317D01*
G01*
X142713819Y-31675155D01*
G75*
G02*
X142799847Y-33263817I-751317J-837345D01*
G01*
X141489845Y-34723817D01*
G75*
G02*
X139901183Y-34809845I-837345J751317D01*
G01*
G37*
%TD.AperFunction*%
%TO.P,MX5,2*%
%TO.N,Net-(D5-Pad2)*%
X147002500Y-31432500D03*
%TA.AperFunction,ComponentPad*%
G36*
G01*
X146885983Y-33134895D02*
X146885097Y-33134834D01*
G75*
G02*
X145840166Y-31935097I77403J1122334D01*
G01*
X145880166Y-31355097D01*
G75*
G02*
X147079903Y-30310166I1122334J-77403D01*
G01*
X147079903Y-30310166D01*
G75*
G02*
X148124834Y-31509903I-77403J-1122334D01*
G01*
X148084834Y-32089903D01*
G75*
G02*
X146885097Y-33134834I-1122334J77403D01*
G01*
G37*
%TD.AperFunction*%
%TD*%
D25*
%TO.P,MX4,4*%
%TO.N,N/C*%
X164782500Y-38417500D03*
D11*
%TO.P,MX4,3*%
X162242500Y-38417500D03*
D12*
%TO.P,MX4,1*%
%TO.N,COL3*%
X161012500Y-29337500D03*
%TA.AperFunction,ComponentPad*%
G36*
G01*
X158951188Y-31634850D02*
X158951183Y-31634845D01*
G75*
G02*
X158865155Y-30046183I751317J837345D01*
G01*
X160175157Y-28586183D01*
G75*
G02*
X161763819Y-28500155I837345J-751317D01*
G01*
X161763819Y-28500155D01*
G75*
G02*
X161849847Y-30088817I-751317J-837345D01*
G01*
X160539845Y-31548817D01*
G75*
G02*
X158951183Y-31634845I-837345J751317D01*
G01*
G37*
%TD.AperFunction*%
%TO.P,MX4,2*%
%TO.N,Net-(D4-Pad2)*%
X166052500Y-28257500D03*
%TA.AperFunction,ComponentPad*%
G36*
G01*
X165935983Y-29959895D02*
X165935097Y-29959834D01*
G75*
G02*
X164890166Y-28760097I77403J1122334D01*
G01*
X164930166Y-28180097D01*
G75*
G02*
X166129903Y-27135166I1122334J-77403D01*
G01*
X166129903Y-27135166D01*
G75*
G02*
X167174834Y-28334903I-77403J-1122334D01*
G01*
X167134834Y-28914903D01*
G75*
G02*
X165935097Y-29959834I-1122334J77403D01*
G01*
G37*
%TD.AperFunction*%
%TD*%
D25*
%TO.P,MX3,4*%
%TO.N,N/C*%
X183832500Y-36036250D03*
D11*
%TO.P,MX3,3*%
X181292500Y-36036250D03*
D12*
%TO.P,MX3,1*%
%TO.N,COL2*%
X180062500Y-26956250D03*
%TA.AperFunction,ComponentPad*%
G36*
G01*
X178001188Y-29253600D02*
X178001183Y-29253595D01*
G75*
G02*
X177915155Y-27664933I751317J837345D01*
G01*
X179225157Y-26204933D01*
G75*
G02*
X180813819Y-26118905I837345J-751317D01*
G01*
X180813819Y-26118905D01*
G75*
G02*
X180899847Y-27707567I-751317J-837345D01*
G01*
X179589845Y-29167567D01*
G75*
G02*
X178001183Y-29253595I-837345J751317D01*
G01*
G37*
%TD.AperFunction*%
%TO.P,MX3,2*%
%TO.N,Net-(D3-Pad2)*%
X185102500Y-25876250D03*
%TA.AperFunction,ComponentPad*%
G36*
G01*
X184985983Y-27578645D02*
X184985097Y-27578584D01*
G75*
G02*
X183940166Y-26378847I77403J1122334D01*
G01*
X183980166Y-25798847D01*
G75*
G02*
X185179903Y-24753916I1122334J-77403D01*
G01*
X185179903Y-24753916D01*
G75*
G02*
X186224834Y-25953653I-77403J-1122334D01*
G01*
X186184834Y-26533653D01*
G75*
G02*
X184985097Y-27578584I-1122334J77403D01*
G01*
G37*
%TD.AperFunction*%
%TD*%
D25*
%TO.P,MX2,4*%
%TO.N,N/C*%
X202882500Y-38417500D03*
D11*
%TO.P,MX2,3*%
X200342500Y-38417500D03*
D12*
%TO.P,MX2,1*%
%TO.N,COL1*%
X199112500Y-29337500D03*
%TA.AperFunction,ComponentPad*%
G36*
G01*
X197051188Y-31634850D02*
X197051183Y-31634845D01*
G75*
G02*
X196965155Y-30046183I751317J837345D01*
G01*
X198275157Y-28586183D01*
G75*
G02*
X199863819Y-28500155I837345J-751317D01*
G01*
X199863819Y-28500155D01*
G75*
G02*
X199949847Y-30088817I-751317J-837345D01*
G01*
X198639845Y-31548817D01*
G75*
G02*
X197051183Y-31634845I-837345J751317D01*
G01*
G37*
%TD.AperFunction*%
%TO.P,MX2,2*%
%TO.N,Net-(D2-Pad2)*%
X204152500Y-28257500D03*
%TA.AperFunction,ComponentPad*%
G36*
G01*
X204035983Y-29959895D02*
X204035097Y-29959834D01*
G75*
G02*
X202990166Y-28760097I77403J1122334D01*
G01*
X203030166Y-28180097D01*
G75*
G02*
X204229903Y-27135166I1122334J-77403D01*
G01*
X204229903Y-27135166D01*
G75*
G02*
X205274834Y-28334903I-77403J-1122334D01*
G01*
X205234834Y-28914903D01*
G75*
G02*
X204035097Y-29959834I-1122334J77403D01*
G01*
G37*
%TD.AperFunction*%
%TD*%
D25*
%TO.P,MX1,4*%
%TO.N,N/C*%
X221932500Y-40798750D03*
D11*
%TO.P,MX1,3*%
X219392500Y-40798750D03*
D12*
%TO.P,MX1,1*%
%TO.N,COL0*%
X218162500Y-31718750D03*
%TA.AperFunction,ComponentPad*%
G36*
G01*
X216101188Y-34016100D02*
X216101183Y-34016095D01*
G75*
G02*
X216015155Y-32427433I751317J837345D01*
G01*
X217325157Y-30967433D01*
G75*
G02*
X218913819Y-30881405I837345J-751317D01*
G01*
X218913819Y-30881405D01*
G75*
G02*
X218999847Y-32470067I-751317J-837345D01*
G01*
X217689845Y-33930067D01*
G75*
G02*
X216101183Y-34016095I-837345J751317D01*
G01*
G37*
%TD.AperFunction*%
%TO.P,MX1,2*%
%TO.N,Net-(D1-Pad2)*%
X223202500Y-30638750D03*
%TA.AperFunction,ComponentPad*%
G36*
G01*
X223085983Y-32341145D02*
X223085097Y-32341084D01*
G75*
G02*
X222040166Y-31141347I77403J1122334D01*
G01*
X222080166Y-30561347D01*
G75*
G02*
X223279903Y-29516416I1122334J-77403D01*
G01*
X223279903Y-29516416D01*
G75*
G02*
X224324834Y-30716153I-77403J-1122334D01*
G01*
X224284834Y-31296153D01*
G75*
G02*
X223085097Y-32341084I-1122334J77403D01*
G01*
G37*
%TD.AperFunction*%
%TD*%
D26*
%TO.N,ROW1*%
X236029500Y-55975250D03*
X238696500Y-54705250D03*
%TO.N,ROW2*%
X240098699Y-68035051D03*
%TO.N,COL0*%
X216852500Y-46323250D03*
%TO.N,COL1*%
X197802500Y-43529250D03*
%TO.N,COL2*%
X178752500Y-40862250D03*
%TO.N,COL3*%
X159702500Y-42767250D03*
%TO.N,COL4*%
X140652500Y-45434250D03*
%TO.N,COL5*%
X121602500Y-44926250D03*
%TO.N,COL6*%
X100171250Y-44640500D03*
%TO.N,COL7*%
X81121250Y-43532500D03*
%TO.N,COL8*%
X62071250Y-63382250D03*
%TO.N,COL9*%
X43021250Y-64405500D03*
%TO.N,VCC*%
X246189500Y-51784250D03*
X246189500Y-55213250D03*
X247586500Y-60293250D03*
X247586500Y-85820250D03*
%TO.N,SDA*%
X246189500Y-44381250D03*
X246178983Y-50122733D03*
X245935500Y-90773250D03*
%TO.N,SCL*%
X239373699Y-55721250D03*
X246443500Y-61182250D03*
X246697500Y-80867250D03*
%TO.N,GND*%
X231330500Y-57626250D03*
X231330500Y-63214250D03*
X232727500Y-67151250D03*
X155093500Y-66135250D03*
%TO.N,Net-(SW0-Pad1)*%
X237426500Y-56102250D03*
%TO.N,LEFT*%
X154368500Y-61055250D03*
X228790500Y-61690250D03*
%TO.N,RIGHT*%
X155099972Y-62167722D03*
X229806500Y-61817250D03*
%TD*%
D27*
%TO.N,ROW0*%
X193577749Y-37139999D02*
X191294000Y-34856250D01*
X210240499Y-37139999D02*
X193577749Y-37139999D01*
X210338000Y-37237500D02*
X210240499Y-37139999D01*
X174728751Y-34758749D02*
X172250000Y-37237500D01*
X191196499Y-34758749D02*
X174728751Y-34758749D01*
X191294000Y-34856250D02*
X191196499Y-34758749D01*
X172152499Y-37139999D02*
X156478501Y-37139999D01*
X156478501Y-37139999D02*
X153206000Y-40412500D01*
X172250000Y-37237500D02*
X172152499Y-37139999D01*
X124755701Y-40314999D02*
X55703001Y-40314999D01*
X55703001Y-40314999D02*
X55605500Y-40412500D01*
X125433500Y-40351498D02*
X124792200Y-40351498D01*
X125469999Y-40314999D02*
X125433500Y-40351498D01*
X124792200Y-40351498D02*
X124755701Y-40314999D01*
X153108499Y-40314999D02*
X125469999Y-40314999D01*
X153206000Y-40412500D02*
X153108499Y-40314999D01*
X230307001Y-34615073D02*
X230307001Y-38631249D01*
X233103375Y-31818699D02*
X230307001Y-34615073D01*
X247581301Y-31818699D02*
X233103375Y-31818699D01*
X230307001Y-38631249D02*
X229382000Y-39556250D01*
X248920000Y-30480000D02*
X247581301Y-31818699D01*
X210338000Y-37237500D02*
X218203750Y-37237500D01*
X229346999Y-39521249D02*
X229382000Y-39556250D01*
X220487499Y-39521249D02*
X229346999Y-39521249D01*
X218203750Y-37237500D02*
X220487499Y-39521249D01*
%TO.N,ROW1*%
X229284499Y-58571249D02*
X212621749Y-58571249D01*
X229382000Y-58668750D02*
X229284499Y-58571249D01*
X193577749Y-56189999D02*
X191294000Y-53906250D01*
X210338000Y-56287500D02*
X210240499Y-56189999D01*
X174728751Y-53808749D02*
X172250000Y-56287500D01*
X191196499Y-53808749D02*
X174728751Y-53808749D01*
X191294000Y-53906250D02*
X191196499Y-53808749D01*
X156478501Y-56189999D02*
X153206000Y-59462500D01*
X172152499Y-56189999D02*
X156478501Y-56189999D01*
X172250000Y-56287500D02*
X172152499Y-56189999D01*
X134259501Y-59364999D02*
X134162000Y-59462500D01*
X153108499Y-59364999D02*
X134259501Y-59364999D01*
X153206000Y-59462500D02*
X153108499Y-59364999D01*
X55703001Y-59364999D02*
X55605500Y-59462500D01*
X134064499Y-59364999D02*
X55703001Y-59364999D01*
X134162000Y-59462500D02*
X134064499Y-59364999D01*
X237299500Y-54705250D02*
X238696500Y-54705250D01*
X236029500Y-55975250D02*
X237299500Y-54705250D01*
X209446749Y-56189999D02*
X210338000Y-57081250D01*
X193577749Y-56189999D02*
X209446749Y-56189999D01*
X211131750Y-57081250D02*
X212621749Y-58571249D01*
X210338000Y-57081250D02*
X211131750Y-57081250D01*
%TO.N,ROW2*%
X63998049Y-78414999D02*
X93595999Y-78414999D01*
X63900548Y-78512500D02*
X63998049Y-78414999D01*
X93595999Y-78414999D02*
X93693500Y-78512500D01*
X55605500Y-78512500D02*
X63900548Y-78512500D01*
X112639999Y-78414999D02*
X112737500Y-78512500D01*
X93791001Y-78414999D02*
X112639999Y-78414999D01*
X93693500Y-78512500D02*
X93791001Y-78414999D01*
X123529299Y-78414999D02*
X153108499Y-78414999D01*
X123431798Y-78512500D02*
X123529299Y-78414999D01*
X153108499Y-78414999D02*
X153206000Y-78512500D01*
X112737500Y-78512500D02*
X123431798Y-78512500D01*
X172152499Y-75239999D02*
X172250000Y-75337500D01*
X156478501Y-75239999D02*
X172152499Y-75239999D01*
X153206000Y-78512500D02*
X156478501Y-75239999D01*
X172250000Y-75337500D02*
X172318000Y-75337500D01*
X174796751Y-72858749D02*
X191196499Y-72858749D01*
X191196499Y-72858749D02*
X191294000Y-72956250D01*
X172318000Y-75337500D02*
X174796751Y-72858749D01*
X210019251Y-75018751D02*
X210338000Y-75337500D01*
X193356501Y-75018751D02*
X210019251Y-75018751D01*
X191294000Y-72956250D02*
X193356501Y-75018751D01*
X210338000Y-75337500D02*
X212718500Y-77718000D01*
X229284499Y-77621249D02*
X229382000Y-77718750D01*
X218779299Y-77621249D02*
X229284499Y-77621249D01*
X218682548Y-77718000D02*
X218779299Y-77621249D01*
X212718500Y-77718000D02*
X218682548Y-77718000D01*
X230415000Y-77718750D02*
X229382000Y-77718750D01*
X240098699Y-68035051D02*
X230415000Y-77718750D01*
%TO.N,ROW3*%
X229284499Y-96671249D02*
X212621749Y-96671249D01*
X229382000Y-96768750D02*
X229284499Y-96671249D01*
X193577749Y-94289999D02*
X191294000Y-92006250D01*
X210338000Y-94387500D02*
X210240499Y-94289999D01*
X174728751Y-91908749D02*
X172250000Y-94387500D01*
X191196499Y-91908749D02*
X174728751Y-91908749D01*
X191294000Y-92006250D02*
X191196499Y-91908749D01*
X157581000Y-93187500D02*
X153206000Y-97562500D01*
X172250000Y-93187500D02*
X157581000Y-93187500D01*
X134259501Y-97464999D02*
X134162000Y-97562500D01*
X153108499Y-97464999D02*
X134259501Y-97464999D01*
X153206000Y-97562500D02*
X153108499Y-97464999D01*
X134064499Y-97464999D02*
X112835001Y-97464999D01*
X112835001Y-97464999D02*
X112737500Y-97562500D01*
X134162000Y-97562500D02*
X134064499Y-97464999D01*
X93778501Y-97464999D02*
X93693500Y-97550000D01*
X112639999Y-97464999D02*
X93778501Y-97464999D01*
X112737500Y-97562500D02*
X112639999Y-97464999D01*
X74747001Y-97464999D02*
X74649500Y-97562500D01*
X93608499Y-97464999D02*
X74747001Y-97464999D01*
X93693500Y-97550000D02*
X93608499Y-97464999D01*
X55703001Y-97464999D02*
X55605500Y-97562500D01*
X74551999Y-97464999D02*
X55703001Y-97464999D01*
X74649500Y-97562500D02*
X74551999Y-97464999D01*
X193577749Y-94289999D02*
X209446749Y-94289999D01*
X209446749Y-94289999D02*
X210338000Y-95181250D01*
X211131750Y-95181250D02*
X212621749Y-96671249D01*
X210338000Y-95181250D02*
X211131750Y-95181250D01*
%TO.N,ROW4*%
X163512500Y-116612500D02*
X163581250Y-116612500D01*
X163581250Y-116612500D02*
X164528500Y-115665250D01*
X181615250Y-115665250D02*
X182562500Y-116612500D01*
X164528500Y-115665250D02*
X181615250Y-115665250D01*
X182562500Y-116612500D02*
X182631250Y-116612500D01*
X201514999Y-116514999D02*
X201612500Y-116612500D01*
X182728751Y-116514999D02*
X201514999Y-116514999D01*
X182631250Y-116612500D02*
X182728751Y-116514999D01*
X202412651Y-117412651D02*
X219081401Y-117412651D01*
X219081401Y-117412651D02*
X220662500Y-118993750D01*
X201612500Y-116612500D02*
X202412651Y-117412651D01*
X220662500Y-118993750D02*
X222257790Y-117398460D01*
X222257790Y-117398460D02*
X222257790Y-117371960D01*
X222866290Y-116763460D02*
X235397299Y-116763460D01*
X237104499Y-118470660D02*
X238686099Y-118470660D01*
X235397299Y-116763460D02*
X237104499Y-118470660D01*
X222257790Y-117371960D02*
X222866290Y-116763460D01*
X244475505Y-110768744D02*
X247915999Y-107328250D01*
X238686099Y-118470660D02*
X244475505Y-112681255D01*
X244475505Y-112681255D02*
X244475505Y-110768744D01*
%TO.N,COL0*%
X233680000Y-58420000D02*
X231065480Y-55805480D01*
X231065480Y-50249230D02*
X226828815Y-46012565D01*
X231065480Y-55805480D02*
X231065480Y-50249230D01*
X217163185Y-46012565D02*
X216852500Y-46323250D01*
X226828815Y-46012565D02*
X217163185Y-46012565D01*
%TO.N,COL1*%
X198150428Y-43181322D02*
X197802500Y-43529250D01*
X202871612Y-43181322D02*
X198150428Y-43181322D01*
X205579950Y-42709260D02*
X204721310Y-42709260D01*
X204249248Y-43181322D02*
X202871613Y-43181322D01*
X206695400Y-41593810D02*
X205579950Y-42709260D01*
X204721310Y-42709260D02*
X204249248Y-43181322D01*
X213901060Y-41593810D02*
X206695400Y-41593810D01*
X217869805Y-45562555D02*
X213901060Y-41593810D01*
X231515490Y-49937240D02*
X227140805Y-45562555D01*
X227140805Y-45562555D02*
X217869805Y-45562555D01*
X231515490Y-53715490D02*
X231515490Y-49937240D01*
X233680000Y-55880000D02*
X231515490Y-53715490D01*
%TO.N,COL2*%
X191156245Y-42731295D02*
X188848210Y-40423260D01*
X203057978Y-42731313D02*
X191156245Y-42731295D01*
X188848210Y-40423260D02*
X179191490Y-40423260D01*
X203057996Y-42731296D02*
X203057978Y-42731313D01*
X179191490Y-40423260D02*
X178752500Y-40862250D01*
X231965500Y-49721910D02*
X227356136Y-45112546D01*
X214269500Y-41143800D02*
X206509000Y-41143800D01*
X204062864Y-42731296D02*
X203057996Y-42731296D01*
X218238245Y-45112545D02*
X214269500Y-41143800D01*
X227356136Y-45112546D02*
X218238245Y-45112545D01*
X231965500Y-51625500D02*
X231965500Y-49721910D01*
X233680000Y-53340000D02*
X231965500Y-51625500D01*
X205431492Y-42221308D02*
X204572852Y-42221308D01*
X204572852Y-42221308D02*
X204062864Y-42731296D01*
X206509000Y-41143800D02*
X205431492Y-42221308D01*
%TO.N,COL3*%
X172995600Y-42281290D02*
X160188460Y-42281290D01*
X175303640Y-39973250D02*
X172995600Y-42281290D01*
X189034610Y-39973250D02*
X175303640Y-39973250D01*
X227542537Y-44662537D02*
X218424646Y-44662536D01*
X191342646Y-42281286D02*
X189034610Y-39973250D01*
X203876464Y-42281286D02*
X191342646Y-42281286D01*
X233680000Y-50800000D02*
X227542537Y-44662537D01*
X206322600Y-40693790D02*
X205245091Y-41771299D01*
X204386451Y-41771299D02*
X203876464Y-42281286D01*
X205245091Y-41771299D02*
X204386451Y-41771299D01*
X214455900Y-40693790D02*
X206322600Y-40693790D01*
X160188460Y-42281290D02*
X159702500Y-42767250D01*
X218424646Y-44662536D02*
X214455900Y-40693790D01*
%TO.N,COL4*%
X218611047Y-44212527D02*
X229632528Y-44212528D01*
X206136200Y-40243780D02*
X214642300Y-40243780D01*
X189147800Y-39450030D02*
X191529047Y-41831277D01*
X205058692Y-41321288D02*
X206136200Y-40243780D01*
X204075871Y-41321289D02*
X205058692Y-41321288D01*
X141204220Y-44882530D02*
X155475950Y-44882530D01*
X191529047Y-41831277D02*
X203565882Y-41831278D01*
X175190450Y-39450030D02*
X189147800Y-39450030D01*
X140652500Y-45434250D02*
X141204220Y-44882530D01*
X229632528Y-44212528D02*
X233680000Y-48260000D01*
X172809200Y-41831280D02*
X175190450Y-39450030D01*
X203565882Y-41831278D02*
X204075871Y-41321289D01*
X158527200Y-41831280D02*
X172809200Y-41831280D01*
X214642300Y-40243780D02*
X218611047Y-44212527D01*
X155475950Y-44882530D02*
X158527200Y-41831280D01*
%TO.N,COL5*%
X122096230Y-44432520D02*
X121602500Y-44926250D01*
X130227050Y-44432520D02*
X122096230Y-44432520D01*
X131892320Y-42767250D02*
X130227050Y-44432520D01*
X141673450Y-44432520D02*
X140008180Y-42767250D01*
X140008180Y-42767250D02*
X131892320Y-42767250D01*
X158340800Y-41381270D02*
X155289550Y-44432520D01*
X172622800Y-41381270D02*
X158340800Y-41381270D01*
X231722519Y-43762519D02*
X218797448Y-43762518D01*
X203889471Y-40871279D02*
X203379482Y-41381268D01*
X189334200Y-39000020D02*
X175004050Y-39000020D01*
X191715448Y-41381268D02*
X189334200Y-39000020D01*
X203379482Y-41381268D02*
X191715448Y-41381268D01*
X204872291Y-40871279D02*
X203889471Y-40871279D01*
X233680000Y-45720000D02*
X231722519Y-43762519D01*
X214828700Y-39793770D02*
X205949800Y-39793770D01*
X175004050Y-39000020D02*
X172622800Y-41381270D01*
X155289550Y-44432520D02*
X141673450Y-44432520D01*
X218797448Y-43762518D02*
X214828700Y-39793770D01*
X205949800Y-39793770D02*
X204872291Y-40871279D01*
%TO.N,COL6*%
X233680000Y-43180000D02*
X233547490Y-43312510D01*
X158154400Y-40931260D02*
X155103150Y-43982510D01*
X172436400Y-40931260D02*
X158154400Y-40931260D01*
X174817650Y-38550010D02*
X172436400Y-40931260D01*
X215015100Y-39343760D02*
X205763400Y-39343760D01*
X191901849Y-40931259D02*
X189520600Y-38550010D01*
X100829240Y-43982510D02*
X100171250Y-44640500D01*
X203078509Y-40921651D02*
X203078509Y-40931259D01*
X189520600Y-38550010D02*
X174817650Y-38550010D01*
X140136590Y-42259250D02*
X131763910Y-42259250D01*
X205763400Y-39343760D02*
X204685891Y-40421269D01*
X203578891Y-40421269D02*
X203078509Y-40921651D01*
X130040651Y-43982509D02*
X100829240Y-43982510D01*
X141859849Y-43982509D02*
X140136590Y-42259250D01*
X204685891Y-40421269D02*
X203578891Y-40421269D01*
X203078509Y-40931259D02*
X191901849Y-40931259D01*
X131763910Y-42259250D02*
X130040651Y-43982509D01*
X233547491Y-43312509D02*
X218983849Y-43312509D01*
X218983849Y-43312509D02*
X215015100Y-39343760D01*
X155103150Y-43982510D02*
X141859849Y-43982509D01*
X233680000Y-43180000D02*
X233547491Y-43312509D01*
%TO.N,COL7*%
X231457500Y-42862500D02*
X233680000Y-40640000D01*
X204499491Y-39971259D02*
X205577000Y-38893750D01*
X205577000Y-38893750D02*
X215201500Y-38893750D01*
X203392491Y-39971259D02*
X204499491Y-39971259D01*
X81121250Y-43532500D02*
X129854250Y-43532500D01*
X189707000Y-38100000D02*
X192088250Y-40481250D01*
X129854250Y-43532500D02*
X131635500Y-41751250D01*
X172250000Y-40481250D02*
X174631250Y-38100000D01*
X219170250Y-42862500D02*
X231457500Y-42862500D01*
X154916750Y-43532500D02*
X157968000Y-40481250D01*
X157968000Y-40481250D02*
X172250000Y-40481250D01*
X140265000Y-41751250D02*
X142046250Y-43532500D01*
X215201500Y-38893750D02*
X219170250Y-42862500D01*
X192088250Y-40481250D02*
X202882500Y-40481250D01*
X174631250Y-38100000D02*
X189707000Y-38100000D01*
X202882500Y-40481250D02*
X203392491Y-39971259D01*
X142046250Y-43532500D02*
X154916750Y-43532500D01*
X131635500Y-41751250D02*
X140265000Y-41751250D01*
%TO.N,COL8*%
X190500500Y-61118750D02*
X157174250Y-61118750D01*
X154910750Y-63382250D02*
X62071250Y-63382250D01*
X209545250Y-64293750D02*
X207164000Y-61912500D01*
X207164000Y-61912500D02*
X191294250Y-61912500D01*
X191294250Y-61912500D02*
X190500500Y-61118750D01*
X157174250Y-61118750D02*
X154910750Y-63382250D01*
X234143000Y-64293750D02*
X209545250Y-64293750D01*
X234936500Y-63500250D02*
X234143000Y-64293750D01*
X248920000Y-50800000D02*
X247718699Y-52001301D01*
X247718699Y-53430051D02*
X247205500Y-53943250D01*
X247718699Y-52001301D02*
X247718699Y-53430051D01*
X247205500Y-53943250D02*
X235775500Y-53943250D01*
X234936500Y-54782250D02*
X234936500Y-58211250D01*
X235775500Y-53943250D02*
X234936500Y-54782250D01*
X234936500Y-58211250D02*
X234936500Y-63500250D01*
X234936500Y-57925574D02*
X234936500Y-58211250D01*
%TO.N,COL9*%
X190500500Y-61912500D02*
X157174500Y-61912500D01*
X209545250Y-65087500D02*
X207164000Y-62706250D01*
X207164000Y-62706250D02*
X191294250Y-62706250D01*
X191294250Y-62706250D02*
X190500500Y-61912500D01*
X157174500Y-61912500D02*
X154681500Y-64405500D01*
X154681500Y-64405500D02*
X43021250Y-64405500D01*
X248426000Y-65087500D02*
X209545250Y-65087500D01*
X250121301Y-63392199D02*
X248426000Y-65087500D01*
X250121301Y-54541301D02*
X250121301Y-63392199D01*
X248920000Y-53340000D02*
X250121301Y-54541301D01*
%TO.N,VCC*%
X233680000Y-38100000D02*
X238585000Y-38100000D01*
X246189500Y-51260750D02*
X246189500Y-51784250D01*
X238585000Y-43656250D02*
X246189500Y-51260750D01*
X246475324Y-60293250D02*
X247586500Y-60293250D01*
X245178699Y-58996625D02*
X246475324Y-60293250D01*
X245178699Y-56224051D02*
X245178699Y-58996625D01*
X246189500Y-55213250D02*
X245178699Y-56224051D01*
X250510602Y-85820250D02*
X255936500Y-91246148D01*
X247586500Y-85820250D02*
X250510602Y-85820250D01*
%TO.N,SDA*%
X246380000Y-38100000D02*
X248920000Y-40640000D01*
X243665000Y-38100000D02*
X246380000Y-38100000D01*
X246178983Y-44391767D02*
X246189500Y-44381250D01*
X246178983Y-50122733D02*
X246178983Y-44391767D01*
X253421538Y-98259288D02*
X257083614Y-98259288D01*
X245935500Y-90773250D02*
X253421538Y-98259288D01*
%TO.N,SCL*%
X248443750Y-43656250D02*
X248920000Y-43180000D01*
X243665000Y-43656250D02*
X248443750Y-43656250D01*
X244824324Y-61182250D02*
X246443500Y-61182250D01*
X242638699Y-57843375D02*
X242638699Y-58996625D01*
X242638699Y-58996625D02*
X244824324Y-61182250D01*
X240516574Y-55721250D02*
X242638699Y-57843375D01*
X239373699Y-55721250D02*
X240516574Y-55721250D01*
X249655678Y-80867250D02*
X257436500Y-88648072D01*
X246697500Y-80867250D02*
X249655678Y-80867250D01*
%TO.N,GND*%
X231330500Y-57626250D02*
X231330500Y-63214250D01*
X238110500Y-67206250D02*
X244610500Y-67206250D01*
X238055500Y-67151250D02*
X238110500Y-67206250D01*
X232727500Y-67151250D02*
X238055500Y-67151250D01*
X227356240Y-67151250D02*
X232727500Y-67151250D01*
X225742500Y-65537510D02*
X227356240Y-67151250D01*
X209358849Y-65537509D02*
X225742500Y-65537510D01*
X155093500Y-66135250D02*
X158776500Y-62452250D01*
X191107849Y-63156259D02*
X206977600Y-63156260D01*
X190403840Y-62452250D02*
X191107849Y-63156259D01*
X206977600Y-63156260D02*
X209358849Y-65537509D01*
X158776500Y-62452250D02*
X190403840Y-62452250D01*
X244561500Y-85335250D02*
X244561500Y-67206250D01*
X253936500Y-94710250D02*
X244561500Y-85335250D01*
%TO.N,Net-(SW0-Pad1)*%
X238110500Y-62706250D02*
X244610500Y-62706250D01*
X237426500Y-62022250D02*
X238110500Y-62706250D01*
X237426500Y-56102250D02*
X237426500Y-62022250D01*
%TO.N,LEFT*%
X228790500Y-61690250D02*
X227087020Y-63393730D01*
X227087020Y-63393730D02*
X209918050Y-63393730D01*
X209918050Y-63393730D02*
X207536800Y-61012480D01*
X191667050Y-61012480D02*
X190873300Y-60218730D01*
X207536800Y-61012480D02*
X191667050Y-61012480D01*
X155205020Y-60218730D02*
X154368500Y-61055250D01*
X190873300Y-60218730D02*
X155205020Y-60218730D01*
%TO.N,RIGHT*%
X229806500Y-61817250D02*
X227780010Y-63843740D01*
X209731650Y-63843740D02*
X207350400Y-61462490D01*
X156598954Y-60668740D02*
X155099972Y-62167722D01*
X190686900Y-60668740D02*
X156598954Y-60668740D01*
X207350400Y-61462490D02*
X191480650Y-61462490D01*
X227780010Y-63843740D02*
X209731650Y-63843740D01*
X191480650Y-61462490D02*
X190686900Y-60668740D01*
%TD*%
M02*
