%TF.GenerationSoftware,KiCad,Pcbnew,(5.1.9-0-10_14)*%
%TF.CreationDate,2021-04-19T01:17:04-05:00*%
%TF.ProjectId,wren-left,7772656e-2d6c-4656-9674-2e6b69636164,rev?*%
%TF.SameCoordinates,Original*%
%TF.FileFunction,Legend,Top*%
%TF.FilePolarity,Positive*%
%FSLAX46Y46*%
G04 Gerber Fmt 4.6, Leading zero omitted, Abs format (unit mm)*
G04 Created by KiCad (PCBNEW (5.1.9-0-10_14)) date 2021-04-19 01:17:04*
%MOMM*%
%LPD*%
G01*
G04 APERTURE LIST*
%ADD10C,0.010000*%
%ADD11C,0.120000*%
%ADD12C,0.381000*%
%ADD13C,0.150000*%
G04 APERTURE END LIST*
D10*
%TO.C,G\u002A\u002A\u002A*%
G36*
X243222203Y-72174847D02*
G01*
X243281373Y-72194249D01*
X243406906Y-72285322D01*
X243474259Y-72414998D01*
X243482386Y-72559663D01*
X243430244Y-72695708D01*
X243316787Y-72799522D01*
X243308345Y-72804036D01*
X243204652Y-72852149D01*
X243131431Y-72859416D01*
X243045643Y-72826987D01*
X243015334Y-72811874D01*
X242892295Y-72713594D01*
X242832432Y-72589154D01*
X242828359Y-72455706D01*
X242872687Y-72330400D01*
X242958029Y-72230388D01*
X243076997Y-72172820D01*
X243222203Y-72174847D01*
G37*
X243222203Y-72174847D02*
X243281373Y-72194249D01*
X243406906Y-72285322D01*
X243474259Y-72414998D01*
X243482386Y-72559663D01*
X243430244Y-72695708D01*
X243316787Y-72799522D01*
X243308345Y-72804036D01*
X243204652Y-72852149D01*
X243131431Y-72859416D01*
X243045643Y-72826987D01*
X243015334Y-72811874D01*
X242892295Y-72713594D01*
X242832432Y-72589154D01*
X242828359Y-72455706D01*
X242872687Y-72330400D01*
X242958029Y-72230388D01*
X243076997Y-72172820D01*
X243222203Y-72174847D01*
G36*
X239582811Y-70840106D02*
G01*
X239639674Y-70842675D01*
X239781355Y-70850666D01*
X239895814Y-70863175D01*
X240000782Y-70886124D01*
X240113986Y-70925439D01*
X240253156Y-70987042D01*
X240436022Y-71076857D01*
X240620675Y-71170451D01*
X241229768Y-71480446D01*
X241726629Y-71367146D01*
X242166347Y-71284523D01*
X242551783Y-71253387D01*
X242897621Y-71276116D01*
X243218547Y-71355086D01*
X243529246Y-71492676D01*
X243844404Y-71691262D01*
X243877817Y-71715359D01*
X244096794Y-71920957D01*
X244298808Y-72203395D01*
X244480181Y-72555894D01*
X244637230Y-72971675D01*
X244725533Y-73276549D01*
X244785880Y-73565711D01*
X244838510Y-73935270D01*
X244883052Y-74381279D01*
X244919134Y-74899786D01*
X244946386Y-75486844D01*
X244953614Y-75702683D01*
X244964255Y-76041806D01*
X244973878Y-76307900D01*
X244983697Y-76512577D01*
X244994929Y-76667445D01*
X245008788Y-76784114D01*
X245026490Y-76874194D01*
X245049250Y-76949294D01*
X245078282Y-77021025D01*
X245095631Y-77059474D01*
X245183926Y-77219156D01*
X245303715Y-77395226D01*
X245406152Y-77522712D01*
X245570410Y-77724057D01*
X245680377Y-77907470D01*
X245745504Y-78099192D01*
X245775245Y-78325465D01*
X245779809Y-78560083D01*
X245758145Y-78934317D01*
X245703811Y-79305476D01*
X245621531Y-79654112D01*
X245516027Y-79960781D01*
X245392021Y-80206035D01*
X245373011Y-80235013D01*
X245237504Y-80401375D01*
X245093753Y-80497945D01*
X244916038Y-80537773D01*
X244772831Y-80539520D01*
X244505813Y-80529291D01*
X244205285Y-80905644D01*
X244070290Y-81069930D01*
X243940066Y-81220114D01*
X243831591Y-81337049D01*
X243773880Y-81392124D01*
X243643003Y-81502250D01*
X243847335Y-81502177D01*
X243952909Y-81499220D01*
X244133706Y-81490785D01*
X244380500Y-81477458D01*
X244684064Y-81459825D01*
X245035174Y-81438470D01*
X245424602Y-81413980D01*
X245843122Y-81386940D01*
X246281508Y-81357935D01*
X246730534Y-81327550D01*
X247180975Y-81296372D01*
X247623603Y-81264986D01*
X247895487Y-81245282D01*
X248210224Y-81223204D01*
X248499062Y-81204739D01*
X248750770Y-81190463D01*
X248954118Y-81180950D01*
X249097874Y-81176776D01*
X249170808Y-81178517D01*
X249176071Y-81179686D01*
X249222081Y-81235662D01*
X249236255Y-81327976D01*
X249216143Y-81413568D01*
X249190947Y-81441357D01*
X249137357Y-81451656D01*
X249007014Y-81466555D01*
X248807672Y-81485471D01*
X248547086Y-81507821D01*
X248233010Y-81533022D01*
X247873199Y-81560491D01*
X247475408Y-81589645D01*
X247047390Y-81619901D01*
X246596900Y-81650676D01*
X246131693Y-81681387D01*
X245659524Y-81711452D01*
X245321666Y-81732245D01*
X245007472Y-81751588D01*
X244705602Y-81770727D01*
X244431224Y-81788657D01*
X244199504Y-81804375D01*
X244025611Y-81816876D01*
X243941466Y-81823608D01*
X243661933Y-81848260D01*
X243723780Y-82024505D01*
X243757502Y-82176254D01*
X243777178Y-82378683D01*
X243782091Y-82598863D01*
X243771524Y-82803865D01*
X243744763Y-82960757D01*
X243744184Y-82962750D01*
X243701060Y-83054943D01*
X243626869Y-83087667D01*
X243582954Y-83089750D01*
X243459000Y-83089750D01*
X243458784Y-82624083D01*
X243448129Y-82326724D01*
X243417235Y-82097444D01*
X243367253Y-81940268D01*
X243299335Y-81859217D01*
X243237548Y-81850756D01*
X243181802Y-81891988D01*
X243177732Y-81928097D01*
X243187458Y-81997409D01*
X243199666Y-82126171D01*
X243212043Y-82289305D01*
X243214587Y-82327750D01*
X243223156Y-82503540D01*
X243219036Y-82618595D01*
X243198784Y-82696338D01*
X243158958Y-82760194D01*
X243149257Y-82772250D01*
X243078287Y-82841806D01*
X243018489Y-82847680D01*
X242985402Y-82831173D01*
X242945004Y-82791020D01*
X242920209Y-82718648D01*
X242906896Y-82595270D01*
X242901802Y-82450173D01*
X242892544Y-82272736D01*
X242874461Y-82113507D01*
X242851238Y-82003690D01*
X242848043Y-81994695D01*
X242801148Y-81873307D01*
X242410407Y-81900506D01*
X242297951Y-81907263D01*
X242117603Y-81916801D01*
X241881344Y-81928582D01*
X241601151Y-81942069D01*
X241289005Y-81956723D01*
X240956885Y-81972005D01*
X240616771Y-81987379D01*
X240280642Y-82002306D01*
X239960476Y-82016247D01*
X239668255Y-82028665D01*
X239415956Y-82039022D01*
X239215560Y-82046780D01*
X239079046Y-82051401D01*
X239026743Y-82052483D01*
X238983341Y-82059971D01*
X238978317Y-82096961D01*
X239010402Y-82185507D01*
X239018023Y-82203850D01*
X239055483Y-82342277D01*
X239071910Y-82509356D01*
X239068488Y-82680094D01*
X239046403Y-82829502D01*
X239006840Y-82932587D01*
X238982250Y-82958114D01*
X238888871Y-82989441D01*
X238822388Y-82946780D01*
X238781112Y-82827546D01*
X238763351Y-82629151D01*
X238763184Y-82622785D01*
X238739731Y-82373664D01*
X238684681Y-82192827D01*
X238599996Y-82084524D01*
X238500383Y-82052583D01*
X238424196Y-82063395D01*
X238415064Y-82106001D01*
X238422755Y-82126666D01*
X238503190Y-82370787D01*
X238545645Y-82624080D01*
X238549311Y-82864261D01*
X238513380Y-83069047D01*
X238461175Y-83184159D01*
X238397875Y-83262083D01*
X238337735Y-83272023D01*
X238274177Y-83239437D01*
X238242625Y-83197373D01*
X238222922Y-83109966D01*
X238212980Y-82962972D01*
X238210677Y-82806168D01*
X238202436Y-82559358D01*
X238177592Y-82378175D01*
X238136630Y-82251002D01*
X238063594Y-82089589D01*
X236654963Y-82124002D01*
X236265752Y-82132804D01*
X235857710Y-82140774D01*
X235450628Y-82147613D01*
X235064297Y-82153022D01*
X234718508Y-82156703D01*
X234433051Y-82158355D01*
X234378500Y-82158416D01*
X233510666Y-82158416D01*
X233497248Y-82041759D01*
X233505909Y-81944118D01*
X233540734Y-81903265D01*
X233595676Y-81896988D01*
X233724656Y-81889461D01*
X233917062Y-81881083D01*
X234162280Y-81872252D01*
X234449698Y-81863364D01*
X234768705Y-81854819D01*
X234945913Y-81850589D01*
X236294187Y-81819750D01*
X236286576Y-81345275D01*
X236288802Y-81299361D01*
X236595139Y-81299361D01*
X236604744Y-81519133D01*
X236632025Y-81811184D01*
X237547845Y-81783171D01*
X237855907Y-81773410D01*
X238223414Y-81761219D01*
X238625209Y-81747467D01*
X239036136Y-81733021D01*
X239431037Y-81718750D01*
X239649000Y-81710663D01*
X240037452Y-81695490D01*
X240470822Y-81677567D01*
X240920245Y-81658153D01*
X241356862Y-81638506D01*
X241751809Y-81619887D01*
X241920741Y-81611551D01*
X242252805Y-81594577D01*
X242511726Y-81580101D01*
X242708931Y-81566622D01*
X242855852Y-81552639D01*
X242963914Y-81536653D01*
X243044549Y-81517161D01*
X243109184Y-81492664D01*
X243169249Y-81461661D01*
X243200766Y-81443469D01*
X243428916Y-81279004D01*
X243673686Y-81047433D01*
X243923804Y-80761587D01*
X244167999Y-80434300D01*
X244305514Y-80219498D01*
X244707833Y-80219498D01*
X244745010Y-80227926D01*
X244836947Y-80226140D01*
X244862377Y-80224222D01*
X245014023Y-80179913D01*
X245095064Y-80105250D01*
X245189057Y-79936934D01*
X245274879Y-79707632D01*
X245349339Y-79436625D01*
X245409247Y-79143193D01*
X245451413Y-78846618D01*
X245472647Y-78566179D01*
X245469757Y-78321158D01*
X245439555Y-78130834D01*
X245427697Y-78094935D01*
X245381199Y-78005344D01*
X245307218Y-77893672D01*
X245222978Y-77782412D01*
X245145704Y-77694055D01*
X245092620Y-77651093D01*
X245086894Y-77649916D01*
X245066713Y-77688474D01*
X245040895Y-77790403D01*
X245014491Y-77935085D01*
X245010348Y-77962183D01*
X244987673Y-78153775D01*
X244987746Y-78301175D01*
X245011762Y-78442067D01*
X245027470Y-78501933D01*
X245088680Y-78753958D01*
X245115741Y-78970828D01*
X245106062Y-79174962D01*
X245057054Y-79388778D01*
X244966129Y-79634697D01*
X244872187Y-79846526D01*
X244800374Y-80003495D01*
X244744476Y-80129114D01*
X244712433Y-80205368D01*
X244707833Y-80219498D01*
X244305514Y-80219498D01*
X244385328Y-80094827D01*
X244562772Y-79778528D01*
X244688230Y-79512092D01*
X244765026Y-79281279D01*
X244796489Y-79071853D01*
X244785943Y-78869573D01*
X244736716Y-78660203D01*
X244727351Y-78630813D01*
X244677587Y-78362629D01*
X244683738Y-78039725D01*
X244745464Y-77670650D01*
X244769652Y-77571735D01*
X244803987Y-77428432D01*
X244815815Y-77323095D01*
X244803675Y-77220416D01*
X244766108Y-77085088D01*
X244747022Y-77024545D01*
X244719416Y-76929560D01*
X244697145Y-76829147D01*
X244679222Y-76711589D01*
X244664657Y-76565168D01*
X244652461Y-76378167D01*
X244641645Y-76138867D01*
X244631220Y-75835553D01*
X244622933Y-75554416D01*
X244605385Y-75048049D01*
X244582649Y-74613647D01*
X244553297Y-74238589D01*
X244515896Y-73910258D01*
X244469019Y-73616033D01*
X244411234Y-73343296D01*
X244343327Y-73087056D01*
X244199300Y-72679697D01*
X244021624Y-72344450D01*
X243804104Y-72073335D01*
X243540548Y-71858372D01*
X243278372Y-71715052D01*
X243039089Y-71623904D01*
X242799877Y-71572554D01*
X242542870Y-71560506D01*
X242250203Y-71587266D01*
X241904009Y-71652338D01*
X241808000Y-71674300D01*
X241579757Y-71726160D01*
X241359223Y-71773056D01*
X241170792Y-71809998D01*
X241038859Y-71831997D01*
X241033779Y-71832667D01*
X240912068Y-71853041D01*
X240836148Y-71874820D01*
X240822355Y-71887671D01*
X240847247Y-71936303D01*
X240899485Y-72036624D01*
X240957092Y-72146583D01*
X241114551Y-72498001D01*
X241241321Y-72885294D01*
X241334249Y-73289158D01*
X241390179Y-73690290D01*
X241405957Y-74069388D01*
X241378428Y-74407148D01*
X241349392Y-74547049D01*
X241290692Y-74706278D01*
X241207778Y-74856481D01*
X241169476Y-74907341D01*
X241123649Y-74958949D01*
X241074651Y-75009721D01*
X241013861Y-75066943D01*
X240932653Y-75137904D01*
X240822405Y-75229889D01*
X240674493Y-75350187D01*
X240480294Y-75506085D01*
X240231184Y-75704870D01*
X240135833Y-75780824D01*
X239878687Y-75992774D01*
X239586560Y-76245520D01*
X239275378Y-76524292D01*
X238961068Y-76814320D01*
X238659560Y-77100833D01*
X238386779Y-77369062D01*
X238158654Y-77604235D01*
X238093125Y-77675105D01*
X237701609Y-78143095D01*
X237378746Y-78615208D01*
X237110413Y-79113370D01*
X236985840Y-79394581D01*
X236919826Y-79556237D01*
X236868286Y-79686603D01*
X236838418Y-79767258D01*
X236833833Y-79783656D01*
X236864718Y-79770247D01*
X236947029Y-79715533D01*
X237065246Y-79630045D01*
X237112932Y-79594273D01*
X237393450Y-79398312D01*
X237649808Y-79258079D01*
X237907922Y-79161035D01*
X238113974Y-79109924D01*
X238567960Y-78978943D01*
X239009711Y-78779432D01*
X239423509Y-78521775D01*
X239793633Y-78216356D01*
X240104366Y-77873562D01*
X240210964Y-77724600D01*
X240315135Y-77605230D01*
X240413786Y-77568843D01*
X240505133Y-77615977D01*
X240519528Y-77631996D01*
X240543939Y-77706179D01*
X240514276Y-77810675D01*
X240427318Y-77950505D01*
X240279848Y-78130690D01*
X240068645Y-78356251D01*
X240030000Y-78395594D01*
X239675144Y-78718596D01*
X239304675Y-78979202D01*
X238901227Y-79186789D01*
X238447437Y-79350735D01*
X238085112Y-79445797D01*
X237841131Y-79529082D01*
X237578165Y-79664581D01*
X237316009Y-79837661D01*
X237074455Y-80033688D01*
X236873298Y-80238027D01*
X236732332Y-80436043D01*
X236723608Y-80452408D01*
X236671296Y-80600866D01*
X236630574Y-80808320D01*
X236604252Y-81049557D01*
X236595139Y-81299361D01*
X236288802Y-81299361D01*
X236318093Y-80695252D01*
X236432791Y-80054808D01*
X236629427Y-79427101D01*
X236906759Y-78815289D01*
X237263544Y-78222531D01*
X237698540Y-77651986D01*
X237773318Y-77565250D01*
X238015914Y-77301582D01*
X238311511Y-77001649D01*
X238644920Y-76679375D01*
X239000954Y-76348684D01*
X239364425Y-76023499D01*
X239720146Y-75717744D01*
X240052930Y-75445343D01*
X240262833Y-75282913D01*
X240535567Y-75071670D01*
X240742593Y-74896024D01*
X240891382Y-74748996D01*
X240989408Y-74623605D01*
X241014599Y-74580750D01*
X241054223Y-74452162D01*
X241077322Y-74260194D01*
X241084234Y-74024440D01*
X241075295Y-73764490D01*
X241050842Y-73499936D01*
X241011210Y-73250370D01*
X240990106Y-73154677D01*
X240847069Y-72672041D01*
X240668911Y-72263510D01*
X240451876Y-71924547D01*
X240192210Y-71650614D01*
X239886161Y-71437176D01*
X239529973Y-71279694D01*
X239406597Y-71240896D01*
X239223740Y-71171555D01*
X239119154Y-71092803D01*
X239094880Y-71007488D01*
X239152959Y-70918459D01*
X239166997Y-70906492D01*
X239228099Y-70866674D01*
X239303471Y-70844268D01*
X239414559Y-70836377D01*
X239582811Y-70840106D01*
G37*
X239582811Y-70840106D02*
X239639674Y-70842675D01*
X239781355Y-70850666D01*
X239895814Y-70863175D01*
X240000782Y-70886124D01*
X240113986Y-70925439D01*
X240253156Y-70987042D01*
X240436022Y-71076857D01*
X240620675Y-71170451D01*
X241229768Y-71480446D01*
X241726629Y-71367146D01*
X242166347Y-71284523D01*
X242551783Y-71253387D01*
X242897621Y-71276116D01*
X243218547Y-71355086D01*
X243529246Y-71492676D01*
X243844404Y-71691262D01*
X243877817Y-71715359D01*
X244096794Y-71920957D01*
X244298808Y-72203395D01*
X244480181Y-72555894D01*
X244637230Y-72971675D01*
X244725533Y-73276549D01*
X244785880Y-73565711D01*
X244838510Y-73935270D01*
X244883052Y-74381279D01*
X244919134Y-74899786D01*
X244946386Y-75486844D01*
X244953614Y-75702683D01*
X244964255Y-76041806D01*
X244973878Y-76307900D01*
X244983697Y-76512577D01*
X244994929Y-76667445D01*
X245008788Y-76784114D01*
X245026490Y-76874194D01*
X245049250Y-76949294D01*
X245078282Y-77021025D01*
X245095631Y-77059474D01*
X245183926Y-77219156D01*
X245303715Y-77395226D01*
X245406152Y-77522712D01*
X245570410Y-77724057D01*
X245680377Y-77907470D01*
X245745504Y-78099192D01*
X245775245Y-78325465D01*
X245779809Y-78560083D01*
X245758145Y-78934317D01*
X245703811Y-79305476D01*
X245621531Y-79654112D01*
X245516027Y-79960781D01*
X245392021Y-80206035D01*
X245373011Y-80235013D01*
X245237504Y-80401375D01*
X245093753Y-80497945D01*
X244916038Y-80537773D01*
X244772831Y-80539520D01*
X244505813Y-80529291D01*
X244205285Y-80905644D01*
X244070290Y-81069930D01*
X243940066Y-81220114D01*
X243831591Y-81337049D01*
X243773880Y-81392124D01*
X243643003Y-81502250D01*
X243847335Y-81502177D01*
X243952909Y-81499220D01*
X244133706Y-81490785D01*
X244380500Y-81477458D01*
X244684064Y-81459825D01*
X245035174Y-81438470D01*
X245424602Y-81413980D01*
X245843122Y-81386940D01*
X246281508Y-81357935D01*
X246730534Y-81327550D01*
X247180975Y-81296372D01*
X247623603Y-81264986D01*
X247895487Y-81245282D01*
X248210224Y-81223204D01*
X248499062Y-81204739D01*
X248750770Y-81190463D01*
X248954118Y-81180950D01*
X249097874Y-81176776D01*
X249170808Y-81178517D01*
X249176071Y-81179686D01*
X249222081Y-81235662D01*
X249236255Y-81327976D01*
X249216143Y-81413568D01*
X249190947Y-81441357D01*
X249137357Y-81451656D01*
X249007014Y-81466555D01*
X248807672Y-81485471D01*
X248547086Y-81507821D01*
X248233010Y-81533022D01*
X247873199Y-81560491D01*
X247475408Y-81589645D01*
X247047390Y-81619901D01*
X246596900Y-81650676D01*
X246131693Y-81681387D01*
X245659524Y-81711452D01*
X245321666Y-81732245D01*
X245007472Y-81751588D01*
X244705602Y-81770727D01*
X244431224Y-81788657D01*
X244199504Y-81804375D01*
X244025611Y-81816876D01*
X243941466Y-81823608D01*
X243661933Y-81848260D01*
X243723780Y-82024505D01*
X243757502Y-82176254D01*
X243777178Y-82378683D01*
X243782091Y-82598863D01*
X243771524Y-82803865D01*
X243744763Y-82960757D01*
X243744184Y-82962750D01*
X243701060Y-83054943D01*
X243626869Y-83087667D01*
X243582954Y-83089750D01*
X243459000Y-83089750D01*
X243458784Y-82624083D01*
X243448129Y-82326724D01*
X243417235Y-82097444D01*
X243367253Y-81940268D01*
X243299335Y-81859217D01*
X243237548Y-81850756D01*
X243181802Y-81891988D01*
X243177732Y-81928097D01*
X243187458Y-81997409D01*
X243199666Y-82126171D01*
X243212043Y-82289305D01*
X243214587Y-82327750D01*
X243223156Y-82503540D01*
X243219036Y-82618595D01*
X243198784Y-82696338D01*
X243158958Y-82760194D01*
X243149257Y-82772250D01*
X243078287Y-82841806D01*
X243018489Y-82847680D01*
X242985402Y-82831173D01*
X242945004Y-82791020D01*
X242920209Y-82718648D01*
X242906896Y-82595270D01*
X242901802Y-82450173D01*
X242892544Y-82272736D01*
X242874461Y-82113507D01*
X242851238Y-82003690D01*
X242848043Y-81994695D01*
X242801148Y-81873307D01*
X242410407Y-81900506D01*
X242297951Y-81907263D01*
X242117603Y-81916801D01*
X241881344Y-81928582D01*
X241601151Y-81942069D01*
X241289005Y-81956723D01*
X240956885Y-81972005D01*
X240616771Y-81987379D01*
X240280642Y-82002306D01*
X239960476Y-82016247D01*
X239668255Y-82028665D01*
X239415956Y-82039022D01*
X239215560Y-82046780D01*
X239079046Y-82051401D01*
X239026743Y-82052483D01*
X238983341Y-82059971D01*
X238978317Y-82096961D01*
X239010402Y-82185507D01*
X239018023Y-82203850D01*
X239055483Y-82342277D01*
X239071910Y-82509356D01*
X239068488Y-82680094D01*
X239046403Y-82829502D01*
X239006840Y-82932587D01*
X238982250Y-82958114D01*
X238888871Y-82989441D01*
X238822388Y-82946780D01*
X238781112Y-82827546D01*
X238763351Y-82629151D01*
X238763184Y-82622785D01*
X238739731Y-82373664D01*
X238684681Y-82192827D01*
X238599996Y-82084524D01*
X238500383Y-82052583D01*
X238424196Y-82063395D01*
X238415064Y-82106001D01*
X238422755Y-82126666D01*
X238503190Y-82370787D01*
X238545645Y-82624080D01*
X238549311Y-82864261D01*
X238513380Y-83069047D01*
X238461175Y-83184159D01*
X238397875Y-83262083D01*
X238337735Y-83272023D01*
X238274177Y-83239437D01*
X238242625Y-83197373D01*
X238222922Y-83109966D01*
X238212980Y-82962972D01*
X238210677Y-82806168D01*
X238202436Y-82559358D01*
X238177592Y-82378175D01*
X238136630Y-82251002D01*
X238063594Y-82089589D01*
X236654963Y-82124002D01*
X236265752Y-82132804D01*
X235857710Y-82140774D01*
X235450628Y-82147613D01*
X235064297Y-82153022D01*
X234718508Y-82156703D01*
X234433051Y-82158355D01*
X234378500Y-82158416D01*
X233510666Y-82158416D01*
X233497248Y-82041759D01*
X233505909Y-81944118D01*
X233540734Y-81903265D01*
X233595676Y-81896988D01*
X233724656Y-81889461D01*
X233917062Y-81881083D01*
X234162280Y-81872252D01*
X234449698Y-81863364D01*
X234768705Y-81854819D01*
X234945913Y-81850589D01*
X236294187Y-81819750D01*
X236286576Y-81345275D01*
X236288802Y-81299361D01*
X236595139Y-81299361D01*
X236604744Y-81519133D01*
X236632025Y-81811184D01*
X237547845Y-81783171D01*
X237855907Y-81773410D01*
X238223414Y-81761219D01*
X238625209Y-81747467D01*
X239036136Y-81733021D01*
X239431037Y-81718750D01*
X239649000Y-81710663D01*
X240037452Y-81695490D01*
X240470822Y-81677567D01*
X240920245Y-81658153D01*
X241356862Y-81638506D01*
X241751809Y-81619887D01*
X241920741Y-81611551D01*
X242252805Y-81594577D01*
X242511726Y-81580101D01*
X242708931Y-81566622D01*
X242855852Y-81552639D01*
X242963914Y-81536653D01*
X243044549Y-81517161D01*
X243109184Y-81492664D01*
X243169249Y-81461661D01*
X243200766Y-81443469D01*
X243428916Y-81279004D01*
X243673686Y-81047433D01*
X243923804Y-80761587D01*
X244167999Y-80434300D01*
X244305514Y-80219498D01*
X244707833Y-80219498D01*
X244745010Y-80227926D01*
X244836947Y-80226140D01*
X244862377Y-80224222D01*
X245014023Y-80179913D01*
X245095064Y-80105250D01*
X245189057Y-79936934D01*
X245274879Y-79707632D01*
X245349339Y-79436625D01*
X245409247Y-79143193D01*
X245451413Y-78846618D01*
X245472647Y-78566179D01*
X245469757Y-78321158D01*
X245439555Y-78130834D01*
X245427697Y-78094935D01*
X245381199Y-78005344D01*
X245307218Y-77893672D01*
X245222978Y-77782412D01*
X245145704Y-77694055D01*
X245092620Y-77651093D01*
X245086894Y-77649916D01*
X245066713Y-77688474D01*
X245040895Y-77790403D01*
X245014491Y-77935085D01*
X245010348Y-77962183D01*
X244987673Y-78153775D01*
X244987746Y-78301175D01*
X245011762Y-78442067D01*
X245027470Y-78501933D01*
X245088680Y-78753958D01*
X245115741Y-78970828D01*
X245106062Y-79174962D01*
X245057054Y-79388778D01*
X244966129Y-79634697D01*
X244872187Y-79846526D01*
X244800374Y-80003495D01*
X244744476Y-80129114D01*
X244712433Y-80205368D01*
X244707833Y-80219498D01*
X244305514Y-80219498D01*
X244385328Y-80094827D01*
X244562772Y-79778528D01*
X244688230Y-79512092D01*
X244765026Y-79281279D01*
X244796489Y-79071853D01*
X244785943Y-78869573D01*
X244736716Y-78660203D01*
X244727351Y-78630813D01*
X244677587Y-78362629D01*
X244683738Y-78039725D01*
X244745464Y-77670650D01*
X244769652Y-77571735D01*
X244803987Y-77428432D01*
X244815815Y-77323095D01*
X244803675Y-77220416D01*
X244766108Y-77085088D01*
X244747022Y-77024545D01*
X244719416Y-76929560D01*
X244697145Y-76829147D01*
X244679222Y-76711589D01*
X244664657Y-76565168D01*
X244652461Y-76378167D01*
X244641645Y-76138867D01*
X244631220Y-75835553D01*
X244622933Y-75554416D01*
X244605385Y-75048049D01*
X244582649Y-74613647D01*
X244553297Y-74238589D01*
X244515896Y-73910258D01*
X244469019Y-73616033D01*
X244411234Y-73343296D01*
X244343327Y-73087056D01*
X244199300Y-72679697D01*
X244021624Y-72344450D01*
X243804104Y-72073335D01*
X243540548Y-71858372D01*
X243278372Y-71715052D01*
X243039089Y-71623904D01*
X242799877Y-71572554D01*
X242542870Y-71560506D01*
X242250203Y-71587266D01*
X241904009Y-71652338D01*
X241808000Y-71674300D01*
X241579757Y-71726160D01*
X241359223Y-71773056D01*
X241170792Y-71809998D01*
X241038859Y-71831997D01*
X241033779Y-71832667D01*
X240912068Y-71853041D01*
X240836148Y-71874820D01*
X240822355Y-71887671D01*
X240847247Y-71936303D01*
X240899485Y-72036624D01*
X240957092Y-72146583D01*
X241114551Y-72498001D01*
X241241321Y-72885294D01*
X241334249Y-73289158D01*
X241390179Y-73690290D01*
X241405957Y-74069388D01*
X241378428Y-74407148D01*
X241349392Y-74547049D01*
X241290692Y-74706278D01*
X241207778Y-74856481D01*
X241169476Y-74907341D01*
X241123649Y-74958949D01*
X241074651Y-75009721D01*
X241013861Y-75066943D01*
X240932653Y-75137904D01*
X240822405Y-75229889D01*
X240674493Y-75350187D01*
X240480294Y-75506085D01*
X240231184Y-75704870D01*
X240135833Y-75780824D01*
X239878687Y-75992774D01*
X239586560Y-76245520D01*
X239275378Y-76524292D01*
X238961068Y-76814320D01*
X238659560Y-77100833D01*
X238386779Y-77369062D01*
X238158654Y-77604235D01*
X238093125Y-77675105D01*
X237701609Y-78143095D01*
X237378746Y-78615208D01*
X237110413Y-79113370D01*
X236985840Y-79394581D01*
X236919826Y-79556237D01*
X236868286Y-79686603D01*
X236838418Y-79767258D01*
X236833833Y-79783656D01*
X236864718Y-79770247D01*
X236947029Y-79715533D01*
X237065246Y-79630045D01*
X237112932Y-79594273D01*
X237393450Y-79398312D01*
X237649808Y-79258079D01*
X237907922Y-79161035D01*
X238113974Y-79109924D01*
X238567960Y-78978943D01*
X239009711Y-78779432D01*
X239423509Y-78521775D01*
X239793633Y-78216356D01*
X240104366Y-77873562D01*
X240210964Y-77724600D01*
X240315135Y-77605230D01*
X240413786Y-77568843D01*
X240505133Y-77615977D01*
X240519528Y-77631996D01*
X240543939Y-77706179D01*
X240514276Y-77810675D01*
X240427318Y-77950505D01*
X240279848Y-78130690D01*
X240068645Y-78356251D01*
X240030000Y-78395594D01*
X239675144Y-78718596D01*
X239304675Y-78979202D01*
X238901227Y-79186789D01*
X238447437Y-79350735D01*
X238085112Y-79445797D01*
X237841131Y-79529082D01*
X237578165Y-79664581D01*
X237316009Y-79837661D01*
X237074455Y-80033688D01*
X236873298Y-80238027D01*
X236732332Y-80436043D01*
X236723608Y-80452408D01*
X236671296Y-80600866D01*
X236630574Y-80808320D01*
X236604252Y-81049557D01*
X236595139Y-81299361D01*
X236288802Y-81299361D01*
X236318093Y-80695252D01*
X236432791Y-80054808D01*
X236629427Y-79427101D01*
X236906759Y-78815289D01*
X237263544Y-78222531D01*
X237698540Y-77651986D01*
X237773318Y-77565250D01*
X238015914Y-77301582D01*
X238311511Y-77001649D01*
X238644920Y-76679375D01*
X239000954Y-76348684D01*
X239364425Y-76023499D01*
X239720146Y-75717744D01*
X240052930Y-75445343D01*
X240262833Y-75282913D01*
X240535567Y-75071670D01*
X240742593Y-74896024D01*
X240891382Y-74748996D01*
X240989408Y-74623605D01*
X241014599Y-74580750D01*
X241054223Y-74452162D01*
X241077322Y-74260194D01*
X241084234Y-74024440D01*
X241075295Y-73764490D01*
X241050842Y-73499936D01*
X241011210Y-73250370D01*
X240990106Y-73154677D01*
X240847069Y-72672041D01*
X240668911Y-72263510D01*
X240451876Y-71924547D01*
X240192210Y-71650614D01*
X239886161Y-71437176D01*
X239529973Y-71279694D01*
X239406597Y-71240896D01*
X239223740Y-71171555D01*
X239119154Y-71092803D01*
X239094880Y-71007488D01*
X239152959Y-70918459D01*
X239166997Y-70906492D01*
X239228099Y-70866674D01*
X239303471Y-70844268D01*
X239414559Y-70836377D01*
X239582811Y-70840106D01*
G36*
X249175445Y-83604162D02*
G01*
X249229937Y-83661970D01*
X249234527Y-83750313D01*
X249193493Y-83834668D01*
X249142250Y-83871913D01*
X249083113Y-83882327D01*
X248946187Y-83898266D01*
X248738129Y-83919204D01*
X248465600Y-83944617D01*
X248135259Y-83973979D01*
X247753767Y-84006766D01*
X247327781Y-84042451D01*
X246863963Y-84080509D01*
X246368972Y-84120416D01*
X245849467Y-84161645D01*
X245312108Y-84203672D01*
X244763555Y-84245972D01*
X244210467Y-84288019D01*
X243659504Y-84329287D01*
X243117326Y-84369252D01*
X242590591Y-84407389D01*
X242085961Y-84443171D01*
X241610094Y-84476075D01*
X241169650Y-84505573D01*
X240834333Y-84527185D01*
X240445650Y-84550553D01*
X240005665Y-84575004D01*
X239524296Y-84600127D01*
X239011460Y-84625509D01*
X238477074Y-84650738D01*
X237931054Y-84675399D01*
X237383318Y-84699082D01*
X236843782Y-84721374D01*
X236322363Y-84741861D01*
X235828979Y-84760131D01*
X235373547Y-84775771D01*
X234965982Y-84788370D01*
X234616203Y-84797513D01*
X234334126Y-84802789D01*
X234182600Y-84803960D01*
X233958549Y-84801197D01*
X233805962Y-84791574D01*
X233711802Y-84773579D01*
X233663034Y-84745701D01*
X233661079Y-84743456D01*
X233630955Y-84656199D01*
X233668869Y-84574900D01*
X233759411Y-84519833D01*
X233840239Y-84507708D01*
X234005632Y-84505537D01*
X234246390Y-84499656D01*
X234553312Y-84490445D01*
X234917195Y-84478285D01*
X235328836Y-84463555D01*
X235779034Y-84446635D01*
X236258586Y-84427906D01*
X236758290Y-84407746D01*
X237268944Y-84386536D01*
X237781345Y-84364656D01*
X238286290Y-84342486D01*
X238774579Y-84320406D01*
X239237008Y-84298794D01*
X239664375Y-84278033D01*
X240047478Y-84258501D01*
X240377114Y-84240578D01*
X240538000Y-84231200D01*
X240904972Y-84208134D01*
X241346668Y-84178684D01*
X241853444Y-84143571D01*
X242415655Y-84103511D01*
X243023657Y-84059222D01*
X243667806Y-84011423D01*
X244338457Y-83960831D01*
X245025966Y-83908165D01*
X245720688Y-83854142D01*
X246412980Y-83799480D01*
X247093196Y-83744898D01*
X247344528Y-83724488D01*
X247724472Y-83694198D01*
X248079372Y-83667192D01*
X248400094Y-83644070D01*
X248677505Y-83625434D01*
X248902473Y-83611882D01*
X249065864Y-83604016D01*
X249158545Y-83602435D01*
X249175445Y-83604162D01*
G37*
X249175445Y-83604162D02*
X249229937Y-83661970D01*
X249234527Y-83750313D01*
X249193493Y-83834668D01*
X249142250Y-83871913D01*
X249083113Y-83882327D01*
X248946187Y-83898266D01*
X248738129Y-83919204D01*
X248465600Y-83944617D01*
X248135259Y-83973979D01*
X247753767Y-84006766D01*
X247327781Y-84042451D01*
X246863963Y-84080509D01*
X246368972Y-84120416D01*
X245849467Y-84161645D01*
X245312108Y-84203672D01*
X244763555Y-84245972D01*
X244210467Y-84288019D01*
X243659504Y-84329287D01*
X243117326Y-84369252D01*
X242590591Y-84407389D01*
X242085961Y-84443171D01*
X241610094Y-84476075D01*
X241169650Y-84505573D01*
X240834333Y-84527185D01*
X240445650Y-84550553D01*
X240005665Y-84575004D01*
X239524296Y-84600127D01*
X239011460Y-84625509D01*
X238477074Y-84650738D01*
X237931054Y-84675399D01*
X237383318Y-84699082D01*
X236843782Y-84721374D01*
X236322363Y-84741861D01*
X235828979Y-84760131D01*
X235373547Y-84775771D01*
X234965982Y-84788370D01*
X234616203Y-84797513D01*
X234334126Y-84802789D01*
X234182600Y-84803960D01*
X233958549Y-84801197D01*
X233805962Y-84791574D01*
X233711802Y-84773579D01*
X233663034Y-84745701D01*
X233661079Y-84743456D01*
X233630955Y-84656199D01*
X233668869Y-84574900D01*
X233759411Y-84519833D01*
X233840239Y-84507708D01*
X234005632Y-84505537D01*
X234246390Y-84499656D01*
X234553312Y-84490445D01*
X234917195Y-84478285D01*
X235328836Y-84463555D01*
X235779034Y-84446635D01*
X236258586Y-84427906D01*
X236758290Y-84407746D01*
X237268944Y-84386536D01*
X237781345Y-84364656D01*
X238286290Y-84342486D01*
X238774579Y-84320406D01*
X239237008Y-84298794D01*
X239664375Y-84278033D01*
X240047478Y-84258501D01*
X240377114Y-84240578D01*
X240538000Y-84231200D01*
X240904972Y-84208134D01*
X241346668Y-84178684D01*
X241853444Y-84143571D01*
X242415655Y-84103511D01*
X243023657Y-84059222D01*
X243667806Y-84011423D01*
X244338457Y-83960831D01*
X245025966Y-83908165D01*
X245720688Y-83854142D01*
X246412980Y-83799480D01*
X247093196Y-83744898D01*
X247344528Y-83724488D01*
X247724472Y-83694198D01*
X248079372Y-83667192D01*
X248400094Y-83644070D01*
X248677505Y-83625434D01*
X248902473Y-83611882D01*
X249065864Y-83604016D01*
X249158545Y-83602435D01*
X249175445Y-83604162D01*
D11*
%TO.C,ENC1*%
X154836500Y-113237250D02*
X154836500Y-112237250D01*
X154336500Y-112737250D02*
X155336500Y-112737250D01*
X158336500Y-106637250D02*
X160736500Y-106637250D01*
X153536500Y-106637250D02*
X156136500Y-106637250D01*
X148936500Y-106637250D02*
X151336500Y-106637250D01*
X150736500Y-119937250D02*
X151036500Y-120237250D01*
X150736500Y-120537250D02*
X150736500Y-119937250D01*
X151036500Y-120237250D02*
X150736500Y-120537250D01*
X148936500Y-118837250D02*
X160736500Y-118837250D01*
X148936500Y-114737250D02*
X148936500Y-118837250D01*
X160736500Y-114737250D02*
X160736500Y-118837250D01*
X160736500Y-106637250D02*
X160736500Y-110737250D01*
X148936500Y-110737250D02*
X148936500Y-106637250D01*
X157836500Y-112737250D02*
G75*
G03*
X157836500Y-112737250I-3000000J0D01*
G01*
D12*
%TO.C,U1*%
X247650000Y-31750000D02*
X250190000Y-31750000D01*
X247650000Y-29210000D02*
X247650000Y-31750000D01*
D13*
G36*
X235255365Y-35499030D02*
G01*
X235255365Y-35599030D01*
X235155365Y-35599030D01*
X235155365Y-35499030D01*
X235255365Y-35499030D01*
G37*
X235255365Y-35499030D02*
X235255365Y-35599030D01*
X235155365Y-35599030D01*
X235155365Y-35499030D01*
X235255365Y-35499030D01*
G36*
X235055365Y-35099030D02*
G01*
X235055365Y-35899030D01*
X234955365Y-35899030D01*
X234955365Y-35099030D01*
X235055365Y-35099030D01*
G37*
X235055365Y-35099030D02*
X235055365Y-35899030D01*
X234955365Y-35899030D01*
X234955365Y-35099030D01*
X235055365Y-35099030D01*
G36*
X235455365Y-35699030D02*
G01*
X235455365Y-35899030D01*
X235355365Y-35899030D01*
X235355365Y-35699030D01*
X235455365Y-35699030D01*
G37*
X235455365Y-35699030D02*
X235455365Y-35899030D01*
X235355365Y-35899030D01*
X235355365Y-35699030D01*
X235455365Y-35699030D01*
G36*
X235455365Y-35099030D02*
G01*
X235455365Y-35399030D01*
X235355365Y-35399030D01*
X235355365Y-35099030D01*
X235455365Y-35099030D01*
G37*
X235455365Y-35099030D02*
X235455365Y-35399030D01*
X235355365Y-35399030D01*
X235355365Y-35099030D01*
X235455365Y-35099030D01*
G36*
X235455365Y-35099030D02*
G01*
X235455365Y-35199030D01*
X234955365Y-35199030D01*
X234955365Y-35099030D01*
X235455365Y-35099030D01*
G37*
X235455365Y-35099030D02*
X235455365Y-35199030D01*
X234955365Y-35199030D01*
X234955365Y-35099030D01*
X235455365Y-35099030D01*
D12*
X232410000Y-59690000D02*
X232410000Y-26670000D01*
X250190000Y-59690000D02*
X232410000Y-59690000D01*
X250190000Y-26670000D02*
X250190000Y-59690000D01*
X232410000Y-26670000D02*
X250190000Y-26670000D01*
X247650000Y-29210000D02*
X250190000Y-29210000D01*
D11*
%TO.C,SW0*%
X239061500Y-68206250D02*
X243561500Y-68206250D01*
X237811500Y-64206250D02*
X237811500Y-65706250D01*
X243561500Y-61706250D02*
X239061500Y-61706250D01*
X244811500Y-65706250D02*
X244811500Y-64206250D01*
%TO.C,J1*%
X252214257Y-94293263D02*
X252897270Y-94110250D01*
X252714257Y-93427237D02*
X252214257Y-94293263D01*
X252897270Y-94110250D02*
X252714257Y-93427237D01*
X257807077Y-86206214D02*
X252107077Y-96078903D01*
X252107077Y-96078903D02*
X256090794Y-98378903D01*
X258429063Y-99728903D02*
X257476435Y-99178903D01*
X263089832Y-89256214D02*
X264129063Y-89856214D01*
X257807077Y-86206214D02*
X258066885Y-86356214D01*
X264489832Y-86831343D02*
X259466885Y-83931343D01*
X264129063Y-89856214D02*
X258429063Y-99728903D01*
X263089832Y-89256214D02*
X264489832Y-86831343D01*
X258066885Y-86356214D02*
X259466885Y-83931343D01*
%TO.C,ENC1*%
D13*
X147565071Y-119151535D02*
X147565071Y-118818202D01*
X148088880Y-118675345D02*
X148088880Y-119151535D01*
X147088880Y-119151535D01*
X147088880Y-118675345D01*
X148088880Y-118246773D02*
X147088880Y-118246773D01*
X148088880Y-117675345D01*
X147088880Y-117675345D01*
X147993642Y-116627726D02*
X148041261Y-116675345D01*
X148088880Y-116818202D01*
X148088880Y-116913440D01*
X148041261Y-117056297D01*
X147946023Y-117151535D01*
X147850785Y-117199154D01*
X147660309Y-117246773D01*
X147517452Y-117246773D01*
X147326976Y-117199154D01*
X147231738Y-117151535D01*
X147136500Y-117056297D01*
X147088880Y-116913440D01*
X147088880Y-116818202D01*
X147136500Y-116675345D01*
X147184119Y-116627726D01*
X148088880Y-115675345D02*
X148088880Y-116246773D01*
X148088880Y-115961059D02*
X147088880Y-115961059D01*
X147231738Y-116056297D01*
X147326976Y-116151535D01*
X147374595Y-116246773D01*
%TO.C,U1*%
X243249523Y-57211904D02*
X243249523Y-56411904D01*
X243440000Y-56411904D01*
X243554285Y-56450000D01*
X243630476Y-56526190D01*
X243668571Y-56602380D01*
X243706666Y-56754761D01*
X243706666Y-56869047D01*
X243668571Y-57021428D01*
X243630476Y-57097619D01*
X243554285Y-57173809D01*
X243440000Y-57211904D01*
X243249523Y-57211904D01*
X244430476Y-56411904D02*
X244049523Y-56411904D01*
X244011428Y-56792857D01*
X244049523Y-56754761D01*
X244125714Y-56716666D01*
X244316190Y-56716666D01*
X244392380Y-56754761D01*
X244430476Y-56792857D01*
X244468571Y-56869047D01*
X244468571Y-57059523D01*
X244430476Y-57135714D01*
X244392380Y-57173809D01*
X244316190Y-57211904D01*
X244125714Y-57211904D01*
X244049523Y-57173809D01*
X244011428Y-57135714D01*
X238493333Y-56792857D02*
X238226666Y-56792857D01*
X238226666Y-57211904D02*
X238226666Y-56411904D01*
X238607619Y-56411904D01*
X239331428Y-57211904D02*
X238874285Y-57211904D01*
X239102857Y-57211904D02*
X239102857Y-56411904D01*
X239026666Y-56526190D01*
X238950476Y-56602380D01*
X238874285Y-56640476D01*
X241166666Y-57135714D02*
X241128571Y-57173809D01*
X241014285Y-57211904D01*
X240938095Y-57211904D01*
X240823809Y-57173809D01*
X240747619Y-57097619D01*
X240709523Y-57021428D01*
X240671428Y-56869047D01*
X240671428Y-56754761D01*
X240709523Y-56602380D01*
X240747619Y-56526190D01*
X240823809Y-56450000D01*
X240938095Y-56411904D01*
X241014285Y-56411904D01*
X241128571Y-56450000D01*
X241166666Y-56488095D01*
X241433333Y-56411904D02*
X241966666Y-56411904D01*
X241623809Y-57211904D01*
X235064991Y-57385702D02*
X235017851Y-57291421D01*
X235017851Y-57244280D01*
X235041421Y-57173570D01*
X235112132Y-57102859D01*
X235182842Y-57079289D01*
X235229983Y-57079289D01*
X235300693Y-57102859D01*
X235489255Y-57291421D01*
X234994280Y-57786396D01*
X234829289Y-57621404D01*
X234805719Y-57550693D01*
X234805719Y-57503553D01*
X234829289Y-57432842D01*
X234876429Y-57385702D01*
X234947140Y-57362132D01*
X234994280Y-57362132D01*
X235064991Y-57385702D01*
X235229983Y-57550693D01*
X234287174Y-57079289D02*
X234381455Y-57173570D01*
X234452165Y-57197140D01*
X234499306Y-57197140D01*
X234617157Y-57173570D01*
X234735008Y-57102859D01*
X234923570Y-56914297D01*
X234947140Y-56843587D01*
X234947140Y-56796446D01*
X234923570Y-56725735D01*
X234829289Y-56631455D01*
X234758578Y-56607884D01*
X234711438Y-56607884D01*
X234640727Y-56631455D01*
X234522876Y-56749306D01*
X234499306Y-56820016D01*
X234499306Y-56867157D01*
X234522876Y-56937867D01*
X234617157Y-57032148D01*
X234687867Y-57055719D01*
X234735008Y-57055719D01*
X234805719Y-57032148D01*
X236566666Y-57000000D02*
X236333333Y-57000000D01*
X236333333Y-57366666D02*
X236333333Y-56666666D01*
X236666666Y-56666666D01*
X237066666Y-56666666D02*
X237133333Y-56666666D01*
X237200000Y-56700000D01*
X237233333Y-56733333D01*
X237266666Y-56800000D01*
X237300000Y-56933333D01*
X237300000Y-57100000D01*
X237266666Y-57233333D01*
X237233333Y-57300000D01*
X237200000Y-57333333D01*
X237133333Y-57366666D01*
X237066666Y-57366666D01*
X237000000Y-57333333D01*
X236966666Y-57300000D01*
X236933333Y-57233333D01*
X236900000Y-57100000D01*
X236900000Y-56933333D01*
X236933333Y-56800000D01*
X236966666Y-56733333D01*
X237000000Y-56700000D01*
X237066666Y-56666666D01*
X245516666Y-57000000D02*
X245616666Y-57033333D01*
X245650000Y-57066666D01*
X245683333Y-57133333D01*
X245683333Y-57233333D01*
X245650000Y-57300000D01*
X245616666Y-57333333D01*
X245550000Y-57366666D01*
X245283333Y-57366666D01*
X245283333Y-56666666D01*
X245516666Y-56666666D01*
X245583333Y-56700000D01*
X245616666Y-56733333D01*
X245650000Y-56800000D01*
X245650000Y-56866666D01*
X245616666Y-56933333D01*
X245583333Y-56966666D01*
X245516666Y-57000000D01*
X245283333Y-57000000D01*
X245916666Y-56666666D02*
X246383333Y-56666666D01*
X246083333Y-57366666D01*
X235726666Y-35863809D02*
X235840952Y-35901904D01*
X236031428Y-35901904D01*
X236107619Y-35863809D01*
X236145714Y-35825714D01*
X236183809Y-35749523D01*
X236183809Y-35673333D01*
X236145714Y-35597142D01*
X236107619Y-35559047D01*
X236031428Y-35520952D01*
X235879047Y-35482857D01*
X235802857Y-35444761D01*
X235764761Y-35406666D01*
X235726666Y-35330476D01*
X235726666Y-35254285D01*
X235764761Y-35178095D01*
X235802857Y-35140000D01*
X235879047Y-35101904D01*
X236069523Y-35101904D01*
X236183809Y-35140000D01*
X236412380Y-35101904D02*
X236869523Y-35101904D01*
X236640952Y-35901904D02*
X236640952Y-35101904D01*
X242681395Y-30041904D02*
X243138538Y-30041904D01*
X242909967Y-30841904D02*
X242909967Y-30041904D01*
X243329014Y-30041904D02*
X243862348Y-30841904D01*
X243862348Y-30041904D02*
X243329014Y-30841904D01*
X244319491Y-30041904D02*
X244395681Y-30041904D01*
X244471872Y-30080000D01*
X244509967Y-30118095D01*
X244548062Y-30194285D01*
X244586157Y-30346666D01*
X244586157Y-30537142D01*
X244548062Y-30689523D01*
X244509967Y-30765714D01*
X244471872Y-30803809D01*
X244395681Y-30841904D01*
X244319491Y-30841904D01*
X244243300Y-30803809D01*
X244205205Y-30765714D01*
X244167110Y-30689523D01*
X244129014Y-30537142D01*
X244129014Y-30346666D01*
X244167110Y-30194285D01*
X244205205Y-30118095D01*
X244243300Y-30080000D01*
X244319491Y-30041904D01*
X245500443Y-30003809D02*
X244814729Y-31032380D01*
X245767110Y-30841904D02*
X245767110Y-30041904D01*
X245957586Y-30041904D01*
X246071872Y-30080000D01*
X246148062Y-30156190D01*
X246186157Y-30232380D01*
X246224252Y-30384761D01*
X246224252Y-30499047D01*
X246186157Y-30651428D01*
X246148062Y-30727619D01*
X246071872Y-30803809D01*
X245957586Y-30841904D01*
X245767110Y-30841904D01*
X246490919Y-30041904D02*
X246986157Y-30041904D01*
X246719491Y-30346666D01*
X246833776Y-30346666D01*
X246909967Y-30384761D01*
X246948062Y-30422857D01*
X246986157Y-30499047D01*
X246986157Y-30689523D01*
X246948062Y-30765714D01*
X246909967Y-30803809D01*
X246833776Y-30841904D01*
X246605205Y-30841904D01*
X246529014Y-30803809D01*
X246490919Y-30765714D01*
X235515190Y-55822857D02*
X235629476Y-55860952D01*
X235667571Y-55899047D01*
X235705666Y-55975238D01*
X235705666Y-56089523D01*
X235667571Y-56165714D01*
X235629476Y-56203809D01*
X235553285Y-56241904D01*
X235248523Y-56241904D01*
X235248523Y-55441904D01*
X235515190Y-55441904D01*
X235591380Y-55480000D01*
X235629476Y-55518095D01*
X235667571Y-55594285D01*
X235667571Y-55670476D01*
X235629476Y-55746666D01*
X235591380Y-55784761D01*
X235515190Y-55822857D01*
X235248523Y-55822857D01*
X236010428Y-55518095D02*
X236048523Y-55480000D01*
X236124714Y-55441904D01*
X236315190Y-55441904D01*
X236391380Y-55480000D01*
X236429476Y-55518095D01*
X236467571Y-55594285D01*
X236467571Y-55670476D01*
X236429476Y-55784761D01*
X235972333Y-56241904D01*
X236467571Y-56241904D01*
X235572333Y-48202857D02*
X235305666Y-48202857D01*
X235305666Y-48621904D02*
X235305666Y-47821904D01*
X235686619Y-47821904D01*
X235915190Y-47821904D02*
X236448523Y-47821904D01*
X236105666Y-48621904D01*
X235572333Y-45662857D02*
X235305666Y-45662857D01*
X235305666Y-46081904D02*
X235305666Y-45281904D01*
X235686619Y-45281904D01*
X236334238Y-45281904D02*
X236181857Y-45281904D01*
X236105666Y-45320000D01*
X236067571Y-45358095D01*
X235991380Y-45472380D01*
X235953285Y-45624761D01*
X235953285Y-45929523D01*
X235991380Y-46005714D01*
X236029476Y-46043809D01*
X236105666Y-46081904D01*
X236258047Y-46081904D01*
X236334238Y-46043809D01*
X236372333Y-46005714D01*
X236410428Y-45929523D01*
X236410428Y-45739047D01*
X236372333Y-45662857D01*
X236334238Y-45624761D01*
X236258047Y-45586666D01*
X236105666Y-45586666D01*
X236029476Y-45624761D01*
X235991380Y-45662857D01*
X235953285Y-45739047D01*
X235572333Y-43122857D02*
X235305666Y-43122857D01*
X235305666Y-43541904D02*
X235305666Y-42741904D01*
X235686619Y-42741904D01*
X236372333Y-42741904D02*
X235991380Y-42741904D01*
X235953285Y-43122857D01*
X235991380Y-43084761D01*
X236067571Y-43046666D01*
X236258047Y-43046666D01*
X236334238Y-43084761D01*
X236372333Y-43122857D01*
X236410428Y-43199047D01*
X236410428Y-43389523D01*
X236372333Y-43465714D01*
X236334238Y-43503809D01*
X236258047Y-43541904D01*
X236067571Y-43541904D01*
X235991380Y-43503809D01*
X235953285Y-43465714D01*
X235515190Y-30422857D02*
X235629476Y-30460952D01*
X235667571Y-30499047D01*
X235705666Y-30575238D01*
X235705666Y-30689523D01*
X235667571Y-30765714D01*
X235629476Y-30803809D01*
X235553285Y-30841904D01*
X235248523Y-30841904D01*
X235248523Y-30041904D01*
X235515190Y-30041904D01*
X235591380Y-30080000D01*
X235629476Y-30118095D01*
X235667571Y-30194285D01*
X235667571Y-30270476D01*
X235629476Y-30346666D01*
X235591380Y-30384761D01*
X235515190Y-30422857D01*
X235248523Y-30422857D01*
X236200904Y-30041904D02*
X236277095Y-30041904D01*
X236353285Y-30080000D01*
X236391380Y-30118095D01*
X236429476Y-30194285D01*
X236467571Y-30346666D01*
X236467571Y-30537142D01*
X236429476Y-30689523D01*
X236391380Y-30765714D01*
X236353285Y-30803809D01*
X236277095Y-30841904D01*
X236200904Y-30841904D01*
X236124714Y-30803809D01*
X236086619Y-30765714D01*
X236048523Y-30689523D01*
X236010428Y-30537142D01*
X236010428Y-30346666D01*
X236048523Y-30194285D01*
X236086619Y-30118095D01*
X236124714Y-30080000D01*
X236200904Y-30041904D01*
X235229476Y-32620000D02*
X235153285Y-32581904D01*
X235039000Y-32581904D01*
X234924714Y-32620000D01*
X234848523Y-32696190D01*
X234810428Y-32772380D01*
X234772333Y-32924761D01*
X234772333Y-33039047D01*
X234810428Y-33191428D01*
X234848523Y-33267619D01*
X234924714Y-33343809D01*
X235039000Y-33381904D01*
X235115190Y-33381904D01*
X235229476Y-33343809D01*
X235267571Y-33305714D01*
X235267571Y-33039047D01*
X235115190Y-33039047D01*
X235610428Y-33381904D02*
X235610428Y-32581904D01*
X236067571Y-33381904D01*
X236067571Y-32581904D01*
X236448523Y-33381904D02*
X236448523Y-32581904D01*
X236639000Y-32581904D01*
X236753285Y-32620000D01*
X236829476Y-32696190D01*
X236867571Y-32772380D01*
X236905666Y-32924761D01*
X236905666Y-33039047D01*
X236867571Y-33191428D01*
X236829476Y-33267619D01*
X236753285Y-33343809D01*
X236639000Y-33381904D01*
X236448523Y-33381904D01*
X234772333Y-37661904D02*
X235039000Y-38461904D01*
X235305666Y-37661904D01*
X236029476Y-38385714D02*
X235991380Y-38423809D01*
X235877095Y-38461904D01*
X235800904Y-38461904D01*
X235686619Y-38423809D01*
X235610428Y-38347619D01*
X235572333Y-38271428D01*
X235534238Y-38119047D01*
X235534238Y-38004761D01*
X235572333Y-37852380D01*
X235610428Y-37776190D01*
X235686619Y-37700000D01*
X235800904Y-37661904D01*
X235877095Y-37661904D01*
X235991380Y-37700000D01*
X236029476Y-37738095D01*
X236829476Y-38385714D02*
X236791380Y-38423809D01*
X236677095Y-38461904D01*
X236600904Y-38461904D01*
X236486619Y-38423809D01*
X236410428Y-38347619D01*
X236372333Y-38271428D01*
X236334238Y-38119047D01*
X236334238Y-38004761D01*
X236372333Y-37852380D01*
X236410428Y-37776190D01*
X236486619Y-37700000D01*
X236600904Y-37661904D01*
X236677095Y-37661904D01*
X236791380Y-37700000D01*
X236829476Y-37738095D01*
X235572333Y-40582857D02*
X235305666Y-40582857D01*
X235305666Y-41001904D02*
X235305666Y-40201904D01*
X235686619Y-40201904D01*
X236334238Y-40468571D02*
X236334238Y-41001904D01*
X236143761Y-40163809D02*
X235953285Y-40735238D01*
X236448523Y-40735238D01*
X235515190Y-50742857D02*
X235629476Y-50780952D01*
X235667571Y-50819047D01*
X235705666Y-50895238D01*
X235705666Y-51009523D01*
X235667571Y-51085714D01*
X235629476Y-51123809D01*
X235553285Y-51161904D01*
X235248523Y-51161904D01*
X235248523Y-50361904D01*
X235515190Y-50361904D01*
X235591380Y-50400000D01*
X235629476Y-50438095D01*
X235667571Y-50514285D01*
X235667571Y-50590476D01*
X235629476Y-50666666D01*
X235591380Y-50704761D01*
X235515190Y-50742857D01*
X235248523Y-50742857D01*
X236467571Y-51161904D02*
X236010428Y-51161904D01*
X236239000Y-51161904D02*
X236239000Y-50361904D01*
X236162809Y-50476190D01*
X236086619Y-50552380D01*
X236010428Y-50590476D01*
X235515190Y-53282857D02*
X235629476Y-53320952D01*
X235667571Y-53359047D01*
X235705666Y-53435238D01*
X235705666Y-53549523D01*
X235667571Y-53625714D01*
X235629476Y-53663809D01*
X235553285Y-53701904D01*
X235248523Y-53701904D01*
X235248523Y-52901904D01*
X235515190Y-52901904D01*
X235591380Y-52940000D01*
X235629476Y-52978095D01*
X235667571Y-53054285D01*
X235667571Y-53130476D01*
X235629476Y-53206666D01*
X235591380Y-53244761D01*
X235515190Y-53282857D01*
X235248523Y-53282857D01*
X235972333Y-52901904D02*
X236467571Y-52901904D01*
X236200904Y-53206666D01*
X236315190Y-53206666D01*
X236391380Y-53244761D01*
X236429476Y-53282857D01*
X236467571Y-53359047D01*
X236467571Y-53549523D01*
X236429476Y-53625714D01*
X236391380Y-53663809D01*
X236315190Y-53701904D01*
X236086619Y-53701904D01*
X236010428Y-53663809D01*
X235972333Y-53625714D01*
X247464297Y-57314991D02*
X247558578Y-57267851D01*
X247605719Y-57267851D01*
X247676429Y-57291421D01*
X247747140Y-57362132D01*
X247770710Y-57432842D01*
X247770710Y-57479983D01*
X247747140Y-57550693D01*
X247558578Y-57739255D01*
X247063603Y-57244280D01*
X247228595Y-57079289D01*
X247299306Y-57055719D01*
X247346446Y-57055719D01*
X247417157Y-57079289D01*
X247464297Y-57126429D01*
X247487867Y-57197140D01*
X247487867Y-57244280D01*
X247464297Y-57314991D01*
X247299306Y-57479983D01*
X247794280Y-56513603D02*
X247558578Y-56749306D01*
X247770710Y-57008578D01*
X247770710Y-56961438D01*
X247794280Y-56890727D01*
X247912132Y-56772876D01*
X247982842Y-56749306D01*
X248029983Y-56749306D01*
X248100693Y-56772876D01*
X248218544Y-56890727D01*
X248242115Y-56961438D01*
X248242115Y-57008578D01*
X248218544Y-57079289D01*
X248100693Y-57197140D01*
X248029983Y-57220710D01*
X247982842Y-57220710D01*
X246437190Y-55822857D02*
X246551476Y-55860952D01*
X246589571Y-55899047D01*
X246627666Y-55975238D01*
X246627666Y-56089523D01*
X246589571Y-56165714D01*
X246551476Y-56203809D01*
X246475285Y-56241904D01*
X246170523Y-56241904D01*
X246170523Y-55441904D01*
X246437190Y-55441904D01*
X246513380Y-55480000D01*
X246551476Y-55518095D01*
X246589571Y-55594285D01*
X246589571Y-55670476D01*
X246551476Y-55746666D01*
X246513380Y-55784761D01*
X246437190Y-55822857D01*
X246170523Y-55822857D01*
X247313380Y-55708571D02*
X247313380Y-56241904D01*
X247122904Y-55403809D02*
X246932428Y-55975238D01*
X247427666Y-55975238D01*
X246208619Y-53282857D02*
X246475285Y-53282857D01*
X246589571Y-53701904D02*
X246208619Y-53701904D01*
X246208619Y-52901904D01*
X246589571Y-52901904D01*
X247275285Y-52901904D02*
X247122904Y-52901904D01*
X247046714Y-52940000D01*
X247008619Y-52978095D01*
X246932428Y-53092380D01*
X246894333Y-53244761D01*
X246894333Y-53549523D01*
X246932428Y-53625714D01*
X246970523Y-53663809D01*
X247046714Y-53701904D01*
X247199095Y-53701904D01*
X247275285Y-53663809D01*
X247313380Y-53625714D01*
X247351476Y-53549523D01*
X247351476Y-53359047D01*
X247313380Y-53282857D01*
X247275285Y-53244761D01*
X247199095Y-53206666D01*
X247046714Y-53206666D01*
X246970523Y-53244761D01*
X246932428Y-53282857D01*
X246894333Y-53359047D01*
X246170523Y-51161904D02*
X246170523Y-50361904D01*
X246361000Y-50361904D01*
X246475285Y-50400000D01*
X246551476Y-50476190D01*
X246589571Y-50552380D01*
X246627666Y-50704761D01*
X246627666Y-50819047D01*
X246589571Y-50971428D01*
X246551476Y-51047619D01*
X246475285Y-51123809D01*
X246361000Y-51161904D01*
X246170523Y-51161904D01*
X246894333Y-50361904D02*
X247427666Y-50361904D01*
X247084809Y-51161904D01*
X246627666Y-48545714D02*
X246589571Y-48583809D01*
X246475285Y-48621904D01*
X246399095Y-48621904D01*
X246284809Y-48583809D01*
X246208619Y-48507619D01*
X246170523Y-48431428D01*
X246132428Y-48279047D01*
X246132428Y-48164761D01*
X246170523Y-48012380D01*
X246208619Y-47936190D01*
X246284809Y-47860000D01*
X246399095Y-47821904D01*
X246475285Y-47821904D01*
X246589571Y-47860000D01*
X246627666Y-47898095D01*
X247313380Y-47821904D02*
X247161000Y-47821904D01*
X247084809Y-47860000D01*
X247046714Y-47898095D01*
X246970523Y-48012380D01*
X246932428Y-48164761D01*
X246932428Y-48469523D01*
X246970523Y-48545714D01*
X247008619Y-48583809D01*
X247084809Y-48621904D01*
X247237190Y-48621904D01*
X247313380Y-48583809D01*
X247351476Y-48545714D01*
X247389571Y-48469523D01*
X247389571Y-48279047D01*
X247351476Y-48202857D01*
X247313380Y-48164761D01*
X247237190Y-48126666D01*
X247084809Y-48126666D01*
X247008619Y-48164761D01*
X246970523Y-48202857D01*
X246932428Y-48279047D01*
X246170523Y-46081904D02*
X246170523Y-45281904D01*
X246361000Y-45281904D01*
X246475285Y-45320000D01*
X246551476Y-45396190D01*
X246589571Y-45472380D01*
X246627666Y-45624761D01*
X246627666Y-45739047D01*
X246589571Y-45891428D01*
X246551476Y-45967619D01*
X246475285Y-46043809D01*
X246361000Y-46081904D01*
X246170523Y-46081904D01*
X247313380Y-45548571D02*
X247313380Y-46081904D01*
X247122904Y-45243809D02*
X246932428Y-45815238D01*
X247427666Y-45815238D01*
X246151476Y-35160000D02*
X246075285Y-35121904D01*
X245961000Y-35121904D01*
X245846714Y-35160000D01*
X245770523Y-35236190D01*
X245732428Y-35312380D01*
X245694333Y-35464761D01*
X245694333Y-35579047D01*
X245732428Y-35731428D01*
X245770523Y-35807619D01*
X245846714Y-35883809D01*
X245961000Y-35921904D01*
X246037190Y-35921904D01*
X246151476Y-35883809D01*
X246189571Y-35845714D01*
X246189571Y-35579047D01*
X246037190Y-35579047D01*
X246532428Y-35921904D02*
X246532428Y-35121904D01*
X246989571Y-35921904D01*
X246989571Y-35121904D01*
X247370523Y-35921904D02*
X247370523Y-35121904D01*
X247561000Y-35121904D01*
X247675285Y-35160000D01*
X247751476Y-35236190D01*
X247789571Y-35312380D01*
X247827666Y-35464761D01*
X247827666Y-35579047D01*
X247789571Y-35731428D01*
X247751476Y-35807619D01*
X247675285Y-35883809D01*
X247561000Y-35921904D01*
X247370523Y-35921904D01*
X246151476Y-37700000D02*
X246075285Y-37661904D01*
X245961000Y-37661904D01*
X245846714Y-37700000D01*
X245770523Y-37776190D01*
X245732428Y-37852380D01*
X245694333Y-38004761D01*
X245694333Y-38119047D01*
X245732428Y-38271428D01*
X245770523Y-38347619D01*
X245846714Y-38423809D01*
X245961000Y-38461904D01*
X246037190Y-38461904D01*
X246151476Y-38423809D01*
X246189571Y-38385714D01*
X246189571Y-38119047D01*
X246037190Y-38119047D01*
X246532428Y-38461904D02*
X246532428Y-37661904D01*
X246989571Y-38461904D01*
X246989571Y-37661904D01*
X247370523Y-38461904D02*
X247370523Y-37661904D01*
X247561000Y-37661904D01*
X247675285Y-37700000D01*
X247751476Y-37776190D01*
X247789571Y-37852380D01*
X247827666Y-38004761D01*
X247827666Y-38119047D01*
X247789571Y-38271428D01*
X247751476Y-38347619D01*
X247675285Y-38423809D01*
X247561000Y-38461904D01*
X247370523Y-38461904D01*
X246170523Y-41001904D02*
X246170523Y-40201904D01*
X246361000Y-40201904D01*
X246475285Y-40240000D01*
X246551476Y-40316190D01*
X246589571Y-40392380D01*
X246627666Y-40544761D01*
X246627666Y-40659047D01*
X246589571Y-40811428D01*
X246551476Y-40887619D01*
X246475285Y-40963809D01*
X246361000Y-41001904D01*
X246170523Y-41001904D01*
X247389571Y-41001904D02*
X246932428Y-41001904D01*
X247161000Y-41001904D02*
X247161000Y-40201904D01*
X247084809Y-40316190D01*
X247008619Y-40392380D01*
X246932428Y-40430476D01*
X246170523Y-43541904D02*
X246170523Y-42741904D01*
X246361000Y-42741904D01*
X246475285Y-42780000D01*
X246551476Y-42856190D01*
X246589571Y-42932380D01*
X246627666Y-43084761D01*
X246627666Y-43199047D01*
X246589571Y-43351428D01*
X246551476Y-43427619D01*
X246475285Y-43503809D01*
X246361000Y-43541904D01*
X246170523Y-43541904D01*
X247122904Y-42741904D02*
X247199095Y-42741904D01*
X247275285Y-42780000D01*
X247313380Y-42818095D01*
X247351476Y-42894285D01*
X247389571Y-43046666D01*
X247389571Y-43237142D01*
X247351476Y-43389523D01*
X247313380Y-43465714D01*
X247275285Y-43503809D01*
X247199095Y-43541904D01*
X247122904Y-43541904D01*
X247046714Y-43503809D01*
X247008619Y-43465714D01*
X246970523Y-43389523D01*
X246932428Y-43237142D01*
X246932428Y-43046666D01*
X246970523Y-42894285D01*
X247008619Y-42818095D01*
X247046714Y-42780000D01*
X247122904Y-42741904D01*
X246170523Y-33381904D02*
X246170523Y-32581904D01*
X246361000Y-32581904D01*
X246475285Y-32620000D01*
X246551476Y-32696190D01*
X246589571Y-32772380D01*
X246627666Y-32924761D01*
X246627666Y-33039047D01*
X246589571Y-33191428D01*
X246551476Y-33267619D01*
X246475285Y-33343809D01*
X246361000Y-33381904D01*
X246170523Y-33381904D01*
X246932428Y-32658095D02*
X246970523Y-32620000D01*
X247046714Y-32581904D01*
X247237190Y-32581904D01*
X247313380Y-32620000D01*
X247351476Y-32658095D01*
X247389571Y-32734285D01*
X247389571Y-32810476D01*
X247351476Y-32924761D01*
X246894333Y-33381904D01*
X247389571Y-33381904D01*
%TO.C,SW0*%
X239978166Y-61111011D02*
X240121023Y-61158630D01*
X240359119Y-61158630D01*
X240454357Y-61111011D01*
X240501976Y-61063392D01*
X240549595Y-60968154D01*
X240549595Y-60872916D01*
X240501976Y-60777678D01*
X240454357Y-60730059D01*
X240359119Y-60682440D01*
X240168642Y-60634821D01*
X240073404Y-60587202D01*
X240025785Y-60539583D01*
X239978166Y-60444345D01*
X239978166Y-60349107D01*
X240025785Y-60253869D01*
X240073404Y-60206250D01*
X240168642Y-60158630D01*
X240406738Y-60158630D01*
X240549595Y-60206250D01*
X240882928Y-60158630D02*
X241121023Y-61158630D01*
X241311500Y-60444345D01*
X241501976Y-61158630D01*
X241740071Y-60158630D01*
X242311500Y-60158630D02*
X242406738Y-60158630D01*
X242501976Y-60206250D01*
X242549595Y-60253869D01*
X242597214Y-60349107D01*
X242644833Y-60539583D01*
X242644833Y-60777678D01*
X242597214Y-60968154D01*
X242549595Y-61063392D01*
X242501976Y-61111011D01*
X242406738Y-61158630D01*
X242311500Y-61158630D01*
X242216261Y-61111011D01*
X242168642Y-61063392D01*
X242121023Y-60968154D01*
X242073404Y-60777678D01*
X242073404Y-60539583D01*
X242121023Y-60349107D01*
X242168642Y-60253869D01*
X242216261Y-60206250D01*
X242311500Y-60158630D01*
%TO.C,J1*%
X263106339Y-83240956D02*
X262749196Y-83859545D01*
X262636528Y-83959454D01*
X262506430Y-83994313D01*
X262358903Y-83964124D01*
X262276424Y-83916505D01*
X263472364Y-84606981D02*
X262977493Y-84321267D01*
X263224928Y-84464124D02*
X263724928Y-83598099D01*
X263571021Y-83674198D01*
X263440924Y-83709057D01*
X263334635Y-83702677D01*
%TD*%
M02*
