%TF.GenerationSoftware,KiCad,Pcbnew,(5.1.9-0-10_14)*%
%TF.CreationDate,2021-04-19T01:17:04-05:00*%
%TF.ProjectId,wren-left,7772656e-2d6c-4656-9674-2e6b69636164,rev?*%
%TF.SameCoordinates,Original*%
%TF.FileFunction,Soldermask,Top*%
%TF.FilePolarity,Negative*%
%FSLAX46Y46*%
G04 Gerber Fmt 4.6, Leading zero omitted, Abs format (unit mm)*
G04 Created by KiCad (PCBNEW (5.1.9-0-10_14)) date 2021-04-19 01:17:04*
%MOMM*%
%LPD*%
G01*
G04 APERTURE LIST*
%ADD10C,5.500000*%
%ADD11C,3.987800*%
%ADD12C,3.048000*%
%ADD13C,1.750000*%
%ADD14O,1.400000X1.400000*%
%ADD15C,1.400000*%
%ADD16C,1.600000*%
%ADD17R,1.600000X1.600000*%
%ADD18C,0.100000*%
%ADD19R,2.000000X2.000000*%
%ADD20C,2.000000*%
%ADD21R,2.000000X3.200000*%
%ADD22C,1.752600*%
%ADD23R,1.752600X1.752600*%
%ADD24C,1.200000*%
G04 APERTURE END LIST*
D10*
%TO.C,H7*%
X226218750Y-111125000D03*
%TD*%
%TO.C,H6*%
X211137500Y-83343750D03*
%TD*%
%TO.C,H5*%
X134937500Y-84137500D03*
%TD*%
%TO.C,H4*%
X56356250Y-84137500D03*
%TD*%
%TO.C,H3*%
X211137500Y-45243750D03*
%TD*%
%TO.C,H2*%
X134937500Y-46037500D03*
%TD*%
%TO.C,H1*%
X56356250Y-46037500D03*
%TD*%
D11*
%TO.C,MX41*%
X239040460Y-98405139D03*
X227102460Y-119082361D03*
D12*
X252238687Y-106025139D03*
X240300687Y-126702361D03*
D13*
X242760500Y-108471841D03*
X237680500Y-117270659D03*
D11*
X240220500Y-112871250D03*
%TD*%
D14*
%TO.C,R2*%
X238585000Y-43656250D03*
D15*
X243665000Y-43656250D03*
%TD*%
D14*
%TO.C,R1*%
X238585000Y-38100000D03*
D15*
X243665000Y-38100000D03*
%TD*%
D16*
%TO.C,D45*%
X163512500Y-108812500D03*
D17*
X163512500Y-116612500D03*
%TD*%
D16*
%TO.C,D44*%
X182562500Y-108812500D03*
D17*
X182562500Y-116612500D03*
%TD*%
D16*
%TO.C,D43*%
X201612500Y-108812500D03*
D17*
X201612500Y-116612500D03*
%TD*%
D16*
%TO.C,D42*%
X220662500Y-111193750D03*
D17*
X220662500Y-118993750D03*
%TD*%
D16*
%TO.C,D41*%
X241161001Y-103428250D03*
D18*
G36*
X249008819Y-107035430D02*
G01*
X248208819Y-108421070D01*
X246823179Y-107621070D01*
X247623179Y-106235430D01*
X249008819Y-107035430D01*
G37*
%TD*%
D16*
%TO.C,D40*%
X55605500Y-89762500D03*
D17*
X55605500Y-97562500D03*
%TD*%
D16*
%TO.C,D39*%
X74649500Y-89762500D03*
D17*
X74649500Y-97562500D03*
%TD*%
D16*
%TO.C,D38*%
X93693500Y-89750000D03*
D17*
X93693500Y-97550000D03*
%TD*%
D16*
%TO.C,D37*%
X112737500Y-89762500D03*
D17*
X112737500Y-97562500D03*
%TD*%
D16*
%TO.C,D36*%
X134162000Y-89762500D03*
D17*
X134162000Y-97562500D03*
%TD*%
D16*
%TO.C,D35*%
X153206000Y-89762500D03*
D17*
X153206000Y-97562500D03*
%TD*%
D16*
%TO.C,D34*%
X172250000Y-86587500D03*
D17*
X172250000Y-94387500D03*
%TD*%
D16*
%TO.C,D33*%
X191294000Y-84206250D03*
D17*
X191294000Y-92006250D03*
%TD*%
D16*
%TO.C,D32*%
X210338000Y-87381250D03*
D17*
X210338000Y-95181250D03*
%TD*%
D16*
%TO.C,D31*%
X229382000Y-88968750D03*
D17*
X229382000Y-96768750D03*
%TD*%
D16*
%TO.C,D30*%
X55605500Y-70712500D03*
D17*
X55605500Y-78512500D03*
%TD*%
D16*
%TO.C,D29*%
X74649500Y-70712500D03*
D17*
X74649500Y-78512500D03*
%TD*%
D16*
%TO.C,D28*%
X93693500Y-70712500D03*
D17*
X93693500Y-78512500D03*
%TD*%
D16*
%TO.C,D27*%
X112737500Y-70712500D03*
D17*
X112737500Y-78512500D03*
%TD*%
D16*
%TO.C,D26*%
X134162000Y-70712500D03*
D17*
X134162000Y-78512500D03*
%TD*%
D16*
%TO.C,D25*%
X153206000Y-70712500D03*
D17*
X153206000Y-78512500D03*
%TD*%
D16*
%TO.C,D24*%
X172250000Y-67537500D03*
D17*
X172250000Y-75337500D03*
%TD*%
D16*
%TO.C,D23*%
X191294000Y-65156250D03*
D17*
X191294000Y-72956250D03*
%TD*%
D16*
%TO.C,D22*%
X210338000Y-67537500D03*
D17*
X210338000Y-75337500D03*
%TD*%
D16*
%TO.C,D21*%
X229382000Y-69918750D03*
D17*
X229382000Y-77718750D03*
%TD*%
D16*
%TO.C,D20*%
X55605500Y-51662500D03*
D17*
X55605500Y-59462500D03*
%TD*%
D16*
%TO.C,D19*%
X74649500Y-51662500D03*
D17*
X74649500Y-59462500D03*
%TD*%
D16*
%TO.C,D18*%
X93693500Y-51662500D03*
D17*
X93693500Y-59462500D03*
%TD*%
D16*
%TO.C,D17*%
X112737500Y-51662500D03*
D17*
X112737500Y-59462500D03*
%TD*%
D16*
%TO.C,D16*%
X134162000Y-51662500D03*
D17*
X134162000Y-59462500D03*
%TD*%
D16*
%TO.C,D15*%
X153206000Y-51662500D03*
D17*
X153206000Y-59462500D03*
%TD*%
D16*
%TO.C,D14*%
X172250000Y-48487500D03*
D17*
X172250000Y-56287500D03*
%TD*%
D16*
%TO.C,D13*%
X191294000Y-46106250D03*
D17*
X191294000Y-53906250D03*
%TD*%
D16*
%TO.C,D12*%
X210338000Y-49281250D03*
D17*
X210338000Y-57081250D03*
%TD*%
D16*
%TO.C,D11*%
X229382000Y-50868750D03*
D17*
X229382000Y-58668750D03*
%TD*%
D16*
%TO.C,D10*%
X55605500Y-32612500D03*
D17*
X55605500Y-40412500D03*
%TD*%
D16*
%TO.C,D9*%
X74649500Y-32612500D03*
D17*
X74649500Y-40412500D03*
%TD*%
D16*
%TO.C,D8*%
X93693500Y-32612500D03*
D17*
X93693500Y-40412500D03*
%TD*%
D16*
%TO.C,D7*%
X112737500Y-32612500D03*
D17*
X112737500Y-40412500D03*
%TD*%
D16*
%TO.C,D6*%
X134162000Y-32612500D03*
D17*
X134162000Y-40412500D03*
%TD*%
D16*
%TO.C,D5*%
X153206000Y-32612500D03*
D17*
X153206000Y-40412500D03*
%TD*%
D16*
%TO.C,D4*%
X172250000Y-29437500D03*
D17*
X172250000Y-37237500D03*
%TD*%
D16*
%TO.C,D3*%
X191294000Y-27056250D03*
D17*
X191294000Y-34856250D03*
%TD*%
D16*
%TO.C,D2*%
X210338000Y-29437500D03*
D17*
X210338000Y-37237500D03*
%TD*%
D16*
%TO.C,D1*%
X229382000Y-31756250D03*
D17*
X229382000Y-39556250D03*
%TD*%
D19*
%TO.C,ENC1*%
X152336500Y-120237250D03*
D20*
X154836500Y-120237250D03*
X157336500Y-120237250D03*
D21*
X149236500Y-112737250D03*
X160436500Y-112737250D03*
D20*
X152336500Y-105737250D03*
X157336500Y-105737250D03*
%TD*%
D22*
%TO.C,U1*%
X246380000Y-58420000D03*
X243840000Y-58420000D03*
X241300000Y-58420000D03*
X238760000Y-58420000D03*
X236220000Y-58420000D03*
X233680000Y-30480000D03*
X248691400Y-58420000D03*
X233680000Y-33020000D03*
X233680000Y-35560000D03*
X233680000Y-38100000D03*
X233680000Y-40640000D03*
X233680000Y-43180000D03*
X233680000Y-45720000D03*
X233680000Y-48260000D03*
X233680000Y-50800000D03*
X233680000Y-53340000D03*
X233680000Y-55880000D03*
X233680000Y-58420000D03*
X248920000Y-55880000D03*
X248920000Y-53340000D03*
X248920000Y-50800000D03*
X248920000Y-48260000D03*
X248920000Y-45720000D03*
X248920000Y-43180000D03*
X248920000Y-40640000D03*
X248920000Y-38100000D03*
X248920000Y-35560000D03*
X248920000Y-33020000D03*
D23*
X248920000Y-30480000D03*
%TD*%
D20*
%TO.C,SW0*%
X244561500Y-62706250D03*
X244561500Y-67206250D03*
X238061500Y-62706250D03*
X238061500Y-67206250D03*
%TD*%
D24*
%TO.C,J1*%
X255278358Y-96986083D03*
X258778358Y-90923905D03*
G36*
G01*
X257936500Y-87782046D02*
X257936500Y-87782046D01*
G75*
G02*
X258192718Y-88738264I-350000J-606218D01*
G01*
X257892718Y-89257880D01*
G75*
G02*
X256936500Y-89514098I-606218J350000D01*
G01*
X256936500Y-89514098D01*
G75*
G02*
X256680282Y-88557880I350000J606218D01*
G01*
X256980282Y-88038264D01*
G75*
G02*
X257936500Y-87782046I606218J-350000D01*
G01*
G37*
G36*
G01*
X256436500Y-90380122D02*
X256436500Y-90380122D01*
G75*
G02*
X256692718Y-91336340I-350000J-606218D01*
G01*
X256392718Y-91855956D01*
G75*
G02*
X255436500Y-92112174I-606218J350000D01*
G01*
X255436500Y-92112174D01*
G75*
G02*
X255180282Y-91155956I350000J606218D01*
G01*
X255480282Y-90636340D01*
G75*
G02*
X256436500Y-90380122I606218J-350000D01*
G01*
G37*
D18*
G36*
X253830282Y-93494225D02*
G01*
X255042718Y-94194225D01*
X254042718Y-95926275D01*
X252830282Y-95226275D01*
X253830282Y-93494225D01*
G37*
G36*
G01*
X257583614Y-97393262D02*
X257583614Y-97393262D01*
G75*
G02*
X257839832Y-98349480I-350000J-606218D01*
G01*
X257539832Y-98869096D01*
G75*
G02*
X256583614Y-99125314I-606218J350000D01*
G01*
X256583614Y-99125314D01*
G75*
G02*
X256327396Y-98169096I350000J606218D01*
G01*
X256627396Y-97649480D01*
G75*
G02*
X257583614Y-97393262I606218J-350000D01*
G01*
G37*
G36*
G01*
X262699640Y-90532046D02*
X262699640Y-90532046D01*
G75*
G02*
X262955858Y-91488264I-350000J-606218D01*
G01*
X262655858Y-92007880D01*
G75*
G02*
X261699640Y-92264098I-606218J350000D01*
G01*
X261699640Y-92264098D01*
G75*
G02*
X261443422Y-91307880I350000J606218D01*
G01*
X261743422Y-90788264D01*
G75*
G02*
X262699640Y-90532046I606218J-350000D01*
G01*
G37*
%TD*%
D13*
%TO.C,MX44*%
X178911250Y-112712500D03*
X168751250Y-112712500D03*
D11*
X173831250Y-112712500D03*
%TD*%
D13*
%TO.C,MX43*%
X197961250Y-112712500D03*
X187801250Y-112712500D03*
D11*
X192881250Y-112712500D03*
%TD*%
D13*
%TO.C,MX42*%
X217011250Y-115093750D03*
X206851250Y-115093750D03*
D11*
X211931250Y-115093750D03*
%TD*%
D13*
%TO.C,MX40*%
X51911250Y-93662500D03*
X41751250Y-93662500D03*
D11*
X46831250Y-93662500D03*
%TD*%
D13*
%TO.C,MX39*%
X70961250Y-93662500D03*
X60801250Y-93662500D03*
D11*
X65881250Y-93662500D03*
%TD*%
D13*
%TO.C,MX38*%
X90011250Y-93662500D03*
X79851250Y-93662500D03*
D11*
X84931250Y-93662500D03*
%TD*%
D13*
%TO.C,MX37*%
X109061250Y-93662500D03*
X98901250Y-93662500D03*
D11*
X103981250Y-93662500D03*
%TD*%
D13*
%TO.C,MX36*%
X130492500Y-93662500D03*
X120332500Y-93662500D03*
D11*
X125412500Y-93662500D03*
%TD*%
D13*
%TO.C,MX35*%
X149542500Y-93662500D03*
X139382500Y-93662500D03*
D11*
X144462500Y-93662500D03*
%TD*%
D13*
%TO.C,MX34*%
X168592500Y-90487500D03*
X158432500Y-90487500D03*
D11*
X163512500Y-90487500D03*
%TD*%
D13*
%TO.C,MX33*%
X187642500Y-88106250D03*
X177482500Y-88106250D03*
D11*
X182562500Y-88106250D03*
%TD*%
D13*
%TO.C,MX32*%
X206692500Y-90487500D03*
X196532500Y-90487500D03*
D11*
X201612500Y-90487500D03*
%TD*%
D13*
%TO.C,MX31*%
X225742500Y-92868750D03*
X215582500Y-92868750D03*
D11*
X220662500Y-92868750D03*
%TD*%
D13*
%TO.C,MX30*%
X51911250Y-74612500D03*
X41751250Y-74612500D03*
D11*
X46831250Y-74612500D03*
%TD*%
D13*
%TO.C,MX29*%
X70961250Y-74612500D03*
X60801250Y-74612500D03*
D11*
X65881250Y-74612500D03*
%TD*%
D13*
%TO.C,MX28*%
X90011250Y-74612500D03*
X79851250Y-74612500D03*
D11*
X84931250Y-74612500D03*
%TD*%
D13*
%TO.C,MX27*%
X109061250Y-74612500D03*
X98901250Y-74612500D03*
D11*
X103981250Y-74612500D03*
%TD*%
D13*
%TO.C,MX26*%
X130492500Y-74612500D03*
X120332500Y-74612500D03*
D11*
X125412500Y-74612500D03*
%TD*%
D13*
%TO.C,MX25*%
X149542500Y-74612500D03*
X139382500Y-74612500D03*
D11*
X144462500Y-74612500D03*
%TD*%
D13*
%TO.C,MX24*%
X168592500Y-71437500D03*
X158432500Y-71437500D03*
D11*
X163512500Y-71437500D03*
%TD*%
D13*
%TO.C,MX23*%
X187642500Y-69056250D03*
X177482500Y-69056250D03*
D11*
X182562500Y-69056250D03*
%TD*%
D13*
%TO.C,MX22*%
X206692500Y-71437500D03*
X196532500Y-71437500D03*
D11*
X201612500Y-71437500D03*
%TD*%
D13*
%TO.C,MX21*%
X225742500Y-73818750D03*
X215582500Y-73818750D03*
D11*
X220662500Y-73818750D03*
%TD*%
D13*
%TO.C,MX20*%
X51911250Y-55562500D03*
X41751250Y-55562500D03*
D11*
X46831250Y-55562500D03*
%TD*%
D13*
%TO.C,MX19*%
X70961250Y-55562500D03*
X60801250Y-55562500D03*
D11*
X65881250Y-55562500D03*
%TD*%
D13*
%TO.C,MX18*%
X90011250Y-55562500D03*
X79851250Y-55562500D03*
D11*
X84931250Y-55562500D03*
%TD*%
D13*
%TO.C,MX17*%
X109061250Y-55562500D03*
X98901250Y-55562500D03*
D11*
X103981250Y-55562500D03*
%TD*%
D13*
%TO.C,MX16*%
X130492500Y-55562500D03*
X120332500Y-55562500D03*
D11*
X125412500Y-55562500D03*
%TD*%
D13*
%TO.C,MX15*%
X149542500Y-55562500D03*
X139382500Y-55562500D03*
D11*
X144462500Y-55562500D03*
%TD*%
D13*
%TO.C,MX14*%
X168592500Y-52387500D03*
X158432500Y-52387500D03*
D11*
X163512500Y-52387500D03*
%TD*%
D13*
%TO.C,MX13*%
X187642500Y-50006250D03*
X177482500Y-50006250D03*
D11*
X182562500Y-50006250D03*
%TD*%
D13*
%TO.C,MX12*%
X206692500Y-52387500D03*
X196532500Y-52387500D03*
D11*
X201612500Y-52387500D03*
%TD*%
D13*
%TO.C,MX11*%
X225742500Y-54768750D03*
X215582500Y-54768750D03*
D11*
X220662500Y-54768750D03*
%TD*%
D13*
%TO.C,MX10*%
X51911250Y-36512500D03*
X41751250Y-36512500D03*
D11*
X46831250Y-36512500D03*
%TD*%
D13*
%TO.C,MX9*%
X70961250Y-36512500D03*
X60801250Y-36512500D03*
D11*
X65881250Y-36512500D03*
%TD*%
D13*
%TO.C,MX8*%
X90011250Y-36512500D03*
X79851250Y-36512500D03*
D11*
X84931250Y-36512500D03*
%TD*%
D13*
%TO.C,MX7*%
X109061250Y-36512500D03*
X98901250Y-36512500D03*
D11*
X103981250Y-36512500D03*
%TD*%
D13*
%TO.C,MX6*%
X130492500Y-36512500D03*
X120332500Y-36512500D03*
D11*
X125412500Y-36512500D03*
%TD*%
D13*
%TO.C,MX5*%
X149542500Y-36512500D03*
X139382500Y-36512500D03*
D11*
X144462500Y-36512500D03*
%TD*%
D13*
%TO.C,MX4*%
X168592500Y-33337500D03*
X158432500Y-33337500D03*
D11*
X163512500Y-33337500D03*
%TD*%
D13*
%TO.C,MX3*%
X187642500Y-30956250D03*
X177482500Y-30956250D03*
D11*
X182562500Y-30956250D03*
%TD*%
D13*
%TO.C,MX2*%
X206692500Y-33337500D03*
X196532500Y-33337500D03*
D11*
X201612500Y-33337500D03*
%TD*%
D13*
%TO.C,MX1*%
X225742500Y-35718750D03*
X215582500Y-35718750D03*
D11*
X220662500Y-35718750D03*
%TD*%
M02*
