%TF.GenerationSoftware,KiCad,Pcbnew,(5.1.9-0-10_14)*%
%TF.CreationDate,2021-04-19T01:17:04-05:00*%
%TF.ProjectId,wren-left,7772656e-2d6c-4656-9674-2e6b69636164,rev?*%
%TF.SameCoordinates,Original*%
%TF.FileFunction,Legend,Bot*%
%TF.FilePolarity,Positive*%
%FSLAX46Y46*%
G04 Gerber Fmt 4.6, Leading zero omitted, Abs format (unit mm)*
G04 Created by KiCad (PCBNEW (5.1.9-0-10_14)) date 2021-04-19 01:17:04*
%MOMM*%
%LPD*%
G01*
G04 APERTURE LIST*
%ADD10C,0.120000*%
%ADD11C,0.200000*%
%ADD12C,0.381000*%
%ADD13C,0.150000*%
G04 APERTURE END LIST*
D10*
%TO.C,R2*%
X242745000Y-43656250D02*
X239585000Y-43656250D01*
X244585000Y-43656250D02*
G75*
G03*
X244585000Y-43656250I-920000J0D01*
G01*
%TO.C,R1*%
X242745000Y-38100000D02*
X239585000Y-38100000D01*
X244585000Y-38100000D02*
G75*
G03*
X244585000Y-38100000I-920000J0D01*
G01*
D11*
%TO.C,D45*%
X162312500Y-109912500D02*
X162312500Y-115712500D01*
X164712500Y-109912500D02*
X162312500Y-109912500D01*
X164712500Y-115712500D02*
X164712500Y-109912500D01*
X164712500Y-115637500D02*
X162312500Y-115637500D01*
X164712500Y-115512500D02*
X162312500Y-115512500D01*
X162312500Y-115737500D02*
X164712500Y-115737500D01*
X164712500Y-115337500D02*
X162312500Y-115337500D01*
X164712500Y-115162500D02*
X162312500Y-115162500D01*
X164712500Y-114987500D02*
X162312500Y-114987500D01*
%TO.C,D44*%
X181362500Y-109912500D02*
X181362500Y-115712500D01*
X183762500Y-109912500D02*
X181362500Y-109912500D01*
X183762500Y-115712500D02*
X183762500Y-109912500D01*
X183762500Y-115637500D02*
X181362500Y-115637500D01*
X183762500Y-115512500D02*
X181362500Y-115512500D01*
X181362500Y-115737500D02*
X183762500Y-115737500D01*
X183762500Y-115337500D02*
X181362500Y-115337500D01*
X183762500Y-115162500D02*
X181362500Y-115162500D01*
X183762500Y-114987500D02*
X181362500Y-114987500D01*
%TO.C,D43*%
X200412500Y-109912500D02*
X200412500Y-115712500D01*
X202812500Y-109912500D02*
X200412500Y-109912500D01*
X202812500Y-115712500D02*
X202812500Y-109912500D01*
X202812500Y-115637500D02*
X200412500Y-115637500D01*
X202812500Y-115512500D02*
X200412500Y-115512500D01*
X200412500Y-115737500D02*
X202812500Y-115737500D01*
X202812500Y-115337500D02*
X200412500Y-115337500D01*
X202812500Y-115162500D02*
X200412500Y-115162500D01*
X202812500Y-114987500D02*
X200412500Y-114987500D01*
%TO.C,D42*%
X219462500Y-112293750D02*
X219462500Y-118093750D01*
X221862500Y-112293750D02*
X219462500Y-112293750D01*
X221862500Y-118093750D02*
X221862500Y-112293750D01*
X221862500Y-118018750D02*
X219462500Y-118018750D01*
X221862500Y-117893750D02*
X219462500Y-117893750D01*
X219462500Y-118118750D02*
X221862500Y-118118750D01*
X221862500Y-117718750D02*
X219462500Y-117718750D01*
X221862500Y-117543750D02*
X219462500Y-117543750D01*
X221862500Y-117368750D02*
X219462500Y-117368750D01*
%TO.C,D41*%
X241513629Y-105017480D02*
X246536576Y-107917480D01*
X242713629Y-102939020D02*
X241513629Y-105017480D01*
X247736576Y-105839020D02*
X242713629Y-102939020D01*
X247671624Y-105801520D02*
X246471624Y-107879980D01*
X247563371Y-105739020D02*
X246363371Y-107817480D01*
X246558227Y-107929980D02*
X247758227Y-105851520D01*
X247411817Y-105651520D02*
X246211817Y-107729980D01*
X247260262Y-105564020D02*
X246060262Y-107642480D01*
X247108708Y-105476520D02*
X245908708Y-107554980D01*
%TO.C,D40*%
X54405500Y-90862500D02*
X54405500Y-96662500D01*
X56805500Y-90862500D02*
X54405500Y-90862500D01*
X56805500Y-96662500D02*
X56805500Y-90862500D01*
X56805500Y-96587500D02*
X54405500Y-96587500D01*
X56805500Y-96462500D02*
X54405500Y-96462500D01*
X54405500Y-96687500D02*
X56805500Y-96687500D01*
X56805500Y-96287500D02*
X54405500Y-96287500D01*
X56805500Y-96112500D02*
X54405500Y-96112500D01*
X56805500Y-95937500D02*
X54405500Y-95937500D01*
%TO.C,D39*%
X73449500Y-90862500D02*
X73449500Y-96662500D01*
X75849500Y-90862500D02*
X73449500Y-90862500D01*
X75849500Y-96662500D02*
X75849500Y-90862500D01*
X75849500Y-96587500D02*
X73449500Y-96587500D01*
X75849500Y-96462500D02*
X73449500Y-96462500D01*
X73449500Y-96687500D02*
X75849500Y-96687500D01*
X75849500Y-96287500D02*
X73449500Y-96287500D01*
X75849500Y-96112500D02*
X73449500Y-96112500D01*
X75849500Y-95937500D02*
X73449500Y-95937500D01*
%TO.C,D38*%
X92493500Y-90850000D02*
X92493500Y-96650000D01*
X94893500Y-90850000D02*
X92493500Y-90850000D01*
X94893500Y-96650000D02*
X94893500Y-90850000D01*
X94893500Y-96575000D02*
X92493500Y-96575000D01*
X94893500Y-96450000D02*
X92493500Y-96450000D01*
X92493500Y-96675000D02*
X94893500Y-96675000D01*
X94893500Y-96275000D02*
X92493500Y-96275000D01*
X94893500Y-96100000D02*
X92493500Y-96100000D01*
X94893500Y-95925000D02*
X92493500Y-95925000D01*
%TO.C,D37*%
X111537500Y-90862500D02*
X111537500Y-96662500D01*
X113937500Y-90862500D02*
X111537500Y-90862500D01*
X113937500Y-96662500D02*
X113937500Y-90862500D01*
X113937500Y-96587500D02*
X111537500Y-96587500D01*
X113937500Y-96462500D02*
X111537500Y-96462500D01*
X111537500Y-96687500D02*
X113937500Y-96687500D01*
X113937500Y-96287500D02*
X111537500Y-96287500D01*
X113937500Y-96112500D02*
X111537500Y-96112500D01*
X113937500Y-95937500D02*
X111537500Y-95937500D01*
%TO.C,D36*%
X132962000Y-90862500D02*
X132962000Y-96662500D01*
X135362000Y-90862500D02*
X132962000Y-90862500D01*
X135362000Y-96662500D02*
X135362000Y-90862500D01*
X135362000Y-96587500D02*
X132962000Y-96587500D01*
X135362000Y-96462500D02*
X132962000Y-96462500D01*
X132962000Y-96687500D02*
X135362000Y-96687500D01*
X135362000Y-96287500D02*
X132962000Y-96287500D01*
X135362000Y-96112500D02*
X132962000Y-96112500D01*
X135362000Y-95937500D02*
X132962000Y-95937500D01*
%TO.C,D35*%
X152006000Y-90862500D02*
X152006000Y-96662500D01*
X154406000Y-90862500D02*
X152006000Y-90862500D01*
X154406000Y-96662500D02*
X154406000Y-90862500D01*
X154406000Y-96587500D02*
X152006000Y-96587500D01*
X154406000Y-96462500D02*
X152006000Y-96462500D01*
X152006000Y-96687500D02*
X154406000Y-96687500D01*
X154406000Y-96287500D02*
X152006000Y-96287500D01*
X154406000Y-96112500D02*
X152006000Y-96112500D01*
X154406000Y-95937500D02*
X152006000Y-95937500D01*
%TO.C,D34*%
X171050000Y-87687500D02*
X171050000Y-93487500D01*
X173450000Y-87687500D02*
X171050000Y-87687500D01*
X173450000Y-93487500D02*
X173450000Y-87687500D01*
X173450000Y-93412500D02*
X171050000Y-93412500D01*
X173450000Y-93287500D02*
X171050000Y-93287500D01*
X171050000Y-93512500D02*
X173450000Y-93512500D01*
X173450000Y-93112500D02*
X171050000Y-93112500D01*
X173450000Y-92937500D02*
X171050000Y-92937500D01*
X173450000Y-92762500D02*
X171050000Y-92762500D01*
%TO.C,D33*%
X190094000Y-85306250D02*
X190094000Y-91106250D01*
X192494000Y-85306250D02*
X190094000Y-85306250D01*
X192494000Y-91106250D02*
X192494000Y-85306250D01*
X192494000Y-91031250D02*
X190094000Y-91031250D01*
X192494000Y-90906250D02*
X190094000Y-90906250D01*
X190094000Y-91131250D02*
X192494000Y-91131250D01*
X192494000Y-90731250D02*
X190094000Y-90731250D01*
X192494000Y-90556250D02*
X190094000Y-90556250D01*
X192494000Y-90381250D02*
X190094000Y-90381250D01*
%TO.C,D32*%
X209138000Y-88481250D02*
X209138000Y-94281250D01*
X211538000Y-88481250D02*
X209138000Y-88481250D01*
X211538000Y-94281250D02*
X211538000Y-88481250D01*
X211538000Y-94206250D02*
X209138000Y-94206250D01*
X211538000Y-94081250D02*
X209138000Y-94081250D01*
X209138000Y-94306250D02*
X211538000Y-94306250D01*
X211538000Y-93906250D02*
X209138000Y-93906250D01*
X211538000Y-93731250D02*
X209138000Y-93731250D01*
X211538000Y-93556250D02*
X209138000Y-93556250D01*
%TO.C,D31*%
X228182000Y-90068750D02*
X228182000Y-95868750D01*
X230582000Y-90068750D02*
X228182000Y-90068750D01*
X230582000Y-95868750D02*
X230582000Y-90068750D01*
X230582000Y-95793750D02*
X228182000Y-95793750D01*
X230582000Y-95668750D02*
X228182000Y-95668750D01*
X228182000Y-95893750D02*
X230582000Y-95893750D01*
X230582000Y-95493750D02*
X228182000Y-95493750D01*
X230582000Y-95318750D02*
X228182000Y-95318750D01*
X230582000Y-95143750D02*
X228182000Y-95143750D01*
%TO.C,D30*%
X54405500Y-71812500D02*
X54405500Y-77612500D01*
X56805500Y-71812500D02*
X54405500Y-71812500D01*
X56805500Y-77612500D02*
X56805500Y-71812500D01*
X56805500Y-77537500D02*
X54405500Y-77537500D01*
X56805500Y-77412500D02*
X54405500Y-77412500D01*
X54405500Y-77637500D02*
X56805500Y-77637500D01*
X56805500Y-77237500D02*
X54405500Y-77237500D01*
X56805500Y-77062500D02*
X54405500Y-77062500D01*
X56805500Y-76887500D02*
X54405500Y-76887500D01*
%TO.C,D29*%
X73449500Y-71812500D02*
X73449500Y-77612500D01*
X75849500Y-71812500D02*
X73449500Y-71812500D01*
X75849500Y-77612500D02*
X75849500Y-71812500D01*
X75849500Y-77537500D02*
X73449500Y-77537500D01*
X75849500Y-77412500D02*
X73449500Y-77412500D01*
X73449500Y-77637500D02*
X75849500Y-77637500D01*
X75849500Y-77237500D02*
X73449500Y-77237500D01*
X75849500Y-77062500D02*
X73449500Y-77062500D01*
X75849500Y-76887500D02*
X73449500Y-76887500D01*
%TO.C,D28*%
X92493500Y-71812500D02*
X92493500Y-77612500D01*
X94893500Y-71812500D02*
X92493500Y-71812500D01*
X94893500Y-77612500D02*
X94893500Y-71812500D01*
X94893500Y-77537500D02*
X92493500Y-77537500D01*
X94893500Y-77412500D02*
X92493500Y-77412500D01*
X92493500Y-77637500D02*
X94893500Y-77637500D01*
X94893500Y-77237500D02*
X92493500Y-77237500D01*
X94893500Y-77062500D02*
X92493500Y-77062500D01*
X94893500Y-76887500D02*
X92493500Y-76887500D01*
%TO.C,D27*%
X111537500Y-71812500D02*
X111537500Y-77612500D01*
X113937500Y-71812500D02*
X111537500Y-71812500D01*
X113937500Y-77612500D02*
X113937500Y-71812500D01*
X113937500Y-77537500D02*
X111537500Y-77537500D01*
X113937500Y-77412500D02*
X111537500Y-77412500D01*
X111537500Y-77637500D02*
X113937500Y-77637500D01*
X113937500Y-77237500D02*
X111537500Y-77237500D01*
X113937500Y-77062500D02*
X111537500Y-77062500D01*
X113937500Y-76887500D02*
X111537500Y-76887500D01*
%TO.C,D26*%
X132962000Y-71812500D02*
X132962000Y-77612500D01*
X135362000Y-71812500D02*
X132962000Y-71812500D01*
X135362000Y-77612500D02*
X135362000Y-71812500D01*
X135362000Y-77537500D02*
X132962000Y-77537500D01*
X135362000Y-77412500D02*
X132962000Y-77412500D01*
X132962000Y-77637500D02*
X135362000Y-77637500D01*
X135362000Y-77237500D02*
X132962000Y-77237500D01*
X135362000Y-77062500D02*
X132962000Y-77062500D01*
X135362000Y-76887500D02*
X132962000Y-76887500D01*
%TO.C,D25*%
X152006000Y-71812500D02*
X152006000Y-77612500D01*
X154406000Y-71812500D02*
X152006000Y-71812500D01*
X154406000Y-77612500D02*
X154406000Y-71812500D01*
X154406000Y-77537500D02*
X152006000Y-77537500D01*
X154406000Y-77412500D02*
X152006000Y-77412500D01*
X152006000Y-77637500D02*
X154406000Y-77637500D01*
X154406000Y-77237500D02*
X152006000Y-77237500D01*
X154406000Y-77062500D02*
X152006000Y-77062500D01*
X154406000Y-76887500D02*
X152006000Y-76887500D01*
%TO.C,D24*%
X171050000Y-68637500D02*
X171050000Y-74437500D01*
X173450000Y-68637500D02*
X171050000Y-68637500D01*
X173450000Y-74437500D02*
X173450000Y-68637500D01*
X173450000Y-74362500D02*
X171050000Y-74362500D01*
X173450000Y-74237500D02*
X171050000Y-74237500D01*
X171050000Y-74462500D02*
X173450000Y-74462500D01*
X173450000Y-74062500D02*
X171050000Y-74062500D01*
X173450000Y-73887500D02*
X171050000Y-73887500D01*
X173450000Y-73712500D02*
X171050000Y-73712500D01*
%TO.C,D23*%
X190094000Y-66256250D02*
X190094000Y-72056250D01*
X192494000Y-66256250D02*
X190094000Y-66256250D01*
X192494000Y-72056250D02*
X192494000Y-66256250D01*
X192494000Y-71981250D02*
X190094000Y-71981250D01*
X192494000Y-71856250D02*
X190094000Y-71856250D01*
X190094000Y-72081250D02*
X192494000Y-72081250D01*
X192494000Y-71681250D02*
X190094000Y-71681250D01*
X192494000Y-71506250D02*
X190094000Y-71506250D01*
X192494000Y-71331250D02*
X190094000Y-71331250D01*
%TO.C,D22*%
X209138000Y-68637500D02*
X209138000Y-74437500D01*
X211538000Y-68637500D02*
X209138000Y-68637500D01*
X211538000Y-74437500D02*
X211538000Y-68637500D01*
X211538000Y-74362500D02*
X209138000Y-74362500D01*
X211538000Y-74237500D02*
X209138000Y-74237500D01*
X209138000Y-74462500D02*
X211538000Y-74462500D01*
X211538000Y-74062500D02*
X209138000Y-74062500D01*
X211538000Y-73887500D02*
X209138000Y-73887500D01*
X211538000Y-73712500D02*
X209138000Y-73712500D01*
%TO.C,D21*%
X228182000Y-71018750D02*
X228182000Y-76818750D01*
X230582000Y-71018750D02*
X228182000Y-71018750D01*
X230582000Y-76818750D02*
X230582000Y-71018750D01*
X230582000Y-76743750D02*
X228182000Y-76743750D01*
X230582000Y-76618750D02*
X228182000Y-76618750D01*
X228182000Y-76843750D02*
X230582000Y-76843750D01*
X230582000Y-76443750D02*
X228182000Y-76443750D01*
X230582000Y-76268750D02*
X228182000Y-76268750D01*
X230582000Y-76093750D02*
X228182000Y-76093750D01*
%TO.C,D20*%
X54405500Y-52762500D02*
X54405500Y-58562500D01*
X56805500Y-52762500D02*
X54405500Y-52762500D01*
X56805500Y-58562500D02*
X56805500Y-52762500D01*
X56805500Y-58487500D02*
X54405500Y-58487500D01*
X56805500Y-58362500D02*
X54405500Y-58362500D01*
X54405500Y-58587500D02*
X56805500Y-58587500D01*
X56805500Y-58187500D02*
X54405500Y-58187500D01*
X56805500Y-58012500D02*
X54405500Y-58012500D01*
X56805500Y-57837500D02*
X54405500Y-57837500D01*
%TO.C,D19*%
X73449500Y-52762500D02*
X73449500Y-58562500D01*
X75849500Y-52762500D02*
X73449500Y-52762500D01*
X75849500Y-58562500D02*
X75849500Y-52762500D01*
X75849500Y-58487500D02*
X73449500Y-58487500D01*
X75849500Y-58362500D02*
X73449500Y-58362500D01*
X73449500Y-58587500D02*
X75849500Y-58587500D01*
X75849500Y-58187500D02*
X73449500Y-58187500D01*
X75849500Y-58012500D02*
X73449500Y-58012500D01*
X75849500Y-57837500D02*
X73449500Y-57837500D01*
%TO.C,D18*%
X92493500Y-52762500D02*
X92493500Y-58562500D01*
X94893500Y-52762500D02*
X92493500Y-52762500D01*
X94893500Y-58562500D02*
X94893500Y-52762500D01*
X94893500Y-58487500D02*
X92493500Y-58487500D01*
X94893500Y-58362500D02*
X92493500Y-58362500D01*
X92493500Y-58587500D02*
X94893500Y-58587500D01*
X94893500Y-58187500D02*
X92493500Y-58187500D01*
X94893500Y-58012500D02*
X92493500Y-58012500D01*
X94893500Y-57837500D02*
X92493500Y-57837500D01*
%TO.C,D17*%
X111537500Y-52762500D02*
X111537500Y-58562500D01*
X113937500Y-52762500D02*
X111537500Y-52762500D01*
X113937500Y-58562500D02*
X113937500Y-52762500D01*
X113937500Y-58487500D02*
X111537500Y-58487500D01*
X113937500Y-58362500D02*
X111537500Y-58362500D01*
X111537500Y-58587500D02*
X113937500Y-58587500D01*
X113937500Y-58187500D02*
X111537500Y-58187500D01*
X113937500Y-58012500D02*
X111537500Y-58012500D01*
X113937500Y-57837500D02*
X111537500Y-57837500D01*
%TO.C,D16*%
X132962000Y-52762500D02*
X132962000Y-58562500D01*
X135362000Y-52762500D02*
X132962000Y-52762500D01*
X135362000Y-58562500D02*
X135362000Y-52762500D01*
X135362000Y-58487500D02*
X132962000Y-58487500D01*
X135362000Y-58362500D02*
X132962000Y-58362500D01*
X132962000Y-58587500D02*
X135362000Y-58587500D01*
X135362000Y-58187500D02*
X132962000Y-58187500D01*
X135362000Y-58012500D02*
X132962000Y-58012500D01*
X135362000Y-57837500D02*
X132962000Y-57837500D01*
%TO.C,D15*%
X152006000Y-52762500D02*
X152006000Y-58562500D01*
X154406000Y-52762500D02*
X152006000Y-52762500D01*
X154406000Y-58562500D02*
X154406000Y-52762500D01*
X154406000Y-58487500D02*
X152006000Y-58487500D01*
X154406000Y-58362500D02*
X152006000Y-58362500D01*
X152006000Y-58587500D02*
X154406000Y-58587500D01*
X154406000Y-58187500D02*
X152006000Y-58187500D01*
X154406000Y-58012500D02*
X152006000Y-58012500D01*
X154406000Y-57837500D02*
X152006000Y-57837500D01*
%TO.C,D14*%
X171050000Y-49587500D02*
X171050000Y-55387500D01*
X173450000Y-49587500D02*
X171050000Y-49587500D01*
X173450000Y-55387500D02*
X173450000Y-49587500D01*
X173450000Y-55312500D02*
X171050000Y-55312500D01*
X173450000Y-55187500D02*
X171050000Y-55187500D01*
X171050000Y-55412500D02*
X173450000Y-55412500D01*
X173450000Y-55012500D02*
X171050000Y-55012500D01*
X173450000Y-54837500D02*
X171050000Y-54837500D01*
X173450000Y-54662500D02*
X171050000Y-54662500D01*
%TO.C,D13*%
X190094000Y-47206250D02*
X190094000Y-53006250D01*
X192494000Y-47206250D02*
X190094000Y-47206250D01*
X192494000Y-53006250D02*
X192494000Y-47206250D01*
X192494000Y-52931250D02*
X190094000Y-52931250D01*
X192494000Y-52806250D02*
X190094000Y-52806250D01*
X190094000Y-53031250D02*
X192494000Y-53031250D01*
X192494000Y-52631250D02*
X190094000Y-52631250D01*
X192494000Y-52456250D02*
X190094000Y-52456250D01*
X192494000Y-52281250D02*
X190094000Y-52281250D01*
%TO.C,D12*%
X209138000Y-50381250D02*
X209138000Y-56181250D01*
X211538000Y-50381250D02*
X209138000Y-50381250D01*
X211538000Y-56181250D02*
X211538000Y-50381250D01*
X211538000Y-56106250D02*
X209138000Y-56106250D01*
X211538000Y-55981250D02*
X209138000Y-55981250D01*
X209138000Y-56206250D02*
X211538000Y-56206250D01*
X211538000Y-55806250D02*
X209138000Y-55806250D01*
X211538000Y-55631250D02*
X209138000Y-55631250D01*
X211538000Y-55456250D02*
X209138000Y-55456250D01*
%TO.C,D11*%
X228182000Y-51968750D02*
X228182000Y-57768750D01*
X230582000Y-51968750D02*
X228182000Y-51968750D01*
X230582000Y-57768750D02*
X230582000Y-51968750D01*
X230582000Y-57693750D02*
X228182000Y-57693750D01*
X230582000Y-57568750D02*
X228182000Y-57568750D01*
X228182000Y-57793750D02*
X230582000Y-57793750D01*
X230582000Y-57393750D02*
X228182000Y-57393750D01*
X230582000Y-57218750D02*
X228182000Y-57218750D01*
X230582000Y-57043750D02*
X228182000Y-57043750D01*
%TO.C,D10*%
X54405500Y-33712500D02*
X54405500Y-39512500D01*
X56805500Y-33712500D02*
X54405500Y-33712500D01*
X56805500Y-39512500D02*
X56805500Y-33712500D01*
X56805500Y-39437500D02*
X54405500Y-39437500D01*
X56805500Y-39312500D02*
X54405500Y-39312500D01*
X54405500Y-39537500D02*
X56805500Y-39537500D01*
X56805500Y-39137500D02*
X54405500Y-39137500D01*
X56805500Y-38962500D02*
X54405500Y-38962500D01*
X56805500Y-38787500D02*
X54405500Y-38787500D01*
%TO.C,D9*%
X73449500Y-33712500D02*
X73449500Y-39512500D01*
X75849500Y-33712500D02*
X73449500Y-33712500D01*
X75849500Y-39512500D02*
X75849500Y-33712500D01*
X75849500Y-39437500D02*
X73449500Y-39437500D01*
X75849500Y-39312500D02*
X73449500Y-39312500D01*
X73449500Y-39537500D02*
X75849500Y-39537500D01*
X75849500Y-39137500D02*
X73449500Y-39137500D01*
X75849500Y-38962500D02*
X73449500Y-38962500D01*
X75849500Y-38787500D02*
X73449500Y-38787500D01*
%TO.C,D8*%
X92493500Y-33712500D02*
X92493500Y-39512500D01*
X94893500Y-33712500D02*
X92493500Y-33712500D01*
X94893500Y-39512500D02*
X94893500Y-33712500D01*
X94893500Y-39437500D02*
X92493500Y-39437500D01*
X94893500Y-39312500D02*
X92493500Y-39312500D01*
X92493500Y-39537500D02*
X94893500Y-39537500D01*
X94893500Y-39137500D02*
X92493500Y-39137500D01*
X94893500Y-38962500D02*
X92493500Y-38962500D01*
X94893500Y-38787500D02*
X92493500Y-38787500D01*
%TO.C,D7*%
X111537500Y-33712500D02*
X111537500Y-39512500D01*
X113937500Y-33712500D02*
X111537500Y-33712500D01*
X113937500Y-39512500D02*
X113937500Y-33712500D01*
X113937500Y-39437500D02*
X111537500Y-39437500D01*
X113937500Y-39312500D02*
X111537500Y-39312500D01*
X111537500Y-39537500D02*
X113937500Y-39537500D01*
X113937500Y-39137500D02*
X111537500Y-39137500D01*
X113937500Y-38962500D02*
X111537500Y-38962500D01*
X113937500Y-38787500D02*
X111537500Y-38787500D01*
%TO.C,D6*%
X132962000Y-33712500D02*
X132962000Y-39512500D01*
X135362000Y-33712500D02*
X132962000Y-33712500D01*
X135362000Y-39512500D02*
X135362000Y-33712500D01*
X135362000Y-39437500D02*
X132962000Y-39437500D01*
X135362000Y-39312500D02*
X132962000Y-39312500D01*
X132962000Y-39537500D02*
X135362000Y-39537500D01*
X135362000Y-39137500D02*
X132962000Y-39137500D01*
X135362000Y-38962500D02*
X132962000Y-38962500D01*
X135362000Y-38787500D02*
X132962000Y-38787500D01*
%TO.C,D5*%
X152006000Y-33712500D02*
X152006000Y-39512500D01*
X154406000Y-33712500D02*
X152006000Y-33712500D01*
X154406000Y-39512500D02*
X154406000Y-33712500D01*
X154406000Y-39437500D02*
X152006000Y-39437500D01*
X154406000Y-39312500D02*
X152006000Y-39312500D01*
X152006000Y-39537500D02*
X154406000Y-39537500D01*
X154406000Y-39137500D02*
X152006000Y-39137500D01*
X154406000Y-38962500D02*
X152006000Y-38962500D01*
X154406000Y-38787500D02*
X152006000Y-38787500D01*
%TO.C,D4*%
X171050000Y-30537500D02*
X171050000Y-36337500D01*
X173450000Y-30537500D02*
X171050000Y-30537500D01*
X173450000Y-36337500D02*
X173450000Y-30537500D01*
X173450000Y-36262500D02*
X171050000Y-36262500D01*
X173450000Y-36137500D02*
X171050000Y-36137500D01*
X171050000Y-36362500D02*
X173450000Y-36362500D01*
X173450000Y-35962500D02*
X171050000Y-35962500D01*
X173450000Y-35787500D02*
X171050000Y-35787500D01*
X173450000Y-35612500D02*
X171050000Y-35612500D01*
%TO.C,D3*%
X190094000Y-28156250D02*
X190094000Y-33956250D01*
X192494000Y-28156250D02*
X190094000Y-28156250D01*
X192494000Y-33956250D02*
X192494000Y-28156250D01*
X192494000Y-33881250D02*
X190094000Y-33881250D01*
X192494000Y-33756250D02*
X190094000Y-33756250D01*
X190094000Y-33981250D02*
X192494000Y-33981250D01*
X192494000Y-33581250D02*
X190094000Y-33581250D01*
X192494000Y-33406250D02*
X190094000Y-33406250D01*
X192494000Y-33231250D02*
X190094000Y-33231250D01*
%TO.C,D2*%
X209138000Y-30537500D02*
X209138000Y-36337500D01*
X211538000Y-30537500D02*
X209138000Y-30537500D01*
X211538000Y-36337500D02*
X211538000Y-30537500D01*
X211538000Y-36262500D02*
X209138000Y-36262500D01*
X211538000Y-36137500D02*
X209138000Y-36137500D01*
X209138000Y-36362500D02*
X211538000Y-36362500D01*
X211538000Y-35962500D02*
X209138000Y-35962500D01*
X211538000Y-35787500D02*
X209138000Y-35787500D01*
X211538000Y-35612500D02*
X209138000Y-35612500D01*
%TO.C,D1*%
X228182000Y-32856250D02*
X228182000Y-38656250D01*
X230582000Y-32856250D02*
X228182000Y-32856250D01*
X230582000Y-38656250D02*
X230582000Y-32856250D01*
X230582000Y-38581250D02*
X228182000Y-38581250D01*
X230582000Y-38456250D02*
X228182000Y-38456250D01*
X228182000Y-38681250D02*
X230582000Y-38681250D01*
X230582000Y-38281250D02*
X228182000Y-38281250D01*
X230582000Y-38106250D02*
X228182000Y-38106250D01*
X230582000Y-37931250D02*
X228182000Y-37931250D01*
D12*
%TO.C,U1*%
X250190000Y-29210000D02*
X250190000Y-59690000D01*
X250190000Y-59690000D02*
X232410000Y-59690000D01*
X232410000Y-59690000D02*
X232410000Y-29210000D01*
X247650000Y-29210000D02*
X247650000Y-31750000D01*
X247650000Y-31750000D02*
X250190000Y-31750000D01*
D13*
G36*
X236368432Y-35089360D02*
G01*
X236368432Y-35389360D01*
X236468432Y-35389360D01*
X236468432Y-35089360D01*
X236368432Y-35089360D01*
G37*
X236368432Y-35089360D02*
X236368432Y-35389360D01*
X236468432Y-35389360D01*
X236468432Y-35089360D01*
X236368432Y-35089360D01*
G36*
X236568432Y-35489360D02*
G01*
X236568432Y-35589360D01*
X236668432Y-35589360D01*
X236668432Y-35489360D01*
X236568432Y-35489360D01*
G37*
X236568432Y-35489360D02*
X236568432Y-35589360D01*
X236668432Y-35589360D01*
X236668432Y-35489360D01*
X236568432Y-35489360D01*
G36*
X236368432Y-35089360D02*
G01*
X236368432Y-35189360D01*
X236868432Y-35189360D01*
X236868432Y-35089360D01*
X236368432Y-35089360D01*
G37*
X236368432Y-35089360D02*
X236368432Y-35189360D01*
X236868432Y-35189360D01*
X236868432Y-35089360D01*
X236368432Y-35089360D01*
G36*
X236768432Y-35089360D02*
G01*
X236768432Y-35889360D01*
X236868432Y-35889360D01*
X236868432Y-35089360D01*
X236768432Y-35089360D01*
G37*
X236768432Y-35089360D02*
X236768432Y-35889360D01*
X236868432Y-35889360D01*
X236868432Y-35089360D01*
X236768432Y-35089360D01*
G36*
X236368432Y-35689360D02*
G01*
X236368432Y-35889360D01*
X236468432Y-35889360D01*
X236468432Y-35689360D01*
X236368432Y-35689360D01*
G37*
X236368432Y-35689360D02*
X236368432Y-35889360D01*
X236468432Y-35889360D01*
X236468432Y-35689360D01*
X236368432Y-35689360D01*
D12*
X232410000Y-29210000D02*
X232410000Y-26670000D01*
X232410000Y-26670000D02*
X250190000Y-26670000D01*
X250190000Y-26670000D02*
X250190000Y-29210000D01*
X247650000Y-29210000D02*
X250190000Y-29210000D01*
%TO.C,R2*%
D13*
X241291666Y-42188630D02*
X241625000Y-41712440D01*
X241863095Y-42188630D02*
X241863095Y-41188630D01*
X241482142Y-41188630D01*
X241386904Y-41236250D01*
X241339285Y-41283869D01*
X241291666Y-41379107D01*
X241291666Y-41521964D01*
X241339285Y-41617202D01*
X241386904Y-41664821D01*
X241482142Y-41712440D01*
X241863095Y-41712440D01*
X240910714Y-41283869D02*
X240863095Y-41236250D01*
X240767857Y-41188630D01*
X240529761Y-41188630D01*
X240434523Y-41236250D01*
X240386904Y-41283869D01*
X240339285Y-41379107D01*
X240339285Y-41474345D01*
X240386904Y-41617202D01*
X240958333Y-42188630D01*
X240339285Y-42188630D01*
%TO.C,R1*%
X241291666Y-36632380D02*
X241625000Y-36156190D01*
X241863095Y-36632380D02*
X241863095Y-35632380D01*
X241482142Y-35632380D01*
X241386904Y-35680000D01*
X241339285Y-35727619D01*
X241291666Y-35822857D01*
X241291666Y-35965714D01*
X241339285Y-36060952D01*
X241386904Y-36108571D01*
X241482142Y-36156190D01*
X241863095Y-36156190D01*
X240339285Y-36632380D02*
X240910714Y-36632380D01*
X240625000Y-36632380D02*
X240625000Y-35632380D01*
X240720238Y-35775238D01*
X240815476Y-35870476D01*
X240910714Y-35918095D01*
%TO.C,D45*%
X161949404Y-111741071D02*
X161149404Y-111741071D01*
X161149404Y-111931547D01*
X161187500Y-112045833D01*
X161263690Y-112122023D01*
X161339880Y-112160119D01*
X161492261Y-112198214D01*
X161606547Y-112198214D01*
X161758928Y-112160119D01*
X161835119Y-112122023D01*
X161911309Y-112045833D01*
X161949404Y-111931547D01*
X161949404Y-111741071D01*
X161416071Y-112883928D02*
X161949404Y-112883928D01*
X161111309Y-112693452D02*
X161682738Y-112502976D01*
X161682738Y-112998214D01*
X161149404Y-113683928D02*
X161149404Y-113302976D01*
X161530357Y-113264880D01*
X161492261Y-113302976D01*
X161454166Y-113379166D01*
X161454166Y-113569642D01*
X161492261Y-113645833D01*
X161530357Y-113683928D01*
X161606547Y-113722023D01*
X161797023Y-113722023D01*
X161873214Y-113683928D01*
X161911309Y-113645833D01*
X161949404Y-113569642D01*
X161949404Y-113379166D01*
X161911309Y-113302976D01*
X161873214Y-113264880D01*
%TO.C,D44*%
X180999404Y-111741071D02*
X180199404Y-111741071D01*
X180199404Y-111931547D01*
X180237500Y-112045833D01*
X180313690Y-112122023D01*
X180389880Y-112160119D01*
X180542261Y-112198214D01*
X180656547Y-112198214D01*
X180808928Y-112160119D01*
X180885119Y-112122023D01*
X180961309Y-112045833D01*
X180999404Y-111931547D01*
X180999404Y-111741071D01*
X180466071Y-112883928D02*
X180999404Y-112883928D01*
X180161309Y-112693452D02*
X180732738Y-112502976D01*
X180732738Y-112998214D01*
X180466071Y-113645833D02*
X180999404Y-113645833D01*
X180161309Y-113455357D02*
X180732738Y-113264880D01*
X180732738Y-113760119D01*
%TO.C,D43*%
X200049404Y-111741071D02*
X199249404Y-111741071D01*
X199249404Y-111931547D01*
X199287500Y-112045833D01*
X199363690Y-112122023D01*
X199439880Y-112160119D01*
X199592261Y-112198214D01*
X199706547Y-112198214D01*
X199858928Y-112160119D01*
X199935119Y-112122023D01*
X200011309Y-112045833D01*
X200049404Y-111931547D01*
X200049404Y-111741071D01*
X199516071Y-112883928D02*
X200049404Y-112883928D01*
X199211309Y-112693452D02*
X199782738Y-112502976D01*
X199782738Y-112998214D01*
X199249404Y-113226785D02*
X199249404Y-113722023D01*
X199554166Y-113455357D01*
X199554166Y-113569642D01*
X199592261Y-113645833D01*
X199630357Y-113683928D01*
X199706547Y-113722023D01*
X199897023Y-113722023D01*
X199973214Y-113683928D01*
X200011309Y-113645833D01*
X200049404Y-113569642D01*
X200049404Y-113341071D01*
X200011309Y-113264880D01*
X199973214Y-113226785D01*
%TO.C,D42*%
X219099404Y-114122321D02*
X218299404Y-114122321D01*
X218299404Y-114312797D01*
X218337500Y-114427083D01*
X218413690Y-114503273D01*
X218489880Y-114541369D01*
X218642261Y-114579464D01*
X218756547Y-114579464D01*
X218908928Y-114541369D01*
X218985119Y-114503273D01*
X219061309Y-114427083D01*
X219099404Y-114312797D01*
X219099404Y-114122321D01*
X218566071Y-115265178D02*
X219099404Y-115265178D01*
X218261309Y-115074702D02*
X218832738Y-114884226D01*
X218832738Y-115379464D01*
X218375595Y-115646130D02*
X218337500Y-115684226D01*
X218299404Y-115760416D01*
X218299404Y-115950892D01*
X218337500Y-116027083D01*
X218375595Y-116065178D01*
X218451785Y-116103273D01*
X218527976Y-116103273D01*
X218642261Y-116065178D01*
X219099404Y-115608035D01*
X219099404Y-116103273D01*
%TO.C,D41*%
X244236329Y-107844482D02*
X244636329Y-107151661D01*
X244471372Y-107056423D01*
X244353350Y-107032272D01*
X244249272Y-107060159D01*
X244178185Y-107107095D01*
X244069003Y-107220013D01*
X244011860Y-107318987D01*
X243968661Y-107470000D01*
X243963557Y-107555031D01*
X243991445Y-107659109D01*
X244071372Y-107749243D01*
X244236329Y-107844482D01*
X243513252Y-106811173D02*
X243246586Y-107273053D01*
X243830590Y-106642479D02*
X243709833Y-107232589D01*
X243280945Y-106984970D01*
X242520774Y-106854005D02*
X242916671Y-107082577D01*
X242718723Y-106968291D02*
X243118723Y-106275471D01*
X243127563Y-106412540D01*
X243155450Y-106516618D01*
X243202385Y-106587705D01*
%TO.C,D40*%
X54042404Y-92691071D02*
X53242404Y-92691071D01*
X53242404Y-92881547D01*
X53280500Y-92995833D01*
X53356690Y-93072023D01*
X53432880Y-93110119D01*
X53585261Y-93148214D01*
X53699547Y-93148214D01*
X53851928Y-93110119D01*
X53928119Y-93072023D01*
X54004309Y-92995833D01*
X54042404Y-92881547D01*
X54042404Y-92691071D01*
X53509071Y-93833928D02*
X54042404Y-93833928D01*
X53204309Y-93643452D02*
X53775738Y-93452976D01*
X53775738Y-93948214D01*
X53242404Y-94405357D02*
X53242404Y-94481547D01*
X53280500Y-94557738D01*
X53318595Y-94595833D01*
X53394785Y-94633928D01*
X53547166Y-94672023D01*
X53737642Y-94672023D01*
X53890023Y-94633928D01*
X53966214Y-94595833D01*
X54004309Y-94557738D01*
X54042404Y-94481547D01*
X54042404Y-94405357D01*
X54004309Y-94329166D01*
X53966214Y-94291071D01*
X53890023Y-94252976D01*
X53737642Y-94214880D01*
X53547166Y-94214880D01*
X53394785Y-94252976D01*
X53318595Y-94291071D01*
X53280500Y-94329166D01*
X53242404Y-94405357D01*
%TO.C,D39*%
X73086404Y-92691071D02*
X72286404Y-92691071D01*
X72286404Y-92881547D01*
X72324500Y-92995833D01*
X72400690Y-93072023D01*
X72476880Y-93110119D01*
X72629261Y-93148214D01*
X72743547Y-93148214D01*
X72895928Y-93110119D01*
X72972119Y-93072023D01*
X73048309Y-92995833D01*
X73086404Y-92881547D01*
X73086404Y-92691071D01*
X72286404Y-93414880D02*
X72286404Y-93910119D01*
X72591166Y-93643452D01*
X72591166Y-93757738D01*
X72629261Y-93833928D01*
X72667357Y-93872023D01*
X72743547Y-93910119D01*
X72934023Y-93910119D01*
X73010214Y-93872023D01*
X73048309Y-93833928D01*
X73086404Y-93757738D01*
X73086404Y-93529166D01*
X73048309Y-93452976D01*
X73010214Y-93414880D01*
X73086404Y-94291071D02*
X73086404Y-94443452D01*
X73048309Y-94519642D01*
X73010214Y-94557738D01*
X72895928Y-94633928D01*
X72743547Y-94672023D01*
X72438785Y-94672023D01*
X72362595Y-94633928D01*
X72324500Y-94595833D01*
X72286404Y-94519642D01*
X72286404Y-94367261D01*
X72324500Y-94291071D01*
X72362595Y-94252976D01*
X72438785Y-94214880D01*
X72629261Y-94214880D01*
X72705452Y-94252976D01*
X72743547Y-94291071D01*
X72781642Y-94367261D01*
X72781642Y-94519642D01*
X72743547Y-94595833D01*
X72705452Y-94633928D01*
X72629261Y-94672023D01*
%TO.C,D38*%
X92130404Y-92678571D02*
X91330404Y-92678571D01*
X91330404Y-92869047D01*
X91368500Y-92983333D01*
X91444690Y-93059523D01*
X91520880Y-93097619D01*
X91673261Y-93135714D01*
X91787547Y-93135714D01*
X91939928Y-93097619D01*
X92016119Y-93059523D01*
X92092309Y-92983333D01*
X92130404Y-92869047D01*
X92130404Y-92678571D01*
X91330404Y-93402380D02*
X91330404Y-93897619D01*
X91635166Y-93630952D01*
X91635166Y-93745238D01*
X91673261Y-93821428D01*
X91711357Y-93859523D01*
X91787547Y-93897619D01*
X91978023Y-93897619D01*
X92054214Y-93859523D01*
X92092309Y-93821428D01*
X92130404Y-93745238D01*
X92130404Y-93516666D01*
X92092309Y-93440476D01*
X92054214Y-93402380D01*
X91673261Y-94354761D02*
X91635166Y-94278571D01*
X91597071Y-94240476D01*
X91520880Y-94202380D01*
X91482785Y-94202380D01*
X91406595Y-94240476D01*
X91368500Y-94278571D01*
X91330404Y-94354761D01*
X91330404Y-94507142D01*
X91368500Y-94583333D01*
X91406595Y-94621428D01*
X91482785Y-94659523D01*
X91520880Y-94659523D01*
X91597071Y-94621428D01*
X91635166Y-94583333D01*
X91673261Y-94507142D01*
X91673261Y-94354761D01*
X91711357Y-94278571D01*
X91749452Y-94240476D01*
X91825642Y-94202380D01*
X91978023Y-94202380D01*
X92054214Y-94240476D01*
X92092309Y-94278571D01*
X92130404Y-94354761D01*
X92130404Y-94507142D01*
X92092309Y-94583333D01*
X92054214Y-94621428D01*
X91978023Y-94659523D01*
X91825642Y-94659523D01*
X91749452Y-94621428D01*
X91711357Y-94583333D01*
X91673261Y-94507142D01*
%TO.C,D37*%
X111174404Y-92691071D02*
X110374404Y-92691071D01*
X110374404Y-92881547D01*
X110412500Y-92995833D01*
X110488690Y-93072023D01*
X110564880Y-93110119D01*
X110717261Y-93148214D01*
X110831547Y-93148214D01*
X110983928Y-93110119D01*
X111060119Y-93072023D01*
X111136309Y-92995833D01*
X111174404Y-92881547D01*
X111174404Y-92691071D01*
X110374404Y-93414880D02*
X110374404Y-93910119D01*
X110679166Y-93643452D01*
X110679166Y-93757738D01*
X110717261Y-93833928D01*
X110755357Y-93872023D01*
X110831547Y-93910119D01*
X111022023Y-93910119D01*
X111098214Y-93872023D01*
X111136309Y-93833928D01*
X111174404Y-93757738D01*
X111174404Y-93529166D01*
X111136309Y-93452976D01*
X111098214Y-93414880D01*
X110374404Y-94176785D02*
X110374404Y-94710119D01*
X111174404Y-94367261D01*
%TO.C,D36*%
X132598904Y-92691071D02*
X131798904Y-92691071D01*
X131798904Y-92881547D01*
X131837000Y-92995833D01*
X131913190Y-93072023D01*
X131989380Y-93110119D01*
X132141761Y-93148214D01*
X132256047Y-93148214D01*
X132408428Y-93110119D01*
X132484619Y-93072023D01*
X132560809Y-92995833D01*
X132598904Y-92881547D01*
X132598904Y-92691071D01*
X131798904Y-93414880D02*
X131798904Y-93910119D01*
X132103666Y-93643452D01*
X132103666Y-93757738D01*
X132141761Y-93833928D01*
X132179857Y-93872023D01*
X132256047Y-93910119D01*
X132446523Y-93910119D01*
X132522714Y-93872023D01*
X132560809Y-93833928D01*
X132598904Y-93757738D01*
X132598904Y-93529166D01*
X132560809Y-93452976D01*
X132522714Y-93414880D01*
X131798904Y-94595833D02*
X131798904Y-94443452D01*
X131837000Y-94367261D01*
X131875095Y-94329166D01*
X131989380Y-94252976D01*
X132141761Y-94214880D01*
X132446523Y-94214880D01*
X132522714Y-94252976D01*
X132560809Y-94291071D01*
X132598904Y-94367261D01*
X132598904Y-94519642D01*
X132560809Y-94595833D01*
X132522714Y-94633928D01*
X132446523Y-94672023D01*
X132256047Y-94672023D01*
X132179857Y-94633928D01*
X132141761Y-94595833D01*
X132103666Y-94519642D01*
X132103666Y-94367261D01*
X132141761Y-94291071D01*
X132179857Y-94252976D01*
X132256047Y-94214880D01*
%TO.C,D35*%
X151642904Y-92691071D02*
X150842904Y-92691071D01*
X150842904Y-92881547D01*
X150881000Y-92995833D01*
X150957190Y-93072023D01*
X151033380Y-93110119D01*
X151185761Y-93148214D01*
X151300047Y-93148214D01*
X151452428Y-93110119D01*
X151528619Y-93072023D01*
X151604809Y-92995833D01*
X151642904Y-92881547D01*
X151642904Y-92691071D01*
X150842904Y-93414880D02*
X150842904Y-93910119D01*
X151147666Y-93643452D01*
X151147666Y-93757738D01*
X151185761Y-93833928D01*
X151223857Y-93872023D01*
X151300047Y-93910119D01*
X151490523Y-93910119D01*
X151566714Y-93872023D01*
X151604809Y-93833928D01*
X151642904Y-93757738D01*
X151642904Y-93529166D01*
X151604809Y-93452976D01*
X151566714Y-93414880D01*
X150842904Y-94633928D02*
X150842904Y-94252976D01*
X151223857Y-94214880D01*
X151185761Y-94252976D01*
X151147666Y-94329166D01*
X151147666Y-94519642D01*
X151185761Y-94595833D01*
X151223857Y-94633928D01*
X151300047Y-94672023D01*
X151490523Y-94672023D01*
X151566714Y-94633928D01*
X151604809Y-94595833D01*
X151642904Y-94519642D01*
X151642904Y-94329166D01*
X151604809Y-94252976D01*
X151566714Y-94214880D01*
%TO.C,D34*%
X170686904Y-89516071D02*
X169886904Y-89516071D01*
X169886904Y-89706547D01*
X169925000Y-89820833D01*
X170001190Y-89897023D01*
X170077380Y-89935119D01*
X170229761Y-89973214D01*
X170344047Y-89973214D01*
X170496428Y-89935119D01*
X170572619Y-89897023D01*
X170648809Y-89820833D01*
X170686904Y-89706547D01*
X170686904Y-89516071D01*
X169886904Y-90239880D02*
X169886904Y-90735119D01*
X170191666Y-90468452D01*
X170191666Y-90582738D01*
X170229761Y-90658928D01*
X170267857Y-90697023D01*
X170344047Y-90735119D01*
X170534523Y-90735119D01*
X170610714Y-90697023D01*
X170648809Y-90658928D01*
X170686904Y-90582738D01*
X170686904Y-90354166D01*
X170648809Y-90277976D01*
X170610714Y-90239880D01*
X170153571Y-91420833D02*
X170686904Y-91420833D01*
X169848809Y-91230357D02*
X170420238Y-91039880D01*
X170420238Y-91535119D01*
%TO.C,D33*%
X189730904Y-87134821D02*
X188930904Y-87134821D01*
X188930904Y-87325297D01*
X188969000Y-87439583D01*
X189045190Y-87515773D01*
X189121380Y-87553869D01*
X189273761Y-87591964D01*
X189388047Y-87591964D01*
X189540428Y-87553869D01*
X189616619Y-87515773D01*
X189692809Y-87439583D01*
X189730904Y-87325297D01*
X189730904Y-87134821D01*
X188930904Y-87858630D02*
X188930904Y-88353869D01*
X189235666Y-88087202D01*
X189235666Y-88201488D01*
X189273761Y-88277678D01*
X189311857Y-88315773D01*
X189388047Y-88353869D01*
X189578523Y-88353869D01*
X189654714Y-88315773D01*
X189692809Y-88277678D01*
X189730904Y-88201488D01*
X189730904Y-87972916D01*
X189692809Y-87896726D01*
X189654714Y-87858630D01*
X188930904Y-88620535D02*
X188930904Y-89115773D01*
X189235666Y-88849107D01*
X189235666Y-88963392D01*
X189273761Y-89039583D01*
X189311857Y-89077678D01*
X189388047Y-89115773D01*
X189578523Y-89115773D01*
X189654714Y-89077678D01*
X189692809Y-89039583D01*
X189730904Y-88963392D01*
X189730904Y-88734821D01*
X189692809Y-88658630D01*
X189654714Y-88620535D01*
%TO.C,D32*%
X208774904Y-90309821D02*
X207974904Y-90309821D01*
X207974904Y-90500297D01*
X208013000Y-90614583D01*
X208089190Y-90690773D01*
X208165380Y-90728869D01*
X208317761Y-90766964D01*
X208432047Y-90766964D01*
X208584428Y-90728869D01*
X208660619Y-90690773D01*
X208736809Y-90614583D01*
X208774904Y-90500297D01*
X208774904Y-90309821D01*
X207974904Y-91033630D02*
X207974904Y-91528869D01*
X208279666Y-91262202D01*
X208279666Y-91376488D01*
X208317761Y-91452678D01*
X208355857Y-91490773D01*
X208432047Y-91528869D01*
X208622523Y-91528869D01*
X208698714Y-91490773D01*
X208736809Y-91452678D01*
X208774904Y-91376488D01*
X208774904Y-91147916D01*
X208736809Y-91071726D01*
X208698714Y-91033630D01*
X208051095Y-91833630D02*
X208013000Y-91871726D01*
X207974904Y-91947916D01*
X207974904Y-92138392D01*
X208013000Y-92214583D01*
X208051095Y-92252678D01*
X208127285Y-92290773D01*
X208203476Y-92290773D01*
X208317761Y-92252678D01*
X208774904Y-91795535D01*
X208774904Y-92290773D01*
%TO.C,D31*%
X227818904Y-91897321D02*
X227018904Y-91897321D01*
X227018904Y-92087797D01*
X227057000Y-92202083D01*
X227133190Y-92278273D01*
X227209380Y-92316369D01*
X227361761Y-92354464D01*
X227476047Y-92354464D01*
X227628428Y-92316369D01*
X227704619Y-92278273D01*
X227780809Y-92202083D01*
X227818904Y-92087797D01*
X227818904Y-91897321D01*
X227018904Y-92621130D02*
X227018904Y-93116369D01*
X227323666Y-92849702D01*
X227323666Y-92963988D01*
X227361761Y-93040178D01*
X227399857Y-93078273D01*
X227476047Y-93116369D01*
X227666523Y-93116369D01*
X227742714Y-93078273D01*
X227780809Y-93040178D01*
X227818904Y-92963988D01*
X227818904Y-92735416D01*
X227780809Y-92659226D01*
X227742714Y-92621130D01*
X227818904Y-93878273D02*
X227818904Y-93421130D01*
X227818904Y-93649702D02*
X227018904Y-93649702D01*
X227133190Y-93573511D01*
X227209380Y-93497321D01*
X227247476Y-93421130D01*
%TO.C,D30*%
X54042404Y-73641071D02*
X53242404Y-73641071D01*
X53242404Y-73831547D01*
X53280500Y-73945833D01*
X53356690Y-74022023D01*
X53432880Y-74060119D01*
X53585261Y-74098214D01*
X53699547Y-74098214D01*
X53851928Y-74060119D01*
X53928119Y-74022023D01*
X54004309Y-73945833D01*
X54042404Y-73831547D01*
X54042404Y-73641071D01*
X53242404Y-74364880D02*
X53242404Y-74860119D01*
X53547166Y-74593452D01*
X53547166Y-74707738D01*
X53585261Y-74783928D01*
X53623357Y-74822023D01*
X53699547Y-74860119D01*
X53890023Y-74860119D01*
X53966214Y-74822023D01*
X54004309Y-74783928D01*
X54042404Y-74707738D01*
X54042404Y-74479166D01*
X54004309Y-74402976D01*
X53966214Y-74364880D01*
X53242404Y-75355357D02*
X53242404Y-75431547D01*
X53280500Y-75507738D01*
X53318595Y-75545833D01*
X53394785Y-75583928D01*
X53547166Y-75622023D01*
X53737642Y-75622023D01*
X53890023Y-75583928D01*
X53966214Y-75545833D01*
X54004309Y-75507738D01*
X54042404Y-75431547D01*
X54042404Y-75355357D01*
X54004309Y-75279166D01*
X53966214Y-75241071D01*
X53890023Y-75202976D01*
X53737642Y-75164880D01*
X53547166Y-75164880D01*
X53394785Y-75202976D01*
X53318595Y-75241071D01*
X53280500Y-75279166D01*
X53242404Y-75355357D01*
%TO.C,D29*%
X73086404Y-73641071D02*
X72286404Y-73641071D01*
X72286404Y-73831547D01*
X72324500Y-73945833D01*
X72400690Y-74022023D01*
X72476880Y-74060119D01*
X72629261Y-74098214D01*
X72743547Y-74098214D01*
X72895928Y-74060119D01*
X72972119Y-74022023D01*
X73048309Y-73945833D01*
X73086404Y-73831547D01*
X73086404Y-73641071D01*
X72362595Y-74402976D02*
X72324500Y-74441071D01*
X72286404Y-74517261D01*
X72286404Y-74707738D01*
X72324500Y-74783928D01*
X72362595Y-74822023D01*
X72438785Y-74860119D01*
X72514976Y-74860119D01*
X72629261Y-74822023D01*
X73086404Y-74364880D01*
X73086404Y-74860119D01*
X73086404Y-75241071D02*
X73086404Y-75393452D01*
X73048309Y-75469642D01*
X73010214Y-75507738D01*
X72895928Y-75583928D01*
X72743547Y-75622023D01*
X72438785Y-75622023D01*
X72362595Y-75583928D01*
X72324500Y-75545833D01*
X72286404Y-75469642D01*
X72286404Y-75317261D01*
X72324500Y-75241071D01*
X72362595Y-75202976D01*
X72438785Y-75164880D01*
X72629261Y-75164880D01*
X72705452Y-75202976D01*
X72743547Y-75241071D01*
X72781642Y-75317261D01*
X72781642Y-75469642D01*
X72743547Y-75545833D01*
X72705452Y-75583928D01*
X72629261Y-75622023D01*
%TO.C,D28*%
X92130404Y-73641071D02*
X91330404Y-73641071D01*
X91330404Y-73831547D01*
X91368500Y-73945833D01*
X91444690Y-74022023D01*
X91520880Y-74060119D01*
X91673261Y-74098214D01*
X91787547Y-74098214D01*
X91939928Y-74060119D01*
X92016119Y-74022023D01*
X92092309Y-73945833D01*
X92130404Y-73831547D01*
X92130404Y-73641071D01*
X91406595Y-74402976D02*
X91368500Y-74441071D01*
X91330404Y-74517261D01*
X91330404Y-74707738D01*
X91368500Y-74783928D01*
X91406595Y-74822023D01*
X91482785Y-74860119D01*
X91558976Y-74860119D01*
X91673261Y-74822023D01*
X92130404Y-74364880D01*
X92130404Y-74860119D01*
X91673261Y-75317261D02*
X91635166Y-75241071D01*
X91597071Y-75202976D01*
X91520880Y-75164880D01*
X91482785Y-75164880D01*
X91406595Y-75202976D01*
X91368500Y-75241071D01*
X91330404Y-75317261D01*
X91330404Y-75469642D01*
X91368500Y-75545833D01*
X91406595Y-75583928D01*
X91482785Y-75622023D01*
X91520880Y-75622023D01*
X91597071Y-75583928D01*
X91635166Y-75545833D01*
X91673261Y-75469642D01*
X91673261Y-75317261D01*
X91711357Y-75241071D01*
X91749452Y-75202976D01*
X91825642Y-75164880D01*
X91978023Y-75164880D01*
X92054214Y-75202976D01*
X92092309Y-75241071D01*
X92130404Y-75317261D01*
X92130404Y-75469642D01*
X92092309Y-75545833D01*
X92054214Y-75583928D01*
X91978023Y-75622023D01*
X91825642Y-75622023D01*
X91749452Y-75583928D01*
X91711357Y-75545833D01*
X91673261Y-75469642D01*
%TO.C,D27*%
X111174404Y-73641071D02*
X110374404Y-73641071D01*
X110374404Y-73831547D01*
X110412500Y-73945833D01*
X110488690Y-74022023D01*
X110564880Y-74060119D01*
X110717261Y-74098214D01*
X110831547Y-74098214D01*
X110983928Y-74060119D01*
X111060119Y-74022023D01*
X111136309Y-73945833D01*
X111174404Y-73831547D01*
X111174404Y-73641071D01*
X110450595Y-74402976D02*
X110412500Y-74441071D01*
X110374404Y-74517261D01*
X110374404Y-74707738D01*
X110412500Y-74783928D01*
X110450595Y-74822023D01*
X110526785Y-74860119D01*
X110602976Y-74860119D01*
X110717261Y-74822023D01*
X111174404Y-74364880D01*
X111174404Y-74860119D01*
X110374404Y-75126785D02*
X110374404Y-75660119D01*
X111174404Y-75317261D01*
%TO.C,D26*%
X132598904Y-73641071D02*
X131798904Y-73641071D01*
X131798904Y-73831547D01*
X131837000Y-73945833D01*
X131913190Y-74022023D01*
X131989380Y-74060119D01*
X132141761Y-74098214D01*
X132256047Y-74098214D01*
X132408428Y-74060119D01*
X132484619Y-74022023D01*
X132560809Y-73945833D01*
X132598904Y-73831547D01*
X132598904Y-73641071D01*
X131875095Y-74402976D02*
X131837000Y-74441071D01*
X131798904Y-74517261D01*
X131798904Y-74707738D01*
X131837000Y-74783928D01*
X131875095Y-74822023D01*
X131951285Y-74860119D01*
X132027476Y-74860119D01*
X132141761Y-74822023D01*
X132598904Y-74364880D01*
X132598904Y-74860119D01*
X131798904Y-75545833D02*
X131798904Y-75393452D01*
X131837000Y-75317261D01*
X131875095Y-75279166D01*
X131989380Y-75202976D01*
X132141761Y-75164880D01*
X132446523Y-75164880D01*
X132522714Y-75202976D01*
X132560809Y-75241071D01*
X132598904Y-75317261D01*
X132598904Y-75469642D01*
X132560809Y-75545833D01*
X132522714Y-75583928D01*
X132446523Y-75622023D01*
X132256047Y-75622023D01*
X132179857Y-75583928D01*
X132141761Y-75545833D01*
X132103666Y-75469642D01*
X132103666Y-75317261D01*
X132141761Y-75241071D01*
X132179857Y-75202976D01*
X132256047Y-75164880D01*
%TO.C,D25*%
X151642904Y-73641071D02*
X150842904Y-73641071D01*
X150842904Y-73831547D01*
X150881000Y-73945833D01*
X150957190Y-74022023D01*
X151033380Y-74060119D01*
X151185761Y-74098214D01*
X151300047Y-74098214D01*
X151452428Y-74060119D01*
X151528619Y-74022023D01*
X151604809Y-73945833D01*
X151642904Y-73831547D01*
X151642904Y-73641071D01*
X150919095Y-74402976D02*
X150881000Y-74441071D01*
X150842904Y-74517261D01*
X150842904Y-74707738D01*
X150881000Y-74783928D01*
X150919095Y-74822023D01*
X150995285Y-74860119D01*
X151071476Y-74860119D01*
X151185761Y-74822023D01*
X151642904Y-74364880D01*
X151642904Y-74860119D01*
X150842904Y-75583928D02*
X150842904Y-75202976D01*
X151223857Y-75164880D01*
X151185761Y-75202976D01*
X151147666Y-75279166D01*
X151147666Y-75469642D01*
X151185761Y-75545833D01*
X151223857Y-75583928D01*
X151300047Y-75622023D01*
X151490523Y-75622023D01*
X151566714Y-75583928D01*
X151604809Y-75545833D01*
X151642904Y-75469642D01*
X151642904Y-75279166D01*
X151604809Y-75202976D01*
X151566714Y-75164880D01*
%TO.C,D24*%
X170686904Y-70466071D02*
X169886904Y-70466071D01*
X169886904Y-70656547D01*
X169925000Y-70770833D01*
X170001190Y-70847023D01*
X170077380Y-70885119D01*
X170229761Y-70923214D01*
X170344047Y-70923214D01*
X170496428Y-70885119D01*
X170572619Y-70847023D01*
X170648809Y-70770833D01*
X170686904Y-70656547D01*
X170686904Y-70466071D01*
X169963095Y-71227976D02*
X169925000Y-71266071D01*
X169886904Y-71342261D01*
X169886904Y-71532738D01*
X169925000Y-71608928D01*
X169963095Y-71647023D01*
X170039285Y-71685119D01*
X170115476Y-71685119D01*
X170229761Y-71647023D01*
X170686904Y-71189880D01*
X170686904Y-71685119D01*
X170153571Y-72370833D02*
X170686904Y-72370833D01*
X169848809Y-72180357D02*
X170420238Y-71989880D01*
X170420238Y-72485119D01*
%TO.C,D23*%
X189730904Y-68084821D02*
X188930904Y-68084821D01*
X188930904Y-68275297D01*
X188969000Y-68389583D01*
X189045190Y-68465773D01*
X189121380Y-68503869D01*
X189273761Y-68541964D01*
X189388047Y-68541964D01*
X189540428Y-68503869D01*
X189616619Y-68465773D01*
X189692809Y-68389583D01*
X189730904Y-68275297D01*
X189730904Y-68084821D01*
X189007095Y-68846726D02*
X188969000Y-68884821D01*
X188930904Y-68961011D01*
X188930904Y-69151488D01*
X188969000Y-69227678D01*
X189007095Y-69265773D01*
X189083285Y-69303869D01*
X189159476Y-69303869D01*
X189273761Y-69265773D01*
X189730904Y-68808630D01*
X189730904Y-69303869D01*
X188930904Y-69570535D02*
X188930904Y-70065773D01*
X189235666Y-69799107D01*
X189235666Y-69913392D01*
X189273761Y-69989583D01*
X189311857Y-70027678D01*
X189388047Y-70065773D01*
X189578523Y-70065773D01*
X189654714Y-70027678D01*
X189692809Y-69989583D01*
X189730904Y-69913392D01*
X189730904Y-69684821D01*
X189692809Y-69608630D01*
X189654714Y-69570535D01*
%TO.C,D22*%
X208774904Y-70466071D02*
X207974904Y-70466071D01*
X207974904Y-70656547D01*
X208013000Y-70770833D01*
X208089190Y-70847023D01*
X208165380Y-70885119D01*
X208317761Y-70923214D01*
X208432047Y-70923214D01*
X208584428Y-70885119D01*
X208660619Y-70847023D01*
X208736809Y-70770833D01*
X208774904Y-70656547D01*
X208774904Y-70466071D01*
X208051095Y-71227976D02*
X208013000Y-71266071D01*
X207974904Y-71342261D01*
X207974904Y-71532738D01*
X208013000Y-71608928D01*
X208051095Y-71647023D01*
X208127285Y-71685119D01*
X208203476Y-71685119D01*
X208317761Y-71647023D01*
X208774904Y-71189880D01*
X208774904Y-71685119D01*
X208051095Y-71989880D02*
X208013000Y-72027976D01*
X207974904Y-72104166D01*
X207974904Y-72294642D01*
X208013000Y-72370833D01*
X208051095Y-72408928D01*
X208127285Y-72447023D01*
X208203476Y-72447023D01*
X208317761Y-72408928D01*
X208774904Y-71951785D01*
X208774904Y-72447023D01*
%TO.C,D21*%
X227818904Y-72847321D02*
X227018904Y-72847321D01*
X227018904Y-73037797D01*
X227057000Y-73152083D01*
X227133190Y-73228273D01*
X227209380Y-73266369D01*
X227361761Y-73304464D01*
X227476047Y-73304464D01*
X227628428Y-73266369D01*
X227704619Y-73228273D01*
X227780809Y-73152083D01*
X227818904Y-73037797D01*
X227818904Y-72847321D01*
X227095095Y-73609226D02*
X227057000Y-73647321D01*
X227018904Y-73723511D01*
X227018904Y-73913988D01*
X227057000Y-73990178D01*
X227095095Y-74028273D01*
X227171285Y-74066369D01*
X227247476Y-74066369D01*
X227361761Y-74028273D01*
X227818904Y-73571130D01*
X227818904Y-74066369D01*
X227818904Y-74828273D02*
X227818904Y-74371130D01*
X227818904Y-74599702D02*
X227018904Y-74599702D01*
X227133190Y-74523511D01*
X227209380Y-74447321D01*
X227247476Y-74371130D01*
%TO.C,D20*%
X54042404Y-54591071D02*
X53242404Y-54591071D01*
X53242404Y-54781547D01*
X53280500Y-54895833D01*
X53356690Y-54972023D01*
X53432880Y-55010119D01*
X53585261Y-55048214D01*
X53699547Y-55048214D01*
X53851928Y-55010119D01*
X53928119Y-54972023D01*
X54004309Y-54895833D01*
X54042404Y-54781547D01*
X54042404Y-54591071D01*
X53318595Y-55352976D02*
X53280500Y-55391071D01*
X53242404Y-55467261D01*
X53242404Y-55657738D01*
X53280500Y-55733928D01*
X53318595Y-55772023D01*
X53394785Y-55810119D01*
X53470976Y-55810119D01*
X53585261Y-55772023D01*
X54042404Y-55314880D01*
X54042404Y-55810119D01*
X53242404Y-56305357D02*
X53242404Y-56381547D01*
X53280500Y-56457738D01*
X53318595Y-56495833D01*
X53394785Y-56533928D01*
X53547166Y-56572023D01*
X53737642Y-56572023D01*
X53890023Y-56533928D01*
X53966214Y-56495833D01*
X54004309Y-56457738D01*
X54042404Y-56381547D01*
X54042404Y-56305357D01*
X54004309Y-56229166D01*
X53966214Y-56191071D01*
X53890023Y-56152976D01*
X53737642Y-56114880D01*
X53547166Y-56114880D01*
X53394785Y-56152976D01*
X53318595Y-56191071D01*
X53280500Y-56229166D01*
X53242404Y-56305357D01*
%TO.C,D19*%
X73086404Y-54591071D02*
X72286404Y-54591071D01*
X72286404Y-54781547D01*
X72324500Y-54895833D01*
X72400690Y-54972023D01*
X72476880Y-55010119D01*
X72629261Y-55048214D01*
X72743547Y-55048214D01*
X72895928Y-55010119D01*
X72972119Y-54972023D01*
X73048309Y-54895833D01*
X73086404Y-54781547D01*
X73086404Y-54591071D01*
X73086404Y-55810119D02*
X73086404Y-55352976D01*
X73086404Y-55581547D02*
X72286404Y-55581547D01*
X72400690Y-55505357D01*
X72476880Y-55429166D01*
X72514976Y-55352976D01*
X73086404Y-56191071D02*
X73086404Y-56343452D01*
X73048309Y-56419642D01*
X73010214Y-56457738D01*
X72895928Y-56533928D01*
X72743547Y-56572023D01*
X72438785Y-56572023D01*
X72362595Y-56533928D01*
X72324500Y-56495833D01*
X72286404Y-56419642D01*
X72286404Y-56267261D01*
X72324500Y-56191071D01*
X72362595Y-56152976D01*
X72438785Y-56114880D01*
X72629261Y-56114880D01*
X72705452Y-56152976D01*
X72743547Y-56191071D01*
X72781642Y-56267261D01*
X72781642Y-56419642D01*
X72743547Y-56495833D01*
X72705452Y-56533928D01*
X72629261Y-56572023D01*
%TO.C,D18*%
X92130404Y-54591071D02*
X91330404Y-54591071D01*
X91330404Y-54781547D01*
X91368500Y-54895833D01*
X91444690Y-54972023D01*
X91520880Y-55010119D01*
X91673261Y-55048214D01*
X91787547Y-55048214D01*
X91939928Y-55010119D01*
X92016119Y-54972023D01*
X92092309Y-54895833D01*
X92130404Y-54781547D01*
X92130404Y-54591071D01*
X92130404Y-55810119D02*
X92130404Y-55352976D01*
X92130404Y-55581547D02*
X91330404Y-55581547D01*
X91444690Y-55505357D01*
X91520880Y-55429166D01*
X91558976Y-55352976D01*
X91673261Y-56267261D02*
X91635166Y-56191071D01*
X91597071Y-56152976D01*
X91520880Y-56114880D01*
X91482785Y-56114880D01*
X91406595Y-56152976D01*
X91368500Y-56191071D01*
X91330404Y-56267261D01*
X91330404Y-56419642D01*
X91368500Y-56495833D01*
X91406595Y-56533928D01*
X91482785Y-56572023D01*
X91520880Y-56572023D01*
X91597071Y-56533928D01*
X91635166Y-56495833D01*
X91673261Y-56419642D01*
X91673261Y-56267261D01*
X91711357Y-56191071D01*
X91749452Y-56152976D01*
X91825642Y-56114880D01*
X91978023Y-56114880D01*
X92054214Y-56152976D01*
X92092309Y-56191071D01*
X92130404Y-56267261D01*
X92130404Y-56419642D01*
X92092309Y-56495833D01*
X92054214Y-56533928D01*
X91978023Y-56572023D01*
X91825642Y-56572023D01*
X91749452Y-56533928D01*
X91711357Y-56495833D01*
X91673261Y-56419642D01*
%TO.C,D17*%
X111174404Y-54591071D02*
X110374404Y-54591071D01*
X110374404Y-54781547D01*
X110412500Y-54895833D01*
X110488690Y-54972023D01*
X110564880Y-55010119D01*
X110717261Y-55048214D01*
X110831547Y-55048214D01*
X110983928Y-55010119D01*
X111060119Y-54972023D01*
X111136309Y-54895833D01*
X111174404Y-54781547D01*
X111174404Y-54591071D01*
X111174404Y-55810119D02*
X111174404Y-55352976D01*
X111174404Y-55581547D02*
X110374404Y-55581547D01*
X110488690Y-55505357D01*
X110564880Y-55429166D01*
X110602976Y-55352976D01*
X110374404Y-56076785D02*
X110374404Y-56610119D01*
X111174404Y-56267261D01*
%TO.C,D16*%
X132598904Y-54591071D02*
X131798904Y-54591071D01*
X131798904Y-54781547D01*
X131837000Y-54895833D01*
X131913190Y-54972023D01*
X131989380Y-55010119D01*
X132141761Y-55048214D01*
X132256047Y-55048214D01*
X132408428Y-55010119D01*
X132484619Y-54972023D01*
X132560809Y-54895833D01*
X132598904Y-54781547D01*
X132598904Y-54591071D01*
X132598904Y-55810119D02*
X132598904Y-55352976D01*
X132598904Y-55581547D02*
X131798904Y-55581547D01*
X131913190Y-55505357D01*
X131989380Y-55429166D01*
X132027476Y-55352976D01*
X131798904Y-56495833D02*
X131798904Y-56343452D01*
X131837000Y-56267261D01*
X131875095Y-56229166D01*
X131989380Y-56152976D01*
X132141761Y-56114880D01*
X132446523Y-56114880D01*
X132522714Y-56152976D01*
X132560809Y-56191071D01*
X132598904Y-56267261D01*
X132598904Y-56419642D01*
X132560809Y-56495833D01*
X132522714Y-56533928D01*
X132446523Y-56572023D01*
X132256047Y-56572023D01*
X132179857Y-56533928D01*
X132141761Y-56495833D01*
X132103666Y-56419642D01*
X132103666Y-56267261D01*
X132141761Y-56191071D01*
X132179857Y-56152976D01*
X132256047Y-56114880D01*
%TO.C,D15*%
X151642904Y-54591071D02*
X150842904Y-54591071D01*
X150842904Y-54781547D01*
X150881000Y-54895833D01*
X150957190Y-54972023D01*
X151033380Y-55010119D01*
X151185761Y-55048214D01*
X151300047Y-55048214D01*
X151452428Y-55010119D01*
X151528619Y-54972023D01*
X151604809Y-54895833D01*
X151642904Y-54781547D01*
X151642904Y-54591071D01*
X151642904Y-55810119D02*
X151642904Y-55352976D01*
X151642904Y-55581547D02*
X150842904Y-55581547D01*
X150957190Y-55505357D01*
X151033380Y-55429166D01*
X151071476Y-55352976D01*
X150842904Y-56533928D02*
X150842904Y-56152976D01*
X151223857Y-56114880D01*
X151185761Y-56152976D01*
X151147666Y-56229166D01*
X151147666Y-56419642D01*
X151185761Y-56495833D01*
X151223857Y-56533928D01*
X151300047Y-56572023D01*
X151490523Y-56572023D01*
X151566714Y-56533928D01*
X151604809Y-56495833D01*
X151642904Y-56419642D01*
X151642904Y-56229166D01*
X151604809Y-56152976D01*
X151566714Y-56114880D01*
%TO.C,D14*%
X170686904Y-51416071D02*
X169886904Y-51416071D01*
X169886904Y-51606547D01*
X169925000Y-51720833D01*
X170001190Y-51797023D01*
X170077380Y-51835119D01*
X170229761Y-51873214D01*
X170344047Y-51873214D01*
X170496428Y-51835119D01*
X170572619Y-51797023D01*
X170648809Y-51720833D01*
X170686904Y-51606547D01*
X170686904Y-51416071D01*
X170686904Y-52635119D02*
X170686904Y-52177976D01*
X170686904Y-52406547D02*
X169886904Y-52406547D01*
X170001190Y-52330357D01*
X170077380Y-52254166D01*
X170115476Y-52177976D01*
X170153571Y-53320833D02*
X170686904Y-53320833D01*
X169848809Y-53130357D02*
X170420238Y-52939880D01*
X170420238Y-53435119D01*
%TO.C,D13*%
X189730904Y-49034821D02*
X188930904Y-49034821D01*
X188930904Y-49225297D01*
X188969000Y-49339583D01*
X189045190Y-49415773D01*
X189121380Y-49453869D01*
X189273761Y-49491964D01*
X189388047Y-49491964D01*
X189540428Y-49453869D01*
X189616619Y-49415773D01*
X189692809Y-49339583D01*
X189730904Y-49225297D01*
X189730904Y-49034821D01*
X189730904Y-50253869D02*
X189730904Y-49796726D01*
X189730904Y-50025297D02*
X188930904Y-50025297D01*
X189045190Y-49949107D01*
X189121380Y-49872916D01*
X189159476Y-49796726D01*
X188930904Y-50520535D02*
X188930904Y-51015773D01*
X189235666Y-50749107D01*
X189235666Y-50863392D01*
X189273761Y-50939583D01*
X189311857Y-50977678D01*
X189388047Y-51015773D01*
X189578523Y-51015773D01*
X189654714Y-50977678D01*
X189692809Y-50939583D01*
X189730904Y-50863392D01*
X189730904Y-50634821D01*
X189692809Y-50558630D01*
X189654714Y-50520535D01*
%TO.C,D12*%
X208774904Y-52209821D02*
X207974904Y-52209821D01*
X207974904Y-52400297D01*
X208013000Y-52514583D01*
X208089190Y-52590773D01*
X208165380Y-52628869D01*
X208317761Y-52666964D01*
X208432047Y-52666964D01*
X208584428Y-52628869D01*
X208660619Y-52590773D01*
X208736809Y-52514583D01*
X208774904Y-52400297D01*
X208774904Y-52209821D01*
X208774904Y-53428869D02*
X208774904Y-52971726D01*
X208774904Y-53200297D02*
X207974904Y-53200297D01*
X208089190Y-53124107D01*
X208165380Y-53047916D01*
X208203476Y-52971726D01*
X208051095Y-53733630D02*
X208013000Y-53771726D01*
X207974904Y-53847916D01*
X207974904Y-54038392D01*
X208013000Y-54114583D01*
X208051095Y-54152678D01*
X208127285Y-54190773D01*
X208203476Y-54190773D01*
X208317761Y-54152678D01*
X208774904Y-53695535D01*
X208774904Y-54190773D01*
%TO.C,D11*%
X227818904Y-53797321D02*
X227018904Y-53797321D01*
X227018904Y-53987797D01*
X227057000Y-54102083D01*
X227133190Y-54178273D01*
X227209380Y-54216369D01*
X227361761Y-54254464D01*
X227476047Y-54254464D01*
X227628428Y-54216369D01*
X227704619Y-54178273D01*
X227780809Y-54102083D01*
X227818904Y-53987797D01*
X227818904Y-53797321D01*
X227818904Y-55016369D02*
X227818904Y-54559226D01*
X227818904Y-54787797D02*
X227018904Y-54787797D01*
X227133190Y-54711607D01*
X227209380Y-54635416D01*
X227247476Y-54559226D01*
X227818904Y-55778273D02*
X227818904Y-55321130D01*
X227818904Y-55549702D02*
X227018904Y-55549702D01*
X227133190Y-55473511D01*
X227209380Y-55397321D01*
X227247476Y-55321130D01*
%TO.C,D10*%
X54042404Y-35541071D02*
X53242404Y-35541071D01*
X53242404Y-35731547D01*
X53280500Y-35845833D01*
X53356690Y-35922023D01*
X53432880Y-35960119D01*
X53585261Y-35998214D01*
X53699547Y-35998214D01*
X53851928Y-35960119D01*
X53928119Y-35922023D01*
X54004309Y-35845833D01*
X54042404Y-35731547D01*
X54042404Y-35541071D01*
X54042404Y-36760119D02*
X54042404Y-36302976D01*
X54042404Y-36531547D02*
X53242404Y-36531547D01*
X53356690Y-36455357D01*
X53432880Y-36379166D01*
X53470976Y-36302976D01*
X53242404Y-37255357D02*
X53242404Y-37331547D01*
X53280500Y-37407738D01*
X53318595Y-37445833D01*
X53394785Y-37483928D01*
X53547166Y-37522023D01*
X53737642Y-37522023D01*
X53890023Y-37483928D01*
X53966214Y-37445833D01*
X54004309Y-37407738D01*
X54042404Y-37331547D01*
X54042404Y-37255357D01*
X54004309Y-37179166D01*
X53966214Y-37141071D01*
X53890023Y-37102976D01*
X53737642Y-37064880D01*
X53547166Y-37064880D01*
X53394785Y-37102976D01*
X53318595Y-37141071D01*
X53280500Y-37179166D01*
X53242404Y-37255357D01*
%TO.C,D9*%
X73086404Y-35922023D02*
X72286404Y-35922023D01*
X72286404Y-36112500D01*
X72324500Y-36226785D01*
X72400690Y-36302976D01*
X72476880Y-36341071D01*
X72629261Y-36379166D01*
X72743547Y-36379166D01*
X72895928Y-36341071D01*
X72972119Y-36302976D01*
X73048309Y-36226785D01*
X73086404Y-36112500D01*
X73086404Y-35922023D01*
X73086404Y-36760119D02*
X73086404Y-36912500D01*
X73048309Y-36988690D01*
X73010214Y-37026785D01*
X72895928Y-37102976D01*
X72743547Y-37141071D01*
X72438785Y-37141071D01*
X72362595Y-37102976D01*
X72324500Y-37064880D01*
X72286404Y-36988690D01*
X72286404Y-36836309D01*
X72324500Y-36760119D01*
X72362595Y-36722023D01*
X72438785Y-36683928D01*
X72629261Y-36683928D01*
X72705452Y-36722023D01*
X72743547Y-36760119D01*
X72781642Y-36836309D01*
X72781642Y-36988690D01*
X72743547Y-37064880D01*
X72705452Y-37102976D01*
X72629261Y-37141071D01*
%TO.C,D8*%
X92130404Y-35922023D02*
X91330404Y-35922023D01*
X91330404Y-36112500D01*
X91368500Y-36226785D01*
X91444690Y-36302976D01*
X91520880Y-36341071D01*
X91673261Y-36379166D01*
X91787547Y-36379166D01*
X91939928Y-36341071D01*
X92016119Y-36302976D01*
X92092309Y-36226785D01*
X92130404Y-36112500D01*
X92130404Y-35922023D01*
X91673261Y-36836309D02*
X91635166Y-36760119D01*
X91597071Y-36722023D01*
X91520880Y-36683928D01*
X91482785Y-36683928D01*
X91406595Y-36722023D01*
X91368500Y-36760119D01*
X91330404Y-36836309D01*
X91330404Y-36988690D01*
X91368500Y-37064880D01*
X91406595Y-37102976D01*
X91482785Y-37141071D01*
X91520880Y-37141071D01*
X91597071Y-37102976D01*
X91635166Y-37064880D01*
X91673261Y-36988690D01*
X91673261Y-36836309D01*
X91711357Y-36760119D01*
X91749452Y-36722023D01*
X91825642Y-36683928D01*
X91978023Y-36683928D01*
X92054214Y-36722023D01*
X92092309Y-36760119D01*
X92130404Y-36836309D01*
X92130404Y-36988690D01*
X92092309Y-37064880D01*
X92054214Y-37102976D01*
X91978023Y-37141071D01*
X91825642Y-37141071D01*
X91749452Y-37102976D01*
X91711357Y-37064880D01*
X91673261Y-36988690D01*
%TO.C,D7*%
X111174404Y-35922023D02*
X110374404Y-35922023D01*
X110374404Y-36112500D01*
X110412500Y-36226785D01*
X110488690Y-36302976D01*
X110564880Y-36341071D01*
X110717261Y-36379166D01*
X110831547Y-36379166D01*
X110983928Y-36341071D01*
X111060119Y-36302976D01*
X111136309Y-36226785D01*
X111174404Y-36112500D01*
X111174404Y-35922023D01*
X110374404Y-36645833D02*
X110374404Y-37179166D01*
X111174404Y-36836309D01*
%TO.C,D6*%
X132598904Y-35922023D02*
X131798904Y-35922023D01*
X131798904Y-36112500D01*
X131837000Y-36226785D01*
X131913190Y-36302976D01*
X131989380Y-36341071D01*
X132141761Y-36379166D01*
X132256047Y-36379166D01*
X132408428Y-36341071D01*
X132484619Y-36302976D01*
X132560809Y-36226785D01*
X132598904Y-36112500D01*
X132598904Y-35922023D01*
X131798904Y-37064880D02*
X131798904Y-36912500D01*
X131837000Y-36836309D01*
X131875095Y-36798214D01*
X131989380Y-36722023D01*
X132141761Y-36683928D01*
X132446523Y-36683928D01*
X132522714Y-36722023D01*
X132560809Y-36760119D01*
X132598904Y-36836309D01*
X132598904Y-36988690D01*
X132560809Y-37064880D01*
X132522714Y-37102976D01*
X132446523Y-37141071D01*
X132256047Y-37141071D01*
X132179857Y-37102976D01*
X132141761Y-37064880D01*
X132103666Y-36988690D01*
X132103666Y-36836309D01*
X132141761Y-36760119D01*
X132179857Y-36722023D01*
X132256047Y-36683928D01*
%TO.C,D5*%
X151642904Y-35922023D02*
X150842904Y-35922023D01*
X150842904Y-36112500D01*
X150881000Y-36226785D01*
X150957190Y-36302976D01*
X151033380Y-36341071D01*
X151185761Y-36379166D01*
X151300047Y-36379166D01*
X151452428Y-36341071D01*
X151528619Y-36302976D01*
X151604809Y-36226785D01*
X151642904Y-36112500D01*
X151642904Y-35922023D01*
X150842904Y-37102976D02*
X150842904Y-36722023D01*
X151223857Y-36683928D01*
X151185761Y-36722023D01*
X151147666Y-36798214D01*
X151147666Y-36988690D01*
X151185761Y-37064880D01*
X151223857Y-37102976D01*
X151300047Y-37141071D01*
X151490523Y-37141071D01*
X151566714Y-37102976D01*
X151604809Y-37064880D01*
X151642904Y-36988690D01*
X151642904Y-36798214D01*
X151604809Y-36722023D01*
X151566714Y-36683928D01*
%TO.C,D4*%
X170686904Y-32747023D02*
X169886904Y-32747023D01*
X169886904Y-32937500D01*
X169925000Y-33051785D01*
X170001190Y-33127976D01*
X170077380Y-33166071D01*
X170229761Y-33204166D01*
X170344047Y-33204166D01*
X170496428Y-33166071D01*
X170572619Y-33127976D01*
X170648809Y-33051785D01*
X170686904Y-32937500D01*
X170686904Y-32747023D01*
X170153571Y-33889880D02*
X170686904Y-33889880D01*
X169848809Y-33699404D02*
X170420238Y-33508928D01*
X170420238Y-34004166D01*
%TO.C,D3*%
X189730904Y-30365773D02*
X188930904Y-30365773D01*
X188930904Y-30556250D01*
X188969000Y-30670535D01*
X189045190Y-30746726D01*
X189121380Y-30784821D01*
X189273761Y-30822916D01*
X189388047Y-30822916D01*
X189540428Y-30784821D01*
X189616619Y-30746726D01*
X189692809Y-30670535D01*
X189730904Y-30556250D01*
X189730904Y-30365773D01*
X188930904Y-31089583D02*
X188930904Y-31584821D01*
X189235666Y-31318154D01*
X189235666Y-31432440D01*
X189273761Y-31508630D01*
X189311857Y-31546726D01*
X189388047Y-31584821D01*
X189578523Y-31584821D01*
X189654714Y-31546726D01*
X189692809Y-31508630D01*
X189730904Y-31432440D01*
X189730904Y-31203869D01*
X189692809Y-31127678D01*
X189654714Y-31089583D01*
%TO.C,D2*%
X208774904Y-32747023D02*
X207974904Y-32747023D01*
X207974904Y-32937500D01*
X208013000Y-33051785D01*
X208089190Y-33127976D01*
X208165380Y-33166071D01*
X208317761Y-33204166D01*
X208432047Y-33204166D01*
X208584428Y-33166071D01*
X208660619Y-33127976D01*
X208736809Y-33051785D01*
X208774904Y-32937500D01*
X208774904Y-32747023D01*
X208051095Y-33508928D02*
X208013000Y-33547023D01*
X207974904Y-33623214D01*
X207974904Y-33813690D01*
X208013000Y-33889880D01*
X208051095Y-33927976D01*
X208127285Y-33966071D01*
X208203476Y-33966071D01*
X208317761Y-33927976D01*
X208774904Y-33470833D01*
X208774904Y-33966071D01*
%TO.C,D1*%
X227818904Y-35065773D02*
X227018904Y-35065773D01*
X227018904Y-35256250D01*
X227057000Y-35370535D01*
X227133190Y-35446726D01*
X227209380Y-35484821D01*
X227361761Y-35522916D01*
X227476047Y-35522916D01*
X227628428Y-35484821D01*
X227704619Y-35446726D01*
X227780809Y-35370535D01*
X227818904Y-35256250D01*
X227818904Y-35065773D01*
X227818904Y-36284821D02*
X227818904Y-35827678D01*
X227818904Y-36056250D02*
X227018904Y-36056250D01*
X227133190Y-35980059D01*
X227209380Y-35903869D01*
X227247476Y-35827678D01*
%TO.C,U1*%
X244430476Y-57211904D02*
X244430476Y-56411904D01*
X244240000Y-56411904D01*
X244125714Y-56450000D01*
X244049523Y-56526190D01*
X244011428Y-56602380D01*
X243973333Y-56754761D01*
X243973333Y-56869047D01*
X244011428Y-57021428D01*
X244049523Y-57097619D01*
X244125714Y-57173809D01*
X244240000Y-57211904D01*
X244430476Y-57211904D01*
X243249523Y-56411904D02*
X243630476Y-56411904D01*
X243668571Y-56792857D01*
X243630476Y-56754761D01*
X243554285Y-56716666D01*
X243363809Y-56716666D01*
X243287619Y-56754761D01*
X243249523Y-56792857D01*
X243211428Y-56869047D01*
X243211428Y-57059523D01*
X243249523Y-57135714D01*
X243287619Y-57173809D01*
X243363809Y-57211904D01*
X243554285Y-57211904D01*
X243630476Y-57173809D01*
X243668571Y-57135714D01*
X239026666Y-56792857D02*
X239293333Y-56792857D01*
X239293333Y-57211904D02*
X239293333Y-56411904D01*
X238912380Y-56411904D01*
X238188571Y-57211904D02*
X238645714Y-57211904D01*
X238417142Y-57211904D02*
X238417142Y-56411904D01*
X238493333Y-56526190D01*
X238569523Y-56602380D01*
X238645714Y-56640476D01*
X241433333Y-57135714D02*
X241471428Y-57173809D01*
X241585714Y-57211904D01*
X241661904Y-57211904D01*
X241776190Y-57173809D01*
X241852380Y-57097619D01*
X241890476Y-57021428D01*
X241928571Y-56869047D01*
X241928571Y-56754761D01*
X241890476Y-56602380D01*
X241852380Y-56526190D01*
X241776190Y-56450000D01*
X241661904Y-56411904D01*
X241585714Y-56411904D01*
X241471428Y-56450000D01*
X241433333Y-56488095D01*
X241166666Y-56411904D02*
X240633333Y-56411904D01*
X240976190Y-57211904D01*
X234664297Y-56985008D02*
X234758578Y-57032148D01*
X234805719Y-57032148D01*
X234876429Y-57008578D01*
X234947140Y-56937867D01*
X234970710Y-56867157D01*
X234970710Y-56820016D01*
X234947140Y-56749306D01*
X234758578Y-56560744D01*
X234263603Y-57055719D01*
X234428595Y-57220710D01*
X234499306Y-57244280D01*
X234546446Y-57244280D01*
X234617157Y-57220710D01*
X234664297Y-57173570D01*
X234687867Y-57102859D01*
X234687867Y-57055719D01*
X234664297Y-56985008D01*
X234499306Y-56820016D01*
X234970710Y-57762825D02*
X234876429Y-57668544D01*
X234852859Y-57597834D01*
X234852859Y-57550693D01*
X234876429Y-57432842D01*
X234947140Y-57314991D01*
X235135702Y-57126429D01*
X235206412Y-57102859D01*
X235253553Y-57102859D01*
X235324264Y-57126429D01*
X235418544Y-57220710D01*
X235442115Y-57291421D01*
X235442115Y-57338561D01*
X235418544Y-57409272D01*
X235300693Y-57527123D01*
X235229983Y-57550693D01*
X235182842Y-57550693D01*
X235112132Y-57527123D01*
X235017851Y-57432842D01*
X234994280Y-57362132D01*
X234994280Y-57314991D01*
X235017851Y-57244280D01*
X237033333Y-57000000D02*
X237266666Y-57000000D01*
X237266666Y-57366666D02*
X237266666Y-56666666D01*
X236933333Y-56666666D01*
X236533333Y-56666666D02*
X236466666Y-56666666D01*
X236400000Y-56700000D01*
X236366666Y-56733333D01*
X236333333Y-56800000D01*
X236300000Y-56933333D01*
X236300000Y-57100000D01*
X236333333Y-57233333D01*
X236366666Y-57300000D01*
X236400000Y-57333333D01*
X236466666Y-57366666D01*
X236533333Y-57366666D01*
X236600000Y-57333333D01*
X236633333Y-57300000D01*
X236666666Y-57233333D01*
X236700000Y-57100000D01*
X236700000Y-56933333D01*
X236666666Y-56800000D01*
X236633333Y-56733333D01*
X236600000Y-56700000D01*
X236533333Y-56666666D01*
X246083333Y-57000000D02*
X245983333Y-57033333D01*
X245950000Y-57066666D01*
X245916666Y-57133333D01*
X245916666Y-57233333D01*
X245950000Y-57300000D01*
X245983333Y-57333333D01*
X246050000Y-57366666D01*
X246316666Y-57366666D01*
X246316666Y-56666666D01*
X246083333Y-56666666D01*
X246016666Y-56700000D01*
X245983333Y-56733333D01*
X245950000Y-56800000D01*
X245950000Y-56866666D01*
X245983333Y-56933333D01*
X246016666Y-56966666D01*
X246083333Y-57000000D01*
X246316666Y-57000000D01*
X245683333Y-56666666D02*
X245216666Y-56666666D01*
X245516666Y-57366666D01*
X247062348Y-30041904D02*
X246605205Y-30041904D01*
X246833776Y-30841904D02*
X246833776Y-30041904D01*
X246414729Y-30041904D02*
X245881395Y-30841904D01*
X245881395Y-30041904D02*
X246414729Y-30841904D01*
X245424252Y-30041904D02*
X245348062Y-30041904D01*
X245271872Y-30080000D01*
X245233776Y-30118095D01*
X245195681Y-30194285D01*
X245157586Y-30346666D01*
X245157586Y-30537142D01*
X245195681Y-30689523D01*
X245233776Y-30765714D01*
X245271872Y-30803809D01*
X245348062Y-30841904D01*
X245424252Y-30841904D01*
X245500443Y-30803809D01*
X245538538Y-30765714D01*
X245576633Y-30689523D01*
X245614729Y-30537142D01*
X245614729Y-30346666D01*
X245576633Y-30194285D01*
X245538538Y-30118095D01*
X245500443Y-30080000D01*
X245424252Y-30041904D01*
X244243300Y-30003809D02*
X244929014Y-31032380D01*
X243976633Y-30841904D02*
X243976633Y-30041904D01*
X243786157Y-30041904D01*
X243671872Y-30080000D01*
X243595681Y-30156190D01*
X243557586Y-30232380D01*
X243519491Y-30384761D01*
X243519491Y-30499047D01*
X243557586Y-30651428D01*
X243595681Y-30727619D01*
X243671872Y-30803809D01*
X243786157Y-30841904D01*
X243976633Y-30841904D01*
X243252824Y-30041904D02*
X242757586Y-30041904D01*
X243024252Y-30346666D01*
X242909967Y-30346666D01*
X242833776Y-30384761D01*
X242795681Y-30422857D01*
X242757586Y-30499047D01*
X242757586Y-30689523D01*
X242795681Y-30765714D01*
X242833776Y-30803809D01*
X242909967Y-30841904D01*
X243138538Y-30841904D01*
X243214729Y-30803809D01*
X243252824Y-30765714D01*
X247351476Y-33381904D02*
X247351476Y-32581904D01*
X247161000Y-32581904D01*
X247046714Y-32620000D01*
X246970523Y-32696190D01*
X246932428Y-32772380D01*
X246894333Y-32924761D01*
X246894333Y-33039047D01*
X246932428Y-33191428D01*
X246970523Y-33267619D01*
X247046714Y-33343809D01*
X247161000Y-33381904D01*
X247351476Y-33381904D01*
X246589571Y-32658095D02*
X246551476Y-32620000D01*
X246475285Y-32581904D01*
X246284809Y-32581904D01*
X246208619Y-32620000D01*
X246170523Y-32658095D01*
X246132428Y-32734285D01*
X246132428Y-32810476D01*
X246170523Y-32924761D01*
X246627666Y-33381904D01*
X246132428Y-33381904D01*
X247351476Y-43541904D02*
X247351476Y-42741904D01*
X247161000Y-42741904D01*
X247046714Y-42780000D01*
X246970523Y-42856190D01*
X246932428Y-42932380D01*
X246894333Y-43084761D01*
X246894333Y-43199047D01*
X246932428Y-43351428D01*
X246970523Y-43427619D01*
X247046714Y-43503809D01*
X247161000Y-43541904D01*
X247351476Y-43541904D01*
X246399095Y-42741904D02*
X246322904Y-42741904D01*
X246246714Y-42780000D01*
X246208619Y-42818095D01*
X246170523Y-42894285D01*
X246132428Y-43046666D01*
X246132428Y-43237142D01*
X246170523Y-43389523D01*
X246208619Y-43465714D01*
X246246714Y-43503809D01*
X246322904Y-43541904D01*
X246399095Y-43541904D01*
X246475285Y-43503809D01*
X246513380Y-43465714D01*
X246551476Y-43389523D01*
X246589571Y-43237142D01*
X246589571Y-43046666D01*
X246551476Y-42894285D01*
X246513380Y-42818095D01*
X246475285Y-42780000D01*
X246399095Y-42741904D01*
X247351476Y-41001904D02*
X247351476Y-40201904D01*
X247161000Y-40201904D01*
X247046714Y-40240000D01*
X246970523Y-40316190D01*
X246932428Y-40392380D01*
X246894333Y-40544761D01*
X246894333Y-40659047D01*
X246932428Y-40811428D01*
X246970523Y-40887619D01*
X247046714Y-40963809D01*
X247161000Y-41001904D01*
X247351476Y-41001904D01*
X246132428Y-41001904D02*
X246589571Y-41001904D01*
X246361000Y-41001904D02*
X246361000Y-40201904D01*
X246437190Y-40316190D01*
X246513380Y-40392380D01*
X246589571Y-40430476D01*
X247370523Y-37700000D02*
X247446714Y-37661904D01*
X247561000Y-37661904D01*
X247675285Y-37700000D01*
X247751476Y-37776190D01*
X247789571Y-37852380D01*
X247827666Y-38004761D01*
X247827666Y-38119047D01*
X247789571Y-38271428D01*
X247751476Y-38347619D01*
X247675285Y-38423809D01*
X247561000Y-38461904D01*
X247484809Y-38461904D01*
X247370523Y-38423809D01*
X247332428Y-38385714D01*
X247332428Y-38119047D01*
X247484809Y-38119047D01*
X246989571Y-38461904D02*
X246989571Y-37661904D01*
X246532428Y-38461904D01*
X246532428Y-37661904D01*
X246151476Y-38461904D02*
X246151476Y-37661904D01*
X245961000Y-37661904D01*
X245846714Y-37700000D01*
X245770523Y-37776190D01*
X245732428Y-37852380D01*
X245694333Y-38004761D01*
X245694333Y-38119047D01*
X245732428Y-38271428D01*
X245770523Y-38347619D01*
X245846714Y-38423809D01*
X245961000Y-38461904D01*
X246151476Y-38461904D01*
X247370523Y-35160000D02*
X247446714Y-35121904D01*
X247561000Y-35121904D01*
X247675285Y-35160000D01*
X247751476Y-35236190D01*
X247789571Y-35312380D01*
X247827666Y-35464761D01*
X247827666Y-35579047D01*
X247789571Y-35731428D01*
X247751476Y-35807619D01*
X247675285Y-35883809D01*
X247561000Y-35921904D01*
X247484809Y-35921904D01*
X247370523Y-35883809D01*
X247332428Y-35845714D01*
X247332428Y-35579047D01*
X247484809Y-35579047D01*
X246989571Y-35921904D02*
X246989571Y-35121904D01*
X246532428Y-35921904D01*
X246532428Y-35121904D01*
X246151476Y-35921904D02*
X246151476Y-35121904D01*
X245961000Y-35121904D01*
X245846714Y-35160000D01*
X245770523Y-35236190D01*
X245732428Y-35312380D01*
X245694333Y-35464761D01*
X245694333Y-35579047D01*
X245732428Y-35731428D01*
X245770523Y-35807619D01*
X245846714Y-35883809D01*
X245961000Y-35921904D01*
X246151476Y-35921904D01*
X247351476Y-46081904D02*
X247351476Y-45281904D01*
X247161000Y-45281904D01*
X247046714Y-45320000D01*
X246970523Y-45396190D01*
X246932428Y-45472380D01*
X246894333Y-45624761D01*
X246894333Y-45739047D01*
X246932428Y-45891428D01*
X246970523Y-45967619D01*
X247046714Y-46043809D01*
X247161000Y-46081904D01*
X247351476Y-46081904D01*
X246208619Y-45548571D02*
X246208619Y-46081904D01*
X246399095Y-45243809D02*
X246589571Y-45815238D01*
X246094333Y-45815238D01*
X246894333Y-48545714D02*
X246932428Y-48583809D01*
X247046714Y-48621904D01*
X247122904Y-48621904D01*
X247237190Y-48583809D01*
X247313380Y-48507619D01*
X247351476Y-48431428D01*
X247389571Y-48279047D01*
X247389571Y-48164761D01*
X247351476Y-48012380D01*
X247313380Y-47936190D01*
X247237190Y-47860000D01*
X247122904Y-47821904D01*
X247046714Y-47821904D01*
X246932428Y-47860000D01*
X246894333Y-47898095D01*
X246208619Y-47821904D02*
X246361000Y-47821904D01*
X246437190Y-47860000D01*
X246475285Y-47898095D01*
X246551476Y-48012380D01*
X246589571Y-48164761D01*
X246589571Y-48469523D01*
X246551476Y-48545714D01*
X246513380Y-48583809D01*
X246437190Y-48621904D01*
X246284809Y-48621904D01*
X246208619Y-48583809D01*
X246170523Y-48545714D01*
X246132428Y-48469523D01*
X246132428Y-48279047D01*
X246170523Y-48202857D01*
X246208619Y-48164761D01*
X246284809Y-48126666D01*
X246437190Y-48126666D01*
X246513380Y-48164761D01*
X246551476Y-48202857D01*
X246589571Y-48279047D01*
X247351476Y-51161904D02*
X247351476Y-50361904D01*
X247161000Y-50361904D01*
X247046714Y-50400000D01*
X246970523Y-50476190D01*
X246932428Y-50552380D01*
X246894333Y-50704761D01*
X246894333Y-50819047D01*
X246932428Y-50971428D01*
X246970523Y-51047619D01*
X247046714Y-51123809D01*
X247161000Y-51161904D01*
X247351476Y-51161904D01*
X246627666Y-50361904D02*
X246094333Y-50361904D01*
X246437190Y-51161904D01*
X247313380Y-53282857D02*
X247046714Y-53282857D01*
X246932428Y-53701904D02*
X247313380Y-53701904D01*
X247313380Y-52901904D01*
X246932428Y-52901904D01*
X246246714Y-52901904D02*
X246399095Y-52901904D01*
X246475285Y-52940000D01*
X246513380Y-52978095D01*
X246589571Y-53092380D01*
X246627666Y-53244761D01*
X246627666Y-53549523D01*
X246589571Y-53625714D01*
X246551476Y-53663809D01*
X246475285Y-53701904D01*
X246322904Y-53701904D01*
X246246714Y-53663809D01*
X246208619Y-53625714D01*
X246170523Y-53549523D01*
X246170523Y-53359047D01*
X246208619Y-53282857D01*
X246246714Y-53244761D01*
X246322904Y-53206666D01*
X246475285Y-53206666D01*
X246551476Y-53244761D01*
X246589571Y-53282857D01*
X246627666Y-53359047D01*
X247084809Y-55822857D02*
X246970523Y-55860952D01*
X246932428Y-55899047D01*
X246894333Y-55975238D01*
X246894333Y-56089523D01*
X246932428Y-56165714D01*
X246970523Y-56203809D01*
X247046714Y-56241904D01*
X247351476Y-56241904D01*
X247351476Y-55441904D01*
X247084809Y-55441904D01*
X247008619Y-55480000D01*
X246970523Y-55518095D01*
X246932428Y-55594285D01*
X246932428Y-55670476D01*
X246970523Y-55746666D01*
X247008619Y-55784761D01*
X247084809Y-55822857D01*
X247351476Y-55822857D01*
X246208619Y-55708571D02*
X246208619Y-56241904D01*
X246399095Y-55403809D02*
X246589571Y-55975238D01*
X246094333Y-55975238D01*
X247864991Y-56914297D02*
X247817851Y-57008578D01*
X247817851Y-57055719D01*
X247841421Y-57126429D01*
X247912132Y-57197140D01*
X247982842Y-57220710D01*
X248029983Y-57220710D01*
X248100693Y-57197140D01*
X248289255Y-57008578D01*
X247794280Y-56513603D01*
X247629289Y-56678595D01*
X247605719Y-56749306D01*
X247605719Y-56796446D01*
X247629289Y-56867157D01*
X247676429Y-56914297D01*
X247747140Y-56937867D01*
X247794280Y-56937867D01*
X247864991Y-56914297D01*
X248029983Y-56749306D01*
X247063603Y-57244280D02*
X247299306Y-57008578D01*
X247558578Y-57220710D01*
X247511438Y-57220710D01*
X247440727Y-57244280D01*
X247322876Y-57362132D01*
X247299306Y-57432842D01*
X247299306Y-57479983D01*
X247322876Y-57550693D01*
X247440727Y-57668544D01*
X247511438Y-57692115D01*
X247558578Y-57692115D01*
X247629289Y-57668544D01*
X247747140Y-57550693D01*
X247770710Y-57479983D01*
X247770710Y-57432842D01*
X236162809Y-53282857D02*
X236048523Y-53320952D01*
X236010428Y-53359047D01*
X235972333Y-53435238D01*
X235972333Y-53549523D01*
X236010428Y-53625714D01*
X236048523Y-53663809D01*
X236124714Y-53701904D01*
X236429476Y-53701904D01*
X236429476Y-52901904D01*
X236162809Y-52901904D01*
X236086619Y-52940000D01*
X236048523Y-52978095D01*
X236010428Y-53054285D01*
X236010428Y-53130476D01*
X236048523Y-53206666D01*
X236086619Y-53244761D01*
X236162809Y-53282857D01*
X236429476Y-53282857D01*
X235705666Y-52901904D02*
X235210428Y-52901904D01*
X235477095Y-53206666D01*
X235362809Y-53206666D01*
X235286619Y-53244761D01*
X235248523Y-53282857D01*
X235210428Y-53359047D01*
X235210428Y-53549523D01*
X235248523Y-53625714D01*
X235286619Y-53663809D01*
X235362809Y-53701904D01*
X235591380Y-53701904D01*
X235667571Y-53663809D01*
X235705666Y-53625714D01*
X236162809Y-50742857D02*
X236048523Y-50780952D01*
X236010428Y-50819047D01*
X235972333Y-50895238D01*
X235972333Y-51009523D01*
X236010428Y-51085714D01*
X236048523Y-51123809D01*
X236124714Y-51161904D01*
X236429476Y-51161904D01*
X236429476Y-50361904D01*
X236162809Y-50361904D01*
X236086619Y-50400000D01*
X236048523Y-50438095D01*
X236010428Y-50514285D01*
X236010428Y-50590476D01*
X236048523Y-50666666D01*
X236086619Y-50704761D01*
X236162809Y-50742857D01*
X236429476Y-50742857D01*
X235210428Y-51161904D02*
X235667571Y-51161904D01*
X235439000Y-51161904D02*
X235439000Y-50361904D01*
X235515190Y-50476190D01*
X235591380Y-50552380D01*
X235667571Y-50590476D01*
X236105666Y-40582857D02*
X236372333Y-40582857D01*
X236372333Y-41001904D02*
X236372333Y-40201904D01*
X235991380Y-40201904D01*
X235343761Y-40468571D02*
X235343761Y-41001904D01*
X235534238Y-40163809D02*
X235724714Y-40735238D01*
X235229476Y-40735238D01*
X236905666Y-37661904D02*
X236639000Y-38461904D01*
X236372333Y-37661904D01*
X235648523Y-38385714D02*
X235686619Y-38423809D01*
X235800904Y-38461904D01*
X235877095Y-38461904D01*
X235991380Y-38423809D01*
X236067571Y-38347619D01*
X236105666Y-38271428D01*
X236143761Y-38119047D01*
X236143761Y-38004761D01*
X236105666Y-37852380D01*
X236067571Y-37776190D01*
X235991380Y-37700000D01*
X235877095Y-37661904D01*
X235800904Y-37661904D01*
X235686619Y-37700000D01*
X235648523Y-37738095D01*
X234848523Y-38385714D02*
X234886619Y-38423809D01*
X235000904Y-38461904D01*
X235077095Y-38461904D01*
X235191380Y-38423809D01*
X235267571Y-38347619D01*
X235305666Y-38271428D01*
X235343761Y-38119047D01*
X235343761Y-38004761D01*
X235305666Y-37852380D01*
X235267571Y-37776190D01*
X235191380Y-37700000D01*
X235077095Y-37661904D01*
X235000904Y-37661904D01*
X234886619Y-37700000D01*
X234848523Y-37738095D01*
X236100213Y-35853809D02*
X235985927Y-35891904D01*
X235795451Y-35891904D01*
X235719260Y-35853809D01*
X235681165Y-35815714D01*
X235643070Y-35739523D01*
X235643070Y-35663333D01*
X235681165Y-35587142D01*
X235719260Y-35549047D01*
X235795451Y-35510952D01*
X235947832Y-35472857D01*
X236024022Y-35434761D01*
X236062118Y-35396666D01*
X236100213Y-35320476D01*
X236100213Y-35244285D01*
X236062118Y-35168095D01*
X236024022Y-35130000D01*
X235947832Y-35091904D01*
X235757356Y-35091904D01*
X235643070Y-35130000D01*
X235414499Y-35091904D02*
X234957356Y-35091904D01*
X235185927Y-35891904D02*
X235185927Y-35091904D01*
X236448523Y-32620000D02*
X236524714Y-32581904D01*
X236639000Y-32581904D01*
X236753285Y-32620000D01*
X236829476Y-32696190D01*
X236867571Y-32772380D01*
X236905666Y-32924761D01*
X236905666Y-33039047D01*
X236867571Y-33191428D01*
X236829476Y-33267619D01*
X236753285Y-33343809D01*
X236639000Y-33381904D01*
X236562809Y-33381904D01*
X236448523Y-33343809D01*
X236410428Y-33305714D01*
X236410428Y-33039047D01*
X236562809Y-33039047D01*
X236067571Y-33381904D02*
X236067571Y-32581904D01*
X235610428Y-33381904D01*
X235610428Y-32581904D01*
X235229476Y-33381904D02*
X235229476Y-32581904D01*
X235039000Y-32581904D01*
X234924714Y-32620000D01*
X234848523Y-32696190D01*
X234810428Y-32772380D01*
X234772333Y-32924761D01*
X234772333Y-33039047D01*
X234810428Y-33191428D01*
X234848523Y-33267619D01*
X234924714Y-33343809D01*
X235039000Y-33381904D01*
X235229476Y-33381904D01*
X236162809Y-30422857D02*
X236048523Y-30460952D01*
X236010428Y-30499047D01*
X235972333Y-30575238D01*
X235972333Y-30689523D01*
X236010428Y-30765714D01*
X236048523Y-30803809D01*
X236124714Y-30841904D01*
X236429476Y-30841904D01*
X236429476Y-30041904D01*
X236162809Y-30041904D01*
X236086619Y-30080000D01*
X236048523Y-30118095D01*
X236010428Y-30194285D01*
X236010428Y-30270476D01*
X236048523Y-30346666D01*
X236086619Y-30384761D01*
X236162809Y-30422857D01*
X236429476Y-30422857D01*
X235477095Y-30041904D02*
X235400904Y-30041904D01*
X235324714Y-30080000D01*
X235286619Y-30118095D01*
X235248523Y-30194285D01*
X235210428Y-30346666D01*
X235210428Y-30537142D01*
X235248523Y-30689523D01*
X235286619Y-30765714D01*
X235324714Y-30803809D01*
X235400904Y-30841904D01*
X235477095Y-30841904D01*
X235553285Y-30803809D01*
X235591380Y-30765714D01*
X235629476Y-30689523D01*
X235667571Y-30537142D01*
X235667571Y-30346666D01*
X235629476Y-30194285D01*
X235591380Y-30118095D01*
X235553285Y-30080000D01*
X235477095Y-30041904D01*
X236105666Y-43122857D02*
X236372333Y-43122857D01*
X236372333Y-43541904D02*
X236372333Y-42741904D01*
X235991380Y-42741904D01*
X235305666Y-42741904D02*
X235686619Y-42741904D01*
X235724714Y-43122857D01*
X235686619Y-43084761D01*
X235610428Y-43046666D01*
X235419952Y-43046666D01*
X235343761Y-43084761D01*
X235305666Y-43122857D01*
X235267571Y-43199047D01*
X235267571Y-43389523D01*
X235305666Y-43465714D01*
X235343761Y-43503809D01*
X235419952Y-43541904D01*
X235610428Y-43541904D01*
X235686619Y-43503809D01*
X235724714Y-43465714D01*
X236105666Y-45662857D02*
X236372333Y-45662857D01*
X236372333Y-46081904D02*
X236372333Y-45281904D01*
X235991380Y-45281904D01*
X235343761Y-45281904D02*
X235496142Y-45281904D01*
X235572333Y-45320000D01*
X235610428Y-45358095D01*
X235686619Y-45472380D01*
X235724714Y-45624761D01*
X235724714Y-45929523D01*
X235686619Y-46005714D01*
X235648523Y-46043809D01*
X235572333Y-46081904D01*
X235419952Y-46081904D01*
X235343761Y-46043809D01*
X235305666Y-46005714D01*
X235267571Y-45929523D01*
X235267571Y-45739047D01*
X235305666Y-45662857D01*
X235343761Y-45624761D01*
X235419952Y-45586666D01*
X235572333Y-45586666D01*
X235648523Y-45624761D01*
X235686619Y-45662857D01*
X235724714Y-45739047D01*
X236105666Y-48202857D02*
X236372333Y-48202857D01*
X236372333Y-48621904D02*
X236372333Y-47821904D01*
X235991380Y-47821904D01*
X235762809Y-47821904D02*
X235229476Y-47821904D01*
X235572333Y-48621904D01*
X236162809Y-55822857D02*
X236048523Y-55860952D01*
X236010428Y-55899047D01*
X235972333Y-55975238D01*
X235972333Y-56089523D01*
X236010428Y-56165714D01*
X236048523Y-56203809D01*
X236124714Y-56241904D01*
X236429476Y-56241904D01*
X236429476Y-55441904D01*
X236162809Y-55441904D01*
X236086619Y-55480000D01*
X236048523Y-55518095D01*
X236010428Y-55594285D01*
X236010428Y-55670476D01*
X236048523Y-55746666D01*
X236086619Y-55784761D01*
X236162809Y-55822857D01*
X236429476Y-55822857D01*
X235667571Y-55518095D02*
X235629476Y-55480000D01*
X235553285Y-55441904D01*
X235362809Y-55441904D01*
X235286619Y-55480000D01*
X235248523Y-55518095D01*
X235210428Y-55594285D01*
X235210428Y-55670476D01*
X235248523Y-55784761D01*
X235705666Y-56241904D01*
X235210428Y-56241904D01*
%TD*%
M02*
