%TF.GenerationSoftware,KiCad,Pcbnew,(5.1.9-0-10_14)*%
%TF.CreationDate,2021-04-19T01:17:04-05:00*%
%TF.ProjectId,wren-left,7772656e-2d6c-4656-9674-2e6b69636164,rev?*%
%TF.SameCoordinates,Original*%
%TF.FileFunction,Profile,NP*%
%FSLAX46Y46*%
G04 Gerber Fmt 4.6, Leading zero omitted, Abs format (unit mm)*
G04 Created by KiCad (PCBNEW (5.1.9-0-10_14)) date 2021-04-19 01:17:04*
%MOMM*%
%LPD*%
G01*
G04 APERTURE LIST*
%TA.AperFunction,Profile*%
%ADD10C,0.050000*%
%TD*%
G04 APERTURE END LIST*
D10*
X265874500Y-87725250D02*
X251650500Y-79597250D01*
X238950500Y-134207250D02*
X265874500Y-87725250D01*
X222250000Y-124618750D02*
X238950500Y-134207250D01*
X250772952Y-78177347D02*
X250825000Y-26987500D01*
X143668750Y-103187500D02*
X118268750Y-103187500D01*
X143668750Y-103187500D02*
G75*
G02*
X145256250Y-104775000I0J-1587500D01*
G01*
X145256250Y-121443750D02*
X145256250Y-104775000D01*
X118268750Y-103187500D02*
X39687500Y-103187500D01*
X146050000Y-122237500D02*
X165100000Y-122237500D01*
X173037500Y-22225000D02*
X173037500Y-23018750D01*
X203200000Y-124618750D02*
X222250000Y-124618750D01*
X202406250Y-123031250D02*
X202406250Y-123825000D01*
X203200000Y-124618750D02*
G75*
G02*
X202406250Y-123825000I0J793750D01*
G01*
X201612500Y-122237500D02*
G75*
G02*
X202406250Y-123031250I0J-793750D01*
G01*
X165100000Y-122237500D02*
X201612500Y-122237500D01*
X146050000Y-122237500D02*
G75*
G02*
X145256250Y-121443750I0J793750D01*
G01*
X251650500Y-79597250D02*
G75*
G02*
X250772952Y-78177347I709952J1419903D01*
G01*
X211931250Y-26193750D02*
X250031250Y-26193750D01*
X211137500Y-24606250D02*
X211137500Y-25400000D01*
X192881250Y-23812500D02*
X210343750Y-23812500D01*
X192087500Y-22225000D02*
X192087500Y-23018750D01*
X173831250Y-21431250D02*
X191293750Y-21431250D01*
X154781250Y-23812500D02*
X172243750Y-23812500D01*
X153987500Y-26193750D02*
X153987500Y-24606250D01*
X39687500Y-26987500D02*
X153193750Y-26987500D01*
X250031250Y-26193750D02*
G75*
G02*
X250825000Y-26987500I0J-793750D01*
G01*
X211931250Y-26193750D02*
G75*
G02*
X211137500Y-25400000I0J793750D01*
G01*
X210343750Y-23812500D02*
G75*
G02*
X211137500Y-24606250I0J-793750D01*
G01*
X192881250Y-23812500D02*
G75*
G02*
X192087500Y-23018750I0J793750D01*
G01*
X191293750Y-21431250D02*
G75*
G02*
X192087500Y-22225000I0J-793750D01*
G01*
X153987500Y-24606250D02*
G75*
G02*
X154781250Y-23812500I793750J0D01*
G01*
X153987500Y-26193750D02*
G75*
G02*
X153193750Y-26987500I-793750J0D01*
G01*
X173037500Y-22225000D02*
G75*
G02*
X173831250Y-21431250I793750J0D01*
G01*
X173037500Y-23018750D02*
G75*
G02*
X172243750Y-23812500I-793750J0D01*
G01*
X37306250Y-100806250D02*
X37306250Y-29368750D01*
X39687500Y-103187500D02*
G75*
G02*
X37306250Y-100806250I0J2381250D01*
G01*
X37306250Y-29368750D02*
G75*
G02*
X39687500Y-26987500I2381250J0D01*
G01*
M02*
