%TF.GenerationSoftware,KiCad,Pcbnew,(5.1.9-0-10_14)*%
%TF.CreationDate,2021-04-19T01:17:04-05:00*%
%TF.ProjectId,wren-left,7772656e-2d6c-4656-9674-2e6b69636164,rev?*%
%TF.SameCoordinates,Original*%
%TF.FileFunction,Soldermask,Bot*%
%TF.FilePolarity,Negative*%
%FSLAX46Y46*%
G04 Gerber Fmt 4.6, Leading zero omitted, Abs format (unit mm)*
G04 Created by KiCad (PCBNEW (5.1.9-0-10_14)) date 2021-04-19 01:17:04*
%MOMM*%
%LPD*%
G01*
G04 APERTURE LIST*
%ADD10C,5.500000*%
%ADD11C,3.987800*%
%ADD12C,3.048000*%
%ADD13C,1.750000*%
%ADD14C,0.100000*%
%ADD15C,1.905000*%
%ADD16C,2.250000*%
%ADD17O,1.400000X1.400000*%
%ADD18C,1.400000*%
%ADD19C,1.600000*%
%ADD20R,1.600000X1.600000*%
%ADD21R,1.200000X1.200000*%
%ADD22R,2.000000X2.000000*%
%ADD23C,2.000000*%
%ADD24R,2.000000X3.200000*%
%ADD25C,1.752600*%
%ADD26R,1.752600X1.752600*%
%ADD27C,1.200000*%
%ADD28R,1.905000X1.905000*%
G04 APERTURE END LIST*
D10*
%TO.C,H7*%
X226218750Y-111125000D03*
%TD*%
%TO.C,H6*%
X211137500Y-83343750D03*
%TD*%
%TO.C,H5*%
X134937500Y-84137500D03*
%TD*%
%TO.C,H4*%
X56356250Y-84137500D03*
%TD*%
%TO.C,H3*%
X211137500Y-45243750D03*
%TD*%
%TO.C,H2*%
X134937500Y-46037500D03*
%TD*%
%TO.C,H1*%
X56356250Y-46037500D03*
%TD*%
D11*
%TO.C,MX41*%
X239040460Y-98405139D03*
X227102460Y-119082361D03*
D12*
X252238687Y-106025139D03*
X240300687Y-126702361D03*
D13*
X242760500Y-108471841D03*
X237680500Y-117270659D03*
D14*
G36*
X244333548Y-117812241D02*
G01*
X242683770Y-116859741D01*
X243636270Y-115209963D01*
X245286048Y-116162463D01*
X244333548Y-117812241D01*
G37*
D15*
X245254909Y-114311398D03*
D16*
X235506398Y-113036314D03*
D11*
X240220500Y-112871250D03*
G36*
G01*
X236465306Y-115970137D02*
X236465299Y-115970140D01*
G75*
G02*
X235046462Y-115250311I-349504J1069333D01*
G01*
X234437066Y-113385817D01*
G75*
G02*
X235156895Y-111966980I1069333J349504D01*
G01*
X235156895Y-111966980D01*
G75*
G02*
X236575732Y-112686809I349504J-1069333D01*
G01*
X237185128Y-114551303D01*
G75*
G02*
X236465299Y-115970140I-1069333J-349504D01*
G01*
G37*
D16*
X237091091Y-108131545D03*
G36*
G01*
X238507150Y-109083649D02*
X238506655Y-109084386D01*
G75*
G02*
X236945186Y-109389455I-933269J628200D01*
G01*
X236462892Y-109064813D01*
G75*
G02*
X236157823Y-107503344I628200J933269D01*
G01*
X236157823Y-107503344D01*
G75*
G02*
X237719292Y-107198275I933269J-628200D01*
G01*
X238201586Y-107522917D01*
G75*
G02*
X238506655Y-109084386I-628200J-933269D01*
G01*
G37*
%TD*%
D17*
%TO.C,R2*%
X238585000Y-43656250D03*
D18*
X243665000Y-43656250D03*
%TD*%
D17*
%TO.C,R1*%
X238585000Y-38100000D03*
D18*
X243665000Y-38100000D03*
%TD*%
D19*
%TO.C,D45*%
X163512500Y-108812500D03*
D20*
X163512500Y-116612500D03*
D21*
X163512500Y-114287500D03*
X163512500Y-111137500D03*
%TD*%
D19*
%TO.C,D44*%
X182562500Y-108812500D03*
D20*
X182562500Y-116612500D03*
D21*
X182562500Y-114287500D03*
X182562500Y-111137500D03*
%TD*%
D19*
%TO.C,D43*%
X201612500Y-108812500D03*
D20*
X201612500Y-116612500D03*
D21*
X201612500Y-114287500D03*
X201612500Y-111137500D03*
%TD*%
D19*
%TO.C,D42*%
X220662500Y-111193750D03*
D20*
X220662500Y-118993750D03*
D21*
X220662500Y-116668750D03*
X220662500Y-113518750D03*
%TD*%
D19*
%TO.C,D41*%
X241161001Y-103428250D03*
D14*
G36*
X249008819Y-107035430D02*
G01*
X248208819Y-108421070D01*
X246823179Y-107621070D01*
X247623179Y-106235430D01*
X249008819Y-107035430D01*
G37*
G36*
X246722105Y-105946135D02*
G01*
X246122105Y-106985365D01*
X245082875Y-106385365D01*
X245682875Y-105346135D01*
X246722105Y-105946135D01*
G37*
G36*
X243994125Y-104371135D02*
G01*
X243394125Y-105410365D01*
X242354895Y-104810365D01*
X242954895Y-103771135D01*
X243994125Y-104371135D01*
G37*
%TD*%
D19*
%TO.C,D40*%
X55605500Y-89762500D03*
D20*
X55605500Y-97562500D03*
D21*
X55605500Y-95237500D03*
X55605500Y-92087500D03*
%TD*%
D19*
%TO.C,D39*%
X74649500Y-89762500D03*
D20*
X74649500Y-97562500D03*
D21*
X74649500Y-95237500D03*
X74649500Y-92087500D03*
%TD*%
D19*
%TO.C,D38*%
X93693500Y-89750000D03*
D20*
X93693500Y-97550000D03*
D21*
X93693500Y-95225000D03*
X93693500Y-92075000D03*
%TD*%
D19*
%TO.C,D37*%
X112737500Y-89762500D03*
D20*
X112737500Y-97562500D03*
D21*
X112737500Y-95237500D03*
X112737500Y-92087500D03*
%TD*%
D19*
%TO.C,D36*%
X134162000Y-89762500D03*
D20*
X134162000Y-97562500D03*
D21*
X134162000Y-95237500D03*
X134162000Y-92087500D03*
%TD*%
D19*
%TO.C,D35*%
X153206000Y-89762500D03*
D20*
X153206000Y-97562500D03*
D21*
X153206000Y-95237500D03*
X153206000Y-92087500D03*
%TD*%
D19*
%TO.C,D34*%
X172250000Y-86587500D03*
D20*
X172250000Y-94387500D03*
D21*
X172250000Y-92062500D03*
X172250000Y-88912500D03*
%TD*%
D19*
%TO.C,D33*%
X191294000Y-84206250D03*
D20*
X191294000Y-92006250D03*
D21*
X191294000Y-89681250D03*
X191294000Y-86531250D03*
%TD*%
D19*
%TO.C,D32*%
X210338000Y-87381250D03*
D20*
X210338000Y-95181250D03*
D21*
X210338000Y-92856250D03*
X210338000Y-89706250D03*
%TD*%
D19*
%TO.C,D31*%
X229382000Y-88968750D03*
D20*
X229382000Y-96768750D03*
D21*
X229382000Y-94443750D03*
X229382000Y-91293750D03*
%TD*%
D19*
%TO.C,D30*%
X55605500Y-70712500D03*
D20*
X55605500Y-78512500D03*
D21*
X55605500Y-76187500D03*
X55605500Y-73037500D03*
%TD*%
D19*
%TO.C,D29*%
X74649500Y-70712500D03*
D20*
X74649500Y-78512500D03*
D21*
X74649500Y-76187500D03*
X74649500Y-73037500D03*
%TD*%
D19*
%TO.C,D28*%
X93693500Y-70712500D03*
D20*
X93693500Y-78512500D03*
D21*
X93693500Y-76187500D03*
X93693500Y-73037500D03*
%TD*%
D19*
%TO.C,D27*%
X112737500Y-70712500D03*
D20*
X112737500Y-78512500D03*
D21*
X112737500Y-76187500D03*
X112737500Y-73037500D03*
%TD*%
D19*
%TO.C,D26*%
X134162000Y-70712500D03*
D20*
X134162000Y-78512500D03*
D21*
X134162000Y-76187500D03*
X134162000Y-73037500D03*
%TD*%
D19*
%TO.C,D25*%
X153206000Y-70712500D03*
D20*
X153206000Y-78512500D03*
D21*
X153206000Y-76187500D03*
X153206000Y-73037500D03*
%TD*%
D19*
%TO.C,D24*%
X172250000Y-67537500D03*
D20*
X172250000Y-75337500D03*
D21*
X172250000Y-73012500D03*
X172250000Y-69862500D03*
%TD*%
D19*
%TO.C,D23*%
X191294000Y-65156250D03*
D20*
X191294000Y-72956250D03*
D21*
X191294000Y-70631250D03*
X191294000Y-67481250D03*
%TD*%
D19*
%TO.C,D22*%
X210338000Y-67537500D03*
D20*
X210338000Y-75337500D03*
D21*
X210338000Y-73012500D03*
X210338000Y-69862500D03*
%TD*%
D19*
%TO.C,D21*%
X229382000Y-69918750D03*
D20*
X229382000Y-77718750D03*
D21*
X229382000Y-75393750D03*
X229382000Y-72243750D03*
%TD*%
D19*
%TO.C,D20*%
X55605500Y-51662500D03*
D20*
X55605500Y-59462500D03*
D21*
X55605500Y-57137500D03*
X55605500Y-53987500D03*
%TD*%
D19*
%TO.C,D19*%
X74649500Y-51662500D03*
D20*
X74649500Y-59462500D03*
D21*
X74649500Y-57137500D03*
X74649500Y-53987500D03*
%TD*%
D19*
%TO.C,D18*%
X93693500Y-51662500D03*
D20*
X93693500Y-59462500D03*
D21*
X93693500Y-57137500D03*
X93693500Y-53987500D03*
%TD*%
D19*
%TO.C,D17*%
X112737500Y-51662500D03*
D20*
X112737500Y-59462500D03*
D21*
X112737500Y-57137500D03*
X112737500Y-53987500D03*
%TD*%
D19*
%TO.C,D16*%
X134162000Y-51662500D03*
D20*
X134162000Y-59462500D03*
D21*
X134162000Y-57137500D03*
X134162000Y-53987500D03*
%TD*%
D19*
%TO.C,D15*%
X153206000Y-51662500D03*
D20*
X153206000Y-59462500D03*
D21*
X153206000Y-57137500D03*
X153206000Y-53987500D03*
%TD*%
D19*
%TO.C,D14*%
X172250000Y-48487500D03*
D20*
X172250000Y-56287500D03*
D21*
X172250000Y-53962500D03*
X172250000Y-50812500D03*
%TD*%
D19*
%TO.C,D13*%
X191294000Y-46106250D03*
D20*
X191294000Y-53906250D03*
D21*
X191294000Y-51581250D03*
X191294000Y-48431250D03*
%TD*%
D19*
%TO.C,D12*%
X210338000Y-49281250D03*
D20*
X210338000Y-57081250D03*
D21*
X210338000Y-54756250D03*
X210338000Y-51606250D03*
%TD*%
D19*
%TO.C,D11*%
X229382000Y-50868750D03*
D20*
X229382000Y-58668750D03*
D21*
X229382000Y-56343750D03*
X229382000Y-53193750D03*
%TD*%
D19*
%TO.C,D10*%
X55605500Y-32612500D03*
D20*
X55605500Y-40412500D03*
D21*
X55605500Y-38087500D03*
X55605500Y-34937500D03*
%TD*%
D19*
%TO.C,D9*%
X74649500Y-32612500D03*
D20*
X74649500Y-40412500D03*
D21*
X74649500Y-38087500D03*
X74649500Y-34937500D03*
%TD*%
D19*
%TO.C,D8*%
X93693500Y-32612500D03*
D20*
X93693500Y-40412500D03*
D21*
X93693500Y-38087500D03*
X93693500Y-34937500D03*
%TD*%
D19*
%TO.C,D7*%
X112737500Y-32612500D03*
D20*
X112737500Y-40412500D03*
D21*
X112737500Y-38087500D03*
X112737500Y-34937500D03*
%TD*%
D19*
%TO.C,D6*%
X134162000Y-32612500D03*
D20*
X134162000Y-40412500D03*
D21*
X134162000Y-38087500D03*
X134162000Y-34937500D03*
%TD*%
D19*
%TO.C,D5*%
X153206000Y-32612500D03*
D20*
X153206000Y-40412500D03*
D21*
X153206000Y-38087500D03*
X153206000Y-34937500D03*
%TD*%
D19*
%TO.C,D4*%
X172250000Y-29437500D03*
D20*
X172250000Y-37237500D03*
D21*
X172250000Y-34912500D03*
X172250000Y-31762500D03*
%TD*%
D19*
%TO.C,D3*%
X191294000Y-27056250D03*
D20*
X191294000Y-34856250D03*
D21*
X191294000Y-32531250D03*
X191294000Y-29381250D03*
%TD*%
D19*
%TO.C,D2*%
X210338000Y-29437500D03*
D20*
X210338000Y-37237500D03*
D21*
X210338000Y-34912500D03*
X210338000Y-31762500D03*
%TD*%
D19*
%TO.C,D1*%
X229382000Y-31756250D03*
D20*
X229382000Y-39556250D03*
D21*
X229382000Y-37231250D03*
X229382000Y-34081250D03*
%TD*%
D22*
%TO.C,ENC1*%
X152336500Y-120237250D03*
D23*
X154836500Y-120237250D03*
X157336500Y-120237250D03*
D24*
X149236500Y-112737250D03*
X160436500Y-112737250D03*
D23*
X152336500Y-105737250D03*
X157336500Y-105737250D03*
%TD*%
D25*
%TO.C,U1*%
X246380000Y-58420000D03*
X243840000Y-58420000D03*
X241300000Y-58420000D03*
X238760000Y-58420000D03*
X236220000Y-58420000D03*
X233680000Y-30480000D03*
X248691400Y-58420000D03*
X233680000Y-33020000D03*
X233680000Y-35560000D03*
X233680000Y-38100000D03*
X233680000Y-40640000D03*
X233680000Y-43180000D03*
X233680000Y-45720000D03*
X233680000Y-48260000D03*
X233680000Y-50800000D03*
X233680000Y-53340000D03*
X233680000Y-55880000D03*
X233680000Y-58420000D03*
X248920000Y-55880000D03*
X248920000Y-53340000D03*
X248920000Y-50800000D03*
X248920000Y-48260000D03*
X248920000Y-45720000D03*
X248920000Y-43180000D03*
X248920000Y-40640000D03*
X248920000Y-38100000D03*
X248920000Y-35560000D03*
X248920000Y-33020000D03*
D26*
X248920000Y-30480000D03*
%TD*%
D23*
%TO.C,SW0*%
X244561500Y-62706250D03*
X244561500Y-67206250D03*
X238061500Y-62706250D03*
X238061500Y-67206250D03*
%TD*%
D27*
%TO.C,J1*%
X255278358Y-96986083D03*
X258778358Y-90923905D03*
G36*
G01*
X257936500Y-87782046D02*
X257936500Y-87782046D01*
G75*
G02*
X258192718Y-88738264I-350000J-606218D01*
G01*
X257892718Y-89257880D01*
G75*
G02*
X256936500Y-89514098I-606218J350000D01*
G01*
X256936500Y-89514098D01*
G75*
G02*
X256680282Y-88557880I350000J606218D01*
G01*
X256980282Y-88038264D01*
G75*
G02*
X257936500Y-87782046I606218J-350000D01*
G01*
G37*
G36*
G01*
X256436500Y-90380122D02*
X256436500Y-90380122D01*
G75*
G02*
X256692718Y-91336340I-350000J-606218D01*
G01*
X256392718Y-91855956D01*
G75*
G02*
X255436500Y-92112174I-606218J350000D01*
G01*
X255436500Y-92112174D01*
G75*
G02*
X255180282Y-91155956I350000J606218D01*
G01*
X255480282Y-90636340D01*
G75*
G02*
X256436500Y-90380122I606218J-350000D01*
G01*
G37*
D14*
G36*
X253830282Y-93494225D02*
G01*
X255042718Y-94194225D01*
X254042718Y-95926275D01*
X252830282Y-95226275D01*
X253830282Y-93494225D01*
G37*
G36*
G01*
X257583614Y-97393262D02*
X257583614Y-97393262D01*
G75*
G02*
X257839832Y-98349480I-350000J-606218D01*
G01*
X257539832Y-98869096D01*
G75*
G02*
X256583614Y-99125314I-606218J350000D01*
G01*
X256583614Y-99125314D01*
G75*
G02*
X256327396Y-98169096I350000J606218D01*
G01*
X256627396Y-97649480D01*
G75*
G02*
X257583614Y-97393262I606218J-350000D01*
G01*
G37*
G36*
G01*
X262699640Y-90532046D02*
X262699640Y-90532046D01*
G75*
G02*
X262955858Y-91488264I-350000J-606218D01*
G01*
X262655858Y-92007880D01*
G75*
G02*
X261699640Y-92264098I-606218J350000D01*
G01*
X261699640Y-92264098D01*
G75*
G02*
X261443422Y-91307880I350000J606218D01*
G01*
X261743422Y-90788264D01*
G75*
G02*
X262699640Y-90532046I606218J-350000D01*
G01*
G37*
%TD*%
D13*
%TO.C,MX44*%
X178911250Y-112712500D03*
X168751250Y-112712500D03*
D28*
X175101250Y-117792500D03*
D15*
X172561250Y-117792500D03*
D16*
X171331250Y-108712500D03*
D11*
X173831250Y-112712500D03*
G36*
G01*
X169269938Y-111009850D02*
X169269933Y-111009845D01*
G75*
G02*
X169183905Y-109421183I751317J837345D01*
G01*
X170493907Y-107961183D01*
G75*
G02*
X172082569Y-107875155I837345J-751317D01*
G01*
X172082569Y-107875155D01*
G75*
G02*
X172168597Y-109463817I-751317J-837345D01*
G01*
X170858595Y-110923817D01*
G75*
G02*
X169269933Y-111009845I-837345J751317D01*
G01*
G37*
D16*
X176371250Y-107632500D03*
G36*
G01*
X176254733Y-109334895D02*
X176253847Y-109334834D01*
G75*
G02*
X175208916Y-108135097I77403J1122334D01*
G01*
X175248916Y-107555097D01*
G75*
G02*
X176448653Y-106510166I1122334J-77403D01*
G01*
X176448653Y-106510166D01*
G75*
G02*
X177493584Y-107709903I-77403J-1122334D01*
G01*
X177453584Y-108289903D01*
G75*
G02*
X176253847Y-109334834I-1122334J77403D01*
G01*
G37*
%TD*%
D13*
%TO.C,MX43*%
X197961250Y-112712500D03*
X187801250Y-112712500D03*
D28*
X194151250Y-117792500D03*
D15*
X191611250Y-117792500D03*
D16*
X190381250Y-108712500D03*
D11*
X192881250Y-112712500D03*
G36*
G01*
X188319938Y-111009850D02*
X188319933Y-111009845D01*
G75*
G02*
X188233905Y-109421183I751317J837345D01*
G01*
X189543907Y-107961183D01*
G75*
G02*
X191132569Y-107875155I837345J-751317D01*
G01*
X191132569Y-107875155D01*
G75*
G02*
X191218597Y-109463817I-751317J-837345D01*
G01*
X189908595Y-110923817D01*
G75*
G02*
X188319933Y-111009845I-837345J751317D01*
G01*
G37*
D16*
X195421250Y-107632500D03*
G36*
G01*
X195304733Y-109334895D02*
X195303847Y-109334834D01*
G75*
G02*
X194258916Y-108135097I77403J1122334D01*
G01*
X194298916Y-107555097D01*
G75*
G02*
X195498653Y-106510166I1122334J-77403D01*
G01*
X195498653Y-106510166D01*
G75*
G02*
X196543584Y-107709903I-77403J-1122334D01*
G01*
X196503584Y-108289903D01*
G75*
G02*
X195303847Y-109334834I-1122334J77403D01*
G01*
G37*
%TD*%
D13*
%TO.C,MX42*%
X217011250Y-115093750D03*
X206851250Y-115093750D03*
D28*
X213201250Y-120173750D03*
D15*
X210661250Y-120173750D03*
D16*
X209431250Y-111093750D03*
D11*
X211931250Y-115093750D03*
G36*
G01*
X207369938Y-113391100D02*
X207369933Y-113391095D01*
G75*
G02*
X207283905Y-111802433I751317J837345D01*
G01*
X208593907Y-110342433D01*
G75*
G02*
X210182569Y-110256405I837345J-751317D01*
G01*
X210182569Y-110256405D01*
G75*
G02*
X210268597Y-111845067I-751317J-837345D01*
G01*
X208958595Y-113305067D01*
G75*
G02*
X207369933Y-113391095I-837345J751317D01*
G01*
G37*
D16*
X214471250Y-110013750D03*
G36*
G01*
X214354733Y-111716145D02*
X214353847Y-111716084D01*
G75*
G02*
X213308916Y-110516347I77403J1122334D01*
G01*
X213348916Y-109936347D01*
G75*
G02*
X214548653Y-108891416I1122334J-77403D01*
G01*
X214548653Y-108891416D01*
G75*
G02*
X215593584Y-110091153I-77403J-1122334D01*
G01*
X215553584Y-110671153D01*
G75*
G02*
X214353847Y-111716084I-1122334J77403D01*
G01*
G37*
%TD*%
D13*
%TO.C,MX40*%
X51911250Y-93662500D03*
X41751250Y-93662500D03*
D28*
X48101250Y-98742500D03*
D15*
X45561250Y-98742500D03*
D16*
X44331250Y-89662500D03*
D11*
X46831250Y-93662500D03*
G36*
G01*
X42269938Y-91959850D02*
X42269933Y-91959845D01*
G75*
G02*
X42183905Y-90371183I751317J837345D01*
G01*
X43493907Y-88911183D01*
G75*
G02*
X45082569Y-88825155I837345J-751317D01*
G01*
X45082569Y-88825155D01*
G75*
G02*
X45168597Y-90413817I-751317J-837345D01*
G01*
X43858595Y-91873817D01*
G75*
G02*
X42269933Y-91959845I-837345J751317D01*
G01*
G37*
D16*
X49371250Y-88582500D03*
G36*
G01*
X49254733Y-90284895D02*
X49253847Y-90284834D01*
G75*
G02*
X48208916Y-89085097I77403J1122334D01*
G01*
X48248916Y-88505097D01*
G75*
G02*
X49448653Y-87460166I1122334J-77403D01*
G01*
X49448653Y-87460166D01*
G75*
G02*
X50493584Y-88659903I-77403J-1122334D01*
G01*
X50453584Y-89239903D01*
G75*
G02*
X49253847Y-90284834I-1122334J77403D01*
G01*
G37*
%TD*%
D13*
%TO.C,MX39*%
X70961250Y-93662500D03*
X60801250Y-93662500D03*
D28*
X67151250Y-98742500D03*
D15*
X64611250Y-98742500D03*
D16*
X63381250Y-89662500D03*
D11*
X65881250Y-93662500D03*
G36*
G01*
X61319938Y-91959850D02*
X61319933Y-91959845D01*
G75*
G02*
X61233905Y-90371183I751317J837345D01*
G01*
X62543907Y-88911183D01*
G75*
G02*
X64132569Y-88825155I837345J-751317D01*
G01*
X64132569Y-88825155D01*
G75*
G02*
X64218597Y-90413817I-751317J-837345D01*
G01*
X62908595Y-91873817D01*
G75*
G02*
X61319933Y-91959845I-837345J751317D01*
G01*
G37*
D16*
X68421250Y-88582500D03*
G36*
G01*
X68304733Y-90284895D02*
X68303847Y-90284834D01*
G75*
G02*
X67258916Y-89085097I77403J1122334D01*
G01*
X67298916Y-88505097D01*
G75*
G02*
X68498653Y-87460166I1122334J-77403D01*
G01*
X68498653Y-87460166D01*
G75*
G02*
X69543584Y-88659903I-77403J-1122334D01*
G01*
X69503584Y-89239903D01*
G75*
G02*
X68303847Y-90284834I-1122334J77403D01*
G01*
G37*
%TD*%
D13*
%TO.C,MX38*%
X90011250Y-93662500D03*
X79851250Y-93662500D03*
D28*
X86201250Y-98742500D03*
D15*
X83661250Y-98742500D03*
D16*
X82431250Y-89662500D03*
D11*
X84931250Y-93662500D03*
G36*
G01*
X80369938Y-91959850D02*
X80369933Y-91959845D01*
G75*
G02*
X80283905Y-90371183I751317J837345D01*
G01*
X81593907Y-88911183D01*
G75*
G02*
X83182569Y-88825155I837345J-751317D01*
G01*
X83182569Y-88825155D01*
G75*
G02*
X83268597Y-90413817I-751317J-837345D01*
G01*
X81958595Y-91873817D01*
G75*
G02*
X80369933Y-91959845I-837345J751317D01*
G01*
G37*
D16*
X87471250Y-88582500D03*
G36*
G01*
X87354733Y-90284895D02*
X87353847Y-90284834D01*
G75*
G02*
X86308916Y-89085097I77403J1122334D01*
G01*
X86348916Y-88505097D01*
G75*
G02*
X87548653Y-87460166I1122334J-77403D01*
G01*
X87548653Y-87460166D01*
G75*
G02*
X88593584Y-88659903I-77403J-1122334D01*
G01*
X88553584Y-89239903D01*
G75*
G02*
X87353847Y-90284834I-1122334J77403D01*
G01*
G37*
%TD*%
D13*
%TO.C,MX37*%
X109061250Y-93662500D03*
X98901250Y-93662500D03*
D28*
X105251250Y-98742500D03*
D15*
X102711250Y-98742500D03*
D16*
X101481250Y-89662500D03*
D11*
X103981250Y-93662500D03*
G36*
G01*
X99419938Y-91959850D02*
X99419933Y-91959845D01*
G75*
G02*
X99333905Y-90371183I751317J837345D01*
G01*
X100643907Y-88911183D01*
G75*
G02*
X102232569Y-88825155I837345J-751317D01*
G01*
X102232569Y-88825155D01*
G75*
G02*
X102318597Y-90413817I-751317J-837345D01*
G01*
X101008595Y-91873817D01*
G75*
G02*
X99419933Y-91959845I-837345J751317D01*
G01*
G37*
D16*
X106521250Y-88582500D03*
G36*
G01*
X106404733Y-90284895D02*
X106403847Y-90284834D01*
G75*
G02*
X105358916Y-89085097I77403J1122334D01*
G01*
X105398916Y-88505097D01*
G75*
G02*
X106598653Y-87460166I1122334J-77403D01*
G01*
X106598653Y-87460166D01*
G75*
G02*
X107643584Y-88659903I-77403J-1122334D01*
G01*
X107603584Y-89239903D01*
G75*
G02*
X106403847Y-90284834I-1122334J77403D01*
G01*
G37*
%TD*%
D13*
%TO.C,MX36*%
X130492500Y-93662500D03*
X120332500Y-93662500D03*
D28*
X126682500Y-98742500D03*
D15*
X124142500Y-98742500D03*
D16*
X122912500Y-89662500D03*
D11*
X125412500Y-93662500D03*
G36*
G01*
X120851188Y-91959850D02*
X120851183Y-91959845D01*
G75*
G02*
X120765155Y-90371183I751317J837345D01*
G01*
X122075157Y-88911183D01*
G75*
G02*
X123663819Y-88825155I837345J-751317D01*
G01*
X123663819Y-88825155D01*
G75*
G02*
X123749847Y-90413817I-751317J-837345D01*
G01*
X122439845Y-91873817D01*
G75*
G02*
X120851183Y-91959845I-837345J751317D01*
G01*
G37*
D16*
X127952500Y-88582500D03*
G36*
G01*
X127835983Y-90284895D02*
X127835097Y-90284834D01*
G75*
G02*
X126790166Y-89085097I77403J1122334D01*
G01*
X126830166Y-88505097D01*
G75*
G02*
X128029903Y-87460166I1122334J-77403D01*
G01*
X128029903Y-87460166D01*
G75*
G02*
X129074834Y-88659903I-77403J-1122334D01*
G01*
X129034834Y-89239903D01*
G75*
G02*
X127835097Y-90284834I-1122334J77403D01*
G01*
G37*
%TD*%
D13*
%TO.C,MX35*%
X149542500Y-93662500D03*
X139382500Y-93662500D03*
D28*
X145732500Y-98742500D03*
D15*
X143192500Y-98742500D03*
D16*
X141962500Y-89662500D03*
D11*
X144462500Y-93662500D03*
G36*
G01*
X139901188Y-91959850D02*
X139901183Y-91959845D01*
G75*
G02*
X139815155Y-90371183I751317J837345D01*
G01*
X141125157Y-88911183D01*
G75*
G02*
X142713819Y-88825155I837345J-751317D01*
G01*
X142713819Y-88825155D01*
G75*
G02*
X142799847Y-90413817I-751317J-837345D01*
G01*
X141489845Y-91873817D01*
G75*
G02*
X139901183Y-91959845I-837345J751317D01*
G01*
G37*
D16*
X147002500Y-88582500D03*
G36*
G01*
X146885983Y-90284895D02*
X146885097Y-90284834D01*
G75*
G02*
X145840166Y-89085097I77403J1122334D01*
G01*
X145880166Y-88505097D01*
G75*
G02*
X147079903Y-87460166I1122334J-77403D01*
G01*
X147079903Y-87460166D01*
G75*
G02*
X148124834Y-88659903I-77403J-1122334D01*
G01*
X148084834Y-89239903D01*
G75*
G02*
X146885097Y-90284834I-1122334J77403D01*
G01*
G37*
%TD*%
D13*
%TO.C,MX34*%
X168592500Y-90487500D03*
X158432500Y-90487500D03*
D28*
X164782500Y-95567500D03*
D15*
X162242500Y-95567500D03*
D16*
X161012500Y-86487500D03*
D11*
X163512500Y-90487500D03*
G36*
G01*
X158951188Y-88784850D02*
X158951183Y-88784845D01*
G75*
G02*
X158865155Y-87196183I751317J837345D01*
G01*
X160175157Y-85736183D01*
G75*
G02*
X161763819Y-85650155I837345J-751317D01*
G01*
X161763819Y-85650155D01*
G75*
G02*
X161849847Y-87238817I-751317J-837345D01*
G01*
X160539845Y-88698817D01*
G75*
G02*
X158951183Y-88784845I-837345J751317D01*
G01*
G37*
D16*
X166052500Y-85407500D03*
G36*
G01*
X165935983Y-87109895D02*
X165935097Y-87109834D01*
G75*
G02*
X164890166Y-85910097I77403J1122334D01*
G01*
X164930166Y-85330097D01*
G75*
G02*
X166129903Y-84285166I1122334J-77403D01*
G01*
X166129903Y-84285166D01*
G75*
G02*
X167174834Y-85484903I-77403J-1122334D01*
G01*
X167134834Y-86064903D01*
G75*
G02*
X165935097Y-87109834I-1122334J77403D01*
G01*
G37*
%TD*%
D13*
%TO.C,MX33*%
X187642500Y-88106250D03*
X177482500Y-88106250D03*
D28*
X183832500Y-93186250D03*
D15*
X181292500Y-93186250D03*
D16*
X180062500Y-84106250D03*
D11*
X182562500Y-88106250D03*
G36*
G01*
X178001188Y-86403600D02*
X178001183Y-86403595D01*
G75*
G02*
X177915155Y-84814933I751317J837345D01*
G01*
X179225157Y-83354933D01*
G75*
G02*
X180813819Y-83268905I837345J-751317D01*
G01*
X180813819Y-83268905D01*
G75*
G02*
X180899847Y-84857567I-751317J-837345D01*
G01*
X179589845Y-86317567D01*
G75*
G02*
X178001183Y-86403595I-837345J751317D01*
G01*
G37*
D16*
X185102500Y-83026250D03*
G36*
G01*
X184985983Y-84728645D02*
X184985097Y-84728584D01*
G75*
G02*
X183940166Y-83528847I77403J1122334D01*
G01*
X183980166Y-82948847D01*
G75*
G02*
X185179903Y-81903916I1122334J-77403D01*
G01*
X185179903Y-81903916D01*
G75*
G02*
X186224834Y-83103653I-77403J-1122334D01*
G01*
X186184834Y-83683653D01*
G75*
G02*
X184985097Y-84728584I-1122334J77403D01*
G01*
G37*
%TD*%
D13*
%TO.C,MX32*%
X206692500Y-90487500D03*
X196532500Y-90487500D03*
D28*
X202882500Y-95567500D03*
D15*
X200342500Y-95567500D03*
D16*
X199112500Y-86487500D03*
D11*
X201612500Y-90487500D03*
G36*
G01*
X197051188Y-88784850D02*
X197051183Y-88784845D01*
G75*
G02*
X196965155Y-87196183I751317J837345D01*
G01*
X198275157Y-85736183D01*
G75*
G02*
X199863819Y-85650155I837345J-751317D01*
G01*
X199863819Y-85650155D01*
G75*
G02*
X199949847Y-87238817I-751317J-837345D01*
G01*
X198639845Y-88698817D01*
G75*
G02*
X197051183Y-88784845I-837345J751317D01*
G01*
G37*
D16*
X204152500Y-85407500D03*
G36*
G01*
X204035983Y-87109895D02*
X204035097Y-87109834D01*
G75*
G02*
X202990166Y-85910097I77403J1122334D01*
G01*
X203030166Y-85330097D01*
G75*
G02*
X204229903Y-84285166I1122334J-77403D01*
G01*
X204229903Y-84285166D01*
G75*
G02*
X205274834Y-85484903I-77403J-1122334D01*
G01*
X205234834Y-86064903D01*
G75*
G02*
X204035097Y-87109834I-1122334J77403D01*
G01*
G37*
%TD*%
D13*
%TO.C,MX31*%
X225742500Y-92868750D03*
X215582500Y-92868750D03*
D28*
X221932500Y-97948750D03*
D15*
X219392500Y-97948750D03*
D16*
X218162500Y-88868750D03*
D11*
X220662500Y-92868750D03*
G36*
G01*
X216101188Y-91166100D02*
X216101183Y-91166095D01*
G75*
G02*
X216015155Y-89577433I751317J837345D01*
G01*
X217325157Y-88117433D01*
G75*
G02*
X218913819Y-88031405I837345J-751317D01*
G01*
X218913819Y-88031405D01*
G75*
G02*
X218999847Y-89620067I-751317J-837345D01*
G01*
X217689845Y-91080067D01*
G75*
G02*
X216101183Y-91166095I-837345J751317D01*
G01*
G37*
D16*
X223202500Y-87788750D03*
G36*
G01*
X223085983Y-89491145D02*
X223085097Y-89491084D01*
G75*
G02*
X222040166Y-88291347I77403J1122334D01*
G01*
X222080166Y-87711347D01*
G75*
G02*
X223279903Y-86666416I1122334J-77403D01*
G01*
X223279903Y-86666416D01*
G75*
G02*
X224324834Y-87866153I-77403J-1122334D01*
G01*
X224284834Y-88446153D01*
G75*
G02*
X223085097Y-89491084I-1122334J77403D01*
G01*
G37*
%TD*%
D13*
%TO.C,MX30*%
X51911250Y-74612500D03*
X41751250Y-74612500D03*
D28*
X48101250Y-79692500D03*
D15*
X45561250Y-79692500D03*
D16*
X44331250Y-70612500D03*
D11*
X46831250Y-74612500D03*
G36*
G01*
X42269938Y-72909850D02*
X42269933Y-72909845D01*
G75*
G02*
X42183905Y-71321183I751317J837345D01*
G01*
X43493907Y-69861183D01*
G75*
G02*
X45082569Y-69775155I837345J-751317D01*
G01*
X45082569Y-69775155D01*
G75*
G02*
X45168597Y-71363817I-751317J-837345D01*
G01*
X43858595Y-72823817D01*
G75*
G02*
X42269933Y-72909845I-837345J751317D01*
G01*
G37*
D16*
X49371250Y-69532500D03*
G36*
G01*
X49254733Y-71234895D02*
X49253847Y-71234834D01*
G75*
G02*
X48208916Y-70035097I77403J1122334D01*
G01*
X48248916Y-69455097D01*
G75*
G02*
X49448653Y-68410166I1122334J-77403D01*
G01*
X49448653Y-68410166D01*
G75*
G02*
X50493584Y-69609903I-77403J-1122334D01*
G01*
X50453584Y-70189903D01*
G75*
G02*
X49253847Y-71234834I-1122334J77403D01*
G01*
G37*
%TD*%
D13*
%TO.C,MX29*%
X70961250Y-74612500D03*
X60801250Y-74612500D03*
D28*
X67151250Y-79692500D03*
D15*
X64611250Y-79692500D03*
D16*
X63381250Y-70612500D03*
D11*
X65881250Y-74612500D03*
G36*
G01*
X61319938Y-72909850D02*
X61319933Y-72909845D01*
G75*
G02*
X61233905Y-71321183I751317J837345D01*
G01*
X62543907Y-69861183D01*
G75*
G02*
X64132569Y-69775155I837345J-751317D01*
G01*
X64132569Y-69775155D01*
G75*
G02*
X64218597Y-71363817I-751317J-837345D01*
G01*
X62908595Y-72823817D01*
G75*
G02*
X61319933Y-72909845I-837345J751317D01*
G01*
G37*
D16*
X68421250Y-69532500D03*
G36*
G01*
X68304733Y-71234895D02*
X68303847Y-71234834D01*
G75*
G02*
X67258916Y-70035097I77403J1122334D01*
G01*
X67298916Y-69455097D01*
G75*
G02*
X68498653Y-68410166I1122334J-77403D01*
G01*
X68498653Y-68410166D01*
G75*
G02*
X69543584Y-69609903I-77403J-1122334D01*
G01*
X69503584Y-70189903D01*
G75*
G02*
X68303847Y-71234834I-1122334J77403D01*
G01*
G37*
%TD*%
D13*
%TO.C,MX28*%
X90011250Y-74612500D03*
X79851250Y-74612500D03*
D28*
X86201250Y-79692500D03*
D15*
X83661250Y-79692500D03*
D16*
X82431250Y-70612500D03*
D11*
X84931250Y-74612500D03*
G36*
G01*
X80369938Y-72909850D02*
X80369933Y-72909845D01*
G75*
G02*
X80283905Y-71321183I751317J837345D01*
G01*
X81593907Y-69861183D01*
G75*
G02*
X83182569Y-69775155I837345J-751317D01*
G01*
X83182569Y-69775155D01*
G75*
G02*
X83268597Y-71363817I-751317J-837345D01*
G01*
X81958595Y-72823817D01*
G75*
G02*
X80369933Y-72909845I-837345J751317D01*
G01*
G37*
D16*
X87471250Y-69532500D03*
G36*
G01*
X87354733Y-71234895D02*
X87353847Y-71234834D01*
G75*
G02*
X86308916Y-70035097I77403J1122334D01*
G01*
X86348916Y-69455097D01*
G75*
G02*
X87548653Y-68410166I1122334J-77403D01*
G01*
X87548653Y-68410166D01*
G75*
G02*
X88593584Y-69609903I-77403J-1122334D01*
G01*
X88553584Y-70189903D01*
G75*
G02*
X87353847Y-71234834I-1122334J77403D01*
G01*
G37*
%TD*%
D13*
%TO.C,MX27*%
X109061250Y-74612500D03*
X98901250Y-74612500D03*
D28*
X105251250Y-79692500D03*
D15*
X102711250Y-79692500D03*
D16*
X101481250Y-70612500D03*
D11*
X103981250Y-74612500D03*
G36*
G01*
X99419938Y-72909850D02*
X99419933Y-72909845D01*
G75*
G02*
X99333905Y-71321183I751317J837345D01*
G01*
X100643907Y-69861183D01*
G75*
G02*
X102232569Y-69775155I837345J-751317D01*
G01*
X102232569Y-69775155D01*
G75*
G02*
X102318597Y-71363817I-751317J-837345D01*
G01*
X101008595Y-72823817D01*
G75*
G02*
X99419933Y-72909845I-837345J751317D01*
G01*
G37*
D16*
X106521250Y-69532500D03*
G36*
G01*
X106404733Y-71234895D02*
X106403847Y-71234834D01*
G75*
G02*
X105358916Y-70035097I77403J1122334D01*
G01*
X105398916Y-69455097D01*
G75*
G02*
X106598653Y-68410166I1122334J-77403D01*
G01*
X106598653Y-68410166D01*
G75*
G02*
X107643584Y-69609903I-77403J-1122334D01*
G01*
X107603584Y-70189903D01*
G75*
G02*
X106403847Y-71234834I-1122334J77403D01*
G01*
G37*
%TD*%
D13*
%TO.C,MX26*%
X130492500Y-74612500D03*
X120332500Y-74612500D03*
D28*
X126682500Y-79692500D03*
D15*
X124142500Y-79692500D03*
D16*
X122912500Y-70612500D03*
D11*
X125412500Y-74612500D03*
G36*
G01*
X120851188Y-72909850D02*
X120851183Y-72909845D01*
G75*
G02*
X120765155Y-71321183I751317J837345D01*
G01*
X122075157Y-69861183D01*
G75*
G02*
X123663819Y-69775155I837345J-751317D01*
G01*
X123663819Y-69775155D01*
G75*
G02*
X123749847Y-71363817I-751317J-837345D01*
G01*
X122439845Y-72823817D01*
G75*
G02*
X120851183Y-72909845I-837345J751317D01*
G01*
G37*
D16*
X127952500Y-69532500D03*
G36*
G01*
X127835983Y-71234895D02*
X127835097Y-71234834D01*
G75*
G02*
X126790166Y-70035097I77403J1122334D01*
G01*
X126830166Y-69455097D01*
G75*
G02*
X128029903Y-68410166I1122334J-77403D01*
G01*
X128029903Y-68410166D01*
G75*
G02*
X129074834Y-69609903I-77403J-1122334D01*
G01*
X129034834Y-70189903D01*
G75*
G02*
X127835097Y-71234834I-1122334J77403D01*
G01*
G37*
%TD*%
D13*
%TO.C,MX25*%
X149542500Y-74612500D03*
X139382500Y-74612500D03*
D28*
X145732500Y-79692500D03*
D15*
X143192500Y-79692500D03*
D16*
X141962500Y-70612500D03*
D11*
X144462500Y-74612500D03*
G36*
G01*
X139901188Y-72909850D02*
X139901183Y-72909845D01*
G75*
G02*
X139815155Y-71321183I751317J837345D01*
G01*
X141125157Y-69861183D01*
G75*
G02*
X142713819Y-69775155I837345J-751317D01*
G01*
X142713819Y-69775155D01*
G75*
G02*
X142799847Y-71363817I-751317J-837345D01*
G01*
X141489845Y-72823817D01*
G75*
G02*
X139901183Y-72909845I-837345J751317D01*
G01*
G37*
D16*
X147002500Y-69532500D03*
G36*
G01*
X146885983Y-71234895D02*
X146885097Y-71234834D01*
G75*
G02*
X145840166Y-70035097I77403J1122334D01*
G01*
X145880166Y-69455097D01*
G75*
G02*
X147079903Y-68410166I1122334J-77403D01*
G01*
X147079903Y-68410166D01*
G75*
G02*
X148124834Y-69609903I-77403J-1122334D01*
G01*
X148084834Y-70189903D01*
G75*
G02*
X146885097Y-71234834I-1122334J77403D01*
G01*
G37*
%TD*%
D13*
%TO.C,MX24*%
X168592500Y-71437500D03*
X158432500Y-71437500D03*
D28*
X164782500Y-76517500D03*
D15*
X162242500Y-76517500D03*
D16*
X161012500Y-67437500D03*
D11*
X163512500Y-71437500D03*
G36*
G01*
X158951188Y-69734850D02*
X158951183Y-69734845D01*
G75*
G02*
X158865155Y-68146183I751317J837345D01*
G01*
X160175157Y-66686183D01*
G75*
G02*
X161763819Y-66600155I837345J-751317D01*
G01*
X161763819Y-66600155D01*
G75*
G02*
X161849847Y-68188817I-751317J-837345D01*
G01*
X160539845Y-69648817D01*
G75*
G02*
X158951183Y-69734845I-837345J751317D01*
G01*
G37*
D16*
X166052500Y-66357500D03*
G36*
G01*
X165935983Y-68059895D02*
X165935097Y-68059834D01*
G75*
G02*
X164890166Y-66860097I77403J1122334D01*
G01*
X164930166Y-66280097D01*
G75*
G02*
X166129903Y-65235166I1122334J-77403D01*
G01*
X166129903Y-65235166D01*
G75*
G02*
X167174834Y-66434903I-77403J-1122334D01*
G01*
X167134834Y-67014903D01*
G75*
G02*
X165935097Y-68059834I-1122334J77403D01*
G01*
G37*
%TD*%
D13*
%TO.C,MX23*%
X187642500Y-69056250D03*
X177482500Y-69056250D03*
D28*
X183832500Y-74136250D03*
D15*
X181292500Y-74136250D03*
D16*
X180062500Y-65056250D03*
D11*
X182562500Y-69056250D03*
G36*
G01*
X178001188Y-67353600D02*
X178001183Y-67353595D01*
G75*
G02*
X177915155Y-65764933I751317J837345D01*
G01*
X179225157Y-64304933D01*
G75*
G02*
X180813819Y-64218905I837345J-751317D01*
G01*
X180813819Y-64218905D01*
G75*
G02*
X180899847Y-65807567I-751317J-837345D01*
G01*
X179589845Y-67267567D01*
G75*
G02*
X178001183Y-67353595I-837345J751317D01*
G01*
G37*
D16*
X185102500Y-63976250D03*
G36*
G01*
X184985983Y-65678645D02*
X184985097Y-65678584D01*
G75*
G02*
X183940166Y-64478847I77403J1122334D01*
G01*
X183980166Y-63898847D01*
G75*
G02*
X185179903Y-62853916I1122334J-77403D01*
G01*
X185179903Y-62853916D01*
G75*
G02*
X186224834Y-64053653I-77403J-1122334D01*
G01*
X186184834Y-64633653D01*
G75*
G02*
X184985097Y-65678584I-1122334J77403D01*
G01*
G37*
%TD*%
D13*
%TO.C,MX22*%
X206692500Y-71437500D03*
X196532500Y-71437500D03*
D28*
X202882500Y-76517500D03*
D15*
X200342500Y-76517500D03*
D16*
X199112500Y-67437500D03*
D11*
X201612500Y-71437500D03*
G36*
G01*
X197051188Y-69734850D02*
X197051183Y-69734845D01*
G75*
G02*
X196965155Y-68146183I751317J837345D01*
G01*
X198275157Y-66686183D01*
G75*
G02*
X199863819Y-66600155I837345J-751317D01*
G01*
X199863819Y-66600155D01*
G75*
G02*
X199949847Y-68188817I-751317J-837345D01*
G01*
X198639845Y-69648817D01*
G75*
G02*
X197051183Y-69734845I-837345J751317D01*
G01*
G37*
D16*
X204152500Y-66357500D03*
G36*
G01*
X204035983Y-68059895D02*
X204035097Y-68059834D01*
G75*
G02*
X202990166Y-66860097I77403J1122334D01*
G01*
X203030166Y-66280097D01*
G75*
G02*
X204229903Y-65235166I1122334J-77403D01*
G01*
X204229903Y-65235166D01*
G75*
G02*
X205274834Y-66434903I-77403J-1122334D01*
G01*
X205234834Y-67014903D01*
G75*
G02*
X204035097Y-68059834I-1122334J77403D01*
G01*
G37*
%TD*%
D13*
%TO.C,MX21*%
X225742500Y-73818750D03*
X215582500Y-73818750D03*
D28*
X221932500Y-78898750D03*
D15*
X219392500Y-78898750D03*
D16*
X218162500Y-69818750D03*
D11*
X220662500Y-73818750D03*
G36*
G01*
X216101188Y-72116100D02*
X216101183Y-72116095D01*
G75*
G02*
X216015155Y-70527433I751317J837345D01*
G01*
X217325157Y-69067433D01*
G75*
G02*
X218913819Y-68981405I837345J-751317D01*
G01*
X218913819Y-68981405D01*
G75*
G02*
X218999847Y-70570067I-751317J-837345D01*
G01*
X217689845Y-72030067D01*
G75*
G02*
X216101183Y-72116095I-837345J751317D01*
G01*
G37*
D16*
X223202500Y-68738750D03*
G36*
G01*
X223085983Y-70441145D02*
X223085097Y-70441084D01*
G75*
G02*
X222040166Y-69241347I77403J1122334D01*
G01*
X222080166Y-68661347D01*
G75*
G02*
X223279903Y-67616416I1122334J-77403D01*
G01*
X223279903Y-67616416D01*
G75*
G02*
X224324834Y-68816153I-77403J-1122334D01*
G01*
X224284834Y-69396153D01*
G75*
G02*
X223085097Y-70441084I-1122334J77403D01*
G01*
G37*
%TD*%
D13*
%TO.C,MX20*%
X51911250Y-55562500D03*
X41751250Y-55562500D03*
D28*
X48101250Y-60642500D03*
D15*
X45561250Y-60642500D03*
D16*
X44331250Y-51562500D03*
D11*
X46831250Y-55562500D03*
G36*
G01*
X42269938Y-53859850D02*
X42269933Y-53859845D01*
G75*
G02*
X42183905Y-52271183I751317J837345D01*
G01*
X43493907Y-50811183D01*
G75*
G02*
X45082569Y-50725155I837345J-751317D01*
G01*
X45082569Y-50725155D01*
G75*
G02*
X45168597Y-52313817I-751317J-837345D01*
G01*
X43858595Y-53773817D01*
G75*
G02*
X42269933Y-53859845I-837345J751317D01*
G01*
G37*
D16*
X49371250Y-50482500D03*
G36*
G01*
X49254733Y-52184895D02*
X49253847Y-52184834D01*
G75*
G02*
X48208916Y-50985097I77403J1122334D01*
G01*
X48248916Y-50405097D01*
G75*
G02*
X49448653Y-49360166I1122334J-77403D01*
G01*
X49448653Y-49360166D01*
G75*
G02*
X50493584Y-50559903I-77403J-1122334D01*
G01*
X50453584Y-51139903D01*
G75*
G02*
X49253847Y-52184834I-1122334J77403D01*
G01*
G37*
%TD*%
D13*
%TO.C,MX19*%
X70961250Y-55562500D03*
X60801250Y-55562500D03*
D28*
X67151250Y-60642500D03*
D15*
X64611250Y-60642500D03*
D16*
X63381250Y-51562500D03*
D11*
X65881250Y-55562500D03*
G36*
G01*
X61319938Y-53859850D02*
X61319933Y-53859845D01*
G75*
G02*
X61233905Y-52271183I751317J837345D01*
G01*
X62543907Y-50811183D01*
G75*
G02*
X64132569Y-50725155I837345J-751317D01*
G01*
X64132569Y-50725155D01*
G75*
G02*
X64218597Y-52313817I-751317J-837345D01*
G01*
X62908595Y-53773817D01*
G75*
G02*
X61319933Y-53859845I-837345J751317D01*
G01*
G37*
D16*
X68421250Y-50482500D03*
G36*
G01*
X68304733Y-52184895D02*
X68303847Y-52184834D01*
G75*
G02*
X67258916Y-50985097I77403J1122334D01*
G01*
X67298916Y-50405097D01*
G75*
G02*
X68498653Y-49360166I1122334J-77403D01*
G01*
X68498653Y-49360166D01*
G75*
G02*
X69543584Y-50559903I-77403J-1122334D01*
G01*
X69503584Y-51139903D01*
G75*
G02*
X68303847Y-52184834I-1122334J77403D01*
G01*
G37*
%TD*%
D13*
%TO.C,MX18*%
X90011250Y-55562500D03*
X79851250Y-55562500D03*
D28*
X86201250Y-60642500D03*
D15*
X83661250Y-60642500D03*
D16*
X82431250Y-51562500D03*
D11*
X84931250Y-55562500D03*
G36*
G01*
X80369938Y-53859850D02*
X80369933Y-53859845D01*
G75*
G02*
X80283905Y-52271183I751317J837345D01*
G01*
X81593907Y-50811183D01*
G75*
G02*
X83182569Y-50725155I837345J-751317D01*
G01*
X83182569Y-50725155D01*
G75*
G02*
X83268597Y-52313817I-751317J-837345D01*
G01*
X81958595Y-53773817D01*
G75*
G02*
X80369933Y-53859845I-837345J751317D01*
G01*
G37*
D16*
X87471250Y-50482500D03*
G36*
G01*
X87354733Y-52184895D02*
X87353847Y-52184834D01*
G75*
G02*
X86308916Y-50985097I77403J1122334D01*
G01*
X86348916Y-50405097D01*
G75*
G02*
X87548653Y-49360166I1122334J-77403D01*
G01*
X87548653Y-49360166D01*
G75*
G02*
X88593584Y-50559903I-77403J-1122334D01*
G01*
X88553584Y-51139903D01*
G75*
G02*
X87353847Y-52184834I-1122334J77403D01*
G01*
G37*
%TD*%
D13*
%TO.C,MX17*%
X109061250Y-55562500D03*
X98901250Y-55562500D03*
D28*
X105251250Y-60642500D03*
D15*
X102711250Y-60642500D03*
D16*
X101481250Y-51562500D03*
D11*
X103981250Y-55562500D03*
G36*
G01*
X99419938Y-53859850D02*
X99419933Y-53859845D01*
G75*
G02*
X99333905Y-52271183I751317J837345D01*
G01*
X100643907Y-50811183D01*
G75*
G02*
X102232569Y-50725155I837345J-751317D01*
G01*
X102232569Y-50725155D01*
G75*
G02*
X102318597Y-52313817I-751317J-837345D01*
G01*
X101008595Y-53773817D01*
G75*
G02*
X99419933Y-53859845I-837345J751317D01*
G01*
G37*
D16*
X106521250Y-50482500D03*
G36*
G01*
X106404733Y-52184895D02*
X106403847Y-52184834D01*
G75*
G02*
X105358916Y-50985097I77403J1122334D01*
G01*
X105398916Y-50405097D01*
G75*
G02*
X106598653Y-49360166I1122334J-77403D01*
G01*
X106598653Y-49360166D01*
G75*
G02*
X107643584Y-50559903I-77403J-1122334D01*
G01*
X107603584Y-51139903D01*
G75*
G02*
X106403847Y-52184834I-1122334J77403D01*
G01*
G37*
%TD*%
D13*
%TO.C,MX16*%
X130492500Y-55562500D03*
X120332500Y-55562500D03*
D28*
X126682500Y-60642500D03*
D15*
X124142500Y-60642500D03*
D16*
X122912500Y-51562500D03*
D11*
X125412500Y-55562500D03*
G36*
G01*
X120851188Y-53859850D02*
X120851183Y-53859845D01*
G75*
G02*
X120765155Y-52271183I751317J837345D01*
G01*
X122075157Y-50811183D01*
G75*
G02*
X123663819Y-50725155I837345J-751317D01*
G01*
X123663819Y-50725155D01*
G75*
G02*
X123749847Y-52313817I-751317J-837345D01*
G01*
X122439845Y-53773817D01*
G75*
G02*
X120851183Y-53859845I-837345J751317D01*
G01*
G37*
D16*
X127952500Y-50482500D03*
G36*
G01*
X127835983Y-52184895D02*
X127835097Y-52184834D01*
G75*
G02*
X126790166Y-50985097I77403J1122334D01*
G01*
X126830166Y-50405097D01*
G75*
G02*
X128029903Y-49360166I1122334J-77403D01*
G01*
X128029903Y-49360166D01*
G75*
G02*
X129074834Y-50559903I-77403J-1122334D01*
G01*
X129034834Y-51139903D01*
G75*
G02*
X127835097Y-52184834I-1122334J77403D01*
G01*
G37*
%TD*%
D13*
%TO.C,MX15*%
X149542500Y-55562500D03*
X139382500Y-55562500D03*
D28*
X145732500Y-60642500D03*
D15*
X143192500Y-60642500D03*
D16*
X141962500Y-51562500D03*
D11*
X144462500Y-55562500D03*
G36*
G01*
X139901188Y-53859850D02*
X139901183Y-53859845D01*
G75*
G02*
X139815155Y-52271183I751317J837345D01*
G01*
X141125157Y-50811183D01*
G75*
G02*
X142713819Y-50725155I837345J-751317D01*
G01*
X142713819Y-50725155D01*
G75*
G02*
X142799847Y-52313817I-751317J-837345D01*
G01*
X141489845Y-53773817D01*
G75*
G02*
X139901183Y-53859845I-837345J751317D01*
G01*
G37*
D16*
X147002500Y-50482500D03*
G36*
G01*
X146885983Y-52184895D02*
X146885097Y-52184834D01*
G75*
G02*
X145840166Y-50985097I77403J1122334D01*
G01*
X145880166Y-50405097D01*
G75*
G02*
X147079903Y-49360166I1122334J-77403D01*
G01*
X147079903Y-49360166D01*
G75*
G02*
X148124834Y-50559903I-77403J-1122334D01*
G01*
X148084834Y-51139903D01*
G75*
G02*
X146885097Y-52184834I-1122334J77403D01*
G01*
G37*
%TD*%
D13*
%TO.C,MX14*%
X168592500Y-52387500D03*
X158432500Y-52387500D03*
D28*
X164782500Y-57467500D03*
D15*
X162242500Y-57467500D03*
D16*
X161012500Y-48387500D03*
D11*
X163512500Y-52387500D03*
G36*
G01*
X158951188Y-50684850D02*
X158951183Y-50684845D01*
G75*
G02*
X158865155Y-49096183I751317J837345D01*
G01*
X160175157Y-47636183D01*
G75*
G02*
X161763819Y-47550155I837345J-751317D01*
G01*
X161763819Y-47550155D01*
G75*
G02*
X161849847Y-49138817I-751317J-837345D01*
G01*
X160539845Y-50598817D01*
G75*
G02*
X158951183Y-50684845I-837345J751317D01*
G01*
G37*
D16*
X166052500Y-47307500D03*
G36*
G01*
X165935983Y-49009895D02*
X165935097Y-49009834D01*
G75*
G02*
X164890166Y-47810097I77403J1122334D01*
G01*
X164930166Y-47230097D01*
G75*
G02*
X166129903Y-46185166I1122334J-77403D01*
G01*
X166129903Y-46185166D01*
G75*
G02*
X167174834Y-47384903I-77403J-1122334D01*
G01*
X167134834Y-47964903D01*
G75*
G02*
X165935097Y-49009834I-1122334J77403D01*
G01*
G37*
%TD*%
D13*
%TO.C,MX13*%
X187642500Y-50006250D03*
X177482500Y-50006250D03*
D28*
X183832500Y-55086250D03*
D15*
X181292500Y-55086250D03*
D16*
X180062500Y-46006250D03*
D11*
X182562500Y-50006250D03*
G36*
G01*
X178001188Y-48303600D02*
X178001183Y-48303595D01*
G75*
G02*
X177915155Y-46714933I751317J837345D01*
G01*
X179225157Y-45254933D01*
G75*
G02*
X180813819Y-45168905I837345J-751317D01*
G01*
X180813819Y-45168905D01*
G75*
G02*
X180899847Y-46757567I-751317J-837345D01*
G01*
X179589845Y-48217567D01*
G75*
G02*
X178001183Y-48303595I-837345J751317D01*
G01*
G37*
D16*
X185102500Y-44926250D03*
G36*
G01*
X184985983Y-46628645D02*
X184985097Y-46628584D01*
G75*
G02*
X183940166Y-45428847I77403J1122334D01*
G01*
X183980166Y-44848847D01*
G75*
G02*
X185179903Y-43803916I1122334J-77403D01*
G01*
X185179903Y-43803916D01*
G75*
G02*
X186224834Y-45003653I-77403J-1122334D01*
G01*
X186184834Y-45583653D01*
G75*
G02*
X184985097Y-46628584I-1122334J77403D01*
G01*
G37*
%TD*%
D13*
%TO.C,MX12*%
X206692500Y-52387500D03*
X196532500Y-52387500D03*
D28*
X202882500Y-57467500D03*
D15*
X200342500Y-57467500D03*
D16*
X199112500Y-48387500D03*
D11*
X201612500Y-52387500D03*
G36*
G01*
X197051188Y-50684850D02*
X197051183Y-50684845D01*
G75*
G02*
X196965155Y-49096183I751317J837345D01*
G01*
X198275157Y-47636183D01*
G75*
G02*
X199863819Y-47550155I837345J-751317D01*
G01*
X199863819Y-47550155D01*
G75*
G02*
X199949847Y-49138817I-751317J-837345D01*
G01*
X198639845Y-50598817D01*
G75*
G02*
X197051183Y-50684845I-837345J751317D01*
G01*
G37*
D16*
X204152500Y-47307500D03*
G36*
G01*
X204035983Y-49009895D02*
X204035097Y-49009834D01*
G75*
G02*
X202990166Y-47810097I77403J1122334D01*
G01*
X203030166Y-47230097D01*
G75*
G02*
X204229903Y-46185166I1122334J-77403D01*
G01*
X204229903Y-46185166D01*
G75*
G02*
X205274834Y-47384903I-77403J-1122334D01*
G01*
X205234834Y-47964903D01*
G75*
G02*
X204035097Y-49009834I-1122334J77403D01*
G01*
G37*
%TD*%
D13*
%TO.C,MX11*%
X225742500Y-54768750D03*
X215582500Y-54768750D03*
D28*
X221932500Y-59848750D03*
D15*
X219392500Y-59848750D03*
D16*
X218162500Y-50768750D03*
D11*
X220662500Y-54768750D03*
G36*
G01*
X216101188Y-53066100D02*
X216101183Y-53066095D01*
G75*
G02*
X216015155Y-51477433I751317J837345D01*
G01*
X217325157Y-50017433D01*
G75*
G02*
X218913819Y-49931405I837345J-751317D01*
G01*
X218913819Y-49931405D01*
G75*
G02*
X218999847Y-51520067I-751317J-837345D01*
G01*
X217689845Y-52980067D01*
G75*
G02*
X216101183Y-53066095I-837345J751317D01*
G01*
G37*
D16*
X223202500Y-49688750D03*
G36*
G01*
X223085983Y-51391145D02*
X223085097Y-51391084D01*
G75*
G02*
X222040166Y-50191347I77403J1122334D01*
G01*
X222080166Y-49611347D01*
G75*
G02*
X223279903Y-48566416I1122334J-77403D01*
G01*
X223279903Y-48566416D01*
G75*
G02*
X224324834Y-49766153I-77403J-1122334D01*
G01*
X224284834Y-50346153D01*
G75*
G02*
X223085097Y-51391084I-1122334J77403D01*
G01*
G37*
%TD*%
D13*
%TO.C,MX10*%
X51911250Y-36512500D03*
X41751250Y-36512500D03*
D28*
X48101250Y-41592500D03*
D15*
X45561250Y-41592500D03*
D16*
X44331250Y-32512500D03*
D11*
X46831250Y-36512500D03*
G36*
G01*
X42269938Y-34809850D02*
X42269933Y-34809845D01*
G75*
G02*
X42183905Y-33221183I751317J837345D01*
G01*
X43493907Y-31761183D01*
G75*
G02*
X45082569Y-31675155I837345J-751317D01*
G01*
X45082569Y-31675155D01*
G75*
G02*
X45168597Y-33263817I-751317J-837345D01*
G01*
X43858595Y-34723817D01*
G75*
G02*
X42269933Y-34809845I-837345J751317D01*
G01*
G37*
D16*
X49371250Y-31432500D03*
G36*
G01*
X49254733Y-33134895D02*
X49253847Y-33134834D01*
G75*
G02*
X48208916Y-31935097I77403J1122334D01*
G01*
X48248916Y-31355097D01*
G75*
G02*
X49448653Y-30310166I1122334J-77403D01*
G01*
X49448653Y-30310166D01*
G75*
G02*
X50493584Y-31509903I-77403J-1122334D01*
G01*
X50453584Y-32089903D01*
G75*
G02*
X49253847Y-33134834I-1122334J77403D01*
G01*
G37*
%TD*%
D13*
%TO.C,MX9*%
X70961250Y-36512500D03*
X60801250Y-36512500D03*
D28*
X67151250Y-41592500D03*
D15*
X64611250Y-41592500D03*
D16*
X63381250Y-32512500D03*
D11*
X65881250Y-36512500D03*
G36*
G01*
X61319938Y-34809850D02*
X61319933Y-34809845D01*
G75*
G02*
X61233905Y-33221183I751317J837345D01*
G01*
X62543907Y-31761183D01*
G75*
G02*
X64132569Y-31675155I837345J-751317D01*
G01*
X64132569Y-31675155D01*
G75*
G02*
X64218597Y-33263817I-751317J-837345D01*
G01*
X62908595Y-34723817D01*
G75*
G02*
X61319933Y-34809845I-837345J751317D01*
G01*
G37*
D16*
X68421250Y-31432500D03*
G36*
G01*
X68304733Y-33134895D02*
X68303847Y-33134834D01*
G75*
G02*
X67258916Y-31935097I77403J1122334D01*
G01*
X67298916Y-31355097D01*
G75*
G02*
X68498653Y-30310166I1122334J-77403D01*
G01*
X68498653Y-30310166D01*
G75*
G02*
X69543584Y-31509903I-77403J-1122334D01*
G01*
X69503584Y-32089903D01*
G75*
G02*
X68303847Y-33134834I-1122334J77403D01*
G01*
G37*
%TD*%
D13*
%TO.C,MX8*%
X90011250Y-36512500D03*
X79851250Y-36512500D03*
D28*
X86201250Y-41592500D03*
D15*
X83661250Y-41592500D03*
D16*
X82431250Y-32512500D03*
D11*
X84931250Y-36512500D03*
G36*
G01*
X80369938Y-34809850D02*
X80369933Y-34809845D01*
G75*
G02*
X80283905Y-33221183I751317J837345D01*
G01*
X81593907Y-31761183D01*
G75*
G02*
X83182569Y-31675155I837345J-751317D01*
G01*
X83182569Y-31675155D01*
G75*
G02*
X83268597Y-33263817I-751317J-837345D01*
G01*
X81958595Y-34723817D01*
G75*
G02*
X80369933Y-34809845I-837345J751317D01*
G01*
G37*
D16*
X87471250Y-31432500D03*
G36*
G01*
X87354733Y-33134895D02*
X87353847Y-33134834D01*
G75*
G02*
X86308916Y-31935097I77403J1122334D01*
G01*
X86348916Y-31355097D01*
G75*
G02*
X87548653Y-30310166I1122334J-77403D01*
G01*
X87548653Y-30310166D01*
G75*
G02*
X88593584Y-31509903I-77403J-1122334D01*
G01*
X88553584Y-32089903D01*
G75*
G02*
X87353847Y-33134834I-1122334J77403D01*
G01*
G37*
%TD*%
D13*
%TO.C,MX7*%
X109061250Y-36512500D03*
X98901250Y-36512500D03*
D28*
X105251250Y-41592500D03*
D15*
X102711250Y-41592500D03*
D16*
X101481250Y-32512500D03*
D11*
X103981250Y-36512500D03*
G36*
G01*
X99419938Y-34809850D02*
X99419933Y-34809845D01*
G75*
G02*
X99333905Y-33221183I751317J837345D01*
G01*
X100643907Y-31761183D01*
G75*
G02*
X102232569Y-31675155I837345J-751317D01*
G01*
X102232569Y-31675155D01*
G75*
G02*
X102318597Y-33263817I-751317J-837345D01*
G01*
X101008595Y-34723817D01*
G75*
G02*
X99419933Y-34809845I-837345J751317D01*
G01*
G37*
D16*
X106521250Y-31432500D03*
G36*
G01*
X106404733Y-33134895D02*
X106403847Y-33134834D01*
G75*
G02*
X105358916Y-31935097I77403J1122334D01*
G01*
X105398916Y-31355097D01*
G75*
G02*
X106598653Y-30310166I1122334J-77403D01*
G01*
X106598653Y-30310166D01*
G75*
G02*
X107643584Y-31509903I-77403J-1122334D01*
G01*
X107603584Y-32089903D01*
G75*
G02*
X106403847Y-33134834I-1122334J77403D01*
G01*
G37*
%TD*%
D13*
%TO.C,MX6*%
X130492500Y-36512500D03*
X120332500Y-36512500D03*
D28*
X126682500Y-41592500D03*
D15*
X124142500Y-41592500D03*
D16*
X122912500Y-32512500D03*
D11*
X125412500Y-36512500D03*
G36*
G01*
X120851188Y-34809850D02*
X120851183Y-34809845D01*
G75*
G02*
X120765155Y-33221183I751317J837345D01*
G01*
X122075157Y-31761183D01*
G75*
G02*
X123663819Y-31675155I837345J-751317D01*
G01*
X123663819Y-31675155D01*
G75*
G02*
X123749847Y-33263817I-751317J-837345D01*
G01*
X122439845Y-34723817D01*
G75*
G02*
X120851183Y-34809845I-837345J751317D01*
G01*
G37*
D16*
X127952500Y-31432500D03*
G36*
G01*
X127835983Y-33134895D02*
X127835097Y-33134834D01*
G75*
G02*
X126790166Y-31935097I77403J1122334D01*
G01*
X126830166Y-31355097D01*
G75*
G02*
X128029903Y-30310166I1122334J-77403D01*
G01*
X128029903Y-30310166D01*
G75*
G02*
X129074834Y-31509903I-77403J-1122334D01*
G01*
X129034834Y-32089903D01*
G75*
G02*
X127835097Y-33134834I-1122334J77403D01*
G01*
G37*
%TD*%
D13*
%TO.C,MX5*%
X149542500Y-36512500D03*
X139382500Y-36512500D03*
D28*
X145732500Y-41592500D03*
D15*
X143192500Y-41592500D03*
D16*
X141962500Y-32512500D03*
D11*
X144462500Y-36512500D03*
G36*
G01*
X139901188Y-34809850D02*
X139901183Y-34809845D01*
G75*
G02*
X139815155Y-33221183I751317J837345D01*
G01*
X141125157Y-31761183D01*
G75*
G02*
X142713819Y-31675155I837345J-751317D01*
G01*
X142713819Y-31675155D01*
G75*
G02*
X142799847Y-33263817I-751317J-837345D01*
G01*
X141489845Y-34723817D01*
G75*
G02*
X139901183Y-34809845I-837345J751317D01*
G01*
G37*
D16*
X147002500Y-31432500D03*
G36*
G01*
X146885983Y-33134895D02*
X146885097Y-33134834D01*
G75*
G02*
X145840166Y-31935097I77403J1122334D01*
G01*
X145880166Y-31355097D01*
G75*
G02*
X147079903Y-30310166I1122334J-77403D01*
G01*
X147079903Y-30310166D01*
G75*
G02*
X148124834Y-31509903I-77403J-1122334D01*
G01*
X148084834Y-32089903D01*
G75*
G02*
X146885097Y-33134834I-1122334J77403D01*
G01*
G37*
%TD*%
D13*
%TO.C,MX4*%
X168592500Y-33337500D03*
X158432500Y-33337500D03*
D28*
X164782500Y-38417500D03*
D15*
X162242500Y-38417500D03*
D16*
X161012500Y-29337500D03*
D11*
X163512500Y-33337500D03*
G36*
G01*
X158951188Y-31634850D02*
X158951183Y-31634845D01*
G75*
G02*
X158865155Y-30046183I751317J837345D01*
G01*
X160175157Y-28586183D01*
G75*
G02*
X161763819Y-28500155I837345J-751317D01*
G01*
X161763819Y-28500155D01*
G75*
G02*
X161849847Y-30088817I-751317J-837345D01*
G01*
X160539845Y-31548817D01*
G75*
G02*
X158951183Y-31634845I-837345J751317D01*
G01*
G37*
D16*
X166052500Y-28257500D03*
G36*
G01*
X165935983Y-29959895D02*
X165935097Y-29959834D01*
G75*
G02*
X164890166Y-28760097I77403J1122334D01*
G01*
X164930166Y-28180097D01*
G75*
G02*
X166129903Y-27135166I1122334J-77403D01*
G01*
X166129903Y-27135166D01*
G75*
G02*
X167174834Y-28334903I-77403J-1122334D01*
G01*
X167134834Y-28914903D01*
G75*
G02*
X165935097Y-29959834I-1122334J77403D01*
G01*
G37*
%TD*%
D13*
%TO.C,MX3*%
X187642500Y-30956250D03*
X177482500Y-30956250D03*
D28*
X183832500Y-36036250D03*
D15*
X181292500Y-36036250D03*
D16*
X180062500Y-26956250D03*
D11*
X182562500Y-30956250D03*
G36*
G01*
X178001188Y-29253600D02*
X178001183Y-29253595D01*
G75*
G02*
X177915155Y-27664933I751317J837345D01*
G01*
X179225157Y-26204933D01*
G75*
G02*
X180813819Y-26118905I837345J-751317D01*
G01*
X180813819Y-26118905D01*
G75*
G02*
X180899847Y-27707567I-751317J-837345D01*
G01*
X179589845Y-29167567D01*
G75*
G02*
X178001183Y-29253595I-837345J751317D01*
G01*
G37*
D16*
X185102500Y-25876250D03*
G36*
G01*
X184985983Y-27578645D02*
X184985097Y-27578584D01*
G75*
G02*
X183940166Y-26378847I77403J1122334D01*
G01*
X183980166Y-25798847D01*
G75*
G02*
X185179903Y-24753916I1122334J-77403D01*
G01*
X185179903Y-24753916D01*
G75*
G02*
X186224834Y-25953653I-77403J-1122334D01*
G01*
X186184834Y-26533653D01*
G75*
G02*
X184985097Y-27578584I-1122334J77403D01*
G01*
G37*
%TD*%
D13*
%TO.C,MX2*%
X206692500Y-33337500D03*
X196532500Y-33337500D03*
D28*
X202882500Y-38417500D03*
D15*
X200342500Y-38417500D03*
D16*
X199112500Y-29337500D03*
D11*
X201612500Y-33337500D03*
G36*
G01*
X197051188Y-31634850D02*
X197051183Y-31634845D01*
G75*
G02*
X196965155Y-30046183I751317J837345D01*
G01*
X198275157Y-28586183D01*
G75*
G02*
X199863819Y-28500155I837345J-751317D01*
G01*
X199863819Y-28500155D01*
G75*
G02*
X199949847Y-30088817I-751317J-837345D01*
G01*
X198639845Y-31548817D01*
G75*
G02*
X197051183Y-31634845I-837345J751317D01*
G01*
G37*
D16*
X204152500Y-28257500D03*
G36*
G01*
X204035983Y-29959895D02*
X204035097Y-29959834D01*
G75*
G02*
X202990166Y-28760097I77403J1122334D01*
G01*
X203030166Y-28180097D01*
G75*
G02*
X204229903Y-27135166I1122334J-77403D01*
G01*
X204229903Y-27135166D01*
G75*
G02*
X205274834Y-28334903I-77403J-1122334D01*
G01*
X205234834Y-28914903D01*
G75*
G02*
X204035097Y-29959834I-1122334J77403D01*
G01*
G37*
%TD*%
D13*
%TO.C,MX1*%
X225742500Y-35718750D03*
X215582500Y-35718750D03*
D28*
X221932500Y-40798750D03*
D15*
X219392500Y-40798750D03*
D16*
X218162500Y-31718750D03*
D11*
X220662500Y-35718750D03*
G36*
G01*
X216101188Y-34016100D02*
X216101183Y-34016095D01*
G75*
G02*
X216015155Y-32427433I751317J837345D01*
G01*
X217325157Y-30967433D01*
G75*
G02*
X218913819Y-30881405I837345J-751317D01*
G01*
X218913819Y-30881405D01*
G75*
G02*
X218999847Y-32470067I-751317J-837345D01*
G01*
X217689845Y-33930067D01*
G75*
G02*
X216101183Y-34016095I-837345J751317D01*
G01*
G37*
D16*
X223202500Y-30638750D03*
G36*
G01*
X223085983Y-32341145D02*
X223085097Y-32341084D01*
G75*
G02*
X222040166Y-31141347I77403J1122334D01*
G01*
X222080166Y-30561347D01*
G75*
G02*
X223279903Y-29516416I1122334J-77403D01*
G01*
X223279903Y-29516416D01*
G75*
G02*
X224324834Y-30716153I-77403J-1122334D01*
G01*
X224284834Y-31296153D01*
G75*
G02*
X223085097Y-32341084I-1122334J77403D01*
G01*
G37*
%TD*%
M02*
