%TF.GenerationSoftware,KiCad,Pcbnew,(5.1.9-0-10_14)*%
%TF.CreationDate,2021-04-26T22:25:58-05:00*%
%TF.ProjectId,wren-universal,7772656e-2d75-46e6-9976-657273616c2e,rev?*%
%TF.SameCoordinates,Original*%
%TF.FileFunction,Paste,Bot*%
%TF.FilePolarity,Positive*%
%FSLAX46Y46*%
G04 Gerber Fmt 4.6, Leading zero omitted, Abs format (unit mm)*
G04 Created by KiCad (PCBNEW (5.1.9-0-10_14)) date 2021-04-26 22:25:58*
%MOMM*%
%LPD*%
G01*
G04 APERTURE LIST*
%ADD10R,1.200000X1.200000*%
%ADD11C,0.100000*%
G04 APERTURE END LIST*
D10*
%TO.C,D43*%
X191300000Y-114300000D03*
X194450000Y-114300000D03*
%TD*%
%TO.C,D45*%
X155867000Y-105822750D03*
X159017000Y-105822750D03*
%TD*%
%TO.C,D44*%
X172250000Y-114300000D03*
X175400000Y-114300000D03*
%TD*%
%TO.C,D42*%
X210350000Y-116681250D03*
X213500000Y-116681250D03*
%TD*%
D11*
%TO.C,D41*%
G36*
X243100115Y-114102355D02*
G01*
X242060885Y-113502355D01*
X242660885Y-112463125D01*
X243700115Y-113063125D01*
X243100115Y-114102355D01*
G37*
G36*
X244675115Y-111374375D02*
G01*
X243635885Y-110774375D01*
X244235885Y-109735145D01*
X245275115Y-110335145D01*
X244675115Y-111374375D01*
G37*
%TD*%
D10*
%TO.C,D40*%
X45250000Y-98425000D03*
X48400000Y-98425000D03*
%TD*%
%TO.C,D39*%
X64300000Y-98425000D03*
X67450000Y-98425000D03*
%TD*%
%TO.C,D38*%
X83350000Y-98425000D03*
X86500000Y-98425000D03*
%TD*%
%TO.C,D37*%
X102400000Y-98425000D03*
X105550000Y-98425000D03*
%TD*%
%TO.C,D36*%
X123831250Y-98425000D03*
X126981250Y-98425000D03*
%TD*%
%TO.C,D35*%
X142881250Y-98425000D03*
X146031250Y-98425000D03*
%TD*%
%TO.C,D34*%
X161931250Y-92075000D03*
X165081250Y-92075000D03*
%TD*%
%TO.C,D33*%
X180981250Y-89693750D03*
X184131250Y-89693750D03*
%TD*%
%TO.C,D32*%
X200031250Y-92075000D03*
X203181250Y-92075000D03*
%TD*%
%TO.C,D31*%
X219081250Y-94456250D03*
X222231250Y-94456250D03*
%TD*%
%TO.C,D30*%
X45250000Y-79375000D03*
X48400000Y-79375000D03*
%TD*%
%TO.C,D29*%
X64300000Y-79375000D03*
X67450000Y-79375000D03*
%TD*%
%TO.C,D28*%
X83350000Y-79375000D03*
X86500000Y-79375000D03*
%TD*%
%TO.C,D27*%
X102400000Y-79375000D03*
X105550000Y-79375000D03*
%TD*%
%TO.C,D26*%
X123831250Y-79375000D03*
X126981250Y-79375000D03*
%TD*%
%TO.C,D25*%
X142881250Y-79375000D03*
X146031250Y-79375000D03*
%TD*%
%TO.C,D24*%
X161931250Y-73025000D03*
X165081250Y-73025000D03*
%TD*%
%TO.C,D23*%
X180981250Y-70643750D03*
X184131250Y-70643750D03*
%TD*%
%TO.C,D22*%
X200031250Y-73025000D03*
X203181250Y-73025000D03*
%TD*%
%TO.C,D21*%
X219081250Y-75406250D03*
X222231250Y-75406250D03*
%TD*%
%TO.C,D20*%
X45250000Y-60325000D03*
X48400000Y-60325000D03*
%TD*%
%TO.C,D19*%
X64300000Y-60325000D03*
X67450000Y-60325000D03*
%TD*%
%TO.C,D18*%
X83350000Y-60325000D03*
X86500000Y-60325000D03*
%TD*%
%TO.C,D17*%
X102273000Y-60325000D03*
X105423000Y-60325000D03*
%TD*%
%TO.C,D16*%
X123831250Y-60325000D03*
X126981250Y-60325000D03*
%TD*%
%TO.C,D15*%
X142881250Y-60325000D03*
X146031250Y-60325000D03*
%TD*%
%TO.C,D14*%
X161931250Y-53975000D03*
X165081250Y-53975000D03*
%TD*%
%TO.C,D13*%
X180981250Y-51593750D03*
X184131250Y-51593750D03*
%TD*%
%TO.C,D12*%
X200031250Y-53975000D03*
X203181250Y-53975000D03*
%TD*%
%TO.C,D11*%
X219081250Y-56356250D03*
X222231250Y-56356250D03*
%TD*%
%TO.C,D10*%
X45250000Y-41275000D03*
X48400000Y-41275000D03*
%TD*%
%TO.C,D9*%
X64300000Y-41275000D03*
X67450000Y-41275000D03*
%TD*%
%TO.C,D8*%
X83350000Y-41275000D03*
X86500000Y-41275000D03*
%TD*%
%TO.C,D7*%
X102400000Y-41275000D03*
X105550000Y-41275000D03*
%TD*%
%TO.C,D6*%
X123831250Y-41275000D03*
X126981250Y-41275000D03*
%TD*%
%TO.C,D5*%
X142881250Y-41275000D03*
X146031250Y-41275000D03*
%TD*%
%TO.C,D4*%
X161931250Y-34925000D03*
X165081250Y-34925000D03*
%TD*%
%TO.C,D3*%
X180981250Y-32543750D03*
X184131250Y-32543750D03*
%TD*%
%TO.C,D2*%
X200031250Y-34925000D03*
X203181250Y-34925000D03*
%TD*%
%TO.C,D1*%
X219081250Y-37306250D03*
X222231250Y-37306250D03*
%TD*%
M02*
