%TF.GenerationSoftware,KiCad,Pcbnew,(5.1.9-0-10_14)*%
%TF.CreationDate,2021-04-26T22:25:58-05:00*%
%TF.ProjectId,wren-universal,7772656e-2d75-46e6-9976-657273616c2e,rev?*%
%TF.SameCoordinates,Original*%
%TF.FileFunction,Legend,Bot*%
%TF.FilePolarity,Positive*%
%FSLAX46Y46*%
G04 Gerber Fmt 4.6, Leading zero omitted, Abs format (unit mm)*
G04 Created by KiCad (PCBNEW (5.1.9-0-10_14)) date 2021-04-26 22:25:58*
%MOMM*%
%LPD*%
G01*
G04 APERTURE LIST*
%ADD10C,0.150000*%
%ADD11C,0.010000*%
%ADD12C,0.381000*%
%ADD13C,0.200000*%
%ADD14C,0.120000*%
G04 APERTURE END LIST*
D10*
%TO.C,J1*%
X250437750Y-93027500D02*
X255720505Y-96077500D01*
X255720505Y-96077500D02*
X261770505Y-85598593D01*
X261770505Y-85598593D02*
X261553999Y-85473593D01*
X261553999Y-85473593D02*
X262553999Y-83741542D01*
X262510697Y-83716542D02*
X257704256Y-80941542D01*
X250437750Y-93027500D02*
X256487750Y-82548593D01*
X256487750Y-82548593D02*
X256704256Y-82673593D01*
X256704256Y-82673593D02*
X257704256Y-80941542D01*
%TO.C,MX39*%
X58881250Y-86662500D02*
X59881250Y-86662500D01*
X71881250Y-86662500D02*
X72881250Y-86662500D01*
X72881250Y-86662500D02*
X72881250Y-87662500D01*
X72881250Y-100662500D02*
X71881250Y-100662500D01*
X72881250Y-99662500D02*
X72881250Y-100662500D01*
X59881250Y-100662500D02*
X58881250Y-100662500D01*
X58881250Y-100662500D02*
X58881250Y-99662500D01*
X58881250Y-87662500D02*
X58881250Y-86662500D01*
%TO.C,MX36*%
X118412500Y-86662500D02*
X119412500Y-86662500D01*
X131412500Y-86662500D02*
X132412500Y-86662500D01*
X132412500Y-86662500D02*
X132412500Y-87662500D01*
X132412500Y-100662500D02*
X131412500Y-100662500D01*
X132412500Y-99662500D02*
X132412500Y-100662500D01*
X119412500Y-100662500D02*
X118412500Y-100662500D01*
X118412500Y-100662500D02*
X118412500Y-99662500D01*
X118412500Y-87662500D02*
X118412500Y-86662500D01*
D11*
%TO.C,FID2*%
G36*
X239403297Y-70714347D02*
G01*
X239344127Y-70733749D01*
X239218594Y-70824822D01*
X239151241Y-70954498D01*
X239143114Y-71099163D01*
X239195256Y-71235208D01*
X239308713Y-71339022D01*
X239317155Y-71343536D01*
X239420848Y-71391649D01*
X239494069Y-71398916D01*
X239579857Y-71366487D01*
X239610166Y-71351374D01*
X239733205Y-71253094D01*
X239793068Y-71128654D01*
X239797141Y-70995206D01*
X239752813Y-70869900D01*
X239667471Y-70769888D01*
X239548503Y-70712320D01*
X239403297Y-70714347D01*
G37*
X239403297Y-70714347D02*
X239344127Y-70733749D01*
X239218594Y-70824822D01*
X239151241Y-70954498D01*
X239143114Y-71099163D01*
X239195256Y-71235208D01*
X239308713Y-71339022D01*
X239317155Y-71343536D01*
X239420848Y-71391649D01*
X239494069Y-71398916D01*
X239579857Y-71366487D01*
X239610166Y-71351374D01*
X239733205Y-71253094D01*
X239793068Y-71128654D01*
X239797141Y-70995206D01*
X239752813Y-70869900D01*
X239667471Y-70769888D01*
X239548503Y-70712320D01*
X239403297Y-70714347D01*
G36*
X243042689Y-69379606D02*
G01*
X242985826Y-69382175D01*
X242844145Y-69390166D01*
X242729686Y-69402675D01*
X242624718Y-69425624D01*
X242511514Y-69464939D01*
X242372344Y-69526542D01*
X242189478Y-69616357D01*
X242004825Y-69709951D01*
X241395732Y-70019946D01*
X240898871Y-69906646D01*
X240459153Y-69824023D01*
X240073717Y-69792887D01*
X239727879Y-69815616D01*
X239406953Y-69894586D01*
X239096254Y-70032176D01*
X238781096Y-70230762D01*
X238747683Y-70254859D01*
X238528706Y-70460457D01*
X238326692Y-70742895D01*
X238145319Y-71095394D01*
X237988270Y-71511175D01*
X237899967Y-71816049D01*
X237839620Y-72105211D01*
X237786990Y-72474770D01*
X237742448Y-72920779D01*
X237706366Y-73439286D01*
X237679114Y-74026344D01*
X237671886Y-74242183D01*
X237661245Y-74581306D01*
X237651622Y-74847400D01*
X237641803Y-75052077D01*
X237630571Y-75206945D01*
X237616712Y-75323614D01*
X237599010Y-75413694D01*
X237576250Y-75488794D01*
X237547218Y-75560525D01*
X237529869Y-75598974D01*
X237441574Y-75758656D01*
X237321785Y-75934726D01*
X237219348Y-76062212D01*
X237055090Y-76263557D01*
X236945123Y-76446970D01*
X236879996Y-76638692D01*
X236850255Y-76864965D01*
X236845691Y-77099583D01*
X236867355Y-77473817D01*
X236921689Y-77844976D01*
X237003969Y-78193612D01*
X237109473Y-78500281D01*
X237233479Y-78745535D01*
X237252489Y-78774513D01*
X237387996Y-78940875D01*
X237531747Y-79037445D01*
X237709462Y-79077273D01*
X237852669Y-79079020D01*
X238119687Y-79068791D01*
X238420215Y-79445144D01*
X238555210Y-79609430D01*
X238685434Y-79759614D01*
X238793909Y-79876549D01*
X238851620Y-79931624D01*
X238982497Y-80041750D01*
X238778165Y-80041677D01*
X238672591Y-80038720D01*
X238491794Y-80030285D01*
X238245000Y-80016958D01*
X237941436Y-79999325D01*
X237590326Y-79977970D01*
X237200898Y-79953480D01*
X236782378Y-79926440D01*
X236343992Y-79897435D01*
X235894966Y-79867050D01*
X235444525Y-79835872D01*
X235001897Y-79804486D01*
X234730013Y-79784782D01*
X234415276Y-79762704D01*
X234126438Y-79744239D01*
X233874730Y-79729963D01*
X233671382Y-79720450D01*
X233527626Y-79716276D01*
X233454692Y-79718017D01*
X233449429Y-79719186D01*
X233403419Y-79775162D01*
X233389245Y-79867476D01*
X233409357Y-79953068D01*
X233434553Y-79980857D01*
X233488143Y-79991156D01*
X233618486Y-80006055D01*
X233817828Y-80024971D01*
X234078414Y-80047321D01*
X234392490Y-80072522D01*
X234752301Y-80099991D01*
X235150092Y-80129145D01*
X235578110Y-80159401D01*
X236028600Y-80190176D01*
X236493807Y-80220887D01*
X236965976Y-80250952D01*
X237303834Y-80271745D01*
X237618028Y-80291088D01*
X237919898Y-80310227D01*
X238194276Y-80328157D01*
X238425996Y-80343875D01*
X238599889Y-80356376D01*
X238684034Y-80363108D01*
X238963567Y-80387760D01*
X238901720Y-80564005D01*
X238867998Y-80715754D01*
X238848322Y-80918183D01*
X238843409Y-81138363D01*
X238853976Y-81343365D01*
X238880737Y-81500257D01*
X238881316Y-81502250D01*
X238924440Y-81594443D01*
X238998631Y-81627167D01*
X239042546Y-81629250D01*
X239166500Y-81629250D01*
X239166716Y-81163583D01*
X239177371Y-80866224D01*
X239208265Y-80636944D01*
X239258247Y-80479768D01*
X239326165Y-80398717D01*
X239387952Y-80390256D01*
X239443698Y-80431488D01*
X239447768Y-80467597D01*
X239438042Y-80536909D01*
X239425834Y-80665671D01*
X239413457Y-80828805D01*
X239410913Y-80867250D01*
X239402344Y-81043040D01*
X239406464Y-81158095D01*
X239426716Y-81235838D01*
X239466542Y-81299694D01*
X239476243Y-81311750D01*
X239547213Y-81381306D01*
X239607011Y-81387180D01*
X239640098Y-81370673D01*
X239680496Y-81330520D01*
X239705291Y-81258148D01*
X239718604Y-81134770D01*
X239723698Y-80989673D01*
X239732956Y-80812236D01*
X239751039Y-80653007D01*
X239774262Y-80543190D01*
X239777457Y-80534195D01*
X239824352Y-80412807D01*
X240215093Y-80440006D01*
X240327549Y-80446763D01*
X240507897Y-80456301D01*
X240744156Y-80468082D01*
X241024349Y-80481569D01*
X241336495Y-80496223D01*
X241668615Y-80511505D01*
X242008729Y-80526879D01*
X242344858Y-80541806D01*
X242665024Y-80555747D01*
X242957245Y-80568165D01*
X243209544Y-80578522D01*
X243409940Y-80586280D01*
X243546454Y-80590901D01*
X243598757Y-80591983D01*
X243642159Y-80599471D01*
X243647183Y-80636461D01*
X243615098Y-80725007D01*
X243607477Y-80743350D01*
X243570017Y-80881777D01*
X243553590Y-81048856D01*
X243557012Y-81219594D01*
X243579097Y-81369002D01*
X243618660Y-81472087D01*
X243643250Y-81497614D01*
X243736629Y-81528941D01*
X243803112Y-81486280D01*
X243844388Y-81367046D01*
X243862149Y-81168651D01*
X243862316Y-81162285D01*
X243885769Y-80913164D01*
X243940819Y-80732327D01*
X244025504Y-80624024D01*
X244125117Y-80592083D01*
X244201304Y-80602895D01*
X244210436Y-80645501D01*
X244202745Y-80666166D01*
X244122310Y-80910287D01*
X244079855Y-81163580D01*
X244076189Y-81403761D01*
X244112120Y-81608547D01*
X244164325Y-81723659D01*
X244227625Y-81801583D01*
X244287765Y-81811523D01*
X244351323Y-81778937D01*
X244382875Y-81736873D01*
X244402578Y-81649466D01*
X244412520Y-81502472D01*
X244414823Y-81345668D01*
X244423064Y-81098858D01*
X244447908Y-80917675D01*
X244488870Y-80790502D01*
X244561906Y-80629089D01*
X245970537Y-80663502D01*
X246359748Y-80672304D01*
X246767790Y-80680274D01*
X247174872Y-80687113D01*
X247561203Y-80692522D01*
X247906992Y-80696203D01*
X248192449Y-80697855D01*
X248247000Y-80697916D01*
X249114834Y-80697916D01*
X249128252Y-80581259D01*
X249119591Y-80483618D01*
X249084766Y-80442765D01*
X249029824Y-80436488D01*
X248900844Y-80428961D01*
X248708438Y-80420583D01*
X248463220Y-80411752D01*
X248175802Y-80402864D01*
X247856795Y-80394319D01*
X247679587Y-80390089D01*
X246331313Y-80359250D01*
X246338924Y-79884775D01*
X246336698Y-79838861D01*
X246030361Y-79838861D01*
X246020756Y-80058633D01*
X245993475Y-80350684D01*
X245077655Y-80322671D01*
X244769593Y-80312910D01*
X244402086Y-80300719D01*
X244000291Y-80286967D01*
X243589364Y-80272521D01*
X243194463Y-80258250D01*
X242976500Y-80250163D01*
X242588048Y-80234990D01*
X242154678Y-80217067D01*
X241705255Y-80197653D01*
X241268638Y-80178006D01*
X240873691Y-80159387D01*
X240704759Y-80151051D01*
X240372695Y-80134077D01*
X240113774Y-80119601D01*
X239916569Y-80106122D01*
X239769648Y-80092139D01*
X239661586Y-80076153D01*
X239580951Y-80056661D01*
X239516316Y-80032164D01*
X239456251Y-80001161D01*
X239424734Y-79982969D01*
X239196584Y-79818504D01*
X238951814Y-79586933D01*
X238701696Y-79301087D01*
X238457501Y-78973800D01*
X238319986Y-78758998D01*
X237917667Y-78758998D01*
X237880490Y-78767426D01*
X237788553Y-78765640D01*
X237763123Y-78763722D01*
X237611477Y-78719413D01*
X237530436Y-78644750D01*
X237436443Y-78476434D01*
X237350621Y-78247132D01*
X237276161Y-77976125D01*
X237216253Y-77682693D01*
X237174087Y-77386118D01*
X237152853Y-77105679D01*
X237155743Y-76860658D01*
X237185945Y-76670334D01*
X237197803Y-76634435D01*
X237244301Y-76544844D01*
X237318282Y-76433172D01*
X237402522Y-76321912D01*
X237479796Y-76233555D01*
X237532880Y-76190593D01*
X237538606Y-76189416D01*
X237558787Y-76227974D01*
X237584605Y-76329903D01*
X237611009Y-76474585D01*
X237615152Y-76501683D01*
X237637827Y-76693275D01*
X237637754Y-76840675D01*
X237613738Y-76981567D01*
X237598030Y-77041433D01*
X237536820Y-77293458D01*
X237509759Y-77510328D01*
X237519438Y-77714462D01*
X237568446Y-77928278D01*
X237659371Y-78174197D01*
X237753313Y-78386026D01*
X237825126Y-78542995D01*
X237881024Y-78668614D01*
X237913067Y-78744868D01*
X237917667Y-78758998D01*
X238319986Y-78758998D01*
X238240172Y-78634327D01*
X238062728Y-78318028D01*
X237937270Y-78051592D01*
X237860474Y-77820779D01*
X237829011Y-77611353D01*
X237839557Y-77409073D01*
X237888784Y-77199703D01*
X237898149Y-77170313D01*
X237947913Y-76902129D01*
X237941762Y-76579225D01*
X237880036Y-76210150D01*
X237855848Y-76111235D01*
X237821513Y-75967932D01*
X237809685Y-75862595D01*
X237821825Y-75759916D01*
X237859392Y-75624588D01*
X237878478Y-75564045D01*
X237906084Y-75469060D01*
X237928355Y-75368647D01*
X237946278Y-75251089D01*
X237960843Y-75104668D01*
X237973039Y-74917667D01*
X237983855Y-74678367D01*
X237994280Y-74375053D01*
X238002567Y-74093916D01*
X238020115Y-73587549D01*
X238042851Y-73153147D01*
X238072203Y-72778089D01*
X238109604Y-72449758D01*
X238156481Y-72155533D01*
X238214266Y-71882796D01*
X238282173Y-71626556D01*
X238426200Y-71219197D01*
X238603876Y-70883950D01*
X238821396Y-70612835D01*
X239084952Y-70397872D01*
X239347128Y-70254552D01*
X239586411Y-70163404D01*
X239825623Y-70112054D01*
X240082630Y-70100006D01*
X240375297Y-70126766D01*
X240721491Y-70191838D01*
X240817500Y-70213800D01*
X241045743Y-70265660D01*
X241266277Y-70312556D01*
X241454708Y-70349498D01*
X241586641Y-70371497D01*
X241591721Y-70372167D01*
X241713432Y-70392541D01*
X241789352Y-70414320D01*
X241803145Y-70427171D01*
X241778253Y-70475803D01*
X241726015Y-70576124D01*
X241668408Y-70686083D01*
X241510949Y-71037501D01*
X241384179Y-71424794D01*
X241291251Y-71828658D01*
X241235321Y-72229790D01*
X241219543Y-72608888D01*
X241247072Y-72946648D01*
X241276108Y-73086549D01*
X241334808Y-73245778D01*
X241417722Y-73395981D01*
X241456024Y-73446841D01*
X241501851Y-73498449D01*
X241550849Y-73549221D01*
X241611639Y-73606443D01*
X241692847Y-73677404D01*
X241803095Y-73769389D01*
X241951007Y-73889687D01*
X242145206Y-74045585D01*
X242394316Y-74244370D01*
X242489667Y-74320324D01*
X242746813Y-74532274D01*
X243038940Y-74785020D01*
X243350122Y-75063792D01*
X243664432Y-75353820D01*
X243965940Y-75640333D01*
X244238721Y-75908562D01*
X244466846Y-76143735D01*
X244532375Y-76214605D01*
X244923891Y-76682595D01*
X245246754Y-77154708D01*
X245515087Y-77652870D01*
X245639660Y-77934081D01*
X245705674Y-78095737D01*
X245757214Y-78226103D01*
X245787082Y-78306758D01*
X245791667Y-78323156D01*
X245760782Y-78309747D01*
X245678471Y-78255033D01*
X245560254Y-78169545D01*
X245512568Y-78133773D01*
X245232050Y-77937812D01*
X244975692Y-77797579D01*
X244717578Y-77700535D01*
X244511526Y-77649424D01*
X244057540Y-77518443D01*
X243615789Y-77318932D01*
X243201991Y-77061275D01*
X242831867Y-76755856D01*
X242521134Y-76413062D01*
X242414536Y-76264100D01*
X242310365Y-76144730D01*
X242211714Y-76108343D01*
X242120367Y-76155477D01*
X242105972Y-76171496D01*
X242081561Y-76245679D01*
X242111224Y-76350175D01*
X242198182Y-76490005D01*
X242345652Y-76670190D01*
X242556855Y-76895751D01*
X242595500Y-76935094D01*
X242950356Y-77258096D01*
X243320825Y-77518702D01*
X243724273Y-77726289D01*
X244178063Y-77890235D01*
X244540388Y-77985297D01*
X244784369Y-78068582D01*
X245047335Y-78204081D01*
X245309491Y-78377161D01*
X245551045Y-78573188D01*
X245752202Y-78777527D01*
X245893168Y-78975543D01*
X245901892Y-78991908D01*
X245954204Y-79140366D01*
X245994926Y-79347820D01*
X246021248Y-79589057D01*
X246030361Y-79838861D01*
X246336698Y-79838861D01*
X246307407Y-79234752D01*
X246192709Y-78594308D01*
X245996073Y-77966601D01*
X245718741Y-77354789D01*
X245361956Y-76762031D01*
X244926960Y-76191486D01*
X244852182Y-76104750D01*
X244609586Y-75841082D01*
X244313989Y-75541149D01*
X243980580Y-75218875D01*
X243624546Y-74888184D01*
X243261075Y-74562999D01*
X242905354Y-74257244D01*
X242572570Y-73984843D01*
X242362667Y-73822413D01*
X242089933Y-73611170D01*
X241882907Y-73435524D01*
X241734118Y-73288496D01*
X241636092Y-73163105D01*
X241610901Y-73120250D01*
X241571277Y-72991662D01*
X241548178Y-72799694D01*
X241541266Y-72563940D01*
X241550205Y-72303990D01*
X241574658Y-72039436D01*
X241614290Y-71789870D01*
X241635394Y-71694177D01*
X241778431Y-71211541D01*
X241956589Y-70803010D01*
X242173624Y-70464047D01*
X242433290Y-70190114D01*
X242739339Y-69976676D01*
X243095527Y-69819194D01*
X243218903Y-69780396D01*
X243401760Y-69711055D01*
X243506346Y-69632303D01*
X243530620Y-69546988D01*
X243472541Y-69457959D01*
X243458503Y-69445992D01*
X243397401Y-69406174D01*
X243322029Y-69383768D01*
X243210941Y-69375877D01*
X243042689Y-69379606D01*
G37*
X243042689Y-69379606D02*
X242985826Y-69382175D01*
X242844145Y-69390166D01*
X242729686Y-69402675D01*
X242624718Y-69425624D01*
X242511514Y-69464939D01*
X242372344Y-69526542D01*
X242189478Y-69616357D01*
X242004825Y-69709951D01*
X241395732Y-70019946D01*
X240898871Y-69906646D01*
X240459153Y-69824023D01*
X240073717Y-69792887D01*
X239727879Y-69815616D01*
X239406953Y-69894586D01*
X239096254Y-70032176D01*
X238781096Y-70230762D01*
X238747683Y-70254859D01*
X238528706Y-70460457D01*
X238326692Y-70742895D01*
X238145319Y-71095394D01*
X237988270Y-71511175D01*
X237899967Y-71816049D01*
X237839620Y-72105211D01*
X237786990Y-72474770D01*
X237742448Y-72920779D01*
X237706366Y-73439286D01*
X237679114Y-74026344D01*
X237671886Y-74242183D01*
X237661245Y-74581306D01*
X237651622Y-74847400D01*
X237641803Y-75052077D01*
X237630571Y-75206945D01*
X237616712Y-75323614D01*
X237599010Y-75413694D01*
X237576250Y-75488794D01*
X237547218Y-75560525D01*
X237529869Y-75598974D01*
X237441574Y-75758656D01*
X237321785Y-75934726D01*
X237219348Y-76062212D01*
X237055090Y-76263557D01*
X236945123Y-76446970D01*
X236879996Y-76638692D01*
X236850255Y-76864965D01*
X236845691Y-77099583D01*
X236867355Y-77473817D01*
X236921689Y-77844976D01*
X237003969Y-78193612D01*
X237109473Y-78500281D01*
X237233479Y-78745535D01*
X237252489Y-78774513D01*
X237387996Y-78940875D01*
X237531747Y-79037445D01*
X237709462Y-79077273D01*
X237852669Y-79079020D01*
X238119687Y-79068791D01*
X238420215Y-79445144D01*
X238555210Y-79609430D01*
X238685434Y-79759614D01*
X238793909Y-79876549D01*
X238851620Y-79931624D01*
X238982497Y-80041750D01*
X238778165Y-80041677D01*
X238672591Y-80038720D01*
X238491794Y-80030285D01*
X238245000Y-80016958D01*
X237941436Y-79999325D01*
X237590326Y-79977970D01*
X237200898Y-79953480D01*
X236782378Y-79926440D01*
X236343992Y-79897435D01*
X235894966Y-79867050D01*
X235444525Y-79835872D01*
X235001897Y-79804486D01*
X234730013Y-79784782D01*
X234415276Y-79762704D01*
X234126438Y-79744239D01*
X233874730Y-79729963D01*
X233671382Y-79720450D01*
X233527626Y-79716276D01*
X233454692Y-79718017D01*
X233449429Y-79719186D01*
X233403419Y-79775162D01*
X233389245Y-79867476D01*
X233409357Y-79953068D01*
X233434553Y-79980857D01*
X233488143Y-79991156D01*
X233618486Y-80006055D01*
X233817828Y-80024971D01*
X234078414Y-80047321D01*
X234392490Y-80072522D01*
X234752301Y-80099991D01*
X235150092Y-80129145D01*
X235578110Y-80159401D01*
X236028600Y-80190176D01*
X236493807Y-80220887D01*
X236965976Y-80250952D01*
X237303834Y-80271745D01*
X237618028Y-80291088D01*
X237919898Y-80310227D01*
X238194276Y-80328157D01*
X238425996Y-80343875D01*
X238599889Y-80356376D01*
X238684034Y-80363108D01*
X238963567Y-80387760D01*
X238901720Y-80564005D01*
X238867998Y-80715754D01*
X238848322Y-80918183D01*
X238843409Y-81138363D01*
X238853976Y-81343365D01*
X238880737Y-81500257D01*
X238881316Y-81502250D01*
X238924440Y-81594443D01*
X238998631Y-81627167D01*
X239042546Y-81629250D01*
X239166500Y-81629250D01*
X239166716Y-81163583D01*
X239177371Y-80866224D01*
X239208265Y-80636944D01*
X239258247Y-80479768D01*
X239326165Y-80398717D01*
X239387952Y-80390256D01*
X239443698Y-80431488D01*
X239447768Y-80467597D01*
X239438042Y-80536909D01*
X239425834Y-80665671D01*
X239413457Y-80828805D01*
X239410913Y-80867250D01*
X239402344Y-81043040D01*
X239406464Y-81158095D01*
X239426716Y-81235838D01*
X239466542Y-81299694D01*
X239476243Y-81311750D01*
X239547213Y-81381306D01*
X239607011Y-81387180D01*
X239640098Y-81370673D01*
X239680496Y-81330520D01*
X239705291Y-81258148D01*
X239718604Y-81134770D01*
X239723698Y-80989673D01*
X239732956Y-80812236D01*
X239751039Y-80653007D01*
X239774262Y-80543190D01*
X239777457Y-80534195D01*
X239824352Y-80412807D01*
X240215093Y-80440006D01*
X240327549Y-80446763D01*
X240507897Y-80456301D01*
X240744156Y-80468082D01*
X241024349Y-80481569D01*
X241336495Y-80496223D01*
X241668615Y-80511505D01*
X242008729Y-80526879D01*
X242344858Y-80541806D01*
X242665024Y-80555747D01*
X242957245Y-80568165D01*
X243209544Y-80578522D01*
X243409940Y-80586280D01*
X243546454Y-80590901D01*
X243598757Y-80591983D01*
X243642159Y-80599471D01*
X243647183Y-80636461D01*
X243615098Y-80725007D01*
X243607477Y-80743350D01*
X243570017Y-80881777D01*
X243553590Y-81048856D01*
X243557012Y-81219594D01*
X243579097Y-81369002D01*
X243618660Y-81472087D01*
X243643250Y-81497614D01*
X243736629Y-81528941D01*
X243803112Y-81486280D01*
X243844388Y-81367046D01*
X243862149Y-81168651D01*
X243862316Y-81162285D01*
X243885769Y-80913164D01*
X243940819Y-80732327D01*
X244025504Y-80624024D01*
X244125117Y-80592083D01*
X244201304Y-80602895D01*
X244210436Y-80645501D01*
X244202745Y-80666166D01*
X244122310Y-80910287D01*
X244079855Y-81163580D01*
X244076189Y-81403761D01*
X244112120Y-81608547D01*
X244164325Y-81723659D01*
X244227625Y-81801583D01*
X244287765Y-81811523D01*
X244351323Y-81778937D01*
X244382875Y-81736873D01*
X244402578Y-81649466D01*
X244412520Y-81502472D01*
X244414823Y-81345668D01*
X244423064Y-81098858D01*
X244447908Y-80917675D01*
X244488870Y-80790502D01*
X244561906Y-80629089D01*
X245970537Y-80663502D01*
X246359748Y-80672304D01*
X246767790Y-80680274D01*
X247174872Y-80687113D01*
X247561203Y-80692522D01*
X247906992Y-80696203D01*
X248192449Y-80697855D01*
X248247000Y-80697916D01*
X249114834Y-80697916D01*
X249128252Y-80581259D01*
X249119591Y-80483618D01*
X249084766Y-80442765D01*
X249029824Y-80436488D01*
X248900844Y-80428961D01*
X248708438Y-80420583D01*
X248463220Y-80411752D01*
X248175802Y-80402864D01*
X247856795Y-80394319D01*
X247679587Y-80390089D01*
X246331313Y-80359250D01*
X246338924Y-79884775D01*
X246336698Y-79838861D01*
X246030361Y-79838861D01*
X246020756Y-80058633D01*
X245993475Y-80350684D01*
X245077655Y-80322671D01*
X244769593Y-80312910D01*
X244402086Y-80300719D01*
X244000291Y-80286967D01*
X243589364Y-80272521D01*
X243194463Y-80258250D01*
X242976500Y-80250163D01*
X242588048Y-80234990D01*
X242154678Y-80217067D01*
X241705255Y-80197653D01*
X241268638Y-80178006D01*
X240873691Y-80159387D01*
X240704759Y-80151051D01*
X240372695Y-80134077D01*
X240113774Y-80119601D01*
X239916569Y-80106122D01*
X239769648Y-80092139D01*
X239661586Y-80076153D01*
X239580951Y-80056661D01*
X239516316Y-80032164D01*
X239456251Y-80001161D01*
X239424734Y-79982969D01*
X239196584Y-79818504D01*
X238951814Y-79586933D01*
X238701696Y-79301087D01*
X238457501Y-78973800D01*
X238319986Y-78758998D01*
X237917667Y-78758998D01*
X237880490Y-78767426D01*
X237788553Y-78765640D01*
X237763123Y-78763722D01*
X237611477Y-78719413D01*
X237530436Y-78644750D01*
X237436443Y-78476434D01*
X237350621Y-78247132D01*
X237276161Y-77976125D01*
X237216253Y-77682693D01*
X237174087Y-77386118D01*
X237152853Y-77105679D01*
X237155743Y-76860658D01*
X237185945Y-76670334D01*
X237197803Y-76634435D01*
X237244301Y-76544844D01*
X237318282Y-76433172D01*
X237402522Y-76321912D01*
X237479796Y-76233555D01*
X237532880Y-76190593D01*
X237538606Y-76189416D01*
X237558787Y-76227974D01*
X237584605Y-76329903D01*
X237611009Y-76474585D01*
X237615152Y-76501683D01*
X237637827Y-76693275D01*
X237637754Y-76840675D01*
X237613738Y-76981567D01*
X237598030Y-77041433D01*
X237536820Y-77293458D01*
X237509759Y-77510328D01*
X237519438Y-77714462D01*
X237568446Y-77928278D01*
X237659371Y-78174197D01*
X237753313Y-78386026D01*
X237825126Y-78542995D01*
X237881024Y-78668614D01*
X237913067Y-78744868D01*
X237917667Y-78758998D01*
X238319986Y-78758998D01*
X238240172Y-78634327D01*
X238062728Y-78318028D01*
X237937270Y-78051592D01*
X237860474Y-77820779D01*
X237829011Y-77611353D01*
X237839557Y-77409073D01*
X237888784Y-77199703D01*
X237898149Y-77170313D01*
X237947913Y-76902129D01*
X237941762Y-76579225D01*
X237880036Y-76210150D01*
X237855848Y-76111235D01*
X237821513Y-75967932D01*
X237809685Y-75862595D01*
X237821825Y-75759916D01*
X237859392Y-75624588D01*
X237878478Y-75564045D01*
X237906084Y-75469060D01*
X237928355Y-75368647D01*
X237946278Y-75251089D01*
X237960843Y-75104668D01*
X237973039Y-74917667D01*
X237983855Y-74678367D01*
X237994280Y-74375053D01*
X238002567Y-74093916D01*
X238020115Y-73587549D01*
X238042851Y-73153147D01*
X238072203Y-72778089D01*
X238109604Y-72449758D01*
X238156481Y-72155533D01*
X238214266Y-71882796D01*
X238282173Y-71626556D01*
X238426200Y-71219197D01*
X238603876Y-70883950D01*
X238821396Y-70612835D01*
X239084952Y-70397872D01*
X239347128Y-70254552D01*
X239586411Y-70163404D01*
X239825623Y-70112054D01*
X240082630Y-70100006D01*
X240375297Y-70126766D01*
X240721491Y-70191838D01*
X240817500Y-70213800D01*
X241045743Y-70265660D01*
X241266277Y-70312556D01*
X241454708Y-70349498D01*
X241586641Y-70371497D01*
X241591721Y-70372167D01*
X241713432Y-70392541D01*
X241789352Y-70414320D01*
X241803145Y-70427171D01*
X241778253Y-70475803D01*
X241726015Y-70576124D01*
X241668408Y-70686083D01*
X241510949Y-71037501D01*
X241384179Y-71424794D01*
X241291251Y-71828658D01*
X241235321Y-72229790D01*
X241219543Y-72608888D01*
X241247072Y-72946648D01*
X241276108Y-73086549D01*
X241334808Y-73245778D01*
X241417722Y-73395981D01*
X241456024Y-73446841D01*
X241501851Y-73498449D01*
X241550849Y-73549221D01*
X241611639Y-73606443D01*
X241692847Y-73677404D01*
X241803095Y-73769389D01*
X241951007Y-73889687D01*
X242145206Y-74045585D01*
X242394316Y-74244370D01*
X242489667Y-74320324D01*
X242746813Y-74532274D01*
X243038940Y-74785020D01*
X243350122Y-75063792D01*
X243664432Y-75353820D01*
X243965940Y-75640333D01*
X244238721Y-75908562D01*
X244466846Y-76143735D01*
X244532375Y-76214605D01*
X244923891Y-76682595D01*
X245246754Y-77154708D01*
X245515087Y-77652870D01*
X245639660Y-77934081D01*
X245705674Y-78095737D01*
X245757214Y-78226103D01*
X245787082Y-78306758D01*
X245791667Y-78323156D01*
X245760782Y-78309747D01*
X245678471Y-78255033D01*
X245560254Y-78169545D01*
X245512568Y-78133773D01*
X245232050Y-77937812D01*
X244975692Y-77797579D01*
X244717578Y-77700535D01*
X244511526Y-77649424D01*
X244057540Y-77518443D01*
X243615789Y-77318932D01*
X243201991Y-77061275D01*
X242831867Y-76755856D01*
X242521134Y-76413062D01*
X242414536Y-76264100D01*
X242310365Y-76144730D01*
X242211714Y-76108343D01*
X242120367Y-76155477D01*
X242105972Y-76171496D01*
X242081561Y-76245679D01*
X242111224Y-76350175D01*
X242198182Y-76490005D01*
X242345652Y-76670190D01*
X242556855Y-76895751D01*
X242595500Y-76935094D01*
X242950356Y-77258096D01*
X243320825Y-77518702D01*
X243724273Y-77726289D01*
X244178063Y-77890235D01*
X244540388Y-77985297D01*
X244784369Y-78068582D01*
X245047335Y-78204081D01*
X245309491Y-78377161D01*
X245551045Y-78573188D01*
X245752202Y-78777527D01*
X245893168Y-78975543D01*
X245901892Y-78991908D01*
X245954204Y-79140366D01*
X245994926Y-79347820D01*
X246021248Y-79589057D01*
X246030361Y-79838861D01*
X246336698Y-79838861D01*
X246307407Y-79234752D01*
X246192709Y-78594308D01*
X245996073Y-77966601D01*
X245718741Y-77354789D01*
X245361956Y-76762031D01*
X244926960Y-76191486D01*
X244852182Y-76104750D01*
X244609586Y-75841082D01*
X244313989Y-75541149D01*
X243980580Y-75218875D01*
X243624546Y-74888184D01*
X243261075Y-74562999D01*
X242905354Y-74257244D01*
X242572570Y-73984843D01*
X242362667Y-73822413D01*
X242089933Y-73611170D01*
X241882907Y-73435524D01*
X241734118Y-73288496D01*
X241636092Y-73163105D01*
X241610901Y-73120250D01*
X241571277Y-72991662D01*
X241548178Y-72799694D01*
X241541266Y-72563940D01*
X241550205Y-72303990D01*
X241574658Y-72039436D01*
X241614290Y-71789870D01*
X241635394Y-71694177D01*
X241778431Y-71211541D01*
X241956589Y-70803010D01*
X242173624Y-70464047D01*
X242433290Y-70190114D01*
X242739339Y-69976676D01*
X243095527Y-69819194D01*
X243218903Y-69780396D01*
X243401760Y-69711055D01*
X243506346Y-69632303D01*
X243530620Y-69546988D01*
X243472541Y-69457959D01*
X243458503Y-69445992D01*
X243397401Y-69406174D01*
X243322029Y-69383768D01*
X243210941Y-69375877D01*
X243042689Y-69379606D01*
G36*
X233450055Y-82143662D02*
G01*
X233395563Y-82201470D01*
X233390973Y-82289813D01*
X233432007Y-82374168D01*
X233483250Y-82411413D01*
X233542387Y-82421827D01*
X233679313Y-82437766D01*
X233887371Y-82458704D01*
X234159900Y-82484117D01*
X234490241Y-82513479D01*
X234871733Y-82546266D01*
X235297719Y-82581951D01*
X235761537Y-82620009D01*
X236256528Y-82659916D01*
X236776033Y-82701145D01*
X237313392Y-82743172D01*
X237861945Y-82785472D01*
X238415033Y-82827519D01*
X238965996Y-82868787D01*
X239508174Y-82908752D01*
X240034909Y-82946889D01*
X240539539Y-82982671D01*
X241015406Y-83015575D01*
X241455850Y-83045073D01*
X241791167Y-83066685D01*
X242179850Y-83090053D01*
X242619835Y-83114504D01*
X243101204Y-83139627D01*
X243614040Y-83165009D01*
X244148426Y-83190238D01*
X244694446Y-83214899D01*
X245242182Y-83238582D01*
X245781718Y-83260874D01*
X246303137Y-83281361D01*
X246796521Y-83299631D01*
X247251953Y-83315271D01*
X247659518Y-83327870D01*
X248009297Y-83337013D01*
X248291374Y-83342289D01*
X248442900Y-83343460D01*
X248666951Y-83340697D01*
X248819538Y-83331074D01*
X248913698Y-83313079D01*
X248962466Y-83285201D01*
X248964421Y-83282956D01*
X248994545Y-83195699D01*
X248956631Y-83114400D01*
X248866089Y-83059333D01*
X248785261Y-83047208D01*
X248619868Y-83045037D01*
X248379110Y-83039156D01*
X248072188Y-83029945D01*
X247708305Y-83017785D01*
X247296664Y-83003055D01*
X246846466Y-82986135D01*
X246366914Y-82967406D01*
X245867210Y-82947246D01*
X245356556Y-82926036D01*
X244844155Y-82904156D01*
X244339210Y-82881986D01*
X243850921Y-82859906D01*
X243388492Y-82838294D01*
X242961125Y-82817533D01*
X242578022Y-82798001D01*
X242248386Y-82780078D01*
X242087500Y-82770700D01*
X241720528Y-82747634D01*
X241278832Y-82718184D01*
X240772056Y-82683071D01*
X240209845Y-82643011D01*
X239601843Y-82598722D01*
X238957694Y-82550923D01*
X238287043Y-82500331D01*
X237599534Y-82447665D01*
X236904812Y-82393642D01*
X236212520Y-82338980D01*
X235532304Y-82284398D01*
X235280972Y-82263988D01*
X234901028Y-82233698D01*
X234546128Y-82206692D01*
X234225406Y-82183570D01*
X233947995Y-82164934D01*
X233723027Y-82151382D01*
X233559636Y-82143516D01*
X233466955Y-82141935D01*
X233450055Y-82143662D01*
G37*
X233450055Y-82143662D02*
X233395563Y-82201470D01*
X233390973Y-82289813D01*
X233432007Y-82374168D01*
X233483250Y-82411413D01*
X233542387Y-82421827D01*
X233679313Y-82437766D01*
X233887371Y-82458704D01*
X234159900Y-82484117D01*
X234490241Y-82513479D01*
X234871733Y-82546266D01*
X235297719Y-82581951D01*
X235761537Y-82620009D01*
X236256528Y-82659916D01*
X236776033Y-82701145D01*
X237313392Y-82743172D01*
X237861945Y-82785472D01*
X238415033Y-82827519D01*
X238965996Y-82868787D01*
X239508174Y-82908752D01*
X240034909Y-82946889D01*
X240539539Y-82982671D01*
X241015406Y-83015575D01*
X241455850Y-83045073D01*
X241791167Y-83066685D01*
X242179850Y-83090053D01*
X242619835Y-83114504D01*
X243101204Y-83139627D01*
X243614040Y-83165009D01*
X244148426Y-83190238D01*
X244694446Y-83214899D01*
X245242182Y-83238582D01*
X245781718Y-83260874D01*
X246303137Y-83281361D01*
X246796521Y-83299631D01*
X247251953Y-83315271D01*
X247659518Y-83327870D01*
X248009297Y-83337013D01*
X248291374Y-83342289D01*
X248442900Y-83343460D01*
X248666951Y-83340697D01*
X248819538Y-83331074D01*
X248913698Y-83313079D01*
X248962466Y-83285201D01*
X248964421Y-83282956D01*
X248994545Y-83195699D01*
X248956631Y-83114400D01*
X248866089Y-83059333D01*
X248785261Y-83047208D01*
X248619868Y-83045037D01*
X248379110Y-83039156D01*
X248072188Y-83029945D01*
X247708305Y-83017785D01*
X247296664Y-83003055D01*
X246846466Y-82986135D01*
X246366914Y-82967406D01*
X245867210Y-82947246D01*
X245356556Y-82926036D01*
X244844155Y-82904156D01*
X244339210Y-82881986D01*
X243850921Y-82859906D01*
X243388492Y-82838294D01*
X242961125Y-82817533D01*
X242578022Y-82798001D01*
X242248386Y-82780078D01*
X242087500Y-82770700D01*
X241720528Y-82747634D01*
X241278832Y-82718184D01*
X240772056Y-82683071D01*
X240209845Y-82643011D01*
X239601843Y-82598722D01*
X238957694Y-82550923D01*
X238287043Y-82500331D01*
X237599534Y-82447665D01*
X236904812Y-82393642D01*
X236212520Y-82338980D01*
X235532304Y-82284398D01*
X235280972Y-82263988D01*
X234901028Y-82233698D01*
X234546128Y-82206692D01*
X234225406Y-82183570D01*
X233947995Y-82164934D01*
X233723027Y-82151382D01*
X233559636Y-82143516D01*
X233466955Y-82141935D01*
X233450055Y-82143662D01*
D10*
%TO.C,MX21*%
X213662500Y-63643750D02*
X214662500Y-63643750D01*
X226662500Y-63643750D02*
X227662500Y-63643750D01*
X227662500Y-63643750D02*
X227662500Y-64643750D01*
X227662500Y-77643750D02*
X226662500Y-77643750D01*
X227662500Y-76643750D02*
X227662500Y-77643750D01*
X214662500Y-77643750D02*
X213662500Y-77643750D01*
X213662500Y-77643750D02*
X213662500Y-76643750D01*
X213662500Y-64643750D02*
X213662500Y-63643750D01*
%TO.C,MX41*%
X229921822Y-112321928D02*
X230421822Y-111455902D01*
X236421822Y-101063598D02*
X236921822Y-100197572D01*
X236921822Y-100197572D02*
X237787848Y-100697572D01*
X249046178Y-107197572D02*
X248546178Y-108063598D01*
X248180152Y-106697572D02*
X249046178Y-107197572D01*
X242546178Y-118455902D02*
X242046178Y-119321928D01*
X242046178Y-119321928D02*
X241180152Y-118821928D01*
X230787848Y-112821928D02*
X229921822Y-112321928D01*
%TO.C,MX10*%
X39831250Y-29512500D02*
X40831250Y-29512500D01*
X52831250Y-29512500D02*
X53831250Y-29512500D01*
X53831250Y-29512500D02*
X53831250Y-30512500D01*
X53831250Y-43512500D02*
X52831250Y-43512500D01*
X53831250Y-42512500D02*
X53831250Y-43512500D01*
X40831250Y-43512500D02*
X39831250Y-43512500D01*
X39831250Y-43512500D02*
X39831250Y-42512500D01*
X39831250Y-30512500D02*
X39831250Y-29512500D01*
%TO.C,MX15*%
X137462500Y-48562500D02*
X138462500Y-48562500D01*
X150462500Y-48562500D02*
X151462500Y-48562500D01*
X151462500Y-48562500D02*
X151462500Y-49562500D01*
X151462500Y-62562500D02*
X150462500Y-62562500D01*
X151462500Y-61562500D02*
X151462500Y-62562500D01*
X138462500Y-62562500D02*
X137462500Y-62562500D01*
X137462500Y-62562500D02*
X137462500Y-61562500D01*
X137462500Y-49562500D02*
X137462500Y-48562500D01*
%TO.C,MX44*%
X166825000Y-102251750D02*
X167825000Y-102251750D01*
X179825000Y-102251750D02*
X180825000Y-102251750D01*
X180825000Y-102251750D02*
X180825000Y-103251750D01*
X180825000Y-116251750D02*
X179825000Y-116251750D01*
X180825000Y-115251750D02*
X180825000Y-116251750D01*
X167825000Y-116251750D02*
X166825000Y-116251750D01*
X166825000Y-116251750D02*
X166825000Y-115251750D01*
X166825000Y-103251750D02*
X166825000Y-102251750D01*
%TO.C,MX43*%
X185875000Y-102251750D02*
X186875000Y-102251750D01*
X198875000Y-102251750D02*
X199875000Y-102251750D01*
X199875000Y-102251750D02*
X199875000Y-103251750D01*
X199875000Y-116251750D02*
X198875000Y-116251750D01*
X199875000Y-115251750D02*
X199875000Y-116251750D01*
X186875000Y-116251750D02*
X185875000Y-116251750D01*
X185875000Y-116251750D02*
X185875000Y-115251750D01*
X185875000Y-103251750D02*
X185875000Y-102251750D01*
%TO.C,MX42*%
X204925000Y-104918750D02*
X205925000Y-104918750D01*
X217925000Y-104918750D02*
X218925000Y-104918750D01*
X218925000Y-104918750D02*
X218925000Y-105918750D01*
X218925000Y-118918750D02*
X217925000Y-118918750D01*
X218925000Y-117918750D02*
X218925000Y-118918750D01*
X205925000Y-118918750D02*
X204925000Y-118918750D01*
X204925000Y-118918750D02*
X204925000Y-117918750D01*
X204925000Y-105918750D02*
X204925000Y-104918750D01*
%TO.C,MX40*%
X39831250Y-86662500D02*
X40831250Y-86662500D01*
X52831250Y-86662500D02*
X53831250Y-86662500D01*
X53831250Y-86662500D02*
X53831250Y-87662500D01*
X53831250Y-100662500D02*
X52831250Y-100662500D01*
X53831250Y-99662500D02*
X53831250Y-100662500D01*
X40831250Y-100662500D02*
X39831250Y-100662500D01*
X39831250Y-100662500D02*
X39831250Y-99662500D01*
X39831250Y-87662500D02*
X39831250Y-86662500D01*
%TO.C,MX38*%
X77931250Y-86662500D02*
X78931250Y-86662500D01*
X90931250Y-86662500D02*
X91931250Y-86662500D01*
X91931250Y-86662500D02*
X91931250Y-87662500D01*
X91931250Y-100662500D02*
X90931250Y-100662500D01*
X91931250Y-99662500D02*
X91931250Y-100662500D01*
X78931250Y-100662500D02*
X77931250Y-100662500D01*
X77931250Y-100662500D02*
X77931250Y-99662500D01*
X77931250Y-87662500D02*
X77931250Y-86662500D01*
%TO.C,MX37*%
X96981250Y-86662500D02*
X97981250Y-86662500D01*
X109981250Y-86662500D02*
X110981250Y-86662500D01*
X110981250Y-86662500D02*
X110981250Y-87662500D01*
X110981250Y-100662500D02*
X109981250Y-100662500D01*
X110981250Y-99662500D02*
X110981250Y-100662500D01*
X97981250Y-100662500D02*
X96981250Y-100662500D01*
X96981250Y-100662500D02*
X96981250Y-99662500D01*
X96981250Y-87662500D02*
X96981250Y-86662500D01*
%TO.C,MX35*%
X137462500Y-86662500D02*
X138462500Y-86662500D01*
X150462500Y-86662500D02*
X151462500Y-86662500D01*
X151462500Y-86662500D02*
X151462500Y-87662500D01*
X151462500Y-100662500D02*
X150462500Y-100662500D01*
X151462500Y-99662500D02*
X151462500Y-100662500D01*
X138462500Y-100662500D02*
X137462500Y-100662500D01*
X137462500Y-100662500D02*
X137462500Y-99662500D01*
X137462500Y-87662500D02*
X137462500Y-86662500D01*
%TO.C,MX34*%
X156512500Y-80312500D02*
X157512500Y-80312500D01*
X169512500Y-80312500D02*
X170512500Y-80312500D01*
X170512500Y-80312500D02*
X170512500Y-81312500D01*
X170512500Y-94312500D02*
X169512500Y-94312500D01*
X170512500Y-93312500D02*
X170512500Y-94312500D01*
X157512500Y-94312500D02*
X156512500Y-94312500D01*
X156512500Y-94312500D02*
X156512500Y-93312500D01*
X156512500Y-81312500D02*
X156512500Y-80312500D01*
%TO.C,MX33*%
X175562500Y-77931250D02*
X176562500Y-77931250D01*
X188562500Y-77931250D02*
X189562500Y-77931250D01*
X189562500Y-77931250D02*
X189562500Y-78931250D01*
X189562500Y-91931250D02*
X188562500Y-91931250D01*
X189562500Y-90931250D02*
X189562500Y-91931250D01*
X176562500Y-91931250D02*
X175562500Y-91931250D01*
X175562500Y-91931250D02*
X175562500Y-90931250D01*
X175562500Y-78931250D02*
X175562500Y-77931250D01*
%TO.C,MX32*%
X194612500Y-80312500D02*
X195612500Y-80312500D01*
X207612500Y-80312500D02*
X208612500Y-80312500D01*
X208612500Y-80312500D02*
X208612500Y-81312500D01*
X208612500Y-94312500D02*
X207612500Y-94312500D01*
X208612500Y-93312500D02*
X208612500Y-94312500D01*
X195612500Y-94312500D02*
X194612500Y-94312500D01*
X194612500Y-94312500D02*
X194612500Y-93312500D01*
X194612500Y-81312500D02*
X194612500Y-80312500D01*
%TO.C,MX31*%
X213662500Y-82693750D02*
X214662500Y-82693750D01*
X226662500Y-82693750D02*
X227662500Y-82693750D01*
X227662500Y-82693750D02*
X227662500Y-83693750D01*
X227662500Y-96693750D02*
X226662500Y-96693750D01*
X227662500Y-95693750D02*
X227662500Y-96693750D01*
X214662500Y-96693750D02*
X213662500Y-96693750D01*
X213662500Y-96693750D02*
X213662500Y-95693750D01*
X213662500Y-83693750D02*
X213662500Y-82693750D01*
%TO.C,MX30*%
X39831250Y-67612500D02*
X40831250Y-67612500D01*
X52831250Y-67612500D02*
X53831250Y-67612500D01*
X53831250Y-67612500D02*
X53831250Y-68612500D01*
X53831250Y-81612500D02*
X52831250Y-81612500D01*
X53831250Y-80612500D02*
X53831250Y-81612500D01*
X40831250Y-81612500D02*
X39831250Y-81612500D01*
X39831250Y-81612500D02*
X39831250Y-80612500D01*
X39831250Y-68612500D02*
X39831250Y-67612500D01*
%TO.C,MX29*%
X58881250Y-67612500D02*
X59881250Y-67612500D01*
X71881250Y-67612500D02*
X72881250Y-67612500D01*
X72881250Y-67612500D02*
X72881250Y-68612500D01*
X72881250Y-81612500D02*
X71881250Y-81612500D01*
X72881250Y-80612500D02*
X72881250Y-81612500D01*
X59881250Y-81612500D02*
X58881250Y-81612500D01*
X58881250Y-81612500D02*
X58881250Y-80612500D01*
X58881250Y-68612500D02*
X58881250Y-67612500D01*
%TO.C,MX28*%
X77931250Y-67612500D02*
X78931250Y-67612500D01*
X90931250Y-67612500D02*
X91931250Y-67612500D01*
X91931250Y-67612500D02*
X91931250Y-68612500D01*
X91931250Y-81612500D02*
X90931250Y-81612500D01*
X91931250Y-80612500D02*
X91931250Y-81612500D01*
X78931250Y-81612500D02*
X77931250Y-81612500D01*
X77931250Y-81612500D02*
X77931250Y-80612500D01*
X77931250Y-68612500D02*
X77931250Y-67612500D01*
%TO.C,MX27*%
X96981250Y-67612500D02*
X97981250Y-67612500D01*
X109981250Y-67612500D02*
X110981250Y-67612500D01*
X110981250Y-67612500D02*
X110981250Y-68612500D01*
X110981250Y-81612500D02*
X109981250Y-81612500D01*
X110981250Y-80612500D02*
X110981250Y-81612500D01*
X97981250Y-81612500D02*
X96981250Y-81612500D01*
X96981250Y-81612500D02*
X96981250Y-80612500D01*
X96981250Y-68612500D02*
X96981250Y-67612500D01*
%TO.C,MX26*%
X118412500Y-67612500D02*
X119412500Y-67612500D01*
X131412500Y-67612500D02*
X132412500Y-67612500D01*
X132412500Y-67612500D02*
X132412500Y-68612500D01*
X132412500Y-81612500D02*
X131412500Y-81612500D01*
X132412500Y-80612500D02*
X132412500Y-81612500D01*
X119412500Y-81612500D02*
X118412500Y-81612500D01*
X118412500Y-81612500D02*
X118412500Y-80612500D01*
X118412500Y-68612500D02*
X118412500Y-67612500D01*
%TO.C,MX25*%
X137462500Y-67612500D02*
X138462500Y-67612500D01*
X150462500Y-67612500D02*
X151462500Y-67612500D01*
X151462500Y-67612500D02*
X151462500Y-68612500D01*
X151462500Y-81612500D02*
X150462500Y-81612500D01*
X151462500Y-80612500D02*
X151462500Y-81612500D01*
X138462500Y-81612500D02*
X137462500Y-81612500D01*
X137462500Y-81612500D02*
X137462500Y-80612500D01*
X137462500Y-68612500D02*
X137462500Y-67612500D01*
%TO.C,MX24*%
X156512500Y-61262500D02*
X157512500Y-61262500D01*
X169512500Y-61262500D02*
X170512500Y-61262500D01*
X170512500Y-61262500D02*
X170512500Y-62262500D01*
X170512500Y-75262500D02*
X169512500Y-75262500D01*
X170512500Y-74262500D02*
X170512500Y-75262500D01*
X157512500Y-75262500D02*
X156512500Y-75262500D01*
X156512500Y-75262500D02*
X156512500Y-74262500D01*
X156512500Y-62262500D02*
X156512500Y-61262500D01*
%TO.C,MX23*%
X175562500Y-58881250D02*
X176562500Y-58881250D01*
X188562500Y-58881250D02*
X189562500Y-58881250D01*
X189562500Y-58881250D02*
X189562500Y-59881250D01*
X189562500Y-72881250D02*
X188562500Y-72881250D01*
X189562500Y-71881250D02*
X189562500Y-72881250D01*
X176562500Y-72881250D02*
X175562500Y-72881250D01*
X175562500Y-72881250D02*
X175562500Y-71881250D01*
X175562500Y-59881250D02*
X175562500Y-58881250D01*
%TO.C,MX22*%
X194612500Y-61262500D02*
X195612500Y-61262500D01*
X207612500Y-61262500D02*
X208612500Y-61262500D01*
X208612500Y-61262500D02*
X208612500Y-62262500D01*
X208612500Y-75262500D02*
X207612500Y-75262500D01*
X208612500Y-74262500D02*
X208612500Y-75262500D01*
X195612500Y-75262500D02*
X194612500Y-75262500D01*
X194612500Y-75262500D02*
X194612500Y-74262500D01*
X194612500Y-62262500D02*
X194612500Y-61262500D01*
%TO.C,MX20*%
X39831250Y-48562500D02*
X40831250Y-48562500D01*
X52831250Y-48562500D02*
X53831250Y-48562500D01*
X53831250Y-48562500D02*
X53831250Y-49562500D01*
X53831250Y-62562500D02*
X52831250Y-62562500D01*
X53831250Y-61562500D02*
X53831250Y-62562500D01*
X40831250Y-62562500D02*
X39831250Y-62562500D01*
X39831250Y-62562500D02*
X39831250Y-61562500D01*
X39831250Y-49562500D02*
X39831250Y-48562500D01*
%TO.C,MX19*%
X58881250Y-48562500D02*
X59881250Y-48562500D01*
X71881250Y-48562500D02*
X72881250Y-48562500D01*
X72881250Y-48562500D02*
X72881250Y-49562500D01*
X72881250Y-62562500D02*
X71881250Y-62562500D01*
X72881250Y-61562500D02*
X72881250Y-62562500D01*
X59881250Y-62562500D02*
X58881250Y-62562500D01*
X58881250Y-62562500D02*
X58881250Y-61562500D01*
X58881250Y-49562500D02*
X58881250Y-48562500D01*
%TO.C,MX18*%
X77931250Y-48562500D02*
X78931250Y-48562500D01*
X90931250Y-48562500D02*
X91931250Y-48562500D01*
X91931250Y-48562500D02*
X91931250Y-49562500D01*
X91931250Y-62562500D02*
X90931250Y-62562500D01*
X91931250Y-61562500D02*
X91931250Y-62562500D01*
X78931250Y-62562500D02*
X77931250Y-62562500D01*
X77931250Y-62562500D02*
X77931250Y-61562500D01*
X77931250Y-49562500D02*
X77931250Y-48562500D01*
%TO.C,MX17*%
X96981250Y-48562500D02*
X97981250Y-48562500D01*
X109981250Y-48562500D02*
X110981250Y-48562500D01*
X110981250Y-48562500D02*
X110981250Y-49562500D01*
X110981250Y-62562500D02*
X109981250Y-62562500D01*
X110981250Y-61562500D02*
X110981250Y-62562500D01*
X97981250Y-62562500D02*
X96981250Y-62562500D01*
X96981250Y-62562500D02*
X96981250Y-61562500D01*
X96981250Y-49562500D02*
X96981250Y-48562500D01*
%TO.C,MX16*%
X118412500Y-48562500D02*
X119412500Y-48562500D01*
X131412500Y-48562500D02*
X132412500Y-48562500D01*
X132412500Y-48562500D02*
X132412500Y-49562500D01*
X132412500Y-62562500D02*
X131412500Y-62562500D01*
X132412500Y-61562500D02*
X132412500Y-62562500D01*
X119412500Y-62562500D02*
X118412500Y-62562500D01*
X118412500Y-62562500D02*
X118412500Y-61562500D01*
X118412500Y-49562500D02*
X118412500Y-48562500D01*
%TO.C,MX14*%
X156512500Y-42212500D02*
X157512500Y-42212500D01*
X169512500Y-42212500D02*
X170512500Y-42212500D01*
X170512500Y-42212500D02*
X170512500Y-43212500D01*
X170512500Y-56212500D02*
X169512500Y-56212500D01*
X170512500Y-55212500D02*
X170512500Y-56212500D01*
X157512500Y-56212500D02*
X156512500Y-56212500D01*
X156512500Y-56212500D02*
X156512500Y-55212500D01*
X156512500Y-43212500D02*
X156512500Y-42212500D01*
%TO.C,MX13*%
X175562500Y-39831250D02*
X176562500Y-39831250D01*
X188562500Y-39831250D02*
X189562500Y-39831250D01*
X189562500Y-39831250D02*
X189562500Y-40831250D01*
X189562500Y-53831250D02*
X188562500Y-53831250D01*
X189562500Y-52831250D02*
X189562500Y-53831250D01*
X176562500Y-53831250D02*
X175562500Y-53831250D01*
X175562500Y-53831250D02*
X175562500Y-52831250D01*
X175562500Y-40831250D02*
X175562500Y-39831250D01*
%TO.C,MX12*%
X194612500Y-42212500D02*
X195612500Y-42212500D01*
X207612500Y-42212500D02*
X208612500Y-42212500D01*
X208612500Y-42212500D02*
X208612500Y-43212500D01*
X208612500Y-56212500D02*
X207612500Y-56212500D01*
X208612500Y-55212500D02*
X208612500Y-56212500D01*
X195612500Y-56212500D02*
X194612500Y-56212500D01*
X194612500Y-56212500D02*
X194612500Y-55212500D01*
X194612500Y-43212500D02*
X194612500Y-42212500D01*
%TO.C,MX11*%
X213662500Y-44593750D02*
X214662500Y-44593750D01*
X226662500Y-44593750D02*
X227662500Y-44593750D01*
X227662500Y-44593750D02*
X227662500Y-45593750D01*
X227662500Y-58593750D02*
X226662500Y-58593750D01*
X227662500Y-57593750D02*
X227662500Y-58593750D01*
X214662500Y-58593750D02*
X213662500Y-58593750D01*
X213662500Y-58593750D02*
X213662500Y-57593750D01*
X213662500Y-45593750D02*
X213662500Y-44593750D01*
%TO.C,MX9*%
X58881250Y-29512500D02*
X59881250Y-29512500D01*
X71881250Y-29512500D02*
X72881250Y-29512500D01*
X72881250Y-29512500D02*
X72881250Y-30512500D01*
X72881250Y-43512500D02*
X71881250Y-43512500D01*
X72881250Y-42512500D02*
X72881250Y-43512500D01*
X59881250Y-43512500D02*
X58881250Y-43512500D01*
X58881250Y-43512500D02*
X58881250Y-42512500D01*
X58881250Y-30512500D02*
X58881250Y-29512500D01*
%TO.C,MX8*%
X77931250Y-29512500D02*
X78931250Y-29512500D01*
X90931250Y-29512500D02*
X91931250Y-29512500D01*
X91931250Y-29512500D02*
X91931250Y-30512500D01*
X91931250Y-43512500D02*
X90931250Y-43512500D01*
X91931250Y-42512500D02*
X91931250Y-43512500D01*
X78931250Y-43512500D02*
X77931250Y-43512500D01*
X77931250Y-43512500D02*
X77931250Y-42512500D01*
X77931250Y-30512500D02*
X77931250Y-29512500D01*
%TO.C,MX7*%
X96981250Y-29512500D02*
X97981250Y-29512500D01*
X109981250Y-29512500D02*
X110981250Y-29512500D01*
X110981250Y-29512500D02*
X110981250Y-30512500D01*
X110981250Y-43512500D02*
X109981250Y-43512500D01*
X110981250Y-42512500D02*
X110981250Y-43512500D01*
X97981250Y-43512500D02*
X96981250Y-43512500D01*
X96981250Y-43512500D02*
X96981250Y-42512500D01*
X96981250Y-30512500D02*
X96981250Y-29512500D01*
%TO.C,MX6*%
X118412500Y-29512500D02*
X119412500Y-29512500D01*
X131412500Y-29512500D02*
X132412500Y-29512500D01*
X132412500Y-29512500D02*
X132412500Y-30512500D01*
X132412500Y-43512500D02*
X131412500Y-43512500D01*
X132412500Y-42512500D02*
X132412500Y-43512500D01*
X119412500Y-43512500D02*
X118412500Y-43512500D01*
X118412500Y-43512500D02*
X118412500Y-42512500D01*
X118412500Y-30512500D02*
X118412500Y-29512500D01*
%TO.C,MX5*%
X137462500Y-29512500D02*
X138462500Y-29512500D01*
X150462500Y-29512500D02*
X151462500Y-29512500D01*
X151462500Y-29512500D02*
X151462500Y-30512500D01*
X151462500Y-43512500D02*
X150462500Y-43512500D01*
X151462500Y-42512500D02*
X151462500Y-43512500D01*
X138462500Y-43512500D02*
X137462500Y-43512500D01*
X137462500Y-43512500D02*
X137462500Y-42512500D01*
X137462500Y-30512500D02*
X137462500Y-29512500D01*
%TO.C,MX4*%
X156512500Y-23162500D02*
X157512500Y-23162500D01*
X169512500Y-23162500D02*
X170512500Y-23162500D01*
X170512500Y-23162500D02*
X170512500Y-24162500D01*
X170512500Y-37162500D02*
X169512500Y-37162500D01*
X170512500Y-36162500D02*
X170512500Y-37162500D01*
X157512500Y-37162500D02*
X156512500Y-37162500D01*
X156512500Y-37162500D02*
X156512500Y-36162500D01*
X156512500Y-24162500D02*
X156512500Y-23162500D01*
%TO.C,MX3*%
X175562500Y-20781250D02*
X176562500Y-20781250D01*
X188562500Y-20781250D02*
X189562500Y-20781250D01*
X189562500Y-20781250D02*
X189562500Y-21781250D01*
X189562500Y-34781250D02*
X188562500Y-34781250D01*
X189562500Y-33781250D02*
X189562500Y-34781250D01*
X176562500Y-34781250D02*
X175562500Y-34781250D01*
X175562500Y-34781250D02*
X175562500Y-33781250D01*
X175562500Y-21781250D02*
X175562500Y-20781250D01*
%TO.C,MX2*%
X194612500Y-23162500D02*
X195612500Y-23162500D01*
X207612500Y-23162500D02*
X208612500Y-23162500D01*
X208612500Y-23162500D02*
X208612500Y-24162500D01*
X208612500Y-37162500D02*
X207612500Y-37162500D01*
X208612500Y-36162500D02*
X208612500Y-37162500D01*
X195612500Y-37162500D02*
X194612500Y-37162500D01*
X194612500Y-37162500D02*
X194612500Y-36162500D01*
X194612500Y-24162500D02*
X194612500Y-23162500D01*
%TO.C,MX1*%
X213662500Y-25543750D02*
X214662500Y-25543750D01*
X226662500Y-25543750D02*
X227662500Y-25543750D01*
X227662500Y-25543750D02*
X227662500Y-26543750D01*
X227662500Y-39543750D02*
X226662500Y-39543750D01*
X227662500Y-38543750D02*
X227662500Y-39543750D01*
X214662500Y-39543750D02*
X213662500Y-39543750D01*
X213662500Y-39543750D02*
X213662500Y-38543750D01*
X213662500Y-26543750D02*
X213662500Y-25543750D01*
D12*
%TO.C,U1*%
X250190000Y-29210000D02*
X250190000Y-59690000D01*
X250190000Y-59690000D02*
X232410000Y-59690000D01*
X232410000Y-59690000D02*
X232410000Y-29210000D01*
X247650000Y-29210000D02*
X247650000Y-31750000D01*
X247650000Y-31750000D02*
X250190000Y-31750000D01*
D10*
G36*
X236368432Y-35089360D02*
G01*
X236368432Y-35389360D01*
X236468432Y-35389360D01*
X236468432Y-35089360D01*
X236368432Y-35089360D01*
G37*
X236368432Y-35089360D02*
X236368432Y-35389360D01*
X236468432Y-35389360D01*
X236468432Y-35089360D01*
X236368432Y-35089360D01*
G36*
X236568432Y-35489360D02*
G01*
X236568432Y-35589360D01*
X236668432Y-35589360D01*
X236668432Y-35489360D01*
X236568432Y-35489360D01*
G37*
X236568432Y-35489360D02*
X236568432Y-35589360D01*
X236668432Y-35589360D01*
X236668432Y-35489360D01*
X236568432Y-35489360D01*
G36*
X236368432Y-35089360D02*
G01*
X236368432Y-35189360D01*
X236868432Y-35189360D01*
X236868432Y-35089360D01*
X236368432Y-35089360D01*
G37*
X236368432Y-35089360D02*
X236368432Y-35189360D01*
X236868432Y-35189360D01*
X236868432Y-35089360D01*
X236368432Y-35089360D01*
G36*
X236768432Y-35089360D02*
G01*
X236768432Y-35889360D01*
X236868432Y-35889360D01*
X236868432Y-35089360D01*
X236768432Y-35089360D01*
G37*
X236768432Y-35089360D02*
X236768432Y-35889360D01*
X236868432Y-35889360D01*
X236868432Y-35089360D01*
X236768432Y-35089360D01*
G36*
X236368432Y-35689360D02*
G01*
X236368432Y-35889360D01*
X236468432Y-35889360D01*
X236468432Y-35689360D01*
X236368432Y-35689360D01*
G37*
X236368432Y-35689360D02*
X236368432Y-35889360D01*
X236468432Y-35889360D01*
X236468432Y-35689360D01*
X236368432Y-35689360D01*
D12*
X232410000Y-29210000D02*
X232410000Y-26670000D01*
X232410000Y-26670000D02*
X250190000Y-26670000D01*
X250190000Y-26670000D02*
X250190000Y-29210000D01*
X247650000Y-29210000D02*
X250190000Y-29210000D01*
D13*
%TO.C,D43*%
X195675000Y-113100000D02*
X189875000Y-113100000D01*
X195675000Y-115500000D02*
X195675000Y-113100000D01*
X189875000Y-115500000D02*
X195675000Y-115500000D01*
X189950000Y-115500000D02*
X189950000Y-113100000D01*
X190075000Y-115500000D02*
X190075000Y-113100000D01*
X189850000Y-113100000D02*
X189850000Y-115500000D01*
X190250000Y-115500000D02*
X190250000Y-113100000D01*
X190425000Y-115500000D02*
X190425000Y-113100000D01*
X190600000Y-115500000D02*
X190600000Y-113100000D01*
D14*
%TO.C,R2*%
X242745000Y-43656250D02*
X239585000Y-43656250D01*
X244585000Y-43656250D02*
G75*
G03*
X244585000Y-43656250I-920000J0D01*
G01*
%TO.C,R1*%
X242745000Y-38100000D02*
X239585000Y-38100000D01*
X244585000Y-38100000D02*
G75*
G03*
X244585000Y-38100000I-920000J0D01*
G01*
D13*
%TO.C,D45*%
X160242000Y-104622750D02*
X154442000Y-104622750D01*
X160242000Y-107022750D02*
X160242000Y-104622750D01*
X154442000Y-107022750D02*
X160242000Y-107022750D01*
X154517000Y-107022750D02*
X154517000Y-104622750D01*
X154642000Y-107022750D02*
X154642000Y-104622750D01*
X154417000Y-104622750D02*
X154417000Y-107022750D01*
X154817000Y-107022750D02*
X154817000Y-104622750D01*
X154992000Y-107022750D02*
X154992000Y-104622750D01*
X155167000Y-107022750D02*
X155167000Y-104622750D01*
%TO.C,D44*%
X176625000Y-113100000D02*
X170825000Y-113100000D01*
X176625000Y-115500000D02*
X176625000Y-113100000D01*
X170825000Y-115500000D02*
X176625000Y-115500000D01*
X170900000Y-115500000D02*
X170900000Y-113100000D01*
X171025000Y-115500000D02*
X171025000Y-113100000D01*
X170800000Y-113100000D02*
X170800000Y-115500000D01*
X171200000Y-115500000D02*
X171200000Y-113100000D01*
X171375000Y-115500000D02*
X171375000Y-113100000D01*
X171550000Y-115500000D02*
X171550000Y-113100000D01*
%TO.C,D42*%
X214725000Y-115481250D02*
X208925000Y-115481250D01*
X214725000Y-117881250D02*
X214725000Y-115481250D01*
X208925000Y-117881250D02*
X214725000Y-117881250D01*
X209000000Y-117881250D02*
X209000000Y-115481250D01*
X209125000Y-117881250D02*
X209125000Y-115481250D01*
X208900000Y-115481250D02*
X208900000Y-117881250D01*
X209300000Y-117881250D02*
X209300000Y-115481250D01*
X209475000Y-117881250D02*
X209475000Y-115481250D01*
X209650000Y-117881250D02*
X209650000Y-115481250D01*
%TO.C,D41*%
X244028770Y-108893879D02*
X241128770Y-113916826D01*
X246107230Y-110093879D02*
X244028770Y-108893879D01*
X243207230Y-115116826D02*
X246107230Y-110093879D01*
X243244730Y-115051874D02*
X241166270Y-113851874D01*
X243307230Y-114943621D02*
X241228770Y-113743621D01*
X241116270Y-113938477D02*
X243194730Y-115138477D01*
X243394730Y-114792067D02*
X241316270Y-113592067D01*
X243482230Y-114640512D02*
X241403770Y-113440512D01*
X243569730Y-114488958D02*
X241491270Y-113288958D01*
%TO.C,D40*%
X49625000Y-97225000D02*
X43825000Y-97225000D01*
X49625000Y-99625000D02*
X49625000Y-97225000D01*
X43825000Y-99625000D02*
X49625000Y-99625000D01*
X43900000Y-99625000D02*
X43900000Y-97225000D01*
X44025000Y-99625000D02*
X44025000Y-97225000D01*
X43800000Y-97225000D02*
X43800000Y-99625000D01*
X44200000Y-99625000D02*
X44200000Y-97225000D01*
X44375000Y-99625000D02*
X44375000Y-97225000D01*
X44550000Y-99625000D02*
X44550000Y-97225000D01*
%TO.C,D39*%
X68675000Y-97225000D02*
X62875000Y-97225000D01*
X68675000Y-99625000D02*
X68675000Y-97225000D01*
X62875000Y-99625000D02*
X68675000Y-99625000D01*
X62950000Y-99625000D02*
X62950000Y-97225000D01*
X63075000Y-99625000D02*
X63075000Y-97225000D01*
X62850000Y-97225000D02*
X62850000Y-99625000D01*
X63250000Y-99625000D02*
X63250000Y-97225000D01*
X63425000Y-99625000D02*
X63425000Y-97225000D01*
X63600000Y-99625000D02*
X63600000Y-97225000D01*
%TO.C,D38*%
X87725000Y-97225000D02*
X81925000Y-97225000D01*
X87725000Y-99625000D02*
X87725000Y-97225000D01*
X81925000Y-99625000D02*
X87725000Y-99625000D01*
X82000000Y-99625000D02*
X82000000Y-97225000D01*
X82125000Y-99625000D02*
X82125000Y-97225000D01*
X81900000Y-97225000D02*
X81900000Y-99625000D01*
X82300000Y-99625000D02*
X82300000Y-97225000D01*
X82475000Y-99625000D02*
X82475000Y-97225000D01*
X82650000Y-99625000D02*
X82650000Y-97225000D01*
%TO.C,D37*%
X106775000Y-97225000D02*
X100975000Y-97225000D01*
X106775000Y-99625000D02*
X106775000Y-97225000D01*
X100975000Y-99625000D02*
X106775000Y-99625000D01*
X101050000Y-99625000D02*
X101050000Y-97225000D01*
X101175000Y-99625000D02*
X101175000Y-97225000D01*
X100950000Y-97225000D02*
X100950000Y-99625000D01*
X101350000Y-99625000D02*
X101350000Y-97225000D01*
X101525000Y-99625000D02*
X101525000Y-97225000D01*
X101700000Y-99625000D02*
X101700000Y-97225000D01*
%TO.C,D36*%
X128206250Y-97225000D02*
X122406250Y-97225000D01*
X128206250Y-99625000D02*
X128206250Y-97225000D01*
X122406250Y-99625000D02*
X128206250Y-99625000D01*
X122481250Y-99625000D02*
X122481250Y-97225000D01*
X122606250Y-99625000D02*
X122606250Y-97225000D01*
X122381250Y-97225000D02*
X122381250Y-99625000D01*
X122781250Y-99625000D02*
X122781250Y-97225000D01*
X122956250Y-99625000D02*
X122956250Y-97225000D01*
X123131250Y-99625000D02*
X123131250Y-97225000D01*
%TO.C,D35*%
X147256250Y-97225000D02*
X141456250Y-97225000D01*
X147256250Y-99625000D02*
X147256250Y-97225000D01*
X141456250Y-99625000D02*
X147256250Y-99625000D01*
X141531250Y-99625000D02*
X141531250Y-97225000D01*
X141656250Y-99625000D02*
X141656250Y-97225000D01*
X141431250Y-97225000D02*
X141431250Y-99625000D01*
X141831250Y-99625000D02*
X141831250Y-97225000D01*
X142006250Y-99625000D02*
X142006250Y-97225000D01*
X142181250Y-99625000D02*
X142181250Y-97225000D01*
%TO.C,D34*%
X166306250Y-90875000D02*
X160506250Y-90875000D01*
X166306250Y-93275000D02*
X166306250Y-90875000D01*
X160506250Y-93275000D02*
X166306250Y-93275000D01*
X160581250Y-93275000D02*
X160581250Y-90875000D01*
X160706250Y-93275000D02*
X160706250Y-90875000D01*
X160481250Y-90875000D02*
X160481250Y-93275000D01*
X160881250Y-93275000D02*
X160881250Y-90875000D01*
X161056250Y-93275000D02*
X161056250Y-90875000D01*
X161231250Y-93275000D02*
X161231250Y-90875000D01*
%TO.C,D33*%
X185356250Y-88493750D02*
X179556250Y-88493750D01*
X185356250Y-90893750D02*
X185356250Y-88493750D01*
X179556250Y-90893750D02*
X185356250Y-90893750D01*
X179631250Y-90893750D02*
X179631250Y-88493750D01*
X179756250Y-90893750D02*
X179756250Y-88493750D01*
X179531250Y-88493750D02*
X179531250Y-90893750D01*
X179931250Y-90893750D02*
X179931250Y-88493750D01*
X180106250Y-90893750D02*
X180106250Y-88493750D01*
X180281250Y-90893750D02*
X180281250Y-88493750D01*
%TO.C,D32*%
X204406250Y-90875000D02*
X198606250Y-90875000D01*
X204406250Y-93275000D02*
X204406250Y-90875000D01*
X198606250Y-93275000D02*
X204406250Y-93275000D01*
X198681250Y-93275000D02*
X198681250Y-90875000D01*
X198806250Y-93275000D02*
X198806250Y-90875000D01*
X198581250Y-90875000D02*
X198581250Y-93275000D01*
X198981250Y-93275000D02*
X198981250Y-90875000D01*
X199156250Y-93275000D02*
X199156250Y-90875000D01*
X199331250Y-93275000D02*
X199331250Y-90875000D01*
%TO.C,D31*%
X223456250Y-93256250D02*
X217656250Y-93256250D01*
X223456250Y-95656250D02*
X223456250Y-93256250D01*
X217656250Y-95656250D02*
X223456250Y-95656250D01*
X217731250Y-95656250D02*
X217731250Y-93256250D01*
X217856250Y-95656250D02*
X217856250Y-93256250D01*
X217631250Y-93256250D02*
X217631250Y-95656250D01*
X218031250Y-95656250D02*
X218031250Y-93256250D01*
X218206250Y-95656250D02*
X218206250Y-93256250D01*
X218381250Y-95656250D02*
X218381250Y-93256250D01*
%TO.C,D30*%
X49625000Y-78175000D02*
X43825000Y-78175000D01*
X49625000Y-80575000D02*
X49625000Y-78175000D01*
X43825000Y-80575000D02*
X49625000Y-80575000D01*
X43900000Y-80575000D02*
X43900000Y-78175000D01*
X44025000Y-80575000D02*
X44025000Y-78175000D01*
X43800000Y-78175000D02*
X43800000Y-80575000D01*
X44200000Y-80575000D02*
X44200000Y-78175000D01*
X44375000Y-80575000D02*
X44375000Y-78175000D01*
X44550000Y-80575000D02*
X44550000Y-78175000D01*
%TO.C,D29*%
X68675000Y-78175000D02*
X62875000Y-78175000D01*
X68675000Y-80575000D02*
X68675000Y-78175000D01*
X62875000Y-80575000D02*
X68675000Y-80575000D01*
X62950000Y-80575000D02*
X62950000Y-78175000D01*
X63075000Y-80575000D02*
X63075000Y-78175000D01*
X62850000Y-78175000D02*
X62850000Y-80575000D01*
X63250000Y-80575000D02*
X63250000Y-78175000D01*
X63425000Y-80575000D02*
X63425000Y-78175000D01*
X63600000Y-80575000D02*
X63600000Y-78175000D01*
%TO.C,D28*%
X87725000Y-78175000D02*
X81925000Y-78175000D01*
X87725000Y-80575000D02*
X87725000Y-78175000D01*
X81925000Y-80575000D02*
X87725000Y-80575000D01*
X82000000Y-80575000D02*
X82000000Y-78175000D01*
X82125000Y-80575000D02*
X82125000Y-78175000D01*
X81900000Y-78175000D02*
X81900000Y-80575000D01*
X82300000Y-80575000D02*
X82300000Y-78175000D01*
X82475000Y-80575000D02*
X82475000Y-78175000D01*
X82650000Y-80575000D02*
X82650000Y-78175000D01*
%TO.C,D27*%
X106775000Y-78175000D02*
X100975000Y-78175000D01*
X106775000Y-80575000D02*
X106775000Y-78175000D01*
X100975000Y-80575000D02*
X106775000Y-80575000D01*
X101050000Y-80575000D02*
X101050000Y-78175000D01*
X101175000Y-80575000D02*
X101175000Y-78175000D01*
X100950000Y-78175000D02*
X100950000Y-80575000D01*
X101350000Y-80575000D02*
X101350000Y-78175000D01*
X101525000Y-80575000D02*
X101525000Y-78175000D01*
X101700000Y-80575000D02*
X101700000Y-78175000D01*
%TO.C,D26*%
X128206250Y-78175000D02*
X122406250Y-78175000D01*
X128206250Y-80575000D02*
X128206250Y-78175000D01*
X122406250Y-80575000D02*
X128206250Y-80575000D01*
X122481250Y-80575000D02*
X122481250Y-78175000D01*
X122606250Y-80575000D02*
X122606250Y-78175000D01*
X122381250Y-78175000D02*
X122381250Y-80575000D01*
X122781250Y-80575000D02*
X122781250Y-78175000D01*
X122956250Y-80575000D02*
X122956250Y-78175000D01*
X123131250Y-80575000D02*
X123131250Y-78175000D01*
%TO.C,D25*%
X147256250Y-78175000D02*
X141456250Y-78175000D01*
X147256250Y-80575000D02*
X147256250Y-78175000D01*
X141456250Y-80575000D02*
X147256250Y-80575000D01*
X141531250Y-80575000D02*
X141531250Y-78175000D01*
X141656250Y-80575000D02*
X141656250Y-78175000D01*
X141431250Y-78175000D02*
X141431250Y-80575000D01*
X141831250Y-80575000D02*
X141831250Y-78175000D01*
X142006250Y-80575000D02*
X142006250Y-78175000D01*
X142181250Y-80575000D02*
X142181250Y-78175000D01*
%TO.C,D24*%
X166306250Y-71825000D02*
X160506250Y-71825000D01*
X166306250Y-74225000D02*
X166306250Y-71825000D01*
X160506250Y-74225000D02*
X166306250Y-74225000D01*
X160581250Y-74225000D02*
X160581250Y-71825000D01*
X160706250Y-74225000D02*
X160706250Y-71825000D01*
X160481250Y-71825000D02*
X160481250Y-74225000D01*
X160881250Y-74225000D02*
X160881250Y-71825000D01*
X161056250Y-74225000D02*
X161056250Y-71825000D01*
X161231250Y-74225000D02*
X161231250Y-71825000D01*
%TO.C,D23*%
X185356250Y-69443750D02*
X179556250Y-69443750D01*
X185356250Y-71843750D02*
X185356250Y-69443750D01*
X179556250Y-71843750D02*
X185356250Y-71843750D01*
X179631250Y-71843750D02*
X179631250Y-69443750D01*
X179756250Y-71843750D02*
X179756250Y-69443750D01*
X179531250Y-69443750D02*
X179531250Y-71843750D01*
X179931250Y-71843750D02*
X179931250Y-69443750D01*
X180106250Y-71843750D02*
X180106250Y-69443750D01*
X180281250Y-71843750D02*
X180281250Y-69443750D01*
%TO.C,D22*%
X204406250Y-71825000D02*
X198606250Y-71825000D01*
X204406250Y-74225000D02*
X204406250Y-71825000D01*
X198606250Y-74225000D02*
X204406250Y-74225000D01*
X198681250Y-74225000D02*
X198681250Y-71825000D01*
X198806250Y-74225000D02*
X198806250Y-71825000D01*
X198581250Y-71825000D02*
X198581250Y-74225000D01*
X198981250Y-74225000D02*
X198981250Y-71825000D01*
X199156250Y-74225000D02*
X199156250Y-71825000D01*
X199331250Y-74225000D02*
X199331250Y-71825000D01*
%TO.C,D21*%
X223456250Y-74206250D02*
X217656250Y-74206250D01*
X223456250Y-76606250D02*
X223456250Y-74206250D01*
X217656250Y-76606250D02*
X223456250Y-76606250D01*
X217731250Y-76606250D02*
X217731250Y-74206250D01*
X217856250Y-76606250D02*
X217856250Y-74206250D01*
X217631250Y-74206250D02*
X217631250Y-76606250D01*
X218031250Y-76606250D02*
X218031250Y-74206250D01*
X218206250Y-76606250D02*
X218206250Y-74206250D01*
X218381250Y-76606250D02*
X218381250Y-74206250D01*
%TO.C,D20*%
X49625000Y-59125000D02*
X43825000Y-59125000D01*
X49625000Y-61525000D02*
X49625000Y-59125000D01*
X43825000Y-61525000D02*
X49625000Y-61525000D01*
X43900000Y-61525000D02*
X43900000Y-59125000D01*
X44025000Y-61525000D02*
X44025000Y-59125000D01*
X43800000Y-59125000D02*
X43800000Y-61525000D01*
X44200000Y-61525000D02*
X44200000Y-59125000D01*
X44375000Y-61525000D02*
X44375000Y-59125000D01*
X44550000Y-61525000D02*
X44550000Y-59125000D01*
%TO.C,D19*%
X68675000Y-59125000D02*
X62875000Y-59125000D01*
X68675000Y-61525000D02*
X68675000Y-59125000D01*
X62875000Y-61525000D02*
X68675000Y-61525000D01*
X62950000Y-61525000D02*
X62950000Y-59125000D01*
X63075000Y-61525000D02*
X63075000Y-59125000D01*
X62850000Y-59125000D02*
X62850000Y-61525000D01*
X63250000Y-61525000D02*
X63250000Y-59125000D01*
X63425000Y-61525000D02*
X63425000Y-59125000D01*
X63600000Y-61525000D02*
X63600000Y-59125000D01*
%TO.C,D18*%
X87725000Y-59125000D02*
X81925000Y-59125000D01*
X87725000Y-61525000D02*
X87725000Y-59125000D01*
X81925000Y-61525000D02*
X87725000Y-61525000D01*
X82000000Y-61525000D02*
X82000000Y-59125000D01*
X82125000Y-61525000D02*
X82125000Y-59125000D01*
X81900000Y-59125000D02*
X81900000Y-61525000D01*
X82300000Y-61525000D02*
X82300000Y-59125000D01*
X82475000Y-61525000D02*
X82475000Y-59125000D01*
X82650000Y-61525000D02*
X82650000Y-59125000D01*
%TO.C,D17*%
X106648000Y-59125000D02*
X100848000Y-59125000D01*
X106648000Y-61525000D02*
X106648000Y-59125000D01*
X100848000Y-61525000D02*
X106648000Y-61525000D01*
X100923000Y-61525000D02*
X100923000Y-59125000D01*
X101048000Y-61525000D02*
X101048000Y-59125000D01*
X100823000Y-59125000D02*
X100823000Y-61525000D01*
X101223000Y-61525000D02*
X101223000Y-59125000D01*
X101398000Y-61525000D02*
X101398000Y-59125000D01*
X101573000Y-61525000D02*
X101573000Y-59125000D01*
%TO.C,D16*%
X128206250Y-59125000D02*
X122406250Y-59125000D01*
X128206250Y-61525000D02*
X128206250Y-59125000D01*
X122406250Y-61525000D02*
X128206250Y-61525000D01*
X122481250Y-61525000D02*
X122481250Y-59125000D01*
X122606250Y-61525000D02*
X122606250Y-59125000D01*
X122381250Y-59125000D02*
X122381250Y-61525000D01*
X122781250Y-61525000D02*
X122781250Y-59125000D01*
X122956250Y-61525000D02*
X122956250Y-59125000D01*
X123131250Y-61525000D02*
X123131250Y-59125000D01*
%TO.C,D15*%
X147256250Y-59125000D02*
X141456250Y-59125000D01*
X147256250Y-61525000D02*
X147256250Y-59125000D01*
X141456250Y-61525000D02*
X147256250Y-61525000D01*
X141531250Y-61525000D02*
X141531250Y-59125000D01*
X141656250Y-61525000D02*
X141656250Y-59125000D01*
X141431250Y-59125000D02*
X141431250Y-61525000D01*
X141831250Y-61525000D02*
X141831250Y-59125000D01*
X142006250Y-61525000D02*
X142006250Y-59125000D01*
X142181250Y-61525000D02*
X142181250Y-59125000D01*
%TO.C,D14*%
X166306250Y-52775000D02*
X160506250Y-52775000D01*
X166306250Y-55175000D02*
X166306250Y-52775000D01*
X160506250Y-55175000D02*
X166306250Y-55175000D01*
X160581250Y-55175000D02*
X160581250Y-52775000D01*
X160706250Y-55175000D02*
X160706250Y-52775000D01*
X160481250Y-52775000D02*
X160481250Y-55175000D01*
X160881250Y-55175000D02*
X160881250Y-52775000D01*
X161056250Y-55175000D02*
X161056250Y-52775000D01*
X161231250Y-55175000D02*
X161231250Y-52775000D01*
%TO.C,D13*%
X185356250Y-50393750D02*
X179556250Y-50393750D01*
X185356250Y-52793750D02*
X185356250Y-50393750D01*
X179556250Y-52793750D02*
X185356250Y-52793750D01*
X179631250Y-52793750D02*
X179631250Y-50393750D01*
X179756250Y-52793750D02*
X179756250Y-50393750D01*
X179531250Y-50393750D02*
X179531250Y-52793750D01*
X179931250Y-52793750D02*
X179931250Y-50393750D01*
X180106250Y-52793750D02*
X180106250Y-50393750D01*
X180281250Y-52793750D02*
X180281250Y-50393750D01*
%TO.C,D12*%
X204406250Y-52775000D02*
X198606250Y-52775000D01*
X204406250Y-55175000D02*
X204406250Y-52775000D01*
X198606250Y-55175000D02*
X204406250Y-55175000D01*
X198681250Y-55175000D02*
X198681250Y-52775000D01*
X198806250Y-55175000D02*
X198806250Y-52775000D01*
X198581250Y-52775000D02*
X198581250Y-55175000D01*
X198981250Y-55175000D02*
X198981250Y-52775000D01*
X199156250Y-55175000D02*
X199156250Y-52775000D01*
X199331250Y-55175000D02*
X199331250Y-52775000D01*
%TO.C,D11*%
X223456250Y-55156250D02*
X217656250Y-55156250D01*
X223456250Y-57556250D02*
X223456250Y-55156250D01*
X217656250Y-57556250D02*
X223456250Y-57556250D01*
X217731250Y-57556250D02*
X217731250Y-55156250D01*
X217856250Y-57556250D02*
X217856250Y-55156250D01*
X217631250Y-55156250D02*
X217631250Y-57556250D01*
X218031250Y-57556250D02*
X218031250Y-55156250D01*
X218206250Y-57556250D02*
X218206250Y-55156250D01*
X218381250Y-57556250D02*
X218381250Y-55156250D01*
%TO.C,D10*%
X49625000Y-40075000D02*
X43825000Y-40075000D01*
X49625000Y-42475000D02*
X49625000Y-40075000D01*
X43825000Y-42475000D02*
X49625000Y-42475000D01*
X43900000Y-42475000D02*
X43900000Y-40075000D01*
X44025000Y-42475000D02*
X44025000Y-40075000D01*
X43800000Y-40075000D02*
X43800000Y-42475000D01*
X44200000Y-42475000D02*
X44200000Y-40075000D01*
X44375000Y-42475000D02*
X44375000Y-40075000D01*
X44550000Y-42475000D02*
X44550000Y-40075000D01*
%TO.C,D9*%
X68675000Y-40075000D02*
X62875000Y-40075000D01*
X68675000Y-42475000D02*
X68675000Y-40075000D01*
X62875000Y-42475000D02*
X68675000Y-42475000D01*
X62950000Y-42475000D02*
X62950000Y-40075000D01*
X63075000Y-42475000D02*
X63075000Y-40075000D01*
X62850000Y-40075000D02*
X62850000Y-42475000D01*
X63250000Y-42475000D02*
X63250000Y-40075000D01*
X63425000Y-42475000D02*
X63425000Y-40075000D01*
X63600000Y-42475000D02*
X63600000Y-40075000D01*
%TO.C,D8*%
X87725000Y-40075000D02*
X81925000Y-40075000D01*
X87725000Y-42475000D02*
X87725000Y-40075000D01*
X81925000Y-42475000D02*
X87725000Y-42475000D01*
X82000000Y-42475000D02*
X82000000Y-40075000D01*
X82125000Y-42475000D02*
X82125000Y-40075000D01*
X81900000Y-40075000D02*
X81900000Y-42475000D01*
X82300000Y-42475000D02*
X82300000Y-40075000D01*
X82475000Y-42475000D02*
X82475000Y-40075000D01*
X82650000Y-42475000D02*
X82650000Y-40075000D01*
%TO.C,D7*%
X106775000Y-40075000D02*
X100975000Y-40075000D01*
X106775000Y-42475000D02*
X106775000Y-40075000D01*
X100975000Y-42475000D02*
X106775000Y-42475000D01*
X101050000Y-42475000D02*
X101050000Y-40075000D01*
X101175000Y-42475000D02*
X101175000Y-40075000D01*
X100950000Y-40075000D02*
X100950000Y-42475000D01*
X101350000Y-42475000D02*
X101350000Y-40075000D01*
X101525000Y-42475000D02*
X101525000Y-40075000D01*
X101700000Y-42475000D02*
X101700000Y-40075000D01*
%TO.C,D6*%
X128206250Y-40075000D02*
X122406250Y-40075000D01*
X128206250Y-42475000D02*
X128206250Y-40075000D01*
X122406250Y-42475000D02*
X128206250Y-42475000D01*
X122481250Y-42475000D02*
X122481250Y-40075000D01*
X122606250Y-42475000D02*
X122606250Y-40075000D01*
X122381250Y-40075000D02*
X122381250Y-42475000D01*
X122781250Y-42475000D02*
X122781250Y-40075000D01*
X122956250Y-42475000D02*
X122956250Y-40075000D01*
X123131250Y-42475000D02*
X123131250Y-40075000D01*
%TO.C,D5*%
X147256250Y-40075000D02*
X141456250Y-40075000D01*
X147256250Y-42475000D02*
X147256250Y-40075000D01*
X141456250Y-42475000D02*
X147256250Y-42475000D01*
X141531250Y-42475000D02*
X141531250Y-40075000D01*
X141656250Y-42475000D02*
X141656250Y-40075000D01*
X141431250Y-40075000D02*
X141431250Y-42475000D01*
X141831250Y-42475000D02*
X141831250Y-40075000D01*
X142006250Y-42475000D02*
X142006250Y-40075000D01*
X142181250Y-42475000D02*
X142181250Y-40075000D01*
%TO.C,D4*%
X166306250Y-33725000D02*
X160506250Y-33725000D01*
X166306250Y-36125000D02*
X166306250Y-33725000D01*
X160506250Y-36125000D02*
X166306250Y-36125000D01*
X160581250Y-36125000D02*
X160581250Y-33725000D01*
X160706250Y-36125000D02*
X160706250Y-33725000D01*
X160481250Y-33725000D02*
X160481250Y-36125000D01*
X160881250Y-36125000D02*
X160881250Y-33725000D01*
X161056250Y-36125000D02*
X161056250Y-33725000D01*
X161231250Y-36125000D02*
X161231250Y-33725000D01*
%TO.C,D3*%
X185356250Y-31343750D02*
X179556250Y-31343750D01*
X185356250Y-33743750D02*
X185356250Y-31343750D01*
X179556250Y-33743750D02*
X185356250Y-33743750D01*
X179631250Y-33743750D02*
X179631250Y-31343750D01*
X179756250Y-33743750D02*
X179756250Y-31343750D01*
X179531250Y-31343750D02*
X179531250Y-33743750D01*
X179931250Y-33743750D02*
X179931250Y-31343750D01*
X180106250Y-33743750D02*
X180106250Y-31343750D01*
X180281250Y-33743750D02*
X180281250Y-31343750D01*
%TO.C,D2*%
X204406250Y-33725000D02*
X198606250Y-33725000D01*
X204406250Y-36125000D02*
X204406250Y-33725000D01*
X198606250Y-36125000D02*
X204406250Y-36125000D01*
X198681250Y-36125000D02*
X198681250Y-33725000D01*
X198806250Y-36125000D02*
X198806250Y-33725000D01*
X198581250Y-33725000D02*
X198581250Y-36125000D01*
X198981250Y-36125000D02*
X198981250Y-33725000D01*
X199156250Y-36125000D02*
X199156250Y-33725000D01*
X199331250Y-36125000D02*
X199331250Y-33725000D01*
%TO.C,D1*%
X223456250Y-36106250D02*
X217656250Y-36106250D01*
X223456250Y-38506250D02*
X223456250Y-36106250D01*
X217656250Y-38506250D02*
X223456250Y-38506250D01*
X217731250Y-38506250D02*
X217731250Y-36106250D01*
X217856250Y-38506250D02*
X217856250Y-36106250D01*
X217631250Y-36106250D02*
X217631250Y-38506250D01*
X218031250Y-38506250D02*
X218031250Y-36106250D01*
X218206250Y-38506250D02*
X218206250Y-36106250D01*
X218381250Y-38506250D02*
X218381250Y-36106250D01*
%TO.C,MX39*%
D10*
X67643154Y-85859880D02*
X67643154Y-84859880D01*
X67309821Y-85574166D01*
X66976488Y-84859880D01*
X66976488Y-85859880D01*
X66595535Y-84859880D02*
X65928869Y-85859880D01*
X65928869Y-84859880D02*
X66595535Y-85859880D01*
X65643154Y-84859880D02*
X65024107Y-84859880D01*
X65357440Y-85240833D01*
X65214583Y-85240833D01*
X65119345Y-85288452D01*
X65071726Y-85336071D01*
X65024107Y-85431309D01*
X65024107Y-85669404D01*
X65071726Y-85764642D01*
X65119345Y-85812261D01*
X65214583Y-85859880D01*
X65500297Y-85859880D01*
X65595535Y-85812261D01*
X65643154Y-85764642D01*
X64547916Y-85859880D02*
X64357440Y-85859880D01*
X64262202Y-85812261D01*
X64214583Y-85764642D01*
X64119345Y-85621785D01*
X64071726Y-85431309D01*
X64071726Y-85050357D01*
X64119345Y-84955119D01*
X64166964Y-84907500D01*
X64262202Y-84859880D01*
X64452678Y-84859880D01*
X64547916Y-84907500D01*
X64595535Y-84955119D01*
X64643154Y-85050357D01*
X64643154Y-85288452D01*
X64595535Y-85383690D01*
X64547916Y-85431309D01*
X64452678Y-85478928D01*
X64262202Y-85478928D01*
X64166964Y-85431309D01*
X64119345Y-85383690D01*
X64071726Y-85288452D01*
%TO.C,MX36*%
X127174404Y-85859880D02*
X127174404Y-84859880D01*
X126841071Y-85574166D01*
X126507738Y-84859880D01*
X126507738Y-85859880D01*
X126126785Y-84859880D02*
X125460119Y-85859880D01*
X125460119Y-84859880D02*
X126126785Y-85859880D01*
X125174404Y-84859880D02*
X124555357Y-84859880D01*
X124888690Y-85240833D01*
X124745833Y-85240833D01*
X124650595Y-85288452D01*
X124602976Y-85336071D01*
X124555357Y-85431309D01*
X124555357Y-85669404D01*
X124602976Y-85764642D01*
X124650595Y-85812261D01*
X124745833Y-85859880D01*
X125031547Y-85859880D01*
X125126785Y-85812261D01*
X125174404Y-85764642D01*
X123698214Y-84859880D02*
X123888690Y-84859880D01*
X123983928Y-84907500D01*
X124031547Y-84955119D01*
X124126785Y-85097976D01*
X124174404Y-85288452D01*
X124174404Y-85669404D01*
X124126785Y-85764642D01*
X124079166Y-85812261D01*
X123983928Y-85859880D01*
X123793452Y-85859880D01*
X123698214Y-85812261D01*
X123650595Y-85764642D01*
X123602976Y-85669404D01*
X123602976Y-85431309D01*
X123650595Y-85336071D01*
X123698214Y-85288452D01*
X123793452Y-85240833D01*
X123983928Y-85240833D01*
X124079166Y-85288452D01*
X124126785Y-85336071D01*
X124174404Y-85431309D01*
%TO.C,MX21*%
X222424404Y-62841130D02*
X222424404Y-61841130D01*
X222091071Y-62555416D01*
X221757738Y-61841130D01*
X221757738Y-62841130D01*
X221376785Y-61841130D02*
X220710119Y-62841130D01*
X220710119Y-61841130D02*
X221376785Y-62841130D01*
X220376785Y-61936369D02*
X220329166Y-61888750D01*
X220233928Y-61841130D01*
X219995833Y-61841130D01*
X219900595Y-61888750D01*
X219852976Y-61936369D01*
X219805357Y-62031607D01*
X219805357Y-62126845D01*
X219852976Y-62269702D01*
X220424404Y-62841130D01*
X219805357Y-62841130D01*
X218852976Y-62841130D02*
X219424404Y-62841130D01*
X219138690Y-62841130D02*
X219138690Y-61841130D01*
X219233928Y-61983988D01*
X219329166Y-62079226D01*
X219424404Y-62126845D01*
%TO.C,MX41*%
X233607685Y-104332586D02*
X232741660Y-103832586D01*
X233193583Y-104478404D01*
X232408327Y-104409936D01*
X233274352Y-104909936D01*
X232217850Y-104739850D02*
X232750542Y-105817201D01*
X231884517Y-105317201D02*
X233083876Y-105239850D01*
X231768430Y-106184936D02*
X232345781Y-106518269D01*
X231557563Y-105788263D02*
X232295201Y-105939209D01*
X231985677Y-106475320D01*
X231821971Y-107425534D02*
X232107685Y-106930662D01*
X231964828Y-107178098D02*
X231098803Y-106678098D01*
X231270140Y-106667048D01*
X231400237Y-106632188D01*
X231489096Y-106573519D01*
%TO.C,MX10*%
X48593154Y-28709880D02*
X48593154Y-27709880D01*
X48259821Y-28424166D01*
X47926488Y-27709880D01*
X47926488Y-28709880D01*
X47545535Y-27709880D02*
X46878869Y-28709880D01*
X46878869Y-27709880D02*
X47545535Y-28709880D01*
X45974107Y-28709880D02*
X46545535Y-28709880D01*
X46259821Y-28709880D02*
X46259821Y-27709880D01*
X46355059Y-27852738D01*
X46450297Y-27947976D01*
X46545535Y-27995595D01*
X45355059Y-27709880D02*
X45259821Y-27709880D01*
X45164583Y-27757500D01*
X45116964Y-27805119D01*
X45069345Y-27900357D01*
X45021726Y-28090833D01*
X45021726Y-28328928D01*
X45069345Y-28519404D01*
X45116964Y-28614642D01*
X45164583Y-28662261D01*
X45259821Y-28709880D01*
X45355059Y-28709880D01*
X45450297Y-28662261D01*
X45497916Y-28614642D01*
X45545535Y-28519404D01*
X45593154Y-28328928D01*
X45593154Y-28090833D01*
X45545535Y-27900357D01*
X45497916Y-27805119D01*
X45450297Y-27757500D01*
X45355059Y-27709880D01*
%TO.C,MX15*%
X146224404Y-47759880D02*
X146224404Y-46759880D01*
X145891071Y-47474166D01*
X145557738Y-46759880D01*
X145557738Y-47759880D01*
X145176785Y-46759880D02*
X144510119Y-47759880D01*
X144510119Y-46759880D02*
X145176785Y-47759880D01*
X143605357Y-47759880D02*
X144176785Y-47759880D01*
X143891071Y-47759880D02*
X143891071Y-46759880D01*
X143986309Y-46902738D01*
X144081547Y-46997976D01*
X144176785Y-47045595D01*
X142700595Y-46759880D02*
X143176785Y-46759880D01*
X143224404Y-47236071D01*
X143176785Y-47188452D01*
X143081547Y-47140833D01*
X142843452Y-47140833D01*
X142748214Y-47188452D01*
X142700595Y-47236071D01*
X142652976Y-47331309D01*
X142652976Y-47569404D01*
X142700595Y-47664642D01*
X142748214Y-47712261D01*
X142843452Y-47759880D01*
X143081547Y-47759880D01*
X143176785Y-47712261D01*
X143224404Y-47664642D01*
%TO.C,MX44*%
X175586904Y-101449130D02*
X175586904Y-100449130D01*
X175253571Y-101163416D01*
X174920238Y-100449130D01*
X174920238Y-101449130D01*
X174539285Y-100449130D02*
X173872619Y-101449130D01*
X173872619Y-100449130D02*
X174539285Y-101449130D01*
X173063095Y-100782464D02*
X173063095Y-101449130D01*
X173301190Y-100401511D02*
X173539285Y-101115797D01*
X172920238Y-101115797D01*
X172110714Y-100782464D02*
X172110714Y-101449130D01*
X172348809Y-100401511D02*
X172586904Y-101115797D01*
X171967857Y-101115797D01*
%TO.C,MX43*%
X194636904Y-101449130D02*
X194636904Y-100449130D01*
X194303571Y-101163416D01*
X193970238Y-100449130D01*
X193970238Y-101449130D01*
X193589285Y-100449130D02*
X192922619Y-101449130D01*
X192922619Y-100449130D02*
X193589285Y-101449130D01*
X192113095Y-100782464D02*
X192113095Y-101449130D01*
X192351190Y-100401511D02*
X192589285Y-101115797D01*
X191970238Y-101115797D01*
X191684523Y-100449130D02*
X191065476Y-100449130D01*
X191398809Y-100830083D01*
X191255952Y-100830083D01*
X191160714Y-100877702D01*
X191113095Y-100925321D01*
X191065476Y-101020559D01*
X191065476Y-101258654D01*
X191113095Y-101353892D01*
X191160714Y-101401511D01*
X191255952Y-101449130D01*
X191541666Y-101449130D01*
X191636904Y-101401511D01*
X191684523Y-101353892D01*
%TO.C,MX42*%
X213686904Y-104116130D02*
X213686904Y-103116130D01*
X213353571Y-103830416D01*
X213020238Y-103116130D01*
X213020238Y-104116130D01*
X212639285Y-103116130D02*
X211972619Y-104116130D01*
X211972619Y-103116130D02*
X212639285Y-104116130D01*
X211163095Y-103449464D02*
X211163095Y-104116130D01*
X211401190Y-103068511D02*
X211639285Y-103782797D01*
X211020238Y-103782797D01*
X210686904Y-103211369D02*
X210639285Y-103163750D01*
X210544047Y-103116130D01*
X210305952Y-103116130D01*
X210210714Y-103163750D01*
X210163095Y-103211369D01*
X210115476Y-103306607D01*
X210115476Y-103401845D01*
X210163095Y-103544702D01*
X210734523Y-104116130D01*
X210115476Y-104116130D01*
%TO.C,MX40*%
X48593154Y-85859880D02*
X48593154Y-84859880D01*
X48259821Y-85574166D01*
X47926488Y-84859880D01*
X47926488Y-85859880D01*
X47545535Y-84859880D02*
X46878869Y-85859880D01*
X46878869Y-84859880D02*
X47545535Y-85859880D01*
X46069345Y-85193214D02*
X46069345Y-85859880D01*
X46307440Y-84812261D02*
X46545535Y-85526547D01*
X45926488Y-85526547D01*
X45355059Y-84859880D02*
X45259821Y-84859880D01*
X45164583Y-84907500D01*
X45116964Y-84955119D01*
X45069345Y-85050357D01*
X45021726Y-85240833D01*
X45021726Y-85478928D01*
X45069345Y-85669404D01*
X45116964Y-85764642D01*
X45164583Y-85812261D01*
X45259821Y-85859880D01*
X45355059Y-85859880D01*
X45450297Y-85812261D01*
X45497916Y-85764642D01*
X45545535Y-85669404D01*
X45593154Y-85478928D01*
X45593154Y-85240833D01*
X45545535Y-85050357D01*
X45497916Y-84955119D01*
X45450297Y-84907500D01*
X45355059Y-84859880D01*
%TO.C,MX38*%
X86693154Y-85859880D02*
X86693154Y-84859880D01*
X86359821Y-85574166D01*
X86026488Y-84859880D01*
X86026488Y-85859880D01*
X85645535Y-84859880D02*
X84978869Y-85859880D01*
X84978869Y-84859880D02*
X85645535Y-85859880D01*
X84693154Y-84859880D02*
X84074107Y-84859880D01*
X84407440Y-85240833D01*
X84264583Y-85240833D01*
X84169345Y-85288452D01*
X84121726Y-85336071D01*
X84074107Y-85431309D01*
X84074107Y-85669404D01*
X84121726Y-85764642D01*
X84169345Y-85812261D01*
X84264583Y-85859880D01*
X84550297Y-85859880D01*
X84645535Y-85812261D01*
X84693154Y-85764642D01*
X83502678Y-85288452D02*
X83597916Y-85240833D01*
X83645535Y-85193214D01*
X83693154Y-85097976D01*
X83693154Y-85050357D01*
X83645535Y-84955119D01*
X83597916Y-84907500D01*
X83502678Y-84859880D01*
X83312202Y-84859880D01*
X83216964Y-84907500D01*
X83169345Y-84955119D01*
X83121726Y-85050357D01*
X83121726Y-85097976D01*
X83169345Y-85193214D01*
X83216964Y-85240833D01*
X83312202Y-85288452D01*
X83502678Y-85288452D01*
X83597916Y-85336071D01*
X83645535Y-85383690D01*
X83693154Y-85478928D01*
X83693154Y-85669404D01*
X83645535Y-85764642D01*
X83597916Y-85812261D01*
X83502678Y-85859880D01*
X83312202Y-85859880D01*
X83216964Y-85812261D01*
X83169345Y-85764642D01*
X83121726Y-85669404D01*
X83121726Y-85478928D01*
X83169345Y-85383690D01*
X83216964Y-85336071D01*
X83312202Y-85288452D01*
%TO.C,MX37*%
X105743154Y-85859880D02*
X105743154Y-84859880D01*
X105409821Y-85574166D01*
X105076488Y-84859880D01*
X105076488Y-85859880D01*
X104695535Y-84859880D02*
X104028869Y-85859880D01*
X104028869Y-84859880D02*
X104695535Y-85859880D01*
X103743154Y-84859880D02*
X103124107Y-84859880D01*
X103457440Y-85240833D01*
X103314583Y-85240833D01*
X103219345Y-85288452D01*
X103171726Y-85336071D01*
X103124107Y-85431309D01*
X103124107Y-85669404D01*
X103171726Y-85764642D01*
X103219345Y-85812261D01*
X103314583Y-85859880D01*
X103600297Y-85859880D01*
X103695535Y-85812261D01*
X103743154Y-85764642D01*
X102790773Y-84859880D02*
X102124107Y-84859880D01*
X102552678Y-85859880D01*
%TO.C,MX35*%
X146224404Y-85859880D02*
X146224404Y-84859880D01*
X145891071Y-85574166D01*
X145557738Y-84859880D01*
X145557738Y-85859880D01*
X145176785Y-84859880D02*
X144510119Y-85859880D01*
X144510119Y-84859880D02*
X145176785Y-85859880D01*
X144224404Y-84859880D02*
X143605357Y-84859880D01*
X143938690Y-85240833D01*
X143795833Y-85240833D01*
X143700595Y-85288452D01*
X143652976Y-85336071D01*
X143605357Y-85431309D01*
X143605357Y-85669404D01*
X143652976Y-85764642D01*
X143700595Y-85812261D01*
X143795833Y-85859880D01*
X144081547Y-85859880D01*
X144176785Y-85812261D01*
X144224404Y-85764642D01*
X142700595Y-84859880D02*
X143176785Y-84859880D01*
X143224404Y-85336071D01*
X143176785Y-85288452D01*
X143081547Y-85240833D01*
X142843452Y-85240833D01*
X142748214Y-85288452D01*
X142700595Y-85336071D01*
X142652976Y-85431309D01*
X142652976Y-85669404D01*
X142700595Y-85764642D01*
X142748214Y-85812261D01*
X142843452Y-85859880D01*
X143081547Y-85859880D01*
X143176785Y-85812261D01*
X143224404Y-85764642D01*
%TO.C,MX34*%
X165274404Y-79509880D02*
X165274404Y-78509880D01*
X164941071Y-79224166D01*
X164607738Y-78509880D01*
X164607738Y-79509880D01*
X164226785Y-78509880D02*
X163560119Y-79509880D01*
X163560119Y-78509880D02*
X164226785Y-79509880D01*
X163274404Y-78509880D02*
X162655357Y-78509880D01*
X162988690Y-78890833D01*
X162845833Y-78890833D01*
X162750595Y-78938452D01*
X162702976Y-78986071D01*
X162655357Y-79081309D01*
X162655357Y-79319404D01*
X162702976Y-79414642D01*
X162750595Y-79462261D01*
X162845833Y-79509880D01*
X163131547Y-79509880D01*
X163226785Y-79462261D01*
X163274404Y-79414642D01*
X161798214Y-78843214D02*
X161798214Y-79509880D01*
X162036309Y-78462261D02*
X162274404Y-79176547D01*
X161655357Y-79176547D01*
%TO.C,MX33*%
X184324404Y-77128630D02*
X184324404Y-76128630D01*
X183991071Y-76842916D01*
X183657738Y-76128630D01*
X183657738Y-77128630D01*
X183276785Y-76128630D02*
X182610119Y-77128630D01*
X182610119Y-76128630D02*
X183276785Y-77128630D01*
X182324404Y-76128630D02*
X181705357Y-76128630D01*
X182038690Y-76509583D01*
X181895833Y-76509583D01*
X181800595Y-76557202D01*
X181752976Y-76604821D01*
X181705357Y-76700059D01*
X181705357Y-76938154D01*
X181752976Y-77033392D01*
X181800595Y-77081011D01*
X181895833Y-77128630D01*
X182181547Y-77128630D01*
X182276785Y-77081011D01*
X182324404Y-77033392D01*
X181372023Y-76128630D02*
X180752976Y-76128630D01*
X181086309Y-76509583D01*
X180943452Y-76509583D01*
X180848214Y-76557202D01*
X180800595Y-76604821D01*
X180752976Y-76700059D01*
X180752976Y-76938154D01*
X180800595Y-77033392D01*
X180848214Y-77081011D01*
X180943452Y-77128630D01*
X181229166Y-77128630D01*
X181324404Y-77081011D01*
X181372023Y-77033392D01*
%TO.C,MX32*%
X203374404Y-79509880D02*
X203374404Y-78509880D01*
X203041071Y-79224166D01*
X202707738Y-78509880D01*
X202707738Y-79509880D01*
X202326785Y-78509880D02*
X201660119Y-79509880D01*
X201660119Y-78509880D02*
X202326785Y-79509880D01*
X201374404Y-78509880D02*
X200755357Y-78509880D01*
X201088690Y-78890833D01*
X200945833Y-78890833D01*
X200850595Y-78938452D01*
X200802976Y-78986071D01*
X200755357Y-79081309D01*
X200755357Y-79319404D01*
X200802976Y-79414642D01*
X200850595Y-79462261D01*
X200945833Y-79509880D01*
X201231547Y-79509880D01*
X201326785Y-79462261D01*
X201374404Y-79414642D01*
X200374404Y-78605119D02*
X200326785Y-78557500D01*
X200231547Y-78509880D01*
X199993452Y-78509880D01*
X199898214Y-78557500D01*
X199850595Y-78605119D01*
X199802976Y-78700357D01*
X199802976Y-78795595D01*
X199850595Y-78938452D01*
X200422023Y-79509880D01*
X199802976Y-79509880D01*
%TO.C,MX31*%
X222424404Y-81891130D02*
X222424404Y-80891130D01*
X222091071Y-81605416D01*
X221757738Y-80891130D01*
X221757738Y-81891130D01*
X221376785Y-80891130D02*
X220710119Y-81891130D01*
X220710119Y-80891130D02*
X221376785Y-81891130D01*
X220424404Y-80891130D02*
X219805357Y-80891130D01*
X220138690Y-81272083D01*
X219995833Y-81272083D01*
X219900595Y-81319702D01*
X219852976Y-81367321D01*
X219805357Y-81462559D01*
X219805357Y-81700654D01*
X219852976Y-81795892D01*
X219900595Y-81843511D01*
X219995833Y-81891130D01*
X220281547Y-81891130D01*
X220376785Y-81843511D01*
X220424404Y-81795892D01*
X218852976Y-81891130D02*
X219424404Y-81891130D01*
X219138690Y-81891130D02*
X219138690Y-80891130D01*
X219233928Y-81033988D01*
X219329166Y-81129226D01*
X219424404Y-81176845D01*
%TO.C,MX30*%
X48593154Y-66809880D02*
X48593154Y-65809880D01*
X48259821Y-66524166D01*
X47926488Y-65809880D01*
X47926488Y-66809880D01*
X47545535Y-65809880D02*
X46878869Y-66809880D01*
X46878869Y-65809880D02*
X47545535Y-66809880D01*
X46593154Y-65809880D02*
X45974107Y-65809880D01*
X46307440Y-66190833D01*
X46164583Y-66190833D01*
X46069345Y-66238452D01*
X46021726Y-66286071D01*
X45974107Y-66381309D01*
X45974107Y-66619404D01*
X46021726Y-66714642D01*
X46069345Y-66762261D01*
X46164583Y-66809880D01*
X46450297Y-66809880D01*
X46545535Y-66762261D01*
X46593154Y-66714642D01*
X45355059Y-65809880D02*
X45259821Y-65809880D01*
X45164583Y-65857500D01*
X45116964Y-65905119D01*
X45069345Y-66000357D01*
X45021726Y-66190833D01*
X45021726Y-66428928D01*
X45069345Y-66619404D01*
X45116964Y-66714642D01*
X45164583Y-66762261D01*
X45259821Y-66809880D01*
X45355059Y-66809880D01*
X45450297Y-66762261D01*
X45497916Y-66714642D01*
X45545535Y-66619404D01*
X45593154Y-66428928D01*
X45593154Y-66190833D01*
X45545535Y-66000357D01*
X45497916Y-65905119D01*
X45450297Y-65857500D01*
X45355059Y-65809880D01*
%TO.C,MX29*%
X67643154Y-66809880D02*
X67643154Y-65809880D01*
X67309821Y-66524166D01*
X66976488Y-65809880D01*
X66976488Y-66809880D01*
X66595535Y-65809880D02*
X65928869Y-66809880D01*
X65928869Y-65809880D02*
X66595535Y-66809880D01*
X65595535Y-65905119D02*
X65547916Y-65857500D01*
X65452678Y-65809880D01*
X65214583Y-65809880D01*
X65119345Y-65857500D01*
X65071726Y-65905119D01*
X65024107Y-66000357D01*
X65024107Y-66095595D01*
X65071726Y-66238452D01*
X65643154Y-66809880D01*
X65024107Y-66809880D01*
X64547916Y-66809880D02*
X64357440Y-66809880D01*
X64262202Y-66762261D01*
X64214583Y-66714642D01*
X64119345Y-66571785D01*
X64071726Y-66381309D01*
X64071726Y-66000357D01*
X64119345Y-65905119D01*
X64166964Y-65857500D01*
X64262202Y-65809880D01*
X64452678Y-65809880D01*
X64547916Y-65857500D01*
X64595535Y-65905119D01*
X64643154Y-66000357D01*
X64643154Y-66238452D01*
X64595535Y-66333690D01*
X64547916Y-66381309D01*
X64452678Y-66428928D01*
X64262202Y-66428928D01*
X64166964Y-66381309D01*
X64119345Y-66333690D01*
X64071726Y-66238452D01*
%TO.C,MX28*%
X86693154Y-66809880D02*
X86693154Y-65809880D01*
X86359821Y-66524166D01*
X86026488Y-65809880D01*
X86026488Y-66809880D01*
X85645535Y-65809880D02*
X84978869Y-66809880D01*
X84978869Y-65809880D02*
X85645535Y-66809880D01*
X84645535Y-65905119D02*
X84597916Y-65857500D01*
X84502678Y-65809880D01*
X84264583Y-65809880D01*
X84169345Y-65857500D01*
X84121726Y-65905119D01*
X84074107Y-66000357D01*
X84074107Y-66095595D01*
X84121726Y-66238452D01*
X84693154Y-66809880D01*
X84074107Y-66809880D01*
X83502678Y-66238452D02*
X83597916Y-66190833D01*
X83645535Y-66143214D01*
X83693154Y-66047976D01*
X83693154Y-66000357D01*
X83645535Y-65905119D01*
X83597916Y-65857500D01*
X83502678Y-65809880D01*
X83312202Y-65809880D01*
X83216964Y-65857500D01*
X83169345Y-65905119D01*
X83121726Y-66000357D01*
X83121726Y-66047976D01*
X83169345Y-66143214D01*
X83216964Y-66190833D01*
X83312202Y-66238452D01*
X83502678Y-66238452D01*
X83597916Y-66286071D01*
X83645535Y-66333690D01*
X83693154Y-66428928D01*
X83693154Y-66619404D01*
X83645535Y-66714642D01*
X83597916Y-66762261D01*
X83502678Y-66809880D01*
X83312202Y-66809880D01*
X83216964Y-66762261D01*
X83169345Y-66714642D01*
X83121726Y-66619404D01*
X83121726Y-66428928D01*
X83169345Y-66333690D01*
X83216964Y-66286071D01*
X83312202Y-66238452D01*
%TO.C,MX27*%
X105743154Y-66809880D02*
X105743154Y-65809880D01*
X105409821Y-66524166D01*
X105076488Y-65809880D01*
X105076488Y-66809880D01*
X104695535Y-65809880D02*
X104028869Y-66809880D01*
X104028869Y-65809880D02*
X104695535Y-66809880D01*
X103695535Y-65905119D02*
X103647916Y-65857500D01*
X103552678Y-65809880D01*
X103314583Y-65809880D01*
X103219345Y-65857500D01*
X103171726Y-65905119D01*
X103124107Y-66000357D01*
X103124107Y-66095595D01*
X103171726Y-66238452D01*
X103743154Y-66809880D01*
X103124107Y-66809880D01*
X102790773Y-65809880D02*
X102124107Y-65809880D01*
X102552678Y-66809880D01*
%TO.C,MX26*%
X127174404Y-66809880D02*
X127174404Y-65809880D01*
X126841071Y-66524166D01*
X126507738Y-65809880D01*
X126507738Y-66809880D01*
X126126785Y-65809880D02*
X125460119Y-66809880D01*
X125460119Y-65809880D02*
X126126785Y-66809880D01*
X125126785Y-65905119D02*
X125079166Y-65857500D01*
X124983928Y-65809880D01*
X124745833Y-65809880D01*
X124650595Y-65857500D01*
X124602976Y-65905119D01*
X124555357Y-66000357D01*
X124555357Y-66095595D01*
X124602976Y-66238452D01*
X125174404Y-66809880D01*
X124555357Y-66809880D01*
X123698214Y-65809880D02*
X123888690Y-65809880D01*
X123983928Y-65857500D01*
X124031547Y-65905119D01*
X124126785Y-66047976D01*
X124174404Y-66238452D01*
X124174404Y-66619404D01*
X124126785Y-66714642D01*
X124079166Y-66762261D01*
X123983928Y-66809880D01*
X123793452Y-66809880D01*
X123698214Y-66762261D01*
X123650595Y-66714642D01*
X123602976Y-66619404D01*
X123602976Y-66381309D01*
X123650595Y-66286071D01*
X123698214Y-66238452D01*
X123793452Y-66190833D01*
X123983928Y-66190833D01*
X124079166Y-66238452D01*
X124126785Y-66286071D01*
X124174404Y-66381309D01*
%TO.C,MX25*%
X146224404Y-66809880D02*
X146224404Y-65809880D01*
X145891071Y-66524166D01*
X145557738Y-65809880D01*
X145557738Y-66809880D01*
X145176785Y-65809880D02*
X144510119Y-66809880D01*
X144510119Y-65809880D02*
X145176785Y-66809880D01*
X144176785Y-65905119D02*
X144129166Y-65857500D01*
X144033928Y-65809880D01*
X143795833Y-65809880D01*
X143700595Y-65857500D01*
X143652976Y-65905119D01*
X143605357Y-66000357D01*
X143605357Y-66095595D01*
X143652976Y-66238452D01*
X144224404Y-66809880D01*
X143605357Y-66809880D01*
X142700595Y-65809880D02*
X143176785Y-65809880D01*
X143224404Y-66286071D01*
X143176785Y-66238452D01*
X143081547Y-66190833D01*
X142843452Y-66190833D01*
X142748214Y-66238452D01*
X142700595Y-66286071D01*
X142652976Y-66381309D01*
X142652976Y-66619404D01*
X142700595Y-66714642D01*
X142748214Y-66762261D01*
X142843452Y-66809880D01*
X143081547Y-66809880D01*
X143176785Y-66762261D01*
X143224404Y-66714642D01*
%TO.C,MX24*%
X165274404Y-60459880D02*
X165274404Y-59459880D01*
X164941071Y-60174166D01*
X164607738Y-59459880D01*
X164607738Y-60459880D01*
X164226785Y-59459880D02*
X163560119Y-60459880D01*
X163560119Y-59459880D02*
X164226785Y-60459880D01*
X163226785Y-59555119D02*
X163179166Y-59507500D01*
X163083928Y-59459880D01*
X162845833Y-59459880D01*
X162750595Y-59507500D01*
X162702976Y-59555119D01*
X162655357Y-59650357D01*
X162655357Y-59745595D01*
X162702976Y-59888452D01*
X163274404Y-60459880D01*
X162655357Y-60459880D01*
X161798214Y-59793214D02*
X161798214Y-60459880D01*
X162036309Y-59412261D02*
X162274404Y-60126547D01*
X161655357Y-60126547D01*
%TO.C,MX23*%
X184324404Y-58078630D02*
X184324404Y-57078630D01*
X183991071Y-57792916D01*
X183657738Y-57078630D01*
X183657738Y-58078630D01*
X183276785Y-57078630D02*
X182610119Y-58078630D01*
X182610119Y-57078630D02*
X183276785Y-58078630D01*
X182276785Y-57173869D02*
X182229166Y-57126250D01*
X182133928Y-57078630D01*
X181895833Y-57078630D01*
X181800595Y-57126250D01*
X181752976Y-57173869D01*
X181705357Y-57269107D01*
X181705357Y-57364345D01*
X181752976Y-57507202D01*
X182324404Y-58078630D01*
X181705357Y-58078630D01*
X181372023Y-57078630D02*
X180752976Y-57078630D01*
X181086309Y-57459583D01*
X180943452Y-57459583D01*
X180848214Y-57507202D01*
X180800595Y-57554821D01*
X180752976Y-57650059D01*
X180752976Y-57888154D01*
X180800595Y-57983392D01*
X180848214Y-58031011D01*
X180943452Y-58078630D01*
X181229166Y-58078630D01*
X181324404Y-58031011D01*
X181372023Y-57983392D01*
%TO.C,MX22*%
X203374404Y-60459880D02*
X203374404Y-59459880D01*
X203041071Y-60174166D01*
X202707738Y-59459880D01*
X202707738Y-60459880D01*
X202326785Y-59459880D02*
X201660119Y-60459880D01*
X201660119Y-59459880D02*
X202326785Y-60459880D01*
X201326785Y-59555119D02*
X201279166Y-59507500D01*
X201183928Y-59459880D01*
X200945833Y-59459880D01*
X200850595Y-59507500D01*
X200802976Y-59555119D01*
X200755357Y-59650357D01*
X200755357Y-59745595D01*
X200802976Y-59888452D01*
X201374404Y-60459880D01*
X200755357Y-60459880D01*
X200374404Y-59555119D02*
X200326785Y-59507500D01*
X200231547Y-59459880D01*
X199993452Y-59459880D01*
X199898214Y-59507500D01*
X199850595Y-59555119D01*
X199802976Y-59650357D01*
X199802976Y-59745595D01*
X199850595Y-59888452D01*
X200422023Y-60459880D01*
X199802976Y-60459880D01*
%TO.C,MX20*%
X48593154Y-47759880D02*
X48593154Y-46759880D01*
X48259821Y-47474166D01*
X47926488Y-46759880D01*
X47926488Y-47759880D01*
X47545535Y-46759880D02*
X46878869Y-47759880D01*
X46878869Y-46759880D02*
X47545535Y-47759880D01*
X46545535Y-46855119D02*
X46497916Y-46807500D01*
X46402678Y-46759880D01*
X46164583Y-46759880D01*
X46069345Y-46807500D01*
X46021726Y-46855119D01*
X45974107Y-46950357D01*
X45974107Y-47045595D01*
X46021726Y-47188452D01*
X46593154Y-47759880D01*
X45974107Y-47759880D01*
X45355059Y-46759880D02*
X45259821Y-46759880D01*
X45164583Y-46807500D01*
X45116964Y-46855119D01*
X45069345Y-46950357D01*
X45021726Y-47140833D01*
X45021726Y-47378928D01*
X45069345Y-47569404D01*
X45116964Y-47664642D01*
X45164583Y-47712261D01*
X45259821Y-47759880D01*
X45355059Y-47759880D01*
X45450297Y-47712261D01*
X45497916Y-47664642D01*
X45545535Y-47569404D01*
X45593154Y-47378928D01*
X45593154Y-47140833D01*
X45545535Y-46950357D01*
X45497916Y-46855119D01*
X45450297Y-46807500D01*
X45355059Y-46759880D01*
%TO.C,MX19*%
X67643154Y-47759880D02*
X67643154Y-46759880D01*
X67309821Y-47474166D01*
X66976488Y-46759880D01*
X66976488Y-47759880D01*
X66595535Y-46759880D02*
X65928869Y-47759880D01*
X65928869Y-46759880D02*
X66595535Y-47759880D01*
X65024107Y-47759880D02*
X65595535Y-47759880D01*
X65309821Y-47759880D02*
X65309821Y-46759880D01*
X65405059Y-46902738D01*
X65500297Y-46997976D01*
X65595535Y-47045595D01*
X64547916Y-47759880D02*
X64357440Y-47759880D01*
X64262202Y-47712261D01*
X64214583Y-47664642D01*
X64119345Y-47521785D01*
X64071726Y-47331309D01*
X64071726Y-46950357D01*
X64119345Y-46855119D01*
X64166964Y-46807500D01*
X64262202Y-46759880D01*
X64452678Y-46759880D01*
X64547916Y-46807500D01*
X64595535Y-46855119D01*
X64643154Y-46950357D01*
X64643154Y-47188452D01*
X64595535Y-47283690D01*
X64547916Y-47331309D01*
X64452678Y-47378928D01*
X64262202Y-47378928D01*
X64166964Y-47331309D01*
X64119345Y-47283690D01*
X64071726Y-47188452D01*
%TO.C,MX18*%
X86693154Y-47759880D02*
X86693154Y-46759880D01*
X86359821Y-47474166D01*
X86026488Y-46759880D01*
X86026488Y-47759880D01*
X85645535Y-46759880D02*
X84978869Y-47759880D01*
X84978869Y-46759880D02*
X85645535Y-47759880D01*
X84074107Y-47759880D02*
X84645535Y-47759880D01*
X84359821Y-47759880D02*
X84359821Y-46759880D01*
X84455059Y-46902738D01*
X84550297Y-46997976D01*
X84645535Y-47045595D01*
X83502678Y-47188452D02*
X83597916Y-47140833D01*
X83645535Y-47093214D01*
X83693154Y-46997976D01*
X83693154Y-46950357D01*
X83645535Y-46855119D01*
X83597916Y-46807500D01*
X83502678Y-46759880D01*
X83312202Y-46759880D01*
X83216964Y-46807500D01*
X83169345Y-46855119D01*
X83121726Y-46950357D01*
X83121726Y-46997976D01*
X83169345Y-47093214D01*
X83216964Y-47140833D01*
X83312202Y-47188452D01*
X83502678Y-47188452D01*
X83597916Y-47236071D01*
X83645535Y-47283690D01*
X83693154Y-47378928D01*
X83693154Y-47569404D01*
X83645535Y-47664642D01*
X83597916Y-47712261D01*
X83502678Y-47759880D01*
X83312202Y-47759880D01*
X83216964Y-47712261D01*
X83169345Y-47664642D01*
X83121726Y-47569404D01*
X83121726Y-47378928D01*
X83169345Y-47283690D01*
X83216964Y-47236071D01*
X83312202Y-47188452D01*
%TO.C,MX17*%
X105743154Y-47759880D02*
X105743154Y-46759880D01*
X105409821Y-47474166D01*
X105076488Y-46759880D01*
X105076488Y-47759880D01*
X104695535Y-46759880D02*
X104028869Y-47759880D01*
X104028869Y-46759880D02*
X104695535Y-47759880D01*
X103124107Y-47759880D02*
X103695535Y-47759880D01*
X103409821Y-47759880D02*
X103409821Y-46759880D01*
X103505059Y-46902738D01*
X103600297Y-46997976D01*
X103695535Y-47045595D01*
X102790773Y-46759880D02*
X102124107Y-46759880D01*
X102552678Y-47759880D01*
%TO.C,MX16*%
X127174404Y-47759880D02*
X127174404Y-46759880D01*
X126841071Y-47474166D01*
X126507738Y-46759880D01*
X126507738Y-47759880D01*
X126126785Y-46759880D02*
X125460119Y-47759880D01*
X125460119Y-46759880D02*
X126126785Y-47759880D01*
X124555357Y-47759880D02*
X125126785Y-47759880D01*
X124841071Y-47759880D02*
X124841071Y-46759880D01*
X124936309Y-46902738D01*
X125031547Y-46997976D01*
X125126785Y-47045595D01*
X123698214Y-46759880D02*
X123888690Y-46759880D01*
X123983928Y-46807500D01*
X124031547Y-46855119D01*
X124126785Y-46997976D01*
X124174404Y-47188452D01*
X124174404Y-47569404D01*
X124126785Y-47664642D01*
X124079166Y-47712261D01*
X123983928Y-47759880D01*
X123793452Y-47759880D01*
X123698214Y-47712261D01*
X123650595Y-47664642D01*
X123602976Y-47569404D01*
X123602976Y-47331309D01*
X123650595Y-47236071D01*
X123698214Y-47188452D01*
X123793452Y-47140833D01*
X123983928Y-47140833D01*
X124079166Y-47188452D01*
X124126785Y-47236071D01*
X124174404Y-47331309D01*
%TO.C,MX14*%
X165274404Y-41409880D02*
X165274404Y-40409880D01*
X164941071Y-41124166D01*
X164607738Y-40409880D01*
X164607738Y-41409880D01*
X164226785Y-40409880D02*
X163560119Y-41409880D01*
X163560119Y-40409880D02*
X164226785Y-41409880D01*
X162655357Y-41409880D02*
X163226785Y-41409880D01*
X162941071Y-41409880D02*
X162941071Y-40409880D01*
X163036309Y-40552738D01*
X163131547Y-40647976D01*
X163226785Y-40695595D01*
X161798214Y-40743214D02*
X161798214Y-41409880D01*
X162036309Y-40362261D02*
X162274404Y-41076547D01*
X161655357Y-41076547D01*
%TO.C,MX13*%
X184324404Y-39028630D02*
X184324404Y-38028630D01*
X183991071Y-38742916D01*
X183657738Y-38028630D01*
X183657738Y-39028630D01*
X183276785Y-38028630D02*
X182610119Y-39028630D01*
X182610119Y-38028630D02*
X183276785Y-39028630D01*
X181705357Y-39028630D02*
X182276785Y-39028630D01*
X181991071Y-39028630D02*
X181991071Y-38028630D01*
X182086309Y-38171488D01*
X182181547Y-38266726D01*
X182276785Y-38314345D01*
X181372023Y-38028630D02*
X180752976Y-38028630D01*
X181086309Y-38409583D01*
X180943452Y-38409583D01*
X180848214Y-38457202D01*
X180800595Y-38504821D01*
X180752976Y-38600059D01*
X180752976Y-38838154D01*
X180800595Y-38933392D01*
X180848214Y-38981011D01*
X180943452Y-39028630D01*
X181229166Y-39028630D01*
X181324404Y-38981011D01*
X181372023Y-38933392D01*
%TO.C,MX12*%
X203374404Y-41409880D02*
X203374404Y-40409880D01*
X203041071Y-41124166D01*
X202707738Y-40409880D01*
X202707738Y-41409880D01*
X202326785Y-40409880D02*
X201660119Y-41409880D01*
X201660119Y-40409880D02*
X202326785Y-41409880D01*
X200755357Y-41409880D02*
X201326785Y-41409880D01*
X201041071Y-41409880D02*
X201041071Y-40409880D01*
X201136309Y-40552738D01*
X201231547Y-40647976D01*
X201326785Y-40695595D01*
X200374404Y-40505119D02*
X200326785Y-40457500D01*
X200231547Y-40409880D01*
X199993452Y-40409880D01*
X199898214Y-40457500D01*
X199850595Y-40505119D01*
X199802976Y-40600357D01*
X199802976Y-40695595D01*
X199850595Y-40838452D01*
X200422023Y-41409880D01*
X199802976Y-41409880D01*
%TO.C,MX11*%
X222424404Y-43791130D02*
X222424404Y-42791130D01*
X222091071Y-43505416D01*
X221757738Y-42791130D01*
X221757738Y-43791130D01*
X221376785Y-42791130D02*
X220710119Y-43791130D01*
X220710119Y-42791130D02*
X221376785Y-43791130D01*
X219805357Y-43791130D02*
X220376785Y-43791130D01*
X220091071Y-43791130D02*
X220091071Y-42791130D01*
X220186309Y-42933988D01*
X220281547Y-43029226D01*
X220376785Y-43076845D01*
X218852976Y-43791130D02*
X219424404Y-43791130D01*
X219138690Y-43791130D02*
X219138690Y-42791130D01*
X219233928Y-42933988D01*
X219329166Y-43029226D01*
X219424404Y-43076845D01*
%TO.C,MX9*%
X67166964Y-28709880D02*
X67166964Y-27709880D01*
X66833630Y-28424166D01*
X66500297Y-27709880D01*
X66500297Y-28709880D01*
X66119345Y-27709880D02*
X65452678Y-28709880D01*
X65452678Y-27709880D02*
X66119345Y-28709880D01*
X65024107Y-28709880D02*
X64833630Y-28709880D01*
X64738392Y-28662261D01*
X64690773Y-28614642D01*
X64595535Y-28471785D01*
X64547916Y-28281309D01*
X64547916Y-27900357D01*
X64595535Y-27805119D01*
X64643154Y-27757500D01*
X64738392Y-27709880D01*
X64928869Y-27709880D01*
X65024107Y-27757500D01*
X65071726Y-27805119D01*
X65119345Y-27900357D01*
X65119345Y-28138452D01*
X65071726Y-28233690D01*
X65024107Y-28281309D01*
X64928869Y-28328928D01*
X64738392Y-28328928D01*
X64643154Y-28281309D01*
X64595535Y-28233690D01*
X64547916Y-28138452D01*
%TO.C,MX8*%
X86216964Y-28709880D02*
X86216964Y-27709880D01*
X85883630Y-28424166D01*
X85550297Y-27709880D01*
X85550297Y-28709880D01*
X85169345Y-27709880D02*
X84502678Y-28709880D01*
X84502678Y-27709880D02*
X85169345Y-28709880D01*
X83978869Y-28138452D02*
X84074107Y-28090833D01*
X84121726Y-28043214D01*
X84169345Y-27947976D01*
X84169345Y-27900357D01*
X84121726Y-27805119D01*
X84074107Y-27757500D01*
X83978869Y-27709880D01*
X83788392Y-27709880D01*
X83693154Y-27757500D01*
X83645535Y-27805119D01*
X83597916Y-27900357D01*
X83597916Y-27947976D01*
X83645535Y-28043214D01*
X83693154Y-28090833D01*
X83788392Y-28138452D01*
X83978869Y-28138452D01*
X84074107Y-28186071D01*
X84121726Y-28233690D01*
X84169345Y-28328928D01*
X84169345Y-28519404D01*
X84121726Y-28614642D01*
X84074107Y-28662261D01*
X83978869Y-28709880D01*
X83788392Y-28709880D01*
X83693154Y-28662261D01*
X83645535Y-28614642D01*
X83597916Y-28519404D01*
X83597916Y-28328928D01*
X83645535Y-28233690D01*
X83693154Y-28186071D01*
X83788392Y-28138452D01*
%TO.C,MX7*%
X105266964Y-28709880D02*
X105266964Y-27709880D01*
X104933630Y-28424166D01*
X104600297Y-27709880D01*
X104600297Y-28709880D01*
X104219345Y-27709880D02*
X103552678Y-28709880D01*
X103552678Y-27709880D02*
X104219345Y-28709880D01*
X103266964Y-27709880D02*
X102600297Y-27709880D01*
X103028869Y-28709880D01*
%TO.C,MX6*%
X126698214Y-28709880D02*
X126698214Y-27709880D01*
X126364880Y-28424166D01*
X126031547Y-27709880D01*
X126031547Y-28709880D01*
X125650595Y-27709880D02*
X124983928Y-28709880D01*
X124983928Y-27709880D02*
X125650595Y-28709880D01*
X124174404Y-27709880D02*
X124364880Y-27709880D01*
X124460119Y-27757500D01*
X124507738Y-27805119D01*
X124602976Y-27947976D01*
X124650595Y-28138452D01*
X124650595Y-28519404D01*
X124602976Y-28614642D01*
X124555357Y-28662261D01*
X124460119Y-28709880D01*
X124269642Y-28709880D01*
X124174404Y-28662261D01*
X124126785Y-28614642D01*
X124079166Y-28519404D01*
X124079166Y-28281309D01*
X124126785Y-28186071D01*
X124174404Y-28138452D01*
X124269642Y-28090833D01*
X124460119Y-28090833D01*
X124555357Y-28138452D01*
X124602976Y-28186071D01*
X124650595Y-28281309D01*
%TO.C,MX5*%
X145748214Y-28709880D02*
X145748214Y-27709880D01*
X145414880Y-28424166D01*
X145081547Y-27709880D01*
X145081547Y-28709880D01*
X144700595Y-27709880D02*
X144033928Y-28709880D01*
X144033928Y-27709880D02*
X144700595Y-28709880D01*
X143176785Y-27709880D02*
X143652976Y-27709880D01*
X143700595Y-28186071D01*
X143652976Y-28138452D01*
X143557738Y-28090833D01*
X143319642Y-28090833D01*
X143224404Y-28138452D01*
X143176785Y-28186071D01*
X143129166Y-28281309D01*
X143129166Y-28519404D01*
X143176785Y-28614642D01*
X143224404Y-28662261D01*
X143319642Y-28709880D01*
X143557738Y-28709880D01*
X143652976Y-28662261D01*
X143700595Y-28614642D01*
%TO.C,MX4*%
X164798214Y-22359880D02*
X164798214Y-21359880D01*
X164464880Y-22074166D01*
X164131547Y-21359880D01*
X164131547Y-22359880D01*
X163750595Y-21359880D02*
X163083928Y-22359880D01*
X163083928Y-21359880D02*
X163750595Y-22359880D01*
X162274404Y-21693214D02*
X162274404Y-22359880D01*
X162512500Y-21312261D02*
X162750595Y-22026547D01*
X162131547Y-22026547D01*
%TO.C,MX3*%
X183848214Y-19978630D02*
X183848214Y-18978630D01*
X183514880Y-19692916D01*
X183181547Y-18978630D01*
X183181547Y-19978630D01*
X182800595Y-18978630D02*
X182133928Y-19978630D01*
X182133928Y-18978630D02*
X182800595Y-19978630D01*
X181848214Y-18978630D02*
X181229166Y-18978630D01*
X181562500Y-19359583D01*
X181419642Y-19359583D01*
X181324404Y-19407202D01*
X181276785Y-19454821D01*
X181229166Y-19550059D01*
X181229166Y-19788154D01*
X181276785Y-19883392D01*
X181324404Y-19931011D01*
X181419642Y-19978630D01*
X181705357Y-19978630D01*
X181800595Y-19931011D01*
X181848214Y-19883392D01*
%TO.C,MX2*%
X202898214Y-22359880D02*
X202898214Y-21359880D01*
X202564880Y-22074166D01*
X202231547Y-21359880D01*
X202231547Y-22359880D01*
X201850595Y-21359880D02*
X201183928Y-22359880D01*
X201183928Y-21359880D02*
X201850595Y-22359880D01*
X200850595Y-21455119D02*
X200802976Y-21407500D01*
X200707738Y-21359880D01*
X200469642Y-21359880D01*
X200374404Y-21407500D01*
X200326785Y-21455119D01*
X200279166Y-21550357D01*
X200279166Y-21645595D01*
X200326785Y-21788452D01*
X200898214Y-22359880D01*
X200279166Y-22359880D01*
%TO.C,MX1*%
X221948214Y-24741130D02*
X221948214Y-23741130D01*
X221614880Y-24455416D01*
X221281547Y-23741130D01*
X221281547Y-24741130D01*
X220900595Y-23741130D02*
X220233928Y-24741130D01*
X220233928Y-23741130D02*
X220900595Y-24741130D01*
X219329166Y-24741130D02*
X219900595Y-24741130D01*
X219614880Y-24741130D02*
X219614880Y-23741130D01*
X219710119Y-23883988D01*
X219805357Y-23979226D01*
X219900595Y-24026845D01*
%TO.C,U1*%
X244430476Y-57211904D02*
X244430476Y-56411904D01*
X244240000Y-56411904D01*
X244125714Y-56450000D01*
X244049523Y-56526190D01*
X244011428Y-56602380D01*
X243973333Y-56754761D01*
X243973333Y-56869047D01*
X244011428Y-57021428D01*
X244049523Y-57097619D01*
X244125714Y-57173809D01*
X244240000Y-57211904D01*
X244430476Y-57211904D01*
X243249523Y-56411904D02*
X243630476Y-56411904D01*
X243668571Y-56792857D01*
X243630476Y-56754761D01*
X243554285Y-56716666D01*
X243363809Y-56716666D01*
X243287619Y-56754761D01*
X243249523Y-56792857D01*
X243211428Y-56869047D01*
X243211428Y-57059523D01*
X243249523Y-57135714D01*
X243287619Y-57173809D01*
X243363809Y-57211904D01*
X243554285Y-57211904D01*
X243630476Y-57173809D01*
X243668571Y-57135714D01*
X239026666Y-56792857D02*
X239293333Y-56792857D01*
X239293333Y-57211904D02*
X239293333Y-56411904D01*
X238912380Y-56411904D01*
X238188571Y-57211904D02*
X238645714Y-57211904D01*
X238417142Y-57211904D02*
X238417142Y-56411904D01*
X238493333Y-56526190D01*
X238569523Y-56602380D01*
X238645714Y-56640476D01*
X241433333Y-57135714D02*
X241471428Y-57173809D01*
X241585714Y-57211904D01*
X241661904Y-57211904D01*
X241776190Y-57173809D01*
X241852380Y-57097619D01*
X241890476Y-57021428D01*
X241928571Y-56869047D01*
X241928571Y-56754761D01*
X241890476Y-56602380D01*
X241852380Y-56526190D01*
X241776190Y-56450000D01*
X241661904Y-56411904D01*
X241585714Y-56411904D01*
X241471428Y-56450000D01*
X241433333Y-56488095D01*
X241166666Y-56411904D02*
X240633333Y-56411904D01*
X240976190Y-57211904D01*
X234664297Y-56985008D02*
X234758578Y-57032148D01*
X234805719Y-57032148D01*
X234876429Y-57008578D01*
X234947140Y-56937867D01*
X234970710Y-56867157D01*
X234970710Y-56820016D01*
X234947140Y-56749306D01*
X234758578Y-56560744D01*
X234263603Y-57055719D01*
X234428595Y-57220710D01*
X234499306Y-57244280D01*
X234546446Y-57244280D01*
X234617157Y-57220710D01*
X234664297Y-57173570D01*
X234687867Y-57102859D01*
X234687867Y-57055719D01*
X234664297Y-56985008D01*
X234499306Y-56820016D01*
X234970710Y-57762825D02*
X234876429Y-57668544D01*
X234852859Y-57597834D01*
X234852859Y-57550693D01*
X234876429Y-57432842D01*
X234947140Y-57314991D01*
X235135702Y-57126429D01*
X235206412Y-57102859D01*
X235253553Y-57102859D01*
X235324264Y-57126429D01*
X235418544Y-57220710D01*
X235442115Y-57291421D01*
X235442115Y-57338561D01*
X235418544Y-57409272D01*
X235300693Y-57527123D01*
X235229983Y-57550693D01*
X235182842Y-57550693D01*
X235112132Y-57527123D01*
X235017851Y-57432842D01*
X234994280Y-57362132D01*
X234994280Y-57314991D01*
X235017851Y-57244280D01*
X237033333Y-57000000D02*
X237266666Y-57000000D01*
X237266666Y-57366666D02*
X237266666Y-56666666D01*
X236933333Y-56666666D01*
X236533333Y-56666666D02*
X236466666Y-56666666D01*
X236400000Y-56700000D01*
X236366666Y-56733333D01*
X236333333Y-56800000D01*
X236300000Y-56933333D01*
X236300000Y-57100000D01*
X236333333Y-57233333D01*
X236366666Y-57300000D01*
X236400000Y-57333333D01*
X236466666Y-57366666D01*
X236533333Y-57366666D01*
X236600000Y-57333333D01*
X236633333Y-57300000D01*
X236666666Y-57233333D01*
X236700000Y-57100000D01*
X236700000Y-56933333D01*
X236666666Y-56800000D01*
X236633333Y-56733333D01*
X236600000Y-56700000D01*
X236533333Y-56666666D01*
X246083333Y-57000000D02*
X245983333Y-57033333D01*
X245950000Y-57066666D01*
X245916666Y-57133333D01*
X245916666Y-57233333D01*
X245950000Y-57300000D01*
X245983333Y-57333333D01*
X246050000Y-57366666D01*
X246316666Y-57366666D01*
X246316666Y-56666666D01*
X246083333Y-56666666D01*
X246016666Y-56700000D01*
X245983333Y-56733333D01*
X245950000Y-56800000D01*
X245950000Y-56866666D01*
X245983333Y-56933333D01*
X246016666Y-56966666D01*
X246083333Y-57000000D01*
X246316666Y-57000000D01*
X245683333Y-56666666D02*
X245216666Y-56666666D01*
X245516666Y-57366666D01*
X247062348Y-30041904D02*
X246605205Y-30041904D01*
X246833776Y-30841904D02*
X246833776Y-30041904D01*
X246414729Y-30041904D02*
X245881395Y-30841904D01*
X245881395Y-30041904D02*
X246414729Y-30841904D01*
X245424252Y-30041904D02*
X245348062Y-30041904D01*
X245271872Y-30080000D01*
X245233776Y-30118095D01*
X245195681Y-30194285D01*
X245157586Y-30346666D01*
X245157586Y-30537142D01*
X245195681Y-30689523D01*
X245233776Y-30765714D01*
X245271872Y-30803809D01*
X245348062Y-30841904D01*
X245424252Y-30841904D01*
X245500443Y-30803809D01*
X245538538Y-30765714D01*
X245576633Y-30689523D01*
X245614729Y-30537142D01*
X245614729Y-30346666D01*
X245576633Y-30194285D01*
X245538538Y-30118095D01*
X245500443Y-30080000D01*
X245424252Y-30041904D01*
X244243300Y-30003809D02*
X244929014Y-31032380D01*
X243976633Y-30841904D02*
X243976633Y-30041904D01*
X243786157Y-30041904D01*
X243671872Y-30080000D01*
X243595681Y-30156190D01*
X243557586Y-30232380D01*
X243519491Y-30384761D01*
X243519491Y-30499047D01*
X243557586Y-30651428D01*
X243595681Y-30727619D01*
X243671872Y-30803809D01*
X243786157Y-30841904D01*
X243976633Y-30841904D01*
X243252824Y-30041904D02*
X242757586Y-30041904D01*
X243024252Y-30346666D01*
X242909967Y-30346666D01*
X242833776Y-30384761D01*
X242795681Y-30422857D01*
X242757586Y-30499047D01*
X242757586Y-30689523D01*
X242795681Y-30765714D01*
X242833776Y-30803809D01*
X242909967Y-30841904D01*
X243138538Y-30841904D01*
X243214729Y-30803809D01*
X243252824Y-30765714D01*
X247351476Y-33381904D02*
X247351476Y-32581904D01*
X247161000Y-32581904D01*
X247046714Y-32620000D01*
X246970523Y-32696190D01*
X246932428Y-32772380D01*
X246894333Y-32924761D01*
X246894333Y-33039047D01*
X246932428Y-33191428D01*
X246970523Y-33267619D01*
X247046714Y-33343809D01*
X247161000Y-33381904D01*
X247351476Y-33381904D01*
X246589571Y-32658095D02*
X246551476Y-32620000D01*
X246475285Y-32581904D01*
X246284809Y-32581904D01*
X246208619Y-32620000D01*
X246170523Y-32658095D01*
X246132428Y-32734285D01*
X246132428Y-32810476D01*
X246170523Y-32924761D01*
X246627666Y-33381904D01*
X246132428Y-33381904D01*
X247351476Y-43541904D02*
X247351476Y-42741904D01*
X247161000Y-42741904D01*
X247046714Y-42780000D01*
X246970523Y-42856190D01*
X246932428Y-42932380D01*
X246894333Y-43084761D01*
X246894333Y-43199047D01*
X246932428Y-43351428D01*
X246970523Y-43427619D01*
X247046714Y-43503809D01*
X247161000Y-43541904D01*
X247351476Y-43541904D01*
X246399095Y-42741904D02*
X246322904Y-42741904D01*
X246246714Y-42780000D01*
X246208619Y-42818095D01*
X246170523Y-42894285D01*
X246132428Y-43046666D01*
X246132428Y-43237142D01*
X246170523Y-43389523D01*
X246208619Y-43465714D01*
X246246714Y-43503809D01*
X246322904Y-43541904D01*
X246399095Y-43541904D01*
X246475285Y-43503809D01*
X246513380Y-43465714D01*
X246551476Y-43389523D01*
X246589571Y-43237142D01*
X246589571Y-43046666D01*
X246551476Y-42894285D01*
X246513380Y-42818095D01*
X246475285Y-42780000D01*
X246399095Y-42741904D01*
X247351476Y-41001904D02*
X247351476Y-40201904D01*
X247161000Y-40201904D01*
X247046714Y-40240000D01*
X246970523Y-40316190D01*
X246932428Y-40392380D01*
X246894333Y-40544761D01*
X246894333Y-40659047D01*
X246932428Y-40811428D01*
X246970523Y-40887619D01*
X247046714Y-40963809D01*
X247161000Y-41001904D01*
X247351476Y-41001904D01*
X246132428Y-41001904D02*
X246589571Y-41001904D01*
X246361000Y-41001904D02*
X246361000Y-40201904D01*
X246437190Y-40316190D01*
X246513380Y-40392380D01*
X246589571Y-40430476D01*
X247370523Y-37700000D02*
X247446714Y-37661904D01*
X247561000Y-37661904D01*
X247675285Y-37700000D01*
X247751476Y-37776190D01*
X247789571Y-37852380D01*
X247827666Y-38004761D01*
X247827666Y-38119047D01*
X247789571Y-38271428D01*
X247751476Y-38347619D01*
X247675285Y-38423809D01*
X247561000Y-38461904D01*
X247484809Y-38461904D01*
X247370523Y-38423809D01*
X247332428Y-38385714D01*
X247332428Y-38119047D01*
X247484809Y-38119047D01*
X246989571Y-38461904D02*
X246989571Y-37661904D01*
X246532428Y-38461904D01*
X246532428Y-37661904D01*
X246151476Y-38461904D02*
X246151476Y-37661904D01*
X245961000Y-37661904D01*
X245846714Y-37700000D01*
X245770523Y-37776190D01*
X245732428Y-37852380D01*
X245694333Y-38004761D01*
X245694333Y-38119047D01*
X245732428Y-38271428D01*
X245770523Y-38347619D01*
X245846714Y-38423809D01*
X245961000Y-38461904D01*
X246151476Y-38461904D01*
X247370523Y-35160000D02*
X247446714Y-35121904D01*
X247561000Y-35121904D01*
X247675285Y-35160000D01*
X247751476Y-35236190D01*
X247789571Y-35312380D01*
X247827666Y-35464761D01*
X247827666Y-35579047D01*
X247789571Y-35731428D01*
X247751476Y-35807619D01*
X247675285Y-35883809D01*
X247561000Y-35921904D01*
X247484809Y-35921904D01*
X247370523Y-35883809D01*
X247332428Y-35845714D01*
X247332428Y-35579047D01*
X247484809Y-35579047D01*
X246989571Y-35921904D02*
X246989571Y-35121904D01*
X246532428Y-35921904D01*
X246532428Y-35121904D01*
X246151476Y-35921904D02*
X246151476Y-35121904D01*
X245961000Y-35121904D01*
X245846714Y-35160000D01*
X245770523Y-35236190D01*
X245732428Y-35312380D01*
X245694333Y-35464761D01*
X245694333Y-35579047D01*
X245732428Y-35731428D01*
X245770523Y-35807619D01*
X245846714Y-35883809D01*
X245961000Y-35921904D01*
X246151476Y-35921904D01*
X247351476Y-46081904D02*
X247351476Y-45281904D01*
X247161000Y-45281904D01*
X247046714Y-45320000D01*
X246970523Y-45396190D01*
X246932428Y-45472380D01*
X246894333Y-45624761D01*
X246894333Y-45739047D01*
X246932428Y-45891428D01*
X246970523Y-45967619D01*
X247046714Y-46043809D01*
X247161000Y-46081904D01*
X247351476Y-46081904D01*
X246208619Y-45548571D02*
X246208619Y-46081904D01*
X246399095Y-45243809D02*
X246589571Y-45815238D01*
X246094333Y-45815238D01*
X246894333Y-48545714D02*
X246932428Y-48583809D01*
X247046714Y-48621904D01*
X247122904Y-48621904D01*
X247237190Y-48583809D01*
X247313380Y-48507619D01*
X247351476Y-48431428D01*
X247389571Y-48279047D01*
X247389571Y-48164761D01*
X247351476Y-48012380D01*
X247313380Y-47936190D01*
X247237190Y-47860000D01*
X247122904Y-47821904D01*
X247046714Y-47821904D01*
X246932428Y-47860000D01*
X246894333Y-47898095D01*
X246208619Y-47821904D02*
X246361000Y-47821904D01*
X246437190Y-47860000D01*
X246475285Y-47898095D01*
X246551476Y-48012380D01*
X246589571Y-48164761D01*
X246589571Y-48469523D01*
X246551476Y-48545714D01*
X246513380Y-48583809D01*
X246437190Y-48621904D01*
X246284809Y-48621904D01*
X246208619Y-48583809D01*
X246170523Y-48545714D01*
X246132428Y-48469523D01*
X246132428Y-48279047D01*
X246170523Y-48202857D01*
X246208619Y-48164761D01*
X246284809Y-48126666D01*
X246437190Y-48126666D01*
X246513380Y-48164761D01*
X246551476Y-48202857D01*
X246589571Y-48279047D01*
X247351476Y-51161904D02*
X247351476Y-50361904D01*
X247161000Y-50361904D01*
X247046714Y-50400000D01*
X246970523Y-50476190D01*
X246932428Y-50552380D01*
X246894333Y-50704761D01*
X246894333Y-50819047D01*
X246932428Y-50971428D01*
X246970523Y-51047619D01*
X247046714Y-51123809D01*
X247161000Y-51161904D01*
X247351476Y-51161904D01*
X246627666Y-50361904D02*
X246094333Y-50361904D01*
X246437190Y-51161904D01*
X247313380Y-53282857D02*
X247046714Y-53282857D01*
X246932428Y-53701904D02*
X247313380Y-53701904D01*
X247313380Y-52901904D01*
X246932428Y-52901904D01*
X246246714Y-52901904D02*
X246399095Y-52901904D01*
X246475285Y-52940000D01*
X246513380Y-52978095D01*
X246589571Y-53092380D01*
X246627666Y-53244761D01*
X246627666Y-53549523D01*
X246589571Y-53625714D01*
X246551476Y-53663809D01*
X246475285Y-53701904D01*
X246322904Y-53701904D01*
X246246714Y-53663809D01*
X246208619Y-53625714D01*
X246170523Y-53549523D01*
X246170523Y-53359047D01*
X246208619Y-53282857D01*
X246246714Y-53244761D01*
X246322904Y-53206666D01*
X246475285Y-53206666D01*
X246551476Y-53244761D01*
X246589571Y-53282857D01*
X246627666Y-53359047D01*
X247084809Y-55822857D02*
X246970523Y-55860952D01*
X246932428Y-55899047D01*
X246894333Y-55975238D01*
X246894333Y-56089523D01*
X246932428Y-56165714D01*
X246970523Y-56203809D01*
X247046714Y-56241904D01*
X247351476Y-56241904D01*
X247351476Y-55441904D01*
X247084809Y-55441904D01*
X247008619Y-55480000D01*
X246970523Y-55518095D01*
X246932428Y-55594285D01*
X246932428Y-55670476D01*
X246970523Y-55746666D01*
X247008619Y-55784761D01*
X247084809Y-55822857D01*
X247351476Y-55822857D01*
X246208619Y-55708571D02*
X246208619Y-56241904D01*
X246399095Y-55403809D02*
X246589571Y-55975238D01*
X246094333Y-55975238D01*
X247864991Y-56914297D02*
X247817851Y-57008578D01*
X247817851Y-57055719D01*
X247841421Y-57126429D01*
X247912132Y-57197140D01*
X247982842Y-57220710D01*
X248029983Y-57220710D01*
X248100693Y-57197140D01*
X248289255Y-57008578D01*
X247794280Y-56513603D01*
X247629289Y-56678595D01*
X247605719Y-56749306D01*
X247605719Y-56796446D01*
X247629289Y-56867157D01*
X247676429Y-56914297D01*
X247747140Y-56937867D01*
X247794280Y-56937867D01*
X247864991Y-56914297D01*
X248029983Y-56749306D01*
X247063603Y-57244280D02*
X247299306Y-57008578D01*
X247558578Y-57220710D01*
X247511438Y-57220710D01*
X247440727Y-57244280D01*
X247322876Y-57362132D01*
X247299306Y-57432842D01*
X247299306Y-57479983D01*
X247322876Y-57550693D01*
X247440727Y-57668544D01*
X247511438Y-57692115D01*
X247558578Y-57692115D01*
X247629289Y-57668544D01*
X247747140Y-57550693D01*
X247770710Y-57479983D01*
X247770710Y-57432842D01*
X236162809Y-53282857D02*
X236048523Y-53320952D01*
X236010428Y-53359047D01*
X235972333Y-53435238D01*
X235972333Y-53549523D01*
X236010428Y-53625714D01*
X236048523Y-53663809D01*
X236124714Y-53701904D01*
X236429476Y-53701904D01*
X236429476Y-52901904D01*
X236162809Y-52901904D01*
X236086619Y-52940000D01*
X236048523Y-52978095D01*
X236010428Y-53054285D01*
X236010428Y-53130476D01*
X236048523Y-53206666D01*
X236086619Y-53244761D01*
X236162809Y-53282857D01*
X236429476Y-53282857D01*
X235705666Y-52901904D02*
X235210428Y-52901904D01*
X235477095Y-53206666D01*
X235362809Y-53206666D01*
X235286619Y-53244761D01*
X235248523Y-53282857D01*
X235210428Y-53359047D01*
X235210428Y-53549523D01*
X235248523Y-53625714D01*
X235286619Y-53663809D01*
X235362809Y-53701904D01*
X235591380Y-53701904D01*
X235667571Y-53663809D01*
X235705666Y-53625714D01*
X236162809Y-50742857D02*
X236048523Y-50780952D01*
X236010428Y-50819047D01*
X235972333Y-50895238D01*
X235972333Y-51009523D01*
X236010428Y-51085714D01*
X236048523Y-51123809D01*
X236124714Y-51161904D01*
X236429476Y-51161904D01*
X236429476Y-50361904D01*
X236162809Y-50361904D01*
X236086619Y-50400000D01*
X236048523Y-50438095D01*
X236010428Y-50514285D01*
X236010428Y-50590476D01*
X236048523Y-50666666D01*
X236086619Y-50704761D01*
X236162809Y-50742857D01*
X236429476Y-50742857D01*
X235210428Y-51161904D02*
X235667571Y-51161904D01*
X235439000Y-51161904D02*
X235439000Y-50361904D01*
X235515190Y-50476190D01*
X235591380Y-50552380D01*
X235667571Y-50590476D01*
X236105666Y-40582857D02*
X236372333Y-40582857D01*
X236372333Y-41001904D02*
X236372333Y-40201904D01*
X235991380Y-40201904D01*
X235343761Y-40468571D02*
X235343761Y-41001904D01*
X235534238Y-40163809D02*
X235724714Y-40735238D01*
X235229476Y-40735238D01*
X236905666Y-37661904D02*
X236639000Y-38461904D01*
X236372333Y-37661904D01*
X235648523Y-38385714D02*
X235686619Y-38423809D01*
X235800904Y-38461904D01*
X235877095Y-38461904D01*
X235991380Y-38423809D01*
X236067571Y-38347619D01*
X236105666Y-38271428D01*
X236143761Y-38119047D01*
X236143761Y-38004761D01*
X236105666Y-37852380D01*
X236067571Y-37776190D01*
X235991380Y-37700000D01*
X235877095Y-37661904D01*
X235800904Y-37661904D01*
X235686619Y-37700000D01*
X235648523Y-37738095D01*
X234848523Y-38385714D02*
X234886619Y-38423809D01*
X235000904Y-38461904D01*
X235077095Y-38461904D01*
X235191380Y-38423809D01*
X235267571Y-38347619D01*
X235305666Y-38271428D01*
X235343761Y-38119047D01*
X235343761Y-38004761D01*
X235305666Y-37852380D01*
X235267571Y-37776190D01*
X235191380Y-37700000D01*
X235077095Y-37661904D01*
X235000904Y-37661904D01*
X234886619Y-37700000D01*
X234848523Y-37738095D01*
X236100213Y-35853809D02*
X235985927Y-35891904D01*
X235795451Y-35891904D01*
X235719260Y-35853809D01*
X235681165Y-35815714D01*
X235643070Y-35739523D01*
X235643070Y-35663333D01*
X235681165Y-35587142D01*
X235719260Y-35549047D01*
X235795451Y-35510952D01*
X235947832Y-35472857D01*
X236024022Y-35434761D01*
X236062118Y-35396666D01*
X236100213Y-35320476D01*
X236100213Y-35244285D01*
X236062118Y-35168095D01*
X236024022Y-35130000D01*
X235947832Y-35091904D01*
X235757356Y-35091904D01*
X235643070Y-35130000D01*
X235414499Y-35091904D02*
X234957356Y-35091904D01*
X235185927Y-35891904D02*
X235185927Y-35091904D01*
X236448523Y-32620000D02*
X236524714Y-32581904D01*
X236639000Y-32581904D01*
X236753285Y-32620000D01*
X236829476Y-32696190D01*
X236867571Y-32772380D01*
X236905666Y-32924761D01*
X236905666Y-33039047D01*
X236867571Y-33191428D01*
X236829476Y-33267619D01*
X236753285Y-33343809D01*
X236639000Y-33381904D01*
X236562809Y-33381904D01*
X236448523Y-33343809D01*
X236410428Y-33305714D01*
X236410428Y-33039047D01*
X236562809Y-33039047D01*
X236067571Y-33381904D02*
X236067571Y-32581904D01*
X235610428Y-33381904D01*
X235610428Y-32581904D01*
X235229476Y-33381904D02*
X235229476Y-32581904D01*
X235039000Y-32581904D01*
X234924714Y-32620000D01*
X234848523Y-32696190D01*
X234810428Y-32772380D01*
X234772333Y-32924761D01*
X234772333Y-33039047D01*
X234810428Y-33191428D01*
X234848523Y-33267619D01*
X234924714Y-33343809D01*
X235039000Y-33381904D01*
X235229476Y-33381904D01*
X236162809Y-30422857D02*
X236048523Y-30460952D01*
X236010428Y-30499047D01*
X235972333Y-30575238D01*
X235972333Y-30689523D01*
X236010428Y-30765714D01*
X236048523Y-30803809D01*
X236124714Y-30841904D01*
X236429476Y-30841904D01*
X236429476Y-30041904D01*
X236162809Y-30041904D01*
X236086619Y-30080000D01*
X236048523Y-30118095D01*
X236010428Y-30194285D01*
X236010428Y-30270476D01*
X236048523Y-30346666D01*
X236086619Y-30384761D01*
X236162809Y-30422857D01*
X236429476Y-30422857D01*
X235477095Y-30041904D02*
X235400904Y-30041904D01*
X235324714Y-30080000D01*
X235286619Y-30118095D01*
X235248523Y-30194285D01*
X235210428Y-30346666D01*
X235210428Y-30537142D01*
X235248523Y-30689523D01*
X235286619Y-30765714D01*
X235324714Y-30803809D01*
X235400904Y-30841904D01*
X235477095Y-30841904D01*
X235553285Y-30803809D01*
X235591380Y-30765714D01*
X235629476Y-30689523D01*
X235667571Y-30537142D01*
X235667571Y-30346666D01*
X235629476Y-30194285D01*
X235591380Y-30118095D01*
X235553285Y-30080000D01*
X235477095Y-30041904D01*
X236105666Y-43122857D02*
X236372333Y-43122857D01*
X236372333Y-43541904D02*
X236372333Y-42741904D01*
X235991380Y-42741904D01*
X235305666Y-42741904D02*
X235686619Y-42741904D01*
X235724714Y-43122857D01*
X235686619Y-43084761D01*
X235610428Y-43046666D01*
X235419952Y-43046666D01*
X235343761Y-43084761D01*
X235305666Y-43122857D01*
X235267571Y-43199047D01*
X235267571Y-43389523D01*
X235305666Y-43465714D01*
X235343761Y-43503809D01*
X235419952Y-43541904D01*
X235610428Y-43541904D01*
X235686619Y-43503809D01*
X235724714Y-43465714D01*
X236105666Y-45662857D02*
X236372333Y-45662857D01*
X236372333Y-46081904D02*
X236372333Y-45281904D01*
X235991380Y-45281904D01*
X235343761Y-45281904D02*
X235496142Y-45281904D01*
X235572333Y-45320000D01*
X235610428Y-45358095D01*
X235686619Y-45472380D01*
X235724714Y-45624761D01*
X235724714Y-45929523D01*
X235686619Y-46005714D01*
X235648523Y-46043809D01*
X235572333Y-46081904D01*
X235419952Y-46081904D01*
X235343761Y-46043809D01*
X235305666Y-46005714D01*
X235267571Y-45929523D01*
X235267571Y-45739047D01*
X235305666Y-45662857D01*
X235343761Y-45624761D01*
X235419952Y-45586666D01*
X235572333Y-45586666D01*
X235648523Y-45624761D01*
X235686619Y-45662857D01*
X235724714Y-45739047D01*
X236105666Y-48202857D02*
X236372333Y-48202857D01*
X236372333Y-48621904D02*
X236372333Y-47821904D01*
X235991380Y-47821904D01*
X235762809Y-47821904D02*
X235229476Y-47821904D01*
X235572333Y-48621904D01*
X236162809Y-55822857D02*
X236048523Y-55860952D01*
X236010428Y-55899047D01*
X235972333Y-55975238D01*
X235972333Y-56089523D01*
X236010428Y-56165714D01*
X236048523Y-56203809D01*
X236124714Y-56241904D01*
X236429476Y-56241904D01*
X236429476Y-55441904D01*
X236162809Y-55441904D01*
X236086619Y-55480000D01*
X236048523Y-55518095D01*
X236010428Y-55594285D01*
X236010428Y-55670476D01*
X236048523Y-55746666D01*
X236086619Y-55784761D01*
X236162809Y-55822857D01*
X236429476Y-55822857D01*
X235667571Y-55518095D02*
X235629476Y-55480000D01*
X235553285Y-55441904D01*
X235362809Y-55441904D01*
X235286619Y-55480000D01*
X235248523Y-55518095D01*
X235210428Y-55594285D01*
X235210428Y-55670476D01*
X235248523Y-55784761D01*
X235705666Y-56241904D01*
X235210428Y-56241904D01*
%TO.C,D43*%
X193846428Y-112736904D02*
X193846428Y-111936904D01*
X193655952Y-111936904D01*
X193541666Y-111975000D01*
X193465476Y-112051190D01*
X193427380Y-112127380D01*
X193389285Y-112279761D01*
X193389285Y-112394047D01*
X193427380Y-112546428D01*
X193465476Y-112622619D01*
X193541666Y-112698809D01*
X193655952Y-112736904D01*
X193846428Y-112736904D01*
X192703571Y-112203571D02*
X192703571Y-112736904D01*
X192894047Y-111898809D02*
X193084523Y-112470238D01*
X192589285Y-112470238D01*
X192360714Y-111936904D02*
X191865476Y-111936904D01*
X192132142Y-112241666D01*
X192017857Y-112241666D01*
X191941666Y-112279761D01*
X191903571Y-112317857D01*
X191865476Y-112394047D01*
X191865476Y-112584523D01*
X191903571Y-112660714D01*
X191941666Y-112698809D01*
X192017857Y-112736904D01*
X192246428Y-112736904D01*
X192322619Y-112698809D01*
X192360714Y-112660714D01*
%TO.C,R2*%
X241291666Y-42188630D02*
X241625000Y-41712440D01*
X241863095Y-42188630D02*
X241863095Y-41188630D01*
X241482142Y-41188630D01*
X241386904Y-41236250D01*
X241339285Y-41283869D01*
X241291666Y-41379107D01*
X241291666Y-41521964D01*
X241339285Y-41617202D01*
X241386904Y-41664821D01*
X241482142Y-41712440D01*
X241863095Y-41712440D01*
X240910714Y-41283869D02*
X240863095Y-41236250D01*
X240767857Y-41188630D01*
X240529761Y-41188630D01*
X240434523Y-41236250D01*
X240386904Y-41283869D01*
X240339285Y-41379107D01*
X240339285Y-41474345D01*
X240386904Y-41617202D01*
X240958333Y-42188630D01*
X240339285Y-42188630D01*
%TO.C,R1*%
X241291666Y-36632380D02*
X241625000Y-36156190D01*
X241863095Y-36632380D02*
X241863095Y-35632380D01*
X241482142Y-35632380D01*
X241386904Y-35680000D01*
X241339285Y-35727619D01*
X241291666Y-35822857D01*
X241291666Y-35965714D01*
X241339285Y-36060952D01*
X241386904Y-36108571D01*
X241482142Y-36156190D01*
X241863095Y-36156190D01*
X240339285Y-36632380D02*
X240910714Y-36632380D01*
X240625000Y-36632380D02*
X240625000Y-35632380D01*
X240720238Y-35775238D01*
X240815476Y-35870476D01*
X240910714Y-35918095D01*
%TO.C,D45*%
X158413428Y-104259654D02*
X158413428Y-103459654D01*
X158222952Y-103459654D01*
X158108666Y-103497750D01*
X158032476Y-103573940D01*
X157994380Y-103650130D01*
X157956285Y-103802511D01*
X157956285Y-103916797D01*
X157994380Y-104069178D01*
X158032476Y-104145369D01*
X158108666Y-104221559D01*
X158222952Y-104259654D01*
X158413428Y-104259654D01*
X157270571Y-103726321D02*
X157270571Y-104259654D01*
X157461047Y-103421559D02*
X157651523Y-103992988D01*
X157156285Y-103992988D01*
X156470571Y-103459654D02*
X156851523Y-103459654D01*
X156889619Y-103840607D01*
X156851523Y-103802511D01*
X156775333Y-103764416D01*
X156584857Y-103764416D01*
X156508666Y-103802511D01*
X156470571Y-103840607D01*
X156432476Y-103916797D01*
X156432476Y-104107273D01*
X156470571Y-104183464D01*
X156508666Y-104221559D01*
X156584857Y-104259654D01*
X156775333Y-104259654D01*
X156851523Y-104221559D01*
X156889619Y-104183464D01*
%TO.C,D44*%
X174796428Y-112736904D02*
X174796428Y-111936904D01*
X174605952Y-111936904D01*
X174491666Y-111975000D01*
X174415476Y-112051190D01*
X174377380Y-112127380D01*
X174339285Y-112279761D01*
X174339285Y-112394047D01*
X174377380Y-112546428D01*
X174415476Y-112622619D01*
X174491666Y-112698809D01*
X174605952Y-112736904D01*
X174796428Y-112736904D01*
X173653571Y-112203571D02*
X173653571Y-112736904D01*
X173844047Y-111898809D02*
X174034523Y-112470238D01*
X173539285Y-112470238D01*
X172891666Y-112203571D02*
X172891666Y-112736904D01*
X173082142Y-111898809D02*
X173272619Y-112470238D01*
X172777380Y-112470238D01*
%TO.C,D42*%
X212896428Y-115118154D02*
X212896428Y-114318154D01*
X212705952Y-114318154D01*
X212591666Y-114356250D01*
X212515476Y-114432440D01*
X212477380Y-114508630D01*
X212439285Y-114661011D01*
X212439285Y-114775297D01*
X212477380Y-114927678D01*
X212515476Y-115003869D01*
X212591666Y-115080059D01*
X212705952Y-115118154D01*
X212896428Y-115118154D01*
X211753571Y-114584821D02*
X211753571Y-115118154D01*
X211944047Y-114280059D02*
X212134523Y-114851488D01*
X211639285Y-114851488D01*
X211372619Y-114394345D02*
X211334523Y-114356250D01*
X211258333Y-114318154D01*
X211067857Y-114318154D01*
X210991666Y-114356250D01*
X210953571Y-114394345D01*
X210915476Y-114470535D01*
X210915476Y-114546726D01*
X210953571Y-114661011D01*
X211410714Y-115118154D01*
X210915476Y-115118154D01*
%TO.C,D41*%
X242800034Y-110295920D02*
X242107213Y-109895920D01*
X242011975Y-110060877D01*
X241987824Y-110178899D01*
X242015711Y-110282977D01*
X242062647Y-110354064D01*
X242175565Y-110463246D01*
X242274539Y-110520389D01*
X242425552Y-110563588D01*
X242510583Y-110568692D01*
X242614661Y-110540804D01*
X242704795Y-110460877D01*
X242800034Y-110295920D01*
X241766725Y-111018997D02*
X242228605Y-111285663D01*
X241598031Y-110701659D02*
X242188141Y-110822416D01*
X241940522Y-111251304D01*
X241809557Y-112011475D02*
X242038129Y-111615578D01*
X241923843Y-111813526D02*
X241231023Y-111413526D01*
X241368092Y-111404686D01*
X241472170Y-111376799D01*
X241543257Y-111329864D01*
%TO.C,D40*%
X47796428Y-96861904D02*
X47796428Y-96061904D01*
X47605952Y-96061904D01*
X47491666Y-96100000D01*
X47415476Y-96176190D01*
X47377380Y-96252380D01*
X47339285Y-96404761D01*
X47339285Y-96519047D01*
X47377380Y-96671428D01*
X47415476Y-96747619D01*
X47491666Y-96823809D01*
X47605952Y-96861904D01*
X47796428Y-96861904D01*
X46653571Y-96328571D02*
X46653571Y-96861904D01*
X46844047Y-96023809D02*
X47034523Y-96595238D01*
X46539285Y-96595238D01*
X46082142Y-96061904D02*
X46005952Y-96061904D01*
X45929761Y-96100000D01*
X45891666Y-96138095D01*
X45853571Y-96214285D01*
X45815476Y-96366666D01*
X45815476Y-96557142D01*
X45853571Y-96709523D01*
X45891666Y-96785714D01*
X45929761Y-96823809D01*
X46005952Y-96861904D01*
X46082142Y-96861904D01*
X46158333Y-96823809D01*
X46196428Y-96785714D01*
X46234523Y-96709523D01*
X46272619Y-96557142D01*
X46272619Y-96366666D01*
X46234523Y-96214285D01*
X46196428Y-96138095D01*
X46158333Y-96100000D01*
X46082142Y-96061904D01*
%TO.C,D39*%
X66846428Y-96861904D02*
X66846428Y-96061904D01*
X66655952Y-96061904D01*
X66541666Y-96100000D01*
X66465476Y-96176190D01*
X66427380Y-96252380D01*
X66389285Y-96404761D01*
X66389285Y-96519047D01*
X66427380Y-96671428D01*
X66465476Y-96747619D01*
X66541666Y-96823809D01*
X66655952Y-96861904D01*
X66846428Y-96861904D01*
X66122619Y-96061904D02*
X65627380Y-96061904D01*
X65894047Y-96366666D01*
X65779761Y-96366666D01*
X65703571Y-96404761D01*
X65665476Y-96442857D01*
X65627380Y-96519047D01*
X65627380Y-96709523D01*
X65665476Y-96785714D01*
X65703571Y-96823809D01*
X65779761Y-96861904D01*
X66008333Y-96861904D01*
X66084523Y-96823809D01*
X66122619Y-96785714D01*
X65246428Y-96861904D02*
X65094047Y-96861904D01*
X65017857Y-96823809D01*
X64979761Y-96785714D01*
X64903571Y-96671428D01*
X64865476Y-96519047D01*
X64865476Y-96214285D01*
X64903571Y-96138095D01*
X64941666Y-96100000D01*
X65017857Y-96061904D01*
X65170238Y-96061904D01*
X65246428Y-96100000D01*
X65284523Y-96138095D01*
X65322619Y-96214285D01*
X65322619Y-96404761D01*
X65284523Y-96480952D01*
X65246428Y-96519047D01*
X65170238Y-96557142D01*
X65017857Y-96557142D01*
X64941666Y-96519047D01*
X64903571Y-96480952D01*
X64865476Y-96404761D01*
%TO.C,D38*%
X85896428Y-96861904D02*
X85896428Y-96061904D01*
X85705952Y-96061904D01*
X85591666Y-96100000D01*
X85515476Y-96176190D01*
X85477380Y-96252380D01*
X85439285Y-96404761D01*
X85439285Y-96519047D01*
X85477380Y-96671428D01*
X85515476Y-96747619D01*
X85591666Y-96823809D01*
X85705952Y-96861904D01*
X85896428Y-96861904D01*
X85172619Y-96061904D02*
X84677380Y-96061904D01*
X84944047Y-96366666D01*
X84829761Y-96366666D01*
X84753571Y-96404761D01*
X84715476Y-96442857D01*
X84677380Y-96519047D01*
X84677380Y-96709523D01*
X84715476Y-96785714D01*
X84753571Y-96823809D01*
X84829761Y-96861904D01*
X85058333Y-96861904D01*
X85134523Y-96823809D01*
X85172619Y-96785714D01*
X84220238Y-96404761D02*
X84296428Y-96366666D01*
X84334523Y-96328571D01*
X84372619Y-96252380D01*
X84372619Y-96214285D01*
X84334523Y-96138095D01*
X84296428Y-96100000D01*
X84220238Y-96061904D01*
X84067857Y-96061904D01*
X83991666Y-96100000D01*
X83953571Y-96138095D01*
X83915476Y-96214285D01*
X83915476Y-96252380D01*
X83953571Y-96328571D01*
X83991666Y-96366666D01*
X84067857Y-96404761D01*
X84220238Y-96404761D01*
X84296428Y-96442857D01*
X84334523Y-96480952D01*
X84372619Y-96557142D01*
X84372619Y-96709523D01*
X84334523Y-96785714D01*
X84296428Y-96823809D01*
X84220238Y-96861904D01*
X84067857Y-96861904D01*
X83991666Y-96823809D01*
X83953571Y-96785714D01*
X83915476Y-96709523D01*
X83915476Y-96557142D01*
X83953571Y-96480952D01*
X83991666Y-96442857D01*
X84067857Y-96404761D01*
%TO.C,D37*%
X104946428Y-96861904D02*
X104946428Y-96061904D01*
X104755952Y-96061904D01*
X104641666Y-96100000D01*
X104565476Y-96176190D01*
X104527380Y-96252380D01*
X104489285Y-96404761D01*
X104489285Y-96519047D01*
X104527380Y-96671428D01*
X104565476Y-96747619D01*
X104641666Y-96823809D01*
X104755952Y-96861904D01*
X104946428Y-96861904D01*
X104222619Y-96061904D02*
X103727380Y-96061904D01*
X103994047Y-96366666D01*
X103879761Y-96366666D01*
X103803571Y-96404761D01*
X103765476Y-96442857D01*
X103727380Y-96519047D01*
X103727380Y-96709523D01*
X103765476Y-96785714D01*
X103803571Y-96823809D01*
X103879761Y-96861904D01*
X104108333Y-96861904D01*
X104184523Y-96823809D01*
X104222619Y-96785714D01*
X103460714Y-96061904D02*
X102927380Y-96061904D01*
X103270238Y-96861904D01*
%TO.C,D36*%
X126377678Y-96861904D02*
X126377678Y-96061904D01*
X126187202Y-96061904D01*
X126072916Y-96100000D01*
X125996726Y-96176190D01*
X125958630Y-96252380D01*
X125920535Y-96404761D01*
X125920535Y-96519047D01*
X125958630Y-96671428D01*
X125996726Y-96747619D01*
X126072916Y-96823809D01*
X126187202Y-96861904D01*
X126377678Y-96861904D01*
X125653869Y-96061904D02*
X125158630Y-96061904D01*
X125425297Y-96366666D01*
X125311011Y-96366666D01*
X125234821Y-96404761D01*
X125196726Y-96442857D01*
X125158630Y-96519047D01*
X125158630Y-96709523D01*
X125196726Y-96785714D01*
X125234821Y-96823809D01*
X125311011Y-96861904D01*
X125539583Y-96861904D01*
X125615773Y-96823809D01*
X125653869Y-96785714D01*
X124472916Y-96061904D02*
X124625297Y-96061904D01*
X124701488Y-96100000D01*
X124739583Y-96138095D01*
X124815773Y-96252380D01*
X124853869Y-96404761D01*
X124853869Y-96709523D01*
X124815773Y-96785714D01*
X124777678Y-96823809D01*
X124701488Y-96861904D01*
X124549107Y-96861904D01*
X124472916Y-96823809D01*
X124434821Y-96785714D01*
X124396726Y-96709523D01*
X124396726Y-96519047D01*
X124434821Y-96442857D01*
X124472916Y-96404761D01*
X124549107Y-96366666D01*
X124701488Y-96366666D01*
X124777678Y-96404761D01*
X124815773Y-96442857D01*
X124853869Y-96519047D01*
%TO.C,D35*%
X145427678Y-96861904D02*
X145427678Y-96061904D01*
X145237202Y-96061904D01*
X145122916Y-96100000D01*
X145046726Y-96176190D01*
X145008630Y-96252380D01*
X144970535Y-96404761D01*
X144970535Y-96519047D01*
X145008630Y-96671428D01*
X145046726Y-96747619D01*
X145122916Y-96823809D01*
X145237202Y-96861904D01*
X145427678Y-96861904D01*
X144703869Y-96061904D02*
X144208630Y-96061904D01*
X144475297Y-96366666D01*
X144361011Y-96366666D01*
X144284821Y-96404761D01*
X144246726Y-96442857D01*
X144208630Y-96519047D01*
X144208630Y-96709523D01*
X144246726Y-96785714D01*
X144284821Y-96823809D01*
X144361011Y-96861904D01*
X144589583Y-96861904D01*
X144665773Y-96823809D01*
X144703869Y-96785714D01*
X143484821Y-96061904D02*
X143865773Y-96061904D01*
X143903869Y-96442857D01*
X143865773Y-96404761D01*
X143789583Y-96366666D01*
X143599107Y-96366666D01*
X143522916Y-96404761D01*
X143484821Y-96442857D01*
X143446726Y-96519047D01*
X143446726Y-96709523D01*
X143484821Y-96785714D01*
X143522916Y-96823809D01*
X143599107Y-96861904D01*
X143789583Y-96861904D01*
X143865773Y-96823809D01*
X143903869Y-96785714D01*
%TO.C,D34*%
X164477678Y-90511904D02*
X164477678Y-89711904D01*
X164287202Y-89711904D01*
X164172916Y-89750000D01*
X164096726Y-89826190D01*
X164058630Y-89902380D01*
X164020535Y-90054761D01*
X164020535Y-90169047D01*
X164058630Y-90321428D01*
X164096726Y-90397619D01*
X164172916Y-90473809D01*
X164287202Y-90511904D01*
X164477678Y-90511904D01*
X163753869Y-89711904D02*
X163258630Y-89711904D01*
X163525297Y-90016666D01*
X163411011Y-90016666D01*
X163334821Y-90054761D01*
X163296726Y-90092857D01*
X163258630Y-90169047D01*
X163258630Y-90359523D01*
X163296726Y-90435714D01*
X163334821Y-90473809D01*
X163411011Y-90511904D01*
X163639583Y-90511904D01*
X163715773Y-90473809D01*
X163753869Y-90435714D01*
X162572916Y-89978571D02*
X162572916Y-90511904D01*
X162763392Y-89673809D02*
X162953869Y-90245238D01*
X162458630Y-90245238D01*
%TO.C,D33*%
X183527678Y-88130654D02*
X183527678Y-87330654D01*
X183337202Y-87330654D01*
X183222916Y-87368750D01*
X183146726Y-87444940D01*
X183108630Y-87521130D01*
X183070535Y-87673511D01*
X183070535Y-87787797D01*
X183108630Y-87940178D01*
X183146726Y-88016369D01*
X183222916Y-88092559D01*
X183337202Y-88130654D01*
X183527678Y-88130654D01*
X182803869Y-87330654D02*
X182308630Y-87330654D01*
X182575297Y-87635416D01*
X182461011Y-87635416D01*
X182384821Y-87673511D01*
X182346726Y-87711607D01*
X182308630Y-87787797D01*
X182308630Y-87978273D01*
X182346726Y-88054464D01*
X182384821Y-88092559D01*
X182461011Y-88130654D01*
X182689583Y-88130654D01*
X182765773Y-88092559D01*
X182803869Y-88054464D01*
X182041964Y-87330654D02*
X181546726Y-87330654D01*
X181813392Y-87635416D01*
X181699107Y-87635416D01*
X181622916Y-87673511D01*
X181584821Y-87711607D01*
X181546726Y-87787797D01*
X181546726Y-87978273D01*
X181584821Y-88054464D01*
X181622916Y-88092559D01*
X181699107Y-88130654D01*
X181927678Y-88130654D01*
X182003869Y-88092559D01*
X182041964Y-88054464D01*
%TO.C,D32*%
X202577678Y-90511904D02*
X202577678Y-89711904D01*
X202387202Y-89711904D01*
X202272916Y-89750000D01*
X202196726Y-89826190D01*
X202158630Y-89902380D01*
X202120535Y-90054761D01*
X202120535Y-90169047D01*
X202158630Y-90321428D01*
X202196726Y-90397619D01*
X202272916Y-90473809D01*
X202387202Y-90511904D01*
X202577678Y-90511904D01*
X201853869Y-89711904D02*
X201358630Y-89711904D01*
X201625297Y-90016666D01*
X201511011Y-90016666D01*
X201434821Y-90054761D01*
X201396726Y-90092857D01*
X201358630Y-90169047D01*
X201358630Y-90359523D01*
X201396726Y-90435714D01*
X201434821Y-90473809D01*
X201511011Y-90511904D01*
X201739583Y-90511904D01*
X201815773Y-90473809D01*
X201853869Y-90435714D01*
X201053869Y-89788095D02*
X201015773Y-89750000D01*
X200939583Y-89711904D01*
X200749107Y-89711904D01*
X200672916Y-89750000D01*
X200634821Y-89788095D01*
X200596726Y-89864285D01*
X200596726Y-89940476D01*
X200634821Y-90054761D01*
X201091964Y-90511904D01*
X200596726Y-90511904D01*
%TO.C,D31*%
X221627678Y-92893154D02*
X221627678Y-92093154D01*
X221437202Y-92093154D01*
X221322916Y-92131250D01*
X221246726Y-92207440D01*
X221208630Y-92283630D01*
X221170535Y-92436011D01*
X221170535Y-92550297D01*
X221208630Y-92702678D01*
X221246726Y-92778869D01*
X221322916Y-92855059D01*
X221437202Y-92893154D01*
X221627678Y-92893154D01*
X220903869Y-92093154D02*
X220408630Y-92093154D01*
X220675297Y-92397916D01*
X220561011Y-92397916D01*
X220484821Y-92436011D01*
X220446726Y-92474107D01*
X220408630Y-92550297D01*
X220408630Y-92740773D01*
X220446726Y-92816964D01*
X220484821Y-92855059D01*
X220561011Y-92893154D01*
X220789583Y-92893154D01*
X220865773Y-92855059D01*
X220903869Y-92816964D01*
X219646726Y-92893154D02*
X220103869Y-92893154D01*
X219875297Y-92893154D02*
X219875297Y-92093154D01*
X219951488Y-92207440D01*
X220027678Y-92283630D01*
X220103869Y-92321726D01*
%TO.C,D30*%
X47796428Y-77811904D02*
X47796428Y-77011904D01*
X47605952Y-77011904D01*
X47491666Y-77050000D01*
X47415476Y-77126190D01*
X47377380Y-77202380D01*
X47339285Y-77354761D01*
X47339285Y-77469047D01*
X47377380Y-77621428D01*
X47415476Y-77697619D01*
X47491666Y-77773809D01*
X47605952Y-77811904D01*
X47796428Y-77811904D01*
X47072619Y-77011904D02*
X46577380Y-77011904D01*
X46844047Y-77316666D01*
X46729761Y-77316666D01*
X46653571Y-77354761D01*
X46615476Y-77392857D01*
X46577380Y-77469047D01*
X46577380Y-77659523D01*
X46615476Y-77735714D01*
X46653571Y-77773809D01*
X46729761Y-77811904D01*
X46958333Y-77811904D01*
X47034523Y-77773809D01*
X47072619Y-77735714D01*
X46082142Y-77011904D02*
X46005952Y-77011904D01*
X45929761Y-77050000D01*
X45891666Y-77088095D01*
X45853571Y-77164285D01*
X45815476Y-77316666D01*
X45815476Y-77507142D01*
X45853571Y-77659523D01*
X45891666Y-77735714D01*
X45929761Y-77773809D01*
X46005952Y-77811904D01*
X46082142Y-77811904D01*
X46158333Y-77773809D01*
X46196428Y-77735714D01*
X46234523Y-77659523D01*
X46272619Y-77507142D01*
X46272619Y-77316666D01*
X46234523Y-77164285D01*
X46196428Y-77088095D01*
X46158333Y-77050000D01*
X46082142Y-77011904D01*
%TO.C,D29*%
X66846428Y-77811904D02*
X66846428Y-77011904D01*
X66655952Y-77011904D01*
X66541666Y-77050000D01*
X66465476Y-77126190D01*
X66427380Y-77202380D01*
X66389285Y-77354761D01*
X66389285Y-77469047D01*
X66427380Y-77621428D01*
X66465476Y-77697619D01*
X66541666Y-77773809D01*
X66655952Y-77811904D01*
X66846428Y-77811904D01*
X66084523Y-77088095D02*
X66046428Y-77050000D01*
X65970238Y-77011904D01*
X65779761Y-77011904D01*
X65703571Y-77050000D01*
X65665476Y-77088095D01*
X65627380Y-77164285D01*
X65627380Y-77240476D01*
X65665476Y-77354761D01*
X66122619Y-77811904D01*
X65627380Y-77811904D01*
X65246428Y-77811904D02*
X65094047Y-77811904D01*
X65017857Y-77773809D01*
X64979761Y-77735714D01*
X64903571Y-77621428D01*
X64865476Y-77469047D01*
X64865476Y-77164285D01*
X64903571Y-77088095D01*
X64941666Y-77050000D01*
X65017857Y-77011904D01*
X65170238Y-77011904D01*
X65246428Y-77050000D01*
X65284523Y-77088095D01*
X65322619Y-77164285D01*
X65322619Y-77354761D01*
X65284523Y-77430952D01*
X65246428Y-77469047D01*
X65170238Y-77507142D01*
X65017857Y-77507142D01*
X64941666Y-77469047D01*
X64903571Y-77430952D01*
X64865476Y-77354761D01*
%TO.C,D28*%
X85896428Y-77811904D02*
X85896428Y-77011904D01*
X85705952Y-77011904D01*
X85591666Y-77050000D01*
X85515476Y-77126190D01*
X85477380Y-77202380D01*
X85439285Y-77354761D01*
X85439285Y-77469047D01*
X85477380Y-77621428D01*
X85515476Y-77697619D01*
X85591666Y-77773809D01*
X85705952Y-77811904D01*
X85896428Y-77811904D01*
X85134523Y-77088095D02*
X85096428Y-77050000D01*
X85020238Y-77011904D01*
X84829761Y-77011904D01*
X84753571Y-77050000D01*
X84715476Y-77088095D01*
X84677380Y-77164285D01*
X84677380Y-77240476D01*
X84715476Y-77354761D01*
X85172619Y-77811904D01*
X84677380Y-77811904D01*
X84220238Y-77354761D02*
X84296428Y-77316666D01*
X84334523Y-77278571D01*
X84372619Y-77202380D01*
X84372619Y-77164285D01*
X84334523Y-77088095D01*
X84296428Y-77050000D01*
X84220238Y-77011904D01*
X84067857Y-77011904D01*
X83991666Y-77050000D01*
X83953571Y-77088095D01*
X83915476Y-77164285D01*
X83915476Y-77202380D01*
X83953571Y-77278571D01*
X83991666Y-77316666D01*
X84067857Y-77354761D01*
X84220238Y-77354761D01*
X84296428Y-77392857D01*
X84334523Y-77430952D01*
X84372619Y-77507142D01*
X84372619Y-77659523D01*
X84334523Y-77735714D01*
X84296428Y-77773809D01*
X84220238Y-77811904D01*
X84067857Y-77811904D01*
X83991666Y-77773809D01*
X83953571Y-77735714D01*
X83915476Y-77659523D01*
X83915476Y-77507142D01*
X83953571Y-77430952D01*
X83991666Y-77392857D01*
X84067857Y-77354761D01*
%TO.C,D27*%
X104946428Y-77811904D02*
X104946428Y-77011904D01*
X104755952Y-77011904D01*
X104641666Y-77050000D01*
X104565476Y-77126190D01*
X104527380Y-77202380D01*
X104489285Y-77354761D01*
X104489285Y-77469047D01*
X104527380Y-77621428D01*
X104565476Y-77697619D01*
X104641666Y-77773809D01*
X104755952Y-77811904D01*
X104946428Y-77811904D01*
X104184523Y-77088095D02*
X104146428Y-77050000D01*
X104070238Y-77011904D01*
X103879761Y-77011904D01*
X103803571Y-77050000D01*
X103765476Y-77088095D01*
X103727380Y-77164285D01*
X103727380Y-77240476D01*
X103765476Y-77354761D01*
X104222619Y-77811904D01*
X103727380Y-77811904D01*
X103460714Y-77011904D02*
X102927380Y-77011904D01*
X103270238Y-77811904D01*
%TO.C,D26*%
X126377678Y-77811904D02*
X126377678Y-77011904D01*
X126187202Y-77011904D01*
X126072916Y-77050000D01*
X125996726Y-77126190D01*
X125958630Y-77202380D01*
X125920535Y-77354761D01*
X125920535Y-77469047D01*
X125958630Y-77621428D01*
X125996726Y-77697619D01*
X126072916Y-77773809D01*
X126187202Y-77811904D01*
X126377678Y-77811904D01*
X125615773Y-77088095D02*
X125577678Y-77050000D01*
X125501488Y-77011904D01*
X125311011Y-77011904D01*
X125234821Y-77050000D01*
X125196726Y-77088095D01*
X125158630Y-77164285D01*
X125158630Y-77240476D01*
X125196726Y-77354761D01*
X125653869Y-77811904D01*
X125158630Y-77811904D01*
X124472916Y-77011904D02*
X124625297Y-77011904D01*
X124701488Y-77050000D01*
X124739583Y-77088095D01*
X124815773Y-77202380D01*
X124853869Y-77354761D01*
X124853869Y-77659523D01*
X124815773Y-77735714D01*
X124777678Y-77773809D01*
X124701488Y-77811904D01*
X124549107Y-77811904D01*
X124472916Y-77773809D01*
X124434821Y-77735714D01*
X124396726Y-77659523D01*
X124396726Y-77469047D01*
X124434821Y-77392857D01*
X124472916Y-77354761D01*
X124549107Y-77316666D01*
X124701488Y-77316666D01*
X124777678Y-77354761D01*
X124815773Y-77392857D01*
X124853869Y-77469047D01*
%TO.C,D25*%
X145427678Y-77811904D02*
X145427678Y-77011904D01*
X145237202Y-77011904D01*
X145122916Y-77050000D01*
X145046726Y-77126190D01*
X145008630Y-77202380D01*
X144970535Y-77354761D01*
X144970535Y-77469047D01*
X145008630Y-77621428D01*
X145046726Y-77697619D01*
X145122916Y-77773809D01*
X145237202Y-77811904D01*
X145427678Y-77811904D01*
X144665773Y-77088095D02*
X144627678Y-77050000D01*
X144551488Y-77011904D01*
X144361011Y-77011904D01*
X144284821Y-77050000D01*
X144246726Y-77088095D01*
X144208630Y-77164285D01*
X144208630Y-77240476D01*
X144246726Y-77354761D01*
X144703869Y-77811904D01*
X144208630Y-77811904D01*
X143484821Y-77011904D02*
X143865773Y-77011904D01*
X143903869Y-77392857D01*
X143865773Y-77354761D01*
X143789583Y-77316666D01*
X143599107Y-77316666D01*
X143522916Y-77354761D01*
X143484821Y-77392857D01*
X143446726Y-77469047D01*
X143446726Y-77659523D01*
X143484821Y-77735714D01*
X143522916Y-77773809D01*
X143599107Y-77811904D01*
X143789583Y-77811904D01*
X143865773Y-77773809D01*
X143903869Y-77735714D01*
%TO.C,D24*%
X164477678Y-71461904D02*
X164477678Y-70661904D01*
X164287202Y-70661904D01*
X164172916Y-70700000D01*
X164096726Y-70776190D01*
X164058630Y-70852380D01*
X164020535Y-71004761D01*
X164020535Y-71119047D01*
X164058630Y-71271428D01*
X164096726Y-71347619D01*
X164172916Y-71423809D01*
X164287202Y-71461904D01*
X164477678Y-71461904D01*
X163715773Y-70738095D02*
X163677678Y-70700000D01*
X163601488Y-70661904D01*
X163411011Y-70661904D01*
X163334821Y-70700000D01*
X163296726Y-70738095D01*
X163258630Y-70814285D01*
X163258630Y-70890476D01*
X163296726Y-71004761D01*
X163753869Y-71461904D01*
X163258630Y-71461904D01*
X162572916Y-70928571D02*
X162572916Y-71461904D01*
X162763392Y-70623809D02*
X162953869Y-71195238D01*
X162458630Y-71195238D01*
%TO.C,D23*%
X183527678Y-69080654D02*
X183527678Y-68280654D01*
X183337202Y-68280654D01*
X183222916Y-68318750D01*
X183146726Y-68394940D01*
X183108630Y-68471130D01*
X183070535Y-68623511D01*
X183070535Y-68737797D01*
X183108630Y-68890178D01*
X183146726Y-68966369D01*
X183222916Y-69042559D01*
X183337202Y-69080654D01*
X183527678Y-69080654D01*
X182765773Y-68356845D02*
X182727678Y-68318750D01*
X182651488Y-68280654D01*
X182461011Y-68280654D01*
X182384821Y-68318750D01*
X182346726Y-68356845D01*
X182308630Y-68433035D01*
X182308630Y-68509226D01*
X182346726Y-68623511D01*
X182803869Y-69080654D01*
X182308630Y-69080654D01*
X182041964Y-68280654D02*
X181546726Y-68280654D01*
X181813392Y-68585416D01*
X181699107Y-68585416D01*
X181622916Y-68623511D01*
X181584821Y-68661607D01*
X181546726Y-68737797D01*
X181546726Y-68928273D01*
X181584821Y-69004464D01*
X181622916Y-69042559D01*
X181699107Y-69080654D01*
X181927678Y-69080654D01*
X182003869Y-69042559D01*
X182041964Y-69004464D01*
%TO.C,D22*%
X202577678Y-71461904D02*
X202577678Y-70661904D01*
X202387202Y-70661904D01*
X202272916Y-70700000D01*
X202196726Y-70776190D01*
X202158630Y-70852380D01*
X202120535Y-71004761D01*
X202120535Y-71119047D01*
X202158630Y-71271428D01*
X202196726Y-71347619D01*
X202272916Y-71423809D01*
X202387202Y-71461904D01*
X202577678Y-71461904D01*
X201815773Y-70738095D02*
X201777678Y-70700000D01*
X201701488Y-70661904D01*
X201511011Y-70661904D01*
X201434821Y-70700000D01*
X201396726Y-70738095D01*
X201358630Y-70814285D01*
X201358630Y-70890476D01*
X201396726Y-71004761D01*
X201853869Y-71461904D01*
X201358630Y-71461904D01*
X201053869Y-70738095D02*
X201015773Y-70700000D01*
X200939583Y-70661904D01*
X200749107Y-70661904D01*
X200672916Y-70700000D01*
X200634821Y-70738095D01*
X200596726Y-70814285D01*
X200596726Y-70890476D01*
X200634821Y-71004761D01*
X201091964Y-71461904D01*
X200596726Y-71461904D01*
%TO.C,D21*%
X221627678Y-73843154D02*
X221627678Y-73043154D01*
X221437202Y-73043154D01*
X221322916Y-73081250D01*
X221246726Y-73157440D01*
X221208630Y-73233630D01*
X221170535Y-73386011D01*
X221170535Y-73500297D01*
X221208630Y-73652678D01*
X221246726Y-73728869D01*
X221322916Y-73805059D01*
X221437202Y-73843154D01*
X221627678Y-73843154D01*
X220865773Y-73119345D02*
X220827678Y-73081250D01*
X220751488Y-73043154D01*
X220561011Y-73043154D01*
X220484821Y-73081250D01*
X220446726Y-73119345D01*
X220408630Y-73195535D01*
X220408630Y-73271726D01*
X220446726Y-73386011D01*
X220903869Y-73843154D01*
X220408630Y-73843154D01*
X219646726Y-73843154D02*
X220103869Y-73843154D01*
X219875297Y-73843154D02*
X219875297Y-73043154D01*
X219951488Y-73157440D01*
X220027678Y-73233630D01*
X220103869Y-73271726D01*
%TO.C,D20*%
X47796428Y-58761904D02*
X47796428Y-57961904D01*
X47605952Y-57961904D01*
X47491666Y-58000000D01*
X47415476Y-58076190D01*
X47377380Y-58152380D01*
X47339285Y-58304761D01*
X47339285Y-58419047D01*
X47377380Y-58571428D01*
X47415476Y-58647619D01*
X47491666Y-58723809D01*
X47605952Y-58761904D01*
X47796428Y-58761904D01*
X47034523Y-58038095D02*
X46996428Y-58000000D01*
X46920238Y-57961904D01*
X46729761Y-57961904D01*
X46653571Y-58000000D01*
X46615476Y-58038095D01*
X46577380Y-58114285D01*
X46577380Y-58190476D01*
X46615476Y-58304761D01*
X47072619Y-58761904D01*
X46577380Y-58761904D01*
X46082142Y-57961904D02*
X46005952Y-57961904D01*
X45929761Y-58000000D01*
X45891666Y-58038095D01*
X45853571Y-58114285D01*
X45815476Y-58266666D01*
X45815476Y-58457142D01*
X45853571Y-58609523D01*
X45891666Y-58685714D01*
X45929761Y-58723809D01*
X46005952Y-58761904D01*
X46082142Y-58761904D01*
X46158333Y-58723809D01*
X46196428Y-58685714D01*
X46234523Y-58609523D01*
X46272619Y-58457142D01*
X46272619Y-58266666D01*
X46234523Y-58114285D01*
X46196428Y-58038095D01*
X46158333Y-58000000D01*
X46082142Y-57961904D01*
%TO.C,D19*%
X66846428Y-58761904D02*
X66846428Y-57961904D01*
X66655952Y-57961904D01*
X66541666Y-58000000D01*
X66465476Y-58076190D01*
X66427380Y-58152380D01*
X66389285Y-58304761D01*
X66389285Y-58419047D01*
X66427380Y-58571428D01*
X66465476Y-58647619D01*
X66541666Y-58723809D01*
X66655952Y-58761904D01*
X66846428Y-58761904D01*
X65627380Y-58761904D02*
X66084523Y-58761904D01*
X65855952Y-58761904D02*
X65855952Y-57961904D01*
X65932142Y-58076190D01*
X66008333Y-58152380D01*
X66084523Y-58190476D01*
X65246428Y-58761904D02*
X65094047Y-58761904D01*
X65017857Y-58723809D01*
X64979761Y-58685714D01*
X64903571Y-58571428D01*
X64865476Y-58419047D01*
X64865476Y-58114285D01*
X64903571Y-58038095D01*
X64941666Y-58000000D01*
X65017857Y-57961904D01*
X65170238Y-57961904D01*
X65246428Y-58000000D01*
X65284523Y-58038095D01*
X65322619Y-58114285D01*
X65322619Y-58304761D01*
X65284523Y-58380952D01*
X65246428Y-58419047D01*
X65170238Y-58457142D01*
X65017857Y-58457142D01*
X64941666Y-58419047D01*
X64903571Y-58380952D01*
X64865476Y-58304761D01*
%TO.C,D18*%
X85896428Y-58761904D02*
X85896428Y-57961904D01*
X85705952Y-57961904D01*
X85591666Y-58000000D01*
X85515476Y-58076190D01*
X85477380Y-58152380D01*
X85439285Y-58304761D01*
X85439285Y-58419047D01*
X85477380Y-58571428D01*
X85515476Y-58647619D01*
X85591666Y-58723809D01*
X85705952Y-58761904D01*
X85896428Y-58761904D01*
X84677380Y-58761904D02*
X85134523Y-58761904D01*
X84905952Y-58761904D02*
X84905952Y-57961904D01*
X84982142Y-58076190D01*
X85058333Y-58152380D01*
X85134523Y-58190476D01*
X84220238Y-58304761D02*
X84296428Y-58266666D01*
X84334523Y-58228571D01*
X84372619Y-58152380D01*
X84372619Y-58114285D01*
X84334523Y-58038095D01*
X84296428Y-58000000D01*
X84220238Y-57961904D01*
X84067857Y-57961904D01*
X83991666Y-58000000D01*
X83953571Y-58038095D01*
X83915476Y-58114285D01*
X83915476Y-58152380D01*
X83953571Y-58228571D01*
X83991666Y-58266666D01*
X84067857Y-58304761D01*
X84220238Y-58304761D01*
X84296428Y-58342857D01*
X84334523Y-58380952D01*
X84372619Y-58457142D01*
X84372619Y-58609523D01*
X84334523Y-58685714D01*
X84296428Y-58723809D01*
X84220238Y-58761904D01*
X84067857Y-58761904D01*
X83991666Y-58723809D01*
X83953571Y-58685714D01*
X83915476Y-58609523D01*
X83915476Y-58457142D01*
X83953571Y-58380952D01*
X83991666Y-58342857D01*
X84067857Y-58304761D01*
%TO.C,D17*%
X104819428Y-58761904D02*
X104819428Y-57961904D01*
X104628952Y-57961904D01*
X104514666Y-58000000D01*
X104438476Y-58076190D01*
X104400380Y-58152380D01*
X104362285Y-58304761D01*
X104362285Y-58419047D01*
X104400380Y-58571428D01*
X104438476Y-58647619D01*
X104514666Y-58723809D01*
X104628952Y-58761904D01*
X104819428Y-58761904D01*
X103600380Y-58761904D02*
X104057523Y-58761904D01*
X103828952Y-58761904D02*
X103828952Y-57961904D01*
X103905142Y-58076190D01*
X103981333Y-58152380D01*
X104057523Y-58190476D01*
X103333714Y-57961904D02*
X102800380Y-57961904D01*
X103143238Y-58761904D01*
%TO.C,D16*%
X126377678Y-58761904D02*
X126377678Y-57961904D01*
X126187202Y-57961904D01*
X126072916Y-58000000D01*
X125996726Y-58076190D01*
X125958630Y-58152380D01*
X125920535Y-58304761D01*
X125920535Y-58419047D01*
X125958630Y-58571428D01*
X125996726Y-58647619D01*
X126072916Y-58723809D01*
X126187202Y-58761904D01*
X126377678Y-58761904D01*
X125158630Y-58761904D02*
X125615773Y-58761904D01*
X125387202Y-58761904D02*
X125387202Y-57961904D01*
X125463392Y-58076190D01*
X125539583Y-58152380D01*
X125615773Y-58190476D01*
X124472916Y-57961904D02*
X124625297Y-57961904D01*
X124701488Y-58000000D01*
X124739583Y-58038095D01*
X124815773Y-58152380D01*
X124853869Y-58304761D01*
X124853869Y-58609523D01*
X124815773Y-58685714D01*
X124777678Y-58723809D01*
X124701488Y-58761904D01*
X124549107Y-58761904D01*
X124472916Y-58723809D01*
X124434821Y-58685714D01*
X124396726Y-58609523D01*
X124396726Y-58419047D01*
X124434821Y-58342857D01*
X124472916Y-58304761D01*
X124549107Y-58266666D01*
X124701488Y-58266666D01*
X124777678Y-58304761D01*
X124815773Y-58342857D01*
X124853869Y-58419047D01*
%TO.C,D15*%
X145427678Y-58761904D02*
X145427678Y-57961904D01*
X145237202Y-57961904D01*
X145122916Y-58000000D01*
X145046726Y-58076190D01*
X145008630Y-58152380D01*
X144970535Y-58304761D01*
X144970535Y-58419047D01*
X145008630Y-58571428D01*
X145046726Y-58647619D01*
X145122916Y-58723809D01*
X145237202Y-58761904D01*
X145427678Y-58761904D01*
X144208630Y-58761904D02*
X144665773Y-58761904D01*
X144437202Y-58761904D02*
X144437202Y-57961904D01*
X144513392Y-58076190D01*
X144589583Y-58152380D01*
X144665773Y-58190476D01*
X143484821Y-57961904D02*
X143865773Y-57961904D01*
X143903869Y-58342857D01*
X143865773Y-58304761D01*
X143789583Y-58266666D01*
X143599107Y-58266666D01*
X143522916Y-58304761D01*
X143484821Y-58342857D01*
X143446726Y-58419047D01*
X143446726Y-58609523D01*
X143484821Y-58685714D01*
X143522916Y-58723809D01*
X143599107Y-58761904D01*
X143789583Y-58761904D01*
X143865773Y-58723809D01*
X143903869Y-58685714D01*
%TO.C,D14*%
X164477678Y-52411904D02*
X164477678Y-51611904D01*
X164287202Y-51611904D01*
X164172916Y-51650000D01*
X164096726Y-51726190D01*
X164058630Y-51802380D01*
X164020535Y-51954761D01*
X164020535Y-52069047D01*
X164058630Y-52221428D01*
X164096726Y-52297619D01*
X164172916Y-52373809D01*
X164287202Y-52411904D01*
X164477678Y-52411904D01*
X163258630Y-52411904D02*
X163715773Y-52411904D01*
X163487202Y-52411904D02*
X163487202Y-51611904D01*
X163563392Y-51726190D01*
X163639583Y-51802380D01*
X163715773Y-51840476D01*
X162572916Y-51878571D02*
X162572916Y-52411904D01*
X162763392Y-51573809D02*
X162953869Y-52145238D01*
X162458630Y-52145238D01*
%TO.C,D13*%
X183527678Y-50030654D02*
X183527678Y-49230654D01*
X183337202Y-49230654D01*
X183222916Y-49268750D01*
X183146726Y-49344940D01*
X183108630Y-49421130D01*
X183070535Y-49573511D01*
X183070535Y-49687797D01*
X183108630Y-49840178D01*
X183146726Y-49916369D01*
X183222916Y-49992559D01*
X183337202Y-50030654D01*
X183527678Y-50030654D01*
X182308630Y-50030654D02*
X182765773Y-50030654D01*
X182537202Y-50030654D02*
X182537202Y-49230654D01*
X182613392Y-49344940D01*
X182689583Y-49421130D01*
X182765773Y-49459226D01*
X182041964Y-49230654D02*
X181546726Y-49230654D01*
X181813392Y-49535416D01*
X181699107Y-49535416D01*
X181622916Y-49573511D01*
X181584821Y-49611607D01*
X181546726Y-49687797D01*
X181546726Y-49878273D01*
X181584821Y-49954464D01*
X181622916Y-49992559D01*
X181699107Y-50030654D01*
X181927678Y-50030654D01*
X182003869Y-49992559D01*
X182041964Y-49954464D01*
%TO.C,D12*%
X202577678Y-52411904D02*
X202577678Y-51611904D01*
X202387202Y-51611904D01*
X202272916Y-51650000D01*
X202196726Y-51726190D01*
X202158630Y-51802380D01*
X202120535Y-51954761D01*
X202120535Y-52069047D01*
X202158630Y-52221428D01*
X202196726Y-52297619D01*
X202272916Y-52373809D01*
X202387202Y-52411904D01*
X202577678Y-52411904D01*
X201358630Y-52411904D02*
X201815773Y-52411904D01*
X201587202Y-52411904D02*
X201587202Y-51611904D01*
X201663392Y-51726190D01*
X201739583Y-51802380D01*
X201815773Y-51840476D01*
X201053869Y-51688095D02*
X201015773Y-51650000D01*
X200939583Y-51611904D01*
X200749107Y-51611904D01*
X200672916Y-51650000D01*
X200634821Y-51688095D01*
X200596726Y-51764285D01*
X200596726Y-51840476D01*
X200634821Y-51954761D01*
X201091964Y-52411904D01*
X200596726Y-52411904D01*
%TO.C,D11*%
X221627678Y-54793154D02*
X221627678Y-53993154D01*
X221437202Y-53993154D01*
X221322916Y-54031250D01*
X221246726Y-54107440D01*
X221208630Y-54183630D01*
X221170535Y-54336011D01*
X221170535Y-54450297D01*
X221208630Y-54602678D01*
X221246726Y-54678869D01*
X221322916Y-54755059D01*
X221437202Y-54793154D01*
X221627678Y-54793154D01*
X220408630Y-54793154D02*
X220865773Y-54793154D01*
X220637202Y-54793154D02*
X220637202Y-53993154D01*
X220713392Y-54107440D01*
X220789583Y-54183630D01*
X220865773Y-54221726D01*
X219646726Y-54793154D02*
X220103869Y-54793154D01*
X219875297Y-54793154D02*
X219875297Y-53993154D01*
X219951488Y-54107440D01*
X220027678Y-54183630D01*
X220103869Y-54221726D01*
%TO.C,D10*%
X47796428Y-39711904D02*
X47796428Y-38911904D01*
X47605952Y-38911904D01*
X47491666Y-38950000D01*
X47415476Y-39026190D01*
X47377380Y-39102380D01*
X47339285Y-39254761D01*
X47339285Y-39369047D01*
X47377380Y-39521428D01*
X47415476Y-39597619D01*
X47491666Y-39673809D01*
X47605952Y-39711904D01*
X47796428Y-39711904D01*
X46577380Y-39711904D02*
X47034523Y-39711904D01*
X46805952Y-39711904D02*
X46805952Y-38911904D01*
X46882142Y-39026190D01*
X46958333Y-39102380D01*
X47034523Y-39140476D01*
X46082142Y-38911904D02*
X46005952Y-38911904D01*
X45929761Y-38950000D01*
X45891666Y-38988095D01*
X45853571Y-39064285D01*
X45815476Y-39216666D01*
X45815476Y-39407142D01*
X45853571Y-39559523D01*
X45891666Y-39635714D01*
X45929761Y-39673809D01*
X46005952Y-39711904D01*
X46082142Y-39711904D01*
X46158333Y-39673809D01*
X46196428Y-39635714D01*
X46234523Y-39559523D01*
X46272619Y-39407142D01*
X46272619Y-39216666D01*
X46234523Y-39064285D01*
X46196428Y-38988095D01*
X46158333Y-38950000D01*
X46082142Y-38911904D01*
%TO.C,D9*%
X66465476Y-39711904D02*
X66465476Y-38911904D01*
X66275000Y-38911904D01*
X66160714Y-38950000D01*
X66084523Y-39026190D01*
X66046428Y-39102380D01*
X66008333Y-39254761D01*
X66008333Y-39369047D01*
X66046428Y-39521428D01*
X66084523Y-39597619D01*
X66160714Y-39673809D01*
X66275000Y-39711904D01*
X66465476Y-39711904D01*
X65627380Y-39711904D02*
X65475000Y-39711904D01*
X65398809Y-39673809D01*
X65360714Y-39635714D01*
X65284523Y-39521428D01*
X65246428Y-39369047D01*
X65246428Y-39064285D01*
X65284523Y-38988095D01*
X65322619Y-38950000D01*
X65398809Y-38911904D01*
X65551190Y-38911904D01*
X65627380Y-38950000D01*
X65665476Y-38988095D01*
X65703571Y-39064285D01*
X65703571Y-39254761D01*
X65665476Y-39330952D01*
X65627380Y-39369047D01*
X65551190Y-39407142D01*
X65398809Y-39407142D01*
X65322619Y-39369047D01*
X65284523Y-39330952D01*
X65246428Y-39254761D01*
%TO.C,D8*%
X85515476Y-39711904D02*
X85515476Y-38911904D01*
X85325000Y-38911904D01*
X85210714Y-38950000D01*
X85134523Y-39026190D01*
X85096428Y-39102380D01*
X85058333Y-39254761D01*
X85058333Y-39369047D01*
X85096428Y-39521428D01*
X85134523Y-39597619D01*
X85210714Y-39673809D01*
X85325000Y-39711904D01*
X85515476Y-39711904D01*
X84601190Y-39254761D02*
X84677380Y-39216666D01*
X84715476Y-39178571D01*
X84753571Y-39102380D01*
X84753571Y-39064285D01*
X84715476Y-38988095D01*
X84677380Y-38950000D01*
X84601190Y-38911904D01*
X84448809Y-38911904D01*
X84372619Y-38950000D01*
X84334523Y-38988095D01*
X84296428Y-39064285D01*
X84296428Y-39102380D01*
X84334523Y-39178571D01*
X84372619Y-39216666D01*
X84448809Y-39254761D01*
X84601190Y-39254761D01*
X84677380Y-39292857D01*
X84715476Y-39330952D01*
X84753571Y-39407142D01*
X84753571Y-39559523D01*
X84715476Y-39635714D01*
X84677380Y-39673809D01*
X84601190Y-39711904D01*
X84448809Y-39711904D01*
X84372619Y-39673809D01*
X84334523Y-39635714D01*
X84296428Y-39559523D01*
X84296428Y-39407142D01*
X84334523Y-39330952D01*
X84372619Y-39292857D01*
X84448809Y-39254761D01*
%TO.C,D7*%
X104565476Y-39711904D02*
X104565476Y-38911904D01*
X104375000Y-38911904D01*
X104260714Y-38950000D01*
X104184523Y-39026190D01*
X104146428Y-39102380D01*
X104108333Y-39254761D01*
X104108333Y-39369047D01*
X104146428Y-39521428D01*
X104184523Y-39597619D01*
X104260714Y-39673809D01*
X104375000Y-39711904D01*
X104565476Y-39711904D01*
X103841666Y-38911904D02*
X103308333Y-38911904D01*
X103651190Y-39711904D01*
%TO.C,D6*%
X125996726Y-39711904D02*
X125996726Y-38911904D01*
X125806250Y-38911904D01*
X125691964Y-38950000D01*
X125615773Y-39026190D01*
X125577678Y-39102380D01*
X125539583Y-39254761D01*
X125539583Y-39369047D01*
X125577678Y-39521428D01*
X125615773Y-39597619D01*
X125691964Y-39673809D01*
X125806250Y-39711904D01*
X125996726Y-39711904D01*
X124853869Y-38911904D02*
X125006250Y-38911904D01*
X125082440Y-38950000D01*
X125120535Y-38988095D01*
X125196726Y-39102380D01*
X125234821Y-39254761D01*
X125234821Y-39559523D01*
X125196726Y-39635714D01*
X125158630Y-39673809D01*
X125082440Y-39711904D01*
X124930059Y-39711904D01*
X124853869Y-39673809D01*
X124815773Y-39635714D01*
X124777678Y-39559523D01*
X124777678Y-39369047D01*
X124815773Y-39292857D01*
X124853869Y-39254761D01*
X124930059Y-39216666D01*
X125082440Y-39216666D01*
X125158630Y-39254761D01*
X125196726Y-39292857D01*
X125234821Y-39369047D01*
%TO.C,D5*%
X145046726Y-39711904D02*
X145046726Y-38911904D01*
X144856250Y-38911904D01*
X144741964Y-38950000D01*
X144665773Y-39026190D01*
X144627678Y-39102380D01*
X144589583Y-39254761D01*
X144589583Y-39369047D01*
X144627678Y-39521428D01*
X144665773Y-39597619D01*
X144741964Y-39673809D01*
X144856250Y-39711904D01*
X145046726Y-39711904D01*
X143865773Y-38911904D02*
X144246726Y-38911904D01*
X144284821Y-39292857D01*
X144246726Y-39254761D01*
X144170535Y-39216666D01*
X143980059Y-39216666D01*
X143903869Y-39254761D01*
X143865773Y-39292857D01*
X143827678Y-39369047D01*
X143827678Y-39559523D01*
X143865773Y-39635714D01*
X143903869Y-39673809D01*
X143980059Y-39711904D01*
X144170535Y-39711904D01*
X144246726Y-39673809D01*
X144284821Y-39635714D01*
%TO.C,D4*%
X164096726Y-33361904D02*
X164096726Y-32561904D01*
X163906250Y-32561904D01*
X163791964Y-32600000D01*
X163715773Y-32676190D01*
X163677678Y-32752380D01*
X163639583Y-32904761D01*
X163639583Y-33019047D01*
X163677678Y-33171428D01*
X163715773Y-33247619D01*
X163791964Y-33323809D01*
X163906250Y-33361904D01*
X164096726Y-33361904D01*
X162953869Y-32828571D02*
X162953869Y-33361904D01*
X163144345Y-32523809D02*
X163334821Y-33095238D01*
X162839583Y-33095238D01*
%TO.C,D3*%
X183146726Y-30980654D02*
X183146726Y-30180654D01*
X182956250Y-30180654D01*
X182841964Y-30218750D01*
X182765773Y-30294940D01*
X182727678Y-30371130D01*
X182689583Y-30523511D01*
X182689583Y-30637797D01*
X182727678Y-30790178D01*
X182765773Y-30866369D01*
X182841964Y-30942559D01*
X182956250Y-30980654D01*
X183146726Y-30980654D01*
X182422916Y-30180654D02*
X181927678Y-30180654D01*
X182194345Y-30485416D01*
X182080059Y-30485416D01*
X182003869Y-30523511D01*
X181965773Y-30561607D01*
X181927678Y-30637797D01*
X181927678Y-30828273D01*
X181965773Y-30904464D01*
X182003869Y-30942559D01*
X182080059Y-30980654D01*
X182308630Y-30980654D01*
X182384821Y-30942559D01*
X182422916Y-30904464D01*
%TO.C,D2*%
X202196726Y-33361904D02*
X202196726Y-32561904D01*
X202006250Y-32561904D01*
X201891964Y-32600000D01*
X201815773Y-32676190D01*
X201777678Y-32752380D01*
X201739583Y-32904761D01*
X201739583Y-33019047D01*
X201777678Y-33171428D01*
X201815773Y-33247619D01*
X201891964Y-33323809D01*
X202006250Y-33361904D01*
X202196726Y-33361904D01*
X201434821Y-32638095D02*
X201396726Y-32600000D01*
X201320535Y-32561904D01*
X201130059Y-32561904D01*
X201053869Y-32600000D01*
X201015773Y-32638095D01*
X200977678Y-32714285D01*
X200977678Y-32790476D01*
X201015773Y-32904761D01*
X201472916Y-33361904D01*
X200977678Y-33361904D01*
%TO.C,D1*%
X221246726Y-35743154D02*
X221246726Y-34943154D01*
X221056250Y-34943154D01*
X220941964Y-34981250D01*
X220865773Y-35057440D01*
X220827678Y-35133630D01*
X220789583Y-35286011D01*
X220789583Y-35400297D01*
X220827678Y-35552678D01*
X220865773Y-35628869D01*
X220941964Y-35705059D01*
X221056250Y-35743154D01*
X221246726Y-35743154D01*
X220027678Y-35743154D02*
X220484821Y-35743154D01*
X220256250Y-35743154D02*
X220256250Y-34943154D01*
X220332440Y-35057440D01*
X220408630Y-35133630D01*
X220484821Y-35171726D01*
%TD*%
M02*
