M48
; DRILL file {KiCad (5.1.9-0-10_14)} date Monday, April 26, 2021 at 10:25:47 PM
; FORMAT={-:-/ absolute / inch / decimal}
; #@! TF.CreationDate,2021-04-26T22:25:47-05:00
; #@! TF.GenerationSoftware,Kicad,Pcbnew,(5.1.9-0-10_14)
; #@! TF.FileFunction,Plated,1,2,PTH
FMAT,2
INCH
T1C0.0157
T2C0.0276
T3C0.0394
T4C0.0430
T5C0.0433
T6C0.0590
T7C0.0591
%
G90
G05
T1
X1.6843Y-1.928
X2.3957Y-1.6934
X3.1457Y-1.7966
X3.8957Y-1.6816
X3.8957Y-1.8716
X4.3148Y-1.7702
X4.4298Y-1.9975
X4.6098Y-1.9975
X4.7048Y-1.7131
X4.7486Y-1.8986
X5.5184Y-1.9184
X6.0785Y-2.4712
X6.107Y-2.4312
X6.107Y-2.4991
X6.2394Y-2.1922
X6.9894Y-2.1477
X7.7394Y-2.2552
X8.4894Y-2.3632
X8.9098Y-2.1725
X9.1498Y-2.0525
X9.2758Y-1.9525
X9.3729Y-2.3919
X9.4535Y-1.8413
X9.4535Y-2.0913
X9.4735Y-2.4362
X9.5485Y-2.2312
X9.5485Y-2.4362
X9.7242Y-1.9825
X9.7748Y-2.5075
T2
X1.69Y-1.625
X1.69Y-2.375
X1.69Y-3.125
X1.69Y-3.875
X1.997Y-1.625
X1.997Y-2.375
X1.997Y-3.125
X1.997Y-3.875
X2.44Y-1.625
X2.44Y-2.375
X2.44Y-3.125
X2.44Y-3.875
X2.747Y-1.625
X2.747Y-2.375
X2.747Y-3.125
X2.747Y-3.875
X3.19Y-1.625
X3.19Y-2.375
X3.19Y-3.125
X3.19Y-3.875
X3.497Y-1.625
X3.497Y-2.375
X3.497Y-3.125
X3.497Y-3.875
X3.935Y-2.375
X3.94Y-1.625
X3.94Y-3.125
X3.94Y-3.875
X4.242Y-2.375
X4.247Y-1.625
X4.247Y-3.125
X4.247Y-3.875
X4.7837Y-1.625
X4.7837Y-2.375
X4.7837Y-3.125
X4.7837Y-3.875
X5.0908Y-1.625
X5.0908Y-2.375
X5.0908Y-3.125
X5.0908Y-3.875
X5.5337Y-1.625
X5.5337Y-2.375
X5.5337Y-3.125
X5.5337Y-3.875
X5.8408Y-1.625
X5.8408Y-2.375
X5.8408Y-3.125
X5.8408Y-3.875
X6.045Y-4.1662
X6.2837Y-1.375
X6.2837Y-2.125
X6.2837Y-2.875
X6.2837Y-3.625
X6.352Y-4.1662
X6.5908Y-1.375
X6.5908Y-2.125
X6.5908Y-2.875
X6.5908Y-3.625
X6.69Y-4.5
X6.997Y-4.5
X7.0337Y-1.2812
X7.0337Y-2.0312
X7.0337Y-2.7812
X7.0337Y-3.5312
X7.3408Y-1.2812
X7.3408Y-2.0312
X7.3408Y-2.7812
X7.3408Y-3.5312
X7.44Y-4.5
X7.747Y-4.5
X7.7837Y-1.375
X7.7837Y-2.125
X7.7837Y-2.875
X7.7837Y-3.625
X8.0908Y-1.375
X8.0908Y-2.125
X8.0908Y-2.875
X8.0908Y-3.625
X8.19Y-4.5938
X8.497Y-4.5938
X8.5337Y-1.4688
X8.5337Y-2.2188
X8.5337Y-2.9688
X8.5337Y-3.7188
X8.8408Y-1.4688
X8.8408Y-2.2188
X8.8408Y-2.9688
X8.8408Y-3.7188
X9.3931Y-1.5
X9.3931Y-1.7188
X9.5165Y-4.5392
X9.5931Y-1.5
X9.5931Y-1.7188
X9.67Y-4.2733
T3
X6.0985Y-4.0263
X6.0985Y-4.5971
X6.1969Y-4.5971
X6.2954Y-4.0263
X6.2954Y-4.5971
T4
X9.2Y-1.2
X9.2Y-1.3
X9.2Y-1.4
X9.2Y-1.5
X9.2Y-1.6
X9.2Y-1.7
X9.2Y-1.8
X9.2Y-1.9
X9.2Y-2.0
X9.2Y-2.1
X9.2Y-2.2
X9.2Y-2.3
X9.3Y-2.3
X9.4Y-2.3
X9.5Y-2.3
X9.6Y-2.3
X9.7Y-2.3
X9.791Y-2.3
X9.8Y-1.2
X9.8Y-1.3
X9.8Y-1.4
X9.8Y-1.5
X9.8Y-1.6
X9.8Y-1.7
X9.8Y-1.8
X9.8Y-1.9
X9.8Y-2.0
X9.8Y-2.1
X9.8Y-2.2
T5
X9.3725Y-2.4688
X9.3725Y-2.6459
X9.6284Y-2.4688
X9.6284Y-2.6459
T6
X1.6937Y-1.3375
X1.6937Y-2.0875
X1.6937Y-2.8375
X1.6937Y-3.5875
X1.7437Y-1.2375
X1.7437Y-1.9875
X1.7437Y-2.7375
X1.7437Y-3.4875
X1.9437Y-1.2375
X1.9437Y-1.9875
X1.9437Y-2.7375
X1.9437Y-3.4875
X1.9937Y-1.3375
X1.9937Y-2.0875
X1.9937Y-2.8375
X1.9937Y-3.5875
X2.4438Y-1.3375
X2.4438Y-2.0875
X2.4438Y-2.8375
X2.4438Y-3.5875
X2.4937Y-1.2375
X2.4937Y-1.9875
X2.4937Y-2.7375
X2.4937Y-3.4875
X2.6938Y-1.2375
X2.6938Y-1.9875
X2.6938Y-2.7375
X2.6938Y-3.4875
X2.7437Y-1.3375
X2.7437Y-2.0875
X2.7437Y-2.8375
X2.7437Y-3.5875
X3.1938Y-1.3375
X3.1938Y-2.0875
X3.1938Y-2.8375
X3.1938Y-3.5875
X3.2437Y-1.2375
X3.2437Y-1.9875
X3.2437Y-2.7375
X3.2437Y-3.4875
X3.4438Y-1.2375
X3.4438Y-1.9875
X3.4438Y-2.7375
X3.4438Y-3.4875
X3.4937Y-1.3375
X3.4937Y-2.0875
X3.4937Y-2.8375
X3.4937Y-3.5875
X3.9438Y-1.3375
X3.9438Y-2.0875
X3.9438Y-2.8375
X3.9438Y-3.5875
X3.9937Y-1.2375
X3.9937Y-1.9875
X3.9937Y-2.7375
X3.9937Y-3.4875
X4.1937Y-1.2375
X4.1937Y-1.9875
X4.1937Y-2.7375
X4.1937Y-3.4875
X4.2437Y-1.3375
X4.2437Y-2.0875
X4.2437Y-2.8375
X4.2437Y-3.5875
X4.7875Y-1.3375
X4.7875Y-2.0875
X4.7875Y-2.8375
X4.7875Y-3.5875
X4.8375Y-1.2375
X4.8375Y-1.9875
X4.8375Y-2.7375
X4.8375Y-3.4875
X5.0375Y-1.2375
X5.0375Y-1.9875
X5.0375Y-2.7375
X5.0375Y-3.4875
X5.0875Y-1.3375
X5.0875Y-2.0875
X5.0875Y-2.8375
X5.0875Y-3.5875
X5.5375Y-1.3375
X5.5375Y-2.0875
X5.5375Y-2.8375
X5.5375Y-3.5875
X5.5875Y-1.2375
X5.5875Y-1.9875
X5.5875Y-2.7375
X5.5875Y-3.4875
X5.7875Y-1.2375
X5.7875Y-1.9875
X5.7875Y-2.7375
X5.7875Y-3.4875
X5.8375Y-1.3375
X5.8375Y-2.0875
X5.8375Y-2.8375
X5.8375Y-3.5875
X6.2875Y-1.0875
X6.2875Y-1.8375
X6.2875Y-2.5875
X6.2875Y-3.3375
X6.3375Y-0.9875
X6.3375Y-1.7375
X6.3375Y-2.4875
X6.3375Y-3.2375
X6.5375Y-0.9875
X6.5375Y-1.7375
X6.5375Y-2.4875
X6.5375Y-3.2375
X6.5875Y-1.0875
X6.5875Y-1.8375
X6.5875Y-2.5875
X6.5875Y-3.3375
X6.6935Y-4.2012
X6.7435Y-4.1013
X6.9435Y-4.1013
X6.9935Y-4.2012
X7.0375Y-0.9938
X7.0375Y-1.7437
X7.0375Y-2.4937
X7.0375Y-3.2437
X7.0875Y-0.8937
X7.0875Y-1.6438
X7.0875Y-2.3937
X7.0875Y-3.1437
X7.2875Y-0.8937
X7.2875Y-1.6438
X7.2875Y-2.3937
X7.2875Y-3.1437
X7.3375Y-0.9938
X7.3375Y-1.7437
X7.3375Y-2.4937
X7.3375Y-3.2437
X7.4435Y-4.2012
X7.4935Y-4.1013
X7.6935Y-4.1013
X7.7435Y-4.2012
X7.7875Y-1.0875
X7.7875Y-1.8375
X7.7875Y-2.5875
X7.7875Y-3.3375
X7.8375Y-0.9875
X7.8375Y-1.7375
X7.8375Y-2.4875
X7.8375Y-3.2375
X8.0375Y-0.9875
X8.0375Y-1.7375
X8.0375Y-2.4875
X8.0375Y-3.2375
X8.0875Y-1.0875
X8.0875Y-1.8375
X8.0875Y-2.5875
X8.0875Y-3.3375
X8.1935Y-4.3062
X8.2435Y-4.2062
X8.4435Y-4.2062
X8.4935Y-4.3062
X8.5375Y-1.1812
X8.5375Y-1.9312
X8.5375Y-2.6812
X8.5375Y-3.4312
X8.5875Y-1.0813
X8.5875Y-1.8313
X8.5875Y-2.5812
X8.5875Y-3.3312
X8.7875Y-1.0813
X8.7875Y-1.8313
X8.7875Y-2.5812
X8.7875Y-3.3312
X8.8375Y-1.1812
X8.8375Y-1.9312
X8.8375Y-2.6812
X8.8375Y-3.4312
X9.2053Y-4.3079
X9.2669Y-4.4012
X9.3053Y-4.1346
X9.4169Y-4.1413
T3
G00X9.9385Y-3.5852
M15
G01X9.9227Y-3.6125
M16
G05
G00X9.9816Y-3.6601
M15
G01X9.9659Y-3.6874
M16
G05
G00X10.0172Y-3.4488
M15
G01X10.0015Y-3.4761
M16
G05
G00X10.0737Y-3.7133
M15
G01X10.0579Y-3.7405
M16
G05
G00X10.0763Y-3.3465
M15
G01X10.0605Y-3.3738
M16
G05
G00X10.1601Y-3.7132
M15
G01X10.1443Y-3.7404
M16
G05
G00X10.2388Y-3.5768
M15
G01X10.2231Y-3.6041
M16
G05
G00X10.2979Y-3.4745
M15
G01X10.2821Y-3.5018
M16
G05
T7
G00X5.9765Y-4.3274
M15
G01X5.9765Y-4.2763
M16
G05
G00X6.4174Y-4.3274
M15
G01X6.4174Y-4.2763
M16
G05
T0
M30
