M48
; DRILL file {KiCad (5.1.9-0-10_14)} date Monday, April 19, 2021 at 01:21:17 AM
; FORMAT={-:-/ absolute / inch / decimal}
; #@! TF.CreationDate,2021-04-19T01:21:17-05:00
; #@! TF.GenerationSoftware,Kicad,Pcbnew,(5.1.9-0-10_14)
; #@! TF.FileFunction,NonPlated,1,2,NPTH
FMAT,2
INCH
T1C0.0118
T2C0.0120
T3C0.0866
%
G90
G05
T3
X2.5637Y-5.25
X3.1575Y-2.6562
X3.1575Y-4.1562
X6.1575Y-2.6875
X6.1575Y-4.1875
T1
G00X1.4515Y-4.8982
M15
G01X1.4771Y-4.8835
M16
G05
G00X1.4771Y-4.8835
M15
G01X1.4584Y-4.8511
M16
G05
G00X1.4584Y-4.8511
M15
G01X1.8846Y-4.605
M16
G05
G00X2.0962Y-6.0149
M15
G01X1.4515Y-4.8982
M16
G05
G00X1.9033Y-4.6374
M15
G01X1.8846Y-4.605
M16
G05
G00X1.9033Y-4.6374
M15
G01X1.9288Y-4.6226
M16
G05
G00X2.0962Y-6.0149
M15
G01X2.1217Y-6.0001
M16
G05
G00X2.1404Y-6.0325
M15
G01X2.1217Y-6.0001
M16
G05
G00X2.5735Y-5.7393
M15
G01X1.9288Y-4.6226
M16
G05
G00X2.1404Y-6.0325
M15
G01X2.5666Y-5.7864
M16
G05
G00X2.4754Y-2.0352
M15
G01X2.4754Y-2.5273
M16
G05
G00X2.4754Y-2.7852
M15
G01X2.4754Y-3.2773
M16
G05
G00X2.4754Y-3.5352
M15
G01X2.4754Y-4.0273
M16
G05
G00X2.4754Y-4.2852
M15
G01X2.4754Y-4.7773
M16
G05
G00X2.4754Y-2.0352
M15
G01X2.5128Y-2.0352
M16
G05
G00X2.4754Y-2.5273
M15
G01X2.5128Y-2.5273
M16
G05
G00X2.4754Y-2.7852
M15
G01X2.5128Y-2.7852
M16
G05
G00X2.4754Y-3.2773
M15
G01X2.5128Y-3.2773
M16
G05
G00X2.4754Y-3.5352
M15
G01X2.5128Y-3.5352
M16
G05
G00X2.4754Y-4.0273
M15
G01X2.5128Y-4.0273
M16
G05
G00X2.4754Y-4.2852
M15
G01X2.5128Y-4.2852
M16
G05
G00X2.4754Y-4.7773
M15
G01X2.5128Y-4.7773
M16
G05
G00X2.5128Y-2.0057
M15
G01X2.5128Y-2.0352
M16
G05
G00X2.5128Y-2.5273
M15
G01X2.5128Y-2.5568
M16
G05
G00X2.5128Y-2.7557
M15
G01X2.5128Y-2.7852
M16
G05
G00X2.5128Y-3.2773
M15
G01X2.5128Y-3.3068
M16
G05
G00X2.5128Y-3.5057
M15
G01X2.5128Y-3.5352
M16
G05
G00X2.5128Y-4.0273
M15
G01X2.5128Y-4.0568
M16
G05
G00X2.5128Y-4.2557
M15
G01X2.5128Y-4.2852
M16
G05
G00X2.5128Y-4.7773
M15
G01X2.5128Y-4.8068
M16
G05
G00X2.5666Y-5.7864
M15
G01X2.5479Y-5.754
M16
G05
G00X2.5479Y-5.754
M15
G01X2.5735Y-5.7393
M16
G05
G00X2.5128Y-2.0057
M15
G01X3.0522Y-2.0057
M16
G05
G00X2.5128Y-2.5568
M15
G01X3.0522Y-2.5568
M16
G05
G00X2.5128Y-2.7557
M15
G01X3.0522Y-2.7557
M16
G05
G00X2.5128Y-3.3068
M15
G01X3.0522Y-3.3068
M16
G05
G00X2.5128Y-3.5057
M15
G01X3.0522Y-3.5057
M16
G05
G00X2.5128Y-4.0568
M15
G01X3.0522Y-4.0568
M16
G05
G00X2.5128Y-4.2557
M15
G01X3.0522Y-4.2557
M16
G05
G00X2.5128Y-4.8068
M15
G01X3.0522Y-4.8068
M16
G05
G00X2.8192Y-5.1602
M15
G01X2.8192Y-5.6523
M16
G05
G00X2.8192Y-5.1602
M15
G01X2.8566Y-5.1602
M16
G05
G00X2.8192Y-5.6523
M15
G01X2.8566Y-5.6523
M16
G05
G00X2.8566Y-5.1307
M15
G01X2.8566Y-5.1602
M16
G05
G00X2.8566Y-5.6523
M15
G01X2.8566Y-5.6818
M16
G05
G00X3.0522Y-2.0057
M15
G01X3.0522Y-2.0352
M16
G05
G00X3.0522Y-2.5273
M15
G01X3.0522Y-2.5568
M16
G05
G00X3.0522Y-2.7557
M15
G01X3.0522Y-2.7852
M16
G05
G00X3.0522Y-3.2773
M15
G01X3.0522Y-3.3068
M16
G05
G00X3.0522Y-3.5057
M15
G01X3.0522Y-3.5352
M16
G05
G00X3.0522Y-4.0273
M15
G01X3.0522Y-4.0568
M16
G05
G00X3.0522Y-4.2557
M15
G01X3.0522Y-4.2852
M16
G05
G00X3.0522Y-4.7773
M15
G01X3.0522Y-4.8068
M16
G05
G00X3.0522Y-2.0352
M15
G01X3.0896Y-2.0352
M16
G05
G00X3.0522Y-2.5273
M15
G01X3.0896Y-2.5273
M16
G05
G00X3.0522Y-2.7852
M15
G01X3.0896Y-2.7852
M16
G05
G00X3.0522Y-3.2773
M15
G01X3.0896Y-3.2773
M16
G05
G00X3.0522Y-3.5352
M15
G01X3.0896Y-3.5352
M16
G05
G00X3.0522Y-4.0273
M15
G01X3.0896Y-4.0273
M16
G05
G00X3.0522Y-4.2852
M15
G01X3.0896Y-4.2852
M16
G05
G00X3.0522Y-4.7773
M15
G01X3.0896Y-4.7773
M16
G05
G00X3.0896Y-2.0352
M15
G01X3.0896Y-2.5273
M16
G05
G00X3.0896Y-2.7852
M15
G01X3.0896Y-3.2773
M16
G05
G00X3.0896Y-3.5352
M15
G01X3.0896Y-4.0273
M16
G05
G00X3.0896Y-4.2852
M15
G01X3.0896Y-4.7773
M16
G05
G00X2.8566Y-5.1307
M15
G01X3.3959Y-5.1307
M16
G05
G00X2.8566Y-5.6818
M15
G01X3.3959Y-5.6818
M16
G05
G00X3.2254Y-1.9414
M15
G01X3.2254Y-2.4336
M16
G05
G00X3.2254Y-2.6914
M15
G01X3.2254Y-3.1836
M16
G05
G00X3.2254Y-3.4414
M15
G01X3.2254Y-3.9336
M16
G05
G00X3.2254Y-4.1914
M15
G01X3.2254Y-4.6836
M16
G05
G00X3.2254Y-1.9414
M15
G01X3.2628Y-1.9414
M16
G05
G00X3.2254Y-2.4336
M15
G01X3.2628Y-2.4336
M16
G05
G00X3.2254Y-2.6914
M15
G01X3.2628Y-2.6914
M16
G05
G00X3.2254Y-3.1836
M15
G01X3.2628Y-3.1836
M16
G05
G00X3.2254Y-3.4414
M15
G01X3.2628Y-3.4414
M16
G05
G00X3.2254Y-3.9336
M15
G01X3.2628Y-3.9336
M16
G05
G00X3.2254Y-4.1914
M15
G01X3.2628Y-4.1914
M16
G05
G00X3.2254Y-4.6836
M15
G01X3.2628Y-4.6836
M16
G05
G00X3.2628Y-1.9119
M15
G01X3.2628Y-1.9414
M16
G05
G00X3.2628Y-2.4336
M15
G01X3.2628Y-2.4631
M16
G05
G00X3.2628Y-2.6619
M15
G01X3.2628Y-2.6914
M16
G05
G00X3.2628Y-3.1836
M15
G01X3.2628Y-3.2131
M16
G05
G00X3.2628Y-3.4119
M15
G01X3.2628Y-3.4414
M16
G05
G00X3.2628Y-3.9336
M15
G01X3.2628Y-3.9631
M16
G05
G00X3.2628Y-4.1619
M15
G01X3.2628Y-4.1914
M16
G05
G00X3.2628Y-4.6836
M15
G01X3.2628Y-4.7131
M16
G05
G00X3.3959Y-5.1307
M15
G01X3.3959Y-5.1602
M16
G05
G00X3.3959Y-5.6523
M15
G01X3.3959Y-5.6818
M16
G05
G00X3.3959Y-5.1602
M15
G01X3.4333Y-5.1602
M16
G05
G00X3.3959Y-5.6523
M15
G01X3.4333Y-5.6523
M16
G05
G00X3.4333Y-5.1602
M15
G01X3.4333Y-5.6523
M16
G05
G00X3.2628Y-1.9119
M15
G01X3.8022Y-1.9119
M16
G05
G00X3.2628Y-2.4631
M15
G01X3.8022Y-2.4631
M16
G05
G00X3.2628Y-2.6619
M15
G01X3.8022Y-2.6619
M16
G05
G00X3.2628Y-3.2131
M15
G01X3.8022Y-3.2131
M16
G05
G00X3.2628Y-3.4119
M15
G01X3.8022Y-3.4119
M16
G05
G00X3.2628Y-3.9631
M15
G01X3.8022Y-3.9631
M16
G05
G00X3.2628Y-4.1619
M15
G01X3.8022Y-4.1619
M16
G05
G00X3.2628Y-4.7131
M15
G01X3.8022Y-4.7131
M16
G05
G00X3.5692Y-5.0664
M15
G01X3.5692Y-5.5586
M16
G05
G00X3.5692Y-5.0664
M15
G01X3.6066Y-5.0664
M16
G05
G00X3.5692Y-5.5586
M15
G01X3.6066Y-5.5586
M16
G05
G00X3.6066Y-5.0369
M15
G01X3.6066Y-5.0664
M16
G05
G00X3.6066Y-5.5586
M15
G01X3.6066Y-5.5881
M16
G05
G00X3.8022Y-1.9119
M15
G01X3.8022Y-1.9414
M16
G05
G00X3.8022Y-2.4336
M15
G01X3.8022Y-2.4631
M16
G05
G00X3.8022Y-2.6619
M15
G01X3.8022Y-2.6914
M16
G05
G00X3.8022Y-3.1836
M15
G01X3.8022Y-3.2131
M16
G05
G00X3.8022Y-3.4119
M15
G01X3.8022Y-3.4414
M16
G05
G00X3.8022Y-3.9336
M15
G01X3.8022Y-3.9631
M16
G05
G00X3.8022Y-4.1619
M15
G01X3.8022Y-4.1914
M16
G05
G00X3.8022Y-4.6836
M15
G01X3.8022Y-4.7131
M16
G05
G00X3.8022Y-1.9414
M15
G01X3.8396Y-1.9414
M16
G05
G00X3.8022Y-2.4336
M15
G01X3.8396Y-2.4336
M16
G05
G00X3.8022Y-2.6914
M15
G01X3.8396Y-2.6914
M16
G05
G00X3.8022Y-3.1836
M15
G01X3.8396Y-3.1836
M16
G05
G00X3.8022Y-3.4414
M15
G01X3.8396Y-3.4414
M16
G05
G00X3.8022Y-3.9336
M15
G01X3.8396Y-3.9336
M16
G05
G00X3.8022Y-4.1914
M15
G01X3.8396Y-4.1914
M16
G05
G00X3.8022Y-4.6836
M15
G01X3.8396Y-4.6836
M16
G05
G00X3.8396Y-1.9414
M15
G01X3.8396Y-2.4336
M16
G05
G00X3.8396Y-2.6914
M15
G01X3.8396Y-3.1836
M16
G05
G00X3.8396Y-3.4414
M15
G01X3.8396Y-3.9336
M16
G05
G00X3.8396Y-4.1914
M15
G01X3.8396Y-4.6836
M16
G05
G00X3.6066Y-5.0369
M15
G01X4.1459Y-5.0369
M16
G05
G00X3.6066Y-5.5881
M15
G01X4.1459Y-5.5881
M16
G05
G00X3.9754Y-1.8477
M15
G01X3.9754Y-2.3398
M16
G05
G00X3.9754Y-2.5977
M15
G01X3.9754Y-3.0898
M16
G05
G00X3.9754Y-3.3477
M15
G01X3.9754Y-3.8398
M16
G05
G00X3.9754Y-4.0977
M15
G01X3.9754Y-4.5898
M16
G05
G00X3.9754Y-1.8477
M15
G01X4.0128Y-1.8477
M16
G05
G00X3.9754Y-2.3398
M15
G01X4.0128Y-2.3398
M16
G05
G00X3.9754Y-2.5977
M15
G01X4.0128Y-2.5977
M16
G05
G00X3.9754Y-3.0898
M15
G01X4.0128Y-3.0898
M16
G05
G00X3.9754Y-3.3477
M15
G01X4.0128Y-3.3477
M16
G05
G00X3.9754Y-3.8398
M15
G01X4.0128Y-3.8398
M16
G05
G00X3.9754Y-4.0977
M15
G01X4.0128Y-4.0977
M16
G05
G00X3.9754Y-4.5898
M15
G01X4.0128Y-4.5898
M16
G05
G00X4.0128Y-1.8182
M15
G01X4.0128Y-1.8477
M16
G05
G00X4.0128Y-2.3398
M15
G01X4.0128Y-2.3693
M16
G05
G00X4.0128Y-2.5682
M15
G01X4.0128Y-2.5977
M16
G05
G00X4.0128Y-3.0898
M15
G01X4.0128Y-3.1193
M16
G05
G00X4.0128Y-3.3182
M15
G01X4.0128Y-3.3477
M16
G05
G00X4.0128Y-3.8398
M15
G01X4.0128Y-3.8693
M16
G05
G00X4.0128Y-4.0682
M15
G01X4.0128Y-4.0977
M16
G05
G00X4.0128Y-4.5898
M15
G01X4.0128Y-4.6193
M16
G05
G00X4.1459Y-5.0369
M15
G01X4.1459Y-5.0664
M16
G05
G00X4.1459Y-5.5586
M15
G01X4.1459Y-5.5881
M16
G05
G00X4.1459Y-5.0664
M15
G01X4.1833Y-5.0664
M16
G05
G00X4.1459Y-5.5586
M15
G01X4.1833Y-5.5586
M16
G05
G00X4.1833Y-5.0664
M15
G01X4.1833Y-5.5586
M16
G05
G00X4.0128Y-1.8182
M15
G01X4.5522Y-1.8182
M16
G05
G00X4.0128Y-2.3693
M15
G01X4.5522Y-2.3693
M16
G05
G00X4.0128Y-2.5682
M15
G01X4.5522Y-2.5682
M16
G05
G00X4.0128Y-3.1193
M15
G01X4.5522Y-3.1193
M16
G05
G00X4.0128Y-3.3182
M15
G01X4.5522Y-3.3182
M16
G05
G00X4.0128Y-3.8693
M15
G01X4.5522Y-3.8693
M16
G05
G00X4.0128Y-4.0682
M15
G01X4.5522Y-4.0682
M16
G05
G00X4.0128Y-4.6193
M15
G01X4.5522Y-4.6193
M16
G05
G00X4.3192Y-5.0664
M15
G01X4.3192Y-5.5586
M16
G05
G00X4.3192Y-5.0664
M15
G01X4.3566Y-5.0664
M16
G05
G00X4.3192Y-5.5586
M15
G01X4.3566Y-5.5586
M16
G05
G00X4.3566Y-5.0369
M15
G01X4.3566Y-5.0664
M16
G05
G00X4.3566Y-5.5586
M15
G01X4.3566Y-5.5881
M16
G05
G00X4.5522Y-1.8182
M15
G01X4.5522Y-1.8477
M16
G05
G00X4.5522Y-2.3398
M15
G01X4.5522Y-2.3693
M16
G05
G00X4.5522Y-2.5682
M15
G01X4.5522Y-2.5977
M16
G05
G00X4.5522Y-3.0898
M15
G01X4.5522Y-3.1193
M16
G05
G00X4.5522Y-3.3182
M15
G01X4.5522Y-3.3477
M16
G05
G00X4.5522Y-3.8398
M15
G01X4.5522Y-3.8693
M16
G05
G00X4.5522Y-4.0682
M15
G01X4.5522Y-4.0977
M16
G05
G00X4.5522Y-4.5898
M15
G01X4.5522Y-4.6193
M16
G05
G00X4.5522Y-1.8477
M15
G01X4.5896Y-1.8477
M16
G05
G00X4.5522Y-2.3398
M15
G01X4.5896Y-2.3398
M16
G05
G00X4.5522Y-2.5977
M15
G01X4.5896Y-2.5977
M16
G05
G00X4.5522Y-3.0898
M15
G01X4.5896Y-3.0898
M16
G05
G00X4.5522Y-3.3477
M15
G01X4.5896Y-3.3477
M16
G05
G00X4.5522Y-3.8398
M15
G01X4.5896Y-3.8398
M16
G05
G00X4.5522Y-4.0977
M15
G01X4.5896Y-4.0977
M16
G05
G00X4.5522Y-4.5898
M15
G01X4.5896Y-4.5898
M16
G05
G00X4.5896Y-1.8477
M15
G01X4.5896Y-2.3398
M16
G05
G00X4.5896Y-2.5977
M15
G01X4.5896Y-3.0898
M16
G05
G00X4.5896Y-3.3477
M15
G01X4.5896Y-3.8398
M16
G05
G00X4.5896Y-4.0977
M15
G01X4.5896Y-4.5898
M16
G05
G00X4.3566Y-5.0369
M15
G01X4.8959Y-5.0369
M16
G05
G00X4.3566Y-5.5881
M15
G01X4.8959Y-5.5881
M16
G05
G00X4.7254Y-1.9414
M15
G01X4.7254Y-2.4336
M16
G05
G00X4.7254Y-2.6914
M15
G01X4.7254Y-3.1836
M16
G05
G00X4.7254Y-3.4414
M15
G01X4.7254Y-3.9336
M16
G05
G00X4.7254Y-4.1914
M15
G01X4.7254Y-4.6836
M16
G05
G00X4.7254Y-1.9414
M15
G01X4.7628Y-1.9414
M16
G05
G00X4.7254Y-2.4336
M15
G01X4.7628Y-2.4336
M16
G05
G00X4.7254Y-2.6914
M15
G01X4.7628Y-2.6914
M16
G05
G00X4.7254Y-3.1836
M15
G01X4.7628Y-3.1836
M16
G05
G00X4.7254Y-3.4414
M15
G01X4.7628Y-3.4414
M16
G05
G00X4.7254Y-3.9336
M15
G01X4.7628Y-3.9336
M16
G05
G00X4.7254Y-4.1914
M15
G01X4.7628Y-4.1914
M16
G05
G00X4.7254Y-4.6836
M15
G01X4.7628Y-4.6836
M16
G05
G00X4.7628Y-1.9119
M15
G01X4.7628Y-1.9414
M16
G05
G00X4.7628Y-2.4336
M15
G01X4.7628Y-2.4631
M16
G05
G00X4.7628Y-2.6619
M15
G01X4.7628Y-2.6914
M16
G05
G00X4.7628Y-3.1836
M15
G01X4.7628Y-3.2131
M16
G05
G00X4.7628Y-3.4119
M15
G01X4.7628Y-3.4414
M16
G05
G00X4.7628Y-3.9336
M15
G01X4.7628Y-3.9631
M16
G05
G00X4.7628Y-4.1619
M15
G01X4.7628Y-4.1914
M16
G05
G00X4.7628Y-4.6836
M15
G01X4.7628Y-4.7131
M16
G05
G00X4.8959Y-5.0369
M15
G01X4.8959Y-5.0664
M16
G05
G00X4.8959Y-5.5586
M15
G01X4.8959Y-5.5881
M16
G05
G00X4.8959Y-5.0664
M15
G01X4.9333Y-5.0664
M16
G05
G00X4.8959Y-5.5586
M15
G01X4.9333Y-5.5586
M16
G05
G00X4.9333Y-5.0664
M15
G01X4.9333Y-5.5586
M16
G05
G00X4.7628Y-1.9119
M15
G01X5.3022Y-1.9119
M16
G05
G00X4.7628Y-2.4631
M15
G01X5.3022Y-2.4631
M16
G05
G00X4.7628Y-2.6619
M15
G01X5.3022Y-2.6619
M16
G05
G00X4.7628Y-3.2131
M15
G01X5.3022Y-3.2131
M16
G05
G00X4.7628Y-3.4119
M15
G01X5.3022Y-3.4119
M16
G05
G00X4.7628Y-3.9631
M15
G01X5.3022Y-3.9631
M16
G05
G00X4.7628Y-4.1619
M15
G01X5.3022Y-4.1619
M16
G05
G00X4.7628Y-4.7131
M15
G01X5.3022Y-4.7131
M16
G05
G00X5.0689Y-5.0664
M15
G01X5.0689Y-5.5586
M16
G05
G00X5.0689Y-5.0664
M15
G01X5.1063Y-5.0664
M16
G05
G00X5.0689Y-5.5586
M15
G01X5.1063Y-5.5586
M16
G05
G00X5.1063Y-5.0369
M15
G01X5.1063Y-5.0664
M16
G05
G00X5.1063Y-5.5586
M15
G01X5.1063Y-5.5881
M16
G05
G00X5.3022Y-1.9119
M15
G01X5.3022Y-1.9414
M16
G05
G00X5.3022Y-2.4336
M15
G01X5.3022Y-2.4631
M16
G05
G00X5.3022Y-2.6619
M15
G01X5.3022Y-2.6914
M16
G05
G00X5.3022Y-3.1836
M15
G01X5.3022Y-3.2131
M16
G05
G00X5.3022Y-3.4119
M15
G01X5.3022Y-3.4414
M16
G05
G00X5.3022Y-3.9336
M15
G01X5.3022Y-3.9631
M16
G05
G00X5.3022Y-4.1619
M15
G01X5.3022Y-4.1914
M16
G05
G00X5.3022Y-4.6836
M15
G01X5.3022Y-4.7131
M16
G05
G00X5.3022Y-1.9414
M15
G01X5.3396Y-1.9414
M16
G05
G00X5.3022Y-2.4336
M15
G01X5.3396Y-2.4336
M16
G05
G00X5.3022Y-2.6914
M15
G01X5.3396Y-2.6914
M16
G05
G00X5.3022Y-3.1836
M15
G01X5.3396Y-3.1836
M16
G05
G00X5.3022Y-3.4414
M15
G01X5.3396Y-3.4414
M16
G05
G00X5.3022Y-3.9336
M15
G01X5.3396Y-3.9336
M16
G05
G00X5.3022Y-4.1914
M15
G01X5.3396Y-4.1914
M16
G05
G00X5.3022Y-4.6836
M15
G01X5.3396Y-4.6836
M16
G05
G00X5.3396Y-1.9414
M15
G01X5.3396Y-2.4336
M16
G05
G00X5.3396Y-2.6914
M15
G01X5.3396Y-3.1836
M16
G05
G00X5.3396Y-3.4414
M15
G01X5.3396Y-3.9336
M16
G05
G00X5.3396Y-4.1914
M15
G01X5.3396Y-4.6836
M16
G05
G00X5.1063Y-5.0369
M15
G01X5.6457Y-5.0369
M16
G05
G00X5.1063Y-5.5881
M15
G01X5.6457Y-5.5881
M16
G05
G00X5.4754Y-2.0664
M15
G01X5.4754Y-2.5586
M16
G05
G00X5.4754Y-2.8164
M15
G01X5.4754Y-3.3086
M16
G05
G00X5.4754Y-3.5664
M15
G01X5.4754Y-4.0586
M16
G05
G00X5.4754Y-4.3164
M15
G01X5.4754Y-4.8086
M16
G05
G00X5.4754Y-2.0664
M15
G01X5.5128Y-2.0664
M16
G05
G00X5.4754Y-2.5586
M15
G01X5.5128Y-2.5586
M16
G05
G00X5.4754Y-2.8164
M15
G01X5.5128Y-2.8164
M16
G05
G00X5.4754Y-3.3086
M15
G01X5.5128Y-3.3086
M16
G05
G00X5.4754Y-3.5664
M15
G01X5.5128Y-3.5664
M16
G05
G00X5.4754Y-4.0586
M15
G01X5.5128Y-4.0586
M16
G05
G00X5.4754Y-4.3164
M15
G01X5.5128Y-4.3164
M16
G05
G00X5.4754Y-4.8086
M15
G01X5.5128Y-4.8086
M16
G05
G00X5.5128Y-2.0369
M15
G01X5.5128Y-2.0664
M16
G05
G00X5.5128Y-2.5586
M15
G01X5.5128Y-2.5881
M16
G05
G00X5.5128Y-2.7869
M15
G01X5.5128Y-2.8164
M16
G05
G00X5.5128Y-3.3086
M15
G01X5.5128Y-3.3381
M16
G05
G00X5.5128Y-3.5369
M15
G01X5.5128Y-3.5664
M16
G05
G00X5.5128Y-4.0586
M15
G01X5.5128Y-4.0881
M16
G05
G00X5.5128Y-4.2869
M15
G01X5.5128Y-4.3164
M16
G05
G00X5.5128Y-4.8086
M15
G01X5.5128Y-4.8381
M16
G05
G00X5.6457Y-5.0369
M15
G01X5.6457Y-5.0664
M16
G05
G00X5.6457Y-5.5586
M15
G01X5.6457Y-5.5881
M16
G05
G00X5.6457Y-5.0664
M15
G01X5.6831Y-5.0664
M16
G05
G00X5.6457Y-5.5586
M15
G01X5.6831Y-5.5586
M16
G05
G00X5.6831Y-5.0664
M15
G01X5.6831Y-5.5586
M16
G05
G00X5.5128Y-2.0369
M15
G01X6.0522Y-2.0369
M16
G05
G00X5.5128Y-2.5881
M15
G01X6.0522Y-2.5881
M16
G05
G00X5.5128Y-2.7869
M15
G01X6.0522Y-2.7869
M16
G05
G00X5.5128Y-3.3381
M15
G01X6.0522Y-3.3381
M16
G05
G00X5.5128Y-3.5369
M15
G01X6.0522Y-3.5369
M16
G05
G00X5.5128Y-4.0881
M15
G01X6.0522Y-4.0881
M16
G05
G00X5.5128Y-4.2869
M15
G01X6.0522Y-4.2869
M16
G05
G00X5.5128Y-4.8381
M15
G01X6.0522Y-4.8381
M16
G05
G00X6.0522Y-2.0369
M15
G01X6.0522Y-2.0664
M16
G05
G00X6.0522Y-2.5586
M15
G01X6.0522Y-2.5881
M16
G05
G00X6.0522Y-2.7869
M15
G01X6.0522Y-2.8164
M16
G05
G00X6.0522Y-3.3086
M15
G01X6.0522Y-3.3381
M16
G05
G00X6.0522Y-3.5369
M15
G01X6.0522Y-3.5664
M16
G05
G00X6.0522Y-4.0586
M15
G01X6.0522Y-4.0881
M16
G05
G00X6.0522Y-4.2869
M15
G01X6.0522Y-4.3164
M16
G05
G00X6.0522Y-4.8086
M15
G01X6.0522Y-4.8381
M16
G05
G00X6.0522Y-2.0664
M15
G01X6.0896Y-2.0664
M16
G05
G00X6.0522Y-2.5586
M15
G01X6.0896Y-2.5586
M16
G05
G00X6.0522Y-2.8164
M15
G01X6.0896Y-2.8164
M16
G05
G00X6.0522Y-3.3086
M15
G01X6.0896Y-3.3086
M16
G05
G00X6.0522Y-3.5664
M15
G01X6.0896Y-3.5664
M16
G05
G00X6.0522Y-4.0586
M15
G01X6.0896Y-4.0586
M16
G05
G00X6.0522Y-4.3164
M15
G01X6.0896Y-4.3164
M16
G05
G00X6.0522Y-4.8086
M15
G01X6.0896Y-4.8086
M16
G05
G00X6.0896Y-2.0664
M15
G01X6.0896Y-2.5586
M16
G05
G00X6.0896Y-2.8164
M15
G01X6.0896Y-3.3086
M16
G05
G00X6.0896Y-3.5664
M15
G01X6.0896Y-4.0586
M16
G05
G00X6.0896Y-4.3164
M15
G01X6.0896Y-4.8086
M16
G05
G00X6.2254Y-2.0664
M15
G01X6.2254Y-2.5586
M16
G05
G00X6.2254Y-2.8164
M15
G01X6.2254Y-3.3086
M16
G05
G00X6.2254Y-3.5664
M15
G01X6.2254Y-4.0586
M16
G05
G00X6.2254Y-4.3164
M15
G01X6.2254Y-4.8086
M16
G05
G00X6.2254Y-2.0664
M15
G01X6.2628Y-2.0664
M16
G05
G00X6.2254Y-2.5586
M15
G01X6.2628Y-2.5586
M16
G05
G00X6.2254Y-2.8164
M15
G01X6.2628Y-2.8164
M16
G05
G00X6.2254Y-3.3086
M15
G01X6.2628Y-3.3086
M16
G05
G00X6.2254Y-3.5664
M15
G01X6.2628Y-3.5664
M16
G05
G00X6.2254Y-4.0586
M15
G01X6.2628Y-4.0586
M16
G05
G00X6.2254Y-4.3164
M15
G01X6.2628Y-4.3164
M16
G05
G00X6.2254Y-4.8086
M15
G01X6.2628Y-4.8086
M16
G05
G00X6.2628Y-2.0369
M15
G01X6.2628Y-2.0664
M16
G05
G00X6.2628Y-2.5586
M15
G01X6.2628Y-2.5881
M16
G05
G00X6.2628Y-2.7869
M15
G01X6.2628Y-2.8164
M16
G05
G00X6.2628Y-3.3086
M15
G01X6.2628Y-3.3381
M16
G05
G00X6.2628Y-3.5369
M15
G01X6.2628Y-3.5664
M16
G05
G00X6.2628Y-4.0586
M15
G01X6.2628Y-4.0881
M16
G05
G00X6.2628Y-4.2869
M15
G01X6.2628Y-4.3164
M16
G05
G00X6.2628Y-4.8086
M15
G01X6.2628Y-4.8381
M16
G05
G00X6.2628Y-2.0369
M15
G01X6.8022Y-2.0369
M16
G05
G00X6.2628Y-2.5881
M15
G01X6.8022Y-2.5881
M16
G05
G00X6.2628Y-2.7869
M15
G01X6.8022Y-2.7869
M16
G05
G00X6.2628Y-3.3381
M15
G01X6.8022Y-3.3381
M16
G05
G00X6.2628Y-3.5369
M15
G01X6.8022Y-3.5369
M16
G05
G00X6.2628Y-4.0881
M15
G01X6.8022Y-4.0881
M16
G05
G00X6.2628Y-4.2869
M15
G01X6.8022Y-4.2869
M16
G05
G00X6.2628Y-4.8381
M15
G01X6.8022Y-4.8381
M16
G05
G00X6.8022Y-2.0369
M15
G01X6.8022Y-2.0664
M16
G05
G00X6.8022Y-2.5586
M15
G01X6.8022Y-2.5881
M16
G05
G00X6.8022Y-2.7869
M15
G01X6.8022Y-2.8164
M16
G05
G00X6.8022Y-3.3086
M15
G01X6.8022Y-3.3381
M16
G05
G00X6.8022Y-3.5369
M15
G01X6.8022Y-3.5664
M16
G05
G00X6.8022Y-4.0586
M15
G01X6.8022Y-4.0881
M16
G05
G00X6.8022Y-4.2869
M15
G01X6.8022Y-4.3164
M16
G05
G00X6.8022Y-4.8086
M15
G01X6.8022Y-4.8381
M16
G05
G00X6.8022Y-2.0664
M15
G01X6.8396Y-2.0664
M16
G05
G00X6.8022Y-2.5586
M15
G01X6.8396Y-2.5586
M16
G05
G00X6.8022Y-2.8164
M15
G01X6.8396Y-2.8164
M16
G05
G00X6.8022Y-3.3086
M15
G01X6.8396Y-3.3086
M16
G05
G00X6.8022Y-3.5664
M15
G01X6.8396Y-3.5664
M16
G05
G00X6.8022Y-4.0586
M15
G01X6.8396Y-4.0586
M16
G05
G00X6.8022Y-4.3164
M15
G01X6.8396Y-4.3164
M16
G05
G00X6.8022Y-4.8086
M15
G01X6.8396Y-4.8086
M16
G05
G00X6.8396Y-2.0664
M15
G01X6.8396Y-2.5586
M16
G05
G00X6.8396Y-2.8164
M15
G01X6.8396Y-3.3086
M16
G05
G00X6.8396Y-3.5664
M15
G01X6.8396Y-4.0586
M16
G05
G00X6.8396Y-4.3164
M15
G01X6.8396Y-4.8086
M16
G05
T2
G00X1.9894Y-4.727
M15
G01X2.0206Y-4.709
M16
G05
G00X2.0746Y-4.8025
M15
G01X2.0206Y-4.709
M16
G05
G00X2.0434Y-4.8205
M15
G01X2.0746Y-4.8025
M16
G05
G00X2.4594Y-5.5411
M15
G01X2.4906Y-5.5231
M16
G05
G00X2.5446Y-5.6166
M15
G01X2.4906Y-5.5231
M16
G05
G00X2.5134Y-5.6346
M15
G01X2.5446Y-5.6166
M16
G05
T0
M30
