%TF.GenerationSoftware,KiCad,Pcbnew,(5.1.9-0-10_14)*%
%TF.CreationDate,2021-04-19T01:21:19-05:00*%
%TF.ProjectId,wren-right-top,7772656e-2d72-4696-9768-742d746f702e,rev?*%
%TF.SameCoordinates,Original*%
%TF.FileFunction,OtherDrawing,Comment*%
%FSLAX46Y46*%
G04 Gerber Fmt 4.6, Leading zero omitted, Abs format (unit mm)*
G04 Created by KiCad (PCBNEW (5.1.9-0-10_14)) date 2021-04-19 01:21:19*
%MOMM*%
%LPD*%
G01*
G04 APERTURE LIST*
%ADD10C,0.150000*%
G04 APERTURE END LIST*
D10*
%TO.C,MX44*%
X146050750Y-125437500D02*
X146050750Y-144437500D01*
X146050750Y-144437500D02*
X127050750Y-144437500D01*
X127050750Y-144437500D02*
X127050750Y-125437500D01*
X127050750Y-125437500D02*
X146050750Y-125437500D01*
%TO.C,MX41*%
X33377759Y-123370117D02*
X49832241Y-113870117D01*
X59332241Y-130324599D02*
X42877759Y-139824599D01*
X42877759Y-139824599D02*
X33377759Y-123370117D01*
X49832241Y-113870117D02*
X59332241Y-130324599D01*
X42902759Y-139867901D02*
X59357241Y-130367901D01*
X59357241Y-130367901D02*
X68857241Y-146822383D01*
X68857241Y-146822383D02*
X52402759Y-156322383D01*
X52402759Y-156322383D02*
X42902759Y-139867901D01*
%TO.C,MX44*%
X127006750Y-125437500D02*
X127006750Y-144437500D01*
X127006750Y-144437500D02*
X108006750Y-144437500D01*
X108006750Y-144437500D02*
X108006750Y-125437500D01*
X108006750Y-125437500D02*
X127006750Y-125437500D01*
%TO.C,MX43*%
X107956750Y-125437500D02*
X107956750Y-144437500D01*
X107956750Y-144437500D02*
X88956750Y-144437500D01*
X88956750Y-144437500D02*
X88956750Y-125437500D01*
X88956750Y-125437500D02*
X107956750Y-125437500D01*
%TO.C,MX42*%
X88906750Y-127818750D02*
X88906750Y-146818750D01*
X88906750Y-146818750D02*
X69906750Y-146818750D01*
X69906750Y-146818750D02*
X69906750Y-127818750D01*
X69906750Y-127818750D02*
X88906750Y-127818750D01*
%TO.C,MX36*%
X175425500Y-106387500D02*
X175425500Y-125387500D01*
X175425500Y-125387500D02*
X156425500Y-125387500D01*
X156425500Y-125387500D02*
X156425500Y-106387500D01*
X156425500Y-106387500D02*
X175425500Y-106387500D01*
%TO.C,MX35*%
X156375500Y-106387500D02*
X156375500Y-125387500D01*
X156375500Y-125387500D02*
X137375500Y-125387500D01*
X137375500Y-125387500D02*
X137375500Y-106387500D01*
X137375500Y-106387500D02*
X156375500Y-106387500D01*
%TO.C,MX34*%
X137325500Y-103212500D02*
X137325500Y-122212500D01*
X137325500Y-122212500D02*
X118325500Y-122212500D01*
X118325500Y-122212500D02*
X118325500Y-103212500D01*
X118325500Y-103212500D02*
X137325500Y-103212500D01*
%TO.C,MX33*%
X118275500Y-100831250D02*
X118275500Y-119831250D01*
X118275500Y-119831250D02*
X99275500Y-119831250D01*
X99275500Y-119831250D02*
X99275500Y-100831250D01*
X99275500Y-100831250D02*
X118275500Y-100831250D01*
%TO.C,MX32*%
X99225500Y-103212500D02*
X99225500Y-122212500D01*
X99225500Y-122212500D02*
X80225500Y-122212500D01*
X80225500Y-122212500D02*
X80225500Y-103212500D01*
X80225500Y-103212500D02*
X99225500Y-103212500D01*
%TO.C,MX31*%
X80175500Y-105593750D02*
X80175500Y-124593750D01*
X80175500Y-124593750D02*
X61175500Y-124593750D01*
X61175500Y-124593750D02*
X61175500Y-105593750D01*
X61175500Y-105593750D02*
X80175500Y-105593750D01*
%TO.C,MX26*%
X175425500Y-87337500D02*
X175425500Y-106337500D01*
X175425500Y-106337500D02*
X156425500Y-106337500D01*
X156425500Y-106337500D02*
X156425500Y-87337500D01*
X156425500Y-87337500D02*
X175425500Y-87337500D01*
%TO.C,MX25*%
X156375500Y-87337500D02*
X156375500Y-106337500D01*
X156375500Y-106337500D02*
X137375500Y-106337500D01*
X137375500Y-106337500D02*
X137375500Y-87337500D01*
X137375500Y-87337500D02*
X156375500Y-87337500D01*
%TO.C,MX24*%
X137325500Y-84162500D02*
X137325500Y-103162500D01*
X137325500Y-103162500D02*
X118325500Y-103162500D01*
X118325500Y-103162500D02*
X118325500Y-84162500D01*
X118325500Y-84162500D02*
X137325500Y-84162500D01*
%TO.C,MX23*%
X118275500Y-81781250D02*
X118275500Y-100781250D01*
X118275500Y-100781250D02*
X99275500Y-100781250D01*
X99275500Y-100781250D02*
X99275500Y-81781250D01*
X99275500Y-81781250D02*
X118275500Y-81781250D01*
%TO.C,MX22*%
X99225500Y-84162500D02*
X99225500Y-103162500D01*
X99225500Y-103162500D02*
X80225500Y-103162500D01*
X80225500Y-103162500D02*
X80225500Y-84162500D01*
X80225500Y-84162500D02*
X99225500Y-84162500D01*
%TO.C,MX21*%
X80175500Y-86543750D02*
X80175500Y-105543750D01*
X80175500Y-105543750D02*
X61175500Y-105543750D01*
X61175500Y-105543750D02*
X61175500Y-86543750D01*
X61175500Y-86543750D02*
X80175500Y-86543750D01*
%TO.C,MX16*%
X175425500Y-68287500D02*
X175425500Y-87287500D01*
X175425500Y-87287500D02*
X156425500Y-87287500D01*
X156425500Y-87287500D02*
X156425500Y-68287500D01*
X156425500Y-68287500D02*
X175425500Y-68287500D01*
%TO.C,MX15*%
X156375500Y-68287500D02*
X156375500Y-87287500D01*
X156375500Y-87287500D02*
X137375500Y-87287500D01*
X137375500Y-87287500D02*
X137375500Y-68287500D01*
X137375500Y-68287500D02*
X156375500Y-68287500D01*
%TO.C,MX14*%
X137325500Y-65112500D02*
X137325500Y-84112500D01*
X137325500Y-84112500D02*
X118325500Y-84112500D01*
X118325500Y-84112500D02*
X118325500Y-65112500D01*
X118325500Y-65112500D02*
X137325500Y-65112500D01*
%TO.C,MX13*%
X118275500Y-62731250D02*
X118275500Y-81731250D01*
X118275500Y-81731250D02*
X99275500Y-81731250D01*
X99275500Y-81731250D02*
X99275500Y-62731250D01*
X99275500Y-62731250D02*
X118275500Y-62731250D01*
%TO.C,MX12*%
X99225500Y-65112500D02*
X99225500Y-84112500D01*
X99225500Y-84112500D02*
X80225500Y-84112500D01*
X80225500Y-84112500D02*
X80225500Y-65112500D01*
X80225500Y-65112500D02*
X99225500Y-65112500D01*
%TO.C,MX11*%
X80175500Y-67493750D02*
X80175500Y-86493750D01*
X80175500Y-86493750D02*
X61175500Y-86493750D01*
X61175500Y-86493750D02*
X61175500Y-67493750D01*
X61175500Y-67493750D02*
X80175500Y-67493750D01*
%TO.C,MX6*%
X175425500Y-49237500D02*
X175425500Y-68237500D01*
X175425500Y-68237500D02*
X156425500Y-68237500D01*
X156425500Y-68237500D02*
X156425500Y-49237500D01*
X156425500Y-49237500D02*
X175425500Y-49237500D01*
%TO.C,MX5*%
X156375500Y-49237500D02*
X156375500Y-68237500D01*
X156375500Y-68237500D02*
X137375500Y-68237500D01*
X137375500Y-68237500D02*
X137375500Y-49237500D01*
X137375500Y-49237500D02*
X156375500Y-49237500D01*
%TO.C,MX4*%
X137325500Y-46062500D02*
X137325500Y-65062500D01*
X137325500Y-65062500D02*
X118325500Y-65062500D01*
X118325500Y-65062500D02*
X118325500Y-46062500D01*
X118325500Y-46062500D02*
X137325500Y-46062500D01*
%TO.C,MX3*%
X118275500Y-43681250D02*
X118275500Y-62681250D01*
X118275500Y-62681250D02*
X99275500Y-62681250D01*
X99275500Y-62681250D02*
X99275500Y-43681250D01*
X99275500Y-43681250D02*
X118275500Y-43681250D01*
%TO.C,MX2*%
X99225500Y-46062500D02*
X99225500Y-65062500D01*
X99225500Y-65062500D02*
X80225500Y-65062500D01*
X80225500Y-65062500D02*
X80225500Y-46062500D01*
X80225500Y-46062500D02*
X99225500Y-46062500D01*
%TO.C,MX1*%
X80175500Y-48443750D02*
X80175500Y-67443750D01*
X80175500Y-67443750D02*
X61175500Y-67443750D01*
X61175500Y-67443750D02*
X61175500Y-48443750D01*
X61175500Y-48443750D02*
X80175500Y-48443750D01*
%TD*%
%TO.C,MX44*%
X134788845Y-138564880D02*
X134788845Y-137564880D01*
X135122178Y-138279166D01*
X135455511Y-137564880D01*
X135455511Y-138564880D01*
X135836464Y-137564880D02*
X136503130Y-138564880D01*
X136503130Y-137564880D02*
X135836464Y-138564880D01*
X137312654Y-137898214D02*
X137312654Y-138564880D01*
X137074559Y-137517261D02*
X136836464Y-138231547D01*
X137455511Y-138231547D01*
X138265035Y-137898214D02*
X138265035Y-138564880D01*
X138026940Y-137517261D02*
X137788845Y-138231547D01*
X138407892Y-138231547D01*
X132788845Y-127452380D02*
X132788845Y-126452380D01*
X133122178Y-127166666D01*
X133455511Y-126452380D01*
X133455511Y-127452380D01*
X133836464Y-126452380D02*
X134503130Y-127452380D01*
X134503130Y-126452380D02*
X133836464Y-127452380D01*
X134884083Y-127071428D02*
X135645988Y-127071428D01*
X136122178Y-127452380D02*
X136122178Y-126452380D01*
X136693607Y-127452380D01*
X136693607Y-126452380D01*
X137312654Y-127452380D02*
X137217416Y-127404761D01*
X137169797Y-127357142D01*
X137122178Y-127261904D01*
X137122178Y-126976190D01*
X137169797Y-126880952D01*
X137217416Y-126833333D01*
X137312654Y-126785714D01*
X137455511Y-126785714D01*
X137550750Y-126833333D01*
X137598369Y-126880952D01*
X137645988Y-126976190D01*
X137645988Y-127261904D01*
X137598369Y-127357142D01*
X137550750Y-127404761D01*
X137455511Y-127452380D01*
X137312654Y-127452380D01*
X138550750Y-127452380D02*
X138074559Y-127452380D01*
X138074559Y-126452380D01*
X138884083Y-126928571D02*
X139217416Y-126928571D01*
X139360273Y-127452380D02*
X138884083Y-127452380D01*
X138884083Y-126452380D01*
X139360273Y-126452380D01*
X139788845Y-127452380D02*
X139788845Y-126452380D01*
X140026940Y-126452380D01*
X140169797Y-126500000D01*
X140265035Y-126595238D01*
X140312654Y-126690476D01*
X140360273Y-126880952D01*
X140360273Y-127023809D01*
X140312654Y-127214285D01*
X140265035Y-127309523D01*
X140169797Y-127404761D01*
X140026940Y-127452380D01*
X139788845Y-127452380D01*
%TO.C,MX41*%
X52594405Y-132209086D02*
X53460430Y-131709086D01*
X53008507Y-132354904D01*
X53793763Y-132286436D01*
X52927738Y-132786436D01*
X53984240Y-132616350D02*
X53451548Y-133693701D01*
X54317573Y-133193701D02*
X53118214Y-133116350D01*
X54433660Y-134061436D02*
X53856309Y-134394769D01*
X54644527Y-133664763D02*
X53906889Y-133815709D01*
X54216413Y-134351820D01*
X54380119Y-135302034D02*
X54094405Y-134807162D01*
X54237262Y-135054598D02*
X55103287Y-134554598D01*
X54931950Y-134543548D01*
X54801853Y-134508688D01*
X54712994Y-134450019D01*
X41970697Y-136033285D02*
X42836722Y-135533285D01*
X42384799Y-136179103D01*
X43170055Y-136110635D01*
X42304030Y-136610635D01*
X43360532Y-136440550D02*
X42827840Y-137517900D01*
X43693865Y-137017900D02*
X42494506Y-136940550D01*
X43348230Y-137657338D02*
X43729183Y-138317167D01*
X43637363Y-138920036D02*
X44503389Y-138420036D01*
X43923078Y-139414908D01*
X44789103Y-138914908D01*
X44232601Y-139951019D02*
X44226222Y-139844731D01*
X44243652Y-139779682D01*
X44302321Y-139690824D01*
X44549756Y-139547966D01*
X44656045Y-139541587D01*
X44721093Y-139559016D01*
X44809952Y-139617686D01*
X44881380Y-139741403D01*
X44887760Y-139847692D01*
X44870330Y-139912740D01*
X44811661Y-140001599D01*
X44564225Y-140144456D01*
X44457937Y-140150836D01*
X44392888Y-140133406D01*
X44304030Y-140074737D01*
X44232601Y-139951019D01*
X44851649Y-141023241D02*
X44613554Y-140610848D01*
X45479579Y-140110848D01*
X45471948Y-141050011D02*
X45638615Y-141338686D01*
X45256411Y-141724309D02*
X45018316Y-141311916D01*
X45884341Y-140811916D01*
X46122436Y-141224309D01*
X45470697Y-142095463D02*
X46336722Y-141595463D01*
X46455770Y-141801659D01*
X46485959Y-141949187D01*
X46451099Y-142079284D01*
X46392430Y-142168143D01*
X46251283Y-142304620D01*
X46127565Y-142376049D01*
X45938798Y-142430047D01*
X45832510Y-142436427D01*
X45702412Y-142401568D01*
X45589744Y-142301659D01*
X45470697Y-142095463D01*
%TO.C,MX44*%
X115744845Y-138564880D02*
X115744845Y-137564880D01*
X116078178Y-138279166D01*
X116411511Y-137564880D01*
X116411511Y-138564880D01*
X116792464Y-137564880D02*
X117459130Y-138564880D01*
X117459130Y-137564880D02*
X116792464Y-138564880D01*
X118268654Y-137898214D02*
X118268654Y-138564880D01*
X118030559Y-137517261D02*
X117792464Y-138231547D01*
X118411511Y-138231547D01*
X119221035Y-137898214D02*
X119221035Y-138564880D01*
X118982940Y-137517261D02*
X118744845Y-138231547D01*
X119363892Y-138231547D01*
X113744845Y-127452380D02*
X113744845Y-126452380D01*
X114078178Y-127166666D01*
X114411511Y-126452380D01*
X114411511Y-127452380D01*
X114792464Y-126452380D02*
X115459130Y-127452380D01*
X115459130Y-126452380D02*
X114792464Y-127452380D01*
X115840083Y-127071428D02*
X116601988Y-127071428D01*
X117078178Y-127452380D02*
X117078178Y-126452380D01*
X117649607Y-127452380D01*
X117649607Y-126452380D01*
X118268654Y-127452380D02*
X118173416Y-127404761D01*
X118125797Y-127357142D01*
X118078178Y-127261904D01*
X118078178Y-126976190D01*
X118125797Y-126880952D01*
X118173416Y-126833333D01*
X118268654Y-126785714D01*
X118411511Y-126785714D01*
X118506750Y-126833333D01*
X118554369Y-126880952D01*
X118601988Y-126976190D01*
X118601988Y-127261904D01*
X118554369Y-127357142D01*
X118506750Y-127404761D01*
X118411511Y-127452380D01*
X118268654Y-127452380D01*
X119506750Y-127452380D02*
X119030559Y-127452380D01*
X119030559Y-126452380D01*
X119840083Y-126928571D02*
X120173416Y-126928571D01*
X120316273Y-127452380D02*
X119840083Y-127452380D01*
X119840083Y-126452380D01*
X120316273Y-126452380D01*
X120744845Y-127452380D02*
X120744845Y-126452380D01*
X120982940Y-126452380D01*
X121125797Y-126500000D01*
X121221035Y-126595238D01*
X121268654Y-126690476D01*
X121316273Y-126880952D01*
X121316273Y-127023809D01*
X121268654Y-127214285D01*
X121221035Y-127309523D01*
X121125797Y-127404761D01*
X120982940Y-127452380D01*
X120744845Y-127452380D01*
%TO.C,MX43*%
X96694845Y-138564880D02*
X96694845Y-137564880D01*
X97028178Y-138279166D01*
X97361511Y-137564880D01*
X97361511Y-138564880D01*
X97742464Y-137564880D02*
X98409130Y-138564880D01*
X98409130Y-137564880D02*
X97742464Y-138564880D01*
X99218654Y-137898214D02*
X99218654Y-138564880D01*
X98980559Y-137517261D02*
X98742464Y-138231547D01*
X99361511Y-138231547D01*
X99647226Y-137564880D02*
X100266273Y-137564880D01*
X99932940Y-137945833D01*
X100075797Y-137945833D01*
X100171035Y-137993452D01*
X100218654Y-138041071D01*
X100266273Y-138136309D01*
X100266273Y-138374404D01*
X100218654Y-138469642D01*
X100171035Y-138517261D01*
X100075797Y-138564880D01*
X99790083Y-138564880D01*
X99694845Y-138517261D01*
X99647226Y-138469642D01*
X94694845Y-127452380D02*
X94694845Y-126452380D01*
X95028178Y-127166666D01*
X95361511Y-126452380D01*
X95361511Y-127452380D01*
X95742464Y-126452380D02*
X96409130Y-127452380D01*
X96409130Y-126452380D02*
X95742464Y-127452380D01*
X96790083Y-127071428D02*
X97551988Y-127071428D01*
X98028178Y-127452380D02*
X98028178Y-126452380D01*
X98599607Y-127452380D01*
X98599607Y-126452380D01*
X99218654Y-127452380D02*
X99123416Y-127404761D01*
X99075797Y-127357142D01*
X99028178Y-127261904D01*
X99028178Y-126976190D01*
X99075797Y-126880952D01*
X99123416Y-126833333D01*
X99218654Y-126785714D01*
X99361511Y-126785714D01*
X99456750Y-126833333D01*
X99504369Y-126880952D01*
X99551988Y-126976190D01*
X99551988Y-127261904D01*
X99504369Y-127357142D01*
X99456750Y-127404761D01*
X99361511Y-127452380D01*
X99218654Y-127452380D01*
X100456750Y-127452380D02*
X99980559Y-127452380D01*
X99980559Y-126452380D01*
X100790083Y-126928571D02*
X101123416Y-126928571D01*
X101266273Y-127452380D02*
X100790083Y-127452380D01*
X100790083Y-126452380D01*
X101266273Y-126452380D01*
X101694845Y-127452380D02*
X101694845Y-126452380D01*
X101932940Y-126452380D01*
X102075797Y-126500000D01*
X102171035Y-126595238D01*
X102218654Y-126690476D01*
X102266273Y-126880952D01*
X102266273Y-127023809D01*
X102218654Y-127214285D01*
X102171035Y-127309523D01*
X102075797Y-127404761D01*
X101932940Y-127452380D01*
X101694845Y-127452380D01*
%TO.C,MX42*%
X77644845Y-140946130D02*
X77644845Y-139946130D01*
X77978178Y-140660416D01*
X78311511Y-139946130D01*
X78311511Y-140946130D01*
X78692464Y-139946130D02*
X79359130Y-140946130D01*
X79359130Y-139946130D02*
X78692464Y-140946130D01*
X80168654Y-140279464D02*
X80168654Y-140946130D01*
X79930559Y-139898511D02*
X79692464Y-140612797D01*
X80311511Y-140612797D01*
X80644845Y-140041369D02*
X80692464Y-139993750D01*
X80787702Y-139946130D01*
X81025797Y-139946130D01*
X81121035Y-139993750D01*
X81168654Y-140041369D01*
X81216273Y-140136607D01*
X81216273Y-140231845D01*
X81168654Y-140374702D01*
X80597226Y-140946130D01*
X81216273Y-140946130D01*
X75644845Y-129833630D02*
X75644845Y-128833630D01*
X75978178Y-129547916D01*
X76311511Y-128833630D01*
X76311511Y-129833630D01*
X76692464Y-128833630D02*
X77359130Y-129833630D01*
X77359130Y-128833630D02*
X76692464Y-129833630D01*
X77740083Y-129452678D02*
X78501988Y-129452678D01*
X78978178Y-129833630D02*
X78978178Y-128833630D01*
X79549607Y-129833630D01*
X79549607Y-128833630D01*
X80168654Y-129833630D02*
X80073416Y-129786011D01*
X80025797Y-129738392D01*
X79978178Y-129643154D01*
X79978178Y-129357440D01*
X80025797Y-129262202D01*
X80073416Y-129214583D01*
X80168654Y-129166964D01*
X80311511Y-129166964D01*
X80406750Y-129214583D01*
X80454369Y-129262202D01*
X80501988Y-129357440D01*
X80501988Y-129643154D01*
X80454369Y-129738392D01*
X80406750Y-129786011D01*
X80311511Y-129833630D01*
X80168654Y-129833630D01*
X81406750Y-129833630D02*
X80930559Y-129833630D01*
X80930559Y-128833630D01*
X81740083Y-129309821D02*
X82073416Y-129309821D01*
X82216273Y-129833630D02*
X81740083Y-129833630D01*
X81740083Y-128833630D01*
X82216273Y-128833630D01*
X82644845Y-129833630D02*
X82644845Y-128833630D01*
X82882940Y-128833630D01*
X83025797Y-128881250D01*
X83121035Y-128976488D01*
X83168654Y-129071726D01*
X83216273Y-129262202D01*
X83216273Y-129405059D01*
X83168654Y-129595535D01*
X83121035Y-129690773D01*
X83025797Y-129786011D01*
X82882940Y-129833630D01*
X82644845Y-129833630D01*
%TO.C,MX36*%
X164163595Y-119514880D02*
X164163595Y-118514880D01*
X164496928Y-119229166D01*
X164830261Y-118514880D01*
X164830261Y-119514880D01*
X165211214Y-118514880D02*
X165877880Y-119514880D01*
X165877880Y-118514880D02*
X165211214Y-119514880D01*
X166163595Y-118514880D02*
X166782642Y-118514880D01*
X166449309Y-118895833D01*
X166592166Y-118895833D01*
X166687404Y-118943452D01*
X166735023Y-118991071D01*
X166782642Y-119086309D01*
X166782642Y-119324404D01*
X166735023Y-119419642D01*
X166687404Y-119467261D01*
X166592166Y-119514880D01*
X166306452Y-119514880D01*
X166211214Y-119467261D01*
X166163595Y-119419642D01*
X167639785Y-118514880D02*
X167449309Y-118514880D01*
X167354071Y-118562500D01*
X167306452Y-118610119D01*
X167211214Y-118752976D01*
X167163595Y-118943452D01*
X167163595Y-119324404D01*
X167211214Y-119419642D01*
X167258833Y-119467261D01*
X167354071Y-119514880D01*
X167544547Y-119514880D01*
X167639785Y-119467261D01*
X167687404Y-119419642D01*
X167735023Y-119324404D01*
X167735023Y-119086309D01*
X167687404Y-118991071D01*
X167639785Y-118943452D01*
X167544547Y-118895833D01*
X167354071Y-118895833D01*
X167258833Y-118943452D01*
X167211214Y-118991071D01*
X167163595Y-119086309D01*
X162163595Y-108402380D02*
X162163595Y-107402380D01*
X162496928Y-108116666D01*
X162830261Y-107402380D01*
X162830261Y-108402380D01*
X163211214Y-107402380D02*
X163877880Y-108402380D01*
X163877880Y-107402380D02*
X163211214Y-108402380D01*
X164258833Y-108021428D02*
X165020738Y-108021428D01*
X165496928Y-108402380D02*
X165496928Y-107402380D01*
X166068357Y-108402380D01*
X166068357Y-107402380D01*
X166687404Y-108402380D02*
X166592166Y-108354761D01*
X166544547Y-108307142D01*
X166496928Y-108211904D01*
X166496928Y-107926190D01*
X166544547Y-107830952D01*
X166592166Y-107783333D01*
X166687404Y-107735714D01*
X166830261Y-107735714D01*
X166925500Y-107783333D01*
X166973119Y-107830952D01*
X167020738Y-107926190D01*
X167020738Y-108211904D01*
X166973119Y-108307142D01*
X166925500Y-108354761D01*
X166830261Y-108402380D01*
X166687404Y-108402380D01*
X167925500Y-108402380D02*
X167449309Y-108402380D01*
X167449309Y-107402380D01*
X168258833Y-107878571D02*
X168592166Y-107878571D01*
X168735023Y-108402380D02*
X168258833Y-108402380D01*
X168258833Y-107402380D01*
X168735023Y-107402380D01*
X169163595Y-108402380D02*
X169163595Y-107402380D01*
X169401690Y-107402380D01*
X169544547Y-107450000D01*
X169639785Y-107545238D01*
X169687404Y-107640476D01*
X169735023Y-107830952D01*
X169735023Y-107973809D01*
X169687404Y-108164285D01*
X169639785Y-108259523D01*
X169544547Y-108354761D01*
X169401690Y-108402380D01*
X169163595Y-108402380D01*
%TO.C,MX35*%
X145113595Y-119514880D02*
X145113595Y-118514880D01*
X145446928Y-119229166D01*
X145780261Y-118514880D01*
X145780261Y-119514880D01*
X146161214Y-118514880D02*
X146827880Y-119514880D01*
X146827880Y-118514880D02*
X146161214Y-119514880D01*
X147113595Y-118514880D02*
X147732642Y-118514880D01*
X147399309Y-118895833D01*
X147542166Y-118895833D01*
X147637404Y-118943452D01*
X147685023Y-118991071D01*
X147732642Y-119086309D01*
X147732642Y-119324404D01*
X147685023Y-119419642D01*
X147637404Y-119467261D01*
X147542166Y-119514880D01*
X147256452Y-119514880D01*
X147161214Y-119467261D01*
X147113595Y-119419642D01*
X148637404Y-118514880D02*
X148161214Y-118514880D01*
X148113595Y-118991071D01*
X148161214Y-118943452D01*
X148256452Y-118895833D01*
X148494547Y-118895833D01*
X148589785Y-118943452D01*
X148637404Y-118991071D01*
X148685023Y-119086309D01*
X148685023Y-119324404D01*
X148637404Y-119419642D01*
X148589785Y-119467261D01*
X148494547Y-119514880D01*
X148256452Y-119514880D01*
X148161214Y-119467261D01*
X148113595Y-119419642D01*
X143113595Y-108402380D02*
X143113595Y-107402380D01*
X143446928Y-108116666D01*
X143780261Y-107402380D01*
X143780261Y-108402380D01*
X144161214Y-107402380D02*
X144827880Y-108402380D01*
X144827880Y-107402380D02*
X144161214Y-108402380D01*
X145208833Y-108021428D02*
X145970738Y-108021428D01*
X146446928Y-108402380D02*
X146446928Y-107402380D01*
X147018357Y-108402380D01*
X147018357Y-107402380D01*
X147637404Y-108402380D02*
X147542166Y-108354761D01*
X147494547Y-108307142D01*
X147446928Y-108211904D01*
X147446928Y-107926190D01*
X147494547Y-107830952D01*
X147542166Y-107783333D01*
X147637404Y-107735714D01*
X147780261Y-107735714D01*
X147875500Y-107783333D01*
X147923119Y-107830952D01*
X147970738Y-107926190D01*
X147970738Y-108211904D01*
X147923119Y-108307142D01*
X147875500Y-108354761D01*
X147780261Y-108402380D01*
X147637404Y-108402380D01*
X148875500Y-108402380D02*
X148399309Y-108402380D01*
X148399309Y-107402380D01*
X149208833Y-107878571D02*
X149542166Y-107878571D01*
X149685023Y-108402380D02*
X149208833Y-108402380D01*
X149208833Y-107402380D01*
X149685023Y-107402380D01*
X150113595Y-108402380D02*
X150113595Y-107402380D01*
X150351690Y-107402380D01*
X150494547Y-107450000D01*
X150589785Y-107545238D01*
X150637404Y-107640476D01*
X150685023Y-107830952D01*
X150685023Y-107973809D01*
X150637404Y-108164285D01*
X150589785Y-108259523D01*
X150494547Y-108354761D01*
X150351690Y-108402380D01*
X150113595Y-108402380D01*
%TO.C,MX34*%
X126063595Y-116339880D02*
X126063595Y-115339880D01*
X126396928Y-116054166D01*
X126730261Y-115339880D01*
X126730261Y-116339880D01*
X127111214Y-115339880D02*
X127777880Y-116339880D01*
X127777880Y-115339880D02*
X127111214Y-116339880D01*
X128063595Y-115339880D02*
X128682642Y-115339880D01*
X128349309Y-115720833D01*
X128492166Y-115720833D01*
X128587404Y-115768452D01*
X128635023Y-115816071D01*
X128682642Y-115911309D01*
X128682642Y-116149404D01*
X128635023Y-116244642D01*
X128587404Y-116292261D01*
X128492166Y-116339880D01*
X128206452Y-116339880D01*
X128111214Y-116292261D01*
X128063595Y-116244642D01*
X129539785Y-115673214D02*
X129539785Y-116339880D01*
X129301690Y-115292261D02*
X129063595Y-116006547D01*
X129682642Y-116006547D01*
X124063595Y-105227380D02*
X124063595Y-104227380D01*
X124396928Y-104941666D01*
X124730261Y-104227380D01*
X124730261Y-105227380D01*
X125111214Y-104227380D02*
X125777880Y-105227380D01*
X125777880Y-104227380D02*
X125111214Y-105227380D01*
X126158833Y-104846428D02*
X126920738Y-104846428D01*
X127396928Y-105227380D02*
X127396928Y-104227380D01*
X127968357Y-105227380D01*
X127968357Y-104227380D01*
X128587404Y-105227380D02*
X128492166Y-105179761D01*
X128444547Y-105132142D01*
X128396928Y-105036904D01*
X128396928Y-104751190D01*
X128444547Y-104655952D01*
X128492166Y-104608333D01*
X128587404Y-104560714D01*
X128730261Y-104560714D01*
X128825500Y-104608333D01*
X128873119Y-104655952D01*
X128920738Y-104751190D01*
X128920738Y-105036904D01*
X128873119Y-105132142D01*
X128825500Y-105179761D01*
X128730261Y-105227380D01*
X128587404Y-105227380D01*
X129825500Y-105227380D02*
X129349309Y-105227380D01*
X129349309Y-104227380D01*
X130158833Y-104703571D02*
X130492166Y-104703571D01*
X130635023Y-105227380D02*
X130158833Y-105227380D01*
X130158833Y-104227380D01*
X130635023Y-104227380D01*
X131063595Y-105227380D02*
X131063595Y-104227380D01*
X131301690Y-104227380D01*
X131444547Y-104275000D01*
X131539785Y-104370238D01*
X131587404Y-104465476D01*
X131635023Y-104655952D01*
X131635023Y-104798809D01*
X131587404Y-104989285D01*
X131539785Y-105084523D01*
X131444547Y-105179761D01*
X131301690Y-105227380D01*
X131063595Y-105227380D01*
%TO.C,MX33*%
X107013595Y-113958630D02*
X107013595Y-112958630D01*
X107346928Y-113672916D01*
X107680261Y-112958630D01*
X107680261Y-113958630D01*
X108061214Y-112958630D02*
X108727880Y-113958630D01*
X108727880Y-112958630D02*
X108061214Y-113958630D01*
X109013595Y-112958630D02*
X109632642Y-112958630D01*
X109299309Y-113339583D01*
X109442166Y-113339583D01*
X109537404Y-113387202D01*
X109585023Y-113434821D01*
X109632642Y-113530059D01*
X109632642Y-113768154D01*
X109585023Y-113863392D01*
X109537404Y-113911011D01*
X109442166Y-113958630D01*
X109156452Y-113958630D01*
X109061214Y-113911011D01*
X109013595Y-113863392D01*
X109965976Y-112958630D02*
X110585023Y-112958630D01*
X110251690Y-113339583D01*
X110394547Y-113339583D01*
X110489785Y-113387202D01*
X110537404Y-113434821D01*
X110585023Y-113530059D01*
X110585023Y-113768154D01*
X110537404Y-113863392D01*
X110489785Y-113911011D01*
X110394547Y-113958630D01*
X110108833Y-113958630D01*
X110013595Y-113911011D01*
X109965976Y-113863392D01*
X105013595Y-102846130D02*
X105013595Y-101846130D01*
X105346928Y-102560416D01*
X105680261Y-101846130D01*
X105680261Y-102846130D01*
X106061214Y-101846130D02*
X106727880Y-102846130D01*
X106727880Y-101846130D02*
X106061214Y-102846130D01*
X107108833Y-102465178D02*
X107870738Y-102465178D01*
X108346928Y-102846130D02*
X108346928Y-101846130D01*
X108918357Y-102846130D01*
X108918357Y-101846130D01*
X109537404Y-102846130D02*
X109442166Y-102798511D01*
X109394547Y-102750892D01*
X109346928Y-102655654D01*
X109346928Y-102369940D01*
X109394547Y-102274702D01*
X109442166Y-102227083D01*
X109537404Y-102179464D01*
X109680261Y-102179464D01*
X109775500Y-102227083D01*
X109823119Y-102274702D01*
X109870738Y-102369940D01*
X109870738Y-102655654D01*
X109823119Y-102750892D01*
X109775500Y-102798511D01*
X109680261Y-102846130D01*
X109537404Y-102846130D01*
X110775500Y-102846130D02*
X110299309Y-102846130D01*
X110299309Y-101846130D01*
X111108833Y-102322321D02*
X111442166Y-102322321D01*
X111585023Y-102846130D02*
X111108833Y-102846130D01*
X111108833Y-101846130D01*
X111585023Y-101846130D01*
X112013595Y-102846130D02*
X112013595Y-101846130D01*
X112251690Y-101846130D01*
X112394547Y-101893750D01*
X112489785Y-101988988D01*
X112537404Y-102084226D01*
X112585023Y-102274702D01*
X112585023Y-102417559D01*
X112537404Y-102608035D01*
X112489785Y-102703273D01*
X112394547Y-102798511D01*
X112251690Y-102846130D01*
X112013595Y-102846130D01*
%TO.C,MX32*%
X87963595Y-116339880D02*
X87963595Y-115339880D01*
X88296928Y-116054166D01*
X88630261Y-115339880D01*
X88630261Y-116339880D01*
X89011214Y-115339880D02*
X89677880Y-116339880D01*
X89677880Y-115339880D02*
X89011214Y-116339880D01*
X89963595Y-115339880D02*
X90582642Y-115339880D01*
X90249309Y-115720833D01*
X90392166Y-115720833D01*
X90487404Y-115768452D01*
X90535023Y-115816071D01*
X90582642Y-115911309D01*
X90582642Y-116149404D01*
X90535023Y-116244642D01*
X90487404Y-116292261D01*
X90392166Y-116339880D01*
X90106452Y-116339880D01*
X90011214Y-116292261D01*
X89963595Y-116244642D01*
X90963595Y-115435119D02*
X91011214Y-115387500D01*
X91106452Y-115339880D01*
X91344547Y-115339880D01*
X91439785Y-115387500D01*
X91487404Y-115435119D01*
X91535023Y-115530357D01*
X91535023Y-115625595D01*
X91487404Y-115768452D01*
X90915976Y-116339880D01*
X91535023Y-116339880D01*
X85963595Y-105227380D02*
X85963595Y-104227380D01*
X86296928Y-104941666D01*
X86630261Y-104227380D01*
X86630261Y-105227380D01*
X87011214Y-104227380D02*
X87677880Y-105227380D01*
X87677880Y-104227380D02*
X87011214Y-105227380D01*
X88058833Y-104846428D02*
X88820738Y-104846428D01*
X89296928Y-105227380D02*
X89296928Y-104227380D01*
X89868357Y-105227380D01*
X89868357Y-104227380D01*
X90487404Y-105227380D02*
X90392166Y-105179761D01*
X90344547Y-105132142D01*
X90296928Y-105036904D01*
X90296928Y-104751190D01*
X90344547Y-104655952D01*
X90392166Y-104608333D01*
X90487404Y-104560714D01*
X90630261Y-104560714D01*
X90725500Y-104608333D01*
X90773119Y-104655952D01*
X90820738Y-104751190D01*
X90820738Y-105036904D01*
X90773119Y-105132142D01*
X90725500Y-105179761D01*
X90630261Y-105227380D01*
X90487404Y-105227380D01*
X91725500Y-105227380D02*
X91249309Y-105227380D01*
X91249309Y-104227380D01*
X92058833Y-104703571D02*
X92392166Y-104703571D01*
X92535023Y-105227380D02*
X92058833Y-105227380D01*
X92058833Y-104227380D01*
X92535023Y-104227380D01*
X92963595Y-105227380D02*
X92963595Y-104227380D01*
X93201690Y-104227380D01*
X93344547Y-104275000D01*
X93439785Y-104370238D01*
X93487404Y-104465476D01*
X93535023Y-104655952D01*
X93535023Y-104798809D01*
X93487404Y-104989285D01*
X93439785Y-105084523D01*
X93344547Y-105179761D01*
X93201690Y-105227380D01*
X92963595Y-105227380D01*
%TO.C,MX31*%
X68913595Y-118721130D02*
X68913595Y-117721130D01*
X69246928Y-118435416D01*
X69580261Y-117721130D01*
X69580261Y-118721130D01*
X69961214Y-117721130D02*
X70627880Y-118721130D01*
X70627880Y-117721130D02*
X69961214Y-118721130D01*
X70913595Y-117721130D02*
X71532642Y-117721130D01*
X71199309Y-118102083D01*
X71342166Y-118102083D01*
X71437404Y-118149702D01*
X71485023Y-118197321D01*
X71532642Y-118292559D01*
X71532642Y-118530654D01*
X71485023Y-118625892D01*
X71437404Y-118673511D01*
X71342166Y-118721130D01*
X71056452Y-118721130D01*
X70961214Y-118673511D01*
X70913595Y-118625892D01*
X72485023Y-118721130D02*
X71913595Y-118721130D01*
X72199309Y-118721130D02*
X72199309Y-117721130D01*
X72104071Y-117863988D01*
X72008833Y-117959226D01*
X71913595Y-118006845D01*
X66913595Y-107608630D02*
X66913595Y-106608630D01*
X67246928Y-107322916D01*
X67580261Y-106608630D01*
X67580261Y-107608630D01*
X67961214Y-106608630D02*
X68627880Y-107608630D01*
X68627880Y-106608630D02*
X67961214Y-107608630D01*
X69008833Y-107227678D02*
X69770738Y-107227678D01*
X70246928Y-107608630D02*
X70246928Y-106608630D01*
X70818357Y-107608630D01*
X70818357Y-106608630D01*
X71437404Y-107608630D02*
X71342166Y-107561011D01*
X71294547Y-107513392D01*
X71246928Y-107418154D01*
X71246928Y-107132440D01*
X71294547Y-107037202D01*
X71342166Y-106989583D01*
X71437404Y-106941964D01*
X71580261Y-106941964D01*
X71675500Y-106989583D01*
X71723119Y-107037202D01*
X71770738Y-107132440D01*
X71770738Y-107418154D01*
X71723119Y-107513392D01*
X71675500Y-107561011D01*
X71580261Y-107608630D01*
X71437404Y-107608630D01*
X72675500Y-107608630D02*
X72199309Y-107608630D01*
X72199309Y-106608630D01*
X73008833Y-107084821D02*
X73342166Y-107084821D01*
X73485023Y-107608630D02*
X73008833Y-107608630D01*
X73008833Y-106608630D01*
X73485023Y-106608630D01*
X73913595Y-107608630D02*
X73913595Y-106608630D01*
X74151690Y-106608630D01*
X74294547Y-106656250D01*
X74389785Y-106751488D01*
X74437404Y-106846726D01*
X74485023Y-107037202D01*
X74485023Y-107180059D01*
X74437404Y-107370535D01*
X74389785Y-107465773D01*
X74294547Y-107561011D01*
X74151690Y-107608630D01*
X73913595Y-107608630D01*
%TO.C,MX26*%
X164163595Y-100464880D02*
X164163595Y-99464880D01*
X164496928Y-100179166D01*
X164830261Y-99464880D01*
X164830261Y-100464880D01*
X165211214Y-99464880D02*
X165877880Y-100464880D01*
X165877880Y-99464880D02*
X165211214Y-100464880D01*
X166211214Y-99560119D02*
X166258833Y-99512500D01*
X166354071Y-99464880D01*
X166592166Y-99464880D01*
X166687404Y-99512500D01*
X166735023Y-99560119D01*
X166782642Y-99655357D01*
X166782642Y-99750595D01*
X166735023Y-99893452D01*
X166163595Y-100464880D01*
X166782642Y-100464880D01*
X167639785Y-99464880D02*
X167449309Y-99464880D01*
X167354071Y-99512500D01*
X167306452Y-99560119D01*
X167211214Y-99702976D01*
X167163595Y-99893452D01*
X167163595Y-100274404D01*
X167211214Y-100369642D01*
X167258833Y-100417261D01*
X167354071Y-100464880D01*
X167544547Y-100464880D01*
X167639785Y-100417261D01*
X167687404Y-100369642D01*
X167735023Y-100274404D01*
X167735023Y-100036309D01*
X167687404Y-99941071D01*
X167639785Y-99893452D01*
X167544547Y-99845833D01*
X167354071Y-99845833D01*
X167258833Y-99893452D01*
X167211214Y-99941071D01*
X167163595Y-100036309D01*
X162163595Y-89352380D02*
X162163595Y-88352380D01*
X162496928Y-89066666D01*
X162830261Y-88352380D01*
X162830261Y-89352380D01*
X163211214Y-88352380D02*
X163877880Y-89352380D01*
X163877880Y-88352380D02*
X163211214Y-89352380D01*
X164258833Y-88971428D02*
X165020738Y-88971428D01*
X165496928Y-89352380D02*
X165496928Y-88352380D01*
X166068357Y-89352380D01*
X166068357Y-88352380D01*
X166687404Y-89352380D02*
X166592166Y-89304761D01*
X166544547Y-89257142D01*
X166496928Y-89161904D01*
X166496928Y-88876190D01*
X166544547Y-88780952D01*
X166592166Y-88733333D01*
X166687404Y-88685714D01*
X166830261Y-88685714D01*
X166925500Y-88733333D01*
X166973119Y-88780952D01*
X167020738Y-88876190D01*
X167020738Y-89161904D01*
X166973119Y-89257142D01*
X166925500Y-89304761D01*
X166830261Y-89352380D01*
X166687404Y-89352380D01*
X167925500Y-89352380D02*
X167449309Y-89352380D01*
X167449309Y-88352380D01*
X168258833Y-88828571D02*
X168592166Y-88828571D01*
X168735023Y-89352380D02*
X168258833Y-89352380D01*
X168258833Y-88352380D01*
X168735023Y-88352380D01*
X169163595Y-89352380D02*
X169163595Y-88352380D01*
X169401690Y-88352380D01*
X169544547Y-88400000D01*
X169639785Y-88495238D01*
X169687404Y-88590476D01*
X169735023Y-88780952D01*
X169735023Y-88923809D01*
X169687404Y-89114285D01*
X169639785Y-89209523D01*
X169544547Y-89304761D01*
X169401690Y-89352380D01*
X169163595Y-89352380D01*
%TO.C,MX25*%
X145113595Y-100464880D02*
X145113595Y-99464880D01*
X145446928Y-100179166D01*
X145780261Y-99464880D01*
X145780261Y-100464880D01*
X146161214Y-99464880D02*
X146827880Y-100464880D01*
X146827880Y-99464880D02*
X146161214Y-100464880D01*
X147161214Y-99560119D02*
X147208833Y-99512500D01*
X147304071Y-99464880D01*
X147542166Y-99464880D01*
X147637404Y-99512500D01*
X147685023Y-99560119D01*
X147732642Y-99655357D01*
X147732642Y-99750595D01*
X147685023Y-99893452D01*
X147113595Y-100464880D01*
X147732642Y-100464880D01*
X148637404Y-99464880D02*
X148161214Y-99464880D01*
X148113595Y-99941071D01*
X148161214Y-99893452D01*
X148256452Y-99845833D01*
X148494547Y-99845833D01*
X148589785Y-99893452D01*
X148637404Y-99941071D01*
X148685023Y-100036309D01*
X148685023Y-100274404D01*
X148637404Y-100369642D01*
X148589785Y-100417261D01*
X148494547Y-100464880D01*
X148256452Y-100464880D01*
X148161214Y-100417261D01*
X148113595Y-100369642D01*
X143113595Y-89352380D02*
X143113595Y-88352380D01*
X143446928Y-89066666D01*
X143780261Y-88352380D01*
X143780261Y-89352380D01*
X144161214Y-88352380D02*
X144827880Y-89352380D01*
X144827880Y-88352380D02*
X144161214Y-89352380D01*
X145208833Y-88971428D02*
X145970738Y-88971428D01*
X146446928Y-89352380D02*
X146446928Y-88352380D01*
X147018357Y-89352380D01*
X147018357Y-88352380D01*
X147637404Y-89352380D02*
X147542166Y-89304761D01*
X147494547Y-89257142D01*
X147446928Y-89161904D01*
X147446928Y-88876190D01*
X147494547Y-88780952D01*
X147542166Y-88733333D01*
X147637404Y-88685714D01*
X147780261Y-88685714D01*
X147875500Y-88733333D01*
X147923119Y-88780952D01*
X147970738Y-88876190D01*
X147970738Y-89161904D01*
X147923119Y-89257142D01*
X147875500Y-89304761D01*
X147780261Y-89352380D01*
X147637404Y-89352380D01*
X148875500Y-89352380D02*
X148399309Y-89352380D01*
X148399309Y-88352380D01*
X149208833Y-88828571D02*
X149542166Y-88828571D01*
X149685023Y-89352380D02*
X149208833Y-89352380D01*
X149208833Y-88352380D01*
X149685023Y-88352380D01*
X150113595Y-89352380D02*
X150113595Y-88352380D01*
X150351690Y-88352380D01*
X150494547Y-88400000D01*
X150589785Y-88495238D01*
X150637404Y-88590476D01*
X150685023Y-88780952D01*
X150685023Y-88923809D01*
X150637404Y-89114285D01*
X150589785Y-89209523D01*
X150494547Y-89304761D01*
X150351690Y-89352380D01*
X150113595Y-89352380D01*
%TO.C,MX24*%
X126063595Y-97289880D02*
X126063595Y-96289880D01*
X126396928Y-97004166D01*
X126730261Y-96289880D01*
X126730261Y-97289880D01*
X127111214Y-96289880D02*
X127777880Y-97289880D01*
X127777880Y-96289880D02*
X127111214Y-97289880D01*
X128111214Y-96385119D02*
X128158833Y-96337500D01*
X128254071Y-96289880D01*
X128492166Y-96289880D01*
X128587404Y-96337500D01*
X128635023Y-96385119D01*
X128682642Y-96480357D01*
X128682642Y-96575595D01*
X128635023Y-96718452D01*
X128063595Y-97289880D01*
X128682642Y-97289880D01*
X129539785Y-96623214D02*
X129539785Y-97289880D01*
X129301690Y-96242261D02*
X129063595Y-96956547D01*
X129682642Y-96956547D01*
X124063595Y-86177380D02*
X124063595Y-85177380D01*
X124396928Y-85891666D01*
X124730261Y-85177380D01*
X124730261Y-86177380D01*
X125111214Y-85177380D02*
X125777880Y-86177380D01*
X125777880Y-85177380D02*
X125111214Y-86177380D01*
X126158833Y-85796428D02*
X126920738Y-85796428D01*
X127396928Y-86177380D02*
X127396928Y-85177380D01*
X127968357Y-86177380D01*
X127968357Y-85177380D01*
X128587404Y-86177380D02*
X128492166Y-86129761D01*
X128444547Y-86082142D01*
X128396928Y-85986904D01*
X128396928Y-85701190D01*
X128444547Y-85605952D01*
X128492166Y-85558333D01*
X128587404Y-85510714D01*
X128730261Y-85510714D01*
X128825500Y-85558333D01*
X128873119Y-85605952D01*
X128920738Y-85701190D01*
X128920738Y-85986904D01*
X128873119Y-86082142D01*
X128825500Y-86129761D01*
X128730261Y-86177380D01*
X128587404Y-86177380D01*
X129825500Y-86177380D02*
X129349309Y-86177380D01*
X129349309Y-85177380D01*
X130158833Y-85653571D02*
X130492166Y-85653571D01*
X130635023Y-86177380D02*
X130158833Y-86177380D01*
X130158833Y-85177380D01*
X130635023Y-85177380D01*
X131063595Y-86177380D02*
X131063595Y-85177380D01*
X131301690Y-85177380D01*
X131444547Y-85225000D01*
X131539785Y-85320238D01*
X131587404Y-85415476D01*
X131635023Y-85605952D01*
X131635023Y-85748809D01*
X131587404Y-85939285D01*
X131539785Y-86034523D01*
X131444547Y-86129761D01*
X131301690Y-86177380D01*
X131063595Y-86177380D01*
%TO.C,MX23*%
X107013595Y-94908630D02*
X107013595Y-93908630D01*
X107346928Y-94622916D01*
X107680261Y-93908630D01*
X107680261Y-94908630D01*
X108061214Y-93908630D02*
X108727880Y-94908630D01*
X108727880Y-93908630D02*
X108061214Y-94908630D01*
X109061214Y-94003869D02*
X109108833Y-93956250D01*
X109204071Y-93908630D01*
X109442166Y-93908630D01*
X109537404Y-93956250D01*
X109585023Y-94003869D01*
X109632642Y-94099107D01*
X109632642Y-94194345D01*
X109585023Y-94337202D01*
X109013595Y-94908630D01*
X109632642Y-94908630D01*
X109965976Y-93908630D02*
X110585023Y-93908630D01*
X110251690Y-94289583D01*
X110394547Y-94289583D01*
X110489785Y-94337202D01*
X110537404Y-94384821D01*
X110585023Y-94480059D01*
X110585023Y-94718154D01*
X110537404Y-94813392D01*
X110489785Y-94861011D01*
X110394547Y-94908630D01*
X110108833Y-94908630D01*
X110013595Y-94861011D01*
X109965976Y-94813392D01*
X105013595Y-83796130D02*
X105013595Y-82796130D01*
X105346928Y-83510416D01*
X105680261Y-82796130D01*
X105680261Y-83796130D01*
X106061214Y-82796130D02*
X106727880Y-83796130D01*
X106727880Y-82796130D02*
X106061214Y-83796130D01*
X107108833Y-83415178D02*
X107870738Y-83415178D01*
X108346928Y-83796130D02*
X108346928Y-82796130D01*
X108918357Y-83796130D01*
X108918357Y-82796130D01*
X109537404Y-83796130D02*
X109442166Y-83748511D01*
X109394547Y-83700892D01*
X109346928Y-83605654D01*
X109346928Y-83319940D01*
X109394547Y-83224702D01*
X109442166Y-83177083D01*
X109537404Y-83129464D01*
X109680261Y-83129464D01*
X109775500Y-83177083D01*
X109823119Y-83224702D01*
X109870738Y-83319940D01*
X109870738Y-83605654D01*
X109823119Y-83700892D01*
X109775500Y-83748511D01*
X109680261Y-83796130D01*
X109537404Y-83796130D01*
X110775500Y-83796130D02*
X110299309Y-83796130D01*
X110299309Y-82796130D01*
X111108833Y-83272321D02*
X111442166Y-83272321D01*
X111585023Y-83796130D02*
X111108833Y-83796130D01*
X111108833Y-82796130D01*
X111585023Y-82796130D01*
X112013595Y-83796130D02*
X112013595Y-82796130D01*
X112251690Y-82796130D01*
X112394547Y-82843750D01*
X112489785Y-82938988D01*
X112537404Y-83034226D01*
X112585023Y-83224702D01*
X112585023Y-83367559D01*
X112537404Y-83558035D01*
X112489785Y-83653273D01*
X112394547Y-83748511D01*
X112251690Y-83796130D01*
X112013595Y-83796130D01*
%TO.C,MX22*%
X87963595Y-97289880D02*
X87963595Y-96289880D01*
X88296928Y-97004166D01*
X88630261Y-96289880D01*
X88630261Y-97289880D01*
X89011214Y-96289880D02*
X89677880Y-97289880D01*
X89677880Y-96289880D02*
X89011214Y-97289880D01*
X90011214Y-96385119D02*
X90058833Y-96337500D01*
X90154071Y-96289880D01*
X90392166Y-96289880D01*
X90487404Y-96337500D01*
X90535023Y-96385119D01*
X90582642Y-96480357D01*
X90582642Y-96575595D01*
X90535023Y-96718452D01*
X89963595Y-97289880D01*
X90582642Y-97289880D01*
X90963595Y-96385119D02*
X91011214Y-96337500D01*
X91106452Y-96289880D01*
X91344547Y-96289880D01*
X91439785Y-96337500D01*
X91487404Y-96385119D01*
X91535023Y-96480357D01*
X91535023Y-96575595D01*
X91487404Y-96718452D01*
X90915976Y-97289880D01*
X91535023Y-97289880D01*
X85963595Y-86177380D02*
X85963595Y-85177380D01*
X86296928Y-85891666D01*
X86630261Y-85177380D01*
X86630261Y-86177380D01*
X87011214Y-85177380D02*
X87677880Y-86177380D01*
X87677880Y-85177380D02*
X87011214Y-86177380D01*
X88058833Y-85796428D02*
X88820738Y-85796428D01*
X89296928Y-86177380D02*
X89296928Y-85177380D01*
X89868357Y-86177380D01*
X89868357Y-85177380D01*
X90487404Y-86177380D02*
X90392166Y-86129761D01*
X90344547Y-86082142D01*
X90296928Y-85986904D01*
X90296928Y-85701190D01*
X90344547Y-85605952D01*
X90392166Y-85558333D01*
X90487404Y-85510714D01*
X90630261Y-85510714D01*
X90725500Y-85558333D01*
X90773119Y-85605952D01*
X90820738Y-85701190D01*
X90820738Y-85986904D01*
X90773119Y-86082142D01*
X90725500Y-86129761D01*
X90630261Y-86177380D01*
X90487404Y-86177380D01*
X91725500Y-86177380D02*
X91249309Y-86177380D01*
X91249309Y-85177380D01*
X92058833Y-85653571D02*
X92392166Y-85653571D01*
X92535023Y-86177380D02*
X92058833Y-86177380D01*
X92058833Y-85177380D01*
X92535023Y-85177380D01*
X92963595Y-86177380D02*
X92963595Y-85177380D01*
X93201690Y-85177380D01*
X93344547Y-85225000D01*
X93439785Y-85320238D01*
X93487404Y-85415476D01*
X93535023Y-85605952D01*
X93535023Y-85748809D01*
X93487404Y-85939285D01*
X93439785Y-86034523D01*
X93344547Y-86129761D01*
X93201690Y-86177380D01*
X92963595Y-86177380D01*
%TO.C,MX21*%
X68913595Y-99671130D02*
X68913595Y-98671130D01*
X69246928Y-99385416D01*
X69580261Y-98671130D01*
X69580261Y-99671130D01*
X69961214Y-98671130D02*
X70627880Y-99671130D01*
X70627880Y-98671130D02*
X69961214Y-99671130D01*
X70961214Y-98766369D02*
X71008833Y-98718750D01*
X71104071Y-98671130D01*
X71342166Y-98671130D01*
X71437404Y-98718750D01*
X71485023Y-98766369D01*
X71532642Y-98861607D01*
X71532642Y-98956845D01*
X71485023Y-99099702D01*
X70913595Y-99671130D01*
X71532642Y-99671130D01*
X72485023Y-99671130D02*
X71913595Y-99671130D01*
X72199309Y-99671130D02*
X72199309Y-98671130D01*
X72104071Y-98813988D01*
X72008833Y-98909226D01*
X71913595Y-98956845D01*
X66913595Y-88558630D02*
X66913595Y-87558630D01*
X67246928Y-88272916D01*
X67580261Y-87558630D01*
X67580261Y-88558630D01*
X67961214Y-87558630D02*
X68627880Y-88558630D01*
X68627880Y-87558630D02*
X67961214Y-88558630D01*
X69008833Y-88177678D02*
X69770738Y-88177678D01*
X70246928Y-88558630D02*
X70246928Y-87558630D01*
X70818357Y-88558630D01*
X70818357Y-87558630D01*
X71437404Y-88558630D02*
X71342166Y-88511011D01*
X71294547Y-88463392D01*
X71246928Y-88368154D01*
X71246928Y-88082440D01*
X71294547Y-87987202D01*
X71342166Y-87939583D01*
X71437404Y-87891964D01*
X71580261Y-87891964D01*
X71675500Y-87939583D01*
X71723119Y-87987202D01*
X71770738Y-88082440D01*
X71770738Y-88368154D01*
X71723119Y-88463392D01*
X71675500Y-88511011D01*
X71580261Y-88558630D01*
X71437404Y-88558630D01*
X72675500Y-88558630D02*
X72199309Y-88558630D01*
X72199309Y-87558630D01*
X73008833Y-88034821D02*
X73342166Y-88034821D01*
X73485023Y-88558630D02*
X73008833Y-88558630D01*
X73008833Y-87558630D01*
X73485023Y-87558630D01*
X73913595Y-88558630D02*
X73913595Y-87558630D01*
X74151690Y-87558630D01*
X74294547Y-87606250D01*
X74389785Y-87701488D01*
X74437404Y-87796726D01*
X74485023Y-87987202D01*
X74485023Y-88130059D01*
X74437404Y-88320535D01*
X74389785Y-88415773D01*
X74294547Y-88511011D01*
X74151690Y-88558630D01*
X73913595Y-88558630D01*
%TO.C,MX16*%
X164163595Y-81414880D02*
X164163595Y-80414880D01*
X164496928Y-81129166D01*
X164830261Y-80414880D01*
X164830261Y-81414880D01*
X165211214Y-80414880D02*
X165877880Y-81414880D01*
X165877880Y-80414880D02*
X165211214Y-81414880D01*
X166782642Y-81414880D02*
X166211214Y-81414880D01*
X166496928Y-81414880D02*
X166496928Y-80414880D01*
X166401690Y-80557738D01*
X166306452Y-80652976D01*
X166211214Y-80700595D01*
X167639785Y-80414880D02*
X167449309Y-80414880D01*
X167354071Y-80462500D01*
X167306452Y-80510119D01*
X167211214Y-80652976D01*
X167163595Y-80843452D01*
X167163595Y-81224404D01*
X167211214Y-81319642D01*
X167258833Y-81367261D01*
X167354071Y-81414880D01*
X167544547Y-81414880D01*
X167639785Y-81367261D01*
X167687404Y-81319642D01*
X167735023Y-81224404D01*
X167735023Y-80986309D01*
X167687404Y-80891071D01*
X167639785Y-80843452D01*
X167544547Y-80795833D01*
X167354071Y-80795833D01*
X167258833Y-80843452D01*
X167211214Y-80891071D01*
X167163595Y-80986309D01*
X162163595Y-70302380D02*
X162163595Y-69302380D01*
X162496928Y-70016666D01*
X162830261Y-69302380D01*
X162830261Y-70302380D01*
X163211214Y-69302380D02*
X163877880Y-70302380D01*
X163877880Y-69302380D02*
X163211214Y-70302380D01*
X164258833Y-69921428D02*
X165020738Y-69921428D01*
X165496928Y-70302380D02*
X165496928Y-69302380D01*
X166068357Y-70302380D01*
X166068357Y-69302380D01*
X166687404Y-70302380D02*
X166592166Y-70254761D01*
X166544547Y-70207142D01*
X166496928Y-70111904D01*
X166496928Y-69826190D01*
X166544547Y-69730952D01*
X166592166Y-69683333D01*
X166687404Y-69635714D01*
X166830261Y-69635714D01*
X166925500Y-69683333D01*
X166973119Y-69730952D01*
X167020738Y-69826190D01*
X167020738Y-70111904D01*
X166973119Y-70207142D01*
X166925500Y-70254761D01*
X166830261Y-70302380D01*
X166687404Y-70302380D01*
X167925500Y-70302380D02*
X167449309Y-70302380D01*
X167449309Y-69302380D01*
X168258833Y-69778571D02*
X168592166Y-69778571D01*
X168735023Y-70302380D02*
X168258833Y-70302380D01*
X168258833Y-69302380D01*
X168735023Y-69302380D01*
X169163595Y-70302380D02*
X169163595Y-69302380D01*
X169401690Y-69302380D01*
X169544547Y-69350000D01*
X169639785Y-69445238D01*
X169687404Y-69540476D01*
X169735023Y-69730952D01*
X169735023Y-69873809D01*
X169687404Y-70064285D01*
X169639785Y-70159523D01*
X169544547Y-70254761D01*
X169401690Y-70302380D01*
X169163595Y-70302380D01*
%TO.C,MX15*%
X145113595Y-81414880D02*
X145113595Y-80414880D01*
X145446928Y-81129166D01*
X145780261Y-80414880D01*
X145780261Y-81414880D01*
X146161214Y-80414880D02*
X146827880Y-81414880D01*
X146827880Y-80414880D02*
X146161214Y-81414880D01*
X147732642Y-81414880D02*
X147161214Y-81414880D01*
X147446928Y-81414880D02*
X147446928Y-80414880D01*
X147351690Y-80557738D01*
X147256452Y-80652976D01*
X147161214Y-80700595D01*
X148637404Y-80414880D02*
X148161214Y-80414880D01*
X148113595Y-80891071D01*
X148161214Y-80843452D01*
X148256452Y-80795833D01*
X148494547Y-80795833D01*
X148589785Y-80843452D01*
X148637404Y-80891071D01*
X148685023Y-80986309D01*
X148685023Y-81224404D01*
X148637404Y-81319642D01*
X148589785Y-81367261D01*
X148494547Y-81414880D01*
X148256452Y-81414880D01*
X148161214Y-81367261D01*
X148113595Y-81319642D01*
X143113595Y-70302380D02*
X143113595Y-69302380D01*
X143446928Y-70016666D01*
X143780261Y-69302380D01*
X143780261Y-70302380D01*
X144161214Y-69302380D02*
X144827880Y-70302380D01*
X144827880Y-69302380D02*
X144161214Y-70302380D01*
X145208833Y-69921428D02*
X145970738Y-69921428D01*
X146446928Y-70302380D02*
X146446928Y-69302380D01*
X147018357Y-70302380D01*
X147018357Y-69302380D01*
X147637404Y-70302380D02*
X147542166Y-70254761D01*
X147494547Y-70207142D01*
X147446928Y-70111904D01*
X147446928Y-69826190D01*
X147494547Y-69730952D01*
X147542166Y-69683333D01*
X147637404Y-69635714D01*
X147780261Y-69635714D01*
X147875500Y-69683333D01*
X147923119Y-69730952D01*
X147970738Y-69826190D01*
X147970738Y-70111904D01*
X147923119Y-70207142D01*
X147875500Y-70254761D01*
X147780261Y-70302380D01*
X147637404Y-70302380D01*
X148875500Y-70302380D02*
X148399309Y-70302380D01*
X148399309Y-69302380D01*
X149208833Y-69778571D02*
X149542166Y-69778571D01*
X149685023Y-70302380D02*
X149208833Y-70302380D01*
X149208833Y-69302380D01*
X149685023Y-69302380D01*
X150113595Y-70302380D02*
X150113595Y-69302380D01*
X150351690Y-69302380D01*
X150494547Y-69350000D01*
X150589785Y-69445238D01*
X150637404Y-69540476D01*
X150685023Y-69730952D01*
X150685023Y-69873809D01*
X150637404Y-70064285D01*
X150589785Y-70159523D01*
X150494547Y-70254761D01*
X150351690Y-70302380D01*
X150113595Y-70302380D01*
%TO.C,MX14*%
X126063595Y-78239880D02*
X126063595Y-77239880D01*
X126396928Y-77954166D01*
X126730261Y-77239880D01*
X126730261Y-78239880D01*
X127111214Y-77239880D02*
X127777880Y-78239880D01*
X127777880Y-77239880D02*
X127111214Y-78239880D01*
X128682642Y-78239880D02*
X128111214Y-78239880D01*
X128396928Y-78239880D02*
X128396928Y-77239880D01*
X128301690Y-77382738D01*
X128206452Y-77477976D01*
X128111214Y-77525595D01*
X129539785Y-77573214D02*
X129539785Y-78239880D01*
X129301690Y-77192261D02*
X129063595Y-77906547D01*
X129682642Y-77906547D01*
X124063595Y-67127380D02*
X124063595Y-66127380D01*
X124396928Y-66841666D01*
X124730261Y-66127380D01*
X124730261Y-67127380D01*
X125111214Y-66127380D02*
X125777880Y-67127380D01*
X125777880Y-66127380D02*
X125111214Y-67127380D01*
X126158833Y-66746428D02*
X126920738Y-66746428D01*
X127396928Y-67127380D02*
X127396928Y-66127380D01*
X127968357Y-67127380D01*
X127968357Y-66127380D01*
X128587404Y-67127380D02*
X128492166Y-67079761D01*
X128444547Y-67032142D01*
X128396928Y-66936904D01*
X128396928Y-66651190D01*
X128444547Y-66555952D01*
X128492166Y-66508333D01*
X128587404Y-66460714D01*
X128730261Y-66460714D01*
X128825500Y-66508333D01*
X128873119Y-66555952D01*
X128920738Y-66651190D01*
X128920738Y-66936904D01*
X128873119Y-67032142D01*
X128825500Y-67079761D01*
X128730261Y-67127380D01*
X128587404Y-67127380D01*
X129825500Y-67127380D02*
X129349309Y-67127380D01*
X129349309Y-66127380D01*
X130158833Y-66603571D02*
X130492166Y-66603571D01*
X130635023Y-67127380D02*
X130158833Y-67127380D01*
X130158833Y-66127380D01*
X130635023Y-66127380D01*
X131063595Y-67127380D02*
X131063595Y-66127380D01*
X131301690Y-66127380D01*
X131444547Y-66175000D01*
X131539785Y-66270238D01*
X131587404Y-66365476D01*
X131635023Y-66555952D01*
X131635023Y-66698809D01*
X131587404Y-66889285D01*
X131539785Y-66984523D01*
X131444547Y-67079761D01*
X131301690Y-67127380D01*
X131063595Y-67127380D01*
%TO.C,MX13*%
X107013595Y-75858630D02*
X107013595Y-74858630D01*
X107346928Y-75572916D01*
X107680261Y-74858630D01*
X107680261Y-75858630D01*
X108061214Y-74858630D02*
X108727880Y-75858630D01*
X108727880Y-74858630D02*
X108061214Y-75858630D01*
X109632642Y-75858630D02*
X109061214Y-75858630D01*
X109346928Y-75858630D02*
X109346928Y-74858630D01*
X109251690Y-75001488D01*
X109156452Y-75096726D01*
X109061214Y-75144345D01*
X109965976Y-74858630D02*
X110585023Y-74858630D01*
X110251690Y-75239583D01*
X110394547Y-75239583D01*
X110489785Y-75287202D01*
X110537404Y-75334821D01*
X110585023Y-75430059D01*
X110585023Y-75668154D01*
X110537404Y-75763392D01*
X110489785Y-75811011D01*
X110394547Y-75858630D01*
X110108833Y-75858630D01*
X110013595Y-75811011D01*
X109965976Y-75763392D01*
X105013595Y-64746130D02*
X105013595Y-63746130D01*
X105346928Y-64460416D01*
X105680261Y-63746130D01*
X105680261Y-64746130D01*
X106061214Y-63746130D02*
X106727880Y-64746130D01*
X106727880Y-63746130D02*
X106061214Y-64746130D01*
X107108833Y-64365178D02*
X107870738Y-64365178D01*
X108346928Y-64746130D02*
X108346928Y-63746130D01*
X108918357Y-64746130D01*
X108918357Y-63746130D01*
X109537404Y-64746130D02*
X109442166Y-64698511D01*
X109394547Y-64650892D01*
X109346928Y-64555654D01*
X109346928Y-64269940D01*
X109394547Y-64174702D01*
X109442166Y-64127083D01*
X109537404Y-64079464D01*
X109680261Y-64079464D01*
X109775500Y-64127083D01*
X109823119Y-64174702D01*
X109870738Y-64269940D01*
X109870738Y-64555654D01*
X109823119Y-64650892D01*
X109775500Y-64698511D01*
X109680261Y-64746130D01*
X109537404Y-64746130D01*
X110775500Y-64746130D02*
X110299309Y-64746130D01*
X110299309Y-63746130D01*
X111108833Y-64222321D02*
X111442166Y-64222321D01*
X111585023Y-64746130D02*
X111108833Y-64746130D01*
X111108833Y-63746130D01*
X111585023Y-63746130D01*
X112013595Y-64746130D02*
X112013595Y-63746130D01*
X112251690Y-63746130D01*
X112394547Y-63793750D01*
X112489785Y-63888988D01*
X112537404Y-63984226D01*
X112585023Y-64174702D01*
X112585023Y-64317559D01*
X112537404Y-64508035D01*
X112489785Y-64603273D01*
X112394547Y-64698511D01*
X112251690Y-64746130D01*
X112013595Y-64746130D01*
%TO.C,MX12*%
X87963595Y-78239880D02*
X87963595Y-77239880D01*
X88296928Y-77954166D01*
X88630261Y-77239880D01*
X88630261Y-78239880D01*
X89011214Y-77239880D02*
X89677880Y-78239880D01*
X89677880Y-77239880D02*
X89011214Y-78239880D01*
X90582642Y-78239880D02*
X90011214Y-78239880D01*
X90296928Y-78239880D02*
X90296928Y-77239880D01*
X90201690Y-77382738D01*
X90106452Y-77477976D01*
X90011214Y-77525595D01*
X90963595Y-77335119D02*
X91011214Y-77287500D01*
X91106452Y-77239880D01*
X91344547Y-77239880D01*
X91439785Y-77287500D01*
X91487404Y-77335119D01*
X91535023Y-77430357D01*
X91535023Y-77525595D01*
X91487404Y-77668452D01*
X90915976Y-78239880D01*
X91535023Y-78239880D01*
X85963595Y-67127380D02*
X85963595Y-66127380D01*
X86296928Y-66841666D01*
X86630261Y-66127380D01*
X86630261Y-67127380D01*
X87011214Y-66127380D02*
X87677880Y-67127380D01*
X87677880Y-66127380D02*
X87011214Y-67127380D01*
X88058833Y-66746428D02*
X88820738Y-66746428D01*
X89296928Y-67127380D02*
X89296928Y-66127380D01*
X89868357Y-67127380D01*
X89868357Y-66127380D01*
X90487404Y-67127380D02*
X90392166Y-67079761D01*
X90344547Y-67032142D01*
X90296928Y-66936904D01*
X90296928Y-66651190D01*
X90344547Y-66555952D01*
X90392166Y-66508333D01*
X90487404Y-66460714D01*
X90630261Y-66460714D01*
X90725500Y-66508333D01*
X90773119Y-66555952D01*
X90820738Y-66651190D01*
X90820738Y-66936904D01*
X90773119Y-67032142D01*
X90725500Y-67079761D01*
X90630261Y-67127380D01*
X90487404Y-67127380D01*
X91725500Y-67127380D02*
X91249309Y-67127380D01*
X91249309Y-66127380D01*
X92058833Y-66603571D02*
X92392166Y-66603571D01*
X92535023Y-67127380D02*
X92058833Y-67127380D01*
X92058833Y-66127380D01*
X92535023Y-66127380D01*
X92963595Y-67127380D02*
X92963595Y-66127380D01*
X93201690Y-66127380D01*
X93344547Y-66175000D01*
X93439785Y-66270238D01*
X93487404Y-66365476D01*
X93535023Y-66555952D01*
X93535023Y-66698809D01*
X93487404Y-66889285D01*
X93439785Y-66984523D01*
X93344547Y-67079761D01*
X93201690Y-67127380D01*
X92963595Y-67127380D01*
%TO.C,MX11*%
X68913595Y-80621130D02*
X68913595Y-79621130D01*
X69246928Y-80335416D01*
X69580261Y-79621130D01*
X69580261Y-80621130D01*
X69961214Y-79621130D02*
X70627880Y-80621130D01*
X70627880Y-79621130D02*
X69961214Y-80621130D01*
X71532642Y-80621130D02*
X70961214Y-80621130D01*
X71246928Y-80621130D02*
X71246928Y-79621130D01*
X71151690Y-79763988D01*
X71056452Y-79859226D01*
X70961214Y-79906845D01*
X72485023Y-80621130D02*
X71913595Y-80621130D01*
X72199309Y-80621130D02*
X72199309Y-79621130D01*
X72104071Y-79763988D01*
X72008833Y-79859226D01*
X71913595Y-79906845D01*
X66913595Y-69508630D02*
X66913595Y-68508630D01*
X67246928Y-69222916D01*
X67580261Y-68508630D01*
X67580261Y-69508630D01*
X67961214Y-68508630D02*
X68627880Y-69508630D01*
X68627880Y-68508630D02*
X67961214Y-69508630D01*
X69008833Y-69127678D02*
X69770738Y-69127678D01*
X70246928Y-69508630D02*
X70246928Y-68508630D01*
X70818357Y-69508630D01*
X70818357Y-68508630D01*
X71437404Y-69508630D02*
X71342166Y-69461011D01*
X71294547Y-69413392D01*
X71246928Y-69318154D01*
X71246928Y-69032440D01*
X71294547Y-68937202D01*
X71342166Y-68889583D01*
X71437404Y-68841964D01*
X71580261Y-68841964D01*
X71675500Y-68889583D01*
X71723119Y-68937202D01*
X71770738Y-69032440D01*
X71770738Y-69318154D01*
X71723119Y-69413392D01*
X71675500Y-69461011D01*
X71580261Y-69508630D01*
X71437404Y-69508630D01*
X72675500Y-69508630D02*
X72199309Y-69508630D01*
X72199309Y-68508630D01*
X73008833Y-68984821D02*
X73342166Y-68984821D01*
X73485023Y-69508630D02*
X73008833Y-69508630D01*
X73008833Y-68508630D01*
X73485023Y-68508630D01*
X73913595Y-69508630D02*
X73913595Y-68508630D01*
X74151690Y-68508630D01*
X74294547Y-68556250D01*
X74389785Y-68651488D01*
X74437404Y-68746726D01*
X74485023Y-68937202D01*
X74485023Y-69080059D01*
X74437404Y-69270535D01*
X74389785Y-69365773D01*
X74294547Y-69461011D01*
X74151690Y-69508630D01*
X73913595Y-69508630D01*
%TO.C,MX6*%
X164639785Y-62364880D02*
X164639785Y-61364880D01*
X164973119Y-62079166D01*
X165306452Y-61364880D01*
X165306452Y-62364880D01*
X165687404Y-61364880D02*
X166354071Y-62364880D01*
X166354071Y-61364880D02*
X165687404Y-62364880D01*
X167163595Y-61364880D02*
X166973119Y-61364880D01*
X166877880Y-61412500D01*
X166830261Y-61460119D01*
X166735023Y-61602976D01*
X166687404Y-61793452D01*
X166687404Y-62174404D01*
X166735023Y-62269642D01*
X166782642Y-62317261D01*
X166877880Y-62364880D01*
X167068357Y-62364880D01*
X167163595Y-62317261D01*
X167211214Y-62269642D01*
X167258833Y-62174404D01*
X167258833Y-61936309D01*
X167211214Y-61841071D01*
X167163595Y-61793452D01*
X167068357Y-61745833D01*
X166877880Y-61745833D01*
X166782642Y-61793452D01*
X166735023Y-61841071D01*
X166687404Y-61936309D01*
X162163595Y-51252380D02*
X162163595Y-50252380D01*
X162496928Y-50966666D01*
X162830261Y-50252380D01*
X162830261Y-51252380D01*
X163211214Y-50252380D02*
X163877880Y-51252380D01*
X163877880Y-50252380D02*
X163211214Y-51252380D01*
X164258833Y-50871428D02*
X165020738Y-50871428D01*
X165496928Y-51252380D02*
X165496928Y-50252380D01*
X166068357Y-51252380D01*
X166068357Y-50252380D01*
X166687404Y-51252380D02*
X166592166Y-51204761D01*
X166544547Y-51157142D01*
X166496928Y-51061904D01*
X166496928Y-50776190D01*
X166544547Y-50680952D01*
X166592166Y-50633333D01*
X166687404Y-50585714D01*
X166830261Y-50585714D01*
X166925500Y-50633333D01*
X166973119Y-50680952D01*
X167020738Y-50776190D01*
X167020738Y-51061904D01*
X166973119Y-51157142D01*
X166925500Y-51204761D01*
X166830261Y-51252380D01*
X166687404Y-51252380D01*
X167925500Y-51252380D02*
X167449309Y-51252380D01*
X167449309Y-50252380D01*
X168258833Y-50728571D02*
X168592166Y-50728571D01*
X168735023Y-51252380D02*
X168258833Y-51252380D01*
X168258833Y-50252380D01*
X168735023Y-50252380D01*
X169163595Y-51252380D02*
X169163595Y-50252380D01*
X169401690Y-50252380D01*
X169544547Y-50300000D01*
X169639785Y-50395238D01*
X169687404Y-50490476D01*
X169735023Y-50680952D01*
X169735023Y-50823809D01*
X169687404Y-51014285D01*
X169639785Y-51109523D01*
X169544547Y-51204761D01*
X169401690Y-51252380D01*
X169163595Y-51252380D01*
%TO.C,MX5*%
X145589785Y-62364880D02*
X145589785Y-61364880D01*
X145923119Y-62079166D01*
X146256452Y-61364880D01*
X146256452Y-62364880D01*
X146637404Y-61364880D02*
X147304071Y-62364880D01*
X147304071Y-61364880D02*
X146637404Y-62364880D01*
X148161214Y-61364880D02*
X147685023Y-61364880D01*
X147637404Y-61841071D01*
X147685023Y-61793452D01*
X147780261Y-61745833D01*
X148018357Y-61745833D01*
X148113595Y-61793452D01*
X148161214Y-61841071D01*
X148208833Y-61936309D01*
X148208833Y-62174404D01*
X148161214Y-62269642D01*
X148113595Y-62317261D01*
X148018357Y-62364880D01*
X147780261Y-62364880D01*
X147685023Y-62317261D01*
X147637404Y-62269642D01*
X143113595Y-51252380D02*
X143113595Y-50252380D01*
X143446928Y-50966666D01*
X143780261Y-50252380D01*
X143780261Y-51252380D01*
X144161214Y-50252380D02*
X144827880Y-51252380D01*
X144827880Y-50252380D02*
X144161214Y-51252380D01*
X145208833Y-50871428D02*
X145970738Y-50871428D01*
X146446928Y-51252380D02*
X146446928Y-50252380D01*
X147018357Y-51252380D01*
X147018357Y-50252380D01*
X147637404Y-51252380D02*
X147542166Y-51204761D01*
X147494547Y-51157142D01*
X147446928Y-51061904D01*
X147446928Y-50776190D01*
X147494547Y-50680952D01*
X147542166Y-50633333D01*
X147637404Y-50585714D01*
X147780261Y-50585714D01*
X147875500Y-50633333D01*
X147923119Y-50680952D01*
X147970738Y-50776190D01*
X147970738Y-51061904D01*
X147923119Y-51157142D01*
X147875500Y-51204761D01*
X147780261Y-51252380D01*
X147637404Y-51252380D01*
X148875500Y-51252380D02*
X148399309Y-51252380D01*
X148399309Y-50252380D01*
X149208833Y-50728571D02*
X149542166Y-50728571D01*
X149685023Y-51252380D02*
X149208833Y-51252380D01*
X149208833Y-50252380D01*
X149685023Y-50252380D01*
X150113595Y-51252380D02*
X150113595Y-50252380D01*
X150351690Y-50252380D01*
X150494547Y-50300000D01*
X150589785Y-50395238D01*
X150637404Y-50490476D01*
X150685023Y-50680952D01*
X150685023Y-50823809D01*
X150637404Y-51014285D01*
X150589785Y-51109523D01*
X150494547Y-51204761D01*
X150351690Y-51252380D01*
X150113595Y-51252380D01*
%TO.C,MX4*%
X126539785Y-59189880D02*
X126539785Y-58189880D01*
X126873119Y-58904166D01*
X127206452Y-58189880D01*
X127206452Y-59189880D01*
X127587404Y-58189880D02*
X128254071Y-59189880D01*
X128254071Y-58189880D02*
X127587404Y-59189880D01*
X129063595Y-58523214D02*
X129063595Y-59189880D01*
X128825500Y-58142261D02*
X128587404Y-58856547D01*
X129206452Y-58856547D01*
X124063595Y-48077380D02*
X124063595Y-47077380D01*
X124396928Y-47791666D01*
X124730261Y-47077380D01*
X124730261Y-48077380D01*
X125111214Y-47077380D02*
X125777880Y-48077380D01*
X125777880Y-47077380D02*
X125111214Y-48077380D01*
X126158833Y-47696428D02*
X126920738Y-47696428D01*
X127396928Y-48077380D02*
X127396928Y-47077380D01*
X127968357Y-48077380D01*
X127968357Y-47077380D01*
X128587404Y-48077380D02*
X128492166Y-48029761D01*
X128444547Y-47982142D01*
X128396928Y-47886904D01*
X128396928Y-47601190D01*
X128444547Y-47505952D01*
X128492166Y-47458333D01*
X128587404Y-47410714D01*
X128730261Y-47410714D01*
X128825500Y-47458333D01*
X128873119Y-47505952D01*
X128920738Y-47601190D01*
X128920738Y-47886904D01*
X128873119Y-47982142D01*
X128825500Y-48029761D01*
X128730261Y-48077380D01*
X128587404Y-48077380D01*
X129825500Y-48077380D02*
X129349309Y-48077380D01*
X129349309Y-47077380D01*
X130158833Y-47553571D02*
X130492166Y-47553571D01*
X130635023Y-48077380D02*
X130158833Y-48077380D01*
X130158833Y-47077380D01*
X130635023Y-47077380D01*
X131063595Y-48077380D02*
X131063595Y-47077380D01*
X131301690Y-47077380D01*
X131444547Y-47125000D01*
X131539785Y-47220238D01*
X131587404Y-47315476D01*
X131635023Y-47505952D01*
X131635023Y-47648809D01*
X131587404Y-47839285D01*
X131539785Y-47934523D01*
X131444547Y-48029761D01*
X131301690Y-48077380D01*
X131063595Y-48077380D01*
%TO.C,MX3*%
X107489785Y-56808630D02*
X107489785Y-55808630D01*
X107823119Y-56522916D01*
X108156452Y-55808630D01*
X108156452Y-56808630D01*
X108537404Y-55808630D02*
X109204071Y-56808630D01*
X109204071Y-55808630D02*
X108537404Y-56808630D01*
X109489785Y-55808630D02*
X110108833Y-55808630D01*
X109775500Y-56189583D01*
X109918357Y-56189583D01*
X110013595Y-56237202D01*
X110061214Y-56284821D01*
X110108833Y-56380059D01*
X110108833Y-56618154D01*
X110061214Y-56713392D01*
X110013595Y-56761011D01*
X109918357Y-56808630D01*
X109632642Y-56808630D01*
X109537404Y-56761011D01*
X109489785Y-56713392D01*
X105013595Y-45696130D02*
X105013595Y-44696130D01*
X105346928Y-45410416D01*
X105680261Y-44696130D01*
X105680261Y-45696130D01*
X106061214Y-44696130D02*
X106727880Y-45696130D01*
X106727880Y-44696130D02*
X106061214Y-45696130D01*
X107108833Y-45315178D02*
X107870738Y-45315178D01*
X108346928Y-45696130D02*
X108346928Y-44696130D01*
X108918357Y-45696130D01*
X108918357Y-44696130D01*
X109537404Y-45696130D02*
X109442166Y-45648511D01*
X109394547Y-45600892D01*
X109346928Y-45505654D01*
X109346928Y-45219940D01*
X109394547Y-45124702D01*
X109442166Y-45077083D01*
X109537404Y-45029464D01*
X109680261Y-45029464D01*
X109775500Y-45077083D01*
X109823119Y-45124702D01*
X109870738Y-45219940D01*
X109870738Y-45505654D01*
X109823119Y-45600892D01*
X109775500Y-45648511D01*
X109680261Y-45696130D01*
X109537404Y-45696130D01*
X110775500Y-45696130D02*
X110299309Y-45696130D01*
X110299309Y-44696130D01*
X111108833Y-45172321D02*
X111442166Y-45172321D01*
X111585023Y-45696130D02*
X111108833Y-45696130D01*
X111108833Y-44696130D01*
X111585023Y-44696130D01*
X112013595Y-45696130D02*
X112013595Y-44696130D01*
X112251690Y-44696130D01*
X112394547Y-44743750D01*
X112489785Y-44838988D01*
X112537404Y-44934226D01*
X112585023Y-45124702D01*
X112585023Y-45267559D01*
X112537404Y-45458035D01*
X112489785Y-45553273D01*
X112394547Y-45648511D01*
X112251690Y-45696130D01*
X112013595Y-45696130D01*
%TO.C,MX2*%
X88439785Y-59189880D02*
X88439785Y-58189880D01*
X88773119Y-58904166D01*
X89106452Y-58189880D01*
X89106452Y-59189880D01*
X89487404Y-58189880D02*
X90154071Y-59189880D01*
X90154071Y-58189880D02*
X89487404Y-59189880D01*
X90487404Y-58285119D02*
X90535023Y-58237500D01*
X90630261Y-58189880D01*
X90868357Y-58189880D01*
X90963595Y-58237500D01*
X91011214Y-58285119D01*
X91058833Y-58380357D01*
X91058833Y-58475595D01*
X91011214Y-58618452D01*
X90439785Y-59189880D01*
X91058833Y-59189880D01*
X85963595Y-48077380D02*
X85963595Y-47077380D01*
X86296928Y-47791666D01*
X86630261Y-47077380D01*
X86630261Y-48077380D01*
X87011214Y-47077380D02*
X87677880Y-48077380D01*
X87677880Y-47077380D02*
X87011214Y-48077380D01*
X88058833Y-47696428D02*
X88820738Y-47696428D01*
X89296928Y-48077380D02*
X89296928Y-47077380D01*
X89868357Y-48077380D01*
X89868357Y-47077380D01*
X90487404Y-48077380D02*
X90392166Y-48029761D01*
X90344547Y-47982142D01*
X90296928Y-47886904D01*
X90296928Y-47601190D01*
X90344547Y-47505952D01*
X90392166Y-47458333D01*
X90487404Y-47410714D01*
X90630261Y-47410714D01*
X90725500Y-47458333D01*
X90773119Y-47505952D01*
X90820738Y-47601190D01*
X90820738Y-47886904D01*
X90773119Y-47982142D01*
X90725500Y-48029761D01*
X90630261Y-48077380D01*
X90487404Y-48077380D01*
X91725500Y-48077380D02*
X91249309Y-48077380D01*
X91249309Y-47077380D01*
X92058833Y-47553571D02*
X92392166Y-47553571D01*
X92535023Y-48077380D02*
X92058833Y-48077380D01*
X92058833Y-47077380D01*
X92535023Y-47077380D01*
X92963595Y-48077380D02*
X92963595Y-47077380D01*
X93201690Y-47077380D01*
X93344547Y-47125000D01*
X93439785Y-47220238D01*
X93487404Y-47315476D01*
X93535023Y-47505952D01*
X93535023Y-47648809D01*
X93487404Y-47839285D01*
X93439785Y-47934523D01*
X93344547Y-48029761D01*
X93201690Y-48077380D01*
X92963595Y-48077380D01*
%TO.C,MX1*%
X69389785Y-61571130D02*
X69389785Y-60571130D01*
X69723119Y-61285416D01*
X70056452Y-60571130D01*
X70056452Y-61571130D01*
X70437404Y-60571130D02*
X71104071Y-61571130D01*
X71104071Y-60571130D02*
X70437404Y-61571130D01*
X72008833Y-61571130D02*
X71437404Y-61571130D01*
X71723119Y-61571130D02*
X71723119Y-60571130D01*
X71627880Y-60713988D01*
X71532642Y-60809226D01*
X71437404Y-60856845D01*
X66913595Y-50458630D02*
X66913595Y-49458630D01*
X67246928Y-50172916D01*
X67580261Y-49458630D01*
X67580261Y-50458630D01*
X67961214Y-49458630D02*
X68627880Y-50458630D01*
X68627880Y-49458630D02*
X67961214Y-50458630D01*
X69008833Y-50077678D02*
X69770738Y-50077678D01*
X70246928Y-50458630D02*
X70246928Y-49458630D01*
X70818357Y-50458630D01*
X70818357Y-49458630D01*
X71437404Y-50458630D02*
X71342166Y-50411011D01*
X71294547Y-50363392D01*
X71246928Y-50268154D01*
X71246928Y-49982440D01*
X71294547Y-49887202D01*
X71342166Y-49839583D01*
X71437404Y-49791964D01*
X71580261Y-49791964D01*
X71675500Y-49839583D01*
X71723119Y-49887202D01*
X71770738Y-49982440D01*
X71770738Y-50268154D01*
X71723119Y-50363392D01*
X71675500Y-50411011D01*
X71580261Y-50458630D01*
X71437404Y-50458630D01*
X72675500Y-50458630D02*
X72199309Y-50458630D01*
X72199309Y-49458630D01*
X73008833Y-49934821D02*
X73342166Y-49934821D01*
X73485023Y-50458630D02*
X73008833Y-50458630D01*
X73008833Y-49458630D01*
X73485023Y-49458630D01*
X73913595Y-50458630D02*
X73913595Y-49458630D01*
X74151690Y-49458630D01*
X74294547Y-49506250D01*
X74389785Y-49601488D01*
X74437404Y-49696726D01*
X74485023Y-49887202D01*
X74485023Y-50030059D01*
X74437404Y-50220535D01*
X74389785Y-50315773D01*
X74294547Y-50411011D01*
X74151690Y-50458630D01*
X73913595Y-50458630D01*
%TD*%
M02*
