%TF.GenerationSoftware,KiCad,Pcbnew,(5.1.9-0-10_14)*%
%TF.CreationDate,2021-04-19T01:21:19-05:00*%
%TF.ProjectId,wren-right-top,7772656e-2d72-4696-9768-742d746f702e,rev?*%
%TF.SameCoordinates,Original*%
%TF.FileFunction,Soldermask,Bot*%
%TF.FilePolarity,Negative*%
%FSLAX46Y46*%
G04 Gerber Fmt 4.6, Leading zero omitted, Abs format (unit mm)*
G04 Created by KiCad (PCBNEW (5.1.9-0-10_14)) date 2021-04-19 01:21:19*
%MOMM*%
%LPD*%
G01*
G04 APERTURE LIST*
%ADD10O,0.300000X1.050000*%
%ADD11O,1.250000X0.300000*%
%ADD12O,0.300000X12.800000*%
%ADD13O,14.000000X0.300000*%
%ADD14C,2.200000*%
G04 APERTURE END LIST*
D10*
%TO.C,MX44*%
X143400750Y-141562500D03*
D11*
X143875750Y-141187500D03*
X143875750Y-128687500D03*
D10*
X143400750Y-128312500D03*
X129700750Y-128312500D03*
D11*
X129225750Y-128687500D03*
X129225750Y-141187500D03*
D10*
X129700750Y-141562500D03*
D12*
X144350750Y-134937500D03*
X128750750Y-134937500D03*
D13*
X136550750Y-141937500D03*
X136550750Y-127937500D03*
%TD*%
%TO.C,MX41*%
G36*
G01*
X63337900Y-140417803D02*
X62546006Y-140875003D01*
G75*
G02*
X62337824Y-140819221I-76200J131982D01*
G01*
X62337824Y-140819221D01*
G75*
G02*
X62393606Y-140611039I131982J76200D01*
G01*
X63185500Y-140153839D01*
G75*
G02*
X63393682Y-140209621I76200J-131982D01*
G01*
X63393682Y-140209621D01*
G75*
G02*
X63337900Y-140417803I-131982J-76200D01*
G01*
G37*
G36*
G01*
X64709500Y-142793484D02*
X63917606Y-143250684D01*
G75*
G02*
X63709424Y-143194902I-76200J131982D01*
G01*
X63709424Y-143194902D01*
G75*
G02*
X63765206Y-142986720I131982J76200D01*
G01*
X64557100Y-142529520D01*
G75*
G02*
X64765282Y-142585302I76200J-131982D01*
G01*
X64765282Y-142585302D01*
G75*
G02*
X64709500Y-142793484I-131982J-76200D01*
G01*
G37*
G36*
G01*
X52771500Y-122116261D02*
X51979606Y-122573461D01*
G75*
G02*
X51771424Y-122517679I-76200J131982D01*
G01*
X51771424Y-122517679D01*
G75*
G02*
X51827206Y-122309497I131982J76200D01*
G01*
X52619100Y-121852297D01*
G75*
G02*
X52827282Y-121908079I76200J-131982D01*
G01*
X52827282Y-121908079D01*
G75*
G02*
X52771500Y-122116261I-131982J-76200D01*
G01*
G37*
G36*
G01*
X65442178Y-145907320D02*
X64792658Y-146282320D01*
G75*
G02*
X64587754Y-146227416I-75000J129904D01*
G01*
X64587754Y-146227416D01*
G75*
G02*
X64642658Y-146022512I129904J75000D01*
G01*
X65292178Y-145647512D01*
G75*
G02*
X65497082Y-145702416I75000J-129904D01*
G01*
X65497082Y-145702416D01*
G75*
G02*
X65442178Y-145907320I-129904J-75000D01*
G01*
G37*
G36*
G01*
X52771500Y-122116261D02*
X52771500Y-122116261D01*
G75*
G02*
X52563318Y-122060479I-76200J131982D01*
G01*
X51191718Y-119684799D01*
G75*
G02*
X51247500Y-119476617I131982J76200D01*
G01*
X51247500Y-119476617D01*
G75*
G02*
X51455682Y-119532399I76200J-131982D01*
G01*
X52827282Y-121908079D01*
G75*
G02*
X52771500Y-122116261I-131982J-76200D01*
G01*
G37*
G36*
G01*
X64709500Y-142793483D02*
X64709500Y-142793483D01*
G75*
G02*
X64501318Y-142737701I-76200J131982D01*
G01*
X63129718Y-140362021D01*
G75*
G02*
X63185500Y-140153839I131982J76200D01*
G01*
X63185500Y-140153839D01*
G75*
G02*
X63393682Y-140209621I76200J-131982D01*
G01*
X64765282Y-142585301D01*
G75*
G02*
X64709500Y-142793483I-131982J-76200D01*
G01*
G37*
G36*
G01*
X53317822Y-152907320D02*
X53317822Y-152907320D01*
G75*
G02*
X53112918Y-152852416I-75000J129904D01*
G01*
X36737918Y-124490084D01*
G75*
G02*
X36792822Y-124285180I129904J75000D01*
G01*
X36792822Y-124285180D01*
G75*
G02*
X36997726Y-124340084I75000J-129904D01*
G01*
X53372726Y-152702416D01*
G75*
G02*
X53317822Y-152907320I-129904J-75000D01*
G01*
G37*
G36*
G01*
X37592341Y-124169988D02*
X37592341Y-124169988D01*
G75*
G02*
X37387437Y-124115084I-75000J129904D01*
G01*
X36912437Y-123292360D01*
G75*
G02*
X36967341Y-123087456I129904J75000D01*
G01*
X36967341Y-123087456D01*
G75*
G02*
X37172245Y-123142360I75000J-129904D01*
G01*
X37647245Y-123965084D01*
G75*
G02*
X37592341Y-124169988I-129904J-75000D01*
G01*
G37*
G36*
G01*
X48417659Y-117919988D02*
X48417659Y-117919988D01*
G75*
G02*
X48212755Y-117865084I-75000J129904D01*
G01*
X47737755Y-117042360D01*
G75*
G02*
X47792659Y-116837456I129904J75000D01*
G01*
X47792659Y-116837456D01*
G75*
G02*
X47997563Y-116892360I75000J-129904D01*
G01*
X48472563Y-117715084D01*
G75*
G02*
X48417659Y-117919988I-129904J-75000D01*
G01*
G37*
G36*
G01*
X49067178Y-117544988D02*
X48417658Y-117919988D01*
G75*
G02*
X48212754Y-117865084I-75000J129904D01*
G01*
X48212754Y-117865084D01*
G75*
G02*
X48267658Y-117660180I129904J75000D01*
G01*
X48917178Y-117285180D01*
G75*
G02*
X49122082Y-117340084I75000J-129904D01*
G01*
X49122082Y-117340084D01*
G75*
G02*
X49067178Y-117544988I-129904J-75000D01*
G01*
G37*
G36*
G01*
X37592342Y-124169988D02*
X36942822Y-124544988D01*
G75*
G02*
X36737918Y-124490084I-75000J129904D01*
G01*
X36737918Y-124490084D01*
G75*
G02*
X36792822Y-124285180I129904J75000D01*
G01*
X37442342Y-123910180D01*
G75*
G02*
X37647246Y-123965084I75000J-129904D01*
G01*
X37647246Y-123965084D01*
G75*
G02*
X37592342Y-124169988I-129904J-75000D01*
G01*
G37*
G36*
G01*
X47942659Y-117097264D02*
X37117341Y-123347264D01*
G75*
G02*
X36912437Y-123292360I-75000J129904D01*
G01*
X36912437Y-123292360D01*
G75*
G02*
X36967341Y-123087456I129904J75000D01*
G01*
X47792659Y-116837456D01*
G75*
G02*
X47997563Y-116892360I75000J-129904D01*
G01*
X47997563Y-116892360D01*
G75*
G02*
X47942659Y-117097264I-129904J-75000D01*
G01*
G37*
G36*
G01*
X65442178Y-145907320D02*
X65442178Y-145907320D01*
G75*
G02*
X65237274Y-145852416I-75000J129904D01*
G01*
X48862274Y-117490084D01*
G75*
G02*
X48917178Y-117285180I129904J75000D01*
G01*
X48917178Y-117285180D01*
G75*
G02*
X49122082Y-117340084I75000J-129904D01*
G01*
X65497082Y-145702416D01*
G75*
G02*
X65442178Y-145907320I-129904J-75000D01*
G01*
G37*
G36*
G01*
X65267659Y-147105044D02*
X54442341Y-153355044D01*
G75*
G02*
X54237437Y-153300140I-75000J129904D01*
G01*
X54237437Y-153300140D01*
G75*
G02*
X54292341Y-153095236I129904J75000D01*
G01*
X65117659Y-146845236D01*
G75*
G02*
X65322563Y-146900140I75000J-129904D01*
G01*
X65322563Y-146900140D01*
G75*
G02*
X65267659Y-147105044I-129904J-75000D01*
G01*
G37*
G36*
G01*
X51399900Y-119740580D02*
X50608006Y-120197780D01*
G75*
G02*
X50399824Y-120141998I-76200J131982D01*
G01*
X50399824Y-120141998D01*
G75*
G02*
X50455606Y-119933816I131982J76200D01*
G01*
X51247500Y-119476616D01*
G75*
G02*
X51455682Y-119532398I76200J-131982D01*
G01*
X51455682Y-119532398D01*
G75*
G02*
X51399900Y-119740580I-131982J-76200D01*
G01*
G37*
G36*
G01*
X65267659Y-147105044D02*
X65267659Y-147105044D01*
G75*
G02*
X65062755Y-147050140I-75000J129904D01*
G01*
X64587755Y-146227416D01*
G75*
G02*
X64642659Y-146022512I129904J75000D01*
G01*
X64642659Y-146022512D01*
G75*
G02*
X64847563Y-146077416I75000J-129904D01*
G01*
X65322563Y-146900140D01*
G75*
G02*
X65267659Y-147105044I-129904J-75000D01*
G01*
G37*
G36*
G01*
X54442341Y-153355044D02*
X54442341Y-153355044D01*
G75*
G02*
X54237437Y-153300140I-75000J129904D01*
G01*
X53762437Y-152477416D01*
G75*
G02*
X53817341Y-152272512I129904J75000D01*
G01*
X53817341Y-152272512D01*
G75*
G02*
X54022245Y-152327416I75000J-129904D01*
G01*
X54497245Y-153150140D01*
G75*
G02*
X54442341Y-153355044I-129904J-75000D01*
G01*
G37*
G36*
G01*
X53967342Y-152532320D02*
X53317822Y-152907320D01*
G75*
G02*
X53112918Y-152852416I-75000J129904D01*
G01*
X53112918Y-152852416D01*
G75*
G02*
X53167822Y-152647512I129904J75000D01*
G01*
X53817342Y-152272512D01*
G75*
G02*
X54022246Y-152327416I75000J-129904D01*
G01*
X54022246Y-152327416D01*
G75*
G02*
X53967342Y-152532320I-129904J-75000D01*
G01*
G37*
%TD*%
%TO.C,MX44*%
X117506750Y-127937500D03*
X117506750Y-141937500D03*
D12*
X109706750Y-134937500D03*
X125306750Y-134937500D03*
D10*
X110656750Y-141562500D03*
D11*
X110181750Y-141187500D03*
X110181750Y-128687500D03*
D10*
X110656750Y-128312500D03*
X124356750Y-128312500D03*
D11*
X124831750Y-128687500D03*
X124831750Y-141187500D03*
D10*
X124356750Y-141562500D03*
%TD*%
D13*
%TO.C,MX43*%
X98456750Y-127937500D03*
X98456750Y-141937500D03*
D12*
X90656750Y-134937500D03*
X106256750Y-134937500D03*
D10*
X91606750Y-141562500D03*
D11*
X91131750Y-141187500D03*
X91131750Y-128687500D03*
D10*
X91606750Y-128312500D03*
X105306750Y-128312500D03*
D11*
X105781750Y-128687500D03*
X105781750Y-141187500D03*
D10*
X105306750Y-141562500D03*
%TD*%
D13*
%TO.C,MX42*%
X79406750Y-130318750D03*
X79406750Y-144318750D03*
D12*
X71606750Y-137318750D03*
X87206750Y-137318750D03*
D10*
X72556750Y-143943750D03*
D11*
X72081750Y-143568750D03*
X72081750Y-131068750D03*
D10*
X72556750Y-130693750D03*
X86256750Y-130693750D03*
D11*
X86731750Y-131068750D03*
X86731750Y-143568750D03*
D10*
X86256750Y-143943750D03*
%TD*%
D13*
%TO.C,MX36*%
X165925500Y-108887500D03*
X165925500Y-122887500D03*
D12*
X158125500Y-115887500D03*
X173725500Y-115887500D03*
D10*
X159075500Y-122512500D03*
D11*
X158600500Y-122137500D03*
X158600500Y-109637500D03*
D10*
X159075500Y-109262500D03*
X172775500Y-109262500D03*
D11*
X173250500Y-109637500D03*
X173250500Y-122137500D03*
D10*
X172775500Y-122512500D03*
%TD*%
D13*
%TO.C,MX35*%
X146875500Y-108887500D03*
X146875500Y-122887500D03*
D12*
X139075500Y-115887500D03*
X154675500Y-115887500D03*
D10*
X140025500Y-122512500D03*
D11*
X139550500Y-122137500D03*
X139550500Y-109637500D03*
D10*
X140025500Y-109262500D03*
X153725500Y-109262500D03*
D11*
X154200500Y-109637500D03*
X154200500Y-122137500D03*
D10*
X153725500Y-122512500D03*
%TD*%
D13*
%TO.C,MX34*%
X127825500Y-105712500D03*
X127825500Y-119712500D03*
D12*
X120025500Y-112712500D03*
X135625500Y-112712500D03*
D10*
X120975500Y-119337500D03*
D11*
X120500500Y-118962500D03*
X120500500Y-106462500D03*
D10*
X120975500Y-106087500D03*
X134675500Y-106087500D03*
D11*
X135150500Y-106462500D03*
X135150500Y-118962500D03*
D10*
X134675500Y-119337500D03*
%TD*%
D13*
%TO.C,MX33*%
X108775500Y-103331250D03*
X108775500Y-117331250D03*
D12*
X100975500Y-110331250D03*
X116575500Y-110331250D03*
D10*
X101925500Y-116956250D03*
D11*
X101450500Y-116581250D03*
X101450500Y-104081250D03*
D10*
X101925500Y-103706250D03*
X115625500Y-103706250D03*
D11*
X116100500Y-104081250D03*
X116100500Y-116581250D03*
D10*
X115625500Y-116956250D03*
%TD*%
D13*
%TO.C,MX32*%
X89725500Y-105712500D03*
X89725500Y-119712500D03*
D12*
X81925500Y-112712500D03*
X97525500Y-112712500D03*
D10*
X82875500Y-119337500D03*
D11*
X82400500Y-118962500D03*
X82400500Y-106462500D03*
D10*
X82875500Y-106087500D03*
X96575500Y-106087500D03*
D11*
X97050500Y-106462500D03*
X97050500Y-118962500D03*
D10*
X96575500Y-119337500D03*
%TD*%
D13*
%TO.C,MX31*%
X70675500Y-108093750D03*
X70675500Y-122093750D03*
D12*
X62875500Y-115093750D03*
X78475500Y-115093750D03*
D10*
X63825500Y-121718750D03*
D11*
X63350500Y-121343750D03*
X63350500Y-108843750D03*
D10*
X63825500Y-108468750D03*
X77525500Y-108468750D03*
D11*
X78000500Y-108843750D03*
X78000500Y-121343750D03*
D10*
X77525500Y-121718750D03*
%TD*%
D13*
%TO.C,MX26*%
X165925500Y-89837500D03*
X165925500Y-103837500D03*
D12*
X158125500Y-96837500D03*
X173725500Y-96837500D03*
D10*
X159075500Y-103462500D03*
D11*
X158600500Y-103087500D03*
X158600500Y-90587500D03*
D10*
X159075500Y-90212500D03*
X172775500Y-90212500D03*
D11*
X173250500Y-90587500D03*
X173250500Y-103087500D03*
D10*
X172775500Y-103462500D03*
%TD*%
D13*
%TO.C,MX25*%
X146875500Y-89837500D03*
X146875500Y-103837500D03*
D12*
X139075500Y-96837500D03*
X154675500Y-96837500D03*
D10*
X140025500Y-103462500D03*
D11*
X139550500Y-103087500D03*
X139550500Y-90587500D03*
D10*
X140025500Y-90212500D03*
X153725500Y-90212500D03*
D11*
X154200500Y-90587500D03*
X154200500Y-103087500D03*
D10*
X153725500Y-103462500D03*
%TD*%
D13*
%TO.C,MX24*%
X127825500Y-86662500D03*
X127825500Y-100662500D03*
D12*
X120025500Y-93662500D03*
X135625500Y-93662500D03*
D10*
X120975500Y-100287500D03*
D11*
X120500500Y-99912500D03*
X120500500Y-87412500D03*
D10*
X120975500Y-87037500D03*
X134675500Y-87037500D03*
D11*
X135150500Y-87412500D03*
X135150500Y-99912500D03*
D10*
X134675500Y-100287500D03*
%TD*%
D13*
%TO.C,MX23*%
X108775500Y-84281250D03*
X108775500Y-98281250D03*
D12*
X100975500Y-91281250D03*
X116575500Y-91281250D03*
D10*
X101925500Y-97906250D03*
D11*
X101450500Y-97531250D03*
X101450500Y-85031250D03*
D10*
X101925500Y-84656250D03*
X115625500Y-84656250D03*
D11*
X116100500Y-85031250D03*
X116100500Y-97531250D03*
D10*
X115625500Y-97906250D03*
%TD*%
D13*
%TO.C,MX22*%
X89725500Y-86662500D03*
X89725500Y-100662500D03*
D12*
X81925500Y-93662500D03*
X97525500Y-93662500D03*
D10*
X82875500Y-100287500D03*
D11*
X82400500Y-99912500D03*
X82400500Y-87412500D03*
D10*
X82875500Y-87037500D03*
X96575500Y-87037500D03*
D11*
X97050500Y-87412500D03*
X97050500Y-99912500D03*
D10*
X96575500Y-100287500D03*
%TD*%
D13*
%TO.C,MX21*%
X70675500Y-89043750D03*
X70675500Y-103043750D03*
D12*
X62875500Y-96043750D03*
X78475500Y-96043750D03*
D10*
X63825500Y-102668750D03*
D11*
X63350500Y-102293750D03*
X63350500Y-89793750D03*
D10*
X63825500Y-89418750D03*
X77525500Y-89418750D03*
D11*
X78000500Y-89793750D03*
X78000500Y-102293750D03*
D10*
X77525500Y-102668750D03*
%TD*%
D13*
%TO.C,MX16*%
X165925500Y-70787500D03*
X165925500Y-84787500D03*
D12*
X158125500Y-77787500D03*
X173725500Y-77787500D03*
D10*
X159075500Y-84412500D03*
D11*
X158600500Y-84037500D03*
X158600500Y-71537500D03*
D10*
X159075500Y-71162500D03*
X172775500Y-71162500D03*
D11*
X173250500Y-71537500D03*
X173250500Y-84037500D03*
D10*
X172775500Y-84412500D03*
%TD*%
D13*
%TO.C,MX15*%
X146875500Y-70787500D03*
X146875500Y-84787500D03*
D12*
X139075500Y-77787500D03*
X154675500Y-77787500D03*
D10*
X140025500Y-84412500D03*
D11*
X139550500Y-84037500D03*
X139550500Y-71537500D03*
D10*
X140025500Y-71162500D03*
X153725500Y-71162500D03*
D11*
X154200500Y-71537500D03*
X154200500Y-84037500D03*
D10*
X153725500Y-84412500D03*
%TD*%
D13*
%TO.C,MX14*%
X127825500Y-67612500D03*
X127825500Y-81612500D03*
D12*
X120025500Y-74612500D03*
X135625500Y-74612500D03*
D10*
X120975500Y-81237500D03*
D11*
X120500500Y-80862500D03*
X120500500Y-68362500D03*
D10*
X120975500Y-67987500D03*
X134675500Y-67987500D03*
D11*
X135150500Y-68362500D03*
X135150500Y-80862500D03*
D10*
X134675500Y-81237500D03*
%TD*%
D13*
%TO.C,MX13*%
X108775500Y-65231250D03*
X108775500Y-79231250D03*
D12*
X100975500Y-72231250D03*
X116575500Y-72231250D03*
D10*
X101925500Y-78856250D03*
D11*
X101450500Y-78481250D03*
X101450500Y-65981250D03*
D10*
X101925500Y-65606250D03*
X115625500Y-65606250D03*
D11*
X116100500Y-65981250D03*
X116100500Y-78481250D03*
D10*
X115625500Y-78856250D03*
%TD*%
D13*
%TO.C,MX12*%
X89725500Y-67612500D03*
X89725500Y-81612500D03*
D12*
X81925500Y-74612500D03*
X97525500Y-74612500D03*
D10*
X82875500Y-81237500D03*
D11*
X82400500Y-80862500D03*
X82400500Y-68362500D03*
D10*
X82875500Y-67987500D03*
X96575500Y-67987500D03*
D11*
X97050500Y-68362500D03*
X97050500Y-80862500D03*
D10*
X96575500Y-81237500D03*
%TD*%
D13*
%TO.C,MX11*%
X70675500Y-69993750D03*
X70675500Y-83993750D03*
D12*
X62875500Y-76993750D03*
X78475500Y-76993750D03*
D10*
X63825500Y-83618750D03*
D11*
X63350500Y-83243750D03*
X63350500Y-70743750D03*
D10*
X63825500Y-70368750D03*
X77525500Y-70368750D03*
D11*
X78000500Y-70743750D03*
X78000500Y-83243750D03*
D10*
X77525500Y-83618750D03*
%TD*%
D13*
%TO.C,MX6*%
X165925500Y-51737500D03*
X165925500Y-65737500D03*
D12*
X158125500Y-58737500D03*
X173725500Y-58737500D03*
D10*
X159075500Y-65362500D03*
D11*
X158600500Y-64987500D03*
X158600500Y-52487500D03*
D10*
X159075500Y-52112500D03*
X172775500Y-52112500D03*
D11*
X173250500Y-52487500D03*
X173250500Y-64987500D03*
D10*
X172775500Y-65362500D03*
%TD*%
D13*
%TO.C,MX5*%
X146875500Y-51737500D03*
X146875500Y-65737500D03*
D12*
X139075500Y-58737500D03*
X154675500Y-58737500D03*
D10*
X140025500Y-65362500D03*
D11*
X139550500Y-64987500D03*
X139550500Y-52487500D03*
D10*
X140025500Y-52112500D03*
X153725500Y-52112500D03*
D11*
X154200500Y-52487500D03*
X154200500Y-64987500D03*
D10*
X153725500Y-65362500D03*
%TD*%
D13*
%TO.C,MX4*%
X127825500Y-48562500D03*
X127825500Y-62562500D03*
D12*
X120025500Y-55562500D03*
X135625500Y-55562500D03*
D10*
X120975500Y-62187500D03*
D11*
X120500500Y-61812500D03*
X120500500Y-49312500D03*
D10*
X120975500Y-48937500D03*
X134675500Y-48937500D03*
D11*
X135150500Y-49312500D03*
X135150500Y-61812500D03*
D10*
X134675500Y-62187500D03*
%TD*%
D13*
%TO.C,MX3*%
X108775500Y-46181250D03*
X108775500Y-60181250D03*
D12*
X100975500Y-53181250D03*
X116575500Y-53181250D03*
D10*
X101925500Y-59806250D03*
D11*
X101450500Y-59431250D03*
X101450500Y-46931250D03*
D10*
X101925500Y-46556250D03*
X115625500Y-46556250D03*
D11*
X116100500Y-46931250D03*
X116100500Y-59431250D03*
D10*
X115625500Y-59806250D03*
%TD*%
D13*
%TO.C,MX2*%
X89725500Y-48562500D03*
X89725500Y-62562500D03*
D12*
X81925500Y-55562500D03*
X97525500Y-55562500D03*
D10*
X82875500Y-62187500D03*
D11*
X82400500Y-61812500D03*
X82400500Y-49312500D03*
D10*
X82875500Y-48937500D03*
X96575500Y-48937500D03*
D11*
X97050500Y-49312500D03*
X97050500Y-61812500D03*
D10*
X96575500Y-62187500D03*
%TD*%
D13*
%TO.C,MX1*%
X70675500Y-50943750D03*
X70675500Y-64943750D03*
D12*
X62875500Y-57943750D03*
X78475500Y-57943750D03*
D10*
X63825500Y-64568750D03*
D11*
X63350500Y-64193750D03*
X63350500Y-51693750D03*
D10*
X63825500Y-51318750D03*
X77525500Y-51318750D03*
D11*
X78000500Y-51693750D03*
X78000500Y-64193750D03*
D10*
X77525500Y-64568750D03*
%TD*%
D14*
%TO.C,H7*%
X65119250Y-133350000D03*
%TD*%
%TO.C,H6*%
X80200500Y-105568750D03*
%TD*%
%TO.C,H5*%
X156400500Y-106362500D03*
%TD*%
%TO.C,H3*%
X80200500Y-67468750D03*
%TD*%
%TO.C,H2*%
X156400500Y-68262500D03*
%TD*%
M02*
