%TF.GenerationSoftware,KiCad,Pcbnew,(5.1.9-0-10_14)*%
%TF.CreationDate,2021-04-19T01:21:19-05:00*%
%TF.ProjectId,wren-right-top,7772656e-2d72-4696-9768-742d746f702e,rev?*%
%TF.SameCoordinates,Original*%
%TF.FileFunction,Profile,NP*%
%FSLAX46Y46*%
G04 Gerber Fmt 4.6, Leading zero omitted, Abs format (unit mm)*
G04 Created by KiCad (PCBNEW (5.1.9-0-10_14)) date 2021-04-19 01:21:19*
%MOMM*%
%LPD*%
G01*
G04 APERTURE LIST*
%TA.AperFunction,Profile*%
%ADD10C,0.050000*%
%TD*%
G04 APERTURE END LIST*
D10*
X175424000Y-51593750D02*
X175424888Y-123031251D01*
X173043500Y-49213250D02*
X138144250Y-49212500D01*
X173043500Y-49213250D02*
G75*
G02*
X175424000Y-51593750I0J-2380500D01*
G01*
X175424888Y-123031251D02*
G75*
G02*
X173069249Y-125412499I-2381388J1D01*
G01*
X61139048Y-106371347D02*
X61162500Y-50800000D01*
X33210500Y-123158250D02*
X52387500Y-156432250D01*
X33210500Y-123158250D02*
X60261500Y-107791250D01*
X79406750Y-48418750D02*
X63543000Y-48419500D01*
X63543000Y-48419500D02*
G75*
G03*
X61162500Y-50800000I0J-2380500D01*
G01*
X69088000Y-146843750D02*
X52387500Y-156432250D01*
X147669250Y-125412500D02*
X173069250Y-125412500D01*
X147669250Y-125412500D02*
G75*
G03*
X146081750Y-127000000I0J-1587500D01*
G01*
X146081750Y-143668750D02*
X146081750Y-127000000D01*
X145288000Y-144462500D02*
X126238000Y-144462500D01*
X118300500Y-44450000D02*
X118300500Y-45243750D01*
X88138000Y-146843750D02*
X69088000Y-146843750D01*
X88931750Y-145256250D02*
X88931750Y-146050000D01*
X88138000Y-146843750D02*
G75*
G03*
X88931750Y-146050000I0J793750D01*
G01*
X89725500Y-144462500D02*
G75*
G03*
X88931750Y-145256250I0J-793750D01*
G01*
X126238000Y-144462500D02*
X89725500Y-144462500D01*
X145288000Y-144462500D02*
G75*
G03*
X146081750Y-143668750I0J793750D01*
G01*
X60261500Y-107791250D02*
G75*
G03*
X61139048Y-106371347I-709952J1419903D01*
G01*
X80200500Y-46831250D02*
X80200500Y-47625000D01*
X98456750Y-46037500D02*
X80994250Y-46037500D01*
X99250500Y-44450000D02*
X99250500Y-45243750D01*
X117506750Y-43656250D02*
X100044250Y-43656250D01*
X136556750Y-46037500D02*
X119094250Y-46037500D01*
X137350500Y-48418750D02*
X137350500Y-46831250D01*
X79406750Y-48418750D02*
G75*
G03*
X80200500Y-47625000I0J793750D01*
G01*
X80994250Y-46037500D02*
G75*
G03*
X80200500Y-46831250I0J-793750D01*
G01*
X98456750Y-46037500D02*
G75*
G03*
X99250500Y-45243750I0J793750D01*
G01*
X100044250Y-43656250D02*
G75*
G03*
X99250500Y-44450000I0J-793750D01*
G01*
X137350500Y-46831250D02*
G75*
G03*
X136556750Y-46037500I-793750J0D01*
G01*
X137350500Y-48418750D02*
G75*
G03*
X138144250Y-49212500I793750J0D01*
G01*
X118300500Y-44450000D02*
G75*
G03*
X117506750Y-43656250I-793750J0D01*
G01*
X118300500Y-45243750D02*
G75*
G03*
X119094250Y-46037500I793750J0D01*
G01*
M02*
