%TF.GenerationSoftware,KiCad,Pcbnew,(5.1.9-0-10_14)*%
%TF.CreationDate,2021-04-19T01:19:29-05:00*%
%TF.ProjectId,wren-left-bottom,7772656e-2d6c-4656-9674-2d626f74746f,rev?*%
%TF.SameCoordinates,Original*%
%TF.FileFunction,Legend,Bot*%
%TF.FilePolarity,Positive*%
%FSLAX46Y46*%
G04 Gerber Fmt 4.6, Leading zero omitted, Abs format (unit mm)*
G04 Created by KiCad (PCBNEW (5.1.9-0-10_14)) date 2021-04-19 01:19:29*
%MOMM*%
%LPD*%
G01*
G04 APERTURE LIST*
%ADD10C,0.150000*%
G04 APERTURE END LIST*
%TO.C,H7*%
D10*
X226980654Y-108402380D02*
X226980654Y-107402380D01*
X226980654Y-107878571D02*
X226409226Y-107878571D01*
X226409226Y-108402380D02*
X226409226Y-107402380D01*
X226028273Y-107402380D02*
X225361607Y-107402380D01*
X225790178Y-108402380D01*
%TO.C,H6*%
X211893404Y-80621130D02*
X211893404Y-79621130D01*
X211893404Y-80097321D02*
X211321976Y-80097321D01*
X211321976Y-80621130D02*
X211321976Y-79621130D01*
X210417214Y-79621130D02*
X210607690Y-79621130D01*
X210702928Y-79668750D01*
X210750547Y-79716369D01*
X210845785Y-79859226D01*
X210893404Y-80049702D01*
X210893404Y-80430654D01*
X210845785Y-80525892D01*
X210798166Y-80573511D01*
X210702928Y-80621130D01*
X210512452Y-80621130D01*
X210417214Y-80573511D01*
X210369595Y-80525892D01*
X210321976Y-80430654D01*
X210321976Y-80192559D01*
X210369595Y-80097321D01*
X210417214Y-80049702D01*
X210512452Y-80002083D01*
X210702928Y-80002083D01*
X210798166Y-80049702D01*
X210845785Y-80097321D01*
X210893404Y-80192559D01*
%TO.C,H5*%
X135699404Y-81414880D02*
X135699404Y-80414880D01*
X135699404Y-80891071D02*
X135127976Y-80891071D01*
X135127976Y-81414880D02*
X135127976Y-80414880D01*
X134175595Y-80414880D02*
X134651785Y-80414880D01*
X134699404Y-80891071D01*
X134651785Y-80843452D01*
X134556547Y-80795833D01*
X134318452Y-80795833D01*
X134223214Y-80843452D01*
X134175595Y-80891071D01*
X134127976Y-80986309D01*
X134127976Y-81224404D01*
X134175595Y-81319642D01*
X134223214Y-81367261D01*
X134318452Y-81414880D01*
X134556547Y-81414880D01*
X134651785Y-81367261D01*
X134699404Y-81319642D01*
%TO.C,H4*%
X57118154Y-81414880D02*
X57118154Y-80414880D01*
X57118154Y-80891071D02*
X56546726Y-80891071D01*
X56546726Y-81414880D02*
X56546726Y-80414880D01*
X55641964Y-80748214D02*
X55641964Y-81414880D01*
X55880059Y-80367261D02*
X56118154Y-81081547D01*
X55499107Y-81081547D01*
%TO.C,H3*%
X211899404Y-42521130D02*
X211899404Y-41521130D01*
X211899404Y-41997321D02*
X211327976Y-41997321D01*
X211327976Y-42521130D02*
X211327976Y-41521130D01*
X210947023Y-41521130D02*
X210327976Y-41521130D01*
X210661309Y-41902083D01*
X210518452Y-41902083D01*
X210423214Y-41949702D01*
X210375595Y-41997321D01*
X210327976Y-42092559D01*
X210327976Y-42330654D01*
X210375595Y-42425892D01*
X210423214Y-42473511D01*
X210518452Y-42521130D01*
X210804166Y-42521130D01*
X210899404Y-42473511D01*
X210947023Y-42425892D01*
%TO.C,H2*%
X135699404Y-43314880D02*
X135699404Y-42314880D01*
X135699404Y-42791071D02*
X135127976Y-42791071D01*
X135127976Y-43314880D02*
X135127976Y-42314880D01*
X134699404Y-42410119D02*
X134651785Y-42362500D01*
X134556547Y-42314880D01*
X134318452Y-42314880D01*
X134223214Y-42362500D01*
X134175595Y-42410119D01*
X134127976Y-42505357D01*
X134127976Y-42600595D01*
X134175595Y-42743452D01*
X134747023Y-43314880D01*
X134127976Y-43314880D01*
%TO.C,H1*%
X57075404Y-43314880D02*
X57075404Y-42314880D01*
X57075404Y-42791071D02*
X56503976Y-42791071D01*
X56503976Y-43314880D02*
X56503976Y-42314880D01*
X55503976Y-43314880D02*
X56075404Y-43314880D01*
X55789690Y-43314880D02*
X55789690Y-42314880D01*
X55884928Y-42457738D01*
X55980166Y-42552976D01*
X56075404Y-42600595D01*
%TD*%
M02*
