M48
; DRILL file {KiCad (5.1.9-0-10_14)} date Sunday, April 25, 2021 at 06:46:30 PM
; FORMAT={-:-/ absolute / inch / decimal}
; #@! TF.CreationDate,2021-04-25T18:46:30-05:00
; #@! TF.GenerationSoftware,Kicad,Pcbnew,(5.1.9-0-10_14)
; #@! TF.FileFunction,NonPlated,1,2,NPTH
FMAT,2
INCH
T1C0.0120
T2C0.0200
T3C0.0500
T4C0.0866
%
G90
G05
T4
X5.3125Y-1.8125
X5.3125Y-3.3125
X8.3123Y-3.1562
X8.3125Y-1.6562
X8.906Y-4.1875
T1
G00X8.9439Y-4.6465
M15
G01X8.9041Y-4.6235
M16
G05
G00X8.9555Y-4.5285
M15
G01X8.9015Y-4.622
M16
G05
G00X9.036Y-4.493
M15
G01X8.911Y-4.7095
M16
G05
G00X8.9979Y-4.553
M15
G01X8.9581Y-4.53
M16
G05
G00X9.1189Y-4.8295
M15
G01X9.1019Y-4.859
M16
G05
G00X9.3198Y-4.9455
M15
G01X8.911Y-4.7095
M16
G05
G00X9.1868Y-4.908
M15
G01X9.1019Y-4.859
M16
G05
G00X9.2038Y-4.8785
M15
G01X9.1868Y-4.908
M16
G05
G00X9.4448Y-4.729
M15
G01X9.036Y-4.493
M16
G05
G00X9.4448Y-4.729
M15
G01X9.3198Y-4.9455
M16
G05
G00X9.4139Y-3.8325
M15
G01X9.3741Y-3.8095
M16
G05
G00X9.4255Y-3.7145
M15
G01X9.3715Y-3.808
M16
G05
G00X9.506Y-3.679
M15
G01X9.381Y-3.8955
M16
G05
G00X9.4679Y-3.739
M15
G01X9.4281Y-3.716
M16
G05
G00X9.7898Y-4.1315
M15
G01X9.381Y-3.8955
M16
G05
G00X9.9148Y-3.915
M15
G01X9.506Y-3.679
M16
G05
G00X9.7309Y-3.7695
M15
G01X9.7139Y-3.799
M16
G05
G00X9.8158Y-3.8185
M15
G01X9.7309Y-3.7695
M16
G05
G00X9.8158Y-3.8185
M15
G01X9.7988Y-3.848
M16
G05
G00X9.9148Y-3.915
M15
G01X9.7898Y-4.1315
M16
G05
T2
G00X4.64Y-1.1725
M15
G01X4.64Y-1.3325
M16
G05
G00X4.64Y-1.5425
M15
G01X4.64Y-1.7025
M16
G05
G00X4.64Y-1.9225
M15
G01X4.64Y-2.0825
M16
G05
G00X4.64Y-2.2925
M15
G01X4.64Y-2.4525
M16
G05
G00X4.64Y-2.6725
M15
G01X4.64Y-2.8325
M16
G05
G00X4.64Y-3.0425
M15
G01X4.64Y-3.2025
M16
G05
G00X4.64Y-3.4225
M15
G01X4.64Y-3.5825
M16
G05
G00X4.64Y-3.7925
M15
G01X4.64Y-3.9525
M16
G05
G00X4.64Y-1.3325
M15
G01X4.6725Y-1.3325
M16
G05
G00X4.64Y-1.5425
M15
G01X4.6725Y-1.5425
M16
G05
G00X4.64Y-2.0825
M15
G01X4.6725Y-2.0825
M16
G05
G00X4.64Y-2.2925
M15
G01X4.6725Y-2.2925
M16
G05
G00X4.64Y-2.8325
M15
G01X4.6725Y-2.8325
M16
G05
G00X4.64Y-3.0425
M15
G01X4.6725Y-3.0425
M16
G05
G00X4.64Y-3.5825
M15
G01X4.6725Y-3.5825
M16
G05
G00X4.64Y-3.7925
M15
G01X4.6725Y-3.7925
M16
G05
G00X4.6725Y-1.3325
M15
G01X4.6725Y-1.5425
M16
G05
G00X4.6725Y-2.0825
M15
G01X4.6725Y-2.2925
M16
G05
G00X4.6725Y-2.8325
M15
G01X4.6725Y-3.0425
M16
G05
G00X4.6725Y-3.5825
M15
G01X4.6725Y-3.7925
M16
G05
G00X4.6405Y-1.1725
M15
G01X5.2345Y-1.1725
M16
G05
G00X4.6405Y-1.7025
M15
G01X5.2345Y-1.7025
M16
G05
G00X4.6405Y-1.9225
M15
G01X5.2345Y-1.9225
M16
G05
G00X4.6405Y-2.4525
M15
G01X5.2345Y-2.4525
M16
G05
G00X4.6405Y-2.6725
M15
G01X5.2345Y-2.6725
M16
G05
G00X4.6405Y-3.2025
M15
G01X5.2345Y-3.2025
M16
G05
G00X4.6405Y-3.4225
M15
G01X5.2345Y-3.4225
M16
G05
G00X4.6405Y-3.9525
M15
G01X5.2345Y-3.9525
M16
G05
G00X5.2025Y-1.3325
M15
G01X5.2025Y-1.5425
M16
G05
G00X5.2025Y-2.0825
M15
G01X5.2025Y-2.2925
M16
G05
G00X5.2025Y-2.8325
M15
G01X5.2025Y-3.0425
M16
G05
G00X5.2025Y-3.5825
M15
G01X5.2025Y-3.7925
M16
G05
G00X5.2025Y-1.3325
M15
G01X5.235Y-1.3325
M16
G05
G00X5.2025Y-1.5425
M15
G01X5.235Y-1.5425
M16
G05
G00X5.2025Y-2.0825
M15
G01X5.235Y-2.0825
M16
G05
G00X5.2025Y-2.2925
M15
G01X5.235Y-2.2925
M16
G05
G00X5.2025Y-2.8325
M15
G01X5.235Y-2.8325
M16
G05
G00X5.2025Y-3.0425
M15
G01X5.235Y-3.0425
M16
G05
G00X5.2025Y-3.5825
M15
G01X5.235Y-3.5825
M16
G05
G00X5.2025Y-3.7925
M15
G01X5.235Y-3.7925
M16
G05
G00X5.235Y-1.1725
M15
G01X5.235Y-1.3325
M16
G05
G00X5.235Y-1.5425
M15
G01X5.235Y-1.7025
M16
G05
G00X5.235Y-1.9225
M15
G01X5.235Y-2.0825
M16
G05
G00X5.235Y-2.2925
M15
G01X5.235Y-2.4525
M16
G05
G00X5.235Y-2.6725
M15
G01X5.235Y-2.8325
M16
G05
G00X5.235Y-3.0425
M15
G01X5.235Y-3.2025
M16
G05
G00X5.235Y-3.4225
M15
G01X5.235Y-3.5825
M16
G05
G00X5.235Y-3.7925
M15
G01X5.235Y-3.9525
M16
G05
G00X5.39Y-1.1725
M15
G01X5.39Y-1.3325
M16
G05
G00X5.39Y-1.5425
M15
G01X5.39Y-1.7025
M16
G05
G00X5.39Y-1.9225
M15
G01X5.39Y-2.0825
M16
G05
G00X5.39Y-2.2925
M15
G01X5.39Y-2.4525
M16
G05
G00X5.39Y-2.6725
M15
G01X5.39Y-2.8325
M16
G05
G00X5.39Y-3.0425
M15
G01X5.39Y-3.2025
M16
G05
G00X5.39Y-3.4225
M15
G01X5.39Y-3.5825
M16
G05
G00X5.39Y-3.7925
M15
G01X5.39Y-3.9525
M16
G05
G00X5.39Y-1.3325
M15
G01X5.4225Y-1.3325
M16
G05
G00X5.39Y-1.5425
M15
G01X5.4225Y-1.5425
M16
G05
G00X5.39Y-2.0825
M15
G01X5.4225Y-2.0825
M16
G05
G00X5.39Y-2.2925
M15
G01X5.4225Y-2.2925
M16
G05
G00X5.39Y-2.8325
M15
G01X5.4225Y-2.8325
M16
G05
G00X5.39Y-3.0425
M15
G01X5.4225Y-3.0425
M16
G05
G00X5.39Y-3.5825
M15
G01X5.4225Y-3.5825
M16
G05
G00X5.39Y-3.7925
M15
G01X5.4225Y-3.7925
M16
G05
G00X5.4225Y-1.3325
M15
G01X5.4225Y-1.5425
M16
G05
G00X5.4225Y-2.0825
M15
G01X5.4225Y-2.2925
M16
G05
G00X5.4225Y-2.8325
M15
G01X5.4225Y-3.0425
M16
G05
G00X5.4225Y-3.5825
M15
G01X5.4225Y-3.7925
M16
G05
G00X5.3905Y-1.1725
M15
G01X5.9845Y-1.1725
M16
G05
G00X5.3905Y-1.7025
M15
G01X5.9845Y-1.7025
M16
G05
G00X5.3905Y-1.9225
M15
G01X5.9845Y-1.9225
M16
G05
G00X5.3905Y-2.4525
M15
G01X5.9845Y-2.4525
M16
G05
G00X5.3905Y-2.6725
M15
G01X5.9845Y-2.6725
M16
G05
G00X5.3905Y-3.2025
M15
G01X5.9845Y-3.2025
M16
G05
G00X5.3905Y-3.4225
M15
G01X5.9845Y-3.4225
M16
G05
G00X5.3905Y-3.9525
M15
G01X5.9845Y-3.9525
M16
G05
G00X5.9525Y-1.3325
M15
G01X5.9525Y-1.5425
M16
G05
G00X5.9525Y-2.0825
M15
G01X5.9525Y-2.2925
M16
G05
G00X5.9525Y-2.8325
M15
G01X5.9525Y-3.0425
M16
G05
G00X5.9525Y-3.5825
M15
G01X5.9525Y-3.7925
M16
G05
G00X5.9525Y-1.3325
M15
G01X5.985Y-1.3325
M16
G05
G00X5.9525Y-1.5425
M15
G01X5.985Y-1.5425
M16
G05
G00X5.9525Y-2.0825
M15
G01X5.985Y-2.0825
M16
G05
G00X5.9525Y-2.2925
M15
G01X5.985Y-2.2925
M16
G05
G00X5.9525Y-2.8325
M15
G01X5.985Y-2.8325
M16
G05
G00X5.9525Y-3.0425
M15
G01X5.985Y-3.0425
M16
G05
G00X5.9525Y-3.5825
M15
G01X5.985Y-3.5825
M16
G05
G00X5.9525Y-3.7925
M15
G01X5.985Y-3.7925
M16
G05
G00X5.985Y-1.1725
M15
G01X5.985Y-1.3325
M16
G05
G00X5.985Y-1.5425
M15
G01X5.985Y-1.7025
M16
G05
G00X5.985Y-1.9225
M15
G01X5.985Y-2.0825
M16
G05
G00X5.985Y-2.2925
M15
G01X5.985Y-2.4525
M16
G05
G00X5.985Y-2.6725
M15
G01X5.985Y-2.8325
M16
G05
G00X5.985Y-3.0425
M15
G01X5.985Y-3.2025
M16
G05
G00X5.985Y-3.4225
M15
G01X5.985Y-3.5825
M16
G05
G00X5.985Y-3.7925
M15
G01X5.985Y-3.9525
M16
G05
G00X6.14Y-0.9225
M15
G01X6.14Y-1.0825
M16
G05
G00X6.14Y-1.2925
M15
G01X6.14Y-1.4525
M16
G05
G00X6.14Y-1.6725
M15
G01X6.14Y-1.8325
M16
G05
G00X6.14Y-2.0425
M15
G01X6.14Y-2.2025
M16
G05
G00X6.14Y-2.4225
M15
G01X6.14Y-2.5825
M16
G05
G00X6.14Y-2.7925
M15
G01X6.14Y-2.9525
M16
G05
G00X6.14Y-3.1725
M15
G01X6.14Y-3.3325
M16
G05
G00X6.14Y-3.5425
M15
G01X6.14Y-3.7025
M16
G05
G00X6.14Y-1.0825
M15
G01X6.1725Y-1.0825
M16
G05
G00X6.14Y-1.2925
M15
G01X6.1725Y-1.2925
M16
G05
G00X6.14Y-1.8325
M15
G01X6.1725Y-1.8325
M16
G05
G00X6.14Y-2.0425
M15
G01X6.1725Y-2.0425
M16
G05
G00X6.14Y-2.5825
M15
G01X6.1725Y-2.5825
M16
G05
G00X6.14Y-2.7925
M15
G01X6.1725Y-2.7925
M16
G05
G00X6.14Y-3.3325
M15
G01X6.1725Y-3.3325
M16
G05
G00X6.14Y-3.5425
M15
G01X6.1725Y-3.5425
M16
G05
G00X6.1725Y-1.0825
M15
G01X6.1725Y-1.2925
M16
G05
G00X6.1725Y-1.8325
M15
G01X6.1725Y-2.0425
M16
G05
G00X6.1725Y-2.5825
M15
G01X6.1725Y-2.7925
M16
G05
G00X6.1725Y-3.3325
M15
G01X6.1725Y-3.5425
M16
G05
G00X6.1405Y-0.9225
M15
G01X6.7345Y-0.9225
M16
G05
G00X6.1405Y-1.4525
M15
G01X6.7345Y-1.4525
M16
G05
G00X6.1405Y-1.6725
M15
G01X6.7345Y-1.6725
M16
G05
G00X6.1405Y-2.2025
M15
G01X6.7345Y-2.2025
M16
G05
G00X6.1405Y-2.4225
M15
G01X6.7345Y-2.4225
M16
G05
G00X6.1405Y-2.9525
M15
G01X6.7345Y-2.9525
M16
G05
G00X6.1405Y-3.1725
M15
G01X6.7345Y-3.1725
M16
G05
G00X6.1405Y-3.7025
M15
G01X6.7345Y-3.7025
M16
G05
G00X6.546Y-4.0362
M15
G01X6.546Y-4.1963
M16
G05
G00X6.546Y-4.4062
M15
G01X6.546Y-4.5663
M16
G05
G00X6.546Y-4.1963
M15
G01X6.5785Y-4.1963
M16
G05
G00X6.546Y-4.4062
M15
G01X6.5785Y-4.4062
M16
G05
G00X6.5785Y-4.1963
M15
G01X6.5785Y-4.4062
M16
G05
G00X6.7025Y-1.0825
M15
G01X6.7025Y-1.2925
M16
G05
G00X6.7025Y-1.8325
M15
G01X6.7025Y-2.0425
M16
G05
G00X6.7025Y-2.5825
M15
G01X6.7025Y-2.7925
M16
G05
G00X6.7025Y-3.3325
M15
G01X6.7025Y-3.5425
M16
G05
G00X6.7025Y-1.0825
M15
G01X6.735Y-1.0825
M16
G05
G00X6.7025Y-1.2925
M15
G01X6.735Y-1.2925
M16
G05
G00X6.7025Y-1.8325
M15
G01X6.735Y-1.8325
M16
G05
G00X6.7025Y-2.0425
M15
G01X6.735Y-2.0425
M16
G05
G00X6.7025Y-2.5825
M15
G01X6.735Y-2.5825
M16
G05
G00X6.7025Y-2.7925
M15
G01X6.735Y-2.7925
M16
G05
G00X6.7025Y-3.3325
M15
G01X6.735Y-3.3325
M16
G05
G00X6.7025Y-3.5425
M15
G01X6.735Y-3.5425
M16
G05
G00X6.735Y-0.9225
M15
G01X6.735Y-1.0825
M16
G05
G00X6.735Y-1.2925
M15
G01X6.735Y-1.4525
M16
G05
G00X6.735Y-1.6725
M15
G01X6.735Y-1.8325
M16
G05
G00X6.735Y-2.0425
M15
G01X6.735Y-2.2025
M16
G05
G00X6.735Y-2.4225
M15
G01X6.735Y-2.5825
M16
G05
G00X6.735Y-2.7925
M15
G01X6.735Y-2.9525
M16
G05
G00X6.735Y-3.1725
M15
G01X6.735Y-3.3325
M16
G05
G00X6.735Y-3.5425
M15
G01X6.735Y-3.7025
M16
G05
G00X6.5465Y-4.0362
M15
G01X7.1405Y-4.0362
M16
G05
G00X6.5465Y-4.5663
M15
G01X7.1405Y-4.5663
M16
G05
G00X6.89Y-0.8287
M15
G01X6.89Y-0.9888
M16
G05
G00X6.89Y-1.1987
M15
G01X6.89Y-1.3587
M16
G05
G00X6.89Y-1.5787
M15
G01X6.89Y-1.7388
M16
G05
G00X6.89Y-1.9487
M15
G01X6.89Y-2.1088
M16
G05
G00X6.89Y-2.3287
M15
G01X6.89Y-2.4888
M16
G05
G00X6.89Y-2.6987
M15
G01X6.89Y-2.8588
M16
G05
G00X6.89Y-3.0787
M15
G01X6.89Y-3.2388
M16
G05
G00X6.89Y-3.4487
M15
G01X6.89Y-3.6088
M16
G05
G00X6.89Y-0.9888
M15
G01X6.9225Y-0.9888
M16
G05
G00X6.89Y-1.1987
M15
G01X6.9225Y-1.1987
M16
G05
G00X6.89Y-1.7388
M15
G01X6.9225Y-1.7388
M16
G05
G00X6.89Y-1.9487
M15
G01X6.9225Y-1.9487
M16
G05
G00X6.89Y-2.4888
M15
G01X6.9225Y-2.4888
M16
G05
G00X6.89Y-2.6987
M15
G01X6.9225Y-2.6987
M16
G05
G00X6.89Y-3.2388
M15
G01X6.9225Y-3.2388
M16
G05
G00X6.89Y-3.4487
M15
G01X6.9225Y-3.4487
M16
G05
G00X6.9225Y-0.9888
M15
G01X6.9225Y-1.1987
M16
G05
G00X6.9225Y-1.7388
M15
G01X6.9225Y-1.9487
M16
G05
G00X6.9225Y-2.4888
M15
G01X6.9225Y-2.6987
M16
G05
G00X6.9225Y-3.2388
M15
G01X6.9225Y-3.4487
M16
G05
G00X7.1085Y-4.1963
M15
G01X7.1085Y-4.4062
M16
G05
G00X7.1085Y-4.1963
M15
G01X7.141Y-4.1963
M16
G05
G00X7.1085Y-4.4062
M15
G01X7.141Y-4.4062
M16
G05
G00X7.141Y-4.0362
M15
G01X7.141Y-4.1963
M16
G05
G00X7.141Y-4.4062
M15
G01X7.141Y-4.5663
M16
G05
G00X6.8905Y-0.8287
M15
G01X7.4845Y-0.8287
M16
G05
G00X6.8905Y-1.3587
M15
G01X7.4845Y-1.3587
M16
G05
G00X6.8905Y-1.5787
M15
G01X7.4845Y-1.5787
M16
G05
G00X6.8905Y-2.1088
M15
G01X7.4845Y-2.1088
M16
G05
G00X6.8905Y-2.3287
M15
G01X7.4845Y-2.3287
M16
G05
G00X6.8905Y-2.8588
M15
G01X7.4845Y-2.8588
M16
G05
G00X6.8905Y-3.0787
M15
G01X7.4845Y-3.0787
M16
G05
G00X6.8905Y-3.6088
M15
G01X7.4845Y-3.6088
M16
G05
G00X7.296Y-4.0362
M15
G01X7.296Y-4.1963
M16
G05
G00X7.296Y-4.4062
M15
G01X7.296Y-4.5663
M16
G05
G00X7.296Y-4.1963
M15
G01X7.3285Y-4.1963
M16
G05
G00X7.296Y-4.4062
M15
G01X7.3285Y-4.4062
M16
G05
G00X7.3285Y-4.1963
M15
G01X7.3285Y-4.4062
M16
G05
G00X7.4525Y-0.9888
M15
G01X7.4525Y-1.1987
M16
G05
G00X7.4525Y-1.7388
M15
G01X7.4525Y-1.9487
M16
G05
G00X7.4525Y-2.4888
M15
G01X7.4525Y-2.6987
M16
G05
G00X7.4525Y-3.2388
M15
G01X7.4525Y-3.4487
M16
G05
G00X7.4525Y-0.9888
M15
G01X7.485Y-0.9888
M16
G05
G00X7.4525Y-1.1987
M15
G01X7.485Y-1.1987
M16
G05
G00X7.4525Y-1.7388
M15
G01X7.485Y-1.7388
M16
G05
G00X7.4525Y-1.9487
M15
G01X7.485Y-1.9487
M16
G05
G00X7.4525Y-2.4888
M15
G01X7.485Y-2.4888
M16
G05
G00X7.4525Y-2.6987
M15
G01X7.485Y-2.6987
M16
G05
G00X7.4525Y-3.2388
M15
G01X7.485Y-3.2388
M16
G05
G00X7.4525Y-3.4487
M15
G01X7.485Y-3.4487
M16
G05
G00X7.485Y-0.8287
M15
G01X7.485Y-0.9888
M16
G05
G00X7.485Y-1.1987
M15
G01X7.485Y-1.3587
M16
G05
G00X7.485Y-1.5787
M15
G01X7.485Y-1.7388
M16
G05
G00X7.485Y-1.9487
M15
G01X7.485Y-2.1088
M16
G05
G00X7.485Y-2.3287
M15
G01X7.485Y-2.4888
M16
G05
G00X7.485Y-2.6987
M15
G01X7.485Y-2.8588
M16
G05
G00X7.485Y-3.0787
M15
G01X7.485Y-3.2388
M16
G05
G00X7.485Y-3.4487
M15
G01X7.485Y-3.6088
M16
G05
G00X7.2965Y-4.0362
M15
G01X7.8905Y-4.0362
M16
G05
G00X7.2965Y-4.5663
M15
G01X7.8905Y-4.5663
M16
G05
G00X7.64Y-0.9225
M15
G01X7.64Y-1.0825
M16
G05
G00X7.64Y-1.2925
M15
G01X7.64Y-1.4525
M16
G05
G00X7.64Y-1.6725
M15
G01X7.64Y-1.8325
M16
G05
G00X7.64Y-2.0425
M15
G01X7.64Y-2.2025
M16
G05
G00X7.64Y-2.4225
M15
G01X7.64Y-2.5825
M16
G05
G00X7.64Y-2.7925
M15
G01X7.64Y-2.9525
M16
G05
G00X7.64Y-3.1725
M15
G01X7.64Y-3.3325
M16
G05
G00X7.64Y-3.5425
M15
G01X7.64Y-3.7025
M16
G05
G00X7.64Y-1.0825
M15
G01X7.6725Y-1.0825
M16
G05
G00X7.64Y-1.2925
M15
G01X7.6725Y-1.2925
M16
G05
G00X7.64Y-1.8325
M15
G01X7.6725Y-1.8325
M16
G05
G00X7.64Y-2.0425
M15
G01X7.6725Y-2.0425
M16
G05
G00X7.64Y-2.5825
M15
G01X7.6725Y-2.5825
M16
G05
G00X7.64Y-2.7925
M15
G01X7.6725Y-2.7925
M16
G05
G00X7.64Y-3.3325
M15
G01X7.6725Y-3.3325
M16
G05
G00X7.64Y-3.5425
M15
G01X7.6725Y-3.5425
M16
G05
G00X7.6725Y-1.0825
M15
G01X7.6725Y-1.2925
M16
G05
G00X7.6725Y-1.8325
M15
G01X7.6725Y-2.0425
M16
G05
G00X7.6725Y-2.5825
M15
G01X7.6725Y-2.7925
M16
G05
G00X7.6725Y-3.3325
M15
G01X7.6725Y-3.5425
M16
G05
G00X7.8585Y-4.1963
M15
G01X7.8585Y-4.4062
M16
G05
G00X7.8585Y-4.1963
M15
G01X7.891Y-4.1963
M16
G05
G00X7.8585Y-4.4062
M15
G01X7.891Y-4.4062
M16
G05
G00X7.891Y-4.0362
M15
G01X7.891Y-4.1963
M16
G05
G00X7.891Y-4.4062
M15
G01X7.891Y-4.5663
M16
G05
G00X7.6405Y-0.9225
M15
G01X8.2345Y-0.9225
M16
G05
G00X7.6405Y-1.4525
M15
G01X8.2345Y-1.4525
M16
G05
G00X7.6405Y-1.6725
M15
G01X8.2345Y-1.6725
M16
G05
G00X7.6405Y-2.2025
M15
G01X8.2345Y-2.2025
M16
G05
G00X7.6405Y-2.4225
M15
G01X8.2345Y-2.4225
M16
G05
G00X7.6405Y-2.9525
M15
G01X8.2345Y-2.9525
M16
G05
G00X7.6405Y-3.1725
M15
G01X8.2345Y-3.1725
M16
G05
G00X7.6405Y-3.7025
M15
G01X8.2345Y-3.7025
M16
G05
G00X8.046Y-4.1413
M15
G01X8.046Y-4.3012
M16
G05
G00X8.046Y-4.5112
M15
G01X8.046Y-4.6712
M16
G05
G00X8.046Y-4.3012
M15
G01X8.0785Y-4.3012
M16
G05
G00X8.046Y-4.5112
M15
G01X8.0785Y-4.5112
M16
G05
G00X8.0785Y-4.3012
M15
G01X8.0785Y-4.5112
M16
G05
G00X8.2025Y-1.0825
M15
G01X8.2025Y-1.2925
M16
G05
G00X8.2025Y-1.8325
M15
G01X8.2025Y-2.0425
M16
G05
G00X8.2025Y-2.5825
M15
G01X8.2025Y-2.7925
M16
G05
G00X8.2025Y-3.3325
M15
G01X8.2025Y-3.5425
M16
G05
G00X8.2025Y-1.0825
M15
G01X8.235Y-1.0825
M16
G05
G00X8.2025Y-1.2925
M15
G01X8.235Y-1.2925
M16
G05
G00X8.2025Y-1.8325
M15
G01X8.235Y-1.8325
M16
G05
G00X8.2025Y-2.0425
M15
G01X8.235Y-2.0425
M16
G05
G00X8.2025Y-2.5825
M15
G01X8.235Y-2.5825
M16
G05
G00X8.2025Y-2.7925
M15
G01X8.235Y-2.7925
M16
G05
G00X8.2025Y-3.3325
M15
G01X8.235Y-3.3325
M16
G05
G00X8.2025Y-3.5425
M15
G01X8.235Y-3.5425
M16
G05
G00X8.235Y-0.9225
M15
G01X8.235Y-1.0825
M16
G05
G00X8.235Y-1.2925
M15
G01X8.235Y-1.4525
M16
G05
G00X8.235Y-1.6725
M15
G01X8.235Y-1.8325
M16
G05
G00X8.235Y-2.0425
M15
G01X8.235Y-2.2025
M16
G05
G00X8.235Y-2.4225
M15
G01X8.235Y-2.5825
M16
G05
G00X8.235Y-2.7925
M15
G01X8.235Y-2.9525
M16
G05
G00X8.235Y-3.1725
M15
G01X8.235Y-3.3325
M16
G05
G00X8.235Y-3.5425
M15
G01X8.235Y-3.7025
M16
G05
G00X8.0465Y-4.1413
M15
G01X8.6405Y-4.1413
M16
G05
G00X8.0465Y-4.6712
M15
G01X8.6405Y-4.6712
M16
G05
G00X8.39Y-1.0162
M15
G01X8.39Y-1.1763
M16
G05
G00X8.39Y-1.3862
M15
G01X8.39Y-1.5462
M16
G05
G00X8.39Y-1.7662
M15
G01X8.39Y-1.9263
M16
G05
G00X8.39Y-2.1362
M15
G01X8.39Y-2.2963
M16
G05
G00X8.39Y-2.5162
M15
G01X8.39Y-2.6763
M16
G05
G00X8.39Y-2.8862
M15
G01X8.39Y-3.0463
M16
G05
G00X8.39Y-3.2662
M15
G01X8.39Y-3.4263
M16
G05
G00X8.39Y-3.6362
M15
G01X8.39Y-3.7963
M16
G05
G00X8.39Y-1.1763
M15
G01X8.4225Y-1.1763
M16
G05
G00X8.39Y-1.3862
M15
G01X8.4225Y-1.3862
M16
G05
G00X8.39Y-1.9263
M15
G01X8.4225Y-1.9263
M16
G05
G00X8.39Y-2.1362
M15
G01X8.4225Y-2.1362
M16
G05
G00X8.39Y-2.6763
M15
G01X8.4225Y-2.6763
M16
G05
G00X8.39Y-2.8862
M15
G01X8.4225Y-2.8862
M16
G05
G00X8.39Y-3.4263
M15
G01X8.4225Y-3.4263
M16
G05
G00X8.39Y-3.6362
M15
G01X8.4225Y-3.6362
M16
G05
G00X8.4225Y-1.1763
M15
G01X8.4225Y-1.3862
M16
G05
G00X8.4225Y-1.9263
M15
G01X8.4225Y-2.1362
M16
G05
G00X8.4225Y-2.6763
M15
G01X8.4225Y-2.8862
M16
G05
G00X8.4225Y-3.4263
M15
G01X8.4225Y-3.6362
M16
G05
G00X8.6085Y-4.3012
M15
G01X8.6085Y-4.5112
M16
G05
G00X8.6085Y-4.3012
M15
G01X8.641Y-4.3012
M16
G05
G00X8.6085Y-4.5112
M15
G01X8.641Y-4.5112
M16
G05
G00X8.641Y-4.1413
M15
G01X8.641Y-4.3012
M16
G05
G00X8.641Y-4.5112
M15
G01X8.641Y-4.6712
M16
G05
G00X8.3905Y-1.0162
M15
G01X8.9845Y-1.0162
M16
G05
G00X8.3905Y-1.5462
M15
G01X8.9845Y-1.5462
M16
G05
G00X8.3905Y-1.7662
M15
G01X8.9845Y-1.7662
M16
G05
G00X8.3905Y-2.2963
M15
G01X8.9845Y-2.2963
M16
G05
G00X8.3905Y-2.5162
M15
G01X8.9845Y-2.5162
M16
G05
G00X8.3905Y-3.0463
M15
G01X8.9845Y-3.0463
M16
G05
G00X8.3905Y-3.2662
M15
G01X8.9845Y-3.2662
M16
G05
G00X8.3905Y-3.7963
M15
G01X8.9845Y-3.7963
M16
G05
G00X8.9525Y-1.1763
M15
G01X8.9525Y-1.3862
M16
G05
G00X8.9525Y-1.9263
M15
G01X8.9525Y-2.1362
M16
G05
G00X8.9525Y-2.6763
M15
G01X8.9525Y-2.8862
M16
G05
G00X8.9525Y-3.4263
M15
G01X8.9525Y-3.6362
M16
G05
G00X8.9525Y-1.1763
M15
G01X8.985Y-1.1763
M16
G05
G00X8.9525Y-1.3862
M15
G01X8.985Y-1.3862
M16
G05
G00X8.9525Y-1.9263
M15
G01X8.985Y-1.9263
M16
G05
G00X8.9525Y-2.1362
M15
G01X8.985Y-2.1362
M16
G05
G00X8.9525Y-2.6763
M15
G01X8.985Y-2.6763
M16
G05
G00X8.9525Y-2.8862
M15
G01X8.985Y-2.8862
M16
G05
G00X8.9525Y-3.4263
M15
G01X8.985Y-3.4263
M16
G05
G00X8.9525Y-3.6362
M15
G01X8.985Y-3.6362
M16
G05
G00X8.985Y-1.0162
M15
G01X8.985Y-1.1763
M16
G05
G00X8.985Y-1.3862
M15
G01X8.985Y-1.5462
M16
G05
G00X8.985Y-1.7662
M15
G01X8.985Y-1.9263
M16
G05
G00X8.985Y-2.1362
M15
G01X8.985Y-2.2963
M16
G05
G00X8.985Y-2.5162
M15
G01X8.985Y-2.6763
M16
G05
G00X8.985Y-2.8862
M15
G01X8.985Y-3.0463
M16
G05
G00X8.985Y-3.2662
M15
G01X8.985Y-3.4263
M16
G05
G00X8.985Y-3.6362
M15
G01X8.985Y-3.7963
M16
G05
G00X9.0503Y-4.4464
M15
G01X9.1888Y-4.5264
M16
G05
G00X9.1888Y-4.5264
M15
G01X9.2051Y-4.4982
M16
G05
G00X9.0505Y-4.446
M15
G01X9.3475Y-3.9315
M16
G05
G00X9.2051Y-4.4982
M15
G01X9.3869Y-4.6032
M16
G05
G00X9.3707Y-4.6314
M15
G01X9.3869Y-4.6032
M16
G05
G00X9.3478Y-3.9311
M15
G01X9.4863Y-4.0111
M16
G05
G00X9.3707Y-4.6314
M15
G01X9.5093Y-4.7114
M16
G05
G00X9.4701Y-4.0393
M15
G01X9.4863Y-4.0111
M16
G05
G00X9.4701Y-4.0393
M15
G01X9.6519Y-4.1443
M16
G05
G00X9.5095Y-4.711
M15
G01X9.8065Y-4.1965
M16
G05
G00X9.6519Y-4.1443
M15
G01X9.6682Y-4.1161
M16
G05
G00X9.6682Y-4.1161
M15
G01X9.8068Y-4.1961
M16
G05
T3
G00X4.8625Y-1.1625
M15
G01X5.0125Y-1.1625
M16
G05
G00X4.8625Y-1.7125
M15
G01X5.0125Y-1.7125
M16
G05
G00X4.8625Y-1.9125
M15
G01X5.0125Y-1.9125
M16
G05
G00X4.8625Y-2.4625
M15
G01X5.0125Y-2.4625
M16
G05
G00X4.8625Y-2.6625
M15
G01X5.0125Y-2.6625
M16
G05
G00X4.8625Y-3.2125
M15
G01X5.0125Y-3.2125
M16
G05
G00X4.8625Y-3.4125
M15
G01X5.0125Y-3.4125
M16
G05
G00X4.8625Y-3.9625
M15
G01X5.0125Y-3.9625
M16
G05
G00X5.6125Y-1.1625
M15
G01X5.7625Y-1.1625
M16
G05
G00X5.6125Y-1.7125
M15
G01X5.7625Y-1.7125
M16
G05
G00X5.6125Y-1.9125
M15
G01X5.7625Y-1.9125
M16
G05
G00X5.6125Y-2.4625
M15
G01X5.7625Y-2.4625
M16
G05
G00X5.6125Y-2.6625
M15
G01X5.7625Y-2.6625
M16
G05
G00X5.6125Y-3.2125
M15
G01X5.7625Y-3.2125
M16
G05
G00X5.6125Y-3.4125
M15
G01X5.7625Y-3.4125
M16
G05
G00X5.6125Y-3.9625
M15
G01X5.7625Y-3.9625
M16
G05
G00X6.3625Y-0.9125
M15
G01X6.5125Y-0.9125
M16
G05
G00X6.3625Y-1.4625
M15
G01X6.5125Y-1.4625
M16
G05
G00X6.3625Y-1.6625
M15
G01X6.5125Y-1.6625
M16
G05
G00X6.3625Y-2.2125
M15
G01X6.5125Y-2.2125
M16
G05
G00X6.3625Y-2.4125
M15
G01X6.5125Y-2.4125
M16
G05
G00X6.3625Y-2.9625
M15
G01X6.5125Y-2.9625
M16
G05
G00X6.3625Y-3.1625
M15
G01X6.5125Y-3.1625
M16
G05
G00X6.3625Y-3.7125
M15
G01X6.5125Y-3.7125
M16
G05
G00X6.7685Y-4.0263
M15
G01X6.9185Y-4.0263
M16
G05
G00X6.7685Y-4.5762
M15
G01X6.9185Y-4.5762
M16
G05
G00X7.1125Y-0.8187
M15
G01X7.2625Y-0.8187
M16
G05
G00X7.1125Y-1.3687
M15
G01X7.2625Y-1.3687
M16
G05
G00X7.1125Y-1.5687
M15
G01X7.2625Y-1.5687
M16
G05
G00X7.1125Y-2.1187
M15
G01X7.2625Y-2.1187
M16
G05
G00X7.1125Y-2.3188
M15
G01X7.2625Y-2.3188
M16
G05
G00X7.1125Y-2.8687
M15
G01X7.2625Y-2.8687
M16
G05
G00X7.1125Y-3.0688
M15
G01X7.2625Y-3.0688
M16
G05
G00X7.1125Y-3.6187
M15
G01X7.2625Y-3.6187
M16
G05
G00X7.5185Y-4.0263
M15
G01X7.6685Y-4.0263
M16
G05
G00X7.5185Y-4.5762
M15
G01X7.6685Y-4.5762
M16
G05
G00X7.8625Y-0.9125
M15
G01X8.0125Y-0.9125
M16
G05
G00X7.8625Y-1.4625
M15
G01X8.0125Y-1.4625
M16
G05
G00X7.8625Y-1.6625
M15
G01X8.0125Y-1.6625
M16
G05
G00X7.8625Y-2.2125
M15
G01X8.0125Y-2.2125
M16
G05
G00X7.8625Y-2.4125
M15
G01X8.0125Y-2.4125
M16
G05
G00X7.8625Y-2.9625
M15
G01X8.0125Y-2.9625
M16
G05
G00X7.8625Y-3.1625
M15
G01X8.0125Y-3.1625
M16
G05
G00X7.8625Y-3.7125
M15
G01X8.0125Y-3.7125
M16
G05
G00X8.2685Y-4.1312
M15
G01X8.4185Y-4.1312
M16
G05
G00X8.2685Y-4.6812
M15
G01X8.4185Y-4.6812
M16
G05
G00X8.6125Y-1.0062
M15
G01X8.7625Y-1.0062
M16
G05
G00X8.6125Y-1.5562
M15
G01X8.7625Y-1.5562
M16
G05
G00X8.6125Y-1.7562
M15
G01X8.7625Y-1.7562
M16
G05
G00X8.6125Y-2.3062
M15
G01X8.7625Y-2.3062
M16
G05
G00X8.6125Y-2.5063
M15
G01X8.7625Y-2.5063
M16
G05
G00X8.6125Y-3.0562
M15
G01X8.7625Y-3.0562
M16
G05
G00X8.6125Y-3.2563
M15
G01X8.7625Y-3.2563
M16
G05
G00X8.6125Y-3.8062
M15
G01X8.7625Y-3.8062
M16
G05
G00X9.1528Y-4.2487
M15
G01X9.2278Y-4.1188
M16
G05
G00X9.6292Y-4.5237
M15
G01X9.7042Y-4.3938
M16
G05
T0
M30
