%TF.GenerationSoftware,KiCad,Pcbnew,(5.1.9-0-10_14)*%
%TF.CreationDate,2021-04-25T18:46:22-05:00*%
%TF.ProjectId,wren-plain,7772656e-2d70-46c6-9169-6e2e6b696361,rev?*%
%TF.SameCoordinates,Original*%
%TF.FileFunction,Legend,Bot*%
%TF.FilePolarity,Positive*%
%FSLAX46Y46*%
G04 Gerber Fmt 4.6, Leading zero omitted, Abs format (unit mm)*
G04 Created by KiCad (PCBNEW (5.1.9-0-10_14)) date 2021-04-25 18:46:22*
%MOMM*%
%LPD*%
G01*
G04 APERTURE LIST*
%ADD10C,0.150000*%
G04 APERTURE END LIST*
%TO.C,MX6*%
D10*
X126698214Y-28709880D02*
X126698214Y-27709880D01*
X126364880Y-28424166D01*
X126031547Y-27709880D01*
X126031547Y-28709880D01*
X125650595Y-27709880D02*
X124983928Y-28709880D01*
X124983928Y-27709880D02*
X125650595Y-28709880D01*
X124174404Y-27709880D02*
X124364880Y-27709880D01*
X124460119Y-27757500D01*
X124507738Y-27805119D01*
X124602976Y-27947976D01*
X124650595Y-28138452D01*
X124650595Y-28519404D01*
X124602976Y-28614642D01*
X124555357Y-28662261D01*
X124460119Y-28709880D01*
X124269642Y-28709880D01*
X124174404Y-28662261D01*
X124126785Y-28614642D01*
X124079166Y-28519404D01*
X124079166Y-28281309D01*
X124126785Y-28186071D01*
X124174404Y-28138452D01*
X124269642Y-28090833D01*
X124460119Y-28090833D01*
X124555357Y-28138452D01*
X124602976Y-28186071D01*
X124650595Y-28281309D01*
%TO.C,MX36*%
X127174404Y-85859880D02*
X127174404Y-84859880D01*
X126841071Y-85574166D01*
X126507738Y-84859880D01*
X126507738Y-85859880D01*
X126126785Y-84859880D02*
X125460119Y-85859880D01*
X125460119Y-84859880D02*
X126126785Y-85859880D01*
X125174404Y-84859880D02*
X124555357Y-84859880D01*
X124888690Y-85240833D01*
X124745833Y-85240833D01*
X124650595Y-85288452D01*
X124602976Y-85336071D01*
X124555357Y-85431309D01*
X124555357Y-85669404D01*
X124602976Y-85764642D01*
X124650595Y-85812261D01*
X124745833Y-85859880D01*
X125031547Y-85859880D01*
X125126785Y-85812261D01*
X125174404Y-85764642D01*
X123698214Y-84859880D02*
X123888690Y-84859880D01*
X123983928Y-84907500D01*
X124031547Y-84955119D01*
X124126785Y-85097976D01*
X124174404Y-85288452D01*
X124174404Y-85669404D01*
X124126785Y-85764642D01*
X124079166Y-85812261D01*
X123983928Y-85859880D01*
X123793452Y-85859880D01*
X123698214Y-85812261D01*
X123650595Y-85764642D01*
X123602976Y-85669404D01*
X123602976Y-85431309D01*
X123650595Y-85336071D01*
X123698214Y-85288452D01*
X123793452Y-85240833D01*
X123983928Y-85240833D01*
X124079166Y-85288452D01*
X124126785Y-85336071D01*
X124174404Y-85431309D01*
%TO.C,MX41*%
X233607685Y-104332586D02*
X232741660Y-103832586D01*
X233193583Y-104478404D01*
X232408327Y-104409936D01*
X233274352Y-104909936D01*
X232217850Y-104739850D02*
X232750542Y-105817201D01*
X231884517Y-105317201D02*
X233083876Y-105239850D01*
X231768430Y-106184936D02*
X232345781Y-106518269D01*
X231557563Y-105788263D02*
X232295201Y-105939209D01*
X231985677Y-106475320D01*
X231821971Y-107425534D02*
X232107685Y-106930662D01*
X231964828Y-107178098D02*
X231098803Y-106678098D01*
X231270140Y-106667048D01*
X231400237Y-106632188D01*
X231489096Y-106573519D01*
%TO.C,MX15*%
X146224404Y-47759880D02*
X146224404Y-46759880D01*
X145891071Y-47474166D01*
X145557738Y-46759880D01*
X145557738Y-47759880D01*
X145176785Y-46759880D02*
X144510119Y-47759880D01*
X144510119Y-46759880D02*
X145176785Y-47759880D01*
X143605357Y-47759880D02*
X144176785Y-47759880D01*
X143891071Y-47759880D02*
X143891071Y-46759880D01*
X143986309Y-46902738D01*
X144081547Y-46997976D01*
X144176785Y-47045595D01*
X142700595Y-46759880D02*
X143176785Y-46759880D01*
X143224404Y-47236071D01*
X143176785Y-47188452D01*
X143081547Y-47140833D01*
X142843452Y-47140833D01*
X142748214Y-47188452D01*
X142700595Y-47236071D01*
X142652976Y-47331309D01*
X142652976Y-47569404D01*
X142700595Y-47664642D01*
X142748214Y-47712261D01*
X142843452Y-47759880D01*
X143081547Y-47759880D01*
X143176785Y-47712261D01*
X143224404Y-47664642D01*
%TO.C,MX44*%
X175586904Y-101449130D02*
X175586904Y-100449130D01*
X175253571Y-101163416D01*
X174920238Y-100449130D01*
X174920238Y-101449130D01*
X174539285Y-100449130D02*
X173872619Y-101449130D01*
X173872619Y-100449130D02*
X174539285Y-101449130D01*
X173063095Y-100782464D02*
X173063095Y-101449130D01*
X173301190Y-100401511D02*
X173539285Y-101115797D01*
X172920238Y-101115797D01*
X172110714Y-100782464D02*
X172110714Y-101449130D01*
X172348809Y-100401511D02*
X172586904Y-101115797D01*
X171967857Y-101115797D01*
%TO.C,MX43*%
X194636904Y-101449130D02*
X194636904Y-100449130D01*
X194303571Y-101163416D01*
X193970238Y-100449130D01*
X193970238Y-101449130D01*
X193589285Y-100449130D02*
X192922619Y-101449130D01*
X192922619Y-100449130D02*
X193589285Y-101449130D01*
X192113095Y-100782464D02*
X192113095Y-101449130D01*
X192351190Y-100401511D02*
X192589285Y-101115797D01*
X191970238Y-101115797D01*
X191684523Y-100449130D02*
X191065476Y-100449130D01*
X191398809Y-100830083D01*
X191255952Y-100830083D01*
X191160714Y-100877702D01*
X191113095Y-100925321D01*
X191065476Y-101020559D01*
X191065476Y-101258654D01*
X191113095Y-101353892D01*
X191160714Y-101401511D01*
X191255952Y-101449130D01*
X191541666Y-101449130D01*
X191636904Y-101401511D01*
X191684523Y-101353892D01*
%TO.C,MX42*%
X213686904Y-104116130D02*
X213686904Y-103116130D01*
X213353571Y-103830416D01*
X213020238Y-103116130D01*
X213020238Y-104116130D01*
X212639285Y-103116130D02*
X211972619Y-104116130D01*
X211972619Y-103116130D02*
X212639285Y-104116130D01*
X211163095Y-103449464D02*
X211163095Y-104116130D01*
X211401190Y-103068511D02*
X211639285Y-103782797D01*
X211020238Y-103782797D01*
X210686904Y-103211369D02*
X210639285Y-103163750D01*
X210544047Y-103116130D01*
X210305952Y-103116130D01*
X210210714Y-103163750D01*
X210163095Y-103211369D01*
X210115476Y-103306607D01*
X210115476Y-103401845D01*
X210163095Y-103544702D01*
X210734523Y-104116130D01*
X210115476Y-104116130D01*
%TO.C,MX35*%
X146224404Y-85859880D02*
X146224404Y-84859880D01*
X145891071Y-85574166D01*
X145557738Y-84859880D01*
X145557738Y-85859880D01*
X145176785Y-84859880D02*
X144510119Y-85859880D01*
X144510119Y-84859880D02*
X145176785Y-85859880D01*
X144224404Y-84859880D02*
X143605357Y-84859880D01*
X143938690Y-85240833D01*
X143795833Y-85240833D01*
X143700595Y-85288452D01*
X143652976Y-85336071D01*
X143605357Y-85431309D01*
X143605357Y-85669404D01*
X143652976Y-85764642D01*
X143700595Y-85812261D01*
X143795833Y-85859880D01*
X144081547Y-85859880D01*
X144176785Y-85812261D01*
X144224404Y-85764642D01*
X142700595Y-84859880D02*
X143176785Y-84859880D01*
X143224404Y-85336071D01*
X143176785Y-85288452D01*
X143081547Y-85240833D01*
X142843452Y-85240833D01*
X142748214Y-85288452D01*
X142700595Y-85336071D01*
X142652976Y-85431309D01*
X142652976Y-85669404D01*
X142700595Y-85764642D01*
X142748214Y-85812261D01*
X142843452Y-85859880D01*
X143081547Y-85859880D01*
X143176785Y-85812261D01*
X143224404Y-85764642D01*
%TO.C,MX34*%
X165274404Y-79509880D02*
X165274404Y-78509880D01*
X164941071Y-79224166D01*
X164607738Y-78509880D01*
X164607738Y-79509880D01*
X164226785Y-78509880D02*
X163560119Y-79509880D01*
X163560119Y-78509880D02*
X164226785Y-79509880D01*
X163274404Y-78509880D02*
X162655357Y-78509880D01*
X162988690Y-78890833D01*
X162845833Y-78890833D01*
X162750595Y-78938452D01*
X162702976Y-78986071D01*
X162655357Y-79081309D01*
X162655357Y-79319404D01*
X162702976Y-79414642D01*
X162750595Y-79462261D01*
X162845833Y-79509880D01*
X163131547Y-79509880D01*
X163226785Y-79462261D01*
X163274404Y-79414642D01*
X161798214Y-78843214D02*
X161798214Y-79509880D01*
X162036309Y-78462261D02*
X162274404Y-79176547D01*
X161655357Y-79176547D01*
%TO.C,MX33*%
X184324404Y-77128630D02*
X184324404Y-76128630D01*
X183991071Y-76842916D01*
X183657738Y-76128630D01*
X183657738Y-77128630D01*
X183276785Y-76128630D02*
X182610119Y-77128630D01*
X182610119Y-76128630D02*
X183276785Y-77128630D01*
X182324404Y-76128630D02*
X181705357Y-76128630D01*
X182038690Y-76509583D01*
X181895833Y-76509583D01*
X181800595Y-76557202D01*
X181752976Y-76604821D01*
X181705357Y-76700059D01*
X181705357Y-76938154D01*
X181752976Y-77033392D01*
X181800595Y-77081011D01*
X181895833Y-77128630D01*
X182181547Y-77128630D01*
X182276785Y-77081011D01*
X182324404Y-77033392D01*
X181372023Y-76128630D02*
X180752976Y-76128630D01*
X181086309Y-76509583D01*
X180943452Y-76509583D01*
X180848214Y-76557202D01*
X180800595Y-76604821D01*
X180752976Y-76700059D01*
X180752976Y-76938154D01*
X180800595Y-77033392D01*
X180848214Y-77081011D01*
X180943452Y-77128630D01*
X181229166Y-77128630D01*
X181324404Y-77081011D01*
X181372023Y-77033392D01*
%TO.C,MX32*%
X203374404Y-79509880D02*
X203374404Y-78509880D01*
X203041071Y-79224166D01*
X202707738Y-78509880D01*
X202707738Y-79509880D01*
X202326785Y-78509880D02*
X201660119Y-79509880D01*
X201660119Y-78509880D02*
X202326785Y-79509880D01*
X201374404Y-78509880D02*
X200755357Y-78509880D01*
X201088690Y-78890833D01*
X200945833Y-78890833D01*
X200850595Y-78938452D01*
X200802976Y-78986071D01*
X200755357Y-79081309D01*
X200755357Y-79319404D01*
X200802976Y-79414642D01*
X200850595Y-79462261D01*
X200945833Y-79509880D01*
X201231547Y-79509880D01*
X201326785Y-79462261D01*
X201374404Y-79414642D01*
X200374404Y-78605119D02*
X200326785Y-78557500D01*
X200231547Y-78509880D01*
X199993452Y-78509880D01*
X199898214Y-78557500D01*
X199850595Y-78605119D01*
X199802976Y-78700357D01*
X199802976Y-78795595D01*
X199850595Y-78938452D01*
X200422023Y-79509880D01*
X199802976Y-79509880D01*
%TO.C,MX31*%
X222424404Y-81891130D02*
X222424404Y-80891130D01*
X222091071Y-81605416D01*
X221757738Y-80891130D01*
X221757738Y-81891130D01*
X221376785Y-80891130D02*
X220710119Y-81891130D01*
X220710119Y-80891130D02*
X221376785Y-81891130D01*
X220424404Y-80891130D02*
X219805357Y-80891130D01*
X220138690Y-81272083D01*
X219995833Y-81272083D01*
X219900595Y-81319702D01*
X219852976Y-81367321D01*
X219805357Y-81462559D01*
X219805357Y-81700654D01*
X219852976Y-81795892D01*
X219900595Y-81843511D01*
X219995833Y-81891130D01*
X220281547Y-81891130D01*
X220376785Y-81843511D01*
X220424404Y-81795892D01*
X218852976Y-81891130D02*
X219424404Y-81891130D01*
X219138690Y-81891130D02*
X219138690Y-80891130D01*
X219233928Y-81033988D01*
X219329166Y-81129226D01*
X219424404Y-81176845D01*
%TO.C,MX26*%
X127174404Y-66809880D02*
X127174404Y-65809880D01*
X126841071Y-66524166D01*
X126507738Y-65809880D01*
X126507738Y-66809880D01*
X126126785Y-65809880D02*
X125460119Y-66809880D01*
X125460119Y-65809880D02*
X126126785Y-66809880D01*
X125126785Y-65905119D02*
X125079166Y-65857500D01*
X124983928Y-65809880D01*
X124745833Y-65809880D01*
X124650595Y-65857500D01*
X124602976Y-65905119D01*
X124555357Y-66000357D01*
X124555357Y-66095595D01*
X124602976Y-66238452D01*
X125174404Y-66809880D01*
X124555357Y-66809880D01*
X123698214Y-65809880D02*
X123888690Y-65809880D01*
X123983928Y-65857500D01*
X124031547Y-65905119D01*
X124126785Y-66047976D01*
X124174404Y-66238452D01*
X124174404Y-66619404D01*
X124126785Y-66714642D01*
X124079166Y-66762261D01*
X123983928Y-66809880D01*
X123793452Y-66809880D01*
X123698214Y-66762261D01*
X123650595Y-66714642D01*
X123602976Y-66619404D01*
X123602976Y-66381309D01*
X123650595Y-66286071D01*
X123698214Y-66238452D01*
X123793452Y-66190833D01*
X123983928Y-66190833D01*
X124079166Y-66238452D01*
X124126785Y-66286071D01*
X124174404Y-66381309D01*
%TO.C,MX25*%
X146224404Y-66809880D02*
X146224404Y-65809880D01*
X145891071Y-66524166D01*
X145557738Y-65809880D01*
X145557738Y-66809880D01*
X145176785Y-65809880D02*
X144510119Y-66809880D01*
X144510119Y-65809880D02*
X145176785Y-66809880D01*
X144176785Y-65905119D02*
X144129166Y-65857500D01*
X144033928Y-65809880D01*
X143795833Y-65809880D01*
X143700595Y-65857500D01*
X143652976Y-65905119D01*
X143605357Y-66000357D01*
X143605357Y-66095595D01*
X143652976Y-66238452D01*
X144224404Y-66809880D01*
X143605357Y-66809880D01*
X142700595Y-65809880D02*
X143176785Y-65809880D01*
X143224404Y-66286071D01*
X143176785Y-66238452D01*
X143081547Y-66190833D01*
X142843452Y-66190833D01*
X142748214Y-66238452D01*
X142700595Y-66286071D01*
X142652976Y-66381309D01*
X142652976Y-66619404D01*
X142700595Y-66714642D01*
X142748214Y-66762261D01*
X142843452Y-66809880D01*
X143081547Y-66809880D01*
X143176785Y-66762261D01*
X143224404Y-66714642D01*
%TO.C,MX24*%
X165274404Y-60459880D02*
X165274404Y-59459880D01*
X164941071Y-60174166D01*
X164607738Y-59459880D01*
X164607738Y-60459880D01*
X164226785Y-59459880D02*
X163560119Y-60459880D01*
X163560119Y-59459880D02*
X164226785Y-60459880D01*
X163226785Y-59555119D02*
X163179166Y-59507500D01*
X163083928Y-59459880D01*
X162845833Y-59459880D01*
X162750595Y-59507500D01*
X162702976Y-59555119D01*
X162655357Y-59650357D01*
X162655357Y-59745595D01*
X162702976Y-59888452D01*
X163274404Y-60459880D01*
X162655357Y-60459880D01*
X161798214Y-59793214D02*
X161798214Y-60459880D01*
X162036309Y-59412261D02*
X162274404Y-60126547D01*
X161655357Y-60126547D01*
%TO.C,MX23*%
X184324404Y-58078630D02*
X184324404Y-57078630D01*
X183991071Y-57792916D01*
X183657738Y-57078630D01*
X183657738Y-58078630D01*
X183276785Y-57078630D02*
X182610119Y-58078630D01*
X182610119Y-57078630D02*
X183276785Y-58078630D01*
X182276785Y-57173869D02*
X182229166Y-57126250D01*
X182133928Y-57078630D01*
X181895833Y-57078630D01*
X181800595Y-57126250D01*
X181752976Y-57173869D01*
X181705357Y-57269107D01*
X181705357Y-57364345D01*
X181752976Y-57507202D01*
X182324404Y-58078630D01*
X181705357Y-58078630D01*
X181372023Y-57078630D02*
X180752976Y-57078630D01*
X181086309Y-57459583D01*
X180943452Y-57459583D01*
X180848214Y-57507202D01*
X180800595Y-57554821D01*
X180752976Y-57650059D01*
X180752976Y-57888154D01*
X180800595Y-57983392D01*
X180848214Y-58031011D01*
X180943452Y-58078630D01*
X181229166Y-58078630D01*
X181324404Y-58031011D01*
X181372023Y-57983392D01*
%TO.C,MX22*%
X203374404Y-60459880D02*
X203374404Y-59459880D01*
X203041071Y-60174166D01*
X202707738Y-59459880D01*
X202707738Y-60459880D01*
X202326785Y-59459880D02*
X201660119Y-60459880D01*
X201660119Y-59459880D02*
X202326785Y-60459880D01*
X201326785Y-59555119D02*
X201279166Y-59507500D01*
X201183928Y-59459880D01*
X200945833Y-59459880D01*
X200850595Y-59507500D01*
X200802976Y-59555119D01*
X200755357Y-59650357D01*
X200755357Y-59745595D01*
X200802976Y-59888452D01*
X201374404Y-60459880D01*
X200755357Y-60459880D01*
X200374404Y-59555119D02*
X200326785Y-59507500D01*
X200231547Y-59459880D01*
X199993452Y-59459880D01*
X199898214Y-59507500D01*
X199850595Y-59555119D01*
X199802976Y-59650357D01*
X199802976Y-59745595D01*
X199850595Y-59888452D01*
X200422023Y-60459880D01*
X199802976Y-60459880D01*
%TO.C,MX21*%
X222424404Y-62841130D02*
X222424404Y-61841130D01*
X222091071Y-62555416D01*
X221757738Y-61841130D01*
X221757738Y-62841130D01*
X221376785Y-61841130D02*
X220710119Y-62841130D01*
X220710119Y-61841130D02*
X221376785Y-62841130D01*
X220376785Y-61936369D02*
X220329166Y-61888750D01*
X220233928Y-61841130D01*
X219995833Y-61841130D01*
X219900595Y-61888750D01*
X219852976Y-61936369D01*
X219805357Y-62031607D01*
X219805357Y-62126845D01*
X219852976Y-62269702D01*
X220424404Y-62841130D01*
X219805357Y-62841130D01*
X218852976Y-62841130D02*
X219424404Y-62841130D01*
X219138690Y-62841130D02*
X219138690Y-61841130D01*
X219233928Y-61983988D01*
X219329166Y-62079226D01*
X219424404Y-62126845D01*
%TO.C,MX16*%
X127174404Y-47759880D02*
X127174404Y-46759880D01*
X126841071Y-47474166D01*
X126507738Y-46759880D01*
X126507738Y-47759880D01*
X126126785Y-46759880D02*
X125460119Y-47759880D01*
X125460119Y-46759880D02*
X126126785Y-47759880D01*
X124555357Y-47759880D02*
X125126785Y-47759880D01*
X124841071Y-47759880D02*
X124841071Y-46759880D01*
X124936309Y-46902738D01*
X125031547Y-46997976D01*
X125126785Y-47045595D01*
X123698214Y-46759880D02*
X123888690Y-46759880D01*
X123983928Y-46807500D01*
X124031547Y-46855119D01*
X124126785Y-46997976D01*
X124174404Y-47188452D01*
X124174404Y-47569404D01*
X124126785Y-47664642D01*
X124079166Y-47712261D01*
X123983928Y-47759880D01*
X123793452Y-47759880D01*
X123698214Y-47712261D01*
X123650595Y-47664642D01*
X123602976Y-47569404D01*
X123602976Y-47331309D01*
X123650595Y-47236071D01*
X123698214Y-47188452D01*
X123793452Y-47140833D01*
X123983928Y-47140833D01*
X124079166Y-47188452D01*
X124126785Y-47236071D01*
X124174404Y-47331309D01*
%TO.C,MX14*%
X165274404Y-41409880D02*
X165274404Y-40409880D01*
X164941071Y-41124166D01*
X164607738Y-40409880D01*
X164607738Y-41409880D01*
X164226785Y-40409880D02*
X163560119Y-41409880D01*
X163560119Y-40409880D02*
X164226785Y-41409880D01*
X162655357Y-41409880D02*
X163226785Y-41409880D01*
X162941071Y-41409880D02*
X162941071Y-40409880D01*
X163036309Y-40552738D01*
X163131547Y-40647976D01*
X163226785Y-40695595D01*
X161798214Y-40743214D02*
X161798214Y-41409880D01*
X162036309Y-40362261D02*
X162274404Y-41076547D01*
X161655357Y-41076547D01*
%TO.C,MX13*%
X184324404Y-39028630D02*
X184324404Y-38028630D01*
X183991071Y-38742916D01*
X183657738Y-38028630D01*
X183657738Y-39028630D01*
X183276785Y-38028630D02*
X182610119Y-39028630D01*
X182610119Y-38028630D02*
X183276785Y-39028630D01*
X181705357Y-39028630D02*
X182276785Y-39028630D01*
X181991071Y-39028630D02*
X181991071Y-38028630D01*
X182086309Y-38171488D01*
X182181547Y-38266726D01*
X182276785Y-38314345D01*
X181372023Y-38028630D02*
X180752976Y-38028630D01*
X181086309Y-38409583D01*
X180943452Y-38409583D01*
X180848214Y-38457202D01*
X180800595Y-38504821D01*
X180752976Y-38600059D01*
X180752976Y-38838154D01*
X180800595Y-38933392D01*
X180848214Y-38981011D01*
X180943452Y-39028630D01*
X181229166Y-39028630D01*
X181324404Y-38981011D01*
X181372023Y-38933392D01*
%TO.C,MX12*%
X203374404Y-41409880D02*
X203374404Y-40409880D01*
X203041071Y-41124166D01*
X202707738Y-40409880D01*
X202707738Y-41409880D01*
X202326785Y-40409880D02*
X201660119Y-41409880D01*
X201660119Y-40409880D02*
X202326785Y-41409880D01*
X200755357Y-41409880D02*
X201326785Y-41409880D01*
X201041071Y-41409880D02*
X201041071Y-40409880D01*
X201136309Y-40552738D01*
X201231547Y-40647976D01*
X201326785Y-40695595D01*
X200374404Y-40505119D02*
X200326785Y-40457500D01*
X200231547Y-40409880D01*
X199993452Y-40409880D01*
X199898214Y-40457500D01*
X199850595Y-40505119D01*
X199802976Y-40600357D01*
X199802976Y-40695595D01*
X199850595Y-40838452D01*
X200422023Y-41409880D01*
X199802976Y-41409880D01*
%TO.C,MX11*%
X222424404Y-43791130D02*
X222424404Y-42791130D01*
X222091071Y-43505416D01*
X221757738Y-42791130D01*
X221757738Y-43791130D01*
X221376785Y-42791130D02*
X220710119Y-43791130D01*
X220710119Y-42791130D02*
X221376785Y-43791130D01*
X219805357Y-43791130D02*
X220376785Y-43791130D01*
X220091071Y-43791130D02*
X220091071Y-42791130D01*
X220186309Y-42933988D01*
X220281547Y-43029226D01*
X220376785Y-43076845D01*
X218852976Y-43791130D02*
X219424404Y-43791130D01*
X219138690Y-43791130D02*
X219138690Y-42791130D01*
X219233928Y-42933988D01*
X219329166Y-43029226D01*
X219424404Y-43076845D01*
%TO.C,MX5*%
X145748214Y-28709880D02*
X145748214Y-27709880D01*
X145414880Y-28424166D01*
X145081547Y-27709880D01*
X145081547Y-28709880D01*
X144700595Y-27709880D02*
X144033928Y-28709880D01*
X144033928Y-27709880D02*
X144700595Y-28709880D01*
X143176785Y-27709880D02*
X143652976Y-27709880D01*
X143700595Y-28186071D01*
X143652976Y-28138452D01*
X143557738Y-28090833D01*
X143319642Y-28090833D01*
X143224404Y-28138452D01*
X143176785Y-28186071D01*
X143129166Y-28281309D01*
X143129166Y-28519404D01*
X143176785Y-28614642D01*
X143224404Y-28662261D01*
X143319642Y-28709880D01*
X143557738Y-28709880D01*
X143652976Y-28662261D01*
X143700595Y-28614642D01*
%TO.C,MX4*%
X164798214Y-22359880D02*
X164798214Y-21359880D01*
X164464880Y-22074166D01*
X164131547Y-21359880D01*
X164131547Y-22359880D01*
X163750595Y-21359880D02*
X163083928Y-22359880D01*
X163083928Y-21359880D02*
X163750595Y-22359880D01*
X162274404Y-21693214D02*
X162274404Y-22359880D01*
X162512500Y-21312261D02*
X162750595Y-22026547D01*
X162131547Y-22026547D01*
%TO.C,MX3*%
X183848214Y-19978630D02*
X183848214Y-18978630D01*
X183514880Y-19692916D01*
X183181547Y-18978630D01*
X183181547Y-19978630D01*
X182800595Y-18978630D02*
X182133928Y-19978630D01*
X182133928Y-18978630D02*
X182800595Y-19978630D01*
X181848214Y-18978630D02*
X181229166Y-18978630D01*
X181562500Y-19359583D01*
X181419642Y-19359583D01*
X181324404Y-19407202D01*
X181276785Y-19454821D01*
X181229166Y-19550059D01*
X181229166Y-19788154D01*
X181276785Y-19883392D01*
X181324404Y-19931011D01*
X181419642Y-19978630D01*
X181705357Y-19978630D01*
X181800595Y-19931011D01*
X181848214Y-19883392D01*
%TO.C,MX2*%
X202898214Y-22359880D02*
X202898214Y-21359880D01*
X202564880Y-22074166D01*
X202231547Y-21359880D01*
X202231547Y-22359880D01*
X201850595Y-21359880D02*
X201183928Y-22359880D01*
X201183928Y-21359880D02*
X201850595Y-22359880D01*
X200850595Y-21455119D02*
X200802976Y-21407500D01*
X200707738Y-21359880D01*
X200469642Y-21359880D01*
X200374404Y-21407500D01*
X200326785Y-21455119D01*
X200279166Y-21550357D01*
X200279166Y-21645595D01*
X200326785Y-21788452D01*
X200898214Y-22359880D01*
X200279166Y-22359880D01*
%TO.C,MX1*%
X221948214Y-24741130D02*
X221948214Y-23741130D01*
X221614880Y-24455416D01*
X221281547Y-23741130D01*
X221281547Y-24741130D01*
X220900595Y-23741130D02*
X220233928Y-24741130D01*
X220233928Y-23741130D02*
X220900595Y-24741130D01*
X219329166Y-24741130D02*
X219900595Y-24741130D01*
X219614880Y-24741130D02*
X219614880Y-23741130D01*
X219710119Y-23883988D01*
X219805357Y-23979226D01*
X219900595Y-24026845D01*
%TD*%
M02*
