%TF.GenerationSoftware,KiCad,Pcbnew,(5.1.9-0-10_14)*%
%TF.CreationDate,2021-09-05T14:47:07-05:00*%
%TF.ProjectId,wren-universal,7772656e-2d75-46e6-9976-657273616c2e,rev?*%
%TF.SameCoordinates,Original*%
%TF.FileFunction,Legend,Top*%
%TF.FilePolarity,Positive*%
%FSLAX46Y46*%
G04 Gerber Fmt 4.6, Leading zero omitted, Abs format (unit mm)*
G04 Created by KiCad (PCBNEW (5.1.9-0-10_14)) date 2021-09-05 14:47:07*
%MOMM*%
%LPD*%
G01*
G04 APERTURE LIST*
%ADD10C,0.150000*%
%ADD11C,0.010000*%
%ADD12C,0.381000*%
%ADD13C,0.120000*%
G04 APERTURE END LIST*
D10*
%TO.C,MX27*%
X98886250Y-94155500D02*
X99886250Y-94155500D01*
X99886250Y-108155500D02*
X98886250Y-108155500D01*
X112886250Y-107155500D02*
X112886250Y-108155500D01*
X112886250Y-108155500D02*
X111886250Y-108155500D01*
X111886250Y-94155500D02*
X112886250Y-94155500D01*
X112886250Y-94155500D02*
X112886250Y-95155500D01*
X98886250Y-108155500D02*
X98886250Y-107155500D01*
X98886250Y-95155500D02*
X98886250Y-94155500D01*
%TO.C,J1*%
X259270953Y-123570500D02*
X253988198Y-120520500D01*
X253988198Y-120520500D02*
X260038198Y-110041593D01*
X260038198Y-110041593D02*
X260254705Y-110166593D01*
X260254705Y-110166593D02*
X261254705Y-108434542D01*
X261298006Y-108459542D02*
X266104447Y-111234542D01*
X259270953Y-123570500D02*
X265320953Y-113091593D01*
X265320953Y-113091593D02*
X265104447Y-112966593D01*
X265104447Y-112966593D02*
X266104447Y-111234542D01*
%TO.C,MX39*%
X60786250Y-113205500D02*
X61786250Y-113205500D01*
X61786250Y-127205500D02*
X60786250Y-127205500D01*
X74786250Y-126205500D02*
X74786250Y-127205500D01*
X74786250Y-127205500D02*
X73786250Y-127205500D01*
X73786250Y-113205500D02*
X74786250Y-113205500D01*
X74786250Y-113205500D02*
X74786250Y-114205500D01*
X60786250Y-127205500D02*
X60786250Y-126205500D01*
X60786250Y-114205500D02*
X60786250Y-113205500D01*
%TO.C,MX36*%
X120317500Y-113205500D02*
X121317500Y-113205500D01*
X121317500Y-127205500D02*
X120317500Y-127205500D01*
X134317500Y-126205500D02*
X134317500Y-127205500D01*
X134317500Y-127205500D02*
X133317500Y-127205500D01*
X133317500Y-113205500D02*
X134317500Y-113205500D01*
X134317500Y-113205500D02*
X134317500Y-114205500D01*
X120317500Y-127205500D02*
X120317500Y-126205500D01*
X120317500Y-114205500D02*
X120317500Y-113205500D01*
D11*
%TO.C,FID3*%
G36*
X250978945Y-108686662D02*
G01*
X251033437Y-108744470D01*
X251038027Y-108832813D01*
X250996993Y-108917168D01*
X250945750Y-108954413D01*
X250886613Y-108964827D01*
X250749687Y-108980766D01*
X250541629Y-109001704D01*
X250269100Y-109027117D01*
X249938759Y-109056479D01*
X249557267Y-109089266D01*
X249131281Y-109124951D01*
X248667463Y-109163009D01*
X248172472Y-109202916D01*
X247652967Y-109244145D01*
X247115608Y-109286172D01*
X246567055Y-109328472D01*
X246013967Y-109370519D01*
X245463004Y-109411787D01*
X244920826Y-109451752D01*
X244394091Y-109489889D01*
X243889461Y-109525671D01*
X243413594Y-109558575D01*
X242973150Y-109588073D01*
X242637833Y-109609685D01*
X242249150Y-109633053D01*
X241809165Y-109657504D01*
X241327796Y-109682627D01*
X240814960Y-109708009D01*
X240280574Y-109733238D01*
X239734554Y-109757899D01*
X239186818Y-109781582D01*
X238647282Y-109803874D01*
X238125863Y-109824361D01*
X237632479Y-109842631D01*
X237177047Y-109858271D01*
X236769482Y-109870870D01*
X236419703Y-109880013D01*
X236137626Y-109885289D01*
X235986100Y-109886460D01*
X235762049Y-109883697D01*
X235609462Y-109874074D01*
X235515302Y-109856079D01*
X235466534Y-109828201D01*
X235464579Y-109825956D01*
X235434455Y-109738699D01*
X235472369Y-109657400D01*
X235562911Y-109602333D01*
X235643739Y-109590208D01*
X235809132Y-109588037D01*
X236049890Y-109582156D01*
X236356812Y-109572945D01*
X236720695Y-109560785D01*
X237132336Y-109546055D01*
X237582534Y-109529135D01*
X238062086Y-109510406D01*
X238561790Y-109490246D01*
X239072444Y-109469036D01*
X239584845Y-109447156D01*
X240089790Y-109424986D01*
X240578079Y-109402906D01*
X241040508Y-109381294D01*
X241467875Y-109360533D01*
X241850978Y-109341001D01*
X242180614Y-109323078D01*
X242341500Y-109313700D01*
X242708472Y-109290634D01*
X243150168Y-109261184D01*
X243656944Y-109226071D01*
X244219155Y-109186011D01*
X244827157Y-109141722D01*
X245471306Y-109093923D01*
X246141957Y-109043331D01*
X246829466Y-108990665D01*
X247524188Y-108936642D01*
X248216480Y-108881980D01*
X248896696Y-108827398D01*
X249148028Y-108806988D01*
X249527972Y-108776698D01*
X249882872Y-108749692D01*
X250203594Y-108726570D01*
X250481005Y-108707934D01*
X250705973Y-108694382D01*
X250869364Y-108686516D01*
X250962045Y-108684935D01*
X250978945Y-108686662D01*
G37*
X250978945Y-108686662D02*
X251033437Y-108744470D01*
X251038027Y-108832813D01*
X250996993Y-108917168D01*
X250945750Y-108954413D01*
X250886613Y-108964827D01*
X250749687Y-108980766D01*
X250541629Y-109001704D01*
X250269100Y-109027117D01*
X249938759Y-109056479D01*
X249557267Y-109089266D01*
X249131281Y-109124951D01*
X248667463Y-109163009D01*
X248172472Y-109202916D01*
X247652967Y-109244145D01*
X247115608Y-109286172D01*
X246567055Y-109328472D01*
X246013967Y-109370519D01*
X245463004Y-109411787D01*
X244920826Y-109451752D01*
X244394091Y-109489889D01*
X243889461Y-109525671D01*
X243413594Y-109558575D01*
X242973150Y-109588073D01*
X242637833Y-109609685D01*
X242249150Y-109633053D01*
X241809165Y-109657504D01*
X241327796Y-109682627D01*
X240814960Y-109708009D01*
X240280574Y-109733238D01*
X239734554Y-109757899D01*
X239186818Y-109781582D01*
X238647282Y-109803874D01*
X238125863Y-109824361D01*
X237632479Y-109842631D01*
X237177047Y-109858271D01*
X236769482Y-109870870D01*
X236419703Y-109880013D01*
X236137626Y-109885289D01*
X235986100Y-109886460D01*
X235762049Y-109883697D01*
X235609462Y-109874074D01*
X235515302Y-109856079D01*
X235466534Y-109828201D01*
X235464579Y-109825956D01*
X235434455Y-109738699D01*
X235472369Y-109657400D01*
X235562911Y-109602333D01*
X235643739Y-109590208D01*
X235809132Y-109588037D01*
X236049890Y-109582156D01*
X236356812Y-109572945D01*
X236720695Y-109560785D01*
X237132336Y-109546055D01*
X237582534Y-109529135D01*
X238062086Y-109510406D01*
X238561790Y-109490246D01*
X239072444Y-109469036D01*
X239584845Y-109447156D01*
X240089790Y-109424986D01*
X240578079Y-109402906D01*
X241040508Y-109381294D01*
X241467875Y-109360533D01*
X241850978Y-109341001D01*
X242180614Y-109323078D01*
X242341500Y-109313700D01*
X242708472Y-109290634D01*
X243150168Y-109261184D01*
X243656944Y-109226071D01*
X244219155Y-109186011D01*
X244827157Y-109141722D01*
X245471306Y-109093923D01*
X246141957Y-109043331D01*
X246829466Y-108990665D01*
X247524188Y-108936642D01*
X248216480Y-108881980D01*
X248896696Y-108827398D01*
X249148028Y-108806988D01*
X249527972Y-108776698D01*
X249882872Y-108749692D01*
X250203594Y-108726570D01*
X250481005Y-108707934D01*
X250705973Y-108694382D01*
X250869364Y-108686516D01*
X250962045Y-108684935D01*
X250978945Y-108686662D01*
G36*
X241386311Y-95922606D02*
G01*
X241443174Y-95925175D01*
X241584855Y-95933166D01*
X241699314Y-95945675D01*
X241804282Y-95968624D01*
X241917486Y-96007939D01*
X242056656Y-96069542D01*
X242239522Y-96159357D01*
X242424175Y-96252951D01*
X243033268Y-96562946D01*
X243530129Y-96449646D01*
X243969847Y-96367023D01*
X244355283Y-96335887D01*
X244701121Y-96358616D01*
X245022047Y-96437586D01*
X245332746Y-96575176D01*
X245647904Y-96773762D01*
X245681317Y-96797859D01*
X245900294Y-97003457D01*
X246102308Y-97285895D01*
X246283681Y-97638394D01*
X246440730Y-98054175D01*
X246529033Y-98359049D01*
X246589380Y-98648211D01*
X246642010Y-99017770D01*
X246686552Y-99463779D01*
X246722634Y-99982286D01*
X246749886Y-100569344D01*
X246757114Y-100785183D01*
X246767755Y-101124306D01*
X246777378Y-101390400D01*
X246787197Y-101595077D01*
X246798429Y-101749945D01*
X246812288Y-101866614D01*
X246829990Y-101956694D01*
X246852750Y-102031794D01*
X246881782Y-102103525D01*
X246899131Y-102141974D01*
X246987426Y-102301656D01*
X247107215Y-102477726D01*
X247209652Y-102605212D01*
X247373910Y-102806557D01*
X247483877Y-102989970D01*
X247549004Y-103181692D01*
X247578745Y-103407965D01*
X247583309Y-103642583D01*
X247561645Y-104016817D01*
X247507311Y-104387976D01*
X247425031Y-104736612D01*
X247319527Y-105043281D01*
X247195521Y-105288535D01*
X247176511Y-105317513D01*
X247041004Y-105483875D01*
X246897253Y-105580445D01*
X246719538Y-105620273D01*
X246576331Y-105622020D01*
X246309313Y-105611791D01*
X246008785Y-105988144D01*
X245873790Y-106152430D01*
X245743566Y-106302614D01*
X245635091Y-106419549D01*
X245577380Y-106474624D01*
X245446503Y-106584750D01*
X245650835Y-106584677D01*
X245756409Y-106581720D01*
X245937206Y-106573285D01*
X246184000Y-106559958D01*
X246487564Y-106542325D01*
X246838674Y-106520970D01*
X247228102Y-106496480D01*
X247646622Y-106469440D01*
X248085008Y-106440435D01*
X248534034Y-106410050D01*
X248984475Y-106378872D01*
X249427103Y-106347486D01*
X249698987Y-106327782D01*
X250013724Y-106305704D01*
X250302562Y-106287239D01*
X250554270Y-106272963D01*
X250757618Y-106263450D01*
X250901374Y-106259276D01*
X250974308Y-106261017D01*
X250979571Y-106262186D01*
X251025581Y-106318162D01*
X251039755Y-106410476D01*
X251019643Y-106496068D01*
X250994447Y-106523857D01*
X250940857Y-106534156D01*
X250810514Y-106549055D01*
X250611172Y-106567971D01*
X250350586Y-106590321D01*
X250036510Y-106615522D01*
X249676699Y-106642991D01*
X249278908Y-106672145D01*
X248850890Y-106702401D01*
X248400400Y-106733176D01*
X247935193Y-106763887D01*
X247463024Y-106793952D01*
X247125166Y-106814745D01*
X246810972Y-106834088D01*
X246509102Y-106853227D01*
X246234724Y-106871157D01*
X246003004Y-106886875D01*
X245829111Y-106899376D01*
X245744966Y-106906108D01*
X245465433Y-106930760D01*
X245527280Y-107107005D01*
X245561002Y-107258754D01*
X245580678Y-107461183D01*
X245585591Y-107681363D01*
X245575024Y-107886365D01*
X245548263Y-108043257D01*
X245547684Y-108045250D01*
X245504560Y-108137443D01*
X245430369Y-108170167D01*
X245386454Y-108172250D01*
X245262500Y-108172250D01*
X245262284Y-107706583D01*
X245251629Y-107409224D01*
X245220735Y-107179944D01*
X245170753Y-107022768D01*
X245102835Y-106941717D01*
X245041048Y-106933256D01*
X244985302Y-106974488D01*
X244981232Y-107010597D01*
X244990958Y-107079909D01*
X245003166Y-107208671D01*
X245015543Y-107371805D01*
X245018087Y-107410250D01*
X245026656Y-107586040D01*
X245022536Y-107701095D01*
X245002284Y-107778838D01*
X244962458Y-107842694D01*
X244952757Y-107854750D01*
X244881787Y-107924306D01*
X244821989Y-107930180D01*
X244788902Y-107913673D01*
X244748504Y-107873520D01*
X244723709Y-107801148D01*
X244710396Y-107677770D01*
X244705302Y-107532673D01*
X244696044Y-107355236D01*
X244677961Y-107196007D01*
X244654738Y-107086190D01*
X244651543Y-107077195D01*
X244604648Y-106955807D01*
X244213907Y-106983006D01*
X244101451Y-106989763D01*
X243921103Y-106999301D01*
X243684844Y-107011082D01*
X243404651Y-107024569D01*
X243092505Y-107039223D01*
X242760385Y-107054505D01*
X242420271Y-107069879D01*
X242084142Y-107084806D01*
X241763976Y-107098747D01*
X241471755Y-107111165D01*
X241219456Y-107121522D01*
X241019060Y-107129280D01*
X240882546Y-107133901D01*
X240830243Y-107134983D01*
X240786841Y-107142471D01*
X240781817Y-107179461D01*
X240813902Y-107268007D01*
X240821523Y-107286350D01*
X240858983Y-107424777D01*
X240875410Y-107591856D01*
X240871988Y-107762594D01*
X240849903Y-107912002D01*
X240810340Y-108015087D01*
X240785750Y-108040614D01*
X240692371Y-108071941D01*
X240625888Y-108029280D01*
X240584612Y-107910046D01*
X240566851Y-107711651D01*
X240566684Y-107705285D01*
X240543231Y-107456164D01*
X240488181Y-107275327D01*
X240403496Y-107167024D01*
X240303883Y-107135083D01*
X240227696Y-107145895D01*
X240218564Y-107188501D01*
X240226255Y-107209166D01*
X240306690Y-107453287D01*
X240349145Y-107706580D01*
X240352811Y-107946761D01*
X240316880Y-108151547D01*
X240264675Y-108266659D01*
X240201375Y-108344583D01*
X240141235Y-108354523D01*
X240077677Y-108321937D01*
X240046125Y-108279873D01*
X240026422Y-108192466D01*
X240016480Y-108045472D01*
X240014177Y-107888668D01*
X240005936Y-107641858D01*
X239981092Y-107460675D01*
X239940130Y-107333502D01*
X239867094Y-107172089D01*
X238458463Y-107206502D01*
X238069252Y-107215304D01*
X237661210Y-107223274D01*
X237254128Y-107230113D01*
X236867797Y-107235522D01*
X236522008Y-107239203D01*
X236236551Y-107240855D01*
X236182000Y-107240916D01*
X235314166Y-107240916D01*
X235300748Y-107124259D01*
X235309409Y-107026618D01*
X235344234Y-106985765D01*
X235399176Y-106979488D01*
X235528156Y-106971961D01*
X235720562Y-106963583D01*
X235965780Y-106954752D01*
X236253198Y-106945864D01*
X236572205Y-106937319D01*
X236749413Y-106933089D01*
X238097687Y-106902250D01*
X238090076Y-106427775D01*
X238092302Y-106381861D01*
X238398639Y-106381861D01*
X238408244Y-106601633D01*
X238435525Y-106893684D01*
X239351345Y-106865671D01*
X239659407Y-106855910D01*
X240026914Y-106843719D01*
X240428709Y-106829967D01*
X240839636Y-106815521D01*
X241234537Y-106801250D01*
X241452500Y-106793163D01*
X241840952Y-106777990D01*
X242274322Y-106760067D01*
X242723745Y-106740653D01*
X243160362Y-106721006D01*
X243555309Y-106702387D01*
X243724241Y-106694051D01*
X244056305Y-106677077D01*
X244315226Y-106662601D01*
X244512431Y-106649122D01*
X244659352Y-106635139D01*
X244767414Y-106619153D01*
X244848049Y-106599661D01*
X244912684Y-106575164D01*
X244972749Y-106544161D01*
X245004266Y-106525969D01*
X245232416Y-106361504D01*
X245477186Y-106129933D01*
X245727304Y-105844087D01*
X245971499Y-105516800D01*
X246109014Y-105301998D01*
X246511333Y-105301998D01*
X246548510Y-105310426D01*
X246640447Y-105308640D01*
X246665877Y-105306722D01*
X246817523Y-105262413D01*
X246898564Y-105187750D01*
X246992557Y-105019434D01*
X247078379Y-104790132D01*
X247152839Y-104519125D01*
X247212747Y-104225693D01*
X247254913Y-103929118D01*
X247276147Y-103648679D01*
X247273257Y-103403658D01*
X247243055Y-103213334D01*
X247231197Y-103177435D01*
X247184699Y-103087844D01*
X247110718Y-102976172D01*
X247026478Y-102864912D01*
X246949204Y-102776555D01*
X246896120Y-102733593D01*
X246890394Y-102732416D01*
X246870213Y-102770974D01*
X246844395Y-102872903D01*
X246817991Y-103017585D01*
X246813848Y-103044683D01*
X246791173Y-103236275D01*
X246791246Y-103383675D01*
X246815262Y-103524567D01*
X246830970Y-103584433D01*
X246892180Y-103836458D01*
X246919241Y-104053328D01*
X246909562Y-104257462D01*
X246860554Y-104471278D01*
X246769629Y-104717197D01*
X246675687Y-104929026D01*
X246603874Y-105085995D01*
X246547976Y-105211614D01*
X246515933Y-105287868D01*
X246511333Y-105301998D01*
X246109014Y-105301998D01*
X246188828Y-105177327D01*
X246366272Y-104861028D01*
X246491730Y-104594592D01*
X246568526Y-104363779D01*
X246599989Y-104154353D01*
X246589443Y-103952073D01*
X246540216Y-103742703D01*
X246530851Y-103713313D01*
X246481087Y-103445129D01*
X246487238Y-103122225D01*
X246548964Y-102753150D01*
X246573152Y-102654235D01*
X246607487Y-102510932D01*
X246619315Y-102405595D01*
X246607175Y-102302916D01*
X246569608Y-102167588D01*
X246550522Y-102107045D01*
X246522916Y-102012060D01*
X246500645Y-101911647D01*
X246482722Y-101794089D01*
X246468157Y-101647668D01*
X246455961Y-101460667D01*
X246445145Y-101221367D01*
X246434720Y-100918053D01*
X246426433Y-100636916D01*
X246408885Y-100130549D01*
X246386149Y-99696147D01*
X246356797Y-99321089D01*
X246319396Y-98992758D01*
X246272519Y-98698533D01*
X246214734Y-98425796D01*
X246146827Y-98169556D01*
X246002800Y-97762197D01*
X245825124Y-97426950D01*
X245607604Y-97155835D01*
X245344048Y-96940872D01*
X245081872Y-96797552D01*
X244842589Y-96706404D01*
X244603377Y-96655054D01*
X244346370Y-96643006D01*
X244053703Y-96669766D01*
X243707509Y-96734838D01*
X243611500Y-96756800D01*
X243383257Y-96808660D01*
X243162723Y-96855556D01*
X242974292Y-96892498D01*
X242842359Y-96914497D01*
X242837279Y-96915167D01*
X242715568Y-96935541D01*
X242639648Y-96957320D01*
X242625855Y-96970171D01*
X242650747Y-97018803D01*
X242702985Y-97119124D01*
X242760592Y-97229083D01*
X242918051Y-97580501D01*
X243044821Y-97967794D01*
X243137749Y-98371658D01*
X243193679Y-98772790D01*
X243209457Y-99151888D01*
X243181928Y-99489648D01*
X243152892Y-99629549D01*
X243094192Y-99788778D01*
X243011278Y-99938981D01*
X242972976Y-99989841D01*
X242927149Y-100041449D01*
X242878151Y-100092221D01*
X242817361Y-100149443D01*
X242736153Y-100220404D01*
X242625905Y-100312389D01*
X242477993Y-100432687D01*
X242283794Y-100588585D01*
X242034684Y-100787370D01*
X241939333Y-100863324D01*
X241682187Y-101075274D01*
X241390060Y-101328020D01*
X241078878Y-101606792D01*
X240764568Y-101896820D01*
X240463060Y-102183333D01*
X240190279Y-102451562D01*
X239962154Y-102686735D01*
X239896625Y-102757605D01*
X239505109Y-103225595D01*
X239182246Y-103697708D01*
X238913913Y-104195870D01*
X238789340Y-104477081D01*
X238723326Y-104638737D01*
X238671786Y-104769103D01*
X238641918Y-104849758D01*
X238637333Y-104866156D01*
X238668218Y-104852747D01*
X238750529Y-104798033D01*
X238868746Y-104712545D01*
X238916432Y-104676773D01*
X239196950Y-104480812D01*
X239453308Y-104340579D01*
X239711422Y-104243535D01*
X239917474Y-104192424D01*
X240371460Y-104061443D01*
X240813211Y-103861932D01*
X241227009Y-103604275D01*
X241597133Y-103298856D01*
X241907866Y-102956062D01*
X242014464Y-102807100D01*
X242118635Y-102687730D01*
X242217286Y-102651343D01*
X242308633Y-102698477D01*
X242323028Y-102714496D01*
X242347439Y-102788679D01*
X242317776Y-102893175D01*
X242230818Y-103033005D01*
X242083348Y-103213190D01*
X241872145Y-103438751D01*
X241833500Y-103478094D01*
X241478644Y-103801096D01*
X241108175Y-104061702D01*
X240704727Y-104269289D01*
X240250937Y-104433235D01*
X239888612Y-104528297D01*
X239644631Y-104611582D01*
X239381665Y-104747081D01*
X239119509Y-104920161D01*
X238877955Y-105116188D01*
X238676798Y-105320527D01*
X238535832Y-105518543D01*
X238527108Y-105534908D01*
X238474796Y-105683366D01*
X238434074Y-105890820D01*
X238407752Y-106132057D01*
X238398639Y-106381861D01*
X238092302Y-106381861D01*
X238121593Y-105777752D01*
X238236291Y-105137308D01*
X238432927Y-104509601D01*
X238710259Y-103897789D01*
X239067044Y-103305031D01*
X239502040Y-102734486D01*
X239576818Y-102647750D01*
X239819414Y-102384082D01*
X240115011Y-102084149D01*
X240448420Y-101761875D01*
X240804454Y-101431184D01*
X241167925Y-101105999D01*
X241523646Y-100800244D01*
X241856430Y-100527843D01*
X242066333Y-100365413D01*
X242339067Y-100154170D01*
X242546093Y-99978524D01*
X242694882Y-99831496D01*
X242792908Y-99706105D01*
X242818099Y-99663250D01*
X242857723Y-99534662D01*
X242880822Y-99342694D01*
X242887734Y-99106940D01*
X242878795Y-98846990D01*
X242854342Y-98582436D01*
X242814710Y-98332870D01*
X242793606Y-98237177D01*
X242650569Y-97754541D01*
X242472411Y-97346010D01*
X242255376Y-97007047D01*
X241995710Y-96733114D01*
X241689661Y-96519676D01*
X241333473Y-96362194D01*
X241210097Y-96323396D01*
X241027240Y-96254055D01*
X240922654Y-96175303D01*
X240898380Y-96089988D01*
X240956459Y-96000959D01*
X240970497Y-95988992D01*
X241031599Y-95949174D01*
X241106971Y-95926768D01*
X241218059Y-95918877D01*
X241386311Y-95922606D01*
G37*
X241386311Y-95922606D02*
X241443174Y-95925175D01*
X241584855Y-95933166D01*
X241699314Y-95945675D01*
X241804282Y-95968624D01*
X241917486Y-96007939D01*
X242056656Y-96069542D01*
X242239522Y-96159357D01*
X242424175Y-96252951D01*
X243033268Y-96562946D01*
X243530129Y-96449646D01*
X243969847Y-96367023D01*
X244355283Y-96335887D01*
X244701121Y-96358616D01*
X245022047Y-96437586D01*
X245332746Y-96575176D01*
X245647904Y-96773762D01*
X245681317Y-96797859D01*
X245900294Y-97003457D01*
X246102308Y-97285895D01*
X246283681Y-97638394D01*
X246440730Y-98054175D01*
X246529033Y-98359049D01*
X246589380Y-98648211D01*
X246642010Y-99017770D01*
X246686552Y-99463779D01*
X246722634Y-99982286D01*
X246749886Y-100569344D01*
X246757114Y-100785183D01*
X246767755Y-101124306D01*
X246777378Y-101390400D01*
X246787197Y-101595077D01*
X246798429Y-101749945D01*
X246812288Y-101866614D01*
X246829990Y-101956694D01*
X246852750Y-102031794D01*
X246881782Y-102103525D01*
X246899131Y-102141974D01*
X246987426Y-102301656D01*
X247107215Y-102477726D01*
X247209652Y-102605212D01*
X247373910Y-102806557D01*
X247483877Y-102989970D01*
X247549004Y-103181692D01*
X247578745Y-103407965D01*
X247583309Y-103642583D01*
X247561645Y-104016817D01*
X247507311Y-104387976D01*
X247425031Y-104736612D01*
X247319527Y-105043281D01*
X247195521Y-105288535D01*
X247176511Y-105317513D01*
X247041004Y-105483875D01*
X246897253Y-105580445D01*
X246719538Y-105620273D01*
X246576331Y-105622020D01*
X246309313Y-105611791D01*
X246008785Y-105988144D01*
X245873790Y-106152430D01*
X245743566Y-106302614D01*
X245635091Y-106419549D01*
X245577380Y-106474624D01*
X245446503Y-106584750D01*
X245650835Y-106584677D01*
X245756409Y-106581720D01*
X245937206Y-106573285D01*
X246184000Y-106559958D01*
X246487564Y-106542325D01*
X246838674Y-106520970D01*
X247228102Y-106496480D01*
X247646622Y-106469440D01*
X248085008Y-106440435D01*
X248534034Y-106410050D01*
X248984475Y-106378872D01*
X249427103Y-106347486D01*
X249698987Y-106327782D01*
X250013724Y-106305704D01*
X250302562Y-106287239D01*
X250554270Y-106272963D01*
X250757618Y-106263450D01*
X250901374Y-106259276D01*
X250974308Y-106261017D01*
X250979571Y-106262186D01*
X251025581Y-106318162D01*
X251039755Y-106410476D01*
X251019643Y-106496068D01*
X250994447Y-106523857D01*
X250940857Y-106534156D01*
X250810514Y-106549055D01*
X250611172Y-106567971D01*
X250350586Y-106590321D01*
X250036510Y-106615522D01*
X249676699Y-106642991D01*
X249278908Y-106672145D01*
X248850890Y-106702401D01*
X248400400Y-106733176D01*
X247935193Y-106763887D01*
X247463024Y-106793952D01*
X247125166Y-106814745D01*
X246810972Y-106834088D01*
X246509102Y-106853227D01*
X246234724Y-106871157D01*
X246003004Y-106886875D01*
X245829111Y-106899376D01*
X245744966Y-106906108D01*
X245465433Y-106930760D01*
X245527280Y-107107005D01*
X245561002Y-107258754D01*
X245580678Y-107461183D01*
X245585591Y-107681363D01*
X245575024Y-107886365D01*
X245548263Y-108043257D01*
X245547684Y-108045250D01*
X245504560Y-108137443D01*
X245430369Y-108170167D01*
X245386454Y-108172250D01*
X245262500Y-108172250D01*
X245262284Y-107706583D01*
X245251629Y-107409224D01*
X245220735Y-107179944D01*
X245170753Y-107022768D01*
X245102835Y-106941717D01*
X245041048Y-106933256D01*
X244985302Y-106974488D01*
X244981232Y-107010597D01*
X244990958Y-107079909D01*
X245003166Y-107208671D01*
X245015543Y-107371805D01*
X245018087Y-107410250D01*
X245026656Y-107586040D01*
X245022536Y-107701095D01*
X245002284Y-107778838D01*
X244962458Y-107842694D01*
X244952757Y-107854750D01*
X244881787Y-107924306D01*
X244821989Y-107930180D01*
X244788902Y-107913673D01*
X244748504Y-107873520D01*
X244723709Y-107801148D01*
X244710396Y-107677770D01*
X244705302Y-107532673D01*
X244696044Y-107355236D01*
X244677961Y-107196007D01*
X244654738Y-107086190D01*
X244651543Y-107077195D01*
X244604648Y-106955807D01*
X244213907Y-106983006D01*
X244101451Y-106989763D01*
X243921103Y-106999301D01*
X243684844Y-107011082D01*
X243404651Y-107024569D01*
X243092505Y-107039223D01*
X242760385Y-107054505D01*
X242420271Y-107069879D01*
X242084142Y-107084806D01*
X241763976Y-107098747D01*
X241471755Y-107111165D01*
X241219456Y-107121522D01*
X241019060Y-107129280D01*
X240882546Y-107133901D01*
X240830243Y-107134983D01*
X240786841Y-107142471D01*
X240781817Y-107179461D01*
X240813902Y-107268007D01*
X240821523Y-107286350D01*
X240858983Y-107424777D01*
X240875410Y-107591856D01*
X240871988Y-107762594D01*
X240849903Y-107912002D01*
X240810340Y-108015087D01*
X240785750Y-108040614D01*
X240692371Y-108071941D01*
X240625888Y-108029280D01*
X240584612Y-107910046D01*
X240566851Y-107711651D01*
X240566684Y-107705285D01*
X240543231Y-107456164D01*
X240488181Y-107275327D01*
X240403496Y-107167024D01*
X240303883Y-107135083D01*
X240227696Y-107145895D01*
X240218564Y-107188501D01*
X240226255Y-107209166D01*
X240306690Y-107453287D01*
X240349145Y-107706580D01*
X240352811Y-107946761D01*
X240316880Y-108151547D01*
X240264675Y-108266659D01*
X240201375Y-108344583D01*
X240141235Y-108354523D01*
X240077677Y-108321937D01*
X240046125Y-108279873D01*
X240026422Y-108192466D01*
X240016480Y-108045472D01*
X240014177Y-107888668D01*
X240005936Y-107641858D01*
X239981092Y-107460675D01*
X239940130Y-107333502D01*
X239867094Y-107172089D01*
X238458463Y-107206502D01*
X238069252Y-107215304D01*
X237661210Y-107223274D01*
X237254128Y-107230113D01*
X236867797Y-107235522D01*
X236522008Y-107239203D01*
X236236551Y-107240855D01*
X236182000Y-107240916D01*
X235314166Y-107240916D01*
X235300748Y-107124259D01*
X235309409Y-107026618D01*
X235344234Y-106985765D01*
X235399176Y-106979488D01*
X235528156Y-106971961D01*
X235720562Y-106963583D01*
X235965780Y-106954752D01*
X236253198Y-106945864D01*
X236572205Y-106937319D01*
X236749413Y-106933089D01*
X238097687Y-106902250D01*
X238090076Y-106427775D01*
X238092302Y-106381861D01*
X238398639Y-106381861D01*
X238408244Y-106601633D01*
X238435525Y-106893684D01*
X239351345Y-106865671D01*
X239659407Y-106855910D01*
X240026914Y-106843719D01*
X240428709Y-106829967D01*
X240839636Y-106815521D01*
X241234537Y-106801250D01*
X241452500Y-106793163D01*
X241840952Y-106777990D01*
X242274322Y-106760067D01*
X242723745Y-106740653D01*
X243160362Y-106721006D01*
X243555309Y-106702387D01*
X243724241Y-106694051D01*
X244056305Y-106677077D01*
X244315226Y-106662601D01*
X244512431Y-106649122D01*
X244659352Y-106635139D01*
X244767414Y-106619153D01*
X244848049Y-106599661D01*
X244912684Y-106575164D01*
X244972749Y-106544161D01*
X245004266Y-106525969D01*
X245232416Y-106361504D01*
X245477186Y-106129933D01*
X245727304Y-105844087D01*
X245971499Y-105516800D01*
X246109014Y-105301998D01*
X246511333Y-105301998D01*
X246548510Y-105310426D01*
X246640447Y-105308640D01*
X246665877Y-105306722D01*
X246817523Y-105262413D01*
X246898564Y-105187750D01*
X246992557Y-105019434D01*
X247078379Y-104790132D01*
X247152839Y-104519125D01*
X247212747Y-104225693D01*
X247254913Y-103929118D01*
X247276147Y-103648679D01*
X247273257Y-103403658D01*
X247243055Y-103213334D01*
X247231197Y-103177435D01*
X247184699Y-103087844D01*
X247110718Y-102976172D01*
X247026478Y-102864912D01*
X246949204Y-102776555D01*
X246896120Y-102733593D01*
X246890394Y-102732416D01*
X246870213Y-102770974D01*
X246844395Y-102872903D01*
X246817991Y-103017585D01*
X246813848Y-103044683D01*
X246791173Y-103236275D01*
X246791246Y-103383675D01*
X246815262Y-103524567D01*
X246830970Y-103584433D01*
X246892180Y-103836458D01*
X246919241Y-104053328D01*
X246909562Y-104257462D01*
X246860554Y-104471278D01*
X246769629Y-104717197D01*
X246675687Y-104929026D01*
X246603874Y-105085995D01*
X246547976Y-105211614D01*
X246515933Y-105287868D01*
X246511333Y-105301998D01*
X246109014Y-105301998D01*
X246188828Y-105177327D01*
X246366272Y-104861028D01*
X246491730Y-104594592D01*
X246568526Y-104363779D01*
X246599989Y-104154353D01*
X246589443Y-103952073D01*
X246540216Y-103742703D01*
X246530851Y-103713313D01*
X246481087Y-103445129D01*
X246487238Y-103122225D01*
X246548964Y-102753150D01*
X246573152Y-102654235D01*
X246607487Y-102510932D01*
X246619315Y-102405595D01*
X246607175Y-102302916D01*
X246569608Y-102167588D01*
X246550522Y-102107045D01*
X246522916Y-102012060D01*
X246500645Y-101911647D01*
X246482722Y-101794089D01*
X246468157Y-101647668D01*
X246455961Y-101460667D01*
X246445145Y-101221367D01*
X246434720Y-100918053D01*
X246426433Y-100636916D01*
X246408885Y-100130549D01*
X246386149Y-99696147D01*
X246356797Y-99321089D01*
X246319396Y-98992758D01*
X246272519Y-98698533D01*
X246214734Y-98425796D01*
X246146827Y-98169556D01*
X246002800Y-97762197D01*
X245825124Y-97426950D01*
X245607604Y-97155835D01*
X245344048Y-96940872D01*
X245081872Y-96797552D01*
X244842589Y-96706404D01*
X244603377Y-96655054D01*
X244346370Y-96643006D01*
X244053703Y-96669766D01*
X243707509Y-96734838D01*
X243611500Y-96756800D01*
X243383257Y-96808660D01*
X243162723Y-96855556D01*
X242974292Y-96892498D01*
X242842359Y-96914497D01*
X242837279Y-96915167D01*
X242715568Y-96935541D01*
X242639648Y-96957320D01*
X242625855Y-96970171D01*
X242650747Y-97018803D01*
X242702985Y-97119124D01*
X242760592Y-97229083D01*
X242918051Y-97580501D01*
X243044821Y-97967794D01*
X243137749Y-98371658D01*
X243193679Y-98772790D01*
X243209457Y-99151888D01*
X243181928Y-99489648D01*
X243152892Y-99629549D01*
X243094192Y-99788778D01*
X243011278Y-99938981D01*
X242972976Y-99989841D01*
X242927149Y-100041449D01*
X242878151Y-100092221D01*
X242817361Y-100149443D01*
X242736153Y-100220404D01*
X242625905Y-100312389D01*
X242477993Y-100432687D01*
X242283794Y-100588585D01*
X242034684Y-100787370D01*
X241939333Y-100863324D01*
X241682187Y-101075274D01*
X241390060Y-101328020D01*
X241078878Y-101606792D01*
X240764568Y-101896820D01*
X240463060Y-102183333D01*
X240190279Y-102451562D01*
X239962154Y-102686735D01*
X239896625Y-102757605D01*
X239505109Y-103225595D01*
X239182246Y-103697708D01*
X238913913Y-104195870D01*
X238789340Y-104477081D01*
X238723326Y-104638737D01*
X238671786Y-104769103D01*
X238641918Y-104849758D01*
X238637333Y-104866156D01*
X238668218Y-104852747D01*
X238750529Y-104798033D01*
X238868746Y-104712545D01*
X238916432Y-104676773D01*
X239196950Y-104480812D01*
X239453308Y-104340579D01*
X239711422Y-104243535D01*
X239917474Y-104192424D01*
X240371460Y-104061443D01*
X240813211Y-103861932D01*
X241227009Y-103604275D01*
X241597133Y-103298856D01*
X241907866Y-102956062D01*
X242014464Y-102807100D01*
X242118635Y-102687730D01*
X242217286Y-102651343D01*
X242308633Y-102698477D01*
X242323028Y-102714496D01*
X242347439Y-102788679D01*
X242317776Y-102893175D01*
X242230818Y-103033005D01*
X242083348Y-103213190D01*
X241872145Y-103438751D01*
X241833500Y-103478094D01*
X241478644Y-103801096D01*
X241108175Y-104061702D01*
X240704727Y-104269289D01*
X240250937Y-104433235D01*
X239888612Y-104528297D01*
X239644631Y-104611582D01*
X239381665Y-104747081D01*
X239119509Y-104920161D01*
X238877955Y-105116188D01*
X238676798Y-105320527D01*
X238535832Y-105518543D01*
X238527108Y-105534908D01*
X238474796Y-105683366D01*
X238434074Y-105890820D01*
X238407752Y-106132057D01*
X238398639Y-106381861D01*
X238092302Y-106381861D01*
X238121593Y-105777752D01*
X238236291Y-105137308D01*
X238432927Y-104509601D01*
X238710259Y-103897789D01*
X239067044Y-103305031D01*
X239502040Y-102734486D01*
X239576818Y-102647750D01*
X239819414Y-102384082D01*
X240115011Y-102084149D01*
X240448420Y-101761875D01*
X240804454Y-101431184D01*
X241167925Y-101105999D01*
X241523646Y-100800244D01*
X241856430Y-100527843D01*
X242066333Y-100365413D01*
X242339067Y-100154170D01*
X242546093Y-99978524D01*
X242694882Y-99831496D01*
X242792908Y-99706105D01*
X242818099Y-99663250D01*
X242857723Y-99534662D01*
X242880822Y-99342694D01*
X242887734Y-99106940D01*
X242878795Y-98846990D01*
X242854342Y-98582436D01*
X242814710Y-98332870D01*
X242793606Y-98237177D01*
X242650569Y-97754541D01*
X242472411Y-97346010D01*
X242255376Y-97007047D01*
X241995710Y-96733114D01*
X241689661Y-96519676D01*
X241333473Y-96362194D01*
X241210097Y-96323396D01*
X241027240Y-96254055D01*
X240922654Y-96175303D01*
X240898380Y-96089988D01*
X240956459Y-96000959D01*
X240970497Y-95988992D01*
X241031599Y-95949174D01*
X241106971Y-95926768D01*
X241218059Y-95918877D01*
X241386311Y-95922606D01*
G36*
X245025703Y-97257347D02*
G01*
X245084873Y-97276749D01*
X245210406Y-97367822D01*
X245277759Y-97497498D01*
X245285886Y-97642163D01*
X245233744Y-97778208D01*
X245120287Y-97882022D01*
X245111845Y-97886536D01*
X245008152Y-97934649D01*
X244934931Y-97941916D01*
X244849143Y-97909487D01*
X244818834Y-97894374D01*
X244695795Y-97796094D01*
X244635932Y-97671654D01*
X244631859Y-97538206D01*
X244676187Y-97412900D01*
X244761529Y-97312888D01*
X244880497Y-97255320D01*
X245025703Y-97257347D01*
G37*
X245025703Y-97257347D02*
X245084873Y-97276749D01*
X245210406Y-97367822D01*
X245277759Y-97497498D01*
X245285886Y-97642163D01*
X245233744Y-97778208D01*
X245120287Y-97882022D01*
X245111845Y-97886536D01*
X245008152Y-97934649D01*
X244934931Y-97941916D01*
X244849143Y-97909487D01*
X244818834Y-97894374D01*
X244695795Y-97796094D01*
X244635932Y-97671654D01*
X244631859Y-97538206D01*
X244676187Y-97412900D01*
X244761529Y-97312888D01*
X244880497Y-97255320D01*
X245025703Y-97257347D01*
D10*
%TO.C,MX21*%
X215567500Y-90186750D02*
X216567500Y-90186750D01*
X216567500Y-104186750D02*
X215567500Y-104186750D01*
X229567500Y-103186750D02*
X229567500Y-104186750D01*
X229567500Y-104186750D02*
X228567500Y-104186750D01*
X228567500Y-90186750D02*
X229567500Y-90186750D01*
X229567500Y-90186750D02*
X229567500Y-91186750D01*
X215567500Y-104186750D02*
X215567500Y-103186750D01*
X215567500Y-91186750D02*
X215567500Y-90186750D01*
%TO.C,MX41*%
X231826822Y-138864928D02*
X232326822Y-137998902D01*
X244451178Y-144998902D02*
X243951178Y-145864928D01*
X250085152Y-133240572D02*
X250951178Y-133740572D01*
X250951178Y-133740572D02*
X250451178Y-134606598D01*
X238326822Y-127606598D02*
X238826822Y-126740572D01*
X238826822Y-126740572D02*
X239692848Y-127240572D01*
X243951178Y-145864928D02*
X243085152Y-145364928D01*
X232692848Y-139364928D02*
X231826822Y-138864928D01*
%TO.C,MX10*%
X41736250Y-56055500D02*
X42736250Y-56055500D01*
X42736250Y-70055500D02*
X41736250Y-70055500D01*
X55736250Y-69055500D02*
X55736250Y-70055500D01*
X55736250Y-70055500D02*
X54736250Y-70055500D01*
X54736250Y-56055500D02*
X55736250Y-56055500D01*
X55736250Y-56055500D02*
X55736250Y-57055500D01*
X41736250Y-70055500D02*
X41736250Y-69055500D01*
X41736250Y-57055500D02*
X41736250Y-56055500D01*
%TO.C,MX15*%
X139367500Y-75105500D02*
X140367500Y-75105500D01*
X140367500Y-89105500D02*
X139367500Y-89105500D01*
X153367500Y-88105500D02*
X153367500Y-89105500D01*
X153367500Y-89105500D02*
X152367500Y-89105500D01*
X152367500Y-75105500D02*
X153367500Y-75105500D01*
X153367500Y-75105500D02*
X153367500Y-76105500D01*
X139367500Y-89105500D02*
X139367500Y-88105500D01*
X139367500Y-76105500D02*
X139367500Y-75105500D01*
%TO.C,MX44*%
X168730000Y-128794750D02*
X169730000Y-128794750D01*
X169730000Y-142794750D02*
X168730000Y-142794750D01*
X182730000Y-141794750D02*
X182730000Y-142794750D01*
X182730000Y-142794750D02*
X181730000Y-142794750D01*
X181730000Y-128794750D02*
X182730000Y-128794750D01*
X182730000Y-128794750D02*
X182730000Y-129794750D01*
X168730000Y-142794750D02*
X168730000Y-141794750D01*
X168730000Y-129794750D02*
X168730000Y-128794750D01*
%TO.C,MX43*%
X187780000Y-128794750D02*
X188780000Y-128794750D01*
X188780000Y-142794750D02*
X187780000Y-142794750D01*
X201780000Y-141794750D02*
X201780000Y-142794750D01*
X201780000Y-142794750D02*
X200780000Y-142794750D01*
X200780000Y-128794750D02*
X201780000Y-128794750D01*
X201780000Y-128794750D02*
X201780000Y-129794750D01*
X187780000Y-142794750D02*
X187780000Y-141794750D01*
X187780000Y-129794750D02*
X187780000Y-128794750D01*
%TO.C,MX42*%
X206830000Y-131461750D02*
X207830000Y-131461750D01*
X207830000Y-145461750D02*
X206830000Y-145461750D01*
X220830000Y-144461750D02*
X220830000Y-145461750D01*
X220830000Y-145461750D02*
X219830000Y-145461750D01*
X219830000Y-131461750D02*
X220830000Y-131461750D01*
X220830000Y-131461750D02*
X220830000Y-132461750D01*
X206830000Y-145461750D02*
X206830000Y-144461750D01*
X206830000Y-132461750D02*
X206830000Y-131461750D01*
%TO.C,MX40*%
X41736250Y-113205500D02*
X42736250Y-113205500D01*
X42736250Y-127205500D02*
X41736250Y-127205500D01*
X55736250Y-126205500D02*
X55736250Y-127205500D01*
X55736250Y-127205500D02*
X54736250Y-127205500D01*
X54736250Y-113205500D02*
X55736250Y-113205500D01*
X55736250Y-113205500D02*
X55736250Y-114205500D01*
X41736250Y-127205500D02*
X41736250Y-126205500D01*
X41736250Y-114205500D02*
X41736250Y-113205500D01*
%TO.C,MX38*%
X79836250Y-113205500D02*
X80836250Y-113205500D01*
X80836250Y-127205500D02*
X79836250Y-127205500D01*
X93836250Y-126205500D02*
X93836250Y-127205500D01*
X93836250Y-127205500D02*
X92836250Y-127205500D01*
X92836250Y-113205500D02*
X93836250Y-113205500D01*
X93836250Y-113205500D02*
X93836250Y-114205500D01*
X79836250Y-127205500D02*
X79836250Y-126205500D01*
X79836250Y-114205500D02*
X79836250Y-113205500D01*
%TO.C,MX37*%
X98886250Y-113205500D02*
X99886250Y-113205500D01*
X99886250Y-127205500D02*
X98886250Y-127205500D01*
X112886250Y-126205500D02*
X112886250Y-127205500D01*
X112886250Y-127205500D02*
X111886250Y-127205500D01*
X111886250Y-113205500D02*
X112886250Y-113205500D01*
X112886250Y-113205500D02*
X112886250Y-114205500D01*
X98886250Y-127205500D02*
X98886250Y-126205500D01*
X98886250Y-114205500D02*
X98886250Y-113205500D01*
%TO.C,MX35*%
X139367500Y-113205500D02*
X140367500Y-113205500D01*
X140367500Y-127205500D02*
X139367500Y-127205500D01*
X153367500Y-126205500D02*
X153367500Y-127205500D01*
X153367500Y-127205500D02*
X152367500Y-127205500D01*
X152367500Y-113205500D02*
X153367500Y-113205500D01*
X153367500Y-113205500D02*
X153367500Y-114205500D01*
X139367500Y-127205500D02*
X139367500Y-126205500D01*
X139367500Y-114205500D02*
X139367500Y-113205500D01*
%TO.C,MX34*%
X158417500Y-106855500D02*
X159417500Y-106855500D01*
X159417500Y-120855500D02*
X158417500Y-120855500D01*
X172417500Y-119855500D02*
X172417500Y-120855500D01*
X172417500Y-120855500D02*
X171417500Y-120855500D01*
X171417500Y-106855500D02*
X172417500Y-106855500D01*
X172417500Y-106855500D02*
X172417500Y-107855500D01*
X158417500Y-120855500D02*
X158417500Y-119855500D01*
X158417500Y-107855500D02*
X158417500Y-106855500D01*
%TO.C,MX33*%
X177467500Y-104474250D02*
X178467500Y-104474250D01*
X178467500Y-118474250D02*
X177467500Y-118474250D01*
X191467500Y-117474250D02*
X191467500Y-118474250D01*
X191467500Y-118474250D02*
X190467500Y-118474250D01*
X190467500Y-104474250D02*
X191467500Y-104474250D01*
X191467500Y-104474250D02*
X191467500Y-105474250D01*
X177467500Y-118474250D02*
X177467500Y-117474250D01*
X177467500Y-105474250D02*
X177467500Y-104474250D01*
%TO.C,MX32*%
X196517500Y-106855500D02*
X197517500Y-106855500D01*
X197517500Y-120855500D02*
X196517500Y-120855500D01*
X210517500Y-119855500D02*
X210517500Y-120855500D01*
X210517500Y-120855500D02*
X209517500Y-120855500D01*
X209517500Y-106855500D02*
X210517500Y-106855500D01*
X210517500Y-106855500D02*
X210517500Y-107855500D01*
X196517500Y-120855500D02*
X196517500Y-119855500D01*
X196517500Y-107855500D02*
X196517500Y-106855500D01*
%TO.C,MX31*%
X215567500Y-109236750D02*
X216567500Y-109236750D01*
X216567500Y-123236750D02*
X215567500Y-123236750D01*
X229567500Y-122236750D02*
X229567500Y-123236750D01*
X229567500Y-123236750D02*
X228567500Y-123236750D01*
X228567500Y-109236750D02*
X229567500Y-109236750D01*
X229567500Y-109236750D02*
X229567500Y-110236750D01*
X215567500Y-123236750D02*
X215567500Y-122236750D01*
X215567500Y-110236750D02*
X215567500Y-109236750D01*
%TO.C,MX30*%
X41736250Y-94155500D02*
X42736250Y-94155500D01*
X42736250Y-108155500D02*
X41736250Y-108155500D01*
X55736250Y-107155500D02*
X55736250Y-108155500D01*
X55736250Y-108155500D02*
X54736250Y-108155500D01*
X54736250Y-94155500D02*
X55736250Y-94155500D01*
X55736250Y-94155500D02*
X55736250Y-95155500D01*
X41736250Y-108155500D02*
X41736250Y-107155500D01*
X41736250Y-95155500D02*
X41736250Y-94155500D01*
%TO.C,MX29*%
X60786250Y-94155500D02*
X61786250Y-94155500D01*
X61786250Y-108155500D02*
X60786250Y-108155500D01*
X74786250Y-107155500D02*
X74786250Y-108155500D01*
X74786250Y-108155500D02*
X73786250Y-108155500D01*
X73786250Y-94155500D02*
X74786250Y-94155500D01*
X74786250Y-94155500D02*
X74786250Y-95155500D01*
X60786250Y-108155500D02*
X60786250Y-107155500D01*
X60786250Y-95155500D02*
X60786250Y-94155500D01*
%TO.C,MX28*%
X79836250Y-94155500D02*
X80836250Y-94155500D01*
X80836250Y-108155500D02*
X79836250Y-108155500D01*
X93836250Y-107155500D02*
X93836250Y-108155500D01*
X93836250Y-108155500D02*
X92836250Y-108155500D01*
X92836250Y-94155500D02*
X93836250Y-94155500D01*
X93836250Y-94155500D02*
X93836250Y-95155500D01*
X79836250Y-108155500D02*
X79836250Y-107155500D01*
X79836250Y-95155500D02*
X79836250Y-94155500D01*
%TO.C,MX26*%
X120317500Y-94155500D02*
X121317500Y-94155500D01*
X121317500Y-108155500D02*
X120317500Y-108155500D01*
X134317500Y-107155500D02*
X134317500Y-108155500D01*
X134317500Y-108155500D02*
X133317500Y-108155500D01*
X133317500Y-94155500D02*
X134317500Y-94155500D01*
X134317500Y-94155500D02*
X134317500Y-95155500D01*
X120317500Y-108155500D02*
X120317500Y-107155500D01*
X120317500Y-95155500D02*
X120317500Y-94155500D01*
%TO.C,MX25*%
X139367500Y-94155500D02*
X140367500Y-94155500D01*
X140367500Y-108155500D02*
X139367500Y-108155500D01*
X153367500Y-107155500D02*
X153367500Y-108155500D01*
X153367500Y-108155500D02*
X152367500Y-108155500D01*
X152367500Y-94155500D02*
X153367500Y-94155500D01*
X153367500Y-94155500D02*
X153367500Y-95155500D01*
X139367500Y-108155500D02*
X139367500Y-107155500D01*
X139367500Y-95155500D02*
X139367500Y-94155500D01*
%TO.C,MX24*%
X158417500Y-87805500D02*
X159417500Y-87805500D01*
X159417500Y-101805500D02*
X158417500Y-101805500D01*
X172417500Y-100805500D02*
X172417500Y-101805500D01*
X172417500Y-101805500D02*
X171417500Y-101805500D01*
X171417500Y-87805500D02*
X172417500Y-87805500D01*
X172417500Y-87805500D02*
X172417500Y-88805500D01*
X158417500Y-101805500D02*
X158417500Y-100805500D01*
X158417500Y-88805500D02*
X158417500Y-87805500D01*
%TO.C,MX23*%
X177467500Y-85424250D02*
X178467500Y-85424250D01*
X178467500Y-99424250D02*
X177467500Y-99424250D01*
X191467500Y-98424250D02*
X191467500Y-99424250D01*
X191467500Y-99424250D02*
X190467500Y-99424250D01*
X190467500Y-85424250D02*
X191467500Y-85424250D01*
X191467500Y-85424250D02*
X191467500Y-86424250D01*
X177467500Y-99424250D02*
X177467500Y-98424250D01*
X177467500Y-86424250D02*
X177467500Y-85424250D01*
%TO.C,MX22*%
X196517500Y-87805500D02*
X197517500Y-87805500D01*
X197517500Y-101805500D02*
X196517500Y-101805500D01*
X210517500Y-100805500D02*
X210517500Y-101805500D01*
X210517500Y-101805500D02*
X209517500Y-101805500D01*
X209517500Y-87805500D02*
X210517500Y-87805500D01*
X210517500Y-87805500D02*
X210517500Y-88805500D01*
X196517500Y-101805500D02*
X196517500Y-100805500D01*
X196517500Y-88805500D02*
X196517500Y-87805500D01*
%TO.C,MX20*%
X41736250Y-75105500D02*
X42736250Y-75105500D01*
X42736250Y-89105500D02*
X41736250Y-89105500D01*
X55736250Y-88105500D02*
X55736250Y-89105500D01*
X55736250Y-89105500D02*
X54736250Y-89105500D01*
X54736250Y-75105500D02*
X55736250Y-75105500D01*
X55736250Y-75105500D02*
X55736250Y-76105500D01*
X41736250Y-89105500D02*
X41736250Y-88105500D01*
X41736250Y-76105500D02*
X41736250Y-75105500D01*
%TO.C,MX19*%
X60786250Y-75105500D02*
X61786250Y-75105500D01*
X61786250Y-89105500D02*
X60786250Y-89105500D01*
X74786250Y-88105500D02*
X74786250Y-89105500D01*
X74786250Y-89105500D02*
X73786250Y-89105500D01*
X73786250Y-75105500D02*
X74786250Y-75105500D01*
X74786250Y-75105500D02*
X74786250Y-76105500D01*
X60786250Y-89105500D02*
X60786250Y-88105500D01*
X60786250Y-76105500D02*
X60786250Y-75105500D01*
%TO.C,MX18*%
X79836250Y-75105500D02*
X80836250Y-75105500D01*
X80836250Y-89105500D02*
X79836250Y-89105500D01*
X93836250Y-88105500D02*
X93836250Y-89105500D01*
X93836250Y-89105500D02*
X92836250Y-89105500D01*
X92836250Y-75105500D02*
X93836250Y-75105500D01*
X93836250Y-75105500D02*
X93836250Y-76105500D01*
X79836250Y-89105500D02*
X79836250Y-88105500D01*
X79836250Y-76105500D02*
X79836250Y-75105500D01*
%TO.C,MX17*%
X98886250Y-75105500D02*
X99886250Y-75105500D01*
X99886250Y-89105500D02*
X98886250Y-89105500D01*
X112886250Y-88105500D02*
X112886250Y-89105500D01*
X112886250Y-89105500D02*
X111886250Y-89105500D01*
X111886250Y-75105500D02*
X112886250Y-75105500D01*
X112886250Y-75105500D02*
X112886250Y-76105500D01*
X98886250Y-89105500D02*
X98886250Y-88105500D01*
X98886250Y-76105500D02*
X98886250Y-75105500D01*
%TO.C,MX16*%
X120317500Y-75105500D02*
X121317500Y-75105500D01*
X121317500Y-89105500D02*
X120317500Y-89105500D01*
X134317500Y-88105500D02*
X134317500Y-89105500D01*
X134317500Y-89105500D02*
X133317500Y-89105500D01*
X133317500Y-75105500D02*
X134317500Y-75105500D01*
X134317500Y-75105500D02*
X134317500Y-76105500D01*
X120317500Y-89105500D02*
X120317500Y-88105500D01*
X120317500Y-76105500D02*
X120317500Y-75105500D01*
%TO.C,MX14*%
X158417500Y-68755500D02*
X159417500Y-68755500D01*
X159417500Y-82755500D02*
X158417500Y-82755500D01*
X172417500Y-81755500D02*
X172417500Y-82755500D01*
X172417500Y-82755500D02*
X171417500Y-82755500D01*
X171417500Y-68755500D02*
X172417500Y-68755500D01*
X172417500Y-68755500D02*
X172417500Y-69755500D01*
X158417500Y-82755500D02*
X158417500Y-81755500D01*
X158417500Y-69755500D02*
X158417500Y-68755500D01*
%TO.C,MX13*%
X177467500Y-66374250D02*
X178467500Y-66374250D01*
X178467500Y-80374250D02*
X177467500Y-80374250D01*
X191467500Y-79374250D02*
X191467500Y-80374250D01*
X191467500Y-80374250D02*
X190467500Y-80374250D01*
X190467500Y-66374250D02*
X191467500Y-66374250D01*
X191467500Y-66374250D02*
X191467500Y-67374250D01*
X177467500Y-80374250D02*
X177467500Y-79374250D01*
X177467500Y-67374250D02*
X177467500Y-66374250D01*
%TO.C,MX12*%
X196517500Y-68755500D02*
X197517500Y-68755500D01*
X197517500Y-82755500D02*
X196517500Y-82755500D01*
X210517500Y-81755500D02*
X210517500Y-82755500D01*
X210517500Y-82755500D02*
X209517500Y-82755500D01*
X209517500Y-68755500D02*
X210517500Y-68755500D01*
X210517500Y-68755500D02*
X210517500Y-69755500D01*
X196517500Y-82755500D02*
X196517500Y-81755500D01*
X196517500Y-69755500D02*
X196517500Y-68755500D01*
%TO.C,MX11*%
X215567500Y-71136750D02*
X216567500Y-71136750D01*
X216567500Y-85136750D02*
X215567500Y-85136750D01*
X229567500Y-84136750D02*
X229567500Y-85136750D01*
X229567500Y-85136750D02*
X228567500Y-85136750D01*
X228567500Y-71136750D02*
X229567500Y-71136750D01*
X229567500Y-71136750D02*
X229567500Y-72136750D01*
X215567500Y-85136750D02*
X215567500Y-84136750D01*
X215567500Y-72136750D02*
X215567500Y-71136750D01*
%TO.C,MX9*%
X60786250Y-56055500D02*
X61786250Y-56055500D01*
X61786250Y-70055500D02*
X60786250Y-70055500D01*
X74786250Y-69055500D02*
X74786250Y-70055500D01*
X74786250Y-70055500D02*
X73786250Y-70055500D01*
X73786250Y-56055500D02*
X74786250Y-56055500D01*
X74786250Y-56055500D02*
X74786250Y-57055500D01*
X60786250Y-70055500D02*
X60786250Y-69055500D01*
X60786250Y-57055500D02*
X60786250Y-56055500D01*
%TO.C,MX8*%
X79836250Y-56055500D02*
X80836250Y-56055500D01*
X80836250Y-70055500D02*
X79836250Y-70055500D01*
X93836250Y-69055500D02*
X93836250Y-70055500D01*
X93836250Y-70055500D02*
X92836250Y-70055500D01*
X92836250Y-56055500D02*
X93836250Y-56055500D01*
X93836250Y-56055500D02*
X93836250Y-57055500D01*
X79836250Y-70055500D02*
X79836250Y-69055500D01*
X79836250Y-57055500D02*
X79836250Y-56055500D01*
%TO.C,MX7*%
X98886250Y-56055500D02*
X99886250Y-56055500D01*
X99886250Y-70055500D02*
X98886250Y-70055500D01*
X112886250Y-69055500D02*
X112886250Y-70055500D01*
X112886250Y-70055500D02*
X111886250Y-70055500D01*
X111886250Y-56055500D02*
X112886250Y-56055500D01*
X112886250Y-56055500D02*
X112886250Y-57055500D01*
X98886250Y-70055500D02*
X98886250Y-69055500D01*
X98886250Y-57055500D02*
X98886250Y-56055500D01*
%TO.C,MX6*%
X120317500Y-56055500D02*
X121317500Y-56055500D01*
X121317500Y-70055500D02*
X120317500Y-70055500D01*
X134317500Y-69055500D02*
X134317500Y-70055500D01*
X134317500Y-70055500D02*
X133317500Y-70055500D01*
X133317500Y-56055500D02*
X134317500Y-56055500D01*
X134317500Y-56055500D02*
X134317500Y-57055500D01*
X120317500Y-70055500D02*
X120317500Y-69055500D01*
X120317500Y-57055500D02*
X120317500Y-56055500D01*
%TO.C,MX5*%
X139367500Y-56055500D02*
X140367500Y-56055500D01*
X140367500Y-70055500D02*
X139367500Y-70055500D01*
X153367500Y-69055500D02*
X153367500Y-70055500D01*
X153367500Y-70055500D02*
X152367500Y-70055500D01*
X152367500Y-56055500D02*
X153367500Y-56055500D01*
X153367500Y-56055500D02*
X153367500Y-57055500D01*
X139367500Y-70055500D02*
X139367500Y-69055500D01*
X139367500Y-57055500D02*
X139367500Y-56055500D01*
%TO.C,MX4*%
X158417500Y-49705500D02*
X159417500Y-49705500D01*
X159417500Y-63705500D02*
X158417500Y-63705500D01*
X172417500Y-62705500D02*
X172417500Y-63705500D01*
X172417500Y-63705500D02*
X171417500Y-63705500D01*
X171417500Y-49705500D02*
X172417500Y-49705500D01*
X172417500Y-49705500D02*
X172417500Y-50705500D01*
X158417500Y-63705500D02*
X158417500Y-62705500D01*
X158417500Y-50705500D02*
X158417500Y-49705500D01*
%TO.C,MX3*%
X177467500Y-47324250D02*
X178467500Y-47324250D01*
X178467500Y-61324250D02*
X177467500Y-61324250D01*
X191467500Y-60324250D02*
X191467500Y-61324250D01*
X191467500Y-61324250D02*
X190467500Y-61324250D01*
X190467500Y-47324250D02*
X191467500Y-47324250D01*
X191467500Y-47324250D02*
X191467500Y-48324250D01*
X177467500Y-61324250D02*
X177467500Y-60324250D01*
X177467500Y-48324250D02*
X177467500Y-47324250D01*
%TO.C,MX2*%
X196517500Y-49705500D02*
X197517500Y-49705500D01*
X197517500Y-63705500D02*
X196517500Y-63705500D01*
X210517500Y-62705500D02*
X210517500Y-63705500D01*
X210517500Y-63705500D02*
X209517500Y-63705500D01*
X209517500Y-49705500D02*
X210517500Y-49705500D01*
X210517500Y-49705500D02*
X210517500Y-50705500D01*
X196517500Y-63705500D02*
X196517500Y-62705500D01*
X196517500Y-50705500D02*
X196517500Y-49705500D01*
%TO.C,MX1*%
X215567500Y-52086750D02*
X216567500Y-52086750D01*
X216567500Y-66086750D02*
X215567500Y-66086750D01*
X229567500Y-65086750D02*
X229567500Y-66086750D01*
X229567500Y-66086750D02*
X228567500Y-66086750D01*
X228567500Y-52086750D02*
X229567500Y-52086750D01*
X229567500Y-52086750D02*
X229567500Y-53086750D01*
X215567500Y-66086750D02*
X215567500Y-65086750D01*
X215567500Y-53086750D02*
X215567500Y-52086750D01*
D12*
%TO.C,U1*%
X249555000Y-55753000D02*
X252095000Y-55753000D01*
X234315000Y-53213000D02*
X252095000Y-53213000D01*
X252095000Y-53213000D02*
X252095000Y-86233000D01*
X252095000Y-86233000D02*
X234315000Y-86233000D01*
X234315000Y-86233000D02*
X234315000Y-53213000D01*
D10*
G36*
X237360365Y-61642030D02*
G01*
X237360365Y-61742030D01*
X236860365Y-61742030D01*
X236860365Y-61642030D01*
X237360365Y-61642030D01*
G37*
X237360365Y-61642030D02*
X237360365Y-61742030D01*
X236860365Y-61742030D01*
X236860365Y-61642030D01*
X237360365Y-61642030D01*
G36*
X237360365Y-61642030D02*
G01*
X237360365Y-61942030D01*
X237260365Y-61942030D01*
X237260365Y-61642030D01*
X237360365Y-61642030D01*
G37*
X237360365Y-61642030D02*
X237360365Y-61942030D01*
X237260365Y-61942030D01*
X237260365Y-61642030D01*
X237360365Y-61642030D01*
G36*
X237360365Y-62242030D02*
G01*
X237360365Y-62442030D01*
X237260365Y-62442030D01*
X237260365Y-62242030D01*
X237360365Y-62242030D01*
G37*
X237360365Y-62242030D02*
X237360365Y-62442030D01*
X237260365Y-62442030D01*
X237260365Y-62242030D01*
X237360365Y-62242030D01*
G36*
X236960365Y-61642030D02*
G01*
X236960365Y-62442030D01*
X236860365Y-62442030D01*
X236860365Y-61642030D01*
X236960365Y-61642030D01*
G37*
X236960365Y-61642030D02*
X236960365Y-62442030D01*
X236860365Y-62442030D01*
X236860365Y-61642030D01*
X236960365Y-61642030D01*
G36*
X237160365Y-62042030D02*
G01*
X237160365Y-62142030D01*
X237060365Y-62142030D01*
X237060365Y-62042030D01*
X237160365Y-62042030D01*
G37*
X237160365Y-62042030D02*
X237160365Y-62142030D01*
X237060365Y-62142030D01*
X237060365Y-62042030D01*
X237160365Y-62042030D01*
D12*
X249555000Y-55753000D02*
X249555000Y-58293000D01*
X249555000Y-58293000D02*
X252095000Y-58293000D01*
D13*
%TO.C,ENC1*%
X159307000Y-136309750D02*
X159307000Y-135309750D01*
X158807000Y-135809750D02*
X159807000Y-135809750D01*
X162807000Y-129709750D02*
X165207000Y-129709750D01*
X158007000Y-129709750D02*
X160607000Y-129709750D01*
X153407000Y-129709750D02*
X155807000Y-129709750D01*
X155207000Y-143009750D02*
X155507000Y-143309750D01*
X155207000Y-143609750D02*
X155207000Y-143009750D01*
X155507000Y-143309750D02*
X155207000Y-143609750D01*
X153407000Y-141909750D02*
X165207000Y-141909750D01*
X153407000Y-137809750D02*
X153407000Y-141909750D01*
X165207000Y-137809750D02*
X165207000Y-141909750D01*
X165207000Y-129709750D02*
X165207000Y-133809750D01*
X153407000Y-133809750D02*
X153407000Y-129709750D01*
X162307000Y-135809750D02*
G75*
G03*
X162307000Y-135809750I-3000000J0D01*
G01*
%TO.C,SW0*%
X246716500Y-92249250D02*
X246716500Y-90749250D01*
X245466500Y-88249250D02*
X240966500Y-88249250D01*
X239716500Y-90749250D02*
X239716500Y-92249250D01*
X240966500Y-94749250D02*
X245466500Y-94749250D01*
%TO.C,U1*%
D10*
X245154523Y-83754904D02*
X245154523Y-82954904D01*
X245345000Y-82954904D01*
X245459285Y-82993000D01*
X245535476Y-83069190D01*
X245573571Y-83145380D01*
X245611666Y-83297761D01*
X245611666Y-83412047D01*
X245573571Y-83564428D01*
X245535476Y-83640619D01*
X245459285Y-83716809D01*
X245345000Y-83754904D01*
X245154523Y-83754904D01*
X246335476Y-82954904D02*
X245954523Y-82954904D01*
X245916428Y-83335857D01*
X245954523Y-83297761D01*
X246030714Y-83259666D01*
X246221190Y-83259666D01*
X246297380Y-83297761D01*
X246335476Y-83335857D01*
X246373571Y-83412047D01*
X246373571Y-83602523D01*
X246335476Y-83678714D01*
X246297380Y-83716809D01*
X246221190Y-83754904D01*
X246030714Y-83754904D01*
X245954523Y-83716809D01*
X245916428Y-83678714D01*
X240398333Y-83335857D02*
X240131666Y-83335857D01*
X240131666Y-83754904D02*
X240131666Y-82954904D01*
X240512619Y-82954904D01*
X241236428Y-83754904D02*
X240779285Y-83754904D01*
X241007857Y-83754904D02*
X241007857Y-82954904D01*
X240931666Y-83069190D01*
X240855476Y-83145380D01*
X240779285Y-83183476D01*
X243071666Y-83678714D02*
X243033571Y-83716809D01*
X242919285Y-83754904D01*
X242843095Y-83754904D01*
X242728809Y-83716809D01*
X242652619Y-83640619D01*
X242614523Y-83564428D01*
X242576428Y-83412047D01*
X242576428Y-83297761D01*
X242614523Y-83145380D01*
X242652619Y-83069190D01*
X242728809Y-82993000D01*
X242843095Y-82954904D01*
X242919285Y-82954904D01*
X243033571Y-82993000D01*
X243071666Y-83031095D01*
X243338333Y-82954904D02*
X243871666Y-82954904D01*
X243528809Y-83754904D01*
X236969991Y-83928702D02*
X236922851Y-83834421D01*
X236922851Y-83787280D01*
X236946421Y-83716570D01*
X237017132Y-83645859D01*
X237087842Y-83622289D01*
X237134983Y-83622289D01*
X237205693Y-83645859D01*
X237394255Y-83834421D01*
X236899280Y-84329396D01*
X236734289Y-84164404D01*
X236710719Y-84093693D01*
X236710719Y-84046553D01*
X236734289Y-83975842D01*
X236781429Y-83928702D01*
X236852140Y-83905132D01*
X236899280Y-83905132D01*
X236969991Y-83928702D01*
X237134983Y-84093693D01*
X236192174Y-83622289D02*
X236286455Y-83716570D01*
X236357165Y-83740140D01*
X236404306Y-83740140D01*
X236522157Y-83716570D01*
X236640008Y-83645859D01*
X236828570Y-83457297D01*
X236852140Y-83386587D01*
X236852140Y-83339446D01*
X236828570Y-83268735D01*
X236734289Y-83174455D01*
X236663578Y-83150884D01*
X236616438Y-83150884D01*
X236545727Y-83174455D01*
X236427876Y-83292306D01*
X236404306Y-83363016D01*
X236404306Y-83410157D01*
X236427876Y-83480867D01*
X236522157Y-83575148D01*
X236592867Y-83598719D01*
X236640008Y-83598719D01*
X236710719Y-83575148D01*
X238471666Y-83543000D02*
X238238333Y-83543000D01*
X238238333Y-83909666D02*
X238238333Y-83209666D01*
X238571666Y-83209666D01*
X238971666Y-83209666D02*
X239038333Y-83209666D01*
X239105000Y-83243000D01*
X239138333Y-83276333D01*
X239171666Y-83343000D01*
X239205000Y-83476333D01*
X239205000Y-83643000D01*
X239171666Y-83776333D01*
X239138333Y-83843000D01*
X239105000Y-83876333D01*
X239038333Y-83909666D01*
X238971666Y-83909666D01*
X238905000Y-83876333D01*
X238871666Y-83843000D01*
X238838333Y-83776333D01*
X238805000Y-83643000D01*
X238805000Y-83476333D01*
X238838333Y-83343000D01*
X238871666Y-83276333D01*
X238905000Y-83243000D01*
X238971666Y-83209666D01*
X247421666Y-83543000D02*
X247521666Y-83576333D01*
X247555000Y-83609666D01*
X247588333Y-83676333D01*
X247588333Y-83776333D01*
X247555000Y-83843000D01*
X247521666Y-83876333D01*
X247455000Y-83909666D01*
X247188333Y-83909666D01*
X247188333Y-83209666D01*
X247421666Y-83209666D01*
X247488333Y-83243000D01*
X247521666Y-83276333D01*
X247555000Y-83343000D01*
X247555000Y-83409666D01*
X247521666Y-83476333D01*
X247488333Y-83509666D01*
X247421666Y-83543000D01*
X247188333Y-83543000D01*
X247821666Y-83209666D02*
X248288333Y-83209666D01*
X247988333Y-83909666D01*
X237631666Y-62406809D02*
X237745952Y-62444904D01*
X237936428Y-62444904D01*
X238012619Y-62406809D01*
X238050714Y-62368714D01*
X238088809Y-62292523D01*
X238088809Y-62216333D01*
X238050714Y-62140142D01*
X238012619Y-62102047D01*
X237936428Y-62063952D01*
X237784047Y-62025857D01*
X237707857Y-61987761D01*
X237669761Y-61949666D01*
X237631666Y-61873476D01*
X237631666Y-61797285D01*
X237669761Y-61721095D01*
X237707857Y-61683000D01*
X237784047Y-61644904D01*
X237974523Y-61644904D01*
X238088809Y-61683000D01*
X238317380Y-61644904D02*
X238774523Y-61644904D01*
X238545952Y-62444904D02*
X238545952Y-61644904D01*
X244586395Y-56584904D02*
X245043538Y-56584904D01*
X244814967Y-57384904D02*
X244814967Y-56584904D01*
X245234014Y-56584904D02*
X245767348Y-57384904D01*
X245767348Y-56584904D02*
X245234014Y-57384904D01*
X246224491Y-56584904D02*
X246300681Y-56584904D01*
X246376872Y-56623000D01*
X246414967Y-56661095D01*
X246453062Y-56737285D01*
X246491157Y-56889666D01*
X246491157Y-57080142D01*
X246453062Y-57232523D01*
X246414967Y-57308714D01*
X246376872Y-57346809D01*
X246300681Y-57384904D01*
X246224491Y-57384904D01*
X246148300Y-57346809D01*
X246110205Y-57308714D01*
X246072110Y-57232523D01*
X246034014Y-57080142D01*
X246034014Y-56889666D01*
X246072110Y-56737285D01*
X246110205Y-56661095D01*
X246148300Y-56623000D01*
X246224491Y-56584904D01*
X247405443Y-56546809D02*
X246719729Y-57575380D01*
X247672110Y-57384904D02*
X247672110Y-56584904D01*
X247862586Y-56584904D01*
X247976872Y-56623000D01*
X248053062Y-56699190D01*
X248091157Y-56775380D01*
X248129252Y-56927761D01*
X248129252Y-57042047D01*
X248091157Y-57194428D01*
X248053062Y-57270619D01*
X247976872Y-57346809D01*
X247862586Y-57384904D01*
X247672110Y-57384904D01*
X248395919Y-56584904D02*
X248891157Y-56584904D01*
X248624491Y-56889666D01*
X248738776Y-56889666D01*
X248814967Y-56927761D01*
X248853062Y-56965857D01*
X248891157Y-57042047D01*
X248891157Y-57232523D01*
X248853062Y-57308714D01*
X248814967Y-57346809D01*
X248738776Y-57384904D01*
X248510205Y-57384904D01*
X248434014Y-57346809D01*
X248395919Y-57308714D01*
X237420190Y-82365857D02*
X237534476Y-82403952D01*
X237572571Y-82442047D01*
X237610666Y-82518238D01*
X237610666Y-82632523D01*
X237572571Y-82708714D01*
X237534476Y-82746809D01*
X237458285Y-82784904D01*
X237153523Y-82784904D01*
X237153523Y-81984904D01*
X237420190Y-81984904D01*
X237496380Y-82023000D01*
X237534476Y-82061095D01*
X237572571Y-82137285D01*
X237572571Y-82213476D01*
X237534476Y-82289666D01*
X237496380Y-82327761D01*
X237420190Y-82365857D01*
X237153523Y-82365857D01*
X237915428Y-82061095D02*
X237953523Y-82023000D01*
X238029714Y-81984904D01*
X238220190Y-81984904D01*
X238296380Y-82023000D01*
X238334476Y-82061095D01*
X238372571Y-82137285D01*
X238372571Y-82213476D01*
X238334476Y-82327761D01*
X237877333Y-82784904D01*
X238372571Y-82784904D01*
X237477333Y-74745857D02*
X237210666Y-74745857D01*
X237210666Y-75164904D02*
X237210666Y-74364904D01*
X237591619Y-74364904D01*
X237820190Y-74364904D02*
X238353523Y-74364904D01*
X238010666Y-75164904D01*
X237477333Y-72205857D02*
X237210666Y-72205857D01*
X237210666Y-72624904D02*
X237210666Y-71824904D01*
X237591619Y-71824904D01*
X238239238Y-71824904D02*
X238086857Y-71824904D01*
X238010666Y-71863000D01*
X237972571Y-71901095D01*
X237896380Y-72015380D01*
X237858285Y-72167761D01*
X237858285Y-72472523D01*
X237896380Y-72548714D01*
X237934476Y-72586809D01*
X238010666Y-72624904D01*
X238163047Y-72624904D01*
X238239238Y-72586809D01*
X238277333Y-72548714D01*
X238315428Y-72472523D01*
X238315428Y-72282047D01*
X238277333Y-72205857D01*
X238239238Y-72167761D01*
X238163047Y-72129666D01*
X238010666Y-72129666D01*
X237934476Y-72167761D01*
X237896380Y-72205857D01*
X237858285Y-72282047D01*
X237477333Y-69665857D02*
X237210666Y-69665857D01*
X237210666Y-70084904D02*
X237210666Y-69284904D01*
X237591619Y-69284904D01*
X238277333Y-69284904D02*
X237896380Y-69284904D01*
X237858285Y-69665857D01*
X237896380Y-69627761D01*
X237972571Y-69589666D01*
X238163047Y-69589666D01*
X238239238Y-69627761D01*
X238277333Y-69665857D01*
X238315428Y-69742047D01*
X238315428Y-69932523D01*
X238277333Y-70008714D01*
X238239238Y-70046809D01*
X238163047Y-70084904D01*
X237972571Y-70084904D01*
X237896380Y-70046809D01*
X237858285Y-70008714D01*
X237420190Y-56965857D02*
X237534476Y-57003952D01*
X237572571Y-57042047D01*
X237610666Y-57118238D01*
X237610666Y-57232523D01*
X237572571Y-57308714D01*
X237534476Y-57346809D01*
X237458285Y-57384904D01*
X237153523Y-57384904D01*
X237153523Y-56584904D01*
X237420190Y-56584904D01*
X237496380Y-56623000D01*
X237534476Y-56661095D01*
X237572571Y-56737285D01*
X237572571Y-56813476D01*
X237534476Y-56889666D01*
X237496380Y-56927761D01*
X237420190Y-56965857D01*
X237153523Y-56965857D01*
X238105904Y-56584904D02*
X238182095Y-56584904D01*
X238258285Y-56623000D01*
X238296380Y-56661095D01*
X238334476Y-56737285D01*
X238372571Y-56889666D01*
X238372571Y-57080142D01*
X238334476Y-57232523D01*
X238296380Y-57308714D01*
X238258285Y-57346809D01*
X238182095Y-57384904D01*
X238105904Y-57384904D01*
X238029714Y-57346809D01*
X237991619Y-57308714D01*
X237953523Y-57232523D01*
X237915428Y-57080142D01*
X237915428Y-56889666D01*
X237953523Y-56737285D01*
X237991619Y-56661095D01*
X238029714Y-56623000D01*
X238105904Y-56584904D01*
X237134476Y-59163000D02*
X237058285Y-59124904D01*
X236944000Y-59124904D01*
X236829714Y-59163000D01*
X236753523Y-59239190D01*
X236715428Y-59315380D01*
X236677333Y-59467761D01*
X236677333Y-59582047D01*
X236715428Y-59734428D01*
X236753523Y-59810619D01*
X236829714Y-59886809D01*
X236944000Y-59924904D01*
X237020190Y-59924904D01*
X237134476Y-59886809D01*
X237172571Y-59848714D01*
X237172571Y-59582047D01*
X237020190Y-59582047D01*
X237515428Y-59924904D02*
X237515428Y-59124904D01*
X237972571Y-59924904D01*
X237972571Y-59124904D01*
X238353523Y-59924904D02*
X238353523Y-59124904D01*
X238544000Y-59124904D01*
X238658285Y-59163000D01*
X238734476Y-59239190D01*
X238772571Y-59315380D01*
X238810666Y-59467761D01*
X238810666Y-59582047D01*
X238772571Y-59734428D01*
X238734476Y-59810619D01*
X238658285Y-59886809D01*
X238544000Y-59924904D01*
X238353523Y-59924904D01*
X236677333Y-64204904D02*
X236944000Y-65004904D01*
X237210666Y-64204904D01*
X237934476Y-64928714D02*
X237896380Y-64966809D01*
X237782095Y-65004904D01*
X237705904Y-65004904D01*
X237591619Y-64966809D01*
X237515428Y-64890619D01*
X237477333Y-64814428D01*
X237439238Y-64662047D01*
X237439238Y-64547761D01*
X237477333Y-64395380D01*
X237515428Y-64319190D01*
X237591619Y-64243000D01*
X237705904Y-64204904D01*
X237782095Y-64204904D01*
X237896380Y-64243000D01*
X237934476Y-64281095D01*
X238734476Y-64928714D02*
X238696380Y-64966809D01*
X238582095Y-65004904D01*
X238505904Y-65004904D01*
X238391619Y-64966809D01*
X238315428Y-64890619D01*
X238277333Y-64814428D01*
X238239238Y-64662047D01*
X238239238Y-64547761D01*
X238277333Y-64395380D01*
X238315428Y-64319190D01*
X238391619Y-64243000D01*
X238505904Y-64204904D01*
X238582095Y-64204904D01*
X238696380Y-64243000D01*
X238734476Y-64281095D01*
X237477333Y-67125857D02*
X237210666Y-67125857D01*
X237210666Y-67544904D02*
X237210666Y-66744904D01*
X237591619Y-66744904D01*
X238239238Y-67011571D02*
X238239238Y-67544904D01*
X238048761Y-66706809D02*
X237858285Y-67278238D01*
X238353523Y-67278238D01*
X237420190Y-77285857D02*
X237534476Y-77323952D01*
X237572571Y-77362047D01*
X237610666Y-77438238D01*
X237610666Y-77552523D01*
X237572571Y-77628714D01*
X237534476Y-77666809D01*
X237458285Y-77704904D01*
X237153523Y-77704904D01*
X237153523Y-76904904D01*
X237420190Y-76904904D01*
X237496380Y-76943000D01*
X237534476Y-76981095D01*
X237572571Y-77057285D01*
X237572571Y-77133476D01*
X237534476Y-77209666D01*
X237496380Y-77247761D01*
X237420190Y-77285857D01*
X237153523Y-77285857D01*
X238372571Y-77704904D02*
X237915428Y-77704904D01*
X238144000Y-77704904D02*
X238144000Y-76904904D01*
X238067809Y-77019190D01*
X237991619Y-77095380D01*
X237915428Y-77133476D01*
X237420190Y-79825857D02*
X237534476Y-79863952D01*
X237572571Y-79902047D01*
X237610666Y-79978238D01*
X237610666Y-80092523D01*
X237572571Y-80168714D01*
X237534476Y-80206809D01*
X237458285Y-80244904D01*
X237153523Y-80244904D01*
X237153523Y-79444904D01*
X237420190Y-79444904D01*
X237496380Y-79483000D01*
X237534476Y-79521095D01*
X237572571Y-79597285D01*
X237572571Y-79673476D01*
X237534476Y-79749666D01*
X237496380Y-79787761D01*
X237420190Y-79825857D01*
X237153523Y-79825857D01*
X237877333Y-79444904D02*
X238372571Y-79444904D01*
X238105904Y-79749666D01*
X238220190Y-79749666D01*
X238296380Y-79787761D01*
X238334476Y-79825857D01*
X238372571Y-79902047D01*
X238372571Y-80092523D01*
X238334476Y-80168714D01*
X238296380Y-80206809D01*
X238220190Y-80244904D01*
X237991619Y-80244904D01*
X237915428Y-80206809D01*
X237877333Y-80168714D01*
X249369297Y-83857991D02*
X249463578Y-83810851D01*
X249510719Y-83810851D01*
X249581429Y-83834421D01*
X249652140Y-83905132D01*
X249675710Y-83975842D01*
X249675710Y-84022983D01*
X249652140Y-84093693D01*
X249463578Y-84282255D01*
X248968603Y-83787280D01*
X249133595Y-83622289D01*
X249204306Y-83598719D01*
X249251446Y-83598719D01*
X249322157Y-83622289D01*
X249369297Y-83669429D01*
X249392867Y-83740140D01*
X249392867Y-83787280D01*
X249369297Y-83857991D01*
X249204306Y-84022983D01*
X249699280Y-83056603D02*
X249463578Y-83292306D01*
X249675710Y-83551578D01*
X249675710Y-83504438D01*
X249699280Y-83433727D01*
X249817132Y-83315876D01*
X249887842Y-83292306D01*
X249934983Y-83292306D01*
X250005693Y-83315876D01*
X250123544Y-83433727D01*
X250147115Y-83504438D01*
X250147115Y-83551578D01*
X250123544Y-83622289D01*
X250005693Y-83740140D01*
X249934983Y-83763710D01*
X249887842Y-83763710D01*
X248342190Y-82365857D02*
X248456476Y-82403952D01*
X248494571Y-82442047D01*
X248532666Y-82518238D01*
X248532666Y-82632523D01*
X248494571Y-82708714D01*
X248456476Y-82746809D01*
X248380285Y-82784904D01*
X248075523Y-82784904D01*
X248075523Y-81984904D01*
X248342190Y-81984904D01*
X248418380Y-82023000D01*
X248456476Y-82061095D01*
X248494571Y-82137285D01*
X248494571Y-82213476D01*
X248456476Y-82289666D01*
X248418380Y-82327761D01*
X248342190Y-82365857D01*
X248075523Y-82365857D01*
X249218380Y-82251571D02*
X249218380Y-82784904D01*
X249027904Y-81946809D02*
X248837428Y-82518238D01*
X249332666Y-82518238D01*
X248113619Y-79825857D02*
X248380285Y-79825857D01*
X248494571Y-80244904D02*
X248113619Y-80244904D01*
X248113619Y-79444904D01*
X248494571Y-79444904D01*
X249180285Y-79444904D02*
X249027904Y-79444904D01*
X248951714Y-79483000D01*
X248913619Y-79521095D01*
X248837428Y-79635380D01*
X248799333Y-79787761D01*
X248799333Y-80092523D01*
X248837428Y-80168714D01*
X248875523Y-80206809D01*
X248951714Y-80244904D01*
X249104095Y-80244904D01*
X249180285Y-80206809D01*
X249218380Y-80168714D01*
X249256476Y-80092523D01*
X249256476Y-79902047D01*
X249218380Y-79825857D01*
X249180285Y-79787761D01*
X249104095Y-79749666D01*
X248951714Y-79749666D01*
X248875523Y-79787761D01*
X248837428Y-79825857D01*
X248799333Y-79902047D01*
X248075523Y-77704904D02*
X248075523Y-76904904D01*
X248266000Y-76904904D01*
X248380285Y-76943000D01*
X248456476Y-77019190D01*
X248494571Y-77095380D01*
X248532666Y-77247761D01*
X248532666Y-77362047D01*
X248494571Y-77514428D01*
X248456476Y-77590619D01*
X248380285Y-77666809D01*
X248266000Y-77704904D01*
X248075523Y-77704904D01*
X248799333Y-76904904D02*
X249332666Y-76904904D01*
X248989809Y-77704904D01*
X248532666Y-75088714D02*
X248494571Y-75126809D01*
X248380285Y-75164904D01*
X248304095Y-75164904D01*
X248189809Y-75126809D01*
X248113619Y-75050619D01*
X248075523Y-74974428D01*
X248037428Y-74822047D01*
X248037428Y-74707761D01*
X248075523Y-74555380D01*
X248113619Y-74479190D01*
X248189809Y-74403000D01*
X248304095Y-74364904D01*
X248380285Y-74364904D01*
X248494571Y-74403000D01*
X248532666Y-74441095D01*
X249218380Y-74364904D02*
X249066000Y-74364904D01*
X248989809Y-74403000D01*
X248951714Y-74441095D01*
X248875523Y-74555380D01*
X248837428Y-74707761D01*
X248837428Y-75012523D01*
X248875523Y-75088714D01*
X248913619Y-75126809D01*
X248989809Y-75164904D01*
X249142190Y-75164904D01*
X249218380Y-75126809D01*
X249256476Y-75088714D01*
X249294571Y-75012523D01*
X249294571Y-74822047D01*
X249256476Y-74745857D01*
X249218380Y-74707761D01*
X249142190Y-74669666D01*
X248989809Y-74669666D01*
X248913619Y-74707761D01*
X248875523Y-74745857D01*
X248837428Y-74822047D01*
X248075523Y-72624904D02*
X248075523Y-71824904D01*
X248266000Y-71824904D01*
X248380285Y-71863000D01*
X248456476Y-71939190D01*
X248494571Y-72015380D01*
X248532666Y-72167761D01*
X248532666Y-72282047D01*
X248494571Y-72434428D01*
X248456476Y-72510619D01*
X248380285Y-72586809D01*
X248266000Y-72624904D01*
X248075523Y-72624904D01*
X249218380Y-72091571D02*
X249218380Y-72624904D01*
X249027904Y-71786809D02*
X248837428Y-72358238D01*
X249332666Y-72358238D01*
X248056476Y-61703000D02*
X247980285Y-61664904D01*
X247866000Y-61664904D01*
X247751714Y-61703000D01*
X247675523Y-61779190D01*
X247637428Y-61855380D01*
X247599333Y-62007761D01*
X247599333Y-62122047D01*
X247637428Y-62274428D01*
X247675523Y-62350619D01*
X247751714Y-62426809D01*
X247866000Y-62464904D01*
X247942190Y-62464904D01*
X248056476Y-62426809D01*
X248094571Y-62388714D01*
X248094571Y-62122047D01*
X247942190Y-62122047D01*
X248437428Y-62464904D02*
X248437428Y-61664904D01*
X248894571Y-62464904D01*
X248894571Y-61664904D01*
X249275523Y-62464904D02*
X249275523Y-61664904D01*
X249466000Y-61664904D01*
X249580285Y-61703000D01*
X249656476Y-61779190D01*
X249694571Y-61855380D01*
X249732666Y-62007761D01*
X249732666Y-62122047D01*
X249694571Y-62274428D01*
X249656476Y-62350619D01*
X249580285Y-62426809D01*
X249466000Y-62464904D01*
X249275523Y-62464904D01*
X248056476Y-64243000D02*
X247980285Y-64204904D01*
X247866000Y-64204904D01*
X247751714Y-64243000D01*
X247675523Y-64319190D01*
X247637428Y-64395380D01*
X247599333Y-64547761D01*
X247599333Y-64662047D01*
X247637428Y-64814428D01*
X247675523Y-64890619D01*
X247751714Y-64966809D01*
X247866000Y-65004904D01*
X247942190Y-65004904D01*
X248056476Y-64966809D01*
X248094571Y-64928714D01*
X248094571Y-64662047D01*
X247942190Y-64662047D01*
X248437428Y-65004904D02*
X248437428Y-64204904D01*
X248894571Y-65004904D01*
X248894571Y-64204904D01*
X249275523Y-65004904D02*
X249275523Y-64204904D01*
X249466000Y-64204904D01*
X249580285Y-64243000D01*
X249656476Y-64319190D01*
X249694571Y-64395380D01*
X249732666Y-64547761D01*
X249732666Y-64662047D01*
X249694571Y-64814428D01*
X249656476Y-64890619D01*
X249580285Y-64966809D01*
X249466000Y-65004904D01*
X249275523Y-65004904D01*
X248075523Y-67544904D02*
X248075523Y-66744904D01*
X248266000Y-66744904D01*
X248380285Y-66783000D01*
X248456476Y-66859190D01*
X248494571Y-66935380D01*
X248532666Y-67087761D01*
X248532666Y-67202047D01*
X248494571Y-67354428D01*
X248456476Y-67430619D01*
X248380285Y-67506809D01*
X248266000Y-67544904D01*
X248075523Y-67544904D01*
X249294571Y-67544904D02*
X248837428Y-67544904D01*
X249066000Y-67544904D02*
X249066000Y-66744904D01*
X248989809Y-66859190D01*
X248913619Y-66935380D01*
X248837428Y-66973476D01*
X248075523Y-70084904D02*
X248075523Y-69284904D01*
X248266000Y-69284904D01*
X248380285Y-69323000D01*
X248456476Y-69399190D01*
X248494571Y-69475380D01*
X248532666Y-69627761D01*
X248532666Y-69742047D01*
X248494571Y-69894428D01*
X248456476Y-69970619D01*
X248380285Y-70046809D01*
X248266000Y-70084904D01*
X248075523Y-70084904D01*
X249027904Y-69284904D02*
X249104095Y-69284904D01*
X249180285Y-69323000D01*
X249218380Y-69361095D01*
X249256476Y-69437285D01*
X249294571Y-69589666D01*
X249294571Y-69780142D01*
X249256476Y-69932523D01*
X249218380Y-70008714D01*
X249180285Y-70046809D01*
X249104095Y-70084904D01*
X249027904Y-70084904D01*
X248951714Y-70046809D01*
X248913619Y-70008714D01*
X248875523Y-69932523D01*
X248837428Y-69780142D01*
X248837428Y-69589666D01*
X248875523Y-69437285D01*
X248913619Y-69361095D01*
X248951714Y-69323000D01*
X249027904Y-69284904D01*
X248075523Y-59924904D02*
X248075523Y-59124904D01*
X248266000Y-59124904D01*
X248380285Y-59163000D01*
X248456476Y-59239190D01*
X248494571Y-59315380D01*
X248532666Y-59467761D01*
X248532666Y-59582047D01*
X248494571Y-59734428D01*
X248456476Y-59810619D01*
X248380285Y-59886809D01*
X248266000Y-59924904D01*
X248075523Y-59924904D01*
X248837428Y-59201095D02*
X248875523Y-59163000D01*
X248951714Y-59124904D01*
X249142190Y-59124904D01*
X249218380Y-59163000D01*
X249256476Y-59201095D01*
X249294571Y-59277285D01*
X249294571Y-59353476D01*
X249256476Y-59467761D01*
X248799333Y-59924904D01*
X249294571Y-59924904D01*
%TO.C,SW0*%
X241883166Y-87654011D02*
X242026023Y-87701630D01*
X242264119Y-87701630D01*
X242359357Y-87654011D01*
X242406976Y-87606392D01*
X242454595Y-87511154D01*
X242454595Y-87415916D01*
X242406976Y-87320678D01*
X242359357Y-87273059D01*
X242264119Y-87225440D01*
X242073642Y-87177821D01*
X241978404Y-87130202D01*
X241930785Y-87082583D01*
X241883166Y-86987345D01*
X241883166Y-86892107D01*
X241930785Y-86796869D01*
X241978404Y-86749250D01*
X242073642Y-86701630D01*
X242311738Y-86701630D01*
X242454595Y-86749250D01*
X242787928Y-86701630D02*
X243026023Y-87701630D01*
X243216500Y-86987345D01*
X243406976Y-87701630D01*
X243645071Y-86701630D01*
X244216500Y-86701630D02*
X244311738Y-86701630D01*
X244406976Y-86749250D01*
X244454595Y-86796869D01*
X244502214Y-86892107D01*
X244549833Y-87082583D01*
X244549833Y-87320678D01*
X244502214Y-87511154D01*
X244454595Y-87606392D01*
X244406976Y-87654011D01*
X244311738Y-87701630D01*
X244216500Y-87701630D01*
X244121261Y-87654011D01*
X244073642Y-87606392D01*
X244026023Y-87511154D01*
X243978404Y-87320678D01*
X243978404Y-87082583D01*
X244026023Y-86892107D01*
X244073642Y-86796869D01*
X244121261Y-86749250D01*
X244216500Y-86701630D01*
%TD*%
M02*
