M48
; DRILL file {KiCad (5.1.9-0-10_14)} date Sunday, September 05, 2021 at 02:47:03 PM
; FORMAT={-:-/ absolute / inch / decimal}
; #@! TF.CreationDate,2021-09-05T14:47:03-05:00
; #@! TF.GenerationSoftware,Kicad,Pcbnew,(5.1.9-0-10_14)
; #@! TF.FileFunction,Plated,1,2,PTH
FMAT,2
INCH
T1C0.0157
T2C0.0276
T3C0.0394
T4C0.0430
T5C0.0433
T6C0.0590
T7C0.0591
%
G90
G05
T1
X1.7593Y-2.973
X2.4707Y-2.7384
X3.2207Y-2.8334
X3.6648Y-4.1225
X3.6898Y-4.8725
X3.9707Y-2.7266
X3.9707Y-2.9166
X4.3348Y-2.9725
X4.3633Y-2.8416
X4.3948Y-3.0275
X4.6848Y-3.0425
X4.7798Y-2.7581
X4.8236Y-2.9436
X5.5934Y-2.9634
X6.1535Y-3.5162
X6.182Y-3.4762
X6.182Y-3.5441
X6.3144Y-3.2372
X7.0644Y-3.1927
X7.8144Y-3.3002
X8.5644Y-3.4082
X8.9848Y-3.2175
X9.2248Y-3.0975
X9.3508Y-2.9975
X9.4479Y-3.4369
X9.5285Y-2.8862
X9.5285Y-3.1362
X9.5485Y-3.4812
X9.6235Y-3.2763
X9.6235Y-3.4812
X9.7992Y-3.0275
X9.8498Y-3.5525
T2
X1.765Y-2.67
X1.765Y-3.42
X1.765Y-4.17
X1.765Y-4.92
X2.072Y-2.67
X2.072Y-3.42
X2.072Y-4.17
X2.072Y-4.92
X2.515Y-2.67
X2.515Y-3.42
X2.515Y-4.17
X2.515Y-4.92
X2.822Y-2.67
X2.822Y-3.42
X2.822Y-4.17
X2.822Y-4.92
X3.265Y-2.67
X3.265Y-3.42
X3.265Y-4.17
X3.265Y-4.92
X3.572Y-2.67
X3.572Y-3.42
X3.572Y-4.17
X3.572Y-4.92
X4.01Y-3.42
X4.015Y-2.67
X4.015Y-4.17
X4.015Y-4.92
X4.317Y-3.42
X4.322Y-2.67
X4.322Y-4.17
X4.322Y-4.92
X4.8587Y-2.67
X4.8587Y-3.42
X4.8587Y-4.17
X4.8587Y-4.92
X5.1658Y-2.67
X5.1658Y-3.42
X5.1658Y-4.17
X5.1658Y-4.92
X5.6087Y-2.67
X5.6087Y-3.42
X5.6087Y-4.17
X5.6087Y-4.92
X5.9158Y-2.67
X5.9158Y-3.42
X5.9158Y-4.17
X5.9158Y-4.92
X6.12Y-5.2112
X6.3587Y-2.42
X6.3587Y-3.17
X6.3587Y-3.92
X6.3587Y-4.67
X6.427Y-5.2112
X6.6658Y-2.42
X6.6658Y-3.17
X6.6658Y-3.92
X6.6658Y-4.67
X6.765Y-5.545
X7.072Y-5.545
X7.1087Y-2.3262
X7.1087Y-3.0762
X7.1087Y-3.8262
X7.1087Y-4.5762
X7.4158Y-2.3262
X7.4158Y-3.0762
X7.4158Y-3.8262
X7.4158Y-4.5762
X7.515Y-5.545
X7.822Y-5.545
X7.8587Y-2.42
X7.8587Y-3.17
X7.8587Y-3.92
X7.8587Y-4.67
X8.1658Y-2.42
X8.1658Y-3.17
X8.1658Y-3.92
X8.1658Y-4.67
X8.265Y-5.6387
X8.572Y-5.6387
X8.6087Y-2.5137
X8.6087Y-3.2637
X8.6087Y-4.0137
X8.6087Y-4.7637
X8.9158Y-2.5137
X8.9158Y-3.2637
X8.9158Y-4.0137
X8.9158Y-4.7637
X9.4681Y-2.545
X9.4681Y-2.7637
X9.5915Y-5.5842
X9.6681Y-2.545
X9.6681Y-2.7637
X9.745Y-5.3183
T3
X6.1735Y-5.0713
X6.1735Y-5.6421
X6.2719Y-5.6421
X6.3704Y-5.0713
X6.3704Y-5.6421
T4
X3.8679Y-2.1825
X3.8679Y-2.2825
X3.8679Y-2.3825
X3.8679Y-2.4825
X3.8679Y-2.5825
X3.8679Y-2.6825
X3.8679Y-2.7825
X3.8679Y-2.8825
X3.8679Y-2.9825
X3.8679Y-3.0825
X3.8679Y-3.1825
X3.8679Y-3.2825
X4.4679Y-2.1825
X4.4679Y-2.2825
X4.4679Y-2.3825
X4.4679Y-2.4825
X4.4679Y-2.5825
X4.4679Y-2.6825
X4.4679Y-2.7825
X4.4679Y-2.8825
X4.4679Y-2.9825
X4.4679Y-3.0825
X4.4679Y-3.1825
X4.4679Y-3.2825
X9.275Y-2.245
X9.275Y-2.345
X9.275Y-2.445
X9.275Y-2.545
X9.275Y-2.645
X9.275Y-2.745
X9.275Y-2.845
X9.275Y-2.945
X9.275Y-3.045
X9.275Y-3.145
X9.275Y-3.245
X9.275Y-3.345
X9.375Y-3.345
X9.475Y-3.345
X9.575Y-3.345
X9.675Y-3.345
X9.775Y-3.345
X9.866Y-3.345
X9.875Y-2.245
X9.875Y-2.345
X9.875Y-2.445
X9.875Y-2.545
X9.875Y-2.645
X9.875Y-2.745
X9.875Y-2.845
X9.875Y-2.945
X9.875Y-3.045
X9.875Y-3.145
X9.875Y-3.245
T5
X9.4475Y-3.5137
X9.4475Y-3.6909
X9.7034Y-3.5137
X9.7034Y-3.6909
T6
X1.7688Y-2.3825
X1.7688Y-3.1325
X1.7688Y-3.8825
X1.7688Y-4.6325
X1.8187Y-2.2825
X1.8187Y-3.0325
X1.8187Y-3.7825
X1.8187Y-4.5325
X2.0187Y-2.2825
X2.0187Y-3.0325
X2.0187Y-3.7825
X2.0187Y-4.5325
X2.0688Y-2.3825
X2.0688Y-3.1325
X2.0688Y-3.8825
X2.0688Y-4.6325
X2.5187Y-2.3825
X2.5187Y-3.1325
X2.5187Y-3.8825
X2.5187Y-4.6325
X2.5688Y-2.2825
X2.5688Y-3.0325
X2.5688Y-3.7825
X2.5688Y-4.5325
X2.7687Y-2.2825
X2.7687Y-3.0325
X2.7687Y-3.7825
X2.7687Y-4.5325
X2.8188Y-2.3825
X2.8188Y-3.1325
X2.8188Y-3.8825
X2.8188Y-4.6325
X3.2687Y-2.3825
X3.2687Y-3.1325
X3.2687Y-3.8825
X3.2687Y-4.6325
X3.3188Y-2.2825
X3.3188Y-3.0325
X3.3188Y-3.7825
X3.3188Y-4.5325
X3.5187Y-2.2825
X3.5187Y-3.0325
X3.5187Y-3.7825
X3.5187Y-4.5325
X3.5688Y-2.3825
X3.5688Y-3.1325
X3.5688Y-3.8825
X3.5688Y-4.6325
X4.0187Y-2.3825
X4.0187Y-3.1325
X4.0187Y-3.8825
X4.0187Y-4.6325
X4.0687Y-2.2825
X4.0687Y-3.0325
X4.0687Y-3.7825
X4.0687Y-4.5325
X4.2687Y-2.2825
X4.2687Y-3.0325
X4.2687Y-3.7825
X4.2687Y-4.5325
X4.3187Y-2.3825
X4.3187Y-3.1325
X4.3187Y-3.8825
X4.3187Y-4.6325
X4.8625Y-2.3825
X4.8625Y-3.1325
X4.8625Y-3.8825
X4.8625Y-4.6325
X4.9125Y-2.2825
X4.9125Y-3.0325
X4.9125Y-3.7825
X4.9125Y-4.5325
X5.1125Y-2.2825
X5.1125Y-3.0325
X5.1125Y-3.7825
X5.1125Y-4.5325
X5.1625Y-2.3825
X5.1625Y-3.1325
X5.1625Y-3.8825
X5.1625Y-4.6325
X5.6125Y-2.3825
X5.6125Y-3.1325
X5.6125Y-3.8825
X5.6125Y-4.6325
X5.6625Y-2.2825
X5.6625Y-3.0325
X5.6625Y-3.7825
X5.6625Y-4.5325
X5.8625Y-2.2825
X5.8625Y-3.0325
X5.8625Y-3.7825
X5.8625Y-4.5325
X5.9125Y-2.3825
X5.9125Y-3.1325
X5.9125Y-3.8825
X5.9125Y-4.6325
X6.3625Y-2.1325
X6.3625Y-2.8825
X6.3625Y-3.6325
X6.3625Y-4.3825
X6.4125Y-2.0325
X6.4125Y-2.7825
X6.4125Y-3.5325
X6.4125Y-4.2825
X6.6125Y-2.0325
X6.6125Y-2.7825
X6.6125Y-3.5325
X6.6125Y-4.2825
X6.6625Y-2.1325
X6.6625Y-2.8825
X6.6625Y-3.6325
X6.6625Y-4.3825
X6.7685Y-5.2462
X6.8185Y-5.1463
X7.0185Y-5.1463
X7.0685Y-5.2462
X7.1125Y-2.0387
X7.1125Y-2.7887
X7.1125Y-3.5387
X7.1125Y-4.2888
X7.1625Y-1.9387
X7.1625Y-2.6887
X7.1625Y-3.4387
X7.1625Y-4.1887
X7.3625Y-1.9387
X7.3625Y-2.6887
X7.3625Y-3.4387
X7.3625Y-4.1887
X7.4125Y-2.0387
X7.4125Y-2.7887
X7.4125Y-3.5387
X7.4125Y-4.2888
X7.5185Y-5.2462
X7.5685Y-5.1463
X7.7685Y-5.1463
X7.8185Y-5.2462
X7.8625Y-2.1325
X7.8625Y-2.8825
X7.8625Y-3.6325
X7.8625Y-4.3825
X7.9125Y-2.0325
X7.9125Y-2.7825
X7.9125Y-3.5325
X7.9125Y-4.2825
X8.1125Y-2.0325
X8.1125Y-2.7825
X8.1125Y-3.5325
X8.1125Y-4.2825
X8.1625Y-2.1325
X8.1625Y-2.8825
X8.1625Y-3.6325
X8.1625Y-4.3825
X8.2685Y-5.3513
X8.3185Y-5.2512
X8.5185Y-5.2512
X8.5685Y-5.3513
X8.6125Y-2.2262
X8.6125Y-2.9762
X8.6125Y-3.7262
X8.6125Y-4.4763
X8.6625Y-2.1262
X8.6625Y-2.8762
X8.6625Y-3.6262
X8.6625Y-4.3762
X8.8625Y-2.1262
X8.8625Y-2.8762
X8.8625Y-3.6262
X8.8625Y-4.3762
X8.9125Y-2.2262
X8.9125Y-2.9762
X8.9125Y-3.7262
X8.9125Y-4.4763
X9.2803Y-5.3529
X9.3419Y-5.4462
X9.3803Y-5.1796
X9.4919Y-5.1863
T3
G00X10.0135Y-4.6302
M15
G01X9.9977Y-4.6575
M16
G05
G00X10.0566Y-4.7051
M15
G01X10.0409Y-4.7324
M16
G05
G00X10.0922Y-4.4938
M15
G01X10.0765Y-4.5211
M16
G05
G00X10.1487Y-4.7583
M15
G01X10.1329Y-4.7855
M16
G05
G00X10.1513Y-4.3915
M15
G01X10.1355Y-4.4188
M16
G05
G00X10.2351Y-4.7582
M15
G01X10.2193Y-4.7854
M16
G05
G00X10.3138Y-4.6218
M15
G01X10.2981Y-4.6491
M16
G05
G00X10.3729Y-4.5195
M15
G01X10.3571Y-4.5468
M16
G05
T7
G00X6.0515Y-5.3724
M15
G01X6.0515Y-5.3213
M16
G05
G00X6.4924Y-5.3724
M15
G01X6.4924Y-5.3213
M16
G05
T0
M30
