%TF.GenerationSoftware,KiCad,Pcbnew,(5.1.9-0-10_14)*%
%TF.CreationDate,2021-09-05T14:47:07-05:00*%
%TF.ProjectId,wren-universal,7772656e-2d75-46e6-9976-657273616c2e,rev?*%
%TF.SameCoordinates,Original*%
%TF.FileFunction,Copper,L1,Top*%
%TF.FilePolarity,Positive*%
%FSLAX46Y46*%
G04 Gerber Fmt 4.6, Leading zero omitted, Abs format (unit mm)*
G04 Created by KiCad (PCBNEW (5.1.9-0-10_14)) date 2021-09-05 14:47:07*
%MOMM*%
%LPD*%
G01*
G04 APERTURE LIST*
%TA.AperFunction,ComponentPad*%
%ADD10C,2.286000*%
%TD*%
%TA.AperFunction,ComponentPad*%
%ADD11C,1.752600*%
%TD*%
%TA.AperFunction,ComponentPad*%
%ADD12R,1.752600X1.752600*%
%TD*%
%TA.AperFunction,ComponentPad*%
%ADD13C,1.600000*%
%TD*%
%TA.AperFunction,ComponentPad*%
%ADD14R,1.600000X1.600000*%
%TD*%
%TA.AperFunction,ComponentPad*%
%ADD15O,1.400000X1.400000*%
%TD*%
%TA.AperFunction,ComponentPad*%
%ADD16C,1.400000*%
%TD*%
%TA.AperFunction,ComponentPad*%
%ADD17C,0.100000*%
%TD*%
%TA.AperFunction,ComponentPad*%
%ADD18C,2.000000*%
%TD*%
%TA.AperFunction,ComponentPad*%
%ADD19R,2.000000X3.200000*%
%TD*%
%TA.AperFunction,ComponentPad*%
%ADD20R,2.000000X2.000000*%
%TD*%
%TA.AperFunction,ViaPad*%
%ADD21C,0.800000*%
%TD*%
%TA.AperFunction,Conductor*%
%ADD22C,0.250000*%
%TD*%
G04 APERTURE END LIST*
D10*
%TO.P,MX27,1*%
%TO.N,COL6*%
X102076250Y-98615500D03*
%TO.P,MX27,2*%
%TO.N,Net-(D27-Pad2)*%
X108426250Y-96075500D03*
%TO.P,MX27,1*%
%TO.N,COL6*%
X103346250Y-96075500D03*
%TO.P,MX27,2*%
%TO.N,Net-(D27-Pad2)*%
X109696250Y-98615500D03*
%TD*%
D11*
%TO.P,U2,24*%
%TO.N,N/C*%
X98244250Y-55435500D03*
%TO.P,U2,12*%
X113484250Y-83375500D03*
%TO.P,U2,23*%
X98244250Y-57975500D03*
%TO.P,U2,22*%
X98244250Y-60515500D03*
%TO.P,U2,21*%
X98244250Y-63055500D03*
%TO.P,U2,20*%
%TO.N,ROW0*%
X98244250Y-65595500D03*
%TO.P,U2,19*%
%TO.N,N/C*%
X98244250Y-68135500D03*
%TO.P,U2,18*%
X98244250Y-70675500D03*
%TO.P,U2,17*%
X98244250Y-73215500D03*
%TO.P,U2,16*%
X98244250Y-75755500D03*
%TO.P,U2,15*%
%TO.N,ROW1*%
X98244250Y-78295500D03*
%TO.P,U2,14*%
%TO.N,ROW2*%
X98244250Y-80835500D03*
%TO.P,U2,13*%
%TO.N,ROW3*%
X98244250Y-83375500D03*
%TO.P,U2,11*%
%TO.N,N/C*%
X113484250Y-80835500D03*
%TO.P,U2,10*%
X113484250Y-78295500D03*
%TO.P,U2,9*%
X113484250Y-75755500D03*
%TO.P,U2,8*%
%TO.N,COL9*%
X113484250Y-73215500D03*
%TO.P,U2,7*%
%TO.N,COL8*%
X113484250Y-70675500D03*
%TO.P,U2,6*%
%TO.N,N/C*%
X113484250Y-68135500D03*
%TO.P,U2,5*%
X113484250Y-65595500D03*
%TO.P,U2,4*%
X113484250Y-63055500D03*
%TO.P,U2,3*%
X113484250Y-60515500D03*
%TO.P,U2,2*%
%TO.N,COL7*%
X113484250Y-57975500D03*
D12*
%TO.P,U2,1*%
%TO.N,COL6*%
X113484250Y-55435500D03*
%TD*%
%TO.P,J1,3*%
%TO.N,VCC*%
%TA.AperFunction,ComponentPad*%
G36*
G01*
X260817011Y-117592649D02*
X261167011Y-116986431D01*
G75*
G02*
X262396434Y-116657008I779423J-450000D01*
G01*
X262396434Y-116657008D01*
G75*
G02*
X262725857Y-117886431I-450000J-779423D01*
G01*
X262375857Y-118492649D01*
G75*
G02*
X261146434Y-118822072I-779423J450000D01*
G01*
X261146434Y-118822072D01*
G75*
G02*
X260817011Y-117592649I450000J779423D01*
G01*
G37*
%TD.AperFunction*%
%TO.P,J1,2*%
%TO.N,SCL*%
%TA.AperFunction,ComponentPad*%
G36*
G01*
X262317011Y-114994573D02*
X262667011Y-114388355D01*
G75*
G02*
X263896434Y-114058932I779423J-450000D01*
G01*
X263896434Y-114058932D01*
G75*
G02*
X264225857Y-115288355I-450000J-779423D01*
G01*
X263875857Y-115894573D01*
G75*
G02*
X262646434Y-116223996I-779423J450000D01*
G01*
X262646434Y-116223996D01*
G75*
G02*
X262317011Y-114994573I450000J779423D01*
G01*
G37*
%TD.AperFunction*%
%TO.P,J1,1*%
%TO.N,SDA*%
%TA.AperFunction,ComponentPad*%
G36*
G01*
X258817011Y-121056751D02*
X259167011Y-120450533D01*
G75*
G02*
X260396434Y-120121110I779423J-450000D01*
G01*
X260396434Y-120121110D01*
G75*
G02*
X260725857Y-121350533I-450000J-779423D01*
G01*
X260375857Y-121956751D01*
G75*
G02*
X259146434Y-122286174I-779423J450000D01*
G01*
X259146434Y-122286174D01*
G75*
G02*
X258817011Y-121056751I450000J779423D01*
G01*
G37*
%TD.AperFunction*%
%TO.P,J1,4*%
%TO.N,GND*%
%TA.AperFunction,ComponentPad*%
G36*
G01*
X254283294Y-119709379D02*
X254633294Y-119103161D01*
G75*
G02*
X255862717Y-118773738I779423J-450000D01*
G01*
X255862717Y-118773738D01*
G75*
G02*
X256192140Y-120003161I-450000J-779423D01*
G01*
X255842140Y-120609379D01*
G75*
G02*
X254612717Y-120938802I-779423J450000D01*
G01*
X254612717Y-120938802D01*
G75*
G02*
X254283294Y-119709379I450000J779423D01*
G01*
G37*
%TD.AperFunction*%
%TO.P,J1,5*%
%TA.AperFunction,ComponentPad*%
G36*
G01*
X256621563Y-121059379D02*
X256971563Y-120453161D01*
G75*
G02*
X258200986Y-120123738I779423J-450000D01*
G01*
X258200986Y-120123738D01*
G75*
G02*
X258530409Y-121353161I-450000J-779423D01*
G01*
X258180409Y-121959379D01*
G75*
G02*
X256950986Y-122288802I-779423J450000D01*
G01*
X256950986Y-122288802D01*
G75*
G02*
X256621563Y-121059379I450000J779423D01*
G01*
G37*
%TD.AperFunction*%
%TO.P,J1,1*%
%TO.N,SDA*%
%TA.AperFunction,ComponentPad*%
G36*
G01*
X253187846Y-117806751D02*
X253537846Y-117200533D01*
G75*
G02*
X254767269Y-116871110I779423J-450000D01*
G01*
X254767269Y-116871110D01*
G75*
G02*
X255096692Y-118100533I-450000J-779423D01*
G01*
X254746692Y-118706751D01*
G75*
G02*
X253517269Y-119036174I-779423J450000D01*
G01*
X253517269Y-119036174D01*
G75*
G02*
X253187846Y-117806751I450000J779423D01*
G01*
G37*
%TD.AperFunction*%
%TO.P,J1,2*%
%TO.N,SCL*%
%TA.AperFunction,ComponentPad*%
G36*
G01*
X256687846Y-111744573D02*
X257037846Y-111138355D01*
G75*
G02*
X258267269Y-110808932I779423J-450000D01*
G01*
X258267269Y-110808932D01*
G75*
G02*
X258596692Y-112038355I-450000J-779423D01*
G01*
X258246692Y-112644573D01*
G75*
G02*
X257017269Y-112973996I-779423J450000D01*
G01*
X257017269Y-112973996D01*
G75*
G02*
X256687846Y-111744573I450000J779423D01*
G01*
G37*
%TD.AperFunction*%
%TO.P,J1,3*%
%TO.N,VCC*%
%TA.AperFunction,ComponentPad*%
G36*
G01*
X255187846Y-114342649D02*
X255537846Y-113736431D01*
G75*
G02*
X256767269Y-113407008I779423J-450000D01*
G01*
X256767269Y-113407008D01*
G75*
G02*
X257096692Y-114636431I-450000J-779423D01*
G01*
X256746692Y-115242649D01*
G75*
G02*
X255517269Y-115572072I-779423J450000D01*
G01*
X255517269Y-115572072D01*
G75*
G02*
X255187846Y-114342649I450000J779423D01*
G01*
G37*
%TD.AperFunction*%
%TD*%
D10*
%TO.P,MX39,1*%
%TO.N,COL8*%
X63976250Y-117665500D03*
%TO.P,MX39,2*%
%TO.N,Net-(D39-Pad2)*%
X70326250Y-115125500D03*
%TO.P,MX39,1*%
%TO.N,COL8*%
X65246250Y-115125500D03*
%TO.P,MX39,2*%
%TO.N,Net-(D39-Pad2)*%
X71596250Y-117665500D03*
%TD*%
%TO.P,MX36,1*%
%TO.N,COL5*%
X123507500Y-117665500D03*
%TO.P,MX36,2*%
%TO.N,Net-(D36-Pad2)*%
X129857500Y-115125500D03*
%TO.P,MX36,1*%
%TO.N,COL5*%
X124777500Y-115125500D03*
%TO.P,MX36,2*%
%TO.N,Net-(D36-Pad2)*%
X131127500Y-117665500D03*
%TD*%
%TO.P,MX21,1*%
%TO.N,COL0*%
X218757500Y-94646750D03*
%TO.P,MX21,2*%
%TO.N,Net-(D21-Pad2)*%
X225107500Y-92106750D03*
%TO.P,MX21,1*%
%TO.N,COL0*%
X220027500Y-92106750D03*
%TO.P,MX21,2*%
%TO.N,Net-(D21-Pad2)*%
X226377500Y-94646750D03*
%TD*%
%TO.P,MX41,1*%
%TO.N,COL0*%
X237284295Y-138332307D03*
%TO.P,MX41,2*%
%TO.N,Net-(D41-Pad2)*%
X238259591Y-131563045D03*
%TO.P,MX41,1*%
%TO.N,COL0*%
X235719591Y-135962455D03*
%TO.P,MX41,2*%
%TO.N,Net-(D41-Pad2)*%
X241094295Y-131733193D03*
%TD*%
%TO.P,MX10,1*%
%TO.N,COL9*%
X44926250Y-60515500D03*
%TO.P,MX10,2*%
%TO.N,Net-(D10-Pad2)*%
X51276250Y-57975500D03*
%TO.P,MX10,1*%
%TO.N,COL9*%
X46196250Y-57975500D03*
%TO.P,MX10,2*%
%TO.N,Net-(D10-Pad2)*%
X52546250Y-60515500D03*
%TD*%
%TO.P,MX15,1*%
%TO.N,COL4*%
X142557500Y-79565500D03*
%TO.P,MX15,2*%
%TO.N,Net-(D15-Pad2)*%
X148907500Y-77025500D03*
%TO.P,MX15,1*%
%TO.N,COL4*%
X143827500Y-77025500D03*
%TO.P,MX15,2*%
%TO.N,Net-(D15-Pad2)*%
X150177500Y-79565500D03*
%TD*%
%TO.P,MX44,1*%
%TO.N,COL3*%
X171920000Y-133254750D03*
%TO.P,MX44,2*%
%TO.N,Net-(D44-Pad2)*%
X178270000Y-130714750D03*
%TO.P,MX44,1*%
%TO.N,COL3*%
X173190000Y-130714750D03*
%TO.P,MX44,2*%
%TO.N,Net-(D44-Pad2)*%
X179540000Y-133254750D03*
%TD*%
%TO.P,MX43,1*%
%TO.N,COL2*%
X190970000Y-133254750D03*
%TO.P,MX43,2*%
%TO.N,Net-(D43-Pad2)*%
X197320000Y-130714750D03*
%TO.P,MX43,1*%
%TO.N,COL2*%
X192240000Y-130714750D03*
%TO.P,MX43,2*%
%TO.N,Net-(D43-Pad2)*%
X198590000Y-133254750D03*
%TD*%
%TO.P,MX42,1*%
%TO.N,COL1*%
X210020000Y-135921750D03*
%TO.P,MX42,2*%
%TO.N,Net-(D42-Pad2)*%
X216370000Y-133381750D03*
%TO.P,MX42,1*%
%TO.N,COL1*%
X211290000Y-133381750D03*
%TO.P,MX42,2*%
%TO.N,Net-(D42-Pad2)*%
X217640000Y-135921750D03*
%TD*%
%TO.P,MX40,1*%
%TO.N,COL9*%
X44926250Y-117665500D03*
%TO.P,MX40,2*%
%TO.N,Net-(D40-Pad2)*%
X51276250Y-115125500D03*
%TO.P,MX40,1*%
%TO.N,COL9*%
X46196250Y-115125500D03*
%TO.P,MX40,2*%
%TO.N,Net-(D40-Pad2)*%
X52546250Y-117665500D03*
%TD*%
%TO.P,MX38,1*%
%TO.N,COL7*%
X83026250Y-117665500D03*
%TO.P,MX38,2*%
%TO.N,Net-(D38-Pad2)*%
X89376250Y-115125500D03*
%TO.P,MX38,1*%
%TO.N,COL7*%
X84296250Y-115125500D03*
%TO.P,MX38,2*%
%TO.N,Net-(D38-Pad2)*%
X90646250Y-117665500D03*
%TD*%
%TO.P,MX37,1*%
%TO.N,COL6*%
X102076250Y-117665500D03*
%TO.P,MX37,2*%
%TO.N,Net-(D37-Pad2)*%
X108426250Y-115125500D03*
%TO.P,MX37,1*%
%TO.N,COL6*%
X103346250Y-115125500D03*
%TO.P,MX37,2*%
%TO.N,Net-(D37-Pad2)*%
X109696250Y-117665500D03*
%TD*%
%TO.P,MX35,1*%
%TO.N,COL4*%
X142557500Y-117665500D03*
%TO.P,MX35,2*%
%TO.N,Net-(D35-Pad2)*%
X148907500Y-115125500D03*
%TO.P,MX35,1*%
%TO.N,COL4*%
X143827500Y-115125500D03*
%TO.P,MX35,2*%
%TO.N,Net-(D35-Pad2)*%
X150177500Y-117665500D03*
%TD*%
%TO.P,MX34,1*%
%TO.N,COL3*%
X161607500Y-111315500D03*
%TO.P,MX34,2*%
%TO.N,Net-(D34-Pad2)*%
X167957500Y-108775500D03*
%TO.P,MX34,1*%
%TO.N,COL3*%
X162877500Y-108775500D03*
%TO.P,MX34,2*%
%TO.N,Net-(D34-Pad2)*%
X169227500Y-111315500D03*
%TD*%
%TO.P,MX33,1*%
%TO.N,COL2*%
X180657500Y-108934250D03*
%TO.P,MX33,2*%
%TO.N,Net-(D33-Pad2)*%
X187007500Y-106394250D03*
%TO.P,MX33,1*%
%TO.N,COL2*%
X181927500Y-106394250D03*
%TO.P,MX33,2*%
%TO.N,Net-(D33-Pad2)*%
X188277500Y-108934250D03*
%TD*%
%TO.P,MX32,1*%
%TO.N,COL1*%
X199707500Y-111315500D03*
%TO.P,MX32,2*%
%TO.N,Net-(D32-Pad2)*%
X206057500Y-108775500D03*
%TO.P,MX32,1*%
%TO.N,COL1*%
X200977500Y-108775500D03*
%TO.P,MX32,2*%
%TO.N,Net-(D32-Pad2)*%
X207327500Y-111315500D03*
%TD*%
%TO.P,MX31,1*%
%TO.N,COL0*%
X218757500Y-113696750D03*
%TO.P,MX31,2*%
%TO.N,Net-(D31-Pad2)*%
X225107500Y-111156750D03*
%TO.P,MX31,1*%
%TO.N,COL0*%
X220027500Y-111156750D03*
%TO.P,MX31,2*%
%TO.N,Net-(D31-Pad2)*%
X226377500Y-113696750D03*
%TD*%
%TO.P,MX30,1*%
%TO.N,COL9*%
X44926250Y-98615500D03*
%TO.P,MX30,2*%
%TO.N,Net-(D30-Pad2)*%
X51276250Y-96075500D03*
%TO.P,MX30,1*%
%TO.N,COL9*%
X46196250Y-96075500D03*
%TO.P,MX30,2*%
%TO.N,Net-(D30-Pad2)*%
X52546250Y-98615500D03*
%TD*%
%TO.P,MX29,1*%
%TO.N,COL8*%
X63976250Y-98615500D03*
%TO.P,MX29,2*%
%TO.N,Net-(D29-Pad2)*%
X70326250Y-96075500D03*
%TO.P,MX29,1*%
%TO.N,COL8*%
X65246250Y-96075500D03*
%TO.P,MX29,2*%
%TO.N,Net-(D29-Pad2)*%
X71596250Y-98615500D03*
%TD*%
%TO.P,MX28,1*%
%TO.N,COL7*%
X83026250Y-98615500D03*
%TO.P,MX28,2*%
%TO.N,Net-(D28-Pad2)*%
X89376250Y-96075500D03*
%TO.P,MX28,1*%
%TO.N,COL7*%
X84296250Y-96075500D03*
%TO.P,MX28,2*%
%TO.N,Net-(D28-Pad2)*%
X90646250Y-98615500D03*
%TD*%
%TO.P,MX26,1*%
%TO.N,COL5*%
X123507500Y-98615500D03*
%TO.P,MX26,2*%
%TO.N,Net-(D26-Pad2)*%
X129857500Y-96075500D03*
%TO.P,MX26,1*%
%TO.N,COL5*%
X124777500Y-96075500D03*
%TO.P,MX26,2*%
%TO.N,Net-(D26-Pad2)*%
X131127500Y-98615500D03*
%TD*%
%TO.P,MX25,1*%
%TO.N,COL4*%
X142557500Y-98615500D03*
%TO.P,MX25,2*%
%TO.N,Net-(D25-Pad2)*%
X148907500Y-96075500D03*
%TO.P,MX25,1*%
%TO.N,COL4*%
X143827500Y-96075500D03*
%TO.P,MX25,2*%
%TO.N,Net-(D25-Pad2)*%
X150177500Y-98615500D03*
%TD*%
%TO.P,MX24,1*%
%TO.N,COL3*%
X161607500Y-92265500D03*
%TO.P,MX24,2*%
%TO.N,Net-(D24-Pad2)*%
X167957500Y-89725500D03*
%TO.P,MX24,1*%
%TO.N,COL3*%
X162877500Y-89725500D03*
%TO.P,MX24,2*%
%TO.N,Net-(D24-Pad2)*%
X169227500Y-92265500D03*
%TD*%
%TO.P,MX23,1*%
%TO.N,COL2*%
X180657500Y-89884250D03*
%TO.P,MX23,2*%
%TO.N,Net-(D23-Pad2)*%
X187007500Y-87344250D03*
%TO.P,MX23,1*%
%TO.N,COL2*%
X181927500Y-87344250D03*
%TO.P,MX23,2*%
%TO.N,Net-(D23-Pad2)*%
X188277500Y-89884250D03*
%TD*%
%TO.P,MX22,1*%
%TO.N,COL1*%
X199707500Y-92265500D03*
%TO.P,MX22,2*%
%TO.N,Net-(D22-Pad2)*%
X206057500Y-89725500D03*
%TO.P,MX22,1*%
%TO.N,COL1*%
X200977500Y-89725500D03*
%TO.P,MX22,2*%
%TO.N,Net-(D22-Pad2)*%
X207327500Y-92265500D03*
%TD*%
%TO.P,MX20,1*%
%TO.N,COL9*%
X44926250Y-79565500D03*
%TO.P,MX20,2*%
%TO.N,Net-(D20-Pad2)*%
X51276250Y-77025500D03*
%TO.P,MX20,1*%
%TO.N,COL9*%
X46196250Y-77025500D03*
%TO.P,MX20,2*%
%TO.N,Net-(D20-Pad2)*%
X52546250Y-79565500D03*
%TD*%
%TO.P,MX19,1*%
%TO.N,COL8*%
X63976250Y-79565500D03*
%TO.P,MX19,2*%
%TO.N,Net-(D19-Pad2)*%
X70326250Y-77025500D03*
%TO.P,MX19,1*%
%TO.N,COL8*%
X65246250Y-77025500D03*
%TO.P,MX19,2*%
%TO.N,Net-(D19-Pad2)*%
X71596250Y-79565500D03*
%TD*%
%TO.P,MX18,1*%
%TO.N,COL7*%
X83026250Y-79565500D03*
%TO.P,MX18,2*%
%TO.N,Net-(D18-Pad2)*%
X89376250Y-77025500D03*
%TO.P,MX18,1*%
%TO.N,COL7*%
X84296250Y-77025500D03*
%TO.P,MX18,2*%
%TO.N,Net-(D18-Pad2)*%
X90646250Y-79565500D03*
%TD*%
%TO.P,MX17,1*%
%TO.N,COL6*%
X102076250Y-79565500D03*
%TO.P,MX17,2*%
%TO.N,Net-(D17-Pad2)*%
X108426250Y-77025500D03*
%TO.P,MX17,1*%
%TO.N,COL6*%
X103346250Y-77025500D03*
%TO.P,MX17,2*%
%TO.N,Net-(D17-Pad2)*%
X109696250Y-79565500D03*
%TD*%
%TO.P,MX16,1*%
%TO.N,COL5*%
X123507500Y-79565500D03*
%TO.P,MX16,2*%
%TO.N,Net-(D16-Pad2)*%
X129857500Y-77025500D03*
%TO.P,MX16,1*%
%TO.N,COL5*%
X124777500Y-77025500D03*
%TO.P,MX16,2*%
%TO.N,Net-(D16-Pad2)*%
X131127500Y-79565500D03*
%TD*%
%TO.P,MX14,1*%
%TO.N,COL3*%
X161607500Y-73215500D03*
%TO.P,MX14,2*%
%TO.N,Net-(D14-Pad2)*%
X167957500Y-70675500D03*
%TO.P,MX14,1*%
%TO.N,COL3*%
X162877500Y-70675500D03*
%TO.P,MX14,2*%
%TO.N,Net-(D14-Pad2)*%
X169227500Y-73215500D03*
%TD*%
%TO.P,MX13,1*%
%TO.N,COL2*%
X180657500Y-70834250D03*
%TO.P,MX13,2*%
%TO.N,Net-(D13-Pad2)*%
X187007500Y-68294250D03*
%TO.P,MX13,1*%
%TO.N,COL2*%
X181927500Y-68294250D03*
%TO.P,MX13,2*%
%TO.N,Net-(D13-Pad2)*%
X188277500Y-70834250D03*
%TD*%
%TO.P,MX12,1*%
%TO.N,COL1*%
X199707500Y-73215500D03*
%TO.P,MX12,2*%
%TO.N,Net-(D12-Pad2)*%
X206057500Y-70675500D03*
%TO.P,MX12,1*%
%TO.N,COL1*%
X200977500Y-70675500D03*
%TO.P,MX12,2*%
%TO.N,Net-(D12-Pad2)*%
X207327500Y-73215500D03*
%TD*%
%TO.P,MX11,1*%
%TO.N,COL0*%
X218757500Y-75596750D03*
%TO.P,MX11,2*%
%TO.N,Net-(D11-Pad2)*%
X225107500Y-73056750D03*
%TO.P,MX11,1*%
%TO.N,COL0*%
X220027500Y-73056750D03*
%TO.P,MX11,2*%
%TO.N,Net-(D11-Pad2)*%
X226377500Y-75596750D03*
%TD*%
%TO.P,MX9,1*%
%TO.N,COL8*%
X63976250Y-60515500D03*
%TO.P,MX9,2*%
%TO.N,Net-(D9-Pad2)*%
X70326250Y-57975500D03*
%TO.P,MX9,1*%
%TO.N,COL8*%
X65246250Y-57975500D03*
%TO.P,MX9,2*%
%TO.N,Net-(D9-Pad2)*%
X71596250Y-60515500D03*
%TD*%
%TO.P,MX8,1*%
%TO.N,COL7*%
X83026250Y-60515500D03*
%TO.P,MX8,2*%
%TO.N,Net-(D8-Pad2)*%
X89376250Y-57975500D03*
%TO.P,MX8,1*%
%TO.N,COL7*%
X84296250Y-57975500D03*
%TO.P,MX8,2*%
%TO.N,Net-(D8-Pad2)*%
X90646250Y-60515500D03*
%TD*%
%TO.P,MX7,1*%
%TO.N,COL6*%
X102076250Y-60515500D03*
%TO.P,MX7,2*%
%TO.N,Net-(D7-Pad2)*%
X108426250Y-57975500D03*
%TO.P,MX7,1*%
%TO.N,COL6*%
X103346250Y-57975500D03*
%TO.P,MX7,2*%
%TO.N,Net-(D7-Pad2)*%
X109696250Y-60515500D03*
%TD*%
%TO.P,MX6,1*%
%TO.N,COL5*%
X123507500Y-60515500D03*
%TO.P,MX6,2*%
%TO.N,Net-(D6-Pad2)*%
X129857500Y-57975500D03*
%TO.P,MX6,1*%
%TO.N,COL5*%
X124777500Y-57975500D03*
%TO.P,MX6,2*%
%TO.N,Net-(D6-Pad2)*%
X131127500Y-60515500D03*
%TD*%
%TO.P,MX5,1*%
%TO.N,COL4*%
X142557500Y-60515500D03*
%TO.P,MX5,2*%
%TO.N,Net-(D5-Pad2)*%
X148907500Y-57975500D03*
%TO.P,MX5,1*%
%TO.N,COL4*%
X143827500Y-57975500D03*
%TO.P,MX5,2*%
%TO.N,Net-(D5-Pad2)*%
X150177500Y-60515500D03*
%TD*%
%TO.P,MX4,1*%
%TO.N,COL3*%
X161607500Y-54165500D03*
%TO.P,MX4,2*%
%TO.N,Net-(D4-Pad2)*%
X167957500Y-51625500D03*
%TO.P,MX4,1*%
%TO.N,COL3*%
X162877500Y-51625500D03*
%TO.P,MX4,2*%
%TO.N,Net-(D4-Pad2)*%
X169227500Y-54165500D03*
%TD*%
%TO.P,MX3,1*%
%TO.N,COL2*%
X180657500Y-51784250D03*
%TO.P,MX3,2*%
%TO.N,Net-(D3-Pad2)*%
X187007500Y-49244250D03*
%TO.P,MX3,1*%
%TO.N,COL2*%
X181927500Y-49244250D03*
%TO.P,MX3,2*%
%TO.N,Net-(D3-Pad2)*%
X188277500Y-51784250D03*
%TD*%
%TO.P,MX2,1*%
%TO.N,COL1*%
X199707500Y-54165500D03*
%TO.P,MX2,2*%
%TO.N,Net-(D2-Pad2)*%
X206057500Y-51625500D03*
%TO.P,MX2,1*%
%TO.N,COL1*%
X200977500Y-51625500D03*
%TO.P,MX2,2*%
%TO.N,Net-(D2-Pad2)*%
X207327500Y-54165500D03*
%TD*%
%TO.P,MX1,1*%
%TO.N,COL0*%
X218757500Y-56546750D03*
%TO.P,MX1,2*%
%TO.N,Net-(D1-Pad2)*%
X225107500Y-54006750D03*
%TO.P,MX1,1*%
%TO.N,COL0*%
X220027500Y-54006750D03*
%TO.P,MX1,2*%
%TO.N,Net-(D1-Pad2)*%
X226377500Y-56546750D03*
%TD*%
D11*
%TO.P,U1,25*%
%TO.N,N/C*%
X248285000Y-84963000D03*
%TO.P,U1,26*%
X245745000Y-84963000D03*
%TO.P,U1,27*%
X243205000Y-84963000D03*
%TO.P,U1,28*%
X240665000Y-84963000D03*
%TO.P,U1,29*%
%TO.N,COL9*%
X238125000Y-84963000D03*
%TO.P,U1,24*%
%TO.N,N/C*%
X235585000Y-57023000D03*
%TO.P,U1,12*%
%TO.N,ROW4*%
X250596400Y-84963000D03*
%TO.P,U1,23*%
%TO.N,GND*%
X235585000Y-59563000D03*
%TO.P,U1,22*%
%TO.N,Net-(SW0-Pad1)*%
X235585000Y-62103000D03*
%TO.P,U1,21*%
%TO.N,VCC*%
X235585000Y-64643000D03*
%TO.P,U1,20*%
%TO.N,COL7*%
X235585000Y-67183000D03*
%TO.P,U1,19*%
%TO.N,COL6*%
X235585000Y-69723000D03*
%TO.P,U1,18*%
%TO.N,COL5*%
X235585000Y-72263000D03*
%TO.P,U1,17*%
%TO.N,COL4*%
X235585000Y-74803000D03*
%TO.P,U1,16*%
%TO.N,COL3*%
X235585000Y-77343000D03*
%TO.P,U1,15*%
%TO.N,COL2*%
X235585000Y-79883000D03*
%TO.P,U1,14*%
%TO.N,COL1*%
X235585000Y-82423000D03*
%TO.P,U1,13*%
%TO.N,COL0*%
X235585000Y-84963000D03*
%TO.P,U1,11*%
%TO.N,RIGHT*%
X250825000Y-82423000D03*
%TO.P,U1,10*%
%TO.N,LEFT*%
X250825000Y-79883000D03*
%TO.P,U1,9*%
%TO.N,COL8*%
X250825000Y-77343000D03*
%TO.P,U1,8*%
%TO.N,ROW2*%
X250825000Y-74803000D03*
%TO.P,U1,7*%
%TO.N,ROW3*%
X250825000Y-72263000D03*
%TO.P,U1,6*%
%TO.N,SCL*%
X250825000Y-69723000D03*
%TO.P,U1,5*%
%TO.N,SDA*%
X250825000Y-67183000D03*
%TO.P,U1,4*%
%TO.N,N/C*%
X250825000Y-64643000D03*
%TO.P,U1,3*%
X250825000Y-62103000D03*
%TO.P,U1,2*%
%TO.N,ROW1*%
X250825000Y-59563000D03*
D12*
%TO.P,U1,1*%
%TO.N,ROW0*%
X250825000Y-57023000D03*
%TD*%
D13*
%TO.P,D43,2*%
%TO.N,Net-(D43-Pad2)*%
X198680000Y-140843000D03*
D14*
%TO.P,D43,1*%
%TO.N,ROW4*%
X190880000Y-140843000D03*
%TD*%
D15*
%TO.P,R2,2*%
%TO.N,VCC*%
X240490000Y-70199250D03*
D16*
%TO.P,R2,1*%
%TO.N,SCL*%
X245570000Y-70199250D03*
%TD*%
D15*
%TO.P,R1,2*%
%TO.N,VCC*%
X240490000Y-64643000D03*
D16*
%TO.P,R1,1*%
%TO.N,SDA*%
X245570000Y-64643000D03*
%TD*%
D13*
%TO.P,D45,2*%
%TO.N,ENC1-IN*%
X163247000Y-132365750D03*
D14*
%TO.P,D45,1*%
%TO.N,ROW4*%
X155447000Y-132365750D03*
%TD*%
D13*
%TO.P,D44,2*%
%TO.N,Net-(D44-Pad2)*%
X179630000Y-140843000D03*
D14*
%TO.P,D44,1*%
%TO.N,ROW4*%
X171830000Y-140843000D03*
%TD*%
D13*
%TO.P,D42,2*%
%TO.N,Net-(D42-Pad2)*%
X217730000Y-143224250D03*
D14*
%TO.P,D42,1*%
%TO.N,ROW4*%
X209930000Y-143224250D03*
%TD*%
D13*
%TO.P,D41,2*%
%TO.N,Net-(D41-Pad2)*%
X247523000Y-135084251D03*
%TA.AperFunction,ComponentPad*%
D17*
%TO.P,D41,1*%
%TO.N,ROW4*%
G36*
X243915820Y-142932069D02*
G01*
X242530180Y-142132069D01*
X243330180Y-140746429D01*
X244715820Y-141546429D01*
X243915820Y-142932069D01*
G37*
%TD.AperFunction*%
%TD*%
D13*
%TO.P,D40,2*%
%TO.N,Net-(D40-Pad2)*%
X52630000Y-124968000D03*
D14*
%TO.P,D40,1*%
%TO.N,ROW3*%
X44830000Y-124968000D03*
%TD*%
D13*
%TO.P,D39,2*%
%TO.N,Net-(D39-Pad2)*%
X71680000Y-124968000D03*
D14*
%TO.P,D39,1*%
%TO.N,ROW3*%
X63880000Y-124968000D03*
%TD*%
D13*
%TO.P,D38,2*%
%TO.N,Net-(D38-Pad2)*%
X90730000Y-124968000D03*
D14*
%TO.P,D38,1*%
%TO.N,ROW3*%
X82930000Y-124968000D03*
%TD*%
D13*
%TO.P,D37,2*%
%TO.N,Net-(D37-Pad2)*%
X109780000Y-124968000D03*
D14*
%TO.P,D37,1*%
%TO.N,ROW3*%
X101980000Y-124968000D03*
%TD*%
D13*
%TO.P,D36,2*%
%TO.N,Net-(D36-Pad2)*%
X131211250Y-124968000D03*
D14*
%TO.P,D36,1*%
%TO.N,ROW3*%
X123411250Y-124968000D03*
%TD*%
D13*
%TO.P,D35,2*%
%TO.N,Net-(D35-Pad2)*%
X150261250Y-124968000D03*
D14*
%TO.P,D35,1*%
%TO.N,ROW3*%
X142461250Y-124968000D03*
%TD*%
D13*
%TO.P,D34,2*%
%TO.N,Net-(D34-Pad2)*%
X169311250Y-118618000D03*
D14*
%TO.P,D34,1*%
%TO.N,ROW3*%
X161511250Y-118618000D03*
%TD*%
D13*
%TO.P,D33,2*%
%TO.N,Net-(D33-Pad2)*%
X188361250Y-116236750D03*
D14*
%TO.P,D33,1*%
%TO.N,ROW3*%
X180561250Y-116236750D03*
%TD*%
D13*
%TO.P,D32,2*%
%TO.N,Net-(D32-Pad2)*%
X207411250Y-118618000D03*
D14*
%TO.P,D32,1*%
%TO.N,ROW3*%
X199611250Y-118618000D03*
%TD*%
D13*
%TO.P,D31,2*%
%TO.N,Net-(D31-Pad2)*%
X226461250Y-120999250D03*
D14*
%TO.P,D31,1*%
%TO.N,ROW3*%
X218661250Y-120999250D03*
%TD*%
D13*
%TO.P,D30,2*%
%TO.N,Net-(D30-Pad2)*%
X52630000Y-105918000D03*
D14*
%TO.P,D30,1*%
%TO.N,ROW2*%
X44830000Y-105918000D03*
%TD*%
D13*
%TO.P,D29,2*%
%TO.N,Net-(D29-Pad2)*%
X71680000Y-105918000D03*
D14*
%TO.P,D29,1*%
%TO.N,ROW2*%
X63880000Y-105918000D03*
%TD*%
D13*
%TO.P,D28,2*%
%TO.N,Net-(D28-Pad2)*%
X90730000Y-105918000D03*
D14*
%TO.P,D28,1*%
%TO.N,ROW2*%
X82930000Y-105918000D03*
%TD*%
D13*
%TO.P,D27,2*%
%TO.N,Net-(D27-Pad2)*%
X109780000Y-105918000D03*
D14*
%TO.P,D27,1*%
%TO.N,ROW2*%
X101980000Y-105918000D03*
%TD*%
D13*
%TO.P,D26,2*%
%TO.N,Net-(D26-Pad2)*%
X131211250Y-105918000D03*
D14*
%TO.P,D26,1*%
%TO.N,ROW2*%
X123411250Y-105918000D03*
%TD*%
D13*
%TO.P,D25,2*%
%TO.N,Net-(D25-Pad2)*%
X150261250Y-105918000D03*
D14*
%TO.P,D25,1*%
%TO.N,ROW2*%
X142461250Y-105918000D03*
%TD*%
D13*
%TO.P,D24,2*%
%TO.N,Net-(D24-Pad2)*%
X169311250Y-99568000D03*
D14*
%TO.P,D24,1*%
%TO.N,ROW2*%
X161511250Y-99568000D03*
%TD*%
D13*
%TO.P,D23,2*%
%TO.N,Net-(D23-Pad2)*%
X188361250Y-97186750D03*
D14*
%TO.P,D23,1*%
%TO.N,ROW2*%
X180561250Y-97186750D03*
%TD*%
D13*
%TO.P,D22,2*%
%TO.N,Net-(D22-Pad2)*%
X207411250Y-99568000D03*
D14*
%TO.P,D22,1*%
%TO.N,ROW2*%
X199611250Y-99568000D03*
%TD*%
D13*
%TO.P,D21,2*%
%TO.N,Net-(D21-Pad2)*%
X226461250Y-101949250D03*
D14*
%TO.P,D21,1*%
%TO.N,ROW2*%
X218661250Y-101949250D03*
%TD*%
D13*
%TO.P,D20,2*%
%TO.N,Net-(D20-Pad2)*%
X52630000Y-86868000D03*
D14*
%TO.P,D20,1*%
%TO.N,ROW1*%
X44830000Y-86868000D03*
%TD*%
D13*
%TO.P,D19,2*%
%TO.N,Net-(D19-Pad2)*%
X71680000Y-86868000D03*
D14*
%TO.P,D19,1*%
%TO.N,ROW1*%
X63880000Y-86868000D03*
%TD*%
D13*
%TO.P,D18,2*%
%TO.N,Net-(D18-Pad2)*%
X90730000Y-86868000D03*
D14*
%TO.P,D18,1*%
%TO.N,ROW1*%
X82930000Y-86868000D03*
%TD*%
D13*
%TO.P,D17,2*%
%TO.N,Net-(D17-Pad2)*%
X109653000Y-86868000D03*
D14*
%TO.P,D17,1*%
%TO.N,ROW1*%
X101853000Y-86868000D03*
%TD*%
D13*
%TO.P,D16,2*%
%TO.N,Net-(D16-Pad2)*%
X131211250Y-86868000D03*
D14*
%TO.P,D16,1*%
%TO.N,ROW1*%
X123411250Y-86868000D03*
%TD*%
D13*
%TO.P,D15,2*%
%TO.N,Net-(D15-Pad2)*%
X150261250Y-86868000D03*
D14*
%TO.P,D15,1*%
%TO.N,ROW1*%
X142461250Y-86868000D03*
%TD*%
D13*
%TO.P,D14,2*%
%TO.N,Net-(D14-Pad2)*%
X169311250Y-80518000D03*
D14*
%TO.P,D14,1*%
%TO.N,ROW1*%
X161511250Y-80518000D03*
%TD*%
D13*
%TO.P,D13,2*%
%TO.N,Net-(D13-Pad2)*%
X188361250Y-78136750D03*
D14*
%TO.P,D13,1*%
%TO.N,ROW1*%
X180561250Y-78136750D03*
%TD*%
D13*
%TO.P,D12,2*%
%TO.N,Net-(D12-Pad2)*%
X207411250Y-80518000D03*
D14*
%TO.P,D12,1*%
%TO.N,ROW1*%
X199611250Y-80518000D03*
%TD*%
D13*
%TO.P,D11,2*%
%TO.N,Net-(D11-Pad2)*%
X226461250Y-82899250D03*
D14*
%TO.P,D11,1*%
%TO.N,ROW1*%
X218661250Y-82899250D03*
%TD*%
D13*
%TO.P,D10,2*%
%TO.N,Net-(D10-Pad2)*%
X52630000Y-67818000D03*
D14*
%TO.P,D10,1*%
%TO.N,ROW0*%
X44830000Y-67818000D03*
%TD*%
D13*
%TO.P,D9,2*%
%TO.N,Net-(D9-Pad2)*%
X71680000Y-67818000D03*
D14*
%TO.P,D9,1*%
%TO.N,ROW0*%
X63880000Y-67818000D03*
%TD*%
D13*
%TO.P,D8,2*%
%TO.N,Net-(D8-Pad2)*%
X90730000Y-67818000D03*
D14*
%TO.P,D8,1*%
%TO.N,ROW0*%
X82930000Y-67818000D03*
%TD*%
D13*
%TO.P,D7,2*%
%TO.N,Net-(D7-Pad2)*%
X109780000Y-67818000D03*
D14*
%TO.P,D7,1*%
%TO.N,ROW0*%
X101980000Y-67818000D03*
%TD*%
D13*
%TO.P,D6,2*%
%TO.N,Net-(D6-Pad2)*%
X131211250Y-67818000D03*
D14*
%TO.P,D6,1*%
%TO.N,ROW0*%
X123411250Y-67818000D03*
%TD*%
D13*
%TO.P,D5,2*%
%TO.N,Net-(D5-Pad2)*%
X150261250Y-67818000D03*
D14*
%TO.P,D5,1*%
%TO.N,ROW0*%
X142461250Y-67818000D03*
%TD*%
D13*
%TO.P,D4,2*%
%TO.N,Net-(D4-Pad2)*%
X169311250Y-61468000D03*
D14*
%TO.P,D4,1*%
%TO.N,ROW0*%
X161511250Y-61468000D03*
%TD*%
D13*
%TO.P,D3,2*%
%TO.N,Net-(D3-Pad2)*%
X188361250Y-59086750D03*
D14*
%TO.P,D3,1*%
%TO.N,ROW0*%
X180561250Y-59086750D03*
%TD*%
D13*
%TO.P,D2,2*%
%TO.N,Net-(D2-Pad2)*%
X207411250Y-61468000D03*
D14*
%TO.P,D2,1*%
%TO.N,ROW0*%
X199611250Y-61468000D03*
%TD*%
D13*
%TO.P,D1,2*%
%TO.N,Net-(D1-Pad2)*%
X226461250Y-63849250D03*
D14*
%TO.P,D1,1*%
%TO.N,ROW0*%
X218661250Y-63849250D03*
%TD*%
D18*
%TO.P,ENC1,S1*%
%TO.N,ENC1-IN*%
X161807000Y-128809750D03*
%TO.P,ENC1,S2*%
%TO.N,COL4*%
X156807000Y-128809750D03*
D19*
%TO.P,ENC1,MP*%
%TO.N,N/C*%
X164907000Y-135809750D03*
X153707000Y-135809750D03*
D18*
%TO.P,ENC1,B*%
%TO.N,RIGHT*%
X161807000Y-143309750D03*
%TO.P,ENC1,C*%
%TO.N,GND*%
X159307000Y-143309750D03*
D20*
%TO.P,ENC1,A*%
%TO.N,LEFT*%
X156807000Y-143309750D03*
%TD*%
D18*
%TO.P,SW0,1*%
%TO.N,Net-(SW0-Pad1)*%
X246466500Y-89249250D03*
%TO.P,SW0,2*%
%TO.N,GND*%
X246466500Y-93749250D03*
%TO.P,SW0,1*%
%TO.N,Net-(SW0-Pad1)*%
X239966500Y-89249250D03*
%TO.P,SW0,2*%
%TO.N,GND*%
X239966500Y-93749250D03*
%TD*%
D21*
%TO.N,ROW1*%
X228212750Y-81724500D03*
X234308750Y-78676500D03*
X248898699Y-76898500D03*
%TO.N,ROW2*%
X93084750Y-104711500D03*
%TO.N,ROW3*%
X93719750Y-123761500D03*
%TO.N,ROW4*%
X250183750Y-90233500D03*
%TO.N,COL0*%
X217536249Y-86569279D03*
%TO.N,COL1*%
X198486249Y-83825768D03*
%TO.N,COL2*%
X179436249Y-81094750D03*
%TO.N,COL3*%
X160386249Y-82223999D03*
%TO.N,COL4*%
X142073472Y-75271472D03*
%TO.N,COL5*%
X122520125Y-74768125D03*
%TO.N,COL6*%
X100854999Y-69255251D03*
X100854999Y-74081251D03*
%TO.N,COL7*%
X121405750Y-70055501D03*
X110829000Y-72176251D03*
X81804999Y-71968749D03*
%TO.N,COL8*%
X62754999Y-69555749D03*
%TO.N,COL9*%
X237511300Y-76136500D03*
X118992750Y-77279500D03*
X44685000Y-75514250D03*
X110102750Y-75501500D03*
X111626750Y-76898500D03*
%TO.N,VCC*%
X244437000Y-83216750D03*
X244437000Y-88423750D03*
%TO.N,SDA*%
X242024000Y-73310750D03*
X242532000Y-88423750D03*
X242024000Y-79660750D03*
%TO.N,GND*%
X239975501Y-87297249D03*
X157024000Y-90019858D03*
%TO.N,LEFT*%
X156299000Y-89312750D03*
%TO.N,RIGHT*%
X157024000Y-88296750D03*
%TD*%
D22*
%TO.N,Net-(D1-Pad2)*%
X226377500Y-55276750D02*
X226377500Y-56546750D01*
X225107500Y-54006750D02*
X226377500Y-55276750D01*
X226377500Y-63765500D02*
X226461250Y-63849250D01*
X226377500Y-56546750D02*
X226377500Y-63765500D01*
%TO.N,Net-(D2-Pad2)*%
X207327500Y-52895500D02*
X207327500Y-54165500D01*
X206057500Y-51625500D02*
X207327500Y-52895500D01*
X207327500Y-61384250D02*
X207411250Y-61468000D01*
X207327500Y-54165500D02*
X207327500Y-61384250D01*
%TO.N,Net-(D3-Pad2)*%
X188277500Y-50514250D02*
X188277500Y-51784250D01*
X187007500Y-49244250D02*
X188277500Y-50514250D01*
X188277500Y-59003000D02*
X188361250Y-59086750D01*
X188277500Y-51784250D02*
X188277500Y-59003000D01*
%TO.N,Net-(D4-Pad2)*%
X169227500Y-52895500D02*
X169227500Y-54165500D01*
X167957500Y-51625500D02*
X169227500Y-52895500D01*
X169227500Y-61384250D02*
X169311250Y-61468000D01*
X169227500Y-54165500D02*
X169227500Y-61384250D01*
%TO.N,Net-(D5-Pad2)*%
X150177500Y-59245500D02*
X150177500Y-60515500D01*
X148907500Y-57975500D02*
X150177500Y-59245500D01*
X150177500Y-67734250D02*
X150261250Y-67818000D01*
X150177500Y-60515500D02*
X150177500Y-67734250D01*
%TO.N,Net-(D6-Pad2)*%
X131127500Y-59245500D02*
X131127500Y-60515500D01*
X129857500Y-57975500D02*
X131127500Y-59245500D01*
X131127500Y-67734250D02*
X131211250Y-67818000D01*
X131127500Y-60515500D02*
X131127500Y-67734250D01*
%TO.N,Net-(D7-Pad2)*%
X109696250Y-59245500D02*
X109696250Y-60515500D01*
X108426250Y-57975500D02*
X109696250Y-59245500D01*
X109696250Y-67734250D02*
X109780000Y-67818000D01*
X109696250Y-60515500D02*
X109696250Y-67734250D01*
%TO.N,Net-(D8-Pad2)*%
X90646250Y-59245500D02*
X90646250Y-60515500D01*
X89376250Y-57975500D02*
X90646250Y-59245500D01*
X90646250Y-67734250D02*
X90730000Y-67818000D01*
X90646250Y-60515500D02*
X90646250Y-67734250D01*
%TO.N,Net-(D9-Pad2)*%
X71596250Y-59245500D02*
X71596250Y-60515500D01*
X70326250Y-57975500D02*
X71596250Y-59245500D01*
X71596250Y-67734250D02*
X71680000Y-67818000D01*
X71596250Y-60515500D02*
X71596250Y-67734250D01*
%TO.N,Net-(D10-Pad2)*%
X52546250Y-59245500D02*
X52546250Y-60515500D01*
X51276250Y-57975500D02*
X52546250Y-59245500D01*
X52546250Y-67734250D02*
X52630000Y-67818000D01*
X52546250Y-60515500D02*
X52546250Y-67734250D01*
%TO.N,Net-(D11-Pad2)*%
X226377500Y-74326750D02*
X226377500Y-75596750D01*
X225107500Y-73056750D02*
X226377500Y-74326750D01*
X226377500Y-82815500D02*
X226461250Y-82899250D01*
X226377500Y-75596750D02*
X226377500Y-82815500D01*
%TO.N,ROW1*%
X231260750Y-81724500D02*
X234308750Y-78676500D01*
X228212750Y-81724500D02*
X231260750Y-81724500D01*
X248898699Y-61489301D02*
X250825000Y-59563000D01*
X248898699Y-76898500D02*
X248898699Y-61489301D01*
%TO.N,Net-(D12-Pad2)*%
X207327500Y-71945500D02*
X207327500Y-73215500D01*
X206057500Y-70675500D02*
X207327500Y-71945500D01*
X207327500Y-80434250D02*
X207411250Y-80518000D01*
X207327500Y-73215500D02*
X207327500Y-80434250D01*
%TO.N,Net-(D13-Pad2)*%
X188277500Y-69564250D02*
X188277500Y-70834250D01*
X187007500Y-68294250D02*
X188277500Y-69564250D01*
X188277500Y-78053000D02*
X188361250Y-78136750D01*
X188277500Y-70834250D02*
X188277500Y-78053000D01*
%TO.N,Net-(D14-Pad2)*%
X169227500Y-71945500D02*
X169227500Y-73215500D01*
X167957500Y-70675500D02*
X169227500Y-71945500D01*
X169227500Y-80434250D02*
X169311250Y-80518000D01*
X169227500Y-73215500D02*
X169227500Y-80434250D01*
%TO.N,Net-(D15-Pad2)*%
X150177500Y-78295500D02*
X150177500Y-79565500D01*
X148907500Y-77025500D02*
X150177500Y-78295500D01*
X150177500Y-86784250D02*
X150261250Y-86868000D01*
X150177500Y-79565500D02*
X150177500Y-86784250D01*
%TO.N,Net-(D16-Pad2)*%
X131127500Y-78295500D02*
X131127500Y-79565500D01*
X129857500Y-77025500D02*
X131127500Y-78295500D01*
X131127500Y-86784250D02*
X131211250Y-86868000D01*
X131127500Y-79565500D02*
X131127500Y-86784250D01*
%TO.N,Net-(D17-Pad2)*%
X109696250Y-78295500D02*
X109696250Y-79565500D01*
X108426250Y-77025500D02*
X109696250Y-78295500D01*
X109696250Y-86824750D02*
X109653000Y-86868000D01*
X109696250Y-79565500D02*
X109696250Y-86824750D01*
%TO.N,Net-(D18-Pad2)*%
X90646250Y-78295500D02*
X90646250Y-79565500D01*
X89376250Y-77025500D02*
X90646250Y-78295500D01*
X90646250Y-86784250D02*
X90730000Y-86868000D01*
X90646250Y-79565500D02*
X90646250Y-86784250D01*
%TO.N,Net-(D19-Pad2)*%
X71596250Y-78295500D02*
X71596250Y-79565500D01*
X70326250Y-77025500D02*
X71596250Y-78295500D01*
X71596250Y-86784250D02*
X71680000Y-86868000D01*
X71596250Y-79565500D02*
X71596250Y-86784250D01*
%TO.N,Net-(D20-Pad2)*%
X52546250Y-78295500D02*
X52546250Y-79565500D01*
X51276250Y-77025500D02*
X52546250Y-78295500D01*
X52546250Y-86784250D02*
X52630000Y-86868000D01*
X52546250Y-79565500D02*
X52546250Y-86784250D01*
%TO.N,Net-(D21-Pad2)*%
X226377500Y-93376750D02*
X226377500Y-94646750D01*
X225107500Y-92106750D02*
X226377500Y-93376750D01*
X226377500Y-101865500D02*
X226461250Y-101949250D01*
X226377500Y-94646750D02*
X226377500Y-101865500D01*
%TO.N,ROW2*%
X98244250Y-80835500D02*
X92068750Y-87011000D01*
X92068750Y-87011000D02*
X92068750Y-97980500D01*
X93092151Y-99003901D02*
X93092151Y-104704099D01*
X92068750Y-97980500D02*
X93092151Y-99003901D01*
X93092151Y-104704099D02*
X93084750Y-104711500D01*
%TO.N,Net-(D22-Pad2)*%
X207327500Y-90995500D02*
X207327500Y-92265500D01*
X206057500Y-89725500D02*
X207327500Y-90995500D01*
X207327500Y-99484250D02*
X207411250Y-99568000D01*
X207327500Y-92265500D02*
X207327500Y-99484250D01*
%TO.N,Net-(D23-Pad2)*%
X188277500Y-88614250D02*
X188277500Y-89884250D01*
X187007500Y-87344250D02*
X188277500Y-88614250D01*
X188277500Y-97103000D02*
X188361250Y-97186750D01*
X188277500Y-89884250D02*
X188277500Y-97103000D01*
%TO.N,Net-(D24-Pad2)*%
X169227500Y-90995500D02*
X169227500Y-92265500D01*
X167957500Y-89725500D02*
X169227500Y-90995500D01*
X169227500Y-99484250D02*
X169311250Y-99568000D01*
X169227500Y-92265500D02*
X169227500Y-99484250D01*
%TO.N,Net-(D25-Pad2)*%
X150177500Y-97345500D02*
X150177500Y-98615500D01*
X148907500Y-96075500D02*
X150177500Y-97345500D01*
X150177500Y-105834250D02*
X150261250Y-105918000D01*
X150177500Y-98615500D02*
X150177500Y-105834250D01*
%TO.N,Net-(D26-Pad2)*%
X131127500Y-97345500D02*
X131127500Y-98615500D01*
X129857500Y-96075500D02*
X131127500Y-97345500D01*
X131127500Y-105834250D02*
X131211250Y-105918000D01*
X131127500Y-98615500D02*
X131127500Y-105834250D01*
%TO.N,Net-(D27-Pad2)*%
X109696250Y-97345500D02*
X109696250Y-98615500D01*
X108426250Y-96075500D02*
X109696250Y-97345500D01*
X109696250Y-105834250D02*
X109780000Y-105918000D01*
X109696250Y-98615500D02*
X109696250Y-105834250D01*
%TO.N,Net-(D28-Pad2)*%
X90646250Y-97345500D02*
X90646250Y-98615500D01*
X89376250Y-96075500D02*
X90646250Y-97345500D01*
X90646250Y-105834250D02*
X90730000Y-105918000D01*
X90646250Y-98615500D02*
X90646250Y-105834250D01*
%TO.N,Net-(D29-Pad2)*%
X71596250Y-97345500D02*
X71596250Y-98615500D01*
X70326250Y-96075500D02*
X71596250Y-97345500D01*
X71596250Y-105834250D02*
X71680000Y-105918000D01*
X71596250Y-98615500D02*
X71596250Y-105834250D01*
%TO.N,Net-(D30-Pad2)*%
X52546250Y-97345500D02*
X52546250Y-98615500D01*
X51276250Y-96075500D02*
X52546250Y-97345500D01*
X52546250Y-105834250D02*
X52630000Y-105918000D01*
X52546250Y-98615500D02*
X52546250Y-105834250D01*
%TO.N,Net-(D31-Pad2)*%
X226377500Y-112426750D02*
X226377500Y-113696750D01*
X225107500Y-111156750D02*
X226377500Y-112426750D01*
X226377500Y-120915500D02*
X226461250Y-120999250D01*
X226377500Y-113696750D02*
X226377500Y-120915500D01*
%TO.N,ROW3*%
X93809751Y-99085091D02*
X93809751Y-123671499D01*
X96340660Y-83375500D02*
X92518760Y-87197400D01*
X92518760Y-87197400D02*
X92518760Y-97794100D01*
X98244250Y-83375500D02*
X96340660Y-83375500D01*
X93809751Y-123671499D02*
X93719750Y-123761500D01*
X92518760Y-97794100D02*
X93809751Y-99085091D01*
%TO.N,Net-(D32-Pad2)*%
X207327500Y-110045500D02*
X207327500Y-111315500D01*
X206057500Y-108775500D02*
X207327500Y-110045500D01*
X207327500Y-118534250D02*
X207411250Y-118618000D01*
X207327500Y-111315500D02*
X207327500Y-118534250D01*
%TO.N,Net-(D33-Pad2)*%
X188277500Y-107664250D02*
X188277500Y-108934250D01*
X187007500Y-106394250D02*
X188277500Y-107664250D01*
X188277500Y-116153000D02*
X188361250Y-116236750D01*
X188277500Y-108934250D02*
X188277500Y-116153000D01*
%TO.N,Net-(D34-Pad2)*%
X169227500Y-110045500D02*
X169227500Y-111315500D01*
X167957500Y-108775500D02*
X169227500Y-110045500D01*
X169227500Y-118534250D02*
X169311250Y-118618000D01*
X169227500Y-111315500D02*
X169227500Y-118534250D01*
%TO.N,Net-(D35-Pad2)*%
X150177500Y-116395500D02*
X150177500Y-117665500D01*
X148907500Y-115125500D02*
X150177500Y-116395500D01*
X150177500Y-124884250D02*
X150261250Y-124968000D01*
X150177500Y-117665500D02*
X150177500Y-124884250D01*
%TO.N,Net-(D36-Pad2)*%
X131127500Y-116395500D02*
X131127500Y-117665500D01*
X129857500Y-115125500D02*
X131127500Y-116395500D01*
X131127500Y-124884250D02*
X131211250Y-124968000D01*
X131127500Y-117665500D02*
X131127500Y-124884250D01*
%TO.N,Net-(D37-Pad2)*%
X109696250Y-116395500D02*
X109696250Y-117665500D01*
X108426250Y-115125500D02*
X109696250Y-116395500D01*
X109696250Y-124884250D02*
X109780000Y-124968000D01*
X109696250Y-117665500D02*
X109696250Y-124884250D01*
%TO.N,Net-(D38-Pad2)*%
X90646250Y-116395500D02*
X90646250Y-117665500D01*
X89376250Y-115125500D02*
X90646250Y-116395500D01*
X90646250Y-124884250D02*
X90730000Y-124968000D01*
X90646250Y-117665500D02*
X90646250Y-124884250D01*
%TO.N,Net-(D39-Pad2)*%
X71596250Y-116395500D02*
X71596250Y-117665500D01*
X70326250Y-115125500D02*
X71596250Y-116395500D01*
X71596250Y-124884250D02*
X71680000Y-124968000D01*
X71596250Y-117665500D02*
X71596250Y-124884250D01*
%TO.N,Net-(D40-Pad2)*%
X52546250Y-116395500D02*
X52546250Y-117665500D01*
X51276250Y-115125500D02*
X52546250Y-116395500D01*
X52546250Y-124884250D02*
X52630000Y-124968000D01*
X52546250Y-117665500D02*
X52546250Y-124884250D01*
%TO.N,ROW4*%
X250183750Y-85375650D02*
X250596400Y-84963000D01*
X250183750Y-90233500D02*
X250183750Y-85375650D01*
%TO.N,Net-(D42-Pad2)*%
X217640000Y-134651750D02*
X217640000Y-135921750D01*
X216370000Y-133381750D02*
X217640000Y-134651750D01*
X217640000Y-143134250D02*
X217730000Y-143224250D01*
X217640000Y-135921750D02*
X217640000Y-143134250D01*
%TO.N,Net-(D43-Pad2)*%
X198590000Y-131984750D02*
X198590000Y-133254750D01*
X197320000Y-130714750D02*
X198590000Y-131984750D01*
X198590000Y-140753000D02*
X198680000Y-140843000D01*
X198590000Y-133254750D02*
X198590000Y-140753000D01*
%TO.N,Net-(D44-Pad2)*%
X179540000Y-131984750D02*
X179540000Y-133254750D01*
X178270000Y-130714750D02*
X179540000Y-131984750D01*
X179540000Y-140753000D02*
X179630000Y-140843000D01*
X179540000Y-133254750D02*
X179540000Y-140753000D01*
%TO.N,COL0*%
X237284295Y-137527159D02*
X237284295Y-138332307D01*
X235719591Y-135962455D02*
X237284295Y-137527159D01*
X218757500Y-112426750D02*
X218757500Y-113696750D01*
X220027500Y-111156750D02*
X218757500Y-112426750D01*
X218757500Y-93376750D02*
X218757500Y-94646750D01*
X220027500Y-92106750D02*
X218757500Y-93376750D01*
X218757500Y-74326750D02*
X218757500Y-75596750D01*
X220027500Y-73056750D02*
X218757500Y-74326750D01*
X218757500Y-55276750D02*
X218757500Y-56546750D01*
X220027500Y-54006750D02*
X218757500Y-55276750D01*
X217536249Y-70565499D02*
X220027500Y-73056750D01*
X217536249Y-62789249D02*
X217536249Y-70565499D01*
X218757500Y-61567998D02*
X217536249Y-62789249D01*
X218757500Y-56546750D02*
X218757500Y-61567998D01*
X217536249Y-89615499D02*
X220027500Y-92106750D01*
X217536249Y-81839249D02*
X217536249Y-89615499D01*
X218757500Y-80617998D02*
X217536249Y-81839249D01*
X218757500Y-75596750D02*
X218757500Y-80617998D01*
X217536249Y-108665499D02*
X220027500Y-111156750D01*
X217536249Y-100889249D02*
X217536249Y-108665499D01*
X218757500Y-99667998D02*
X217536249Y-100889249D01*
X218757500Y-94646750D02*
X218757500Y-99667998D01*
X217536249Y-126488001D02*
X227010703Y-135962455D01*
X218757500Y-118717998D02*
X217536249Y-119939249D01*
X227010703Y-135962455D02*
X235719591Y-135962455D01*
X217536249Y-119939249D02*
X217536249Y-126488001D01*
X218757500Y-113696750D02*
X218757500Y-118717998D01*
%TO.N,COL1*%
X210020000Y-134651750D02*
X210020000Y-135921750D01*
X211290000Y-133381750D02*
X210020000Y-134651750D01*
X199707500Y-110045500D02*
X199707500Y-111315500D01*
X200977500Y-108775500D02*
X199707500Y-110045500D01*
X199707500Y-71945500D02*
X199707500Y-73215500D01*
X200977500Y-70675500D02*
X199707500Y-71945500D01*
X199707500Y-52895500D02*
X199707500Y-54165500D01*
X200977500Y-51625500D02*
X199707500Y-52895500D01*
X199707500Y-90995500D02*
X199707500Y-92265500D01*
X200977500Y-89725500D02*
X199707500Y-90995500D01*
X198486249Y-60407999D02*
X198486249Y-68184249D01*
X199707500Y-59186748D02*
X198486249Y-60407999D01*
X198486249Y-68184249D02*
X200977500Y-70675500D01*
X199707500Y-54165500D02*
X199707500Y-59186748D01*
X199707500Y-78236748D02*
X198486249Y-79457999D01*
X198486249Y-87234249D02*
X200977500Y-89725500D01*
X199707500Y-73215500D02*
X199707500Y-78236748D01*
X198486249Y-106284249D02*
X200977500Y-108775500D01*
X198486249Y-96497085D02*
X198486249Y-106284249D01*
X199707500Y-95275834D02*
X198486249Y-96497085D01*
X199707500Y-92265500D02*
X199707500Y-95275834D01*
X198486249Y-120577999D02*
X211290000Y-133381750D01*
X199707500Y-116336748D02*
X198486249Y-117557999D01*
X198486249Y-117557999D02*
X198486249Y-120577999D01*
X199707500Y-111315500D02*
X199707500Y-116336748D01*
X198486249Y-79457999D02*
X198486249Y-87234249D01*
%TO.N,COL2*%
X190970000Y-131984750D02*
X190970000Y-133254750D01*
X192240000Y-130714750D02*
X190970000Y-131984750D01*
X180657500Y-50514250D02*
X180657500Y-51784250D01*
X181927500Y-49244250D02*
X180657500Y-50514250D01*
X180657500Y-107664250D02*
X180657500Y-108934250D01*
X181927500Y-106394250D02*
X180657500Y-107664250D01*
X180657500Y-69564250D02*
X180657500Y-70834250D01*
X181927500Y-68294250D02*
X180657500Y-69564250D01*
X180657500Y-88614250D02*
X180657500Y-89884250D01*
X181927500Y-87344250D02*
X180657500Y-88614250D01*
X179436249Y-65802999D02*
X181927500Y-68294250D01*
X179436249Y-58026749D02*
X179436249Y-65802999D01*
X180657500Y-56805498D02*
X179436249Y-58026749D01*
X180657500Y-51784250D02*
X180657500Y-56805498D01*
X179436249Y-84852999D02*
X181927500Y-87344250D01*
X179436249Y-77076749D02*
X179436249Y-84852999D01*
X180657500Y-75855498D02*
X179436249Y-77076749D01*
X180657500Y-70834250D02*
X180657500Y-75855498D01*
X179436249Y-103902999D02*
X181927500Y-106394250D01*
X180657500Y-94905498D02*
X179436249Y-96126749D01*
X179436249Y-96126749D02*
X179436249Y-103902999D01*
X180657500Y-89884250D02*
X180657500Y-94905498D01*
X179436249Y-117910999D02*
X192240000Y-130714750D01*
X179436249Y-113165835D02*
X179436249Y-117910999D01*
X180657500Y-111944584D02*
X179436249Y-113165835D01*
X180657500Y-108934250D02*
X180657500Y-111944584D01*
%TO.N,COL3*%
X171620750Y-133540500D02*
X171926250Y-133540500D01*
X171920000Y-131984750D02*
X171920000Y-133254750D01*
X173190000Y-130714750D02*
X171920000Y-131984750D01*
X161607500Y-52895500D02*
X161607500Y-54165500D01*
X162877500Y-51625500D02*
X161607500Y-52895500D01*
X161607500Y-71945500D02*
X161607500Y-73215500D01*
X162877500Y-70675500D02*
X161607500Y-71945500D01*
X161607500Y-90995500D02*
X161607500Y-92265500D01*
X162877500Y-89725500D02*
X161607500Y-90995500D01*
X161607500Y-110045500D02*
X161607500Y-111315500D01*
X162877500Y-108775500D02*
X161607500Y-110045500D01*
X160386249Y-68184249D02*
X162877500Y-70675500D01*
X160386249Y-60407999D02*
X160386249Y-68184249D01*
X161607500Y-59186748D02*
X160386249Y-60407999D01*
X161607500Y-54165500D02*
X161607500Y-59186748D01*
X160386249Y-87234249D02*
X162877500Y-89725500D01*
X161607500Y-78236748D02*
X160386249Y-79457999D01*
X161607500Y-73215500D02*
X161607500Y-78236748D01*
X160386249Y-106284249D02*
X162877500Y-108775500D01*
X160386249Y-98507999D02*
X160386249Y-106284249D01*
X161607500Y-97286748D02*
X160386249Y-98507999D01*
X161607500Y-92265500D02*
X161607500Y-97286748D01*
X171422998Y-130714750D02*
X173190000Y-130714750D01*
X160386249Y-115547085D02*
X160386249Y-119678001D01*
X160386249Y-119678001D02*
X171422998Y-130714750D01*
X161607500Y-114325834D02*
X160386249Y-115547085D01*
X161607500Y-111315500D02*
X161607500Y-114325834D01*
X160386249Y-82223999D02*
X160386249Y-87234249D01*
X160386249Y-79457999D02*
X160386249Y-82223999D01*
%TO.N,COL4*%
X156362500Y-128365250D02*
X156807000Y-128809750D01*
X142557500Y-59245500D02*
X142557500Y-60515500D01*
X143827500Y-57975500D02*
X142557500Y-59245500D01*
X142557500Y-78295500D02*
X142557500Y-79565500D01*
X143827500Y-77025500D02*
X142557500Y-78295500D01*
X142557500Y-97345500D02*
X142557500Y-98615500D01*
X143827500Y-96075500D02*
X142557500Y-97345500D01*
X142557500Y-116395500D02*
X142557500Y-117665500D01*
X143827500Y-115125500D02*
X142557500Y-116395500D01*
X141336249Y-74534249D02*
X143827500Y-77025500D01*
X141336249Y-66757999D02*
X141336249Y-74534249D01*
X142557500Y-65536748D02*
X141336249Y-66757999D01*
X142557500Y-60515500D02*
X142557500Y-65536748D01*
X141336249Y-93584249D02*
X143827500Y-96075500D01*
X141336249Y-85807999D02*
X141336249Y-93584249D01*
X142557500Y-84586748D02*
X141336249Y-85807999D01*
X142557500Y-79565500D02*
X142557500Y-84586748D01*
X141336249Y-112634249D02*
X143827500Y-115125500D01*
X141336249Y-104857999D02*
X141336249Y-112634249D01*
X142557500Y-103636748D02*
X141336249Y-104857999D01*
X142557500Y-98615500D02*
X142557500Y-103636748D01*
X141336249Y-126028001D02*
X144117998Y-128809750D01*
X144117998Y-128809750D02*
X156807000Y-128809750D01*
X141336249Y-123907999D02*
X141336249Y-126028001D01*
X142557500Y-122686748D02*
X141336249Y-123907999D01*
X142557500Y-117665500D02*
X142557500Y-122686748D01*
%TO.N,COL5*%
X123507500Y-59245500D02*
X123507500Y-60515500D01*
X124777500Y-57975500D02*
X123507500Y-59245500D01*
X123507500Y-78295500D02*
X123507500Y-79565500D01*
X124777500Y-77025500D02*
X123507500Y-78295500D01*
X123507500Y-97345500D02*
X123507500Y-98615500D01*
X124777500Y-96075500D02*
X123507500Y-97345500D01*
X123507500Y-116395500D02*
X123507500Y-117665500D01*
X124777500Y-115125500D02*
X123507500Y-116395500D01*
X122286249Y-64747085D02*
X122286249Y-74534249D01*
X123507500Y-63525834D02*
X122286249Y-64747085D01*
X123507500Y-60515500D02*
X123507500Y-63525834D01*
X122286249Y-85807999D02*
X122286249Y-93584249D01*
X123507500Y-84586748D02*
X122286249Y-85807999D01*
X122286249Y-93584249D02*
X124777500Y-96075500D01*
X123507500Y-79565500D02*
X123507500Y-84586748D01*
X122286249Y-104857999D02*
X122286249Y-112634249D01*
X123507500Y-103636748D02*
X122286249Y-104857999D01*
X122286249Y-112634249D02*
X124777500Y-115125500D01*
X123507500Y-98615500D02*
X123507500Y-103636748D01*
X122520125Y-74768125D02*
X124777500Y-77025500D01*
X122286249Y-74534249D02*
X122520125Y-74768125D01*
%TO.N,COL6*%
X102076250Y-116395500D02*
X102076250Y-117665500D01*
X103346250Y-115125500D02*
X102076250Y-116395500D01*
X102076250Y-97345500D02*
X102076250Y-98615500D01*
X103346250Y-96075500D02*
X102076250Y-97345500D01*
X102076250Y-78295500D02*
X102076250Y-79565500D01*
X103346250Y-77025500D02*
X102076250Y-78295500D01*
X102076250Y-59245500D02*
X102076250Y-60515500D01*
X103346250Y-57975500D02*
X102076250Y-59245500D01*
X100854999Y-74534249D02*
X103346250Y-77025500D01*
X102076250Y-63525834D02*
X100854999Y-64747085D01*
X102076250Y-60515500D02*
X102076250Y-63525834D01*
X100727999Y-93457249D02*
X103346250Y-96075500D01*
X100727999Y-85807999D02*
X100727999Y-93457249D01*
X102076250Y-84459748D02*
X100727999Y-85807999D01*
X102076250Y-79565500D02*
X102076250Y-84459748D01*
X100854999Y-112634249D02*
X103346250Y-115125500D01*
X102076250Y-103636748D02*
X100854999Y-104857999D01*
X100854999Y-104857999D02*
X100854999Y-112634249D01*
X102076250Y-98615500D02*
X102076250Y-103636748D01*
X100854999Y-64747085D02*
X100854999Y-69255251D01*
X100854999Y-74081251D02*
X100854999Y-74534249D01*
X100854999Y-69255251D02*
X100854999Y-74081251D01*
%TO.N,COL7*%
X83026250Y-59245500D02*
X83026250Y-60515500D01*
X84296250Y-57975500D02*
X83026250Y-59245500D01*
X83026250Y-78295500D02*
X83026250Y-79565500D01*
X84296250Y-77025500D02*
X83026250Y-78295500D01*
X83026250Y-97345500D02*
X83026250Y-98615500D01*
X84296250Y-96075500D02*
X83026250Y-97345500D01*
X83026250Y-116395500D02*
X83026250Y-117665500D01*
X84296250Y-115125500D02*
X83026250Y-116395500D01*
X83026250Y-65536748D02*
X81804999Y-66757999D01*
X81804999Y-74534249D02*
X84296250Y-77025500D01*
X83026250Y-60515500D02*
X83026250Y-65536748D01*
X81804999Y-83797085D02*
X81804999Y-93584249D01*
X81804999Y-93584249D02*
X84296250Y-96075500D01*
X83026250Y-82575834D02*
X81804999Y-83797085D01*
X83026250Y-79565500D02*
X83026250Y-82575834D01*
X81804999Y-112634249D02*
X84296250Y-115125500D01*
X81804999Y-104857999D02*
X81804999Y-112634249D01*
X83026250Y-103636748D02*
X81804999Y-104857999D01*
X83026250Y-98615500D02*
X83026250Y-103636748D01*
X81804999Y-72176251D02*
X81804999Y-74534249D01*
X111128450Y-71876801D02*
X110829000Y-72176251D01*
X120658751Y-70802500D02*
X115135176Y-70802500D01*
X115135176Y-70802500D02*
X114060875Y-71876801D01*
X121405750Y-70055501D02*
X120658751Y-70802500D01*
X113484250Y-57975500D02*
X112142151Y-59317599D01*
X112142151Y-71546701D02*
X111812051Y-71876801D01*
X112142151Y-59317599D02*
X112142151Y-71546701D01*
X111812051Y-71876801D02*
X111128450Y-71876801D01*
X114060875Y-71876801D02*
X111812051Y-71876801D01*
X81804999Y-71968749D02*
X81804999Y-72176251D01*
X81804999Y-66757999D02*
X81804999Y-71968749D01*
%TO.N,COL8*%
X63976250Y-116395500D02*
X63976250Y-117665500D01*
X65246250Y-115125500D02*
X63976250Y-116395500D01*
X63976250Y-97345500D02*
X63976250Y-98615500D01*
X65246250Y-96075500D02*
X63976250Y-97345500D01*
X63976250Y-78295500D02*
X63976250Y-79565500D01*
X65246250Y-77025500D02*
X63976250Y-78295500D01*
X63976250Y-59245500D02*
X63976250Y-60515500D01*
X65246250Y-57975500D02*
X63976250Y-59245500D01*
X62754999Y-74534249D02*
X65246250Y-77025500D01*
X63976250Y-65536748D02*
X62754999Y-66757999D01*
X63976250Y-60515500D02*
X63976250Y-65536748D01*
X62754999Y-93584249D02*
X65246250Y-96075500D01*
X62754999Y-85807999D02*
X62754999Y-93584249D01*
X63976250Y-84586748D02*
X62754999Y-85807999D01*
X63976250Y-79565500D02*
X63976250Y-84586748D01*
X62754999Y-112634249D02*
X65246250Y-115125500D01*
X62754999Y-104857999D02*
X62754999Y-112634249D01*
X63976250Y-103636748D02*
X62754999Y-104857999D01*
X63976250Y-98615500D02*
X63976250Y-103636748D01*
X62754999Y-69555749D02*
X62754999Y-74534249D01*
X62754999Y-66757999D02*
X62754999Y-69555749D01*
%TO.N,COL9*%
X44926250Y-59245500D02*
X44926250Y-60515500D01*
X46196250Y-57975500D02*
X44926250Y-59245500D01*
X44926250Y-78295500D02*
X44926250Y-79565500D01*
X46196250Y-77025500D02*
X44926250Y-78295500D01*
X44926250Y-97345500D02*
X44926250Y-98615500D01*
X46196250Y-96075500D02*
X44926250Y-97345500D01*
X44926250Y-116395500D02*
X44926250Y-117665500D01*
X46196250Y-115125500D02*
X44926250Y-116395500D01*
X44926250Y-65536748D02*
X43704999Y-66757999D01*
X44926250Y-60515500D02*
X44926250Y-65536748D01*
X43704999Y-93584249D02*
X46196250Y-96075500D01*
X43704999Y-85807999D02*
X43704999Y-93584249D01*
X44926250Y-84586748D02*
X43704999Y-85807999D01*
X44926250Y-79565500D02*
X44926250Y-84586748D01*
X43704999Y-112634249D02*
X46196250Y-115125500D01*
X43704999Y-104857999D02*
X43704999Y-112634249D01*
X44926250Y-103636748D02*
X43704999Y-104857999D01*
X44926250Y-98615500D02*
X44926250Y-103636748D01*
X43704999Y-66757999D02*
X43704999Y-74534249D01*
X238125000Y-76750200D02*
X237511300Y-76136500D01*
X238125000Y-84963000D02*
X238125000Y-76750200D01*
X44685000Y-75514250D02*
X46196250Y-77025500D01*
X43704999Y-74534249D02*
X44685000Y-75514250D01*
X111198250Y-75501500D02*
X110102750Y-75501500D01*
X113484250Y-73215500D02*
X111198250Y-75501500D01*
X111685051Y-76956801D02*
X111626750Y-76898500D01*
X114246176Y-77279500D02*
X113923477Y-76956801D01*
X113923477Y-76956801D02*
X111685051Y-76956801D01*
X118992750Y-77279500D02*
X114246176Y-77279500D01*
%TO.N,VCC*%
X240490000Y-64643000D02*
X240490000Y-70199250D01*
X240490000Y-79269750D02*
X244437000Y-83216750D01*
X240490000Y-70199250D02*
X240490000Y-79269750D01*
X250153551Y-108500822D02*
X256142269Y-114489540D01*
X247866000Y-92614750D02*
X250153551Y-94902301D01*
X250153551Y-94902301D02*
X250153551Y-108500822D01*
X244437000Y-89180752D02*
X247866000Y-92609752D01*
X247866000Y-92609752D02*
X247866000Y-92614750D01*
X244437000Y-88423750D02*
X244437000Y-89180752D01*
%TO.N,SDA*%
X242024000Y-73310750D02*
X242024000Y-79660750D01*
X254142269Y-118532981D02*
X254142269Y-117953642D01*
X242532000Y-88423750D02*
X242532000Y-108743750D01*
X253683786Y-118412125D02*
X254142269Y-117953642D01*
X252200375Y-118412125D02*
X253683786Y-118412125D01*
X242532000Y-108743750D02*
X252200375Y-118412125D01*
%TO.N,SCL*%
X252438000Y-106687195D02*
X257642269Y-111891464D01*
X252438000Y-85026674D02*
X252438000Y-106687195D01*
X251173025Y-83761699D02*
X252438000Y-85026674D01*
X250385773Y-83761699D02*
X251173025Y-83761699D01*
X249623699Y-70924301D02*
X249623699Y-82999625D01*
X249623699Y-82999625D02*
X250385773Y-83761699D01*
X250825000Y-69723000D02*
X249623699Y-70924301D01*
%TO.N,GND*%
X241291501Y-92424249D02*
X239966500Y-93749250D01*
X241291501Y-88613249D02*
X241291501Y-92424249D01*
X239975501Y-87297249D02*
X241291501Y-88613249D01*
X235585000Y-59800352D02*
X235585000Y-59563000D01*
X239463699Y-63679051D02*
X235585000Y-59800352D01*
X239463699Y-86785447D02*
X239463699Y-63679051D01*
X239975501Y-87297249D02*
X239463699Y-86785447D01*
X157024000Y-90019858D02*
X156988892Y-90019858D01*
X156749010Y-90259740D02*
X156749010Y-125829350D01*
X156749010Y-125829350D02*
X159307000Y-128387340D01*
X159307000Y-142874149D02*
X159601824Y-142874153D01*
X156988892Y-90019858D02*
X156749010Y-90259740D01*
X159307000Y-128387340D02*
X159307000Y-143309750D01*
X246466500Y-93749250D02*
X246466500Y-107852250D01*
X255631865Y-119462122D02*
X255237717Y-119856270D01*
X255631865Y-117017615D02*
X255631865Y-119462122D01*
X246466500Y-107852250D02*
X255631865Y-117017615D01*
%TO.N,Net-(SW0-Pad1)*%
X236786300Y-86069050D02*
X236786300Y-63304300D01*
X236786300Y-63304300D02*
X235585000Y-62103000D01*
X239966500Y-89249250D02*
X236786300Y-86069050D01*
%TO.N,LEFT*%
X157242631Y-142874118D02*
X157379311Y-142874120D01*
X158856990Y-141259760D02*
X156807000Y-143309750D01*
X156299000Y-126015750D02*
X158856990Y-128573740D01*
X158856990Y-128573740D02*
X158856990Y-141259760D01*
X156299000Y-89312750D02*
X156299000Y-126015750D01*
%TO.N,RIGHT*%
X157749001Y-90367859D02*
X157199020Y-90917840D01*
X157749001Y-89021751D02*
X157749001Y-90367859D01*
X157024000Y-88296750D02*
X157749001Y-89021751D01*
X157199020Y-90917840D02*
X157199020Y-125642950D01*
X157199020Y-125642950D02*
X159757010Y-128200940D01*
X159757010Y-141259760D02*
X161807000Y-143309750D01*
X159757010Y-128200940D02*
X159757010Y-141259760D01*
%TO.N,Net-(D41-Pad2)*%
X240924147Y-131563045D02*
X241094295Y-131733193D01*
X238259591Y-131563045D02*
X240924147Y-131563045D01*
X244445353Y-135084251D02*
X247523000Y-135084251D01*
X241094295Y-131733193D02*
X244445353Y-135084251D01*
%TD*%
M02*
