M48
; DRILL file {KiCad (5.1.9-0-10_14)} date Sunday, September 05, 2021 at 02:47:03 PM
; FORMAT={-:-/ absolute / inch / decimal}
; #@! TF.CreationDate,2021-09-05T14:47:03-05:00
; #@! TF.GenerationSoftware,Kicad,Pcbnew,(5.1.9-0-10_14)
; #@! TF.FileFunction,NonPlated,1,2,NPTH
FMAT,2
INCH
T1C0.0512
T2C0.0670
T3C0.0827
T4C0.1200
T5C0.1570
T6C0.2165
%
G90
G05
T1
X10.1076Y-4.6482
X10.1724Y-4.6856
X10.2454Y-4.4095
X10.3102Y-4.4469
T2
X1.7188Y-2.4825
X1.7188Y-3.2325
X1.7188Y-3.9825
X1.7188Y-4.7325
X2.1187Y-2.4825
X2.1187Y-3.2325
X2.1187Y-3.9825
X2.1187Y-4.7325
X2.4688Y-2.4825
X2.4688Y-3.2325
X2.4688Y-3.9825
X2.4688Y-4.7325
X2.8687Y-2.4825
X2.8687Y-3.2325
X2.8687Y-3.9825
X2.8687Y-4.7325
X3.2188Y-2.4825
X3.2188Y-3.2325
X3.2188Y-3.9825
X3.2188Y-4.7325
X3.6187Y-2.4825
X3.6187Y-3.2325
X3.6187Y-3.9825
X3.6187Y-4.7325
X3.9688Y-2.4825
X3.9688Y-3.2325
X3.9688Y-3.9825
X3.9688Y-4.7325
X4.3687Y-2.4825
X4.3687Y-3.2325
X4.3687Y-3.9825
X4.3687Y-4.7325
X4.8125Y-2.4825
X4.8125Y-3.2325
X4.8125Y-3.9825
X4.8125Y-4.7325
X5.2125Y-2.4825
X5.2125Y-3.2325
X5.2125Y-3.9825
X5.2125Y-4.7325
X5.5625Y-2.4825
X5.5625Y-3.2325
X5.5625Y-3.9825
X5.5625Y-4.7325
X5.9625Y-2.4825
X5.9625Y-3.2325
X5.9625Y-3.9825
X5.9625Y-4.7325
X6.3125Y-2.2325
X6.3125Y-2.9825
X6.3125Y-3.7325
X6.3125Y-4.4825
X6.7125Y-2.2325
X6.7125Y-2.9825
X6.7125Y-3.7325
X6.7125Y-4.4825
X6.7185Y-5.3462
X7.0625Y-2.1387
X7.0625Y-2.8887
X7.0625Y-3.6387
X7.0625Y-4.3887
X7.1185Y-5.3462
X7.4625Y-2.1387
X7.4625Y-2.8887
X7.4625Y-3.6387
X7.4625Y-4.3887
X7.4685Y-5.3462
X7.8125Y-2.2325
X7.8125Y-2.9825
X7.8125Y-3.7325
X7.8125Y-4.4825
X7.8685Y-5.3462
X8.2125Y-2.2325
X8.2125Y-2.9825
X8.2125Y-3.7325
X8.2125Y-4.4825
X8.2185Y-5.4512
X8.5625Y-2.3262
X8.5625Y-3.0762
X8.5625Y-3.8262
X8.5625Y-4.5762
X8.6185Y-5.4512
X8.9625Y-2.3262
X8.9625Y-3.0762
X8.9625Y-3.8262
X8.9625Y-4.5762
X9.4035Y-5.5395
X9.6035Y-5.193
T3
X2.2498Y-2.7275
X2.2498Y-2.8562
X2.2498Y-2.9825
X2.2498Y-4.2325
X2.2498Y-4.3563
X2.2498Y-4.4825
X4.5948Y-2.7325
X4.5948Y-2.8562
X4.5948Y-2.9825
X4.5948Y-4.2325
X4.5948Y-4.3563
X4.5948Y-4.4825
T4
X9.5074Y-5.9095
X9.9759Y-5.098
T5
X1.9187Y-2.4825
X1.9187Y-3.2325
X1.9187Y-3.9825
X1.9187Y-4.7325
X2.6687Y-2.4825
X2.6687Y-3.2325
X2.6687Y-3.9825
X2.6687Y-4.7325
X3.4187Y-2.4825
X3.4187Y-3.2325
X3.4187Y-3.9825
X3.4187Y-4.7325
X4.1688Y-2.4825
X4.1688Y-3.2325
X4.1688Y-3.9825
X4.1688Y-4.7325
X5.0125Y-2.4825
X5.0125Y-3.2325
X5.0125Y-3.9825
X5.0125Y-4.7325
X5.7625Y-2.4825
X5.7625Y-3.2325
X5.7625Y-3.9825
X5.7625Y-4.7325
X6.5125Y-2.2325
X6.5125Y-2.9825
X6.5125Y-3.7325
X6.5125Y-4.4825
X6.9185Y-5.3462
X7.2625Y-2.1387
X7.2625Y-2.8887
X7.2625Y-3.6387
X7.2625Y-4.3887
X7.6685Y-5.3462
X8.0125Y-2.2325
X8.0125Y-2.9825
X8.0125Y-3.7325
X8.0125Y-4.4825
X8.4185Y-5.4512
X8.7625Y-2.3262
X8.7625Y-3.0762
X8.7625Y-3.8262
X8.7625Y-4.5762
X8.9878Y-5.6095
X9.4563Y-4.798
X9.5035Y-5.3662
T6
X2.2935Y-3.6075
X3.0435Y-2.8575
X3.0435Y-4.3575
X3.793Y-3.6075
X5.3875Y-2.8575
X5.3875Y-4.3575
X8.3875Y-2.7012
X8.3875Y-4.2012
X8.9825Y-5.2188
T0
M30
