%TF.GenerationSoftware,KiCad,Pcbnew,(5.1.9-0-10_14)*%
%TF.CreationDate,2021-09-05T14:47:07-05:00*%
%TF.ProjectId,wren-universal,7772656e-2d75-46e6-9976-657273616c2e,rev?*%
%TF.SameCoordinates,Original*%
%TF.FileFunction,Paste,Bot*%
%TF.FilePolarity,Positive*%
%FSLAX46Y46*%
G04 Gerber Fmt 4.6, Leading zero omitted, Abs format (unit mm)*
G04 Created by KiCad (PCBNEW (5.1.9-0-10_14)) date 2021-09-05 14:47:07*
%MOMM*%
%LPD*%
G01*
G04 APERTURE LIST*
%ADD10R,1.200000X1.200000*%
%ADD11C,0.100000*%
G04 APERTURE END LIST*
D10*
%TO.C,D43*%
X193205000Y-140843000D03*
X196355000Y-140843000D03*
%TD*%
%TO.C,D45*%
X157772000Y-132365750D03*
X160922000Y-132365750D03*
%TD*%
%TO.C,D44*%
X174155000Y-140843000D03*
X177305000Y-140843000D03*
%TD*%
%TO.C,D42*%
X212255000Y-143224250D03*
X215405000Y-143224250D03*
%TD*%
D11*
%TO.C,D41*%
G36*
X245005115Y-140645355D02*
G01*
X243965885Y-140045355D01*
X244565885Y-139006125D01*
X245605115Y-139606125D01*
X245005115Y-140645355D01*
G37*
G36*
X246580115Y-137917375D02*
G01*
X245540885Y-137317375D01*
X246140885Y-136278145D01*
X247180115Y-136878145D01*
X246580115Y-137917375D01*
G37*
%TD*%
D10*
%TO.C,D40*%
X47155000Y-124968000D03*
X50305000Y-124968000D03*
%TD*%
%TO.C,D39*%
X66205000Y-124968000D03*
X69355000Y-124968000D03*
%TD*%
%TO.C,D38*%
X85255000Y-124968000D03*
X88405000Y-124968000D03*
%TD*%
%TO.C,D37*%
X104305000Y-124968000D03*
X107455000Y-124968000D03*
%TD*%
%TO.C,D36*%
X125736250Y-124968000D03*
X128886250Y-124968000D03*
%TD*%
%TO.C,D35*%
X144786250Y-124968000D03*
X147936250Y-124968000D03*
%TD*%
%TO.C,D34*%
X163836250Y-118618000D03*
X166986250Y-118618000D03*
%TD*%
%TO.C,D33*%
X182886250Y-116236750D03*
X186036250Y-116236750D03*
%TD*%
%TO.C,D32*%
X201936250Y-118618000D03*
X205086250Y-118618000D03*
%TD*%
%TO.C,D31*%
X220986250Y-120999250D03*
X224136250Y-120999250D03*
%TD*%
%TO.C,D30*%
X47155000Y-105918000D03*
X50305000Y-105918000D03*
%TD*%
%TO.C,D29*%
X66205000Y-105918000D03*
X69355000Y-105918000D03*
%TD*%
%TO.C,D28*%
X85255000Y-105918000D03*
X88405000Y-105918000D03*
%TD*%
%TO.C,D27*%
X104305000Y-105918000D03*
X107455000Y-105918000D03*
%TD*%
%TO.C,D26*%
X125736250Y-105918000D03*
X128886250Y-105918000D03*
%TD*%
%TO.C,D25*%
X144786250Y-105918000D03*
X147936250Y-105918000D03*
%TD*%
%TO.C,D24*%
X163836250Y-99568000D03*
X166986250Y-99568000D03*
%TD*%
%TO.C,D23*%
X182886250Y-97186750D03*
X186036250Y-97186750D03*
%TD*%
%TO.C,D22*%
X201936250Y-99568000D03*
X205086250Y-99568000D03*
%TD*%
%TO.C,D21*%
X220986250Y-101949250D03*
X224136250Y-101949250D03*
%TD*%
%TO.C,D20*%
X47155000Y-86868000D03*
X50305000Y-86868000D03*
%TD*%
%TO.C,D19*%
X66205000Y-86868000D03*
X69355000Y-86868000D03*
%TD*%
%TO.C,D18*%
X85255000Y-86868000D03*
X88405000Y-86868000D03*
%TD*%
%TO.C,D17*%
X104178000Y-86868000D03*
X107328000Y-86868000D03*
%TD*%
%TO.C,D16*%
X125736250Y-86868000D03*
X128886250Y-86868000D03*
%TD*%
%TO.C,D15*%
X144786250Y-86868000D03*
X147936250Y-86868000D03*
%TD*%
%TO.C,D14*%
X163836250Y-80518000D03*
X166986250Y-80518000D03*
%TD*%
%TO.C,D13*%
X182886250Y-78136750D03*
X186036250Y-78136750D03*
%TD*%
%TO.C,D12*%
X201936250Y-80518000D03*
X205086250Y-80518000D03*
%TD*%
%TO.C,D11*%
X220986250Y-82899250D03*
X224136250Y-82899250D03*
%TD*%
%TO.C,D10*%
X47155000Y-67818000D03*
X50305000Y-67818000D03*
%TD*%
%TO.C,D9*%
X66205000Y-67818000D03*
X69355000Y-67818000D03*
%TD*%
%TO.C,D8*%
X85255000Y-67818000D03*
X88405000Y-67818000D03*
%TD*%
%TO.C,D7*%
X104305000Y-67818000D03*
X107455000Y-67818000D03*
%TD*%
%TO.C,D6*%
X125736250Y-67818000D03*
X128886250Y-67818000D03*
%TD*%
%TO.C,D5*%
X144786250Y-67818000D03*
X147936250Y-67818000D03*
%TD*%
%TO.C,D4*%
X163836250Y-61468000D03*
X166986250Y-61468000D03*
%TD*%
%TO.C,D3*%
X182886250Y-59086750D03*
X186036250Y-59086750D03*
%TD*%
%TO.C,D2*%
X201936250Y-61468000D03*
X205086250Y-61468000D03*
%TD*%
%TO.C,D1*%
X220986250Y-63849250D03*
X224136250Y-63849250D03*
%TD*%
M02*
