%TF.GenerationSoftware,KiCad,Pcbnew,(5.1.9-0-10_14)*%
%TF.CreationDate,2021-09-05T16:07:23-05:00*%
%TF.ProjectId,wren-nav,7772656e-2d6e-4617-962e-6b696361645f,rev?*%
%TF.SameCoordinates,Original*%
%TF.FileFunction,Legend,Top*%
%TF.FilePolarity,Positive*%
%FSLAX46Y46*%
G04 Gerber Fmt 4.6, Leading zero omitted, Abs format (unit mm)*
G04 Created by KiCad (PCBNEW (5.1.9-0-10_14)) date 2021-09-05 16:07:23*
%MOMM*%
%LPD*%
G01*
G04 APERTURE LIST*
%ADD10C,0.010000*%
G04 APERTURE END LIST*
D10*
%TO.C,G\u002A\u002A\u002A*%
G36*
X194368306Y-78927784D02*
G01*
X194516922Y-79085443D01*
X194529438Y-79326379D01*
X194417528Y-79556436D01*
X194277773Y-79658014D01*
X194116493Y-79686415D01*
X193743056Y-79729885D01*
X193175626Y-79786990D01*
X192432365Y-79856298D01*
X191531436Y-79936377D01*
X190491001Y-80025794D01*
X189329223Y-80123117D01*
X188064265Y-80226913D01*
X186714289Y-80335749D01*
X185297457Y-80448193D01*
X183831933Y-80562813D01*
X182335879Y-80678175D01*
X180827457Y-80792848D01*
X179324831Y-80905399D01*
X177846162Y-81014394D01*
X176409614Y-81118403D01*
X175033349Y-81215992D01*
X173735530Y-81305728D01*
X172534319Y-81386179D01*
X171619818Y-81445120D01*
X170559773Y-81508850D01*
X169359816Y-81575536D01*
X168046992Y-81644053D01*
X166648348Y-81713277D01*
X165190930Y-81782081D01*
X163701785Y-81849341D01*
X162207959Y-81913931D01*
X160736498Y-81974725D01*
X159314447Y-82030599D01*
X157968854Y-82080426D01*
X156726765Y-82123082D01*
X155615225Y-82157441D01*
X154661282Y-82182378D01*
X153891981Y-82196767D01*
X153478728Y-82199961D01*
X152867682Y-82192424D01*
X152451534Y-82166180D01*
X152194733Y-82117105D01*
X152061730Y-82041072D01*
X152056398Y-82034948D01*
X151974243Y-81796977D01*
X152077645Y-81575251D01*
X152324578Y-81425069D01*
X152545017Y-81392002D01*
X152996088Y-81386079D01*
X153652703Y-81370040D01*
X154489762Y-81344920D01*
X155482169Y-81311756D01*
X156604828Y-81271583D01*
X157832641Y-81225438D01*
X159140510Y-81174358D01*
X160503339Y-81119377D01*
X161896030Y-81061532D01*
X163293487Y-81001860D01*
X164670611Y-80941395D01*
X166002307Y-80881176D01*
X167263477Y-80822236D01*
X168429024Y-80765614D01*
X169473850Y-80712344D01*
X170372858Y-80663463D01*
X170811637Y-80637889D01*
X171812470Y-80574980D01*
X173017096Y-80494663D01*
X174399212Y-80398899D01*
X175932515Y-80289644D01*
X177590703Y-80168857D01*
X179347472Y-80038495D01*
X181176521Y-79900518D01*
X183051545Y-79756883D01*
X184946242Y-79609548D01*
X186834310Y-79460471D01*
X188689445Y-79311610D01*
X189374897Y-79255947D01*
X190411108Y-79173336D01*
X191379016Y-79099683D01*
X192253713Y-79036625D01*
X193010289Y-78985798D01*
X193623837Y-78948839D01*
X194069449Y-78927386D01*
X194322216Y-78923075D01*
X194368306Y-78927784D01*
G37*
X194368306Y-78927784D02*
X194516922Y-79085443D01*
X194529438Y-79326379D01*
X194417528Y-79556436D01*
X194277773Y-79658014D01*
X194116493Y-79686415D01*
X193743056Y-79729885D01*
X193175626Y-79786990D01*
X192432365Y-79856298D01*
X191531436Y-79936377D01*
X190491001Y-80025794D01*
X189329223Y-80123117D01*
X188064265Y-80226913D01*
X186714289Y-80335749D01*
X185297457Y-80448193D01*
X183831933Y-80562813D01*
X182335879Y-80678175D01*
X180827457Y-80792848D01*
X179324831Y-80905399D01*
X177846162Y-81014394D01*
X176409614Y-81118403D01*
X175033349Y-81215992D01*
X173735530Y-81305728D01*
X172534319Y-81386179D01*
X171619818Y-81445120D01*
X170559773Y-81508850D01*
X169359816Y-81575536D01*
X168046992Y-81644053D01*
X166648348Y-81713277D01*
X165190930Y-81782081D01*
X163701785Y-81849341D01*
X162207959Y-81913931D01*
X160736498Y-81974725D01*
X159314447Y-82030599D01*
X157968854Y-82080426D01*
X156726765Y-82123082D01*
X155615225Y-82157441D01*
X154661282Y-82182378D01*
X153891981Y-82196767D01*
X153478728Y-82199961D01*
X152867682Y-82192424D01*
X152451534Y-82166180D01*
X152194733Y-82117105D01*
X152061730Y-82041072D01*
X152056398Y-82034948D01*
X151974243Y-81796977D01*
X152077645Y-81575251D01*
X152324578Y-81425069D01*
X152545017Y-81392002D01*
X152996088Y-81386079D01*
X153652703Y-81370040D01*
X154489762Y-81344920D01*
X155482169Y-81311756D01*
X156604828Y-81271583D01*
X157832641Y-81225438D01*
X159140510Y-81174358D01*
X160503339Y-81119377D01*
X161896030Y-81061532D01*
X163293487Y-81001860D01*
X164670611Y-80941395D01*
X166002307Y-80881176D01*
X167263477Y-80822236D01*
X168429024Y-80765614D01*
X169473850Y-80712344D01*
X170372858Y-80663463D01*
X170811637Y-80637889D01*
X171812470Y-80574980D01*
X173017096Y-80494663D01*
X174399212Y-80398899D01*
X175932515Y-80289644D01*
X177590703Y-80168857D01*
X179347472Y-80038495D01*
X181176521Y-79900518D01*
X183051545Y-79756883D01*
X184946242Y-79609548D01*
X186834310Y-79460471D01*
X188689445Y-79311610D01*
X189374897Y-79255947D01*
X190411108Y-79173336D01*
X191379016Y-79099683D01*
X192253713Y-79036625D01*
X193010289Y-78985798D01*
X193623837Y-78948839D01*
X194069449Y-78927386D01*
X194322216Y-78923075D01*
X194368306Y-78927784D01*
G36*
X168206576Y-44116724D02*
G01*
X168361659Y-44123729D01*
X168748060Y-44145523D01*
X169060222Y-44179637D01*
X169346497Y-44242227D01*
X169655235Y-44349448D01*
X170034791Y-44517457D01*
X170533516Y-44762407D01*
X171037116Y-45017664D01*
X172698278Y-45863104D01*
X174053352Y-45554105D01*
X175252584Y-45328768D01*
X176303772Y-45243852D01*
X177246967Y-45305840D01*
X178122220Y-45521215D01*
X178969582Y-45896459D01*
X179829103Y-46438056D01*
X179920230Y-46503775D01*
X180517439Y-47064497D01*
X181068388Y-47834782D01*
X181563040Y-48796144D01*
X181991355Y-49930094D01*
X182232182Y-50761568D01*
X182396765Y-51550190D01*
X182540301Y-52558080D01*
X182661779Y-53774466D01*
X182760186Y-55188578D01*
X182834509Y-56789645D01*
X182854223Y-57378297D01*
X182883243Y-58303176D01*
X182909486Y-59028888D01*
X182936266Y-59587097D01*
X182966898Y-60009465D01*
X183004696Y-60327653D01*
X183052974Y-60573326D01*
X183115046Y-60778146D01*
X183194226Y-60973774D01*
X183241542Y-61078635D01*
X183482344Y-61514132D01*
X183809041Y-61994322D01*
X184088415Y-62342012D01*
X184536393Y-62891134D01*
X184836302Y-63391350D01*
X185013922Y-63914228D01*
X185095033Y-64531338D01*
X185107480Y-65171205D01*
X185048397Y-66191844D01*
X184900215Y-67204094D01*
X184675813Y-68154921D01*
X184388074Y-68991290D01*
X184049877Y-69660165D01*
X183998031Y-69739196D01*
X183628466Y-70192911D01*
X183236420Y-70456284D01*
X182751741Y-70564904D01*
X182361176Y-70569670D01*
X181632945Y-70541772D01*
X180813324Y-71568191D01*
X180445157Y-72016242D01*
X180089998Y-72425836D01*
X179794159Y-72744750D01*
X179636766Y-72894953D01*
X179279829Y-73195296D01*
X179837096Y-73195098D01*
X180125025Y-73187033D01*
X180618108Y-73164030D01*
X181291182Y-73127684D01*
X182119086Y-73079593D01*
X183076657Y-73021353D01*
X184138733Y-72954561D01*
X185280152Y-72880815D01*
X186475751Y-72801710D01*
X187700368Y-72718843D01*
X188928842Y-72633813D01*
X190136009Y-72548214D01*
X190877512Y-72494476D01*
X191735886Y-72434263D01*
X192523626Y-72383904D01*
X193210102Y-72344968D01*
X193764686Y-72319024D01*
X194156748Y-72307642D01*
X194355659Y-72312389D01*
X194370012Y-72315578D01*
X194495495Y-72468238D01*
X194534151Y-72720006D01*
X194479301Y-72953436D01*
X194410584Y-73029226D01*
X194264430Y-73057314D01*
X193908949Y-73097947D01*
X193365290Y-73149536D01*
X192654600Y-73210490D01*
X191798030Y-73279219D01*
X190816727Y-73354135D01*
X189731840Y-73433646D01*
X188564518Y-73516162D01*
X187335910Y-73600095D01*
X186067165Y-73683853D01*
X184779430Y-73765847D01*
X183858000Y-73822557D01*
X183001108Y-73875310D01*
X182177826Y-73927506D01*
X181429521Y-73976406D01*
X180797558Y-74019273D01*
X180323304Y-74053369D01*
X180093818Y-74071728D01*
X179331455Y-74138962D01*
X179500129Y-74619629D01*
X179592098Y-75033489D01*
X179645759Y-75585569D01*
X179659157Y-76186061D01*
X179630341Y-76745156D01*
X179557356Y-77173044D01*
X179555776Y-77178477D01*
X179438164Y-77429914D01*
X179235827Y-77519160D01*
X179116057Y-77524841D01*
X178778000Y-77524841D01*
X178777414Y-76254841D01*
X178748353Y-75443862D01*
X178664097Y-74818555D01*
X178527784Y-74389891D01*
X178342551Y-74168844D01*
X178174043Y-74145767D01*
X178022007Y-74258219D01*
X178010907Y-74356698D01*
X178037432Y-74545730D01*
X178070727Y-74896901D01*
X178104483Y-75341811D01*
X178111421Y-75446659D01*
X178134791Y-75926088D01*
X178123555Y-76239873D01*
X178068323Y-76451900D01*
X177959704Y-76626055D01*
X177933247Y-76658932D01*
X177739694Y-76848633D01*
X177576608Y-76864651D01*
X177486370Y-76819633D01*
X177376193Y-76710125D01*
X177308572Y-76512747D01*
X177272264Y-76176261D01*
X177258371Y-75780542D01*
X177233121Y-75296623D01*
X177183805Y-74862361D01*
X177120470Y-74562861D01*
X177111756Y-74538329D01*
X176983861Y-74207271D01*
X175918203Y-74281449D01*
X175611505Y-74299877D01*
X175119647Y-74325891D01*
X174475302Y-74358022D01*
X173711141Y-74394803D01*
X172859834Y-74434768D01*
X171954053Y-74476448D01*
X171026468Y-74518376D01*
X170109751Y-74559085D01*
X169236573Y-74597107D01*
X168439605Y-74630975D01*
X167751518Y-74659222D01*
X167204983Y-74680379D01*
X166832671Y-74692980D01*
X166690028Y-74695933D01*
X166571658Y-74716353D01*
X166557957Y-74817235D01*
X166645460Y-75058726D01*
X166666246Y-75108751D01*
X166768411Y-75486279D01*
X166813210Y-75941948D01*
X166803877Y-76407600D01*
X166743645Y-76815075D01*
X166635746Y-77096217D01*
X166568682Y-77165834D01*
X166314013Y-77251271D01*
X166132697Y-77134926D01*
X166020124Y-76809741D01*
X165971686Y-76268662D01*
X165971231Y-76251303D01*
X165907267Y-75571882D01*
X165757132Y-75078688D01*
X165526172Y-74783317D01*
X165254501Y-74696205D01*
X165046719Y-74725693D01*
X165021812Y-74841889D01*
X165042789Y-74898250D01*
X165262155Y-75564035D01*
X165377942Y-76254833D01*
X165387942Y-76909872D01*
X165289946Y-77468380D01*
X165147571Y-77782321D01*
X164974933Y-77994840D01*
X164810914Y-78021952D01*
X164637574Y-77933078D01*
X164551525Y-77818361D01*
X164497789Y-77579977D01*
X164470675Y-77179083D01*
X164464392Y-76751437D01*
X164441917Y-76078318D01*
X164374161Y-75584184D01*
X164262447Y-75237349D01*
X164063257Y-74797130D01*
X160221538Y-74890985D01*
X159160051Y-74914989D01*
X158047210Y-74936726D01*
X156936987Y-74955378D01*
X155883357Y-74970131D01*
X154940296Y-74980168D01*
X154161778Y-74984673D01*
X154013000Y-74984841D01*
X151646182Y-74984841D01*
X151609586Y-74666685D01*
X151633207Y-74400393D01*
X151728185Y-74288974D01*
X151878027Y-74271854D01*
X152229791Y-74251327D01*
X152754533Y-74228478D01*
X153423310Y-74204392D01*
X154207179Y-74180154D01*
X155077196Y-74156850D01*
X155560492Y-74145313D01*
X159237603Y-74061205D01*
X159216845Y-72767182D01*
X159222916Y-72641963D01*
X160058380Y-72641963D01*
X160084576Y-73241342D01*
X160158978Y-74037843D01*
X162656671Y-73961446D01*
X163496839Y-73934824D01*
X164499131Y-73901576D01*
X165594936Y-73864070D01*
X166715645Y-73824672D01*
X167792647Y-73785751D01*
X168387091Y-73763696D01*
X169446508Y-73722316D01*
X170628424Y-73673435D01*
X171854125Y-73620486D01*
X173044897Y-73566904D01*
X174122026Y-73516124D01*
X174582750Y-73493392D01*
X175488379Y-73447098D01*
X176194526Y-73407617D01*
X176732360Y-73370856D01*
X177133051Y-73332723D01*
X177427768Y-73289123D01*
X177647681Y-73235964D01*
X177823959Y-73169154D01*
X177987771Y-73084599D01*
X178073726Y-73034985D01*
X178695954Y-72586445D01*
X179363509Y-71954886D01*
X180045650Y-71175306D01*
X180711636Y-70282706D01*
X181086676Y-69696883D01*
X182183909Y-69696883D01*
X182285302Y-69719869D01*
X182536039Y-69714997D01*
X182605394Y-69709765D01*
X183018974Y-69588925D01*
X183239993Y-69385296D01*
X183496339Y-68926253D01*
X183730399Y-68300885D01*
X183933472Y-67561775D01*
X184096858Y-66761506D01*
X184211856Y-65952664D01*
X184269765Y-65187831D01*
X184261885Y-64519591D01*
X184179515Y-64000527D01*
X184147175Y-63902621D01*
X184020362Y-63658279D01*
X183818595Y-63353720D01*
X183588850Y-63050283D01*
X183378103Y-62809310D01*
X183233330Y-62692141D01*
X183217712Y-62688932D01*
X183162675Y-62794090D01*
X183092259Y-63072079D01*
X183020250Y-63466666D01*
X183008950Y-63540568D01*
X182947109Y-64063093D01*
X182947308Y-64465092D01*
X183012808Y-64849342D01*
X183055646Y-65012614D01*
X183222585Y-65699955D01*
X183296386Y-66291418D01*
X183269988Y-66848147D01*
X183136331Y-67431283D01*
X182888353Y-68101970D01*
X182632149Y-68679686D01*
X182436295Y-69107782D01*
X182283846Y-69450381D01*
X182196455Y-69658346D01*
X182183909Y-69696883D01*
X181086676Y-69696883D01*
X181304351Y-69356869D01*
X181788290Y-68494237D01*
X182130446Y-67767593D01*
X182339891Y-67138104D01*
X182425698Y-66566941D01*
X182396937Y-66015270D01*
X182262681Y-65444260D01*
X182237142Y-65364105D01*
X182101420Y-64632695D01*
X182118197Y-63752046D01*
X182286541Y-62745480D01*
X182352508Y-62475710D01*
X182446149Y-62084884D01*
X182478407Y-61797601D01*
X182445298Y-61517567D01*
X182342841Y-61148492D01*
X182290789Y-60983375D01*
X182215499Y-60724324D01*
X182154762Y-60450470D01*
X182105880Y-60129857D01*
X182066157Y-59730528D01*
X182032895Y-59220524D01*
X182003397Y-58567890D01*
X181974965Y-57740668D01*
X181952364Y-56973932D01*
X181904505Y-55592932D01*
X181842500Y-54408197D01*
X181762447Y-53385313D01*
X181660446Y-52489863D01*
X181532598Y-51687432D01*
X181375003Y-50943605D01*
X181189803Y-50244768D01*
X180797001Y-49133789D01*
X180312429Y-48219479D01*
X179719195Y-47480075D01*
X179000405Y-46893813D01*
X178285379Y-46502938D01*
X177632791Y-46254353D01*
X176980394Y-46114307D01*
X176279466Y-46081450D01*
X175481281Y-46154432D01*
X174537117Y-46331901D01*
X174275273Y-46391798D01*
X173652793Y-46533234D01*
X173051336Y-46661132D01*
X172537433Y-46761883D01*
X172177616Y-46821879D01*
X172163762Y-46823708D01*
X171831822Y-46879273D01*
X171624768Y-46938670D01*
X171587150Y-46973717D01*
X171655039Y-47106350D01*
X171797507Y-47379954D01*
X171954617Y-47679841D01*
X172384050Y-48638255D01*
X172729787Y-49694508D01*
X172983226Y-50795955D01*
X173135762Y-51889953D01*
X173178793Y-52923855D01*
X173103714Y-53845019D01*
X173024526Y-54226566D01*
X172864435Y-54660827D01*
X172638305Y-55070472D01*
X172533844Y-55209182D01*
X172408861Y-55349931D01*
X172275232Y-55488399D01*
X172109439Y-55644460D01*
X171887964Y-55837989D01*
X171587287Y-56088859D01*
X171183891Y-56416945D01*
X170654257Y-56842121D01*
X169974866Y-57384261D01*
X169714818Y-57591408D01*
X169013512Y-58169454D01*
X168216801Y-58858762D01*
X167368122Y-59619049D01*
X166510915Y-60410033D01*
X165688619Y-61191433D01*
X164944672Y-61922965D01*
X164322512Y-62564347D01*
X164143796Y-62757628D01*
X163076027Y-64033966D01*
X162195490Y-65321545D01*
X161463673Y-66680170D01*
X161123928Y-67447108D01*
X160943889Y-67887989D01*
X160803327Y-68243532D01*
X160721868Y-68463500D01*
X160709364Y-68508223D01*
X160793597Y-68471653D01*
X161018081Y-68322433D01*
X161340492Y-68089282D01*
X161470543Y-67991724D01*
X162235592Y-67457283D01*
X162934750Y-67074830D01*
X163638699Y-66810164D01*
X164200659Y-66670772D01*
X165438801Y-66313551D01*
X166643578Y-65769429D01*
X167772116Y-65066728D01*
X168781547Y-64233769D01*
X169628999Y-63298874D01*
X169919721Y-62892616D01*
X170203823Y-62567059D01*
X170472872Y-62467824D01*
X170722001Y-62596371D01*
X170761258Y-62640060D01*
X170827836Y-62842377D01*
X170746936Y-63127365D01*
X170509779Y-63508719D01*
X170107586Y-64000133D01*
X169531578Y-64615300D01*
X169426182Y-64722600D01*
X168458393Y-65603513D01*
X167448023Y-66314256D01*
X166347713Y-66880404D01*
X165110102Y-67327529D01*
X164121944Y-67586790D01*
X163456541Y-67813929D01*
X162739361Y-68183472D01*
X162024388Y-68655509D01*
X161365606Y-69190127D01*
X160816997Y-69747415D01*
X160432545Y-70287460D01*
X160408751Y-70332092D01*
X160266082Y-70736977D01*
X160155023Y-71302761D01*
X160083234Y-71960678D01*
X160058380Y-72641963D01*
X159222916Y-72641963D01*
X159302801Y-70994395D01*
X159615614Y-69247728D01*
X160151894Y-67535799D01*
X160908253Y-65867220D01*
X161881304Y-64250608D01*
X163067657Y-62694576D01*
X163271596Y-62458023D01*
X163933222Y-61738928D01*
X164739395Y-60920930D01*
X165648692Y-60042001D01*
X166619694Y-59140116D01*
X167610980Y-58253249D01*
X168581128Y-57419372D01*
X169488719Y-56676459D01*
X170061182Y-56233468D01*
X170805003Y-55657351D01*
X171369618Y-55178318D01*
X171775406Y-54777332D01*
X172042750Y-54435357D01*
X172111453Y-54318477D01*
X172219518Y-53967783D01*
X172282517Y-53444236D01*
X172301368Y-52801270D01*
X172276989Y-52092315D01*
X172210297Y-51370805D01*
X172102211Y-50690170D01*
X172044653Y-50429188D01*
X171654554Y-49112910D01*
X171168667Y-47998734D01*
X170576753Y-47074289D01*
X169868575Y-46327200D01*
X169033894Y-45745094D01*
X168062473Y-45315598D01*
X167725994Y-45209786D01*
X167227291Y-45020673D01*
X166942057Y-44805895D01*
X166875856Y-44573219D01*
X167034254Y-44330413D01*
X167072540Y-44297774D01*
X167239181Y-44189180D01*
X167444740Y-44128072D01*
X167747708Y-44106552D01*
X168206576Y-44116724D01*
G37*
X168206576Y-44116724D02*
X168361659Y-44123729D01*
X168748060Y-44145523D01*
X169060222Y-44179637D01*
X169346497Y-44242227D01*
X169655235Y-44349448D01*
X170034791Y-44517457D01*
X170533516Y-44762407D01*
X171037116Y-45017664D01*
X172698278Y-45863104D01*
X174053352Y-45554105D01*
X175252584Y-45328768D01*
X176303772Y-45243852D01*
X177246967Y-45305840D01*
X178122220Y-45521215D01*
X178969582Y-45896459D01*
X179829103Y-46438056D01*
X179920230Y-46503775D01*
X180517439Y-47064497D01*
X181068388Y-47834782D01*
X181563040Y-48796144D01*
X181991355Y-49930094D01*
X182232182Y-50761568D01*
X182396765Y-51550190D01*
X182540301Y-52558080D01*
X182661779Y-53774466D01*
X182760186Y-55188578D01*
X182834509Y-56789645D01*
X182854223Y-57378297D01*
X182883243Y-58303176D01*
X182909486Y-59028888D01*
X182936266Y-59587097D01*
X182966898Y-60009465D01*
X183004696Y-60327653D01*
X183052974Y-60573326D01*
X183115046Y-60778146D01*
X183194226Y-60973774D01*
X183241542Y-61078635D01*
X183482344Y-61514132D01*
X183809041Y-61994322D01*
X184088415Y-62342012D01*
X184536393Y-62891134D01*
X184836302Y-63391350D01*
X185013922Y-63914228D01*
X185095033Y-64531338D01*
X185107480Y-65171205D01*
X185048397Y-66191844D01*
X184900215Y-67204094D01*
X184675813Y-68154921D01*
X184388074Y-68991290D01*
X184049877Y-69660165D01*
X183998031Y-69739196D01*
X183628466Y-70192911D01*
X183236420Y-70456284D01*
X182751741Y-70564904D01*
X182361176Y-70569670D01*
X181632945Y-70541772D01*
X180813324Y-71568191D01*
X180445157Y-72016242D01*
X180089998Y-72425836D01*
X179794159Y-72744750D01*
X179636766Y-72894953D01*
X179279829Y-73195296D01*
X179837096Y-73195098D01*
X180125025Y-73187033D01*
X180618108Y-73164030D01*
X181291182Y-73127684D01*
X182119086Y-73079593D01*
X183076657Y-73021353D01*
X184138733Y-72954561D01*
X185280152Y-72880815D01*
X186475751Y-72801710D01*
X187700368Y-72718843D01*
X188928842Y-72633813D01*
X190136009Y-72548214D01*
X190877512Y-72494476D01*
X191735886Y-72434263D01*
X192523626Y-72383904D01*
X193210102Y-72344968D01*
X193764686Y-72319024D01*
X194156748Y-72307642D01*
X194355659Y-72312389D01*
X194370012Y-72315578D01*
X194495495Y-72468238D01*
X194534151Y-72720006D01*
X194479301Y-72953436D01*
X194410584Y-73029226D01*
X194264430Y-73057314D01*
X193908949Y-73097947D01*
X193365290Y-73149536D01*
X192654600Y-73210490D01*
X191798030Y-73279219D01*
X190816727Y-73354135D01*
X189731840Y-73433646D01*
X188564518Y-73516162D01*
X187335910Y-73600095D01*
X186067165Y-73683853D01*
X184779430Y-73765847D01*
X183858000Y-73822557D01*
X183001108Y-73875310D01*
X182177826Y-73927506D01*
X181429521Y-73976406D01*
X180797558Y-74019273D01*
X180323304Y-74053369D01*
X180093818Y-74071728D01*
X179331455Y-74138962D01*
X179500129Y-74619629D01*
X179592098Y-75033489D01*
X179645759Y-75585569D01*
X179659157Y-76186061D01*
X179630341Y-76745156D01*
X179557356Y-77173044D01*
X179555776Y-77178477D01*
X179438164Y-77429914D01*
X179235827Y-77519160D01*
X179116057Y-77524841D01*
X178778000Y-77524841D01*
X178777414Y-76254841D01*
X178748353Y-75443862D01*
X178664097Y-74818555D01*
X178527784Y-74389891D01*
X178342551Y-74168844D01*
X178174043Y-74145767D01*
X178022007Y-74258219D01*
X178010907Y-74356698D01*
X178037432Y-74545730D01*
X178070727Y-74896901D01*
X178104483Y-75341811D01*
X178111421Y-75446659D01*
X178134791Y-75926088D01*
X178123555Y-76239873D01*
X178068323Y-76451900D01*
X177959704Y-76626055D01*
X177933247Y-76658932D01*
X177739694Y-76848633D01*
X177576608Y-76864651D01*
X177486370Y-76819633D01*
X177376193Y-76710125D01*
X177308572Y-76512747D01*
X177272264Y-76176261D01*
X177258371Y-75780542D01*
X177233121Y-75296623D01*
X177183805Y-74862361D01*
X177120470Y-74562861D01*
X177111756Y-74538329D01*
X176983861Y-74207271D01*
X175918203Y-74281449D01*
X175611505Y-74299877D01*
X175119647Y-74325891D01*
X174475302Y-74358022D01*
X173711141Y-74394803D01*
X172859834Y-74434768D01*
X171954053Y-74476448D01*
X171026468Y-74518376D01*
X170109751Y-74559085D01*
X169236573Y-74597107D01*
X168439605Y-74630975D01*
X167751518Y-74659222D01*
X167204983Y-74680379D01*
X166832671Y-74692980D01*
X166690028Y-74695933D01*
X166571658Y-74716353D01*
X166557957Y-74817235D01*
X166645460Y-75058726D01*
X166666246Y-75108751D01*
X166768411Y-75486279D01*
X166813210Y-75941948D01*
X166803877Y-76407600D01*
X166743645Y-76815075D01*
X166635746Y-77096217D01*
X166568682Y-77165834D01*
X166314013Y-77251271D01*
X166132697Y-77134926D01*
X166020124Y-76809741D01*
X165971686Y-76268662D01*
X165971231Y-76251303D01*
X165907267Y-75571882D01*
X165757132Y-75078688D01*
X165526172Y-74783317D01*
X165254501Y-74696205D01*
X165046719Y-74725693D01*
X165021812Y-74841889D01*
X165042789Y-74898250D01*
X165262155Y-75564035D01*
X165377942Y-76254833D01*
X165387942Y-76909872D01*
X165289946Y-77468380D01*
X165147571Y-77782321D01*
X164974933Y-77994840D01*
X164810914Y-78021952D01*
X164637574Y-77933078D01*
X164551525Y-77818361D01*
X164497789Y-77579977D01*
X164470675Y-77179083D01*
X164464392Y-76751437D01*
X164441917Y-76078318D01*
X164374161Y-75584184D01*
X164262447Y-75237349D01*
X164063257Y-74797130D01*
X160221538Y-74890985D01*
X159160051Y-74914989D01*
X158047210Y-74936726D01*
X156936987Y-74955378D01*
X155883357Y-74970131D01*
X154940296Y-74980168D01*
X154161778Y-74984673D01*
X154013000Y-74984841D01*
X151646182Y-74984841D01*
X151609586Y-74666685D01*
X151633207Y-74400393D01*
X151728185Y-74288974D01*
X151878027Y-74271854D01*
X152229791Y-74251327D01*
X152754533Y-74228478D01*
X153423310Y-74204392D01*
X154207179Y-74180154D01*
X155077196Y-74156850D01*
X155560492Y-74145313D01*
X159237603Y-74061205D01*
X159216845Y-72767182D01*
X159222916Y-72641963D01*
X160058380Y-72641963D01*
X160084576Y-73241342D01*
X160158978Y-74037843D01*
X162656671Y-73961446D01*
X163496839Y-73934824D01*
X164499131Y-73901576D01*
X165594936Y-73864070D01*
X166715645Y-73824672D01*
X167792647Y-73785751D01*
X168387091Y-73763696D01*
X169446508Y-73722316D01*
X170628424Y-73673435D01*
X171854125Y-73620486D01*
X173044897Y-73566904D01*
X174122026Y-73516124D01*
X174582750Y-73493392D01*
X175488379Y-73447098D01*
X176194526Y-73407617D01*
X176732360Y-73370856D01*
X177133051Y-73332723D01*
X177427768Y-73289123D01*
X177647681Y-73235964D01*
X177823959Y-73169154D01*
X177987771Y-73084599D01*
X178073726Y-73034985D01*
X178695954Y-72586445D01*
X179363509Y-71954886D01*
X180045650Y-71175306D01*
X180711636Y-70282706D01*
X181086676Y-69696883D01*
X182183909Y-69696883D01*
X182285302Y-69719869D01*
X182536039Y-69714997D01*
X182605394Y-69709765D01*
X183018974Y-69588925D01*
X183239993Y-69385296D01*
X183496339Y-68926253D01*
X183730399Y-68300885D01*
X183933472Y-67561775D01*
X184096858Y-66761506D01*
X184211856Y-65952664D01*
X184269765Y-65187831D01*
X184261885Y-64519591D01*
X184179515Y-64000527D01*
X184147175Y-63902621D01*
X184020362Y-63658279D01*
X183818595Y-63353720D01*
X183588850Y-63050283D01*
X183378103Y-62809310D01*
X183233330Y-62692141D01*
X183217712Y-62688932D01*
X183162675Y-62794090D01*
X183092259Y-63072079D01*
X183020250Y-63466666D01*
X183008950Y-63540568D01*
X182947109Y-64063093D01*
X182947308Y-64465092D01*
X183012808Y-64849342D01*
X183055646Y-65012614D01*
X183222585Y-65699955D01*
X183296386Y-66291418D01*
X183269988Y-66848147D01*
X183136331Y-67431283D01*
X182888353Y-68101970D01*
X182632149Y-68679686D01*
X182436295Y-69107782D01*
X182283846Y-69450381D01*
X182196455Y-69658346D01*
X182183909Y-69696883D01*
X181086676Y-69696883D01*
X181304351Y-69356869D01*
X181788290Y-68494237D01*
X182130446Y-67767593D01*
X182339891Y-67138104D01*
X182425698Y-66566941D01*
X182396937Y-66015270D01*
X182262681Y-65444260D01*
X182237142Y-65364105D01*
X182101420Y-64632695D01*
X182118197Y-63752046D01*
X182286541Y-62745480D01*
X182352508Y-62475710D01*
X182446149Y-62084884D01*
X182478407Y-61797601D01*
X182445298Y-61517567D01*
X182342841Y-61148492D01*
X182290789Y-60983375D01*
X182215499Y-60724324D01*
X182154762Y-60450470D01*
X182105880Y-60129857D01*
X182066157Y-59730528D01*
X182032895Y-59220524D01*
X182003397Y-58567890D01*
X181974965Y-57740668D01*
X181952364Y-56973932D01*
X181904505Y-55592932D01*
X181842500Y-54408197D01*
X181762447Y-53385313D01*
X181660446Y-52489863D01*
X181532598Y-51687432D01*
X181375003Y-50943605D01*
X181189803Y-50244768D01*
X180797001Y-49133789D01*
X180312429Y-48219479D01*
X179719195Y-47480075D01*
X179000405Y-46893813D01*
X178285379Y-46502938D01*
X177632791Y-46254353D01*
X176980394Y-46114307D01*
X176279466Y-46081450D01*
X175481281Y-46154432D01*
X174537117Y-46331901D01*
X174275273Y-46391798D01*
X173652793Y-46533234D01*
X173051336Y-46661132D01*
X172537433Y-46761883D01*
X172177616Y-46821879D01*
X172163762Y-46823708D01*
X171831822Y-46879273D01*
X171624768Y-46938670D01*
X171587150Y-46973717D01*
X171655039Y-47106350D01*
X171797507Y-47379954D01*
X171954617Y-47679841D01*
X172384050Y-48638255D01*
X172729787Y-49694508D01*
X172983226Y-50795955D01*
X173135762Y-51889953D01*
X173178793Y-52923855D01*
X173103714Y-53845019D01*
X173024526Y-54226566D01*
X172864435Y-54660827D01*
X172638305Y-55070472D01*
X172533844Y-55209182D01*
X172408861Y-55349931D01*
X172275232Y-55488399D01*
X172109439Y-55644460D01*
X171887964Y-55837989D01*
X171587287Y-56088859D01*
X171183891Y-56416945D01*
X170654257Y-56842121D01*
X169974866Y-57384261D01*
X169714818Y-57591408D01*
X169013512Y-58169454D01*
X168216801Y-58858762D01*
X167368122Y-59619049D01*
X166510915Y-60410033D01*
X165688619Y-61191433D01*
X164944672Y-61922965D01*
X164322512Y-62564347D01*
X164143796Y-62757628D01*
X163076027Y-64033966D01*
X162195490Y-65321545D01*
X161463673Y-66680170D01*
X161123928Y-67447108D01*
X160943889Y-67887989D01*
X160803327Y-68243532D01*
X160721868Y-68463500D01*
X160709364Y-68508223D01*
X160793597Y-68471653D01*
X161018081Y-68322433D01*
X161340492Y-68089282D01*
X161470543Y-67991724D01*
X162235592Y-67457283D01*
X162934750Y-67074830D01*
X163638699Y-66810164D01*
X164200659Y-66670772D01*
X165438801Y-66313551D01*
X166643578Y-65769429D01*
X167772116Y-65066728D01*
X168781547Y-64233769D01*
X169628999Y-63298874D01*
X169919721Y-62892616D01*
X170203823Y-62567059D01*
X170472872Y-62467824D01*
X170722001Y-62596371D01*
X170761258Y-62640060D01*
X170827836Y-62842377D01*
X170746936Y-63127365D01*
X170509779Y-63508719D01*
X170107586Y-64000133D01*
X169531578Y-64615300D01*
X169426182Y-64722600D01*
X168458393Y-65603513D01*
X167448023Y-66314256D01*
X166347713Y-66880404D01*
X165110102Y-67327529D01*
X164121944Y-67586790D01*
X163456541Y-67813929D01*
X162739361Y-68183472D01*
X162024388Y-68655509D01*
X161365606Y-69190127D01*
X160816997Y-69747415D01*
X160432545Y-70287460D01*
X160408751Y-70332092D01*
X160266082Y-70736977D01*
X160155023Y-71302761D01*
X160083234Y-71960678D01*
X160058380Y-72641963D01*
X159222916Y-72641963D01*
X159302801Y-70994395D01*
X159615614Y-69247728D01*
X160151894Y-67535799D01*
X160908253Y-65867220D01*
X161881304Y-64250608D01*
X163067657Y-62694576D01*
X163271596Y-62458023D01*
X163933222Y-61738928D01*
X164739395Y-60920930D01*
X165648692Y-60042001D01*
X166619694Y-59140116D01*
X167610980Y-58253249D01*
X168581128Y-57419372D01*
X169488719Y-56676459D01*
X170061182Y-56233468D01*
X170805003Y-55657351D01*
X171369618Y-55178318D01*
X171775406Y-54777332D01*
X172042750Y-54435357D01*
X172111453Y-54318477D01*
X172219518Y-53967783D01*
X172282517Y-53444236D01*
X172301368Y-52801270D01*
X172276989Y-52092315D01*
X172210297Y-51370805D01*
X172102211Y-50690170D01*
X172044653Y-50429188D01*
X171654554Y-49112910D01*
X171168667Y-47998734D01*
X170576753Y-47074289D01*
X169868575Y-46327200D01*
X169033894Y-45745094D01*
X168062473Y-45315598D01*
X167725994Y-45209786D01*
X167227291Y-45020673D01*
X166942057Y-44805895D01*
X166875856Y-44573219D01*
X167034254Y-44330413D01*
X167072540Y-44297774D01*
X167239181Y-44189180D01*
X167444740Y-44128072D01*
X167747708Y-44106552D01*
X168206576Y-44116724D01*
G36*
X178132193Y-47756926D02*
G01*
X178293564Y-47809838D01*
X178635928Y-48058222D01*
X178819617Y-48411881D01*
X178841782Y-48806423D01*
X178699575Y-49177455D01*
X178390148Y-49460585D01*
X178367125Y-49472895D01*
X178084324Y-49604113D01*
X177884633Y-49623930D01*
X177650663Y-49535488D01*
X177568003Y-49494273D01*
X177232441Y-49226235D01*
X177069180Y-48886854D01*
X177058071Y-48522904D01*
X177178966Y-48181161D01*
X177411717Y-47908400D01*
X177736175Y-47751397D01*
X178132193Y-47756926D01*
G37*
X178132193Y-47756926D02*
X178293564Y-47809838D01*
X178635928Y-48058222D01*
X178819617Y-48411881D01*
X178841782Y-48806423D01*
X178699575Y-49177455D01*
X178390148Y-49460585D01*
X178367125Y-49472895D01*
X178084324Y-49604113D01*
X177884633Y-49623930D01*
X177650663Y-49535488D01*
X177568003Y-49494273D01*
X177232441Y-49226235D01*
X177069180Y-48886854D01*
X177058071Y-48522904D01*
X177178966Y-48181161D01*
X177411717Y-47908400D01*
X177736175Y-47751397D01*
X178132193Y-47756926D01*
%TD*%
M02*
