%TF.GenerationSoftware,KiCad,Pcbnew,(5.1.9-0-10_14)*%
%TF.CreationDate,2021-09-05T16:08:09-05:00*%
%TF.ProjectId,egg-top,6567672d-746f-4702-9e6b-696361645f70,rev?*%
%TF.SameCoordinates,Original*%
%TF.FileFunction,Legend,Bot*%
%TF.FilePolarity,Positive*%
%FSLAX46Y46*%
G04 Gerber Fmt 4.6, Leading zero omitted, Abs format (unit mm)*
G04 Created by KiCad (PCBNEW (5.1.9-0-10_14)) date 2021-09-05 16:08:09*
%MOMM*%
%LPD*%
G01*
G04 APERTURE LIST*
%ADD10C,0.150000*%
G04 APERTURE END LIST*
%TO.C,MX27*%
D10*
X105743154Y-66809880D02*
X105743154Y-65809880D01*
X105409821Y-66524166D01*
X105076488Y-65809880D01*
X105076488Y-66809880D01*
X104695535Y-65809880D02*
X104028869Y-66809880D01*
X104028869Y-65809880D02*
X104695535Y-66809880D01*
X103695535Y-65905119D02*
X103647916Y-65857500D01*
X103552678Y-65809880D01*
X103314583Y-65809880D01*
X103219345Y-65857500D01*
X103171726Y-65905119D01*
X103124107Y-66000357D01*
X103124107Y-66095595D01*
X103171726Y-66238452D01*
X103743154Y-66809880D01*
X103124107Y-66809880D01*
X102790773Y-65809880D02*
X102124107Y-65809880D01*
X102552678Y-66809880D01*
%TO.C,MX39*%
X67643154Y-85859880D02*
X67643154Y-84859880D01*
X67309821Y-85574166D01*
X66976488Y-84859880D01*
X66976488Y-85859880D01*
X66595535Y-84859880D02*
X65928869Y-85859880D01*
X65928869Y-84859880D02*
X66595535Y-85859880D01*
X65643154Y-84859880D02*
X65024107Y-84859880D01*
X65357440Y-85240833D01*
X65214583Y-85240833D01*
X65119345Y-85288452D01*
X65071726Y-85336071D01*
X65024107Y-85431309D01*
X65024107Y-85669404D01*
X65071726Y-85764642D01*
X65119345Y-85812261D01*
X65214583Y-85859880D01*
X65500297Y-85859880D01*
X65595535Y-85812261D01*
X65643154Y-85764642D01*
X64547916Y-85859880D02*
X64357440Y-85859880D01*
X64262202Y-85812261D01*
X64214583Y-85764642D01*
X64119345Y-85621785D01*
X64071726Y-85431309D01*
X64071726Y-85050357D01*
X64119345Y-84955119D01*
X64166964Y-84907500D01*
X64262202Y-84859880D01*
X64452678Y-84859880D01*
X64547916Y-84907500D01*
X64595535Y-84955119D01*
X64643154Y-85050357D01*
X64643154Y-85288452D01*
X64595535Y-85383690D01*
X64547916Y-85431309D01*
X64452678Y-85478928D01*
X64262202Y-85478928D01*
X64166964Y-85431309D01*
X64119345Y-85383690D01*
X64071726Y-85288452D01*
%TO.C,MX10*%
X48593154Y-28709880D02*
X48593154Y-27709880D01*
X48259821Y-28424166D01*
X47926488Y-27709880D01*
X47926488Y-28709880D01*
X47545535Y-27709880D02*
X46878869Y-28709880D01*
X46878869Y-27709880D02*
X47545535Y-28709880D01*
X45974107Y-28709880D02*
X46545535Y-28709880D01*
X46259821Y-28709880D02*
X46259821Y-27709880D01*
X46355059Y-27852738D01*
X46450297Y-27947976D01*
X46545535Y-27995595D01*
X45355059Y-27709880D02*
X45259821Y-27709880D01*
X45164583Y-27757500D01*
X45116964Y-27805119D01*
X45069345Y-27900357D01*
X45021726Y-28090833D01*
X45021726Y-28328928D01*
X45069345Y-28519404D01*
X45116964Y-28614642D01*
X45164583Y-28662261D01*
X45259821Y-28709880D01*
X45355059Y-28709880D01*
X45450297Y-28662261D01*
X45497916Y-28614642D01*
X45545535Y-28519404D01*
X45593154Y-28328928D01*
X45593154Y-28090833D01*
X45545535Y-27900357D01*
X45497916Y-27805119D01*
X45450297Y-27757500D01*
X45355059Y-27709880D01*
%TO.C,MX40*%
X48593154Y-85859880D02*
X48593154Y-84859880D01*
X48259821Y-85574166D01*
X47926488Y-84859880D01*
X47926488Y-85859880D01*
X47545535Y-84859880D02*
X46878869Y-85859880D01*
X46878869Y-84859880D02*
X47545535Y-85859880D01*
X46069345Y-85193214D02*
X46069345Y-85859880D01*
X46307440Y-84812261D02*
X46545535Y-85526547D01*
X45926488Y-85526547D01*
X45355059Y-84859880D02*
X45259821Y-84859880D01*
X45164583Y-84907500D01*
X45116964Y-84955119D01*
X45069345Y-85050357D01*
X45021726Y-85240833D01*
X45021726Y-85478928D01*
X45069345Y-85669404D01*
X45116964Y-85764642D01*
X45164583Y-85812261D01*
X45259821Y-85859880D01*
X45355059Y-85859880D01*
X45450297Y-85812261D01*
X45497916Y-85764642D01*
X45545535Y-85669404D01*
X45593154Y-85478928D01*
X45593154Y-85240833D01*
X45545535Y-85050357D01*
X45497916Y-84955119D01*
X45450297Y-84907500D01*
X45355059Y-84859880D01*
%TO.C,MX38*%
X86693154Y-85859880D02*
X86693154Y-84859880D01*
X86359821Y-85574166D01*
X86026488Y-84859880D01*
X86026488Y-85859880D01*
X85645535Y-84859880D02*
X84978869Y-85859880D01*
X84978869Y-84859880D02*
X85645535Y-85859880D01*
X84693154Y-84859880D02*
X84074107Y-84859880D01*
X84407440Y-85240833D01*
X84264583Y-85240833D01*
X84169345Y-85288452D01*
X84121726Y-85336071D01*
X84074107Y-85431309D01*
X84074107Y-85669404D01*
X84121726Y-85764642D01*
X84169345Y-85812261D01*
X84264583Y-85859880D01*
X84550297Y-85859880D01*
X84645535Y-85812261D01*
X84693154Y-85764642D01*
X83502678Y-85288452D02*
X83597916Y-85240833D01*
X83645535Y-85193214D01*
X83693154Y-85097976D01*
X83693154Y-85050357D01*
X83645535Y-84955119D01*
X83597916Y-84907500D01*
X83502678Y-84859880D01*
X83312202Y-84859880D01*
X83216964Y-84907500D01*
X83169345Y-84955119D01*
X83121726Y-85050357D01*
X83121726Y-85097976D01*
X83169345Y-85193214D01*
X83216964Y-85240833D01*
X83312202Y-85288452D01*
X83502678Y-85288452D01*
X83597916Y-85336071D01*
X83645535Y-85383690D01*
X83693154Y-85478928D01*
X83693154Y-85669404D01*
X83645535Y-85764642D01*
X83597916Y-85812261D01*
X83502678Y-85859880D01*
X83312202Y-85859880D01*
X83216964Y-85812261D01*
X83169345Y-85764642D01*
X83121726Y-85669404D01*
X83121726Y-85478928D01*
X83169345Y-85383690D01*
X83216964Y-85336071D01*
X83312202Y-85288452D01*
%TO.C,MX37*%
X105743154Y-85859880D02*
X105743154Y-84859880D01*
X105409821Y-85574166D01*
X105076488Y-84859880D01*
X105076488Y-85859880D01*
X104695535Y-84859880D02*
X104028869Y-85859880D01*
X104028869Y-84859880D02*
X104695535Y-85859880D01*
X103743154Y-84859880D02*
X103124107Y-84859880D01*
X103457440Y-85240833D01*
X103314583Y-85240833D01*
X103219345Y-85288452D01*
X103171726Y-85336071D01*
X103124107Y-85431309D01*
X103124107Y-85669404D01*
X103171726Y-85764642D01*
X103219345Y-85812261D01*
X103314583Y-85859880D01*
X103600297Y-85859880D01*
X103695535Y-85812261D01*
X103743154Y-85764642D01*
X102790773Y-84859880D02*
X102124107Y-84859880D01*
X102552678Y-85859880D01*
%TO.C,MX30*%
X48593154Y-66809880D02*
X48593154Y-65809880D01*
X48259821Y-66524166D01*
X47926488Y-65809880D01*
X47926488Y-66809880D01*
X47545535Y-65809880D02*
X46878869Y-66809880D01*
X46878869Y-65809880D02*
X47545535Y-66809880D01*
X46593154Y-65809880D02*
X45974107Y-65809880D01*
X46307440Y-66190833D01*
X46164583Y-66190833D01*
X46069345Y-66238452D01*
X46021726Y-66286071D01*
X45974107Y-66381309D01*
X45974107Y-66619404D01*
X46021726Y-66714642D01*
X46069345Y-66762261D01*
X46164583Y-66809880D01*
X46450297Y-66809880D01*
X46545535Y-66762261D01*
X46593154Y-66714642D01*
X45355059Y-65809880D02*
X45259821Y-65809880D01*
X45164583Y-65857500D01*
X45116964Y-65905119D01*
X45069345Y-66000357D01*
X45021726Y-66190833D01*
X45021726Y-66428928D01*
X45069345Y-66619404D01*
X45116964Y-66714642D01*
X45164583Y-66762261D01*
X45259821Y-66809880D01*
X45355059Y-66809880D01*
X45450297Y-66762261D01*
X45497916Y-66714642D01*
X45545535Y-66619404D01*
X45593154Y-66428928D01*
X45593154Y-66190833D01*
X45545535Y-66000357D01*
X45497916Y-65905119D01*
X45450297Y-65857500D01*
X45355059Y-65809880D01*
%TO.C,MX29*%
X67643154Y-66809880D02*
X67643154Y-65809880D01*
X67309821Y-66524166D01*
X66976488Y-65809880D01*
X66976488Y-66809880D01*
X66595535Y-65809880D02*
X65928869Y-66809880D01*
X65928869Y-65809880D02*
X66595535Y-66809880D01*
X65595535Y-65905119D02*
X65547916Y-65857500D01*
X65452678Y-65809880D01*
X65214583Y-65809880D01*
X65119345Y-65857500D01*
X65071726Y-65905119D01*
X65024107Y-66000357D01*
X65024107Y-66095595D01*
X65071726Y-66238452D01*
X65643154Y-66809880D01*
X65024107Y-66809880D01*
X64547916Y-66809880D02*
X64357440Y-66809880D01*
X64262202Y-66762261D01*
X64214583Y-66714642D01*
X64119345Y-66571785D01*
X64071726Y-66381309D01*
X64071726Y-66000357D01*
X64119345Y-65905119D01*
X64166964Y-65857500D01*
X64262202Y-65809880D01*
X64452678Y-65809880D01*
X64547916Y-65857500D01*
X64595535Y-65905119D01*
X64643154Y-66000357D01*
X64643154Y-66238452D01*
X64595535Y-66333690D01*
X64547916Y-66381309D01*
X64452678Y-66428928D01*
X64262202Y-66428928D01*
X64166964Y-66381309D01*
X64119345Y-66333690D01*
X64071726Y-66238452D01*
%TO.C,MX28*%
X86693154Y-66809880D02*
X86693154Y-65809880D01*
X86359821Y-66524166D01*
X86026488Y-65809880D01*
X86026488Y-66809880D01*
X85645535Y-65809880D02*
X84978869Y-66809880D01*
X84978869Y-65809880D02*
X85645535Y-66809880D01*
X84645535Y-65905119D02*
X84597916Y-65857500D01*
X84502678Y-65809880D01*
X84264583Y-65809880D01*
X84169345Y-65857500D01*
X84121726Y-65905119D01*
X84074107Y-66000357D01*
X84074107Y-66095595D01*
X84121726Y-66238452D01*
X84693154Y-66809880D01*
X84074107Y-66809880D01*
X83502678Y-66238452D02*
X83597916Y-66190833D01*
X83645535Y-66143214D01*
X83693154Y-66047976D01*
X83693154Y-66000357D01*
X83645535Y-65905119D01*
X83597916Y-65857500D01*
X83502678Y-65809880D01*
X83312202Y-65809880D01*
X83216964Y-65857500D01*
X83169345Y-65905119D01*
X83121726Y-66000357D01*
X83121726Y-66047976D01*
X83169345Y-66143214D01*
X83216964Y-66190833D01*
X83312202Y-66238452D01*
X83502678Y-66238452D01*
X83597916Y-66286071D01*
X83645535Y-66333690D01*
X83693154Y-66428928D01*
X83693154Y-66619404D01*
X83645535Y-66714642D01*
X83597916Y-66762261D01*
X83502678Y-66809880D01*
X83312202Y-66809880D01*
X83216964Y-66762261D01*
X83169345Y-66714642D01*
X83121726Y-66619404D01*
X83121726Y-66428928D01*
X83169345Y-66333690D01*
X83216964Y-66286071D01*
X83312202Y-66238452D01*
%TO.C,MX20*%
X48593154Y-47759880D02*
X48593154Y-46759880D01*
X48259821Y-47474166D01*
X47926488Y-46759880D01*
X47926488Y-47759880D01*
X47545535Y-46759880D02*
X46878869Y-47759880D01*
X46878869Y-46759880D02*
X47545535Y-47759880D01*
X46545535Y-46855119D02*
X46497916Y-46807500D01*
X46402678Y-46759880D01*
X46164583Y-46759880D01*
X46069345Y-46807500D01*
X46021726Y-46855119D01*
X45974107Y-46950357D01*
X45974107Y-47045595D01*
X46021726Y-47188452D01*
X46593154Y-47759880D01*
X45974107Y-47759880D01*
X45355059Y-46759880D02*
X45259821Y-46759880D01*
X45164583Y-46807500D01*
X45116964Y-46855119D01*
X45069345Y-46950357D01*
X45021726Y-47140833D01*
X45021726Y-47378928D01*
X45069345Y-47569404D01*
X45116964Y-47664642D01*
X45164583Y-47712261D01*
X45259821Y-47759880D01*
X45355059Y-47759880D01*
X45450297Y-47712261D01*
X45497916Y-47664642D01*
X45545535Y-47569404D01*
X45593154Y-47378928D01*
X45593154Y-47140833D01*
X45545535Y-46950357D01*
X45497916Y-46855119D01*
X45450297Y-46807500D01*
X45355059Y-46759880D01*
%TO.C,MX19*%
X67643154Y-47759880D02*
X67643154Y-46759880D01*
X67309821Y-47474166D01*
X66976488Y-46759880D01*
X66976488Y-47759880D01*
X66595535Y-46759880D02*
X65928869Y-47759880D01*
X65928869Y-46759880D02*
X66595535Y-47759880D01*
X65024107Y-47759880D02*
X65595535Y-47759880D01*
X65309821Y-47759880D02*
X65309821Y-46759880D01*
X65405059Y-46902738D01*
X65500297Y-46997976D01*
X65595535Y-47045595D01*
X64547916Y-47759880D02*
X64357440Y-47759880D01*
X64262202Y-47712261D01*
X64214583Y-47664642D01*
X64119345Y-47521785D01*
X64071726Y-47331309D01*
X64071726Y-46950357D01*
X64119345Y-46855119D01*
X64166964Y-46807500D01*
X64262202Y-46759880D01*
X64452678Y-46759880D01*
X64547916Y-46807500D01*
X64595535Y-46855119D01*
X64643154Y-46950357D01*
X64643154Y-47188452D01*
X64595535Y-47283690D01*
X64547916Y-47331309D01*
X64452678Y-47378928D01*
X64262202Y-47378928D01*
X64166964Y-47331309D01*
X64119345Y-47283690D01*
X64071726Y-47188452D01*
%TO.C,MX18*%
X86693154Y-47759880D02*
X86693154Y-46759880D01*
X86359821Y-47474166D01*
X86026488Y-46759880D01*
X86026488Y-47759880D01*
X85645535Y-46759880D02*
X84978869Y-47759880D01*
X84978869Y-46759880D02*
X85645535Y-47759880D01*
X84074107Y-47759880D02*
X84645535Y-47759880D01*
X84359821Y-47759880D02*
X84359821Y-46759880D01*
X84455059Y-46902738D01*
X84550297Y-46997976D01*
X84645535Y-47045595D01*
X83502678Y-47188452D02*
X83597916Y-47140833D01*
X83645535Y-47093214D01*
X83693154Y-46997976D01*
X83693154Y-46950357D01*
X83645535Y-46855119D01*
X83597916Y-46807500D01*
X83502678Y-46759880D01*
X83312202Y-46759880D01*
X83216964Y-46807500D01*
X83169345Y-46855119D01*
X83121726Y-46950357D01*
X83121726Y-46997976D01*
X83169345Y-47093214D01*
X83216964Y-47140833D01*
X83312202Y-47188452D01*
X83502678Y-47188452D01*
X83597916Y-47236071D01*
X83645535Y-47283690D01*
X83693154Y-47378928D01*
X83693154Y-47569404D01*
X83645535Y-47664642D01*
X83597916Y-47712261D01*
X83502678Y-47759880D01*
X83312202Y-47759880D01*
X83216964Y-47712261D01*
X83169345Y-47664642D01*
X83121726Y-47569404D01*
X83121726Y-47378928D01*
X83169345Y-47283690D01*
X83216964Y-47236071D01*
X83312202Y-47188452D01*
%TO.C,MX17*%
X105743154Y-47759880D02*
X105743154Y-46759880D01*
X105409821Y-47474166D01*
X105076488Y-46759880D01*
X105076488Y-47759880D01*
X104695535Y-46759880D02*
X104028869Y-47759880D01*
X104028869Y-46759880D02*
X104695535Y-47759880D01*
X103124107Y-47759880D02*
X103695535Y-47759880D01*
X103409821Y-47759880D02*
X103409821Y-46759880D01*
X103505059Y-46902738D01*
X103600297Y-46997976D01*
X103695535Y-47045595D01*
X102790773Y-46759880D02*
X102124107Y-46759880D01*
X102552678Y-47759880D01*
%TO.C,MX9*%
X67166964Y-28709880D02*
X67166964Y-27709880D01*
X66833630Y-28424166D01*
X66500297Y-27709880D01*
X66500297Y-28709880D01*
X66119345Y-27709880D02*
X65452678Y-28709880D01*
X65452678Y-27709880D02*
X66119345Y-28709880D01*
X65024107Y-28709880D02*
X64833630Y-28709880D01*
X64738392Y-28662261D01*
X64690773Y-28614642D01*
X64595535Y-28471785D01*
X64547916Y-28281309D01*
X64547916Y-27900357D01*
X64595535Y-27805119D01*
X64643154Y-27757500D01*
X64738392Y-27709880D01*
X64928869Y-27709880D01*
X65024107Y-27757500D01*
X65071726Y-27805119D01*
X65119345Y-27900357D01*
X65119345Y-28138452D01*
X65071726Y-28233690D01*
X65024107Y-28281309D01*
X64928869Y-28328928D01*
X64738392Y-28328928D01*
X64643154Y-28281309D01*
X64595535Y-28233690D01*
X64547916Y-28138452D01*
%TO.C,MX8*%
X86216964Y-28709880D02*
X86216964Y-27709880D01*
X85883630Y-28424166D01*
X85550297Y-27709880D01*
X85550297Y-28709880D01*
X85169345Y-27709880D02*
X84502678Y-28709880D01*
X84502678Y-27709880D02*
X85169345Y-28709880D01*
X83978869Y-28138452D02*
X84074107Y-28090833D01*
X84121726Y-28043214D01*
X84169345Y-27947976D01*
X84169345Y-27900357D01*
X84121726Y-27805119D01*
X84074107Y-27757500D01*
X83978869Y-27709880D01*
X83788392Y-27709880D01*
X83693154Y-27757500D01*
X83645535Y-27805119D01*
X83597916Y-27900357D01*
X83597916Y-27947976D01*
X83645535Y-28043214D01*
X83693154Y-28090833D01*
X83788392Y-28138452D01*
X83978869Y-28138452D01*
X84074107Y-28186071D01*
X84121726Y-28233690D01*
X84169345Y-28328928D01*
X84169345Y-28519404D01*
X84121726Y-28614642D01*
X84074107Y-28662261D01*
X83978869Y-28709880D01*
X83788392Y-28709880D01*
X83693154Y-28662261D01*
X83645535Y-28614642D01*
X83597916Y-28519404D01*
X83597916Y-28328928D01*
X83645535Y-28233690D01*
X83693154Y-28186071D01*
X83788392Y-28138452D01*
%TO.C,MX7*%
X105266964Y-28709880D02*
X105266964Y-27709880D01*
X104933630Y-28424166D01*
X104600297Y-27709880D01*
X104600297Y-28709880D01*
X104219345Y-27709880D02*
X103552678Y-28709880D01*
X103552678Y-27709880D02*
X104219345Y-28709880D01*
X103266964Y-27709880D02*
X102600297Y-27709880D01*
X103028869Y-28709880D01*
%TD*%
M02*
