%TF.GenerationSoftware,KiCad,Pcbnew,(5.1.9-0-10_14)*%
%TF.CreationDate,2021-09-05T16:08:09-05:00*%
%TF.ProjectId,egg-top,6567672d-746f-4702-9e6b-696361645f70,rev?*%
%TF.SameCoordinates,Original*%
%TF.FileFunction,Soldermask,Top*%
%TF.FilePolarity,Negative*%
%FSLAX46Y46*%
G04 Gerber Fmt 4.6, Leading zero omitted, Abs format (unit mm)*
G04 Created by KiCad (PCBNEW (5.1.9-0-10_14)) date 2021-09-05 16:08:09*
%MOMM*%
%LPD*%
G01*
G04 APERTURE LIST*
%ADD10C,2.200000*%
%ADD11O,1.333500X0.508000*%
%ADD12O,5.080000X1.270000*%
%ADD13O,0.508000X5.842000*%
%ADD14O,0.508000X4.572000*%
%ADD15O,15.595600X0.508000*%
G04 APERTURE END LIST*
D10*
%TO.C,H9*%
X56349250Y-65087500D03*
%TD*%
%TO.C,H8*%
X94437250Y-65087500D03*
%TD*%
%TO.C,H4*%
X75400000Y-84137500D03*
%TD*%
%TO.C,H1*%
X75400000Y-46037500D03*
%TD*%
D11*
%TO.C,MX27*%
X111125000Y-77279500D03*
X96837500Y-77279500D03*
X111125000Y-71945500D03*
X96837500Y-71945500D03*
D12*
X103981250Y-81597500D03*
X103981250Y-67627500D03*
D13*
X97250250Y-74612500D03*
X110712250Y-74612500D03*
D14*
X96424750Y-79311500D03*
X111537750Y-79311500D03*
X111537750Y-69913500D03*
X96424750Y-69913500D03*
D15*
X103981250Y-81343500D03*
X103981250Y-67881500D03*
%TD*%
D11*
%TO.C,MX39*%
X73025000Y-96329500D03*
X58737500Y-96329500D03*
X73025000Y-90995500D03*
X58737500Y-90995500D03*
D12*
X65881250Y-100647500D03*
X65881250Y-86677500D03*
D13*
X59150250Y-93662500D03*
X72612250Y-93662500D03*
D14*
X58324750Y-98361500D03*
X73437750Y-98361500D03*
X73437750Y-88963500D03*
X58324750Y-88963500D03*
D15*
X65881250Y-100393500D03*
X65881250Y-86931500D03*
%TD*%
D11*
%TO.C,MX10*%
X53975000Y-39179500D03*
X39687500Y-39179500D03*
X53975000Y-33845500D03*
X39687500Y-33845500D03*
D12*
X46831250Y-43497500D03*
X46831250Y-29527500D03*
D13*
X40100250Y-36512500D03*
X53562250Y-36512500D03*
D14*
X39274750Y-41211500D03*
X54387750Y-41211500D03*
X54387750Y-31813500D03*
X39274750Y-31813500D03*
D15*
X46831250Y-43243500D03*
X46831250Y-29781500D03*
%TD*%
D11*
%TO.C,MX40*%
X53975000Y-96329500D03*
X39687500Y-96329500D03*
X53975000Y-90995500D03*
X39687500Y-90995500D03*
D12*
X46831250Y-100647500D03*
X46831250Y-86677500D03*
D13*
X40100250Y-93662500D03*
X53562250Y-93662500D03*
D14*
X39274750Y-98361500D03*
X54387750Y-98361500D03*
X54387750Y-88963500D03*
X39274750Y-88963500D03*
D15*
X46831250Y-100393500D03*
X46831250Y-86931500D03*
%TD*%
D11*
%TO.C,MX38*%
X92075000Y-96329500D03*
X77787500Y-96329500D03*
X92075000Y-90995500D03*
X77787500Y-90995500D03*
D12*
X84931250Y-100647500D03*
X84931250Y-86677500D03*
D13*
X78200250Y-93662500D03*
X91662250Y-93662500D03*
D14*
X77374750Y-98361500D03*
X92487750Y-98361500D03*
X92487750Y-88963500D03*
X77374750Y-88963500D03*
D15*
X84931250Y-100393500D03*
X84931250Y-86931500D03*
%TD*%
D11*
%TO.C,MX37*%
X111125000Y-96329500D03*
X96837500Y-96329500D03*
X111125000Y-90995500D03*
X96837500Y-90995500D03*
D12*
X103981250Y-100647500D03*
X103981250Y-86677500D03*
D13*
X97250250Y-93662500D03*
X110712250Y-93662500D03*
D14*
X96424750Y-98361500D03*
X111537750Y-98361500D03*
X111537750Y-88963500D03*
X96424750Y-88963500D03*
D15*
X103981250Y-100393500D03*
X103981250Y-86931500D03*
%TD*%
D11*
%TO.C,MX30*%
X53975000Y-77279500D03*
X39687500Y-77279500D03*
X53975000Y-71945500D03*
X39687500Y-71945500D03*
D12*
X46831250Y-81597500D03*
X46831250Y-67627500D03*
D13*
X40100250Y-74612500D03*
X53562250Y-74612500D03*
D14*
X39274750Y-79311500D03*
X54387750Y-79311500D03*
X54387750Y-69913500D03*
X39274750Y-69913500D03*
D15*
X46831250Y-81343500D03*
X46831250Y-67881500D03*
%TD*%
D11*
%TO.C,MX29*%
X73025000Y-77279500D03*
X58737500Y-77279500D03*
X73025000Y-71945500D03*
X58737500Y-71945500D03*
D12*
X65881250Y-81597500D03*
X65881250Y-67627500D03*
D13*
X59150250Y-74612500D03*
X72612250Y-74612500D03*
D14*
X58324750Y-79311500D03*
X73437750Y-79311500D03*
X73437750Y-69913500D03*
X58324750Y-69913500D03*
D15*
X65881250Y-81343500D03*
X65881250Y-67881500D03*
%TD*%
D11*
%TO.C,MX28*%
X92075000Y-77279500D03*
X77787500Y-77279500D03*
X92075000Y-71945500D03*
X77787500Y-71945500D03*
D12*
X84931250Y-81597500D03*
X84931250Y-67627500D03*
D13*
X78200250Y-74612500D03*
X91662250Y-74612500D03*
D14*
X77374750Y-79311500D03*
X92487750Y-79311500D03*
X92487750Y-69913500D03*
X77374750Y-69913500D03*
D15*
X84931250Y-81343500D03*
X84931250Y-67881500D03*
%TD*%
D11*
%TO.C,MX20*%
X53975000Y-58229500D03*
X39687500Y-58229500D03*
X53975000Y-52895500D03*
X39687500Y-52895500D03*
D12*
X46831250Y-62547500D03*
X46831250Y-48577500D03*
D13*
X40100250Y-55562500D03*
X53562250Y-55562500D03*
D14*
X39274750Y-60261500D03*
X54387750Y-60261500D03*
X54387750Y-50863500D03*
X39274750Y-50863500D03*
D15*
X46831250Y-62293500D03*
X46831250Y-48831500D03*
%TD*%
D11*
%TO.C,MX19*%
X73025000Y-58229500D03*
X58737500Y-58229500D03*
X73025000Y-52895500D03*
X58737500Y-52895500D03*
D12*
X65881250Y-62547500D03*
X65881250Y-48577500D03*
D13*
X59150250Y-55562500D03*
X72612250Y-55562500D03*
D14*
X58324750Y-60261500D03*
X73437750Y-60261500D03*
X73437750Y-50863500D03*
X58324750Y-50863500D03*
D15*
X65881250Y-62293500D03*
X65881250Y-48831500D03*
%TD*%
D11*
%TO.C,MX18*%
X92075000Y-58229500D03*
X77787500Y-58229500D03*
X92075000Y-52895500D03*
X77787500Y-52895500D03*
D12*
X84931250Y-62547500D03*
X84931250Y-48577500D03*
D13*
X78200250Y-55562500D03*
X91662250Y-55562500D03*
D14*
X77374750Y-60261500D03*
X92487750Y-60261500D03*
X92487750Y-50863500D03*
X77374750Y-50863500D03*
D15*
X84931250Y-62293500D03*
X84931250Y-48831500D03*
%TD*%
D11*
%TO.C,MX17*%
X111125000Y-58229500D03*
X96837500Y-58229500D03*
X111125000Y-52895500D03*
X96837500Y-52895500D03*
D12*
X103981250Y-62547500D03*
X103981250Y-48577500D03*
D13*
X97250250Y-55562500D03*
X110712250Y-55562500D03*
D14*
X96424750Y-60261500D03*
X111537750Y-60261500D03*
X111537750Y-50863500D03*
X96424750Y-50863500D03*
D15*
X103981250Y-62293500D03*
X103981250Y-48831500D03*
%TD*%
D11*
%TO.C,MX9*%
X73025000Y-39179500D03*
X58737500Y-39179500D03*
X73025000Y-33845500D03*
X58737500Y-33845500D03*
D12*
X65881250Y-43497500D03*
X65881250Y-29527500D03*
D13*
X59150250Y-36512500D03*
X72612250Y-36512500D03*
D14*
X58324750Y-41211500D03*
X73437750Y-41211500D03*
X73437750Y-31813500D03*
X58324750Y-31813500D03*
D15*
X65881250Y-43243500D03*
X65881250Y-29781500D03*
%TD*%
D11*
%TO.C,MX8*%
X92075000Y-39179500D03*
X77787500Y-39179500D03*
X92075000Y-33845500D03*
X77787500Y-33845500D03*
D12*
X84931250Y-43497500D03*
X84931250Y-29527500D03*
D13*
X78200250Y-36512500D03*
X91662250Y-36512500D03*
D14*
X77374750Y-41211500D03*
X92487750Y-41211500D03*
X92487750Y-31813500D03*
X77374750Y-31813500D03*
D15*
X84931250Y-43243500D03*
X84931250Y-29781500D03*
%TD*%
D11*
%TO.C,MX7*%
X111125000Y-39179500D03*
X96837500Y-39179500D03*
X111125000Y-33845500D03*
X96837500Y-33845500D03*
D12*
X103981250Y-43497500D03*
X103981250Y-29527500D03*
D13*
X97250250Y-36512500D03*
X110712250Y-36512500D03*
D14*
X96424750Y-41211500D03*
X111537750Y-41211500D03*
X111537750Y-31813500D03*
X96424750Y-31813500D03*
D15*
X103981250Y-43243500D03*
X103981250Y-29781500D03*
%TD*%
M02*
