M48
; DRILL file {KiCad (5.1.9-0-10_14)} date Sunday, September 05, 2021 at 04:08:07 PM
; FORMAT={-:-/ absolute / inch / decimal}
; #@! TF.CreationDate,2021-09-05T16:08:07-05:00
; #@! TF.GenerationSoftware,Kicad,Pcbnew,(5.1.9-0-10_14)
; #@! TF.FileFunction,NonPlated,1,2,NPTH
FMAT,2
INCH
T1C0.0200
T2C0.0500
T3C0.0866
%
G90
G05
T3
X2.2185Y-2.5625
X2.9685Y-1.8125
X2.9685Y-3.3125
X3.718Y-2.5625
T1
G00X1.5462Y-1.1725
M15
G01X1.5462Y-1.3325
M16
G05
G00X1.5462Y-1.5425
M15
G01X1.5462Y-1.7025
M16
G05
G00X1.5462Y-1.9225
M15
G01X1.5462Y-2.0825
M16
G05
G00X1.5462Y-2.2925
M15
G01X1.5462Y-2.4525
M16
G05
G00X1.5462Y-2.6725
M15
G01X1.5462Y-2.8325
M16
G05
G00X1.5462Y-3.0425
M15
G01X1.5462Y-3.2025
M16
G05
G00X1.5462Y-3.4225
M15
G01X1.5462Y-3.5825
M16
G05
G00X1.5462Y-3.7925
M15
G01X1.5462Y-3.9525
M16
G05
G00X1.5462Y-1.3325
M15
G01X1.5787Y-1.3325
M16
G05
G00X1.5462Y-1.5425
M15
G01X1.5787Y-1.5425
M16
G05
G00X1.5462Y-2.0825
M15
G01X1.5787Y-2.0825
M16
G05
G00X1.5462Y-2.2925
M15
G01X1.5787Y-2.2925
M16
G05
G00X1.5462Y-2.8325
M15
G01X1.5787Y-2.8325
M16
G05
G00X1.5462Y-3.0425
M15
G01X1.5787Y-3.0425
M16
G05
G00X1.5462Y-3.5825
M15
G01X1.5787Y-3.5825
M16
G05
G00X1.5462Y-3.7925
M15
G01X1.5787Y-3.7925
M16
G05
G00X1.5787Y-1.3325
M15
G01X1.5787Y-1.5425
M16
G05
G00X1.5787Y-2.0825
M15
G01X1.5787Y-2.2925
M16
G05
G00X1.5787Y-2.8325
M15
G01X1.5787Y-3.0425
M16
G05
G00X1.5787Y-3.5825
M15
G01X1.5787Y-3.7925
M16
G05
G00X1.5468Y-1.1725
M15
G01X2.1408Y-1.1725
M16
G05
G00X1.5468Y-1.7025
M15
G01X2.1408Y-1.7025
M16
G05
G00X1.5468Y-1.9225
M15
G01X2.1408Y-1.9225
M16
G05
G00X1.5468Y-2.4525
M15
G01X2.1408Y-2.4525
M16
G05
G00X1.5468Y-2.6725
M15
G01X2.1408Y-2.6725
M16
G05
G00X1.5468Y-3.2025
M15
G01X2.1408Y-3.2025
M16
G05
G00X1.5468Y-3.4225
M15
G01X2.1408Y-3.4225
M16
G05
G00X1.5468Y-3.9525
M15
G01X2.1408Y-3.9525
M16
G05
G00X2.1088Y-1.3325
M15
G01X2.1088Y-1.5425
M16
G05
G00X2.1088Y-2.0825
M15
G01X2.1088Y-2.2925
M16
G05
G00X2.1088Y-2.8325
M15
G01X2.1088Y-3.0425
M16
G05
G00X2.1088Y-3.5825
M15
G01X2.1088Y-3.7925
M16
G05
G00X2.1088Y-1.3325
M15
G01X2.1412Y-1.3325
M16
G05
G00X2.1088Y-1.5425
M15
G01X2.1412Y-1.5425
M16
G05
G00X2.1088Y-2.0825
M15
G01X2.1412Y-2.0825
M16
G05
G00X2.1088Y-2.2925
M15
G01X2.1412Y-2.2925
M16
G05
G00X2.1088Y-2.8325
M15
G01X2.1412Y-2.8325
M16
G05
G00X2.1088Y-3.0425
M15
G01X2.1412Y-3.0425
M16
G05
G00X2.1088Y-3.5825
M15
G01X2.1412Y-3.5825
M16
G05
G00X2.1088Y-3.7925
M15
G01X2.1412Y-3.7925
M16
G05
G00X2.1412Y-1.1725
M15
G01X2.1412Y-1.3325
M16
G05
G00X2.1412Y-1.5425
M15
G01X2.1412Y-1.7025
M16
G05
G00X2.1412Y-1.9225
M15
G01X2.1412Y-2.0825
M16
G05
G00X2.1412Y-2.2925
M15
G01X2.1412Y-2.4525
M16
G05
G00X2.1412Y-2.6725
M15
G01X2.1412Y-2.8325
M16
G05
G00X2.1412Y-3.0425
M15
G01X2.1412Y-3.2025
M16
G05
G00X2.1412Y-3.4225
M15
G01X2.1412Y-3.5825
M16
G05
G00X2.1412Y-3.7925
M15
G01X2.1412Y-3.9525
M16
G05
G00X2.2963Y-1.1725
M15
G01X2.2963Y-1.3325
M16
G05
G00X2.2963Y-1.5425
M15
G01X2.2963Y-1.7025
M16
G05
G00X2.2963Y-1.9225
M15
G01X2.2963Y-2.0825
M16
G05
G00X2.2963Y-2.2925
M15
G01X2.2963Y-2.4525
M16
G05
G00X2.2963Y-2.6725
M15
G01X2.2963Y-2.8325
M16
G05
G00X2.2963Y-3.0425
M15
G01X2.2963Y-3.2025
M16
G05
G00X2.2963Y-3.4225
M15
G01X2.2963Y-3.5825
M16
G05
G00X2.2963Y-3.7925
M15
G01X2.2963Y-3.9525
M16
G05
G00X2.2963Y-1.3325
M15
G01X2.3287Y-1.3325
M16
G05
G00X2.2963Y-1.5425
M15
G01X2.3287Y-1.5425
M16
G05
G00X2.2963Y-2.0825
M15
G01X2.3287Y-2.0825
M16
G05
G00X2.2963Y-2.2925
M15
G01X2.3287Y-2.2925
M16
G05
G00X2.2963Y-2.8325
M15
G01X2.3287Y-2.8325
M16
G05
G00X2.2963Y-3.0425
M15
G01X2.3287Y-3.0425
M16
G05
G00X2.2963Y-3.5825
M15
G01X2.3287Y-3.5825
M16
G05
G00X2.2963Y-3.7925
M15
G01X2.3287Y-3.7925
M16
G05
G00X2.3287Y-1.3325
M15
G01X2.3287Y-1.5425
M16
G05
G00X2.3287Y-2.0825
M15
G01X2.3287Y-2.2925
M16
G05
G00X2.3287Y-2.8325
M15
G01X2.3287Y-3.0425
M16
G05
G00X2.3287Y-3.5825
M15
G01X2.3287Y-3.7925
M16
G05
G00X2.2967Y-1.1725
M15
G01X2.8908Y-1.1725
M16
G05
G00X2.2967Y-1.7025
M15
G01X2.8908Y-1.7025
M16
G05
G00X2.2967Y-1.9225
M15
G01X2.8908Y-1.9225
M16
G05
G00X2.2967Y-2.4525
M15
G01X2.8908Y-2.4525
M16
G05
G00X2.2967Y-2.6725
M15
G01X2.8908Y-2.6725
M16
G05
G00X2.2967Y-3.2025
M15
G01X2.8908Y-3.2025
M16
G05
G00X2.2967Y-3.4225
M15
G01X2.8908Y-3.4225
M16
G05
G00X2.2967Y-3.9525
M15
G01X2.8908Y-3.9525
M16
G05
G00X2.8588Y-1.3325
M15
G01X2.8588Y-1.5425
M16
G05
G00X2.8588Y-2.0825
M15
G01X2.8588Y-2.2925
M16
G05
G00X2.8588Y-2.8325
M15
G01X2.8588Y-3.0425
M16
G05
G00X2.8588Y-3.5825
M15
G01X2.8588Y-3.7925
M16
G05
G00X2.8588Y-1.3325
M15
G01X2.8912Y-1.3325
M16
G05
G00X2.8588Y-1.5425
M15
G01X2.8912Y-1.5425
M16
G05
G00X2.8588Y-2.0825
M15
G01X2.8912Y-2.0825
M16
G05
G00X2.8588Y-2.2925
M15
G01X2.8912Y-2.2925
M16
G05
G00X2.8588Y-2.8325
M15
G01X2.8912Y-2.8325
M16
G05
G00X2.8588Y-3.0425
M15
G01X2.8912Y-3.0425
M16
G05
G00X2.8588Y-3.5825
M15
G01X2.8912Y-3.5825
M16
G05
G00X2.8588Y-3.7925
M15
G01X2.8912Y-3.7925
M16
G05
G00X2.8912Y-1.1725
M15
G01X2.8912Y-1.3325
M16
G05
G00X2.8912Y-1.5425
M15
G01X2.8912Y-1.7025
M16
G05
G00X2.8912Y-1.9225
M15
G01X2.8912Y-2.0825
M16
G05
G00X2.8912Y-2.2925
M15
G01X2.8912Y-2.4525
M16
G05
G00X2.8912Y-2.6725
M15
G01X2.8912Y-2.8325
M16
G05
G00X2.8912Y-3.0425
M15
G01X2.8912Y-3.2025
M16
G05
G00X2.8912Y-3.4225
M15
G01X2.8912Y-3.5825
M16
G05
G00X2.8912Y-3.7925
M15
G01X2.8912Y-3.9525
M16
G05
G00X3.0463Y-1.1725
M15
G01X3.0463Y-1.3325
M16
G05
G00X3.0463Y-1.5425
M15
G01X3.0463Y-1.7025
M16
G05
G00X3.0463Y-1.9225
M15
G01X3.0463Y-2.0825
M16
G05
G00X3.0463Y-2.2925
M15
G01X3.0463Y-2.4525
M16
G05
G00X3.0463Y-2.6725
M15
G01X3.0463Y-2.8325
M16
G05
G00X3.0463Y-3.0425
M15
G01X3.0463Y-3.2025
M16
G05
G00X3.0463Y-3.4225
M15
G01X3.0463Y-3.5825
M16
G05
G00X3.0463Y-3.7925
M15
G01X3.0463Y-3.9525
M16
G05
G00X3.0463Y-1.3325
M15
G01X3.0787Y-1.3325
M16
G05
G00X3.0463Y-1.5425
M15
G01X3.0787Y-1.5425
M16
G05
G00X3.0463Y-2.0825
M15
G01X3.0787Y-2.0825
M16
G05
G00X3.0463Y-2.2925
M15
G01X3.0787Y-2.2925
M16
G05
G00X3.0463Y-2.8325
M15
G01X3.0787Y-2.8325
M16
G05
G00X3.0463Y-3.0425
M15
G01X3.0787Y-3.0425
M16
G05
G00X3.0463Y-3.5825
M15
G01X3.0787Y-3.5825
M16
G05
G00X3.0463Y-3.7925
M15
G01X3.0787Y-3.7925
M16
G05
G00X3.0787Y-1.3325
M15
G01X3.0787Y-1.5425
M16
G05
G00X3.0787Y-2.0825
M15
G01X3.0787Y-2.2925
M16
G05
G00X3.0787Y-2.8325
M15
G01X3.0787Y-3.0425
M16
G05
G00X3.0787Y-3.5825
M15
G01X3.0787Y-3.7925
M16
G05
G00X3.0467Y-1.1725
M15
G01X3.6407Y-1.1725
M16
G05
G00X3.0467Y-1.7025
M15
G01X3.6407Y-1.7025
M16
G05
G00X3.0467Y-1.9225
M15
G01X3.6407Y-1.9225
M16
G05
G00X3.0467Y-2.4525
M15
G01X3.6407Y-2.4525
M16
G05
G00X3.0467Y-2.6725
M15
G01X3.6407Y-2.6725
M16
G05
G00X3.0467Y-3.2025
M15
G01X3.6407Y-3.2025
M16
G05
G00X3.0467Y-3.4225
M15
G01X3.6407Y-3.4225
M16
G05
G00X3.0467Y-3.9525
M15
G01X3.6407Y-3.9525
M16
G05
G00X3.6088Y-1.3325
M15
G01X3.6088Y-1.5425
M16
G05
G00X3.6088Y-2.0825
M15
G01X3.6088Y-2.2925
M16
G05
G00X3.6088Y-2.8325
M15
G01X3.6088Y-3.0425
M16
G05
G00X3.6088Y-3.5825
M15
G01X3.6088Y-3.7925
M16
G05
G00X3.6088Y-1.3325
M15
G01X3.6412Y-1.3325
M16
G05
G00X3.6088Y-1.5425
M15
G01X3.6412Y-1.5425
M16
G05
G00X3.6088Y-2.0825
M15
G01X3.6412Y-2.0825
M16
G05
G00X3.6088Y-2.2925
M15
G01X3.6412Y-2.2925
M16
G05
G00X3.6088Y-2.8325
M15
G01X3.6412Y-2.8325
M16
G05
G00X3.6088Y-3.0425
M15
G01X3.6412Y-3.0425
M16
G05
G00X3.6088Y-3.5825
M15
G01X3.6412Y-3.5825
M16
G05
G00X3.6088Y-3.7925
M15
G01X3.6412Y-3.7925
M16
G05
G00X3.6412Y-1.1725
M15
G01X3.6412Y-1.3325
M16
G05
G00X3.6412Y-1.5425
M15
G01X3.6412Y-1.7025
M16
G05
G00X3.6412Y-1.9225
M15
G01X3.6412Y-2.0825
M16
G05
G00X3.6412Y-2.2925
M15
G01X3.6412Y-2.4525
M16
G05
G00X3.6412Y-2.6725
M15
G01X3.6412Y-2.8325
M16
G05
G00X3.6412Y-3.0425
M15
G01X3.6412Y-3.2025
M16
G05
G00X3.6412Y-3.4225
M15
G01X3.6412Y-3.5825
M16
G05
G00X3.6412Y-3.7925
M15
G01X3.6412Y-3.9525
M16
G05
G00X3.7963Y-1.1725
M15
G01X3.7963Y-1.3325
M16
G05
G00X3.7963Y-1.5425
M15
G01X3.7963Y-1.7025
M16
G05
G00X3.7963Y-1.9225
M15
G01X3.7963Y-2.0825
M16
G05
G00X3.7963Y-2.2925
M15
G01X3.7963Y-2.4525
M16
G05
G00X3.7963Y-2.6725
M15
G01X3.7963Y-2.8325
M16
G05
G00X3.7963Y-3.0425
M15
G01X3.7963Y-3.2025
M16
G05
G00X3.7963Y-3.4225
M15
G01X3.7963Y-3.5825
M16
G05
G00X3.7963Y-3.7925
M15
G01X3.7963Y-3.9525
M16
G05
G00X3.7963Y-1.3325
M15
G01X3.8287Y-1.3325
M16
G05
G00X3.7963Y-1.5425
M15
G01X3.8287Y-1.5425
M16
G05
G00X3.7963Y-2.0825
M15
G01X3.8287Y-2.0825
M16
G05
G00X3.7963Y-2.2925
M15
G01X3.8287Y-2.2925
M16
G05
G00X3.7963Y-2.8325
M15
G01X3.8287Y-2.8325
M16
G05
G00X3.7963Y-3.0425
M15
G01X3.8287Y-3.0425
M16
G05
G00X3.7963Y-3.5825
M15
G01X3.8287Y-3.5825
M16
G05
G00X3.7963Y-3.7925
M15
G01X3.8287Y-3.7925
M16
G05
G00X3.8287Y-1.3325
M15
G01X3.8287Y-1.5425
M16
G05
G00X3.8287Y-2.0825
M15
G01X3.8287Y-2.2925
M16
G05
G00X3.8287Y-2.8325
M15
G01X3.8287Y-3.0425
M16
G05
G00X3.8287Y-3.5825
M15
G01X3.8287Y-3.7925
M16
G05
G00X3.7967Y-1.1725
M15
G01X4.3907Y-1.1725
M16
G05
G00X3.7967Y-1.7025
M15
G01X4.3907Y-1.7025
M16
G05
G00X3.7967Y-1.9225
M15
G01X4.3907Y-1.9225
M16
G05
G00X3.7967Y-2.4525
M15
G01X4.3907Y-2.4525
M16
G05
G00X3.7967Y-2.6725
M15
G01X4.3907Y-2.6725
M16
G05
G00X3.7967Y-3.2025
M15
G01X4.3907Y-3.2025
M16
G05
G00X3.7967Y-3.4225
M15
G01X4.3907Y-3.4225
M16
G05
G00X3.7967Y-3.9525
M15
G01X4.3907Y-3.9525
M16
G05
G00X4.3587Y-1.3325
M15
G01X4.3587Y-1.5425
M16
G05
G00X4.3587Y-2.0825
M15
G01X4.3587Y-2.2925
M16
G05
G00X4.3587Y-2.8325
M15
G01X4.3587Y-3.0425
M16
G05
G00X4.3587Y-3.5825
M15
G01X4.3587Y-3.7925
M16
G05
G00X4.3587Y-1.3325
M15
G01X4.3913Y-1.3325
M16
G05
G00X4.3587Y-1.5425
M15
G01X4.3913Y-1.5425
M16
G05
G00X4.3587Y-2.0825
M15
G01X4.3913Y-2.0825
M16
G05
G00X4.3587Y-2.2925
M15
G01X4.3913Y-2.2925
M16
G05
G00X4.3587Y-2.8325
M15
G01X4.3913Y-2.8325
M16
G05
G00X4.3587Y-3.0425
M15
G01X4.3913Y-3.0425
M16
G05
G00X4.3587Y-3.5825
M15
G01X4.3913Y-3.5825
M16
G05
G00X4.3587Y-3.7925
M15
G01X4.3913Y-3.7925
M16
G05
G00X4.3913Y-1.1725
M15
G01X4.3913Y-1.3325
M16
G05
G00X4.3913Y-1.5425
M15
G01X4.3913Y-1.7025
M16
G05
G00X4.3913Y-1.9225
M15
G01X4.3913Y-2.0825
M16
G05
G00X4.3913Y-2.2925
M15
G01X4.3913Y-2.4525
M16
G05
G00X4.3913Y-2.6725
M15
G01X4.3913Y-2.8325
M16
G05
G00X4.3913Y-3.0425
M15
G01X4.3913Y-3.2025
M16
G05
G00X4.3913Y-3.4225
M15
G01X4.3913Y-3.5825
M16
G05
G00X4.3913Y-3.7925
M15
G01X4.3913Y-3.9525
M16
G05
T2
G00X1.7688Y-1.1625
M15
G01X1.9187Y-1.1625
M16
G05
G00X1.7688Y-1.7125
M15
G01X1.9187Y-1.7125
M16
G05
G00X1.7688Y-1.9125
M15
G01X1.9187Y-1.9125
M16
G05
G00X1.7688Y-2.4625
M15
G01X1.9187Y-2.4625
M16
G05
G00X1.7688Y-2.6625
M15
G01X1.9187Y-2.6625
M16
G05
G00X1.7688Y-3.2125
M15
G01X1.9187Y-3.2125
M16
G05
G00X1.7688Y-3.4125
M15
G01X1.9187Y-3.4125
M16
G05
G00X1.7688Y-3.9625
M15
G01X1.9187Y-3.9625
M16
G05
G00X2.5187Y-1.1625
M15
G01X2.6687Y-1.1625
M16
G05
G00X2.5187Y-1.7125
M15
G01X2.6687Y-1.7125
M16
G05
G00X2.5187Y-1.9125
M15
G01X2.6687Y-1.9125
M16
G05
G00X2.5187Y-2.4625
M15
G01X2.6687Y-2.4625
M16
G05
G00X2.5187Y-2.6625
M15
G01X2.6687Y-2.6625
M16
G05
G00X2.5187Y-3.2125
M15
G01X2.6687Y-3.2125
M16
G05
G00X2.5187Y-3.4125
M15
G01X2.6687Y-3.4125
M16
G05
G00X2.5187Y-3.9625
M15
G01X2.6687Y-3.9625
M16
G05
G00X3.2687Y-1.1625
M15
G01X3.4187Y-1.1625
M16
G05
G00X3.2687Y-1.7125
M15
G01X3.4187Y-1.7125
M16
G05
G00X3.2687Y-1.9125
M15
G01X3.4187Y-1.9125
M16
G05
G00X3.2687Y-2.4625
M15
G01X3.4187Y-2.4625
M16
G05
G00X3.2687Y-2.6625
M15
G01X3.4187Y-2.6625
M16
G05
G00X3.2687Y-3.2125
M15
G01X3.4187Y-3.2125
M16
G05
G00X3.2687Y-3.4125
M15
G01X3.4187Y-3.4125
M16
G05
G00X3.2687Y-3.9625
M15
G01X3.4187Y-3.9625
M16
G05
G00X4.0187Y-1.1625
M15
G01X4.1688Y-1.1625
M16
G05
G00X4.0187Y-1.7125
M15
G01X4.1688Y-1.7125
M16
G05
G00X4.0187Y-1.9125
M15
G01X4.1688Y-1.9125
M16
G05
G00X4.0187Y-2.4625
M15
G01X4.1688Y-2.4625
M16
G05
G00X4.0187Y-2.6625
M15
G01X4.1688Y-2.6625
M16
G05
G00X4.0187Y-3.2125
M15
G01X4.1688Y-3.2125
M16
G05
G00X4.0187Y-3.4125
M15
G01X4.1688Y-3.4125
M16
G05
G00X4.0187Y-3.9625
M15
G01X4.1688Y-3.9625
M16
G05
T0
M30
